solid OpenSCAD_Model
  facet normal -0 0 -1
    outer loop
      vertex 19.2635 20.9353 0.091
      vertex 18.6678 20.3763 0.091
      vertex 13.11 27.3844 0.091
    endloop
  endfacet
  facet normal 0 -0 -1
    outer loop
      vertex 10.4007 24.2022 0.091
      vertex 17.0402 18.4652 0.091
      vertex 9.63609 23.0667 0.091
    endloop
  endfacet
  facet normal -0 0 -1
    outer loop
      vertex 29.6119 33.049 0.091
      vertex 27.7892 23.8518 0.091
      vertex 28.3193 33.1704 0.091
    endloop
  endfacet
  facet normal -0 0 -1
    outer loop
      vertex 23.2132 23.2685 0.091
      vertex 22.5102 23.0011 0.091
      vertex 19.512 31.7542 0.091
    endloop
  endfacet
  facet normal -0 0 -1
    outer loop
      vertex 23.9341 23.4872 0.091
      vertex 23.2132 23.2685 0.091
      vertex 20.6843 32.1993 0.091
    endloop
  endfacet
  facet normal 0 -0 -1
    outer loop
      vertex 25.674 33.1704 0.091
      vertex 26.2042 23.8518 0.091
      vertex 24.3815 33.049 0.091
    endloop
  endfacet
  facet normal 0 -0 -1
    outer loop
      vertex 24.3815 33.049 0.091
      vertex 25.4296 23.7789 0.091
      vertex 23.119 32.8467 0.091
    endloop
  endfacet
  facet normal 0 -0 -1
    outer loop
      vertex 23.119 32.8467 0.091
      vertex 24.6729 23.6573 0.091
      vertex 21.8866 32.5635 0.091
    endloop
  endfacet
  facet normal 0 -0 -1
    outer loop
      vertex 21.8866 32.5635 0.091
      vertex 23.9341 23.4872 0.091
      vertex 20.6843 32.1993 0.091
    endloop
  endfacet
  facet normal 0 -0 -1
    outer loop
      vertex 26.9967 33.2109 0.091
      vertex 26.9967 23.8761 0.091
      vertex 25.674 33.1704 0.091
    endloop
  endfacet
  facet normal -0 0 -1
    outer loop
      vertex 22.5102 23.0011 0.091
      vertex 21.825 22.6852 0.091
      vertex 18.3698 31.2282 0.091
    endloop
  endfacet
  facet normal 0 0 -1
    outer loop
      vertex 14.1018 28.315 0.091
      vertex 15.1237 29.1647 0.091
      vertex 19.877 21.4457 0.091
    endloop
  endfacet
  facet normal 0 0 -1
    outer loop
      vertex 20.5085 21.9075 0.091
      vertex 15.1237 29.1647 0.091
      vertex 16.1757 29.9335 0.091
    endloop
  endfacet
  facet normal -0 0 -1
    outer loop
      vertex 16.1652 17.0821 0.091
      vertex 15.7934 16.3607 0.091
      vertex 8.32539 20.6956 0.091
    endloop
  endfacet
  facet normal -0 0 -1
    outer loop
      vertex 21.1578 22.3206 0.091
      vertex 20.5085 21.9075 0.091
      vertex 16.1757 29.9335 0.091
    endloop
  endfacet
  facet normal 0 -0 -1
    outer loop
      vertex 7.77928 19.4598 0.091
      vertex 15.4653 15.6194 0.091
      vertex 7.30595 18.1907 0.091
    endloop
  endfacet
  facet normal 0 0 -1
    outer loop
      vertex 15.1809 14.8583 0.091
      vertex 7.30595 18.1907 0.091
      vertex 15.4653 15.6194 0.091
    endloop
  endfacet
  facet normal -0 0 -1
    outer loop
      vertex 33.3091 32.1993 0.091
      vertex 30.0595 23.4872 0.091
      vertex 32.1067 32.5635 0.091
    endloop
  endfacet
  facet normal 0 -0 -1
    outer loop
      vertex 7.30595 18.1907 0.091
      vertex 15.1809 14.8583 0.091
      vertex 6.90547 16.8881 0.091
    endloop
  endfacet
  facet normal 0 0 -1
    outer loop
      vertex 33.3091 32.1993 0.091
      vertex 30.7804 23.2685 0.091
      vertex 30.0595 23.4872 0.091
    endloop
  endfacet
  facet normal 0 0 -1
    outer loop
      vertex 14.9403 14.0773 0.091
      vertex 6.90547 16.8881 0.091
      vertex 15.1809 14.8583 0.091
    endloop
  endfacet
  facet normal 0 -0 -1
    outer loop
      vertex 6.90547 16.8881 0.091
      vertex 14.9403 14.0773 0.091
      vertex 6.57779 15.5521 0.091
    endloop
  endfacet
  facet normal -0 0 -1
    outer loop
      vertex 36.7356 30.6213 0.091
      vertex 32.1686 22.6852 0.091
      vertex 35.6235 31.2282 0.091
    endloop
  endfacet
  facet normal 0 0 -1
    outer loop
      vertex 14.7435 13.2764 0.091
      vertex 6.57779 15.5521 0.091
      vertex 14.9403 14.0773 0.091
    endloop
  endfacet
  facet normal 0 0 -1
    outer loop
      vertex 36.7356 30.6213 0.091
      vertex 32.8358 22.3206 0.091
      vertex 32.1686 22.6852 0.091
    endloop
  endfacet
  facet normal 0 -0 -1
    outer loop
      vertex 6.57779 15.5521 0.091
      vertex 14.7435 13.2764 0.091
      vertex 6.32294 14.1827 0.091
    endloop
  endfacet
  facet normal 0 0 -1
    outer loop
      vertex 14.5903 12.4556 0.091
      vertex 6.32294 14.1827 0.091
      vertex 14.7435 13.2764 0.091
    endloop
  endfacet
  facet normal -0 0 -1
    outer loop
      vertex 39.8915 28.315 0.091
      vertex 34.1165 21.4457 0.091
      vertex 38.8696 29.1647 0.091
    endloop
  endfacet
  facet normal 0 -0 -1
    outer loop
      vertex 6.32294 14.1827 0.091
      vertex 14.5903 12.4556 0.091
      vertex 6.1409 12.7799 0.091
    endloop
  endfacet
  facet normal 0 0 -1
    outer loop
      vertex 39.8915 28.315 0.091
      vertex 34.73 20.9353 0.091
      vertex 34.1165 21.4457 0.091
    endloop
  endfacet
  facet normal 0 0 -1
    outer loop
      vertex 14.481 11.6149 0.091
      vertex 6.1409 12.7799 0.091
      vertex 14.5903 12.4556 0.091
    endloop
  endfacet
  facet normal 0 -0 -1
    outer loop
      vertex 6.1409 12.7799 0.091
      vertex 14.481 11.6149 0.091
      vertex 6.03168 11.3436 0.091
    endloop
  endfacet
  facet normal -0 0 -1
    outer loop
      vertex 42.7554 25.3042 0.091
      vertex 35.9032 19.7687 0.091
      vertex 41.8451 26.3728 0.091
    endloop
  endfacet
  facet normal 0 0 -1
    outer loop
      vertex 14.4153 10.7543 0.091
      vertex 6.03168 11.3436 0.091
      vertex 14.481 11.6149 0.091
    endloop
  endfacet
  facet normal 0 0 -1
    outer loop
      vertex 42.7554 25.3042 0.091
      vertex 36.4502 19.1269 0.091
      vertex 35.9032 19.7687 0.091
    endloop
  endfacet
  facet normal 0 -0 -1
    outer loop
      vertex 6.03168 11.3436 0.091
      vertex 14.4153 10.7543 0.091
      vertex 5.99525 9.87392 0.091
    endloop
  endfacet
  facet normal 0 0 -1
    outer loop
      vertex 14.3935 9.87392 0.091
      vertex 5.99525 9.87392 0.091
      vertex 14.4153 10.7543 0.091
    endloop
  endfacet
  facet normal 0 0 -1
    outer loop
      vertex 37.4128 17.7836 0.091
      vertex 36.9533 18.4652 0.091
      vertex 44.3575 23.0667 0.091
    endloop
  endfacet
  facet normal -0 0 -1
    outer loop
      vertex 45.0493 21.8979 0.091
      vertex 37.4128 17.7836 0.091
      vertex 44.3575 23.0667 0.091
    endloop
  endfacet
  facet normal 0 0 -1
    outer loop
      vertex 14.3935 -0.699997 0.091
      vertex 5.99525 9.87392 0.091
      vertex 14.3935 9.87392 0.091
    endloop
  endfacet
  facet normal 0 0 -1
    outer loop
      vertex 39.2504 13.2764 0.091
      vertex 39.0535 14.0773 0.091
      vertex 47.4161 15.5521 0.091
    endloop
  endfacet
  facet normal 0 0 -1
    outer loop
      vertex 5.99525 9.87392 0.091
      vertex 14.3935 -0.699997 0.091
      vertex 5.99525 -0.699997 0.091
    endloop
  endfacet
  facet normal 0 0 -1
    outer loop
      vertex 15.4653 15.6194 0.091
      vertex 7.77928 19.4598 0.091
      vertex 15.7934 16.3607 0.091
    endloop
  endfacet
  facet normal -0 0 -1
    outer loop
      vertex 47.671 14.1827 0.091
      vertex 39.2504 13.2764 0.091
      vertex 47.4161 15.5521 0.091
    endloop
  endfacet
  facet normal 0 0 -1
    outer loop
      vertex 15.7934 16.3607 0.091
      vertex 7.77928 19.4598 0.091
      vertex 8.32539 20.6956 0.091
    endloop
  endfacet
  facet normal 0 0 -1
    outer loop
      vertex 16.1652 17.0821 0.091
      vertex 8.94434 21.8979 0.091
      vertex 16.5808 17.7836 0.091
    endloop
  endfacet
  facet normal 0 0 -1
    outer loop
      vertex 8.32539 20.6956 0.091
      vertex 8.94434 21.8979 0.091
      vertex 16.1652 17.0821 0.091
    endloop
  endfacet
  facet normal 0 0 -1
    outer loop
      vertex 16.5808 17.7836 0.091
      vertex 9.63609 23.0667 0.091
      vertex 17.0402 18.4652 0.091
    endloop
  endfacet
  facet normal 0 0 -1
    outer loop
      vertex 8.94434 21.8979 0.091
      vertex 9.63609 23.0667 0.091
      vertex 16.5808 17.7836 0.091
    endloop
  endfacet
  facet normal 0 0 -1
    outer loop
      vertex 10.4007 24.2022 0.091
      vertex 17.5433 19.1269 0.091
      vertex 17.0402 18.4652 0.091
    endloop
  endfacet
  facet normal 0 0 -1
    outer loop
      vertex 17.5433 19.1269 0.091
      vertex 11.2381 25.3042 0.091
      vertex 18.0901 19.7687 0.091
    endloop
  endfacet
  facet normal 0 0 -1
    outer loop
      vertex 10.4007 24.2022 0.091
      vertex 11.2381 25.3042 0.091
      vertex 17.5433 19.1269 0.091
    endloop
  endfacet
  facet normal 0 0 -1
    outer loop
      vertex 18.0901 19.7687 0.091
      vertex 12.1483 26.3728 0.091
      vertex 18.6678 20.3763 0.091
    endloop
  endfacet
  facet normal 0 0 -1
    outer loop
      vertex 11.2381 25.3042 0.091
      vertex 12.1483 26.3728 0.091
      vertex 18.0901 19.7687 0.091
    endloop
  endfacet
  facet normal 0 0 -1
    outer loop
      vertex 18.6678 20.3763 0.091
      vertex 12.1483 26.3728 0.091
      vertex 13.11 27.3844 0.091
    endloop
  endfacet
  facet normal 0 0 -1
    outer loop
      vertex 19.2635 20.9353 0.091
      vertex 14.1018 28.315 0.091
      vertex 19.877 21.4457 0.091
    endloop
  endfacet
  facet normal 0 0 -1
    outer loop
      vertex 13.11 27.3844 0.091
      vertex 14.1018 28.315 0.091
      vertex 19.2635 20.9353 0.091
    endloop
  endfacet
  facet normal 0 0 -1
    outer loop
      vertex 19.877 21.4457 0.091
      vertex 15.1237 29.1647 0.091
      vertex 20.5085 21.9075 0.091
    endloop
  endfacet
  facet normal 0 -0 -1
    outer loop
      vertex 17.2577 30.6213 0.091
      vertex 21.1578 22.3206 0.091
      vertex 16.1757 29.9335 0.091
    endloop
  endfacet
  facet normal 0 0 -1
    outer loop
      vertex 17.2577 30.6213 0.091
      vertex 21.825 22.6852 0.091
      vertex 21.1578 22.3206 0.091
    endloop
  endfacet
  facet normal 0 0 -1
    outer loop
      vertex 21.825 22.6852 0.091
      vertex 17.2577 30.6213 0.091
      vertex 18.3698 31.2282 0.091
    endloop
  endfacet
  facet normal 0 0 -1
    outer loop
      vertex 22.5102 23.0011 0.091
      vertex 18.3698 31.2282 0.091
      vertex 19.512 31.7542 0.091
    endloop
  endfacet
  facet normal 0 0 -1
    outer loop
      vertex 23.2132 23.2685 0.091
      vertex 19.512 31.7542 0.091
      vertex 20.6843 32.1993 0.091
    endloop
  endfacet
  facet normal 0 0 -1
    outer loop
      vertex 21.8866 32.5635 0.091
      vertex 24.6729 23.6573 0.091
      vertex 23.9341 23.4872 0.091
    endloop
  endfacet
  facet normal 0 0 -1
    outer loop
      vertex 23.119 32.8467 0.091
      vertex 25.4296 23.7789 0.091
      vertex 24.6729 23.6573 0.091
    endloop
  endfacet
  facet normal 0 0 -1
    outer loop
      vertex 24.3815 33.049 0.091
      vertex 26.2042 23.8518 0.091
      vertex 25.4296 23.7789 0.091
    endloop
  endfacet
  facet normal 0 0 -1
    outer loop
      vertex 25.674 33.1704 0.091
      vertex 26.9967 23.8761 0.091
      vertex 26.2042 23.8518 0.091
    endloop
  endfacet
  facet normal 0 0 -1
    outer loop
      vertex 26.9967 33.2109 0.091
      vertex 28.3193 33.1704 0.091
      vertex 26.9967 23.8761 0.091
    endloop
  endfacet
  facet normal 0 0 -1
    outer loop
      vertex 27.7892 23.8518 0.091
      vertex 26.9967 23.8761 0.091
      vertex 28.3193 33.1704 0.091
    endloop
  endfacet
  facet normal 0 0 -1
    outer loop
      vertex 28.5639 23.7789 0.091
      vertex 29.6119 33.049 0.091
      vertex 30.8743 32.8467 0.091
    endloop
  endfacet
  facet normal 0 0 -1
    outer loop
      vertex 27.7892 23.8518 0.091
      vertex 29.6119 33.049 0.091
      vertex 28.5639 23.7789 0.091
    endloop
  endfacet
  facet normal 0 0 -1
    outer loop
      vertex 29.3207 23.6573 0.091
      vertex 30.8743 32.8467 0.091
      vertex 32.1067 32.5635 0.091
    endloop
  endfacet
  facet normal 0 0 -1
    outer loop
      vertex 28.5639 23.7789 0.091
      vertex 30.8743 32.8467 0.091
      vertex 29.3207 23.6573 0.091
    endloop
  endfacet
  facet normal 0 0 -1
    outer loop
      vertex 30.0595 23.4872 0.091
      vertex 29.3207 23.6573 0.091
      vertex 32.1067 32.5635 0.091
    endloop
  endfacet
  facet normal 0 -0 -1
    outer loop
      vertex 33.3091 32.1993 0.091
      vertex 34.4813 31.7542 0.091
      vertex 30.7804 23.2685 0.091
    endloop
  endfacet
  facet normal 0 0 -1
    outer loop
      vertex 31.4835 23.0011 0.091
      vertex 34.4813 31.7542 0.091
      vertex 35.6235 31.2282 0.091
    endloop
  endfacet
  facet normal 0 0 -1
    outer loop
      vertex 30.7804 23.2685 0.091
      vertex 34.4813 31.7542 0.091
      vertex 31.4835 23.0011 0.091
    endloop
  endfacet
  facet normal 0 0 -1
    outer loop
      vertex 32.1686 22.6852 0.091
      vertex 31.4835 23.0011 0.091
      vertex 35.6235 31.2282 0.091
    endloop
  endfacet
  facet normal 0 -0 -1
    outer loop
      vertex 36.7356 30.6213 0.091
      vertex 37.8177 29.9335 0.091
      vertex 32.8358 22.3206 0.091
    endloop
  endfacet
  facet normal 0 0 -1
    outer loop
      vertex 33.4851 21.9075 0.091
      vertex 37.8177 29.9335 0.091
      vertex 38.8696 29.1647 0.091
    endloop
  endfacet
  facet normal 0 0 -1
    outer loop
      vertex 32.8358 22.3206 0.091
      vertex 37.8177 29.9335 0.091
      vertex 33.4851 21.9075 0.091
    endloop
  endfacet
  facet normal 0 0 -1
    outer loop
      vertex 34.1165 21.4457 0.091
      vertex 33.4851 21.9075 0.091
      vertex 38.8696 29.1647 0.091
    endloop
  endfacet
  facet normal 0 -0 -1
    outer loop
      vertex 39.8915 28.315 0.091
      vertex 40.8833 27.3844 0.091
      vertex 34.73 20.9353 0.091
    endloop
  endfacet
  facet normal 0 0 -1
    outer loop
      vertex 35.3256 20.3763 0.091
      vertex 40.8833 27.3844 0.091
      vertex 41.8451 26.3728 0.091
    endloop
  endfacet
  facet normal 0 0 -1
    outer loop
      vertex 34.73 20.9353 0.091
      vertex 40.8833 27.3844 0.091
      vertex 35.3256 20.3763 0.091
    endloop
  endfacet
  facet normal 0 0 -1
    outer loop
      vertex 35.9032 19.7687 0.091
      vertex 35.3256 20.3763 0.091
      vertex 41.8451 26.3728 0.091
    endloop
  endfacet
  facet normal 0 -0 -1
    outer loop
      vertex 42.7554 25.3042 0.091
      vertex 43.5928 24.2022 0.091
      vertex 36.4502 19.1269 0.091
    endloop
  endfacet
  facet normal 0 0 -1
    outer loop
      vertex 36.9533 18.4652 0.091
      vertex 43.5928 24.2022 0.091
      vertex 44.3575 23.0667 0.091
    endloop
  endfacet
  facet normal 0 0 -1
    outer loop
      vertex 36.4502 19.1269 0.091
      vertex 43.5928 24.2022 0.091
      vertex 36.9533 18.4652 0.091
    endloop
  endfacet
  facet normal 0 0 -1
    outer loop
      vertex 45.0493 21.8979 0.091
      vertex 37.8284 17.0821 0.091
      vertex 37.4128 17.7836 0.091
    endloop
  endfacet
  facet normal 0 -0 -1
    outer loop
      vertex 45.0493 21.8979 0.091
      vertex 45.6683 20.6956 0.091
      vertex 37.8284 17.0821 0.091
    endloop
  endfacet
  facet normal 0 0 -1
    outer loop
      vertex 38.2003 16.3607 0.091
      vertex 45.6683 20.6956 0.091
      vertex 46.2145 19.4598 0.091
    endloop
  endfacet
  facet normal 0 0 -1
    outer loop
      vertex 37.8284 17.0821 0.091
      vertex 45.6683 20.6956 0.091
      vertex 38.2003 16.3607 0.091
    endloop
  endfacet
  facet normal 0 0 -1
    outer loop
      vertex 38.5285 15.6194 0.091
      vertex 38.2003 16.3607 0.091
      vertex 46.2145 19.4598 0.091
    endloop
  endfacet
  facet normal -0 0 -1
    outer loop
      vertex 46.6879 18.1907 0.091
      vertex 38.5285 15.6194 0.091
      vertex 46.2145 19.4598 0.091
    endloop
  endfacet
  facet normal 0 0 -1
    outer loop
      vertex 46.6879 18.1907 0.091
      vertex 38.8129 14.8583 0.091
      vertex 38.5285 15.6194 0.091
    endloop
  endfacet
  facet normal 0 -0 -1
    outer loop
      vertex 46.6879 18.1907 0.091
      vertex 47.0884 16.8881 0.091
      vertex 38.8129 14.8583 0.091
    endloop
  endfacet
  facet normal 0 0 -1
    outer loop
      vertex 38.8129 14.8583 0.091
      vertex 47.0884 16.8881 0.091
      vertex 39.0535 14.0773 0.091
    endloop
  endfacet
  facet normal 0 0 -1
    outer loop
      vertex 39.0535 14.0773 0.091
      vertex 47.0884 16.8881 0.091
      vertex 47.4161 15.5521 0.091
    endloop
  endfacet
  facet normal 0 0 -1
    outer loop
      vertex 47.671 14.1827 0.091
      vertex 39.4036 12.4556 0.091
      vertex 39.2504 13.2764 0.091
    endloop
  endfacet
  facet normal 0 -0 -1
    outer loop
      vertex 47.671 14.1827 0.091
      vertex 47.853 12.7799 0.091
      vertex 39.4036 12.4556 0.091
    endloop
  endfacet
  facet normal 0 0 -1
    outer loop
      vertex 39.4036 12.4556 0.091
      vertex 47.853 12.7799 0.091
      vertex 39.513 11.6149 0.091
    endloop
  endfacet
  facet normal 0 0 -1
    outer loop
      vertex 39.513 11.6149 0.091
      vertex 47.853 12.7799 0.091
      vertex 47.9623 11.3436 0.091
    endloop
  endfacet
  facet normal 0 0 -1
    outer loop
      vertex 39.5786 10.7543 0.091
      vertex 39.513 11.6149 0.091
      vertex 47.9623 11.3436 0.091
    endloop
  endfacet
  facet normal 0 0 -1
    outer loop
      vertex 47.9987 9.87392 0.091
      vertex 39.5786 10.7543 0.091
      vertex 47.9623 11.3436 0.091
    endloop
  endfacet
  facet normal 0 0 -1
    outer loop
      vertex 47.9987 9.87392 0.091
      vertex 39.6005 9.87392 0.091
      vertex 39.5786 10.7543 0.091
    endloop
  endfacet
  facet normal -0 -0 -1
    outer loop
      vertex 47.9987 9.87392 0.091
      vertex 47.9987 -0.699997 0.091
      vertex 39.6005 9.87392 0.091
    endloop
  endfacet
  facet normal 0 0 -1
    outer loop
      vertex 39.6005 9.87392 0.091
      vertex 47.9987 -0.699997 0.091
      vertex 39.6005 -0.699997 0.091
    endloop
  endfacet
  facet normal 0 0 1
    outer loop
      vertex 13.11 27.3844 0.391
      vertex 18.6678 20.3763 0.391
      vertex 19.2635 20.9353 0.391
    endloop
  endfacet
  facet normal -0 0 1
    outer loop
      vertex 9.63609 23.0667 0.391
      vertex 17.0402 18.4652 0.391
      vertex 10.4007 24.2022 0.391
    endloop
  endfacet
  facet normal 0 0 1
    outer loop
      vertex 28.3193 33.1704 0.391
      vertex 27.7892 23.8518 0.391
      vertex 29.6119 33.049 0.391
    endloop
  endfacet
  facet normal 0 0 1
    outer loop
      vertex 19.512 31.7542 0.391
      vertex 22.5102 23.0011 0.391
      vertex 23.2132 23.2685 0.391
    endloop
  endfacet
  facet normal 0 0 1
    outer loop
      vertex 20.6843 32.1993 0.391
      vertex 23.2132 23.2685 0.391
      vertex 23.9341 23.4872 0.391
    endloop
  endfacet
  facet normal -0 0 1
    outer loop
      vertex 24.3815 33.049 0.391
      vertex 26.2042 23.8518 0.391
      vertex 25.674 33.1704 0.391
    endloop
  endfacet
  facet normal -0 0 1
    outer loop
      vertex 23.119 32.8467 0.391
      vertex 25.4296 23.7789 0.391
      vertex 24.3815 33.049 0.391
    endloop
  endfacet
  facet normal -0 0 1
    outer loop
      vertex 21.8866 32.5635 0.391
      vertex 24.6729 23.6573 0.391
      vertex 23.119 32.8467 0.391
    endloop
  endfacet
  facet normal -0 0 1
    outer loop
      vertex 20.6843 32.1993 0.391
      vertex 23.9341 23.4872 0.391
      vertex 21.8866 32.5635 0.391
    endloop
  endfacet
  facet normal -0 0 1
    outer loop
      vertex 25.674 33.1704 0.391
      vertex 26.9967 23.8761 0.391
      vertex 26.9967 33.2109 0.391
    endloop
  endfacet
  facet normal 0 0 1
    outer loop
      vertex 18.3698 31.2282 0.391
      vertex 21.825 22.6852 0.391
      vertex 22.5102 23.0011 0.391
    endloop
  endfacet
  facet normal 0 0 1
    outer loop
      vertex 19.877 21.4457 0.391
      vertex 15.1237 29.1647 0.391
      vertex 14.1018 28.315 0.391
    endloop
  endfacet
  facet normal 0 0 1
    outer loop
      vertex 16.1757 29.9335 0.391
      vertex 15.1237 29.1647 0.391
      vertex 20.5085 21.9075 0.391
    endloop
  endfacet
  facet normal 0 0 1
    outer loop
      vertex 8.32539 20.6956 0.391
      vertex 15.7934 16.3607 0.391
      vertex 16.1652 17.0821 0.391
    endloop
  endfacet
  facet normal 0 0 1
    outer loop
      vertex 16.1757 29.9335 0.391
      vertex 20.5085 21.9075 0.391
      vertex 21.1578 22.3206 0.391
    endloop
  endfacet
  facet normal -0 0 1
    outer loop
      vertex 7.30595 18.1907 0.391
      vertex 15.4653 15.6194 0.391
      vertex 7.77928 19.4598 0.391
    endloop
  endfacet
  facet normal 0 0 1
    outer loop
      vertex 15.4653 15.6194 0.391
      vertex 7.30595 18.1907 0.391
      vertex 15.1809 14.8583 0.391
    endloop
  endfacet
  facet normal 0 0 1
    outer loop
      vertex 32.1067 32.5635 0.391
      vertex 30.0595 23.4872 0.391
      vertex 33.3091 32.1993 0.391
    endloop
  endfacet
  facet normal -0 0 1
    outer loop
      vertex 6.90547 16.8881 0.391
      vertex 15.1809 14.8583 0.391
      vertex 7.30595 18.1907 0.391
    endloop
  endfacet
  facet normal -0 0 1
    outer loop
      vertex 30.0595 23.4872 0.391
      vertex 30.7804 23.2685 0.391
      vertex 33.3091 32.1993 0.391
    endloop
  endfacet
  facet normal 0 0 1
    outer loop
      vertex 15.1809 14.8583 0.391
      vertex 6.90547 16.8881 0.391
      vertex 14.9403 14.0773 0.391
    endloop
  endfacet
  facet normal -0 0 1
    outer loop
      vertex 6.57779 15.5521 0.391
      vertex 14.9403 14.0773 0.391
      vertex 6.90547 16.8881 0.391
    endloop
  endfacet
  facet normal 0 0 1
    outer loop
      vertex 35.6235 31.2282 0.391
      vertex 32.1686 22.6852 0.391
      vertex 36.7356 30.6213 0.391
    endloop
  endfacet
  facet normal 0 0 1
    outer loop
      vertex 14.9403 14.0773 0.391
      vertex 6.57779 15.5521 0.391
      vertex 14.7435 13.2764 0.391
    endloop
  endfacet
  facet normal -0 0 1
    outer loop
      vertex 32.1686 22.6852 0.391
      vertex 32.8358 22.3206 0.391
      vertex 36.7356 30.6213 0.391
    endloop
  endfacet
  facet normal -0 0 1
    outer loop
      vertex 6.32294 14.1827 0.391
      vertex 14.7435 13.2764 0.391
      vertex 6.57779 15.5521 0.391
    endloop
  endfacet
  facet normal 0 0 1
    outer loop
      vertex 14.7435 13.2764 0.391
      vertex 6.32294 14.1827 0.391
      vertex 14.5903 12.4556 0.391
    endloop
  endfacet
  facet normal 0 0 1
    outer loop
      vertex 38.8696 29.1647 0.391
      vertex 34.1165 21.4457 0.391
      vertex 39.8915 28.315 0.391
    endloop
  endfacet
  facet normal -0 0 1
    outer loop
      vertex 6.1409 12.7799 0.391
      vertex 14.5903 12.4556 0.391
      vertex 6.32294 14.1827 0.391
    endloop
  endfacet
  facet normal -0 0 1
    outer loop
      vertex 34.1165 21.4457 0.391
      vertex 34.73 20.9353 0.391
      vertex 39.8915 28.315 0.391
    endloop
  endfacet
  facet normal 0 0 1
    outer loop
      vertex 14.5903 12.4556 0.391
      vertex 6.1409 12.7799 0.391
      vertex 14.481 11.6149 0.391
    endloop
  endfacet
  facet normal 0 0 1
    outer loop
      vertex 6.03168 11.3436 0.391
      vertex 14.481 11.6149 0.391
      vertex 6.1409 12.7799 0.391
    endloop
  endfacet
  facet normal 0 0 1
    outer loop
      vertex 41.8451 26.3728 0.391
      vertex 35.9032 19.7687 0.391
      vertex 42.7554 25.3042 0.391
    endloop
  endfacet
  facet normal 0 0 1
    outer loop
      vertex 14.481 11.6149 0.391
      vertex 6.03168 11.3436 0.391
      vertex 14.4153 10.7543 0.391
    endloop
  endfacet
  facet normal -0 0 1
    outer loop
      vertex 35.9032 19.7687 0.391
      vertex 36.4502 19.1269 0.391
      vertex 42.7554 25.3042 0.391
    endloop
  endfacet
  facet normal 0 0 1
    outer loop
      vertex 5.99525 9.87392 0.391
      vertex 14.4153 10.7543 0.391
      vertex 6.03168 11.3436 0.391
    endloop
  endfacet
  facet normal 0 0 1
    outer loop
      vertex 14.4153 10.7543 0.391
      vertex 5.99525 9.87392 0.391
      vertex 14.3935 9.87392 0.391
    endloop
  endfacet
  facet normal 0 0 1
    outer loop
      vertex 44.3575 23.0667 0.391
      vertex 36.9533 18.4652 0.391
      vertex 37.4128 17.7836 0.391
    endloop
  endfacet
  facet normal 0 0 1
    outer loop
      vertex 44.3575 23.0667 0.391
      vertex 37.4128 17.7836 0.391
      vertex 45.0493 21.8979 0.391
    endloop
  endfacet
  facet normal 0 0 1
    outer loop
      vertex 14.3935 9.87392 0.391
      vertex 5.99525 9.87392 0.391
      vertex 14.3935 -0.699997 0.391
    endloop
  endfacet
  facet normal 0 0 1
    outer loop
      vertex 47.4161 15.5521 0.391
      vertex 39.0535 14.0773 0.391
      vertex 39.2504 13.2764 0.391
    endloop
  endfacet
  facet normal 0 0 1
    outer loop
      vertex 5.99525 -0.699997 0.391
      vertex 14.3935 -0.699997 0.391
      vertex 5.99525 9.87392 0.391
    endloop
  endfacet
  facet normal 0 0 1
    outer loop
      vertex 15.7934 16.3607 0.391
      vertex 7.77928 19.4598 0.391
      vertex 15.4653 15.6194 0.391
    endloop
  endfacet
  facet normal 0 0 1
    outer loop
      vertex 47.4161 15.5521 0.391
      vertex 39.2504 13.2764 0.391
      vertex 47.671 14.1827 0.391
    endloop
  endfacet
  facet normal 0 0 1
    outer loop
      vertex 8.32539 20.6956 0.391
      vertex 7.77928 19.4598 0.391
      vertex 15.7934 16.3607 0.391
    endloop
  endfacet
  facet normal 0 0 1
    outer loop
      vertex 16.5808 17.7836 0.391
      vertex 8.94434 21.8979 0.391
      vertex 16.1652 17.0821 0.391
    endloop
  endfacet
  facet normal 0 0 1
    outer loop
      vertex 16.1652 17.0821 0.391
      vertex 8.94434 21.8979 0.391
      vertex 8.32539 20.6956 0.391
    endloop
  endfacet
  facet normal 0 0 1
    outer loop
      vertex 17.0402 18.4652 0.391
      vertex 9.63609 23.0667 0.391
      vertex 16.5808 17.7836 0.391
    endloop
  endfacet
  facet normal 0 0 1
    outer loop
      vertex 16.5808 17.7836 0.391
      vertex 9.63609 23.0667 0.391
      vertex 8.94434 21.8979 0.391
    endloop
  endfacet
  facet normal 0 -0 1
    outer loop
      vertex 17.0402 18.4652 0.391
      vertex 17.5433 19.1269 0.391
      vertex 10.4007 24.2022 0.391
    endloop
  endfacet
  facet normal 0 0 1
    outer loop
      vertex 18.0901 19.7687 0.391
      vertex 11.2381 25.3042 0.391
      vertex 17.5433 19.1269 0.391
    endloop
  endfacet
  facet normal 0 0 1
    outer loop
      vertex 17.5433 19.1269 0.391
      vertex 11.2381 25.3042 0.391
      vertex 10.4007 24.2022 0.391
    endloop
  endfacet
  facet normal 0 0 1
    outer loop
      vertex 18.6678 20.3763 0.391
      vertex 12.1483 26.3728 0.391
      vertex 18.0901 19.7687 0.391
    endloop
  endfacet
  facet normal 0 0 1
    outer loop
      vertex 18.0901 19.7687 0.391
      vertex 12.1483 26.3728 0.391
      vertex 11.2381 25.3042 0.391
    endloop
  endfacet
  facet normal 0 0 1
    outer loop
      vertex 13.11 27.3844 0.391
      vertex 12.1483 26.3728 0.391
      vertex 18.6678 20.3763 0.391
    endloop
  endfacet
  facet normal 0 0 1
    outer loop
      vertex 19.877 21.4457 0.391
      vertex 14.1018 28.315 0.391
      vertex 19.2635 20.9353 0.391
    endloop
  endfacet
  facet normal 0 0 1
    outer loop
      vertex 19.2635 20.9353 0.391
      vertex 14.1018 28.315 0.391
      vertex 13.11 27.3844 0.391
    endloop
  endfacet
  facet normal 0 0 1
    outer loop
      vertex 20.5085 21.9075 0.391
      vertex 15.1237 29.1647 0.391
      vertex 19.877 21.4457 0.391
    endloop
  endfacet
  facet normal -0 0 1
    outer loop
      vertex 16.1757 29.9335 0.391
      vertex 21.1578 22.3206 0.391
      vertex 17.2577 30.6213 0.391
    endloop
  endfacet
  facet normal 0 -0 1
    outer loop
      vertex 21.1578 22.3206 0.391
      vertex 21.825 22.6852 0.391
      vertex 17.2577 30.6213 0.391
    endloop
  endfacet
  facet normal 0 0 1
    outer loop
      vertex 18.3698 31.2282 0.391
      vertex 17.2577 30.6213 0.391
      vertex 21.825 22.6852 0.391
    endloop
  endfacet
  facet normal 0 0 1
    outer loop
      vertex 19.512 31.7542 0.391
      vertex 18.3698 31.2282 0.391
      vertex 22.5102 23.0011 0.391
    endloop
  endfacet
  facet normal 0 0 1
    outer loop
      vertex 20.6843 32.1993 0.391
      vertex 19.512 31.7542 0.391
      vertex 23.2132 23.2685 0.391
    endloop
  endfacet
  facet normal 0 -0 1
    outer loop
      vertex 23.9341 23.4872 0.391
      vertex 24.6729 23.6573 0.391
      vertex 21.8866 32.5635 0.391
    endloop
  endfacet
  facet normal 0 -0 1
    outer loop
      vertex 24.6729 23.6573 0.391
      vertex 25.4296 23.7789 0.391
      vertex 23.119 32.8467 0.391
    endloop
  endfacet
  facet normal 0 -0 1
    outer loop
      vertex 25.4296 23.7789 0.391
      vertex 26.2042 23.8518 0.391
      vertex 24.3815 33.049 0.391
    endloop
  endfacet
  facet normal 0 -0 1
    outer loop
      vertex 26.2042 23.8518 0.391
      vertex 26.9967 23.8761 0.391
      vertex 25.674 33.1704 0.391
    endloop
  endfacet
  facet normal 0 0 1
    outer loop
      vertex 26.9967 23.8761 0.391
      vertex 28.3193 33.1704 0.391
      vertex 26.9967 33.2109 0.391
    endloop
  endfacet
  facet normal 0 0 1
    outer loop
      vertex 28.3193 33.1704 0.391
      vertex 26.9967 23.8761 0.391
      vertex 27.7892 23.8518 0.391
    endloop
  endfacet
  facet normal 0 0 1
    outer loop
      vertex 30.8743 32.8467 0.391
      vertex 29.6119 33.049 0.391
      vertex 28.5639 23.7789 0.391
    endloop
  endfacet
  facet normal 0 -0 1
    outer loop
      vertex 28.5639 23.7789 0.391
      vertex 29.6119 33.049 0.391
      vertex 27.7892 23.8518 0.391
    endloop
  endfacet
  facet normal 0 0 1
    outer loop
      vertex 32.1067 32.5635 0.391
      vertex 30.8743 32.8467 0.391
      vertex 29.3207 23.6573 0.391
    endloop
  endfacet
  facet normal 0 -0 1
    outer loop
      vertex 29.3207 23.6573 0.391
      vertex 30.8743 32.8467 0.391
      vertex 28.5639 23.7789 0.391
    endloop
  endfacet
  facet normal 0 0 1
    outer loop
      vertex 32.1067 32.5635 0.391
      vertex 29.3207 23.6573 0.391
      vertex 30.0595 23.4872 0.391
    endloop
  endfacet
  facet normal 0 0 1
    outer loop
      vertex 30.7804 23.2685 0.391
      vertex 34.4813 31.7542 0.391
      vertex 33.3091 32.1993 0.391
    endloop
  endfacet
  facet normal 0 0 1
    outer loop
      vertex 35.6235 31.2282 0.391
      vertex 34.4813 31.7542 0.391
      vertex 31.4835 23.0011 0.391
    endloop
  endfacet
  facet normal 0 -0 1
    outer loop
      vertex 31.4835 23.0011 0.391
      vertex 34.4813 31.7542 0.391
      vertex 30.7804 23.2685 0.391
    endloop
  endfacet
  facet normal 0 0 1
    outer loop
      vertex 35.6235 31.2282 0.391
      vertex 31.4835 23.0011 0.391
      vertex 32.1686 22.6852 0.391
    endloop
  endfacet
  facet normal 0 0 1
    outer loop
      vertex 32.8358 22.3206 0.391
      vertex 37.8177 29.9335 0.391
      vertex 36.7356 30.6213 0.391
    endloop
  endfacet
  facet normal 0 0 1
    outer loop
      vertex 38.8696 29.1647 0.391
      vertex 37.8177 29.9335 0.391
      vertex 33.4851 21.9075 0.391
    endloop
  endfacet
  facet normal 0 -0 1
    outer loop
      vertex 33.4851 21.9075 0.391
      vertex 37.8177 29.9335 0.391
      vertex 32.8358 22.3206 0.391
    endloop
  endfacet
  facet normal 0 0 1
    outer loop
      vertex 38.8696 29.1647 0.391
      vertex 33.4851 21.9075 0.391
      vertex 34.1165 21.4457 0.391
    endloop
  endfacet
  facet normal 0 0 1
    outer loop
      vertex 34.73 20.9353 0.391
      vertex 40.8833 27.3844 0.391
      vertex 39.8915 28.315 0.391
    endloop
  endfacet
  facet normal 0 0 1
    outer loop
      vertex 41.8451 26.3728 0.391
      vertex 40.8833 27.3844 0.391
      vertex 35.3256 20.3763 0.391
    endloop
  endfacet
  facet normal 0 -0 1
    outer loop
      vertex 35.3256 20.3763 0.391
      vertex 40.8833 27.3844 0.391
      vertex 34.73 20.9353 0.391
    endloop
  endfacet
  facet normal 0 0 1
    outer loop
      vertex 41.8451 26.3728 0.391
      vertex 35.3256 20.3763 0.391
      vertex 35.9032 19.7687 0.391
    endloop
  endfacet
  facet normal 0 0 1
    outer loop
      vertex 36.4502 19.1269 0.391
      vertex 43.5928 24.2022 0.391
      vertex 42.7554 25.3042 0.391
    endloop
  endfacet
  facet normal 0 0 1
    outer loop
      vertex 44.3575 23.0667 0.391
      vertex 43.5928 24.2022 0.391
      vertex 36.9533 18.4652 0.391
    endloop
  endfacet
  facet normal 0 -0 1
    outer loop
      vertex 36.9533 18.4652 0.391
      vertex 43.5928 24.2022 0.391
      vertex 36.4502 19.1269 0.391
    endloop
  endfacet
  facet normal -0 0 1
    outer loop
      vertex 37.4128 17.7836 0.391
      vertex 37.8284 17.0821 0.391
      vertex 45.0493 21.8979 0.391
    endloop
  endfacet
  facet normal 0 0 1
    outer loop
      vertex 37.8284 17.0821 0.391
      vertex 45.6683 20.6956 0.391
      vertex 45.0493 21.8979 0.391
    endloop
  endfacet
  facet normal 0 0 1
    outer loop
      vertex 46.2145 19.4598 0.391
      vertex 45.6683 20.6956 0.391
      vertex 38.2003 16.3607 0.391
    endloop
  endfacet
  facet normal 0 -0 1
    outer loop
      vertex 38.2003 16.3607 0.391
      vertex 45.6683 20.6956 0.391
      vertex 37.8284 17.0821 0.391
    endloop
  endfacet
  facet normal 0 0 1
    outer loop
      vertex 46.2145 19.4598 0.391
      vertex 38.2003 16.3607 0.391
      vertex 38.5285 15.6194 0.391
    endloop
  endfacet
  facet normal 0 0 1
    outer loop
      vertex 46.2145 19.4598 0.391
      vertex 38.5285 15.6194 0.391
      vertex 46.6879 18.1907 0.391
    endloop
  endfacet
  facet normal -0 0 1
    outer loop
      vertex 38.5285 15.6194 0.391
      vertex 38.8129 14.8583 0.391
      vertex 46.6879 18.1907 0.391
    endloop
  endfacet
  facet normal 0 0 1
    outer loop
      vertex 38.8129 14.8583 0.391
      vertex 47.0884 16.8881 0.391
      vertex 46.6879 18.1907 0.391
    endloop
  endfacet
  facet normal 0 -0 1
    outer loop
      vertex 39.0535 14.0773 0.391
      vertex 47.0884 16.8881 0.391
      vertex 38.8129 14.8583 0.391
    endloop
  endfacet
  facet normal 0 0 1
    outer loop
      vertex 47.4161 15.5521 0.391
      vertex 47.0884 16.8881 0.391
      vertex 39.0535 14.0773 0.391
    endloop
  endfacet
  facet normal -0 0 1
    outer loop
      vertex 39.2504 13.2764 0.391
      vertex 39.4036 12.4556 0.391
      vertex 47.671 14.1827 0.391
    endloop
  endfacet
  facet normal 0 0 1
    outer loop
      vertex 39.4036 12.4556 0.391
      vertex 47.853 12.7799 0.391
      vertex 47.671 14.1827 0.391
    endloop
  endfacet
  facet normal 0 -0 1
    outer loop
      vertex 39.513 11.6149 0.391
      vertex 47.853 12.7799 0.391
      vertex 39.4036 12.4556 0.391
    endloop
  endfacet
  facet normal 0 0 1
    outer loop
      vertex 47.9623 11.3436 0.391
      vertex 47.853 12.7799 0.391
      vertex 39.513 11.6149 0.391
    endloop
  endfacet
  facet normal 0 0 1
    outer loop
      vertex 47.9623 11.3436 0.391
      vertex 39.513 11.6149 0.391
      vertex 39.5786 10.7543 0.391
    endloop
  endfacet
  facet normal 0 0 1
    outer loop
      vertex 47.9623 11.3436 0.391
      vertex 39.5786 10.7543 0.391
      vertex 47.9987 9.87392 0.391
    endloop
  endfacet
  facet normal 0 0 1
    outer loop
      vertex 39.5786 10.7543 0.391
      vertex 39.6005 9.87392 0.391
      vertex 47.9987 9.87392 0.391
    endloop
  endfacet
  facet normal -0 0 1
    outer loop
      vertex 39.6005 9.87392 0.391
      vertex 47.9987 -0.699997 0.391
      vertex 47.9987 9.87392 0.391
    endloop
  endfacet
  facet normal 0 0 1
    outer loop
      vertex 39.6005 -0.699997 0.391
      vertex 47.9987 -0.699997 0.391
      vertex 39.6005 9.87392 0.391
    endloop
  endfacet
  facet normal 0.999693 0.0247597 0
    outer loop
      vertex 47.9623 11.3436 0.091
      vertex 47.9987 9.87392 0.391
      vertex 47.9987 9.87392 0.091
    endloop
  endfacet
  facet normal 0.999693 0.0247597 -0
    outer loop
      vertex 47.9623 11.3436 0.091
      vertex 47.9623 11.3436 0.391
      vertex 47.9987 9.87392 0.391
    endloop
  endfacet
  facet normal 0.997117 0.0758789 0
    outer loop
      vertex 47.853 12.7799 0.091
      vertex 47.9623 11.3436 0.391
      vertex 47.9623 11.3436 0.091
    endloop
  endfacet
  facet normal 0.997117 0.0758789 -0
    outer loop
      vertex 47.853 12.7799 0.091
      vertex 47.853 12.7799 0.391
      vertex 47.9623 11.3436 0.391
    endloop
  endfacet
  facet normal 0.991688 0.128662 0
    outer loop
      vertex 47.671 14.1827 0.091
      vertex 47.853 12.7799 0.391
      vertex 47.853 12.7799 0.091
    endloop
  endfacet
  facet normal 0.991688 0.128662 -0
    outer loop
      vertex 47.671 14.1827 0.091
      vertex 47.671 14.1827 0.391
      vertex 47.853 12.7799 0.391
    endloop
  endfacet
  facet normal 0.983114 0.182997 0
    outer loop
      vertex 47.4161 15.5521 0.091
      vertex 47.671 14.1827 0.391
      vertex 47.671 14.1827 0.091
    endloop
  endfacet
  facet normal 0.983114 0.182997 -0
    outer loop
      vertex 47.4161 15.5521 0.091
      vertex 47.4161 15.5521 0.391
      vertex 47.671 14.1827 0.391
    endloop
  endfacet
  facet normal 0.971211 0.238223 0
    outer loop
      vertex 47.0884 16.8881 0.091
      vertex 47.4161 15.5521 0.391
      vertex 47.4161 15.5521 0.091
    endloop
  endfacet
  facet normal 0.971211 0.238223 -0
    outer loop
      vertex 47.0884 16.8881 0.091
      vertex 47.0884 16.8881 0.391
      vertex 47.4161 15.5521 0.391
    endloop
  endfacet
  facet normal 0.955841 0.293885 0
    outer loop
      vertex 46.6879 18.1907 0.091
      vertex 47.0884 16.8881 0.391
      vertex 47.0884 16.8881 0.091
    endloop
  endfacet
  facet normal 0.955841 0.293885 -0
    outer loop
      vertex 46.6879 18.1907 0.091
      vertex 46.6879 18.1907 0.391
      vertex 47.0884 16.8881 0.391
    endloop
  endfacet
  facet normal 0.936938 0.349497 0
    outer loop
      vertex 46.2145 19.4598 0.091
      vertex 46.6879 18.1907 0.391
      vertex 46.6879 18.1907 0.091
    endloop
  endfacet
  facet normal 0.936938 0.349497 -0
    outer loop
      vertex 46.2145 19.4598 0.091
      vertex 46.2145 19.4598 0.391
      vertex 46.6879 18.1907 0.391
    endloop
  endfacet
  facet normal 0.914646 0.404256 0
    outer loop
      vertex 45.6683 20.6956 0.091
      vertex 46.2145 19.4598 0.391
      vertex 46.2145 19.4598 0.091
    endloop
  endfacet
  facet normal 0.914646 0.404256 -0
    outer loop
      vertex 45.6683 20.6956 0.091
      vertex 45.6683 20.6956 0.391
      vertex 46.2145 19.4598 0.391
    endloop
  endfacet
  facet normal 0.889085 0.457742 0
    outer loop
      vertex 45.0493 21.8979 0.091
      vertex 45.6683 20.6956 0.391
      vertex 45.6683 20.6956 0.091
    endloop
  endfacet
  facet normal 0.889085 0.457742 -0
    outer loop
      vertex 45.0493 21.8979 0.091
      vertex 45.0493 21.8979 0.391
      vertex 45.6683 20.6956 0.391
    endloop
  endfacet
  facet normal 0.860557 0.509354 0
    outer loop
      vertex 44.3575 23.0667 0.091
      vertex 45.0493 21.8979 0.391
      vertex 45.0493 21.8979 0.091
    endloop
  endfacet
  facet normal 0.860557 0.509354 -0
    outer loop
      vertex 44.3575 23.0667 0.091
      vertex 44.3575 23.0667 0.391
      vertex 45.0493 21.8979 0.391
    endloop
  endfacet
  facet normal 0.829445 0.558588 0
    outer loop
      vertex 43.5928 24.2022 0.091
      vertex 44.3575 23.0667 0.391
      vertex 44.3575 23.0667 0.091
    endloop
  endfacet
  facet normal 0.829445 0.558588 -0
    outer loop
      vertex 43.5928 24.2022 0.091
      vertex 43.5928 24.2022 0.391
      vertex 44.3575 23.0667 0.391
    endloop
  endfacet
  facet normal 0.796204 0.605028 0
    outer loop
      vertex 42.7554 25.3042 0.091
      vertex 43.5928 24.2022 0.391
      vertex 43.5928 24.2022 0.091
    endloop
  endfacet
  facet normal 0.796204 0.605028 -0
    outer loop
      vertex 42.7554 25.3042 0.091
      vertex 42.7554 25.3042 0.391
      vertex 43.5928 24.2022 0.391
    endloop
  endfacet
  facet normal 0.761239 0.648471 0
    outer loop
      vertex 41.8451 26.3728 0.091
      vertex 42.7554 25.3042 0.391
      vertex 42.7554 25.3042 0.091
    endloop
  endfacet
  facet normal 0.761239 0.648471 -0
    outer loop
      vertex 41.8451 26.3728 0.091
      vertex 41.8451 26.3728 0.391
      vertex 42.7554 25.3042 0.391
    endloop
  endfacet
  facet normal 0.72472 0.689043 0
    outer loop
      vertex 40.8833 27.3844 0.091
      vertex 41.8451 26.3728 0.391
      vertex 41.8451 26.3728 0.091
    endloop
  endfacet
  facet normal 0.72472 0.689043 -0
    outer loop
      vertex 40.8833 27.3844 0.091
      vertex 40.8833 27.3844 0.391
      vertex 41.8451 26.3728 0.391
    endloop
  endfacet
  facet normal 0.684249 0.729248 0
    outer loop
      vertex 39.8915 28.315 0.091
      vertex 40.8833 27.3844 0.391
      vertex 40.8833 27.3844 0.091
    endloop
  endfacet
  facet normal 0.684249 0.729248 -0
    outer loop
      vertex 39.8915 28.315 0.091
      vertex 39.8915 28.315 0.391
      vertex 40.8833 27.3844 0.391
    endloop
  endfacet
  facet normal 0.639348 0.768918 0
    outer loop
      vertex 38.8696 29.1647 0.091
      vertex 39.8915 28.315 0.391
      vertex 39.8915 28.315 0.091
    endloop
  endfacet
  facet normal 0.639348 0.768918 -0
    outer loop
      vertex 38.8696 29.1647 0.091
      vertex 38.8696 29.1647 0.391
      vertex 39.8915 28.315 0.391
    endloop
  endfacet
  facet normal 0.590069 0.807353 0
    outer loop
      vertex 37.8177 29.9335 0.091
      vertex 38.8696 29.1647 0.391
      vertex 38.8696 29.1647 0.091
    endloop
  endfacet
  facet normal 0.590069 0.807353 -0
    outer loop
      vertex 37.8177 29.9335 0.091
      vertex 37.8177 29.9335 0.391
      vertex 38.8696 29.1647 0.391
    endloop
  endfacet
  facet normal 0.536426 0.843947 0
    outer loop
      vertex 36.7356 30.6213 0.091
      vertex 37.8177 29.9335 0.391
      vertex 37.8177 29.9335 0.091
    endloop
  endfacet
  facet normal 0.536426 0.843947 -0
    outer loop
      vertex 36.7356 30.6213 0.091
      vertex 36.7356 30.6213 0.391
      vertex 37.8177 29.9335 0.391
    endloop
  endfacet
  facet normal 0.479035 0.877796 0
    outer loop
      vertex 35.6235 31.2282 0.091
      vertex 36.7356 30.6213 0.391
      vertex 36.7356 30.6213 0.091
    endloop
  endfacet
  facet normal 0.479035 0.877796 -0
    outer loop
      vertex 35.6235 31.2282 0.091
      vertex 35.6235 31.2282 0.391
      vertex 36.7356 30.6213 0.391
    endloop
  endfacet
  facet normal 0.418292 0.908313 0
    outer loop
      vertex 34.4813 31.7542 0.091
      vertex 35.6235 31.2282 0.391
      vertex 35.6235 31.2282 0.091
    endloop
  endfacet
  facet normal 0.418292 0.908313 -0
    outer loop
      vertex 34.4813 31.7542 0.091
      vertex 34.4813 31.7542 0.391
      vertex 35.6235 31.2282 0.391
    endloop
  endfacet
  facet normal 0.354984 0.934873 0
    outer loop
      vertex 33.3091 32.1993 0.091
      vertex 34.4813 31.7542 0.391
      vertex 34.4813 31.7542 0.091
    endloop
  endfacet
  facet normal 0.354984 0.934873 -0
    outer loop
      vertex 33.3091 32.1993 0.091
      vertex 33.3091 32.1993 0.391
      vertex 34.4813 31.7542 0.391
    endloop
  endfacet
  facet normal 0.289888 0.957061 0
    outer loop
      vertex 32.1067 32.5635 0.091
      vertex 33.3091 32.1993 0.391
      vertex 33.3091 32.1993 0.091
    endloop
  endfacet
  facet normal 0.289888 0.957061 -0
    outer loop
      vertex 32.1067 32.5635 0.091
      vertex 32.1067 32.5635 0.391
      vertex 33.3091 32.1993 0.391
    endloop
  endfacet
  facet normal 0.223958 0.974599 0
    outer loop
      vertex 30.8743 32.8467 0.091
      vertex 32.1067 32.5635 0.391
      vertex 32.1067 32.5635 0.091
    endloop
  endfacet
  facet normal 0.223958 0.974599 -0
    outer loop
      vertex 30.8743 32.8467 0.091
      vertex 30.8743 32.8467 0.391
      vertex 32.1067 32.5635 0.391
    endloop
  endfacet
  facet normal 0.158231 0.987402 0
    outer loop
      vertex 29.6119 33.049 0.091
      vertex 30.8743 32.8467 0.391
      vertex 30.8743 32.8467 0.091
    endloop
  endfacet
  facet normal 0.158231 0.987402 -0
    outer loop
      vertex 29.6119 33.049 0.091
      vertex 29.6119 33.049 0.391
      vertex 30.8743 32.8467 0.391
    endloop
  endfacet
  facet normal 0.0935077 0.995619 0
    outer loop
      vertex 28.3193 33.1704 0.091
      vertex 29.6119 33.049 0.391
      vertex 29.6119 33.049 0.091
    endloop
  endfacet
  facet normal 0.0935077 0.995619 -0
    outer loop
      vertex 28.3193 33.1704 0.091
      vertex 28.3193 33.1704 0.391
      vertex 29.6119 33.049 0.391
    endloop
  endfacet
  facet normal 0.0306072 0.999531 0
    outer loop
      vertex 26.9967 33.2109 0.091
      vertex 28.3193 33.1704 0.391
      vertex 28.3193 33.1704 0.091
    endloop
  endfacet
  facet normal 0.0306072 0.999531 -0
    outer loop
      vertex 26.9967 33.2109 0.091
      vertex 26.9967 33.2109 0.391
      vertex 28.3193 33.1704 0.391
    endloop
  endfacet
  facet normal -0.0306048 0.999532 0
    outer loop
      vertex 25.674 33.1704 0.091
      vertex 26.9967 33.2109 0.391
      vertex 26.9967 33.2109 0.091
    endloop
  endfacet
  facet normal -0.0306048 0.999532 0
    outer loop
      vertex 25.674 33.1704 0.091
      vertex 25.674 33.1704 0.391
      vertex 26.9967 33.2109 0.391
    endloop
  endfacet
  facet normal -0.0935149 0.995618 0
    outer loop
      vertex 24.3815 33.049 0.091
      vertex 25.674 33.1704 0.391
      vertex 25.674 33.1704 0.091
    endloop
  endfacet
  facet normal -0.0935149 0.995618 0
    outer loop
      vertex 24.3815 33.049 0.091
      vertex 24.3815 33.049 0.391
      vertex 25.674 33.1704 0.391
    endloop
  endfacet
  facet normal -0.158219 0.987404 0
    outer loop
      vertex 23.119 32.8467 0.091
      vertex 24.3815 33.049 0.391
      vertex 24.3815 33.049 0.091
    endloop
  endfacet
  facet normal -0.158219 0.987404 0
    outer loop
      vertex 23.119 32.8467 0.091
      vertex 23.119 32.8467 0.391
      vertex 24.3815 33.049 0.391
    endloop
  endfacet
  facet normal -0.223958 0.974599 0
    outer loop
      vertex 21.8866 32.5635 0.091
      vertex 23.119 32.8467 0.391
      vertex 23.119 32.8467 0.091
    endloop
  endfacet
  facet normal -0.223958 0.974599 0
    outer loop
      vertex 21.8866 32.5635 0.091
      vertex 21.8866 32.5635 0.391
      vertex 23.119 32.8467 0.391
    endloop
  endfacet
  facet normal -0.28991 0.957054 0
    outer loop
      vertex 20.6843 32.1993 0.091
      vertex 21.8866 32.5635 0.391
      vertex 21.8866 32.5635 0.091
    endloop
  endfacet
  facet normal -0.28991 0.957054 0
    outer loop
      vertex 20.6843 32.1993 0.091
      vertex 20.6843 32.1993 0.391
      vertex 21.8866 32.5635 0.391
    endloop
  endfacet
  facet normal -0.354957 0.934883 0
    outer loop
      vertex 19.512 31.7542 0.091
      vertex 20.6843 32.1993 0.391
      vertex 20.6843 32.1993 0.091
    endloop
  endfacet
  facet normal -0.354957 0.934883 0
    outer loop
      vertex 19.512 31.7542 0.091
      vertex 19.512 31.7542 0.391
      vertex 20.6843 32.1993 0.391
    endloop
  endfacet
  facet normal -0.418292 0.908313 0
    outer loop
      vertex 18.3698 31.2282 0.091
      vertex 19.512 31.7542 0.391
      vertex 19.512 31.7542 0.091
    endloop
  endfacet
  facet normal -0.418292 0.908313 0
    outer loop
      vertex 18.3698 31.2282 0.091
      vertex 18.3698 31.2282 0.391
      vertex 19.512 31.7542 0.391
    endloop
  endfacet
  facet normal -0.479035 0.877796 0
    outer loop
      vertex 17.2577 30.6213 0.091
      vertex 18.3698 31.2282 0.391
      vertex 18.3698 31.2282 0.091
    endloop
  endfacet
  facet normal -0.479035 0.877796 0
    outer loop
      vertex 17.2577 30.6213 0.091
      vertex 17.2577 30.6213 0.391
      vertex 18.3698 31.2282 0.391
    endloop
  endfacet
  facet normal -0.536462 0.843925 0
    outer loop
      vertex 16.1757 29.9335 0.091
      vertex 17.2577 30.6213 0.391
      vertex 17.2577 30.6213 0.091
    endloop
  endfacet
  facet normal -0.536462 0.843925 0
    outer loop
      vertex 16.1757 29.9335 0.091
      vertex 16.1757 29.9335 0.391
      vertex 17.2577 30.6213 0.391
    endloop
  endfacet
  facet normal -0.590032 0.80738 0
    outer loop
      vertex 15.1237 29.1647 0.091
      vertex 16.1757 29.9335 0.391
      vertex 16.1757 29.9335 0.091
    endloop
  endfacet
  facet normal -0.590032 0.80738 0
    outer loop
      vertex 15.1237 29.1647 0.091
      vertex 15.1237 29.1647 0.391
      vertex 16.1757 29.9335 0.391
    endloop
  endfacet
  facet normal -0.639348 0.768918 0
    outer loop
      vertex 14.1018 28.315 0.091
      vertex 15.1237 29.1647 0.391
      vertex 15.1237 29.1647 0.091
    endloop
  endfacet
  facet normal -0.639348 0.768918 0
    outer loop
      vertex 14.1018 28.315 0.091
      vertex 14.1018 28.315 0.391
      vertex 15.1237 29.1647 0.391
    endloop
  endfacet
  facet normal -0.684249 0.729248 0
    outer loop
      vertex 13.11 27.3844 0.091
      vertex 14.1018 28.315 0.391
      vertex 14.1018 28.315 0.091
    endloop
  endfacet
  facet normal -0.684249 0.729248 0
    outer loop
      vertex 13.11 27.3844 0.091
      vertex 13.11 27.3844 0.391
      vertex 14.1018 28.315 0.391
    endloop
  endfacet
  facet normal -0.724756 0.689005 0
    outer loop
      vertex 12.1483 26.3728 0.091
      vertex 13.11 27.3844 0.391
      vertex 13.11 27.3844 0.091
    endloop
  endfacet
  facet normal -0.724756 0.689005 0
    outer loop
      vertex 12.1483 26.3728 0.091
      vertex 12.1483 26.3728 0.391
      vertex 13.11 27.3844 0.391
    endloop
  endfacet
  facet normal -0.761274 0.64843 0
    outer loop
      vertex 11.2381 25.3042 0.091
      vertex 12.1483 26.3728 0.391
      vertex 12.1483 26.3728 0.091
    endloop
  endfacet
  facet normal -0.761274 0.64843 0
    outer loop
      vertex 11.2381 25.3042 0.091
      vertex 11.2381 25.3042 0.391
      vertex 12.1483 26.3728 0.391
    endloop
  endfacet
  facet normal -0.796204 0.605028 0
    outer loop
      vertex 10.4007 24.2022 0.091
      vertex 11.2381 25.3042 0.391
      vertex 11.2381 25.3042 0.091
    endloop
  endfacet
  facet normal -0.796204 0.605028 0
    outer loop
      vertex 10.4007 24.2022 0.091
      vertex 10.4007 24.2022 0.391
      vertex 11.2381 25.3042 0.391
    endloop
  endfacet
  facet normal -0.829476 0.558543 0
    outer loop
      vertex 9.63609 23.0667 0.091
      vertex 10.4007 24.2022 0.391
      vertex 10.4007 24.2022 0.091
    endloop
  endfacet
  facet normal -0.829476 0.558543 0
    outer loop
      vertex 9.63609 23.0667 0.091
      vertex 9.63609 23.0667 0.391
      vertex 10.4007 24.2022 0.391
    endloop
  endfacet
  facet normal -0.860573 0.509327 0
    outer loop
      vertex 8.94434 21.8979 0.091
      vertex 9.63609 23.0667 0.391
      vertex 9.63609 23.0667 0.091
    endloop
  endfacet
  facet normal -0.860573 0.509327 0
    outer loop
      vertex 8.94434 21.8979 0.091
      vertex 8.94434 21.8979 0.391
      vertex 9.63609 23.0667 0.391
    endloop
  endfacet
  facet normal -0.8891 0.457713 0
    outer loop
      vertex 8.32539 20.6956 0.091
      vertex 8.94434 21.8979 0.391
      vertex 8.94434 21.8979 0.091
    endloop
  endfacet
  facet normal -0.8891 0.457713 0
    outer loop
      vertex 8.32539 20.6956 0.091
      vertex 8.32539 20.6956 0.391
      vertex 8.94434 21.8979 0.391
    endloop
  endfacet
  facet normal -0.914671 0.4042 0
    outer loop
      vertex 7.77928 19.4598 0.091
      vertex 8.32539 20.6956 0.391
      vertex 8.32539 20.6956 0.091
    endloop
  endfacet
  facet normal -0.914671 0.4042 0
    outer loop
      vertex 7.77928 19.4598 0.091
      vertex 7.77928 19.4598 0.391
      vertex 8.32539 20.6956 0.391
    endloop
  endfacet
  facet normal -0.936955 0.349451 0
    outer loop
      vertex 7.30595 18.1907 0.091
      vertex 7.77928 19.4598 0.391
      vertex 7.77928 19.4598 0.091
    endloop
  endfacet
  facet normal -0.936955 0.349451 0
    outer loop
      vertex 7.30595 18.1907 0.091
      vertex 7.30595 18.1907 0.391
      vertex 7.77928 19.4598 0.391
    endloop
  endfacet
  facet normal -0.955845 0.293871 0
    outer loop
      vertex 6.90547 16.8881 0.091
      vertex 7.30595 18.1907 0.391
      vertex 7.30595 18.1907 0.091
    endloop
  endfacet
  facet normal -0.955845 0.293871 0
    outer loop
      vertex 6.90547 16.8881 0.091
      vertex 6.90547 16.8881 0.391
      vertex 7.30595 18.1907 0.391
    endloop
  endfacet
  facet normal -0.971214 0.238209 0
    outer loop
      vertex 6.57779 15.5521 0.091
      vertex 6.90547 16.8881 0.391
      vertex 6.90547 16.8881 0.091
    endloop
  endfacet
  facet normal -0.971214 0.238209 0
    outer loop
      vertex 6.57779 15.5521 0.091
      vertex 6.57779 15.5521 0.391
      vertex 6.90547 16.8881 0.391
    endloop
  endfacet
  facet normal -0.98312 0.182962 0
    outer loop
      vertex 6.32294 14.1827 0.091
      vertex 6.57779 15.5521 0.391
      vertex 6.57779 15.5521 0.091
    endloop
  endfacet
  facet normal -0.98312 0.182962 0
    outer loop
      vertex 6.32294 14.1827 0.091
      vertex 6.32294 14.1827 0.391
      vertex 6.57779 15.5521 0.391
    endloop
  endfacet
  facet normal -0.991685 0.12869 0
    outer loop
      vertex 6.1409 12.7799 0.091
      vertex 6.32294 14.1827 0.391
      vertex 6.32294 14.1827 0.091
    endloop
  endfacet
  facet normal -0.991685 0.12869 0
    outer loop
      vertex 6.1409 12.7799 0.091
      vertex 6.1409 12.7799 0.391
      vertex 6.32294 14.1827 0.391
    endloop
  endfacet
  facet normal -0.997121 0.0758237 0
    outer loop
      vertex 6.03168 11.3436 0.091
      vertex 6.1409 12.7799 0.391
      vertex 6.1409 12.7799 0.091
    endloop
  endfacet
  facet normal -0.997121 0.0758237 0
    outer loop
      vertex 6.03168 11.3436 0.091
      vertex 6.03168 11.3436 0.391
      vertex 6.1409 12.7799 0.391
    endloop
  endfacet
  facet normal -0.999693 0.0247801 0
    outer loop
      vertex 5.99525 9.87392 0.091
      vertex 6.03168 11.3436 0.391
      vertex 6.03168 11.3436 0.091
    endloop
  endfacet
  facet normal -0.999693 0.0247801 0
    outer loop
      vertex 5.99525 9.87392 0.091
      vertex 5.99525 9.87392 0.391
      vertex 6.03168 11.3436 0.391
    endloop
  endfacet
  facet normal -1 0 0
    outer loop
      vertex 5.99525 -0.699997 0.091
      vertex 5.99525 9.87392 0.391
      vertex 5.99525 9.87392 0.091
    endloop
  endfacet
  facet normal -1 0 0
    outer loop
      vertex 5.99525 -0.699997 0.091
      vertex 5.99525 -0.699997 0.391
      vertex 5.99525 9.87392 0.391
    endloop
  endfacet
  facet normal 0 -1 0
    outer loop
      vertex 14.3935 -0.699997 0.091
      vertex 5.99525 -0.699997 0.391
      vertex 5.99525 -0.699997 0.091
    endloop
  endfacet
  facet normal 0 -1 0
    outer loop
      vertex 14.3935 -0.699997 0.091
      vertex 14.3935 -0.699997 0.391
      vertex 5.99525 -0.699997 0.391
    endloop
  endfacet
  facet normal 1 0 0
    outer loop
      vertex 14.3935 9.87392 0.091
      vertex 14.3935 -0.699997 0.391
      vertex 14.3935 -0.699997 0.091
    endloop
  endfacet
  facet normal 1 0 -0
    outer loop
      vertex 14.3935 9.87392 0.091
      vertex 14.3935 9.87392 0.391
      vertex 14.3935 -0.699997 0.391
    endloop
  endfacet
  facet normal 0.999694 -0.0247544 0
    outer loop
      vertex 14.4153 10.7543 0.091
      vertex 14.3935 9.87392 0.391
      vertex 14.3935 9.87392 0.091
    endloop
  endfacet
  facet normal 0.999694 -0.0247544 0
    outer loop
      vertex 14.4153 10.7543 0.091
      vertex 14.4153 10.7543 0.391
      vertex 14.3935 9.87392 0.391
    endloop
  endfacet
  facet normal 0.997099 -0.0761206 0
    outer loop
      vertex 14.481 11.6149 0.091
      vertex 14.4153 10.7543 0.391
      vertex 14.4153 10.7543 0.091
    endloop
  endfacet
  facet normal 0.997099 -0.0761206 0
    outer loop
      vertex 14.481 11.6149 0.091
      vertex 14.481 11.6149 0.391
      vertex 14.4153 10.7543 0.391
    endloop
  endfacet
  facet normal 0.991654 -0.128926 0
    outer loop
      vertex 14.5903 12.4556 0.091
      vertex 14.481 11.6149 0.391
      vertex 14.481 11.6149 0.091
    endloop
  endfacet
  facet normal 0.991654 -0.128926 0
    outer loop
      vertex 14.5903 12.4556 0.091
      vertex 14.5903 12.4556 0.391
      vertex 14.481 11.6149 0.391
    endloop
  endfacet
  facet normal 0.983024 -0.183479 0
    outer loop
      vertex 14.7435 13.2764 0.091
      vertex 14.5903 12.4556 0.391
      vertex 14.5903 12.4556 0.091
    endloop
  endfacet
  facet normal 0.983024 -0.183479 0
    outer loop
      vertex 14.7435 13.2764 0.091
      vertex 14.7435 13.2764 0.391
      vertex 14.5903 12.4556 0.391
    endloop
  endfacet
  facet normal 0.971112 -0.238625 0
    outer loop
      vertex 14.9403 14.0773 0.091
      vertex 14.7435 13.2764 0.391
      vertex 14.7435 13.2764 0.091
    endloop
  endfacet
  facet normal 0.971112 -0.238625 0
    outer loop
      vertex 14.9403 14.0773 0.091
      vertex 14.9403 14.0773 0.391
      vertex 14.7435 13.2764 0.391
    endloop
  endfacet
  facet normal 0.955678 -0.294413 0
    outer loop
      vertex 15.1809 14.8583 0.091
      vertex 14.9403 14.0773 0.391
      vertex 14.9403 14.0773 0.091
    endloop
  endfacet
  facet normal 0.955678 -0.294413 0
    outer loop
      vertex 15.1809 14.8583 0.091
      vertex 15.1809 14.8583 0.391
      vertex 14.9403 14.0773 0.391
    endloop
  endfacet
  facet normal 0.936738 -0.350031 0
    outer loop
      vertex 15.4653 15.6194 0.091
      vertex 15.1809 14.8583 0.391
      vertex 15.1809 14.8583 0.091
    endloop
  endfacet
  facet normal 0.936738 -0.350031 0
    outer loop
      vertex 15.4653 15.6194 0.091
      vertex 15.4653 15.6194 0.391
      vertex 15.1809 14.8583 0.391
    endloop
  endfacet
  facet normal 0.914436 -0.40473 0
    outer loop
      vertex 15.7934 16.3607 0.091
      vertex 15.4653 15.6194 0.391
      vertex 15.4653 15.6194 0.091
    endloop
  endfacet
  facet normal 0.914436 -0.40473 0
    outer loop
      vertex 15.7934 16.3607 0.091
      vertex 15.7934 16.3607 0.391
      vertex 15.4653 15.6194 0.391
    endloop
  endfacet
  facet normal 0.888889 -0.458122 0
    outer loop
      vertex 16.1652 17.0821 0.091
      vertex 15.7934 16.3607 0.391
      vertex 15.7934 16.3607 0.091
    endloop
  endfacet
  facet normal 0.888889 -0.458122 0
    outer loop
      vertex 16.1652 17.0821 0.091
      vertex 16.1652 17.0821 0.391
      vertex 15.7934 16.3607 0.391
    endloop
  endfacet
  facet normal 0.860347 -0.509708 0
    outer loop
      vertex 16.5808 17.7836 0.091
      vertex 16.1652 17.0821 0.391
      vertex 16.1652 17.0821 0.091
    endloop
  endfacet
  facet normal 0.860347 -0.509708 0
    outer loop
      vertex 16.5808 17.7836 0.091
      vertex 16.5808 17.7836 0.391
      vertex 16.1652 17.0821 0.391
    endloop
  endfacet
  facet normal 0.829232 -0.558904 0
    outer loop
      vertex 17.0402 18.4652 0.091
      vertex 16.5808 17.7836 0.391
      vertex 16.5808 17.7836 0.091
    endloop
  endfacet
  facet normal 0.829232 -0.558904 0
    outer loop
      vertex 17.0402 18.4652 0.091
      vertex 17.0402 18.4652 0.391
      vertex 16.5808 17.7836 0.391
    endloop
  endfacet
  facet normal 0.796042 -0.605242 0
    outer loop
      vertex 17.5433 19.1269 0.091
      vertex 17.0402 18.4652 0.391
      vertex 17.0402 18.4652 0.091
    endloop
  endfacet
  facet normal 0.796042 -0.605242 0
    outer loop
      vertex 17.5433 19.1269 0.091
      vertex 17.5433 19.1269 0.391
      vertex 17.0402 18.4652 0.391
    endloop
  endfacet
  facet normal 0.761196 -0.648522 0
    outer loop
      vertex 18.0901 19.7687 0.091
      vertex 17.5433 19.1269 0.391
      vertex 17.5433 19.1269 0.091
    endloop
  endfacet
  facet normal 0.761196 -0.648522 0
    outer loop
      vertex 18.0901 19.7687 0.091
      vertex 18.0901 19.7687 0.391
      vertex 17.5433 19.1269 0.391
    endloop
  endfacet
  facet normal 0.724713 -0.68905 0
    outer loop
      vertex 18.6678 20.3763 0.091
      vertex 18.0901 19.7687 0.391
      vertex 18.0901 19.7687 0.091
    endloop
  endfacet
  facet normal 0.724713 -0.68905 0
    outer loop
      vertex 18.6678 20.3763 0.091
      vertex 18.6678 20.3763 0.391
      vertex 18.0901 19.7687 0.391
    endloop
  endfacet
  facet normal 0.684287 -0.729213 0
    outer loop
      vertex 19.2635 20.9353 0.091
      vertex 18.6678 20.3763 0.391
      vertex 18.6678 20.3763 0.091
    endloop
  endfacet
  facet normal 0.684287 -0.729213 0
    outer loop
      vertex 19.2635 20.9353 0.091
      vertex 19.2635 20.9353 0.391
      vertex 18.6678 20.3763 0.391
    endloop
  endfacet
  facet normal 0.639556 -0.768745 0
    outer loop
      vertex 19.877 21.4457 0.091
      vertex 19.2635 20.9353 0.391
      vertex 19.2635 20.9353 0.091
    endloop
  endfacet
  facet normal 0.639556 -0.768745 0
    outer loop
      vertex 19.877 21.4457 0.091
      vertex 19.877 21.4457 0.391
      vertex 19.2635 20.9353 0.391
    endloop
  endfacet
  facet normal 0.590283 -0.807197 0
    outer loop
      vertex 20.5085 21.9075 0.091
      vertex 19.877 21.4457 0.391
      vertex 19.877 21.4457 0.091
    endloop
  endfacet
  facet normal 0.590283 -0.807197 0
    outer loop
      vertex 20.5085 21.9075 0.091
      vertex 20.5085 21.9075 0.391
      vertex 19.877 21.4457 0.391
    endloop
  endfacet
  facet normal 0.536791 -0.843715 0
    outer loop
      vertex 21.1578 22.3206 0.091
      vertex 20.5085 21.9075 0.391
      vertex 20.5085 21.9075 0.091
    endloop
  endfacet
  facet normal 0.536791 -0.843715 0
    outer loop
      vertex 21.1578 22.3206 0.091
      vertex 21.1578 22.3206 0.391
      vertex 20.5085 21.9075 0.391
    endloop
  endfacet
  facet normal 0.479534 -0.877523 0
    outer loop
      vertex 21.825 22.6852 0.091
      vertex 21.1578 22.3206 0.391
      vertex 21.1578 22.3206 0.091
    endloop
  endfacet
  facet normal 0.479534 -0.877523 0
    outer loop
      vertex 21.825 22.6852 0.091
      vertex 21.825 22.6852 0.391
      vertex 21.1578 22.3206 0.391
    endloop
  endfacet
  facet normal 0.41868 -0.908134 0
    outer loop
      vertex 22.5102 23.0011 0.091
      vertex 21.825 22.6852 0.391
      vertex 21.825 22.6852 0.091
    endloop
  endfacet
  facet normal 0.41868 -0.908134 0
    outer loop
      vertex 22.5102 23.0011 0.091
      vertex 22.5102 23.0011 0.391
      vertex 21.825 22.6852 0.391
    endloop
  endfacet
  facet normal 0.35552 -0.934669 0
    outer loop
      vertex 23.2132 23.2685 0.091
      vertex 22.5102 23.0011 0.391
      vertex 22.5102 23.0011 0.091
    endloop
  endfacet
  facet normal 0.35552 -0.934669 0
    outer loop
      vertex 23.2132 23.2685 0.091
      vertex 23.2132 23.2685 0.391
      vertex 22.5102 23.0011 0.391
    endloop
  endfacet
  facet normal 0.290306 -0.956934 0
    outer loop
      vertex 23.9341 23.4872 0.091
      vertex 23.2132 23.2685 0.391
      vertex 23.2132 23.2685 0.091
    endloop
  endfacet
  facet normal 0.290306 -0.956934 0
    outer loop
      vertex 23.9341 23.4872 0.091
      vertex 23.9341 23.4872 0.391
      vertex 23.2132 23.2685 0.391
    endloop
  endfacet
  facet normal 0.224368 -0.974504 0
    outer loop
      vertex 24.6729 23.6573 0.091
      vertex 23.9341 23.4872 0.391
      vertex 23.9341 23.4872 0.091
    endloop
  endfacet
  facet normal 0.224368 -0.974504 0
    outer loop
      vertex 24.6729 23.6573 0.091
      vertex 24.6729 23.6573 0.391
      vertex 23.9341 23.4872 0.391
    endloop
  endfacet
  facet normal 0.158662 -0.987333 0
    outer loop
      vertex 25.4296 23.7789 0.091
      vertex 24.6729 23.6573 0.391
      vertex 24.6729 23.6573 0.091
    endloop
  endfacet
  facet normal 0.158662 -0.987333 0
    outer loop
      vertex 25.4296 23.7789 0.091
      vertex 25.4296 23.7789 0.391
      vertex 24.6729 23.6573 0.391
    endloop
  endfacet
  facet normal 0.093699 -0.995601 0
    outer loop
      vertex 26.2042 23.8518 0.091
      vertex 25.4296 23.7789 0.391
      vertex 25.4296 23.7789 0.091
    endloop
  endfacet
  facet normal 0.093699 -0.995601 0
    outer loop
      vertex 26.2042 23.8518 0.091
      vertex 26.2042 23.8518 0.391
      vertex 25.4296 23.7789 0.391
    endloop
  endfacet
  facet normal 0.0306481 -0.99953 0
    outer loop
      vertex 26.9967 23.8761 0.091
      vertex 26.2042 23.8518 0.391
      vertex 26.2042 23.8518 0.091
    endloop
  endfacet
  facet normal 0.0306481 -0.99953 0
    outer loop
      vertex 26.9967 23.8761 0.091
      vertex 26.9967 23.8761 0.391
      vertex 26.2042 23.8518 0.391
    endloop
  endfacet
  facet normal -0.0306481 -0.99953 0
    outer loop
      vertex 27.7892 23.8518 0.091
      vertex 26.9967 23.8761 0.391
      vertex 26.9967 23.8761 0.091
    endloop
  endfacet
  facet normal -0.0306481 -0.99953 0
    outer loop
      vertex 27.7892 23.8518 0.091
      vertex 27.7892 23.8518 0.391
      vertex 26.9967 23.8761 0.391
    endloop
  endfacet
  facet normal -0.0936871 -0.995602 0
    outer loop
      vertex 28.5639 23.7789 0.091
      vertex 27.7892 23.8518 0.391
      vertex 27.7892 23.8518 0.091
    endloop
  endfacet
  facet normal -0.0936871 -0.995602 0
    outer loop
      vertex 28.5639 23.7789 0.091
      vertex 28.5639 23.7789 0.391
      vertex 27.7892 23.8518 0.391
    endloop
  endfacet
  facet normal -0.158642 -0.987336 0
    outer loop
      vertex 29.3207 23.6573 0.091
      vertex 28.5639 23.7789 0.391
      vertex 28.5639 23.7789 0.091
    endloop
  endfacet
  facet normal -0.158642 -0.987336 0
    outer loop
      vertex 29.3207 23.6573 0.091
      vertex 29.3207 23.6573 0.391
      vertex 28.5639 23.7789 0.391
    endloop
  endfacet
  facet normal -0.224368 -0.974504 0
    outer loop
      vertex 30.0595 23.4872 0.091
      vertex 29.3207 23.6573 0.391
      vertex 29.3207 23.6573 0.091
    endloop
  endfacet
  facet normal -0.224368 -0.974504 0
    outer loop
      vertex 30.0595 23.4872 0.091
      vertex 30.0595 23.4872 0.391
      vertex 29.3207 23.6573 0.391
    endloop
  endfacet
  facet normal -0.290306 -0.956934 0
    outer loop
      vertex 30.7804 23.2685 0.091
      vertex 30.0595 23.4872 0.391
      vertex 30.0595 23.4872 0.091
    endloop
  endfacet
  facet normal -0.290306 -0.956934 0
    outer loop
      vertex 30.7804 23.2685 0.091
      vertex 30.7804 23.2685 0.391
      vertex 30.0595 23.4872 0.391
    endloop
  endfacet
  facet normal -0.355476 -0.934686 0
    outer loop
      vertex 31.4835 23.0011 0.091
      vertex 30.7804 23.2685 0.391
      vertex 30.7804 23.2685 0.091
    endloop
  endfacet
  facet normal -0.355476 -0.934686 0
    outer loop
      vertex 31.4835 23.0011 0.091
      vertex 31.4835 23.0011 0.391
      vertex 30.7804 23.2685 0.391
    endloop
  endfacet
  facet normal -0.41873 -0.908111 0
    outer loop
      vertex 32.1686 22.6852 0.091
      vertex 31.4835 23.0011 0.391
      vertex 31.4835 23.0011 0.091
    endloop
  endfacet
  facet normal -0.41873 -0.908111 0
    outer loop
      vertex 32.1686 22.6852 0.091
      vertex 32.1686 22.6852 0.391
      vertex 31.4835 23.0011 0.391
    endloop
  endfacet
  facet normal -0.479534 -0.877523 0
    outer loop
      vertex 32.8358 22.3206 0.091
      vertex 32.1686 22.6852 0.391
      vertex 32.1686 22.6852 0.091
    endloop
  endfacet
  facet normal -0.479534 -0.877523 0
    outer loop
      vertex 32.8358 22.3206 0.091
      vertex 32.8358 22.3206 0.391
      vertex 32.1686 22.6852 0.391
    endloop
  endfacet
  facet normal -0.536791 -0.843715 0
    outer loop
      vertex 33.4851 21.9075 0.091
      vertex 32.8358 22.3206 0.391
      vertex 32.8358 22.3206 0.091
    endloop
  endfacet
  facet normal -0.536791 -0.843715 0
    outer loop
      vertex 33.4851 21.9075 0.091
      vertex 33.4851 21.9075 0.391
      vertex 32.8358 22.3206 0.391
    endloop
  endfacet
  facet normal -0.590343 -0.807152 0
    outer loop
      vertex 34.1165 21.4457 0.091
      vertex 33.4851 21.9075 0.391
      vertex 33.4851 21.9075 0.091
    endloop
  endfacet
  facet normal -0.590343 -0.807152 0
    outer loop
      vertex 34.1165 21.4457 0.091
      vertex 34.1165 21.4457 0.391
      vertex 33.4851 21.9075 0.391
    endloop
  endfacet
  facet normal -0.639556 -0.768745 0
    outer loop
      vertex 34.73 20.9353 0.091
      vertex 34.1165 21.4457 0.391
      vertex 34.1165 21.4457 0.091
    endloop
  endfacet
  facet normal -0.639556 -0.768745 0
    outer loop
      vertex 34.73 20.9353 0.091
      vertex 34.73 20.9353 0.391
      vertex 34.1165 21.4457 0.391
    endloop
  endfacet
  facet normal -0.684348 -0.729155 0
    outer loop
      vertex 35.3256 20.3763 0.091
      vertex 34.73 20.9353 0.391
      vertex 34.73 20.9353 0.091
    endloop
  endfacet
  facet normal -0.684348 -0.729155 0
    outer loop
      vertex 35.3256 20.3763 0.091
      vertex 35.3256 20.3763 0.391
      vertex 34.73 20.9353 0.391
    endloop
  endfacet
  facet normal -0.724773 -0.688988 0
    outer loop
      vertex 35.9032 19.7687 0.091
      vertex 35.3256 20.3763 0.391
      vertex 35.3256 20.3763 0.091
    endloop
  endfacet
  facet normal -0.724773 -0.688988 0
    outer loop
      vertex 35.9032 19.7687 0.091
      vertex 35.9032 19.7687 0.391
      vertex 35.3256 20.3763 0.391
    endloop
  endfacet
  facet normal -0.761078 -0.64866 0
    outer loop
      vertex 36.4502 19.1269 0.091
      vertex 35.9032 19.7687 0.391
      vertex 35.9032 19.7687 0.091
    endloop
  endfacet
  facet normal -0.761078 -0.64866 0
    outer loop
      vertex 36.4502 19.1269 0.091
      vertex 36.4502 19.1269 0.391
      vertex 35.9032 19.7687 0.391
    endloop
  endfacet
  facet normal -0.796042 -0.605242 0
    outer loop
      vertex 36.9533 18.4652 0.091
      vertex 36.4502 19.1269 0.391
      vertex 36.4502 19.1269 0.091
    endloop
  endfacet
  facet normal -0.796042 -0.605242 0
    outer loop
      vertex 36.9533 18.4652 0.091
      vertex 36.9533 18.4652 0.391
      vertex 36.4502 19.1269 0.391
    endloop
  endfacet
  facet normal -0.829176 -0.558988 0
    outer loop
      vertex 37.4128 17.7836 0.091
      vertex 36.9533 18.4652 0.391
      vertex 36.9533 18.4652 0.091
    endloop
  endfacet
  facet normal -0.829176 -0.558988 0
    outer loop
      vertex 37.4128 17.7836 0.091
      vertex 37.4128 17.7836 0.391
      vertex 36.9533 18.4652 0.391
    endloop
  endfacet
  facet normal -0.860347 -0.509708 0
    outer loop
      vertex 37.8284 17.0821 0.091
      vertex 37.4128 17.7836 0.391
      vertex 37.4128 17.7836 0.091
    endloop
  endfacet
  facet normal -0.860347 -0.509708 0
    outer loop
      vertex 37.8284 17.0821 0.091
      vertex 37.8284 17.0821 0.391
      vertex 37.4128 17.7836 0.391
    endloop
  endfacet
  facet normal -0.888839 -0.458219 0
    outer loop
      vertex 38.2003 16.3607 0.091
      vertex 37.8284 17.0821 0.391
      vertex 37.8284 17.0821 0.091
    endloop
  endfacet
  facet normal -0.888839 -0.458219 0
    outer loop
      vertex 38.2003 16.3607 0.091
      vertex 38.2003 16.3607 0.391
      vertex 37.8284 17.0821 0.391
    endloop
  endfacet
  facet normal -0.91439 -0.404833 0
    outer loop
      vertex 38.5285 15.6194 0.091
      vertex 38.2003 16.3607 0.391
      vertex 38.2003 16.3607 0.091
    endloop
  endfacet
  facet normal -0.91439 -0.404833 0
    outer loop
      vertex 38.5285 15.6194 0.091
      vertex 38.5285 15.6194 0.391
      vertex 38.2003 16.3607 0.391
    endloop
  endfacet
  facet normal -0.936738 -0.350031 0
    outer loop
      vertex 38.8129 14.8583 0.091
      vertex 38.5285 15.6194 0.391
      vertex 38.5285 15.6194 0.091
    endloop
  endfacet
  facet normal -0.936738 -0.350031 0
    outer loop
      vertex 38.8129 14.8583 0.091
      vertex 38.8129 14.8583 0.391
      vertex 38.5285 15.6194 0.391
    endloop
  endfacet
  facet normal -0.955678 -0.294413 0
    outer loop
      vertex 39.0535 14.0773 0.091
      vertex 38.8129 14.8583 0.391
      vertex 38.8129 14.8583 0.091
    endloop
  endfacet
  facet normal -0.955678 -0.294413 0
    outer loop
      vertex 39.0535 14.0773 0.091
      vertex 39.0535 14.0773 0.391
      vertex 38.8129 14.8583 0.391
    endloop
  endfacet
  facet normal -0.971084 -0.238739 0
    outer loop
      vertex 39.2504 13.2764 0.091
      vertex 39.0535 14.0773 0.391
      vertex 39.0535 14.0773 0.091
    endloop
  endfacet
  facet normal -0.971084 -0.238739 0
    outer loop
      vertex 39.2504 13.2764 0.091
      vertex 39.2504 13.2764 0.391
      vertex 39.0535 14.0773 0.391
    endloop
  endfacet
  facet normal -0.983024 -0.183479 0
    outer loop
      vertex 39.4036 12.4556 0.091
      vertex 39.2504 13.2764 0.391
      vertex 39.2504 13.2764 0.091
    endloop
  endfacet
  facet normal -0.983024 -0.183479 0
    outer loop
      vertex 39.4036 12.4556 0.091
      vertex 39.4036 12.4556 0.391
      vertex 39.2504 13.2764 0.391
    endloop
  endfacet
  facet normal -0.991639 -0.129042 0
    outer loop
      vertex 39.513 11.6149 0.091
      vertex 39.4036 12.4556 0.391
      vertex 39.4036 12.4556 0.091
    endloop
  endfacet
  facet normal -0.991639 -0.129042 0
    outer loop
      vertex 39.513 11.6149 0.091
      vertex 39.513 11.6149 0.391
      vertex 39.4036 12.4556 0.391
    endloop
  endfacet
  facet normal -0.997107 -0.0760054 0
    outer loop
      vertex 39.5786 10.7543 0.091
      vertex 39.513 11.6149 0.391
      vertex 39.513 11.6149 0.091
    endloop
  endfacet
  facet normal -0.997107 -0.0760054 0
    outer loop
      vertex 39.5786 10.7543 0.091
      vertex 39.5786 10.7543 0.391
      vertex 39.513 11.6149 0.391
    endloop
  endfacet
  facet normal -0.999691 -0.0248679 0
    outer loop
      vertex 39.6005 9.87392 0.091
      vertex 39.5786 10.7543 0.391
      vertex 39.5786 10.7543 0.091
    endloop
  endfacet
  facet normal -0.999691 -0.0248679 0
    outer loop
      vertex 39.6005 9.87392 0.091
      vertex 39.6005 9.87392 0.391
      vertex 39.5786 10.7543 0.391
    endloop
  endfacet
  facet normal -1 0 0
    outer loop
      vertex 39.6005 -0.699997 0.091
      vertex 39.6005 9.87392 0.391
      vertex 39.6005 9.87392 0.091
    endloop
  endfacet
  facet normal -1 0 0
    outer loop
      vertex 39.6005 -0.699997 0.091
      vertex 39.6005 -0.699997 0.391
      vertex 39.6005 9.87392 0.391
    endloop
  endfacet
  facet normal 0 -1 0
    outer loop
      vertex 47.9987 -0.699997 0.091
      vertex 39.6005 -0.699997 0.391
      vertex 39.6005 -0.699997 0.091
    endloop
  endfacet
  facet normal 0 -1 0
    outer loop
      vertex 47.9987 -0.699997 0.091
      vertex 47.9987 -0.699997 0.391
      vertex 39.6005 -0.699997 0.391
    endloop
  endfacet
  facet normal 1 0 0
    outer loop
      vertex 47.9987 9.87392 0.091
      vertex 47.9987 -0.699997 0.391
      vertex 47.9987 -0.699997 0.091
    endloop
  endfacet
  facet normal 1 0 -0
    outer loop
      vertex 47.9987 9.87392 0.091
      vertex 47.9987 9.87392 0.391
      vertex 47.9987 -0.699997 0.391
    endloop
  endfacet
endsolid OpenSCAD_Model
