solid OpenSCAD_Model
  facet normal 0 0 -1
    outer loop
      vertex 39.7928 -0.0408478 -0.391
      vertex 40.4173 -0.518646 -0.391
      vertex 40.6341 -0.699997 -0.391
    endloop
  endfacet
  facet normal 0 0 -1
    outer loop
      vertex 35.073 2.34485 -0.391
      vertex 35.7845 2.10678 -0.391
      vertex 36.4837 1.83444 -0.391
    endloop
  endfacet
  facet normal 0 0 -1
    outer loop
      vertex 37.8446 1.18706 -0.391
      vertex 34.349 2.54869 -0.391
      vertex 37.1703 1.52788 -0.391
    endloop
  endfacet
  facet normal 0 0 -1
    outer loop
      vertex 37.1703 1.52788 -0.391
      vertex 35.073 2.34485 -0.391
      vertex 36.4837 1.83444 -0.391
    endloop
  endfacet
  facet normal 0 0 -1
    outer loop
      vertex 37.1703 1.52788 -0.391
      vertex 34.349 2.54869 -0.391
      vertex 35.073 2.34485 -0.391
    endloop
  endfacet
  facet normal -0 -0 -1
    outer loop
      vertex 37.8446 1.18706 -0.391
      vertex 38.5064 0.811996 -0.391
      vertex 34.349 2.54869 -0.391
    endloop
  endfacet
  facet normal 0 0 -1
    outer loop
      vertex 34.349 2.54869 -0.391
      vertex 38.5064 0.811996 -0.391
      vertex 39.1558 0.402695 -0.391
    endloop
  endfacet
  facet normal 0 0 -1
    outer loop
      vertex 39.7928 -0.0408478 -0.391
      vertex 34.349 2.54869 -0.391
      vertex 39.1558 0.402695 -0.391
    endloop
  endfacet
  facet normal -0 -0 -1
    outer loop
      vertex 39.7928 -0.0408478 -0.391
      vertex 40.6341 -0.699997 -0.391
      vertex 34.349 2.54869 -0.391
    endloop
  endfacet
  facet normal -0 -0 -1
    outer loop
      vertex 34.349 2.54869 -0.391
      vertex 40.6341 -0.699997 -0.391
      vertex 24.4765 3.06194 -0.391
    endloop
  endfacet
  facet normal 0 0 -1
    outer loop
      vertex 43.029 33.3267 -0.391
      vertex 42.0836 33.0008 -0.391
      vertex 42.7841 33.2697 -0.391
    endloop
  endfacet
  facet normal 0 -0 -1
    outer loop
      vertex 46.1621 32.5854 -0.391
      vertex 46.367 32.4143 -0.391
      vertex 41.2297 32.4143 -0.391
    endloop
  endfacet
  facet normal 0 0 -1
    outer loop
      vertex 45.9514 32.7402 -0.391
      vertex 44.3166 33.3674 -0.391
      vertex 45.735 32.8786 -0.391
    endloop
  endfacet
  facet normal 0 0 -1
    outer loop
      vertex 42.7841 33.2697 -0.391
      vertex 42.3114 33.1067 -0.391
      vertex 42.5449 33.1963 -0.391
    endloop
  endfacet
  facet normal 0 -0 -1
    outer loop
      vertex 43.2796 33.3674 -0.391
      vertex 43.536 33.3918 -0.391
      vertex 41.6452 32.7402 -0.391
    endloop
  endfacet
  facet normal 0 -0 -1
    outer loop
      vertex 42.0836 33.0008 -0.391
      vertex 43.029 33.3267 -0.391
      vertex 41.8616 32.8786 -0.391
    endloop
  endfacet
  facet normal 0 0 -1
    outer loop
      vertex 42.0836 33.0008 -0.391
      vertex 42.3114 33.1067 -0.391
      vertex 42.7841 33.2697 -0.391
    endloop
  endfacet
  facet normal 0 -0 -1
    outer loop
      vertex 43.029 33.3267 -0.391
      vertex 43.2796 33.3674 -0.391
      vertex 41.8616 32.8786 -0.391
    endloop
  endfacet
  facet normal 0 -0 -1
    outer loop
      vertex 41.8616 32.8786 -0.391
      vertex 43.2796 33.3674 -0.391
      vertex 41.6452 32.7402 -0.391
    endloop
  endfacet
  facet normal 0 0 -1
    outer loop
      vertex 44.0602 33.3918 -0.391
      vertex 45.9514 32.7402 -0.391
      vertex 46.1621 32.5854 -0.391
    endloop
  endfacet
  facet normal 0 0 -1
    outer loop
      vertex 44.0602 33.3918 -0.391
      vertex 44.3166 33.3674 -0.391
      vertex 45.9514 32.7402 -0.391
    endloop
  endfacet
  facet normal 0 0 -1
    outer loop
      vertex 44.5673 33.3267 -0.391
      vertex 45.5129 33.0008 -0.391
      vertex 45.735 32.8786 -0.391
    endloop
  endfacet
  facet normal 0 0 -1
    outer loop
      vertex 44.8123 33.2697 -0.391
      vertex 45.2851 33.1067 -0.391
      vertex 45.5129 33.0008 -0.391
    endloop
  endfacet
  facet normal 0 0 -1
    outer loop
      vertex 44.8123 33.2697 -0.391
      vertex 45.0516 33.1963 -0.391
      vertex 45.2851 33.1067 -0.391
    endloop
  endfacet
  facet normal 0 0 -1
    outer loop
      vertex 44.5673 33.3267 -0.391
      vertex 44.8123 33.2697 -0.391
      vertex 45.5129 33.0008 -0.391
    endloop
  endfacet
  facet normal 0 0 -1
    outer loop
      vertex 44.3166 33.3674 -0.391
      vertex 44.5673 33.3267 -0.391
      vertex 45.735 32.8786 -0.391
    endloop
  endfacet
  facet normal -0 -0 -1
    outer loop
      vertex 44.0602 33.3918 -0.391
      vertex 46.1621 32.5854 -0.391
      vertex 43.798 33.4 -0.391
    endloop
  endfacet
  facet normal 0 -0 -1
    outer loop
      vertex 41.6452 32.7402 -0.391
      vertex 43.536 33.3918 -0.391
      vertex 41.4346 32.5854 -0.391
    endloop
  endfacet
  facet normal 0 0 -1
    outer loop
      vertex 41.4346 32.5854 -0.391
      vertex 43.536 33.3918 -0.391
      vertex 43.798 33.4 -0.391
    endloop
  endfacet
  facet normal 0 0 -1
    outer loop
      vertex 46.1621 32.5854 -0.391
      vertex 41.4346 32.5854 -0.391
      vertex 43.798 33.4 -0.391
    endloop
  endfacet
  facet normal -0 0 -1
    outer loop
      vertex 46.1621 32.5854 -0.391
      vertex 41.2297 32.4143 -0.391
      vertex 41.4346 32.5854 -0.391
    endloop
  endfacet
  facet normal -0 0 -1
    outer loop
      vertex 46.367 32.4143 -0.391
      vertex 41.0305 32.2269 -0.391
      vertex 41.2297 32.4143 -0.391
    endloop
  endfacet
  facet normal 0 -0 -1
    outer loop
      vertex 46.367 32.4143 -0.391
      vertex 46.5662 32.2269 -0.391
      vertex 41.0305 32.2269 -0.391
    endloop
  endfacet
  facet normal 0 0 -1
    outer loop
      vertex 41.0305 32.2269 -0.391
      vertex 46.5662 32.2269 -0.391
      vertex 46.7597 32.0233 -0.391
    endloop
  endfacet
  facet normal 0 0 -1
    outer loop
      vertex 40.837 32.0233 -0.391
      vertex 41.0305 32.2269 -0.391
      vertex 46.7597 32.0233 -0.391
    endloop
  endfacet
  facet normal 0 0 -1
    outer loop
      vertex 46.9429 31.8082 -0.391
      vertex 40.837 32.0233 -0.391
      vertex 46.7597 32.0233 -0.391
    endloop
  endfacet
  facet normal 0 0 -1
    outer loop
      vertex 46.9429 31.8082 -0.391
      vertex 40.6488 31.8082 -0.391
      vertex 40.837 32.0233 -0.391
    endloop
  endfacet
  facet normal -0 -0 -1
    outer loop
      vertex 46.9429 31.8082 -0.391
      vertex 47.1116 31.5868 -0.391
      vertex 40.6488 31.8082 -0.391
    endloop
  endfacet
  facet normal 0 0 -1
    outer loop
      vertex 40.6488 31.8082 -0.391
      vertex 47.1116 31.5868 -0.391
      vertex 47.2655 31.359 -0.391
    endloop
  endfacet
  facet normal 0 0 -1
    outer loop
      vertex 47.4048 31.1249 -0.391
      vertex 40.6488 31.8082 -0.391
      vertex 47.2655 31.359 -0.391
    endloop
  endfacet
  facet normal -0 -0 -1
    outer loop
      vertex 47.4048 31.1249 -0.391
      vertex 47.5295 30.8845 -0.391
      vertex 40.6488 31.8082 -0.391
    endloop
  endfacet
  facet normal 0 0 -1
    outer loop
      vertex 40.6488 31.8082 -0.391
      vertex 47.5295 30.8845 -0.391
      vertex 47.6395 30.6377 -0.391
    endloop
  endfacet
  facet normal 0 0 -1
    outer loop
      vertex 47.7348 30.3846 -0.391
      vertex 40.6488 31.8082 -0.391
      vertex 47.6395 30.6377 -0.391
    endloop
  endfacet
  facet normal 0 0 -1
    outer loop
      vertex 47.7348 30.3846 -0.391
      vertex 40.4652 31.5868 -0.391
      vertex 40.6488 31.8082 -0.391
    endloop
  endfacet
  facet normal -0 -0 -1
    outer loop
      vertex 47.7348 30.3846 -0.391
      vertex 47.8154 30.1251 -0.391
      vertex 40.4652 31.5868 -0.391
    endloop
  endfacet
  facet normal 0 0 -1
    outer loop
      vertex 40.4652 31.5868 -0.391
      vertex 47.8154 30.1251 -0.391
      vertex 47.8814 29.8593 -0.391
    endloop
  endfacet
  facet normal 0 0 -1
    outer loop
      vertex 47.9327 29.5871 -0.391
      vertex 40.4652 31.5868 -0.391
      vertex 47.8814 29.8593 -0.391
    endloop
  endfacet
  facet normal -0 -0 -1
    outer loop
      vertex 47.9327 29.5871 -0.391
      vertex 47.9694 29.3086 -0.391
      vertex 40.4652 31.5868 -0.391
    endloop
  endfacet
  facet normal 0 -0 -1
    outer loop
      vertex 40.4652 31.5868 -0.391
      vertex 47.9694 29.3086 -0.391
      vertex 40.2864 31.359 -0.391
    endloop
  endfacet
  facet normal 0 0 -1
    outer loop
      vertex 40.2864 31.359 -0.391
      vertex 47.9694 29.3086 -0.391
      vertex 47.9913 29.0238 -0.391
    endloop
  endfacet
  facet normal 0 0 -1
    outer loop
      vertex 47.9987 28.7326 -0.391
      vertex 40.2864 31.359 -0.391
      vertex 47.9913 29.0238 -0.391
    endloop
  endfacet
  facet normal -0 0 -1
    outer loop
      vertex 47.9987 28.7326 -0.391
      vertex 47.9887 28.4333 -0.391
      vertex 40.2864 31.359 -0.391
    endloop
  endfacet
  facet normal 0 0 -1
    outer loop
      vertex 40.2864 31.359 -0.391
      vertex 47.9887 28.4333 -0.391
      vertex 47.9589 28.124 -0.391
    endloop
  endfacet
  facet normal 0 0 -1
    outer loop
      vertex 40.1123 31.1249 -0.391
      vertex 40.2864 31.359 -0.391
      vertex 47.9589 28.124 -0.391
    endloop
  endfacet
  facet normal 0 0 -1
    outer loop
      vertex 47.9092 27.8047 -0.391
      vertex 40.1123 31.1249 -0.391
      vertex 47.9589 28.124 -0.391
    endloop
  endfacet
  facet normal -0 0 -1
    outer loop
      vertex 47.9092 27.8047 -0.391
      vertex 47.8396 27.4756 -0.391
      vertex 40.1123 31.1249 -0.391
    endloop
  endfacet
  facet normal 0 -0 -1
    outer loop
      vertex 40.1123 31.1249 -0.391
      vertex 47.8396 27.4756 -0.391
      vertex 39.9429 30.8845 -0.391
    endloop
  endfacet
  facet normal 0 0 -1
    outer loop
      vertex 39.9429 30.8845 -0.391
      vertex 47.8396 27.4756 -0.391
      vertex 47.7502 27.1364 -0.391
    endloop
  endfacet
  facet normal 0 0 -1
    outer loop
      vertex 39.7782 30.6377 -0.391
      vertex 39.9429 30.8845 -0.391
      vertex 47.7502 27.1364 -0.391
    endloop
  endfacet
  facet normal 0 0 -1
    outer loop
      vertex 47.6408 26.7874 -0.391
      vertex 39.7782 30.6377 -0.391
      vertex 47.7502 27.1364 -0.391
    endloop
  endfacet
  facet normal 0 0 -1
    outer loop
      vertex 47.6408 26.7874 -0.391
      vertex 39.6183 30.3846 -0.391
      vertex 39.7782 30.6377 -0.391
    endloop
  endfacet
  facet normal -0 0 -1
    outer loop
      vertex 47.6408 26.7874 -0.391
      vertex 47.5116 26.4283 -0.391
      vertex 39.6183 30.3846 -0.391
    endloop
  endfacet
  facet normal 0 -0 -1
    outer loop
      vertex 39.6183 30.3846 -0.391
      vertex 47.5116 26.4283 -0.391
      vertex 39.4631 30.1251 -0.391
    endloop
  endfacet
  facet normal 0 0 -1
    outer loop
      vertex 39.4631 30.1251 -0.391
      vertex 47.5116 26.4283 -0.391
      vertex 47.3625 26.0593 -0.391
    endloop
  endfacet
  facet normal 0 0 -1
    outer loop
      vertex 39.3126 29.8593 -0.391
      vertex 39.4631 30.1251 -0.391
      vertex 47.3625 26.0593 -0.391
    endloop
  endfacet
  facet normal 0 0 -1
    outer loop
      vertex 47.1935 25.6804 -0.391
      vertex 39.3126 29.8593 -0.391
      vertex 47.3625 26.0593 -0.391
    endloop
  endfacet
  facet normal 0 0 -1
    outer loop
      vertex 47.1935 25.6804 -0.391
      vertex 39.1668 29.5871 -0.391
      vertex 39.3126 29.8593 -0.391
    endloop
  endfacet
  facet normal -0 0 -1
    outer loop
      vertex 47.1935 25.6804 -0.391
      vertex 47.0047 25.2915 -0.391
      vertex 39.1668 29.5871 -0.391
    endloop
  endfacet
  facet normal 0 -0 -1
    outer loop
      vertex 39.1668 29.5871 -0.391
      vertex 47.0047 25.2915 -0.391
      vertex 39.0257 29.3086 -0.391
    endloop
  endfacet
  facet normal 0 -0 -1
    outer loop
      vertex 39.0257 29.3086 -0.391
      vertex 47.0047 25.2915 -0.391
      vertex 38.8894 29.0238 -0.391
    endloop
  endfacet
  facet normal 0 0 -1
    outer loop
      vertex 38.8894 29.0238 -0.391
      vertex 47.0047 25.2915 -0.391
      vertex 46.7959 24.8927 -0.391
    endloop
  endfacet
  facet normal 0 0 -1
    outer loop
      vertex 38.7577 28.7326 -0.391
      vertex 38.8894 29.0238 -0.391
      vertex 46.7959 24.8927 -0.391
    endloop
  endfacet
  facet normal 0 0 -1
    outer loop
      vertex 46.5673 24.4839 -0.391
      vertex 38.7577 28.7326 -0.391
      vertex 46.7959 24.8927 -0.391
    endloop
  endfacet
  facet normal -0 0 -1
    outer loop
      vertex 46.5673 24.4839 -0.391
      vertex 46.3188 24.0652 -0.391
      vertex 38.7577 28.7326 -0.391
    endloop
  endfacet
  facet normal 0 0 -1
    outer loop
      vertex 24.4765 3.06194 -0.391
      vertex 38.7577 28.7326 -0.391
      vertex 34.349 2.54869 -0.391
    endloop
  endfacet
  facet normal 0 -0 -1
    outer loop
      vertex 38.7577 28.7326 -0.391
      vertex 46.3188 24.0652 -0.391
      vertex 34.349 2.54869 -0.391
    endloop
  endfacet
  facet normal 0 -0 -1
    outer loop
      vertex 14.3935 3.06194 -0.391
      vertex 24.4765 3.06194 -0.391
      vertex 5.99527 -0.699997 -0.391
    endloop
  endfacet
  facet normal 0 0 -1
    outer loop
      vertex 5.99527 -0.699997 -0.391
      vertex 24.4765 3.06194 -0.391
      vertex 40.6341 -0.699997 -0.391
    endloop
  endfacet
  facet normal 0 -0 -1
    outer loop
      vertex 9.67628 33.3674 -0.391
      vertex 9.93262 33.3918 -0.391
      vertex 8.04187 32.7402 -0.391
    endloop
  endfacet
  facet normal 0 0 -1
    outer loop
      vertex 8.48027 33.0008 -0.391
      vertex 9.18073 33.2697 -0.391
      vertex 9.42564 33.3267 -0.391
    endloop
  endfacet
  facet normal 0 0 -1
    outer loop
      vertex 8.25822 32.8786 -0.391
      vertex 8.48027 33.0008 -0.391
      vertex 9.42564 33.3267 -0.391
    endloop
  endfacet
  facet normal 0 0 -1
    outer loop
      vertex 9.18073 33.2697 -0.391
      vertex 8.48027 33.0008 -0.391
      vertex 8.70804 33.1067 -0.391
    endloop
  endfacet
  facet normal 0 -0 -1
    outer loop
      vertex 8.94153 33.1963 -0.391
      vertex 9.18073 33.2697 -0.391
      vertex 8.70804 33.1067 -0.391
    endloop
  endfacet
  facet normal 0 0 -1
    outer loop
      vertex 9.67628 33.3674 -0.391
      vertex 8.25822 32.8786 -0.391
      vertex 9.42564 33.3267 -0.391
    endloop
  endfacet
  facet normal 0 0 -1
    outer loop
      vertex 9.67628 33.3674 -0.391
      vertex 8.04187 32.7402 -0.391
      vertex 8.25822 32.8786 -0.391
    endloop
  endfacet
  facet normal -0 -0 -1
    outer loop
      vertex 12.3466 32.7402 -0.391
      vertex 12.5572 32.5854 -0.391
      vertex 10.4566 33.3918 -0.391
    endloop
  endfacet
  facet normal -0 -0 -1
    outer loop
      vertex 10.7129 33.3674 -0.391
      vertex 12.3466 32.7402 -0.391
      vertex 10.4566 33.3918 -0.391
    endloop
  endfacet
  facet normal 0 0 -1
    outer loop
      vertex 10.7129 33.3674 -0.391
      vertex 12.1304 32.8786 -0.391
      vertex 12.3466 32.7402 -0.391
    endloop
  endfacet
  facet normal 0 0 -1
    outer loop
      vertex 10.9635 33.3267 -0.391
      vertex 11.9084 33.0008 -0.391
      vertex 12.1304 32.8786 -0.391
    endloop
  endfacet
  facet normal 0 0 -1
    outer loop
      vertex 11.2083 33.2697 -0.391
      vertex 11.6808 33.1067 -0.391
      vertex 11.9084 33.0008 -0.391
    endloop
  endfacet
  facet normal 0 0 -1
    outer loop
      vertex 11.2083 33.2697 -0.391
      vertex 11.4474 33.1963 -0.391
      vertex 11.6808 33.1067 -0.391
    endloop
  endfacet
  facet normal 0 0 -1
    outer loop
      vertex 10.9635 33.3267 -0.391
      vertex 11.2083 33.2697 -0.391
      vertex 11.9084 33.0008 -0.391
    endloop
  endfacet
  facet normal 0 0 -1
    outer loop
      vertex 10.7129 33.3674 -0.391
      vertex 10.9635 33.3267 -0.391
      vertex 12.1304 32.8786 -0.391
    endloop
  endfacet
  facet normal -0 -0 -1
    outer loop
      vertex 10.4566 33.3918 -0.391
      vertex 12.5572 32.5854 -0.391
      vertex 10.1947 33.4 -0.391
    endloop
  endfacet
  facet normal 0 -0 -1
    outer loop
      vertex 8.04187 32.7402 -0.391
      vertex 9.93262 33.3918 -0.391
      vertex 7.83125 32.5854 -0.391
    endloop
  endfacet
  facet normal 0 0 -1
    outer loop
      vertex 7.83125 32.5854 -0.391
      vertex 9.93262 33.3918 -0.391
      vertex 10.1947 33.4 -0.391
    endloop
  endfacet
  facet normal 0 0 -1
    outer loop
      vertex 12.5572 32.5854 -0.391
      vertex 7.83125 32.5854 -0.391
      vertex 10.1947 33.4 -0.391
    endloop
  endfacet
  facet normal -0 -0 -1
    outer loop
      vertex 12.5572 32.5854 -0.391
      vertex 12.762 32.4143 -0.391
      vertex 7.83125 32.5854 -0.391
    endloop
  endfacet
  facet normal 0 -0 -1
    outer loop
      vertex 7.83125 32.5854 -0.391
      vertex 12.762 32.4143 -0.391
      vertex 7.62634 32.4143 -0.391
    endloop
  endfacet
  facet normal 0 0 -1
    outer loop
      vertex 7.62634 32.4143 -0.391
      vertex 12.762 32.4143 -0.391
      vertex 12.9611 32.2269 -0.391
    endloop
  endfacet
  facet normal 0 0 -1
    outer loop
      vertex 7.42715 32.2269 -0.391
      vertex 7.62634 32.4143 -0.391
      vertex 12.9611 32.2269 -0.391
    endloop
  endfacet
  facet normal 0 0 -1
    outer loop
      vertex 13.1545 32.0233 -0.391
      vertex 7.42715 32.2269 -0.391
      vertex 12.9611 32.2269 -0.391
    endloop
  endfacet
  facet normal 0 0 -1
    outer loop
      vertex 13.1545 32.0233 -0.391
      vertex 7.23367 32.0233 -0.391
      vertex 7.42715 32.2269 -0.391
    endloop
  endfacet
  facet normal -0 0 -1
    outer loop
      vertex 13.1545 32.0233 -0.391
      vertex 7.05048 31.8082 -0.391
      vertex 7.23367 32.0233 -0.391
    endloop
  endfacet
  facet normal 0 -0 -1
    outer loop
      vertex 13.1545 32.0233 -0.391
      vertex 13.3378 31.8082 -0.391
      vertex 7.05048 31.8082 -0.391
    endloop
  endfacet
  facet normal 0 -0 -1
    outer loop
      vertex 7.05048 31.8082 -0.391
      vertex 13.3378 31.8082 -0.391
      vertex 6.88194 31.5868 -0.391
    endloop
  endfacet
  facet normal 0 0 -1
    outer loop
      vertex 6.88194 31.5868 -0.391
      vertex 13.3378 31.8082 -0.391
      vertex 13.5064 31.5868 -0.391
    endloop
  endfacet
  facet normal 0 0 -1
    outer loop
      vertex 6.72806 31.359 -0.391
      vertex 6.88194 31.5868 -0.391
      vertex 13.5064 31.5868 -0.391
    endloop
  endfacet
  facet normal 0 0 -1
    outer loop
      vertex 13.6603 31.359 -0.391
      vertex 6.72806 31.359 -0.391
      vertex 13.5064 31.5868 -0.391
    endloop
  endfacet
  facet normal -0 0 -1
    outer loop
      vertex 13.6603 31.359 -0.391
      vertex 6.58884 31.1249 -0.391
      vertex 6.72806 31.359 -0.391
    endloop
  endfacet
  facet normal 0 -0 -1
    outer loop
      vertex 13.6603 31.359 -0.391
      vertex 13.7997 31.1249 -0.391
      vertex 6.58884 31.1249 -0.391
    endloop
  endfacet
  facet normal 0 -0 -1
    outer loop
      vertex 6.58884 31.1249 -0.391
      vertex 13.7997 31.1249 -0.391
      vertex 6.46425 30.8845 -0.391
    endloop
  endfacet
  facet normal 0 0 -1
    outer loop
      vertex 6.46425 30.8845 -0.391
      vertex 13.7997 31.1249 -0.391
      vertex 13.9243 30.8845 -0.391
    endloop
  endfacet
  facet normal 0 0 -1
    outer loop
      vertex 6.35435 30.6377 -0.391
      vertex 6.46425 30.8845 -0.391
      vertex 13.9243 30.8845 -0.391
    endloop
  endfacet
  facet normal 0 0 -1
    outer loop
      vertex 14.0342 30.6377 -0.391
      vertex 6.35435 30.6377 -0.391
      vertex 13.9243 30.8845 -0.391
    endloop
  endfacet
  facet normal -0 0 -1
    outer loop
      vertex 14.0342 30.6377 -0.391
      vertex 6.25908 30.3846 -0.391
      vertex 6.35435 30.6377 -0.391
    endloop
  endfacet
  facet normal 0 -0 -1
    outer loop
      vertex 14.0342 30.6377 -0.391
      vertex 14.1295 30.3846 -0.391
      vertex 6.25908 30.3846 -0.391
    endloop
  endfacet
  facet normal 0 -0 -1
    outer loop
      vertex 6.25908 30.3846 -0.391
      vertex 14.1295 30.3846 -0.391
      vertex 6.17847 30.1251 -0.391
    endloop
  endfacet
  facet normal 0 0 -1
    outer loop
      vertex 6.17847 30.1251 -0.391
      vertex 14.1295 30.3846 -0.391
      vertex 14.2102 30.1251 -0.391
    endloop
  endfacet
  facet normal 0 0 -1
    outer loop
      vertex 6.11252 29.8593 -0.391
      vertex 6.17847 30.1251 -0.391
      vertex 14.2102 30.1251 -0.391
    endloop
  endfacet
  facet normal 0 0 -1
    outer loop
      vertex 14.2762 29.8593 -0.391
      vertex 6.11252 29.8593 -0.391
      vertex 14.2102 30.1251 -0.391
    endloop
  endfacet
  facet normal -0 0 -1
    outer loop
      vertex 14.2762 29.8593 -0.391
      vertex 6.06123 29.5871 -0.391
      vertex 6.11252 29.8593 -0.391
    endloop
  endfacet
  facet normal 0 -0 -1
    outer loop
      vertex 14.2762 29.8593 -0.391
      vertex 14.3275 29.5871 -0.391
      vertex 6.06123 29.5871 -0.391
    endloop
  endfacet
  facet normal 0 -0 -1
    outer loop
      vertex 6.06123 29.5871 -0.391
      vertex 14.3275 29.5871 -0.391
      vertex 6.0246 29.3086 -0.391
    endloop
  endfacet
  facet normal 0 0 -1
    outer loop
      vertex 6.0246 29.3086 -0.391
      vertex 14.3275 29.5871 -0.391
      vertex 14.3642 29.3086 -0.391
    endloop
  endfacet
  facet normal 0 0 -1
    outer loop
      vertex 6.00261 29.0238 -0.391
      vertex 6.0246 29.3086 -0.391
      vertex 14.3642 29.3086 -0.391
    endloop
  endfacet
  facet normal 0 0 -1
    outer loop
      vertex 14.3862 29.0238 -0.391
      vertex 6.00261 29.0238 -0.391
      vertex 14.3642 29.3086 -0.391
    endloop
  endfacet
  facet normal -0 -0 -1
    outer loop
      vertex 14.3862 29.0238 -0.391
      vertex 14.3935 28.7326 -0.391
      vertex 6.00261 29.0238 -0.391
    endloop
  endfacet
  facet normal 0 -0 -1
    outer loop
      vertex 6.00261 29.0238 -0.391
      vertex 14.3935 28.7326 -0.391
      vertex 5.99527 28.7326 -0.391
    endloop
  endfacet
  facet normal 0 0 -1
    outer loop
      vertex 5.99527 28.7326 -0.391
      vertex 14.3935 28.7326 -0.391
      vertex 14.3935 3.06194 -0.391
    endloop
  endfacet
  facet normal 0 0 -1
    outer loop
      vertex 5.99527 -0.699997 -0.391
      vertex 5.99527 28.7326 -0.391
      vertex 14.3935 3.06194 -0.391
    endloop
  endfacet
  facet normal 0 0 1
    outer loop
      vertex 40.6341 -0.699997 -0.091
      vertex 40.4173 -0.518646 -0.091
      vertex 39.7928 -0.0408478 -0.091
    endloop
  endfacet
  facet normal 0 0 1
    outer loop
      vertex 36.4837 1.83444 -0.091
      vertex 35.7845 2.10678 -0.091
      vertex 35.073 2.34485 -0.091
    endloop
  endfacet
  facet normal 0 0 1
    outer loop
      vertex 37.1703 1.52788 -0.091
      vertex 34.349 2.54869 -0.091
      vertex 37.8446 1.18706 -0.091
    endloop
  endfacet
  facet normal 0 0 1
    outer loop
      vertex 36.4837 1.83444 -0.091
      vertex 35.073 2.34485 -0.091
      vertex 37.1703 1.52788 -0.091
    endloop
  endfacet
  facet normal 0 0 1
    outer loop
      vertex 35.073 2.34485 -0.091
      vertex 34.349 2.54869 -0.091
      vertex 37.1703 1.52788 -0.091
    endloop
  endfacet
  facet normal 0 0 1
    outer loop
      vertex 34.349 2.54869 -0.091
      vertex 38.5064 0.811996 -0.091
      vertex 37.8446 1.18706 -0.091
    endloop
  endfacet
  facet normal 0 0 1
    outer loop
      vertex 39.1558 0.402695 -0.091
      vertex 38.5064 0.811996 -0.091
      vertex 34.349 2.54869 -0.091
    endloop
  endfacet
  facet normal 0 0 1
    outer loop
      vertex 39.1558 0.402695 -0.091
      vertex 34.349 2.54869 -0.091
      vertex 39.7928 -0.0408478 -0.091
    endloop
  endfacet
  facet normal 0 0 1
    outer loop
      vertex 34.349 2.54869 -0.091
      vertex 40.6341 -0.699997 -0.091
      vertex 39.7928 -0.0408478 -0.091
    endloop
  endfacet
  facet normal 0 0 1
    outer loop
      vertex 24.4765 3.06194 -0.091
      vertex 40.6341 -0.699997 -0.091
      vertex 34.349 2.54869 -0.091
    endloop
  endfacet
  facet normal -0 0 1
    outer loop
      vertex 42.7841 33.2697 -0.091
      vertex 42.0836 33.0008 -0.091
      vertex 43.029 33.3267 -0.091
    endloop
  endfacet
  facet normal 0 0 1
    outer loop
      vertex 41.2297 32.4143 -0.091
      vertex 46.367 32.4143 -0.091
      vertex 46.1621 32.5854 -0.091
    endloop
  endfacet
  facet normal 0 0 1
    outer loop
      vertex 45.735 32.8786 -0.091
      vertex 44.3166 33.3674 -0.091
      vertex 45.9514 32.7402 -0.091
    endloop
  endfacet
  facet normal -0 0 1
    outer loop
      vertex 42.5449 33.1963 -0.091
      vertex 42.3114 33.1067 -0.091
      vertex 42.7841 33.2697 -0.091
    endloop
  endfacet
  facet normal 0 0 1
    outer loop
      vertex 41.6452 32.7402 -0.091
      vertex 43.536 33.3918 -0.091
      vertex 43.2796 33.3674 -0.091
    endloop
  endfacet
  facet normal 0 0 1
    outer loop
      vertex 41.8616 32.8786 -0.091
      vertex 43.029 33.3267 -0.091
      vertex 42.0836 33.0008 -0.091
    endloop
  endfacet
  facet normal 0 0 1
    outer loop
      vertex 42.7841 33.2697 -0.091
      vertex 42.3114 33.1067 -0.091
      vertex 42.0836 33.0008 -0.091
    endloop
  endfacet
  facet normal 0 0 1
    outer loop
      vertex 41.8616 32.8786 -0.091
      vertex 43.2796 33.3674 -0.091
      vertex 43.029 33.3267 -0.091
    endloop
  endfacet
  facet normal 0 0 1
    outer loop
      vertex 41.6452 32.7402 -0.091
      vertex 43.2796 33.3674 -0.091
      vertex 41.8616 32.8786 -0.091
    endloop
  endfacet
  facet normal 0 0 1
    outer loop
      vertex 46.1621 32.5854 -0.091
      vertex 45.9514 32.7402 -0.091
      vertex 44.0602 33.3918 -0.091
    endloop
  endfacet
  facet normal 0 0 1
    outer loop
      vertex 45.9514 32.7402 -0.091
      vertex 44.3166 33.3674 -0.091
      vertex 44.0602 33.3918 -0.091
    endloop
  endfacet
  facet normal 0 0 1
    outer loop
      vertex 45.735 32.8786 -0.091
      vertex 45.5129 33.0008 -0.091
      vertex 44.5673 33.3267 -0.091
    endloop
  endfacet
  facet normal 0 0 1
    outer loop
      vertex 45.5129 33.0008 -0.091
      vertex 45.2851 33.1067 -0.091
      vertex 44.8123 33.2697 -0.091
    endloop
  endfacet
  facet normal 0 0 1
    outer loop
      vertex 45.2851 33.1067 -0.091
      vertex 45.0516 33.1963 -0.091
      vertex 44.8123 33.2697 -0.091
    endloop
  endfacet
  facet normal 0 0 1
    outer loop
      vertex 45.5129 33.0008 -0.091
      vertex 44.8123 33.2697 -0.091
      vertex 44.5673 33.3267 -0.091
    endloop
  endfacet
  facet normal 0 0 1
    outer loop
      vertex 45.735 32.8786 -0.091
      vertex 44.5673 33.3267 -0.091
      vertex 44.3166 33.3674 -0.091
    endloop
  endfacet
  facet normal 0 0 1
    outer loop
      vertex 43.798 33.4 -0.091
      vertex 46.1621 32.5854 -0.091
      vertex 44.0602 33.3918 -0.091
    endloop
  endfacet
  facet normal 0 0 1
    outer loop
      vertex 41.4346 32.5854 -0.091
      vertex 43.536 33.3918 -0.091
      vertex 41.6452 32.7402 -0.091
    endloop
  endfacet
  facet normal 0 0 1
    outer loop
      vertex 43.798 33.4 -0.091
      vertex 43.536 33.3918 -0.091
      vertex 41.4346 32.5854 -0.091
    endloop
  endfacet
  facet normal 0 0 1
    outer loop
      vertex 43.798 33.4 -0.091
      vertex 41.4346 32.5854 -0.091
      vertex 46.1621 32.5854 -0.091
    endloop
  endfacet
  facet normal -0 0 1
    outer loop
      vertex 41.4346 32.5854 -0.091
      vertex 41.2297 32.4143 -0.091
      vertex 46.1621 32.5854 -0.091
    endloop
  endfacet
  facet normal -0 0 1
    outer loop
      vertex 41.2297 32.4143 -0.091
      vertex 41.0305 32.2269 -0.091
      vertex 46.367 32.4143 -0.091
    endloop
  endfacet
  facet normal 0 0 1
    outer loop
      vertex 41.0305 32.2269 -0.091
      vertex 46.5662 32.2269 -0.091
      vertex 46.367 32.4143 -0.091
    endloop
  endfacet
  facet normal 0 0 1
    outer loop
      vertex 46.7597 32.0233 -0.091
      vertex 46.5662 32.2269 -0.091
      vertex 41.0305 32.2269 -0.091
    endloop
  endfacet
  facet normal 0 0 1
    outer loop
      vertex 46.7597 32.0233 -0.091
      vertex 41.0305 32.2269 -0.091
      vertex 40.837 32.0233 -0.091
    endloop
  endfacet
  facet normal 0 0 1
    outer loop
      vertex 46.7597 32.0233 -0.091
      vertex 40.837 32.0233 -0.091
      vertex 46.9429 31.8082 -0.091
    endloop
  endfacet
  facet normal 0 0 1
    outer loop
      vertex 40.837 32.0233 -0.091
      vertex 40.6488 31.8082 -0.091
      vertex 46.9429 31.8082 -0.091
    endloop
  endfacet
  facet normal -0 0 1
    outer loop
      vertex 40.6488 31.8082 -0.091
      vertex 47.1116 31.5868 -0.091
      vertex 46.9429 31.8082 -0.091
    endloop
  endfacet
  facet normal 0 0 1
    outer loop
      vertex 47.2655 31.359 -0.091
      vertex 47.1116 31.5868 -0.091
      vertex 40.6488 31.8082 -0.091
    endloop
  endfacet
  facet normal 0 0 1
    outer loop
      vertex 47.2655 31.359 -0.091
      vertex 40.6488 31.8082 -0.091
      vertex 47.4048 31.1249 -0.091
    endloop
  endfacet
  facet normal 0 0 1
    outer loop
      vertex 40.6488 31.8082 -0.091
      vertex 47.5295 30.8845 -0.091
      vertex 47.4048 31.1249 -0.091
    endloop
  endfacet
  facet normal 0 0 1
    outer loop
      vertex 47.6395 30.6377 -0.091
      vertex 47.5295 30.8845 -0.091
      vertex 40.6488 31.8082 -0.091
    endloop
  endfacet
  facet normal 0 0 1
    outer loop
      vertex 47.6395 30.6377 -0.091
      vertex 40.6488 31.8082 -0.091
      vertex 47.7348 30.3846 -0.091
    endloop
  endfacet
  facet normal 0 0 1
    outer loop
      vertex 40.6488 31.8082 -0.091
      vertex 40.4652 31.5868 -0.091
      vertex 47.7348 30.3846 -0.091
    endloop
  endfacet
  facet normal 0 0 1
    outer loop
      vertex 40.4652 31.5868 -0.091
      vertex 47.8154 30.1251 -0.091
      vertex 47.7348 30.3846 -0.091
    endloop
  endfacet
  facet normal 0 0 1
    outer loop
      vertex 47.8814 29.8593 -0.091
      vertex 47.8154 30.1251 -0.091
      vertex 40.4652 31.5868 -0.091
    endloop
  endfacet
  facet normal 0 0 1
    outer loop
      vertex 47.8814 29.8593 -0.091
      vertex 40.4652 31.5868 -0.091
      vertex 47.9327 29.5871 -0.091
    endloop
  endfacet
  facet normal 0 0 1
    outer loop
      vertex 40.4652 31.5868 -0.091
      vertex 47.9694 29.3086 -0.091
      vertex 47.9327 29.5871 -0.091
    endloop
  endfacet
  facet normal -0 0 1
    outer loop
      vertex 40.2864 31.359 -0.091
      vertex 47.9694 29.3086 -0.091
      vertex 40.4652 31.5868 -0.091
    endloop
  endfacet
  facet normal 0 0 1
    outer loop
      vertex 47.9913 29.0238 -0.091
      vertex 47.9694 29.3086 -0.091
      vertex 40.2864 31.359 -0.091
    endloop
  endfacet
  facet normal 0 0 1
    outer loop
      vertex 47.9913 29.0238 -0.091
      vertex 40.2864 31.359 -0.091
      vertex 47.9987 28.7326 -0.091
    endloop
  endfacet
  facet normal 0 0 1
    outer loop
      vertex 40.2864 31.359 -0.091
      vertex 47.9887 28.4333 -0.091
      vertex 47.9987 28.7326 -0.091
    endloop
  endfacet
  facet normal 0 -0 1
    outer loop
      vertex 47.9589 28.124 -0.091
      vertex 47.9887 28.4333 -0.091
      vertex 40.2864 31.359 -0.091
    endloop
  endfacet
  facet normal 0 0 1
    outer loop
      vertex 47.9589 28.124 -0.091
      vertex 40.2864 31.359 -0.091
      vertex 40.1123 31.1249 -0.091
    endloop
  endfacet
  facet normal 0 0 1
    outer loop
      vertex 47.9589 28.124 -0.091
      vertex 40.1123 31.1249 -0.091
      vertex 47.9092 27.8047 -0.091
    endloop
  endfacet
  facet normal 0 0 1
    outer loop
      vertex 40.1123 31.1249 -0.091
      vertex 47.8396 27.4756 -0.091
      vertex 47.9092 27.8047 -0.091
    endloop
  endfacet
  facet normal -0 0 1
    outer loop
      vertex 39.9429 30.8845 -0.091
      vertex 47.8396 27.4756 -0.091
      vertex 40.1123 31.1249 -0.091
    endloop
  endfacet
  facet normal 0 -0 1
    outer loop
      vertex 47.7502 27.1364 -0.091
      vertex 47.8396 27.4756 -0.091
      vertex 39.9429 30.8845 -0.091
    endloop
  endfacet
  facet normal 0 0 1
    outer loop
      vertex 47.7502 27.1364 -0.091
      vertex 39.9429 30.8845 -0.091
      vertex 39.7782 30.6377 -0.091
    endloop
  endfacet
  facet normal 0 0 1
    outer loop
      vertex 47.7502 27.1364 -0.091
      vertex 39.7782 30.6377 -0.091
      vertex 47.6408 26.7874 -0.091
    endloop
  endfacet
  facet normal 0 0 1
    outer loop
      vertex 39.7782 30.6377 -0.091
      vertex 39.6183 30.3846 -0.091
      vertex 47.6408 26.7874 -0.091
    endloop
  endfacet
  facet normal 0 0 1
    outer loop
      vertex 39.6183 30.3846 -0.091
      vertex 47.5116 26.4283 -0.091
      vertex 47.6408 26.7874 -0.091
    endloop
  endfacet
  facet normal -0 0 1
    outer loop
      vertex 39.4631 30.1251 -0.091
      vertex 47.5116 26.4283 -0.091
      vertex 39.6183 30.3846 -0.091
    endloop
  endfacet
  facet normal 0 -0 1
    outer loop
      vertex 47.3625 26.0593 -0.091
      vertex 47.5116 26.4283 -0.091
      vertex 39.4631 30.1251 -0.091
    endloop
  endfacet
  facet normal 0 0 1
    outer loop
      vertex 47.3625 26.0593 -0.091
      vertex 39.4631 30.1251 -0.091
      vertex 39.3126 29.8593 -0.091
    endloop
  endfacet
  facet normal 0 0 1
    outer loop
      vertex 47.3625 26.0593 -0.091
      vertex 39.3126 29.8593 -0.091
      vertex 47.1935 25.6804 -0.091
    endloop
  endfacet
  facet normal 0 0 1
    outer loop
      vertex 39.3126 29.8593 -0.091
      vertex 39.1668 29.5871 -0.091
      vertex 47.1935 25.6804 -0.091
    endloop
  endfacet
  facet normal 0 0 1
    outer loop
      vertex 39.1668 29.5871 -0.091
      vertex 47.0047 25.2915 -0.091
      vertex 47.1935 25.6804 -0.091
    endloop
  endfacet
  facet normal -0 0 1
    outer loop
      vertex 39.0257 29.3086 -0.091
      vertex 47.0047 25.2915 -0.091
      vertex 39.1668 29.5871 -0.091
    endloop
  endfacet
  facet normal -0 0 1
    outer loop
      vertex 38.8894 29.0238 -0.091
      vertex 47.0047 25.2915 -0.091
      vertex 39.0257 29.3086 -0.091
    endloop
  endfacet
  facet normal 0 -0 1
    outer loop
      vertex 46.7959 24.8927 -0.091
      vertex 47.0047 25.2915 -0.091
      vertex 38.8894 29.0238 -0.091
    endloop
  endfacet
  facet normal 0 0 1
    outer loop
      vertex 46.7959 24.8927 -0.091
      vertex 38.8894 29.0238 -0.091
      vertex 38.7577 28.7326 -0.091
    endloop
  endfacet
  facet normal 0 0 1
    outer loop
      vertex 46.7959 24.8927 -0.091
      vertex 38.7577 28.7326 -0.091
      vertex 46.5673 24.4839 -0.091
    endloop
  endfacet
  facet normal 0 0 1
    outer loop
      vertex 38.7577 28.7326 -0.091
      vertex 46.3188 24.0652 -0.091
      vertex 46.5673 24.4839 -0.091
    endloop
  endfacet
  facet normal 0 -0 1
    outer loop
      vertex 34.349 2.54869 -0.091
      vertex 38.7577 28.7326 -0.091
      vertex 24.4765 3.06194 -0.091
    endloop
  endfacet
  facet normal 0 0 1
    outer loop
      vertex 34.349 2.54869 -0.091
      vertex 46.3188 24.0652 -0.091
      vertex 38.7577 28.7326 -0.091
    endloop
  endfacet
  facet normal 0 0 1
    outer loop
      vertex 5.99527 -0.699997 -0.091
      vertex 24.4765 3.06194 -0.091
      vertex 14.3935 3.06194 -0.091
    endloop
  endfacet
  facet normal 0 0 1
    outer loop
      vertex 40.6341 -0.699997 -0.091
      vertex 24.4765 3.06194 -0.091
      vertex 5.99527 -0.699997 -0.091
    endloop
  endfacet
  facet normal 0 0 1
    outer loop
      vertex 8.04187 32.7402 -0.091
      vertex 9.93262 33.3918 -0.091
      vertex 9.67628 33.3674 -0.091
    endloop
  endfacet
  facet normal 0 0 1
    outer loop
      vertex 9.42564 33.3267 -0.091
      vertex 9.18073 33.2697 -0.091
      vertex 8.48027 33.0008 -0.091
    endloop
  endfacet
  facet normal 0 0 1
    outer loop
      vertex 9.42564 33.3267 -0.091
      vertex 8.48027 33.0008 -0.091
      vertex 8.25822 32.8786 -0.091
    endloop
  endfacet
  facet normal -0 0 1
    outer loop
      vertex 8.70804 33.1067 -0.091
      vertex 8.48027 33.0008 -0.091
      vertex 9.18073 33.2697 -0.091
    endloop
  endfacet
  facet normal 0 0 1
    outer loop
      vertex 8.70804 33.1067 -0.091
      vertex 9.18073 33.2697 -0.091
      vertex 8.94153 33.1963 -0.091
    endloop
  endfacet
  facet normal -0 0 1
    outer loop
      vertex 9.42564 33.3267 -0.091
      vertex 8.25822 32.8786 -0.091
      vertex 9.67628 33.3674 -0.091
    endloop
  endfacet
  facet normal -0 0 1
    outer loop
      vertex 8.25822 32.8786 -0.091
      vertex 8.04187 32.7402 -0.091
      vertex 9.67628 33.3674 -0.091
    endloop
  endfacet
  facet normal 0 0 1
    outer loop
      vertex 10.4566 33.3918 -0.091
      vertex 12.5572 32.5854 -0.091
      vertex 12.3466 32.7402 -0.091
    endloop
  endfacet
  facet normal 0 0 1
    outer loop
      vertex 10.4566 33.3918 -0.091
      vertex 12.3466 32.7402 -0.091
      vertex 10.7129 33.3674 -0.091
    endloop
  endfacet
  facet normal 0 0 1
    outer loop
      vertex 12.3466 32.7402 -0.091
      vertex 12.1304 32.8786 -0.091
      vertex 10.7129 33.3674 -0.091
    endloop
  endfacet
  facet normal 0 0 1
    outer loop
      vertex 12.1304 32.8786 -0.091
      vertex 11.9084 33.0008 -0.091
      vertex 10.9635 33.3267 -0.091
    endloop
  endfacet
  facet normal 0 0 1
    outer loop
      vertex 11.9084 33.0008 -0.091
      vertex 11.6808 33.1067 -0.091
      vertex 11.2083 33.2697 -0.091
    endloop
  endfacet
  facet normal 0 0 1
    outer loop
      vertex 11.6808 33.1067 -0.091
      vertex 11.4474 33.1963 -0.091
      vertex 11.2083 33.2697 -0.091
    endloop
  endfacet
  facet normal 0 0 1
    outer loop
      vertex 11.9084 33.0008 -0.091
      vertex 11.2083 33.2697 -0.091
      vertex 10.9635 33.3267 -0.091
    endloop
  endfacet
  facet normal 0 0 1
    outer loop
      vertex 12.1304 32.8786 -0.091
      vertex 10.9635 33.3267 -0.091
      vertex 10.7129 33.3674 -0.091
    endloop
  endfacet
  facet normal 0 0 1
    outer loop
      vertex 10.1947 33.4 -0.091
      vertex 12.5572 32.5854 -0.091
      vertex 10.4566 33.3918 -0.091
    endloop
  endfacet
  facet normal 0 0 1
    outer loop
      vertex 7.83125 32.5854 -0.091
      vertex 9.93262 33.3918 -0.091
      vertex 8.04187 32.7402 -0.091
    endloop
  endfacet
  facet normal 0 0 1
    outer loop
      vertex 10.1947 33.4 -0.091
      vertex 9.93262 33.3918 -0.091
      vertex 7.83125 32.5854 -0.091
    endloop
  endfacet
  facet normal 0 0 1
    outer loop
      vertex 10.1947 33.4 -0.091
      vertex 7.83125 32.5854 -0.091
      vertex 12.5572 32.5854 -0.091
    endloop
  endfacet
  facet normal -0 0 1
    outer loop
      vertex 7.83125 32.5854 -0.091
      vertex 12.762 32.4143 -0.091
      vertex 12.5572 32.5854 -0.091
    endloop
  endfacet
  facet normal 0 0 1
    outer loop
      vertex 7.62634 32.4143 -0.091
      vertex 12.762 32.4143 -0.091
      vertex 7.83125 32.5854 -0.091
    endloop
  endfacet
  facet normal 0 0 1
    outer loop
      vertex 12.9611 32.2269 -0.091
      vertex 12.762 32.4143 -0.091
      vertex 7.62634 32.4143 -0.091
    endloop
  endfacet
  facet normal 0 0 1
    outer loop
      vertex 12.9611 32.2269 -0.091
      vertex 7.62634 32.4143 -0.091
      vertex 7.42715 32.2269 -0.091
    endloop
  endfacet
  facet normal 0 0 1
    outer loop
      vertex 12.9611 32.2269 -0.091
      vertex 7.42715 32.2269 -0.091
      vertex 13.1545 32.0233 -0.091
    endloop
  endfacet
  facet normal 0 0 1
    outer loop
      vertex 7.42715 32.2269 -0.091
      vertex 7.23367 32.0233 -0.091
      vertex 13.1545 32.0233 -0.091
    endloop
  endfacet
  facet normal -0 0 1
    outer loop
      vertex 7.23367 32.0233 -0.091
      vertex 7.05048 31.8082 -0.091
      vertex 13.1545 32.0233 -0.091
    endloop
  endfacet
  facet normal 0 0 1
    outer loop
      vertex 7.05048 31.8082 -0.091
      vertex 13.3378 31.8082 -0.091
      vertex 13.1545 32.0233 -0.091
    endloop
  endfacet
  facet normal 0 0 1
    outer loop
      vertex 6.88194 31.5868 -0.091
      vertex 13.3378 31.8082 -0.091
      vertex 7.05048 31.8082 -0.091
    endloop
  endfacet
  facet normal 0 0 1
    outer loop
      vertex 13.5064 31.5868 -0.091
      vertex 13.3378 31.8082 -0.091
      vertex 6.88194 31.5868 -0.091
    endloop
  endfacet
  facet normal 0 0 1
    outer loop
      vertex 13.5064 31.5868 -0.091
      vertex 6.88194 31.5868 -0.091
      vertex 6.72806 31.359 -0.091
    endloop
  endfacet
  facet normal 0 0 1
    outer loop
      vertex 13.5064 31.5868 -0.091
      vertex 6.72806 31.359 -0.091
      vertex 13.6603 31.359 -0.091
    endloop
  endfacet
  facet normal -0 0 1
    outer loop
      vertex 6.72806 31.359 -0.091
      vertex 6.58884 31.1249 -0.091
      vertex 13.6603 31.359 -0.091
    endloop
  endfacet
  facet normal 0 0 1
    outer loop
      vertex 6.58884 31.1249 -0.091
      vertex 13.7997 31.1249 -0.091
      vertex 13.6603 31.359 -0.091
    endloop
  endfacet
  facet normal 0 0 1
    outer loop
      vertex 6.46425 30.8845 -0.091
      vertex 13.7997 31.1249 -0.091
      vertex 6.58884 31.1249 -0.091
    endloop
  endfacet
  facet normal 0 0 1
    outer loop
      vertex 13.9243 30.8845 -0.091
      vertex 13.7997 31.1249 -0.091
      vertex 6.46425 30.8845 -0.091
    endloop
  endfacet
  facet normal 0 0 1
    outer loop
      vertex 13.9243 30.8845 -0.091
      vertex 6.46425 30.8845 -0.091
      vertex 6.35435 30.6377 -0.091
    endloop
  endfacet
  facet normal 0 0 1
    outer loop
      vertex 13.9243 30.8845 -0.091
      vertex 6.35435 30.6377 -0.091
      vertex 14.0342 30.6377 -0.091
    endloop
  endfacet
  facet normal -0 0 1
    outer loop
      vertex 6.35435 30.6377 -0.091
      vertex 6.25908 30.3846 -0.091
      vertex 14.0342 30.6377 -0.091
    endloop
  endfacet
  facet normal 0 0 1
    outer loop
      vertex 6.25908 30.3846 -0.091
      vertex 14.1295 30.3846 -0.091
      vertex 14.0342 30.6377 -0.091
    endloop
  endfacet
  facet normal 0 0 1
    outer loop
      vertex 6.17847 30.1251 -0.091
      vertex 14.1295 30.3846 -0.091
      vertex 6.25908 30.3846 -0.091
    endloop
  endfacet
  facet normal 0 0 1
    outer loop
      vertex 14.2102 30.1251 -0.091
      vertex 14.1295 30.3846 -0.091
      vertex 6.17847 30.1251 -0.091
    endloop
  endfacet
  facet normal 0 0 1
    outer loop
      vertex 14.2102 30.1251 -0.091
      vertex 6.17847 30.1251 -0.091
      vertex 6.11252 29.8593 -0.091
    endloop
  endfacet
  facet normal 0 0 1
    outer loop
      vertex 14.2102 30.1251 -0.091
      vertex 6.11252 29.8593 -0.091
      vertex 14.2762 29.8593 -0.091
    endloop
  endfacet
  facet normal -0 0 1
    outer loop
      vertex 6.11252 29.8593 -0.091
      vertex 6.06123 29.5871 -0.091
      vertex 14.2762 29.8593 -0.091
    endloop
  endfacet
  facet normal 0 0 1
    outer loop
      vertex 6.06123 29.5871 -0.091
      vertex 14.3275 29.5871 -0.091
      vertex 14.2762 29.8593 -0.091
    endloop
  endfacet
  facet normal 0 0 1
    outer loop
      vertex 6.0246 29.3086 -0.091
      vertex 14.3275 29.5871 -0.091
      vertex 6.06123 29.5871 -0.091
    endloop
  endfacet
  facet normal 0 0 1
    outer loop
      vertex 14.3642 29.3086 -0.091
      vertex 14.3275 29.5871 -0.091
      vertex 6.0246 29.3086 -0.091
    endloop
  endfacet
  facet normal 0 0 1
    outer loop
      vertex 14.3642 29.3086 -0.091
      vertex 6.0246 29.3086 -0.091
      vertex 6.00261 29.0238 -0.091
    endloop
  endfacet
  facet normal 0 0 1
    outer loop
      vertex 14.3642 29.3086 -0.091
      vertex 6.00261 29.0238 -0.091
      vertex 14.3862 29.0238 -0.091
    endloop
  endfacet
  facet normal -0 0 1
    outer loop
      vertex 6.00261 29.0238 -0.091
      vertex 14.3935 28.7326 -0.091
      vertex 14.3862 29.0238 -0.091
    endloop
  endfacet
  facet normal 0 0 1
    outer loop
      vertex 5.99527 28.7326 -0.091
      vertex 14.3935 28.7326 -0.091
      vertex 6.00261 29.0238 -0.091
    endloop
  endfacet
  facet normal 0 -0 1
    outer loop
      vertex 14.3935 3.06194 -0.091
      vertex 14.3935 28.7326 -0.091
      vertex 5.99527 28.7326 -0.091
    endloop
  endfacet
  facet normal 0 0 1
    outer loop
      vertex 14.3935 3.06194 -0.091
      vertex 5.99527 28.7326 -0.091
      vertex 5.99527 -0.699997 -0.091
    endloop
  endfacet
  facet normal 0.607642 0.794211 0
    outer loop
      vertex 39.7928 -0.0408478 -0.391
      vertex 40.4173 -0.518646 -0.091
      vertex 40.4173 -0.518646 -0.391
    endloop
  endfacet
  facet normal 0.607642 0.794211 -0
    outer loop
      vertex 39.7928 -0.0408478 -0.391
      vertex 39.7928 -0.0408478 -0.091
      vertex 40.4173 -0.518646 -0.091
    endloop
  endfacet
  facet normal 0.571422 0.820656 0
    outer loop
      vertex 39.1558 0.402695 -0.391
      vertex 39.7928 -0.0408478 -0.091
      vertex 39.7928 -0.0408478 -0.391
    endloop
  endfacet
  facet normal 0.571422 0.820656 -0
    outer loop
      vertex 39.1558 0.402695 -0.391
      vertex 39.1558 0.402695 -0.091
      vertex 39.7928 -0.0408478 -0.091
    endloop
  endfacet
  facet normal 0.533205 0.845986 0
    outer loop
      vertex 38.5064 0.811996 -0.391
      vertex 39.1558 0.402695 -0.091
      vertex 39.1558 0.402695 -0.391
    endloop
  endfacet
  facet normal 0.533205 0.845986 -0
    outer loop
      vertex 38.5064 0.811996 -0.391
      vertex 38.5064 0.811996 -0.091
      vertex 39.1558 0.402695 -0.091
    endloop
  endfacet
  facet normal 0.493056 0.869997 0
    outer loop
      vertex 37.8446 1.18706 -0.391
      vertex 38.5064 0.811996 -0.091
      vertex 38.5064 0.811996 -0.391
    endloop
  endfacet
  facet normal 0.493056 0.869997 -0
    outer loop
      vertex 37.8446 1.18706 -0.391
      vertex 37.8446 1.18706 -0.091
      vertex 38.5064 0.811996 -0.091
    endloop
  endfacet
  facet normal 0.451095 0.892476 0
    outer loop
      vertex 37.1703 1.52788 -0.391
      vertex 37.8446 1.18706 -0.091
      vertex 37.8446 1.18706 -0.391
    endloop
  endfacet
  facet normal 0.451095 0.892476 -0
    outer loop
      vertex 37.1703 1.52788 -0.391
      vertex 37.1703 1.52788 -0.091
      vertex 37.8446 1.18706 -0.091
    endloop
  endfacet
  facet normal 0.407698 0.913117 0
    outer loop
      vertex 36.4837 1.83444 -0.391
      vertex 37.1703 1.52788 -0.091
      vertex 37.1703 1.52788 -0.391
    endloop
  endfacet
  facet normal 0.407698 0.913117 -0
    outer loop
      vertex 36.4837 1.83444 -0.391
      vertex 36.4837 1.83444 -0.091
      vertex 37.1703 1.52788 -0.091
    endloop
  endfacet
  facet normal 0.362943 0.931811 0
    outer loop
      vertex 35.7845 2.10678 -0.391
      vertex 36.4837 1.83444 -0.091
      vertex 36.4837 1.83444 -0.391
    endloop
  endfacet
  facet normal 0.362943 0.931811 -0
    outer loop
      vertex 35.7845 2.10678 -0.391
      vertex 35.7845 2.10678 -0.091
      vertex 36.4837 1.83444 -0.091
    endloop
  endfacet
  facet normal 0.317311 0.948321 0
    outer loop
      vertex 35.073 2.34485 -0.391
      vertex 35.7845 2.10678 -0.091
      vertex 35.7845 2.10678 -0.391
    endloop
  endfacet
  facet normal 0.317311 0.948321 -0
    outer loop
      vertex 35.073 2.34485 -0.391
      vertex 35.073 2.34485 -0.091
      vertex 35.7845 2.10678 -0.091
    endloop
  endfacet
  facet normal 0.27101 0.962576 0
    outer loop
      vertex 34.349 2.54869 -0.391
      vertex 35.073 2.34485 -0.091
      vertex 35.073 2.34485 -0.391
    endloop
  endfacet
  facet normal 0.27101 0.962576 -0
    outer loop
      vertex 34.349 2.54869 -0.391
      vertex 34.349 2.54869 -0.091
      vertex 35.073 2.34485 -0.091
    endloop
  endfacet
  facet normal 0.873878 -0.486145 0
    outer loop
      vertex 46.3188 24.0652 -0.391
      vertex 34.349 2.54869 -0.091
      vertex 34.349 2.54869 -0.391
    endloop
  endfacet
  facet normal 0.873878 -0.486145 0
    outer loop
      vertex 46.3188 24.0652 -0.391
      vertex 46.3188 24.0652 -0.091
      vertex 34.349 2.54869 -0.091
    endloop
  endfacet
  facet normal 0.859948 -0.510382 0
    outer loop
      vertex 46.5673 24.4839 -0.391
      vertex 46.3188 24.0652 -0.091
      vertex 46.3188 24.0652 -0.391
    endloop
  endfacet
  facet normal 0.859948 -0.510382 0
    outer loop
      vertex 46.5673 24.4839 -0.391
      vertex 46.5673 24.4839 -0.091
      vertex 46.3188 24.0652 -0.091
    endloop
  endfacet
  facet normal 0.872804 -0.48807 0
    outer loop
      vertex 46.7959 24.8927 -0.391
      vertex 46.5673 24.4839 -0.091
      vertex 46.5673 24.4839 -0.391
    endloop
  endfacet
  facet normal 0.872804 -0.48807 0
    outer loop
      vertex 46.7959 24.8927 -0.391
      vertex 46.7959 24.8927 -0.091
      vertex 46.5673 24.4839 -0.091
    endloop
  endfacet
  facet normal 0.885918 -0.463841 0
    outer loop
      vertex 47.0047 25.2915 -0.391
      vertex 46.7959 24.8927 -0.091
      vertex 46.7959 24.8927 -0.391
    endloop
  endfacet
  facet normal 0.885918 -0.463841 0
    outer loop
      vertex 47.0047 25.2915 -0.391
      vertex 47.0047 25.2915 -0.091
      vertex 46.7959 24.8927 -0.091
    endloop
  endfacet
  facet normal 0.899594 -0.436727 0
    outer loop
      vertex 47.1935 25.6804 -0.391
      vertex 47.0047 25.2915 -0.091
      vertex 47.0047 25.2915 -0.391
    endloop
  endfacet
  facet normal 0.899594 -0.436727 0
    outer loop
      vertex 47.1935 25.6804 -0.391
      vertex 47.1935 25.6804 -0.091
      vertex 47.0047 25.2915 -0.091
    endloop
  endfacet
  facet normal 0.913274 -0.407346 0
    outer loop
      vertex 47.3625 26.0593 -0.391
      vertex 47.1935 25.6804 -0.091
      vertex 47.1935 25.6804 -0.391
    endloop
  endfacet
  facet normal 0.913274 -0.407346 0
    outer loop
      vertex 47.3625 26.0593 -0.391
      vertex 47.3625 26.0593 -0.091
      vertex 47.1935 25.6804 -0.091
    endloop
  endfacet
  facet normal 0.927171 -0.374638 0
    outer loop
      vertex 47.5116 26.4283 -0.391
      vertex 47.3625 26.0593 -0.091
      vertex 47.3625 26.0593 -0.391
    endloop
  endfacet
  facet normal 0.927171 -0.374638 0
    outer loop
      vertex 47.5116 26.4283 -0.391
      vertex 47.5116 26.4283 -0.091
      vertex 47.3625 26.0593 -0.091
    endloop
  endfacet
  facet normal 0.940951 -0.338543 0
    outer loop
      vertex 47.6408 26.7874 -0.391
      vertex 47.5116 26.4283 -0.091
      vertex 47.5116 26.4283 -0.391
    endloop
  endfacet
  facet normal 0.940951 -0.338543 0
    outer loop
      vertex 47.6408 26.7874 -0.391
      vertex 47.6408 26.7874 -0.091
      vertex 47.5116 26.4283 -0.091
    endloop
  endfacet
  facet normal 0.954217 -0.299116 0
    outer loop
      vertex 47.7502 27.1364 -0.391
      vertex 47.6408 26.7874 -0.091
      vertex 47.6408 26.7874 -0.391
    endloop
  endfacet
  facet normal 0.954217 -0.299116 0
    outer loop
      vertex 47.7502 27.1364 -0.391
      vertex 47.7502 27.1364 -0.091
      vertex 47.6408 26.7874 -0.091
    endloop
  endfacet
  facet normal 0.966978 -0.254858 0
    outer loop
      vertex 47.8396 27.4756 -0.391
      vertex 47.7502 27.1364 -0.091
      vertex 47.7502 27.1364 -0.391
    endloop
  endfacet
  facet normal 0.966978 -0.254858 0
    outer loop
      vertex 47.8396 27.4756 -0.391
      vertex 47.8396 27.4756 -0.091
      vertex 47.7502 27.1364 -0.091
    endloop
  endfacet
  facet normal 0.97836 -0.206909 0
    outer loop
      vertex 47.9092 27.8047 -0.391
      vertex 47.8396 27.4756 -0.091
      vertex 47.8396 27.4756 -0.391
    endloop
  endfacet
  facet normal 0.97836 -0.206909 0
    outer loop
      vertex 47.9092 27.8047 -0.391
      vertex 47.9092 27.8047 -0.091
      vertex 47.8396 27.4756 -0.091
    endloop
  endfacet
  facet normal 0.988102 -0.153801 0
    outer loop
      vertex 47.9589 28.124 -0.391
      vertex 47.9092 27.8047 -0.091
      vertex 47.9092 27.8047 -0.391
    endloop
  endfacet
  facet normal 0.988102 -0.153801 0
    outer loop
      vertex 47.9589 28.124 -0.391
      vertex 47.9589 28.124 -0.091
      vertex 47.9092 27.8047 -0.091
    endloop
  endfacet
  facet normal 0.995391 -0.0959025 0
    outer loop
      vertex 47.9887 28.4333 -0.391
      vertex 47.9589 28.124 -0.091
      vertex 47.9589 28.124 -0.391
    endloop
  endfacet
  facet normal 0.995391 -0.0959025 0
    outer loop
      vertex 47.9887 28.4333 -0.391
      vertex 47.9887 28.4333 -0.091
      vertex 47.9589 28.124 -0.091
    endloop
  endfacet
  facet normal 0.999442 -0.0333927 0
    outer loop
      vertex 47.9987 28.7326 -0.391
      vertex 47.9887 28.4333 -0.091
      vertex 47.9887 28.4333 -0.391
    endloop
  endfacet
  facet normal 0.999442 -0.0333927 0
    outer loop
      vertex 47.9987 28.7326 -0.391
      vertex 47.9987 28.7326 -0.091
      vertex 47.9887 28.4333 -0.091
    endloop
  endfacet
  facet normal 0.999677 0.0254039 0
    outer loop
      vertex 47.9913 29.0238 -0.391
      vertex 47.9987 28.7326 -0.091
      vertex 47.9987 28.7326 -0.391
    endloop
  endfacet
  facet normal 0.999677 0.0254039 -0
    outer loop
      vertex 47.9913 29.0238 -0.391
      vertex 47.9913 29.0238 -0.091
      vertex 47.9987 28.7326 -0.091
    endloop
  endfacet
  facet normal 0.997057 0.0766697 0
    outer loop
      vertex 47.9694 29.3086 -0.391
      vertex 47.9913 29.0238 -0.091
      vertex 47.9913 29.0238 -0.391
    endloop
  endfacet
  facet normal 0.997057 0.0766697 -0
    outer loop
      vertex 47.9694 29.3086 -0.391
      vertex 47.9694 29.3086 -0.091
      vertex 47.9913 29.0238 -0.091
    endloop
  endfacet
  facet normal 0.991429 0.130648 0
    outer loop
      vertex 47.9327 29.5871 -0.391
      vertex 47.9694 29.3086 -0.091
      vertex 47.9694 29.3086 -0.391
    endloop
  endfacet
  facet normal 0.991429 0.130648 -0
    outer loop
      vertex 47.9327 29.5871 -0.391
      vertex 47.9327 29.5871 -0.091
      vertex 47.9694 29.3086 -0.091
    endloop
  endfacet
  facet normal 0.9827 0.185204 0
    outer loop
      vertex 47.8814 29.8593 -0.391
      vertex 47.9327 29.5871 -0.091
      vertex 47.9327 29.5871 -0.391
    endloop
  endfacet
  facet normal 0.9827 0.185204 -0
    outer loop
      vertex 47.8814 29.8593 -0.391
      vertex 47.8814 29.8593 -0.091
      vertex 47.9327 29.5871 -0.091
    endloop
  endfacet
  facet normal 0.970528 0.240989 0
    outer loop
      vertex 47.8154 30.1251 -0.391
      vertex 47.8814 29.8593 -0.091
      vertex 47.8814 29.8593 -0.391
    endloop
  endfacet
  facet normal 0.970528 0.240989 -0
    outer loop
      vertex 47.8154 30.1251 -0.391
      vertex 47.8154 30.1251 -0.091
      vertex 47.8814 29.8593 -0.091
    endloop
  endfacet
  facet normal 0.954996 0.296619 0
    outer loop
      vertex 47.7348 30.3846 -0.391
      vertex 47.8154 30.1251 -0.091
      vertex 47.8154 30.1251 -0.391
    endloop
  endfacet
  facet normal 0.954996 0.296619 -0
    outer loop
      vertex 47.7348 30.3846 -0.391
      vertex 47.7348 30.3846 -0.091
      vertex 47.8154 30.1251 -0.091
    endloop
  endfacet
  facet normal 0.935857 0.352379 0
    outer loop
      vertex 47.6395 30.6377 -0.391
      vertex 47.7348 30.3846 -0.091
      vertex 47.7348 30.3846 -0.391
    endloop
  endfacet
  facet normal 0.935857 0.352379 -0
    outer loop
      vertex 47.6395 30.6377 -0.391
      vertex 47.6395 30.6377 -0.091
      vertex 47.7348 30.3846 -0.091
    endloop
  endfacet
  facet normal 0.913384 0.4071 0
    outer loop
      vertex 47.5295 30.8845 -0.391
      vertex 47.6395 30.6377 -0.091
      vertex 47.6395 30.6377 -0.391
    endloop
  endfacet
  facet normal 0.913384 0.4071 -0
    outer loop
      vertex 47.5295 30.8845 -0.391
      vertex 47.5295 30.8845 -0.091
      vertex 47.6395 30.6377 -0.091
    endloop
  endfacet
  facet normal 0.887682 0.460457 0
    outer loop
      vertex 47.4048 31.1249 -0.391
      vertex 47.5295 30.8845 -0.091
      vertex 47.5295 30.8845 -0.391
    endloop
  endfacet
  facet normal 0.887682 0.460457 -0
    outer loop
      vertex 47.4048 31.1249 -0.391
      vertex 47.4048 31.1249 -0.091
      vertex 47.5295 30.8845 -0.091
    endloop
  endfacet
  facet normal 0.859366 0.511361 0
    outer loop
      vertex 47.2655 31.359 -0.391
      vertex 47.4048 31.1249 -0.091
      vertex 47.4048 31.1249 -0.391
    endloop
  endfacet
  facet normal 0.859366 0.511361 -0
    outer loop
      vertex 47.2655 31.359 -0.391
      vertex 47.2655 31.359 -0.091
      vertex 47.4048 31.1249 -0.091
    endloop
  endfacet
  facet normal 0.828621 0.55981 0
    outer loop
      vertex 47.1116 31.5868 -0.391
      vertex 47.2655 31.359 -0.091
      vertex 47.2655 31.359 -0.391
    endloop
  endfacet
  facet normal 0.828621 0.55981 -0
    outer loop
      vertex 47.1116 31.5868 -0.391
      vertex 47.1116 31.5868 -0.091
      vertex 47.2655 31.359 -0.091
    endloop
  endfacet
  facet normal 0.795407 0.606076 0
    outer loop
      vertex 46.9429 31.8082 -0.391
      vertex 47.1116 31.5868 -0.091
      vertex 47.1116 31.5868 -0.391
    endloop
  endfacet
  facet normal 0.795407 0.606076 -0
    outer loop
      vertex 46.9429 31.8082 -0.391
      vertex 46.9429 31.8082 -0.091
      vertex 47.1116 31.5868 -0.091
    endloop
  endfacet
  facet normal 0.761301 0.648398 0
    outer loop
      vertex 46.7597 32.0233 -0.391
      vertex 46.9429 31.8082 -0.091
      vertex 46.9429 31.8082 -0.391
    endloop
  endfacet
  facet normal 0.761301 0.648398 -0
    outer loop
      vertex 46.7597 32.0233 -0.391
      vertex 46.7597 32.0233 -0.091
      vertex 46.9429 31.8082 -0.091
    endloop
  endfacet
  facet normal 0.724857 0.688899 0
    outer loop
      vertex 46.5662 32.2269 -0.391
      vertex 46.7597 32.0233 -0.091
      vertex 46.7597 32.0233 -0.391
    endloop
  endfacet
  facet normal 0.724857 0.688899 -0
    outer loop
      vertex 46.5662 32.2269 -0.391
      vertex 46.5662 32.2269 -0.091
      vertex 46.7597 32.0233 -0.091
    endloop
  endfacet
  facet normal 0.685205 0.72835 0
    outer loop
      vertex 46.367 32.4143 -0.391
      vertex 46.5662 32.2269 -0.091
      vertex 46.5662 32.2269 -0.391
    endloop
  endfacet
  facet normal 0.685205 0.72835 -0
    outer loop
      vertex 46.367 32.4143 -0.391
      vertex 46.367 32.4143 -0.091
      vertex 46.5662 32.2269 -0.091
    endloop
  endfacet
  facet normal 0.640958 0.767576 0
    outer loop
      vertex 46.1621 32.5854 -0.391
      vertex 46.367 32.4143 -0.091
      vertex 46.367 32.4143 -0.391
    endloop
  endfacet
  facet normal 0.640958 0.767576 -0
    outer loop
      vertex 46.1621 32.5854 -0.391
      vertex 46.1621 32.5854 -0.091
      vertex 46.367 32.4143 -0.091
    endloop
  endfacet
  facet normal 0.592076 0.805882 0
    outer loop
      vertex 45.9514 32.7402 -0.391
      vertex 46.1621 32.5854 -0.091
      vertex 46.1621 32.5854 -0.391
    endloop
  endfacet
  facet normal 0.592076 0.805882 -0
    outer loop
      vertex 45.9514 32.7402 -0.391
      vertex 45.9514 32.7402 -0.091
      vertex 46.1621 32.5854 -0.091
    endloop
  endfacet
  facet normal 0.538789 0.842441 0
    outer loop
      vertex 45.735 32.8786 -0.391
      vertex 45.9514 32.7402 -0.091
      vertex 45.9514 32.7402 -0.391
    endloop
  endfacet
  facet normal 0.538789 0.842441 -0
    outer loop
      vertex 45.735 32.8786 -0.391
      vertex 45.735 32.8786 -0.091
      vertex 45.9514 32.7402 -0.091
    endloop
  endfacet
  facet normal 0.482055 0.876141 0
    outer loop
      vertex 45.5129 33.0008 -0.391
      vertex 45.735 32.8786 -0.091
      vertex 45.735 32.8786 -0.391
    endloop
  endfacet
  facet normal 0.482055 0.876141 -0
    outer loop
      vertex 45.5129 33.0008 -0.391
      vertex 45.5129 33.0008 -0.091
      vertex 45.735 32.8786 -0.091
    endloop
  endfacet
  facet normal 0.421556 0.906803 0
    outer loop
      vertex 45.2851 33.1067 -0.391
      vertex 45.5129 33.0008 -0.091
      vertex 45.5129 33.0008 -0.391
    endloop
  endfacet
  facet normal 0.421556 0.906803 -0
    outer loop
      vertex 45.2851 33.1067 -0.391
      vertex 45.2851 33.1067 -0.091
      vertex 45.5129 33.0008 -0.091
    endloop
  endfacet
  facet normal 0.358256 0.933624 0
    outer loop
      vertex 45.0516 33.1963 -0.391
      vertex 45.2851 33.1067 -0.091
      vertex 45.2851 33.1067 -0.391
    endloop
  endfacet
  facet normal 0.358256 0.933624 -0
    outer loop
      vertex 45.0516 33.1963 -0.391
      vertex 45.0516 33.1963 -0.091
      vertex 45.2851 33.1067 -0.091
    endloop
  endfacet
  facet normal 0.293244 0.956038 0
    outer loop
      vertex 44.8123 33.2697 -0.391
      vertex 45.0516 33.1963 -0.091
      vertex 45.0516 33.1963 -0.391
    endloop
  endfacet
  facet normal 0.293244 0.956038 -0
    outer loop
      vertex 44.8123 33.2697 -0.391
      vertex 44.8123 33.2697 -0.091
      vertex 45.0516 33.1963 -0.091
    endloop
  endfacet
  facet normal 0.226601 0.973988 0
    outer loop
      vertex 44.5673 33.3267 -0.391
      vertex 44.8123 33.2697 -0.091
      vertex 44.8123 33.2697 -0.391
    endloop
  endfacet
  facet normal 0.226601 0.973988 -0
    outer loop
      vertex 44.5673 33.3267 -0.391
      vertex 44.5673 33.3267 -0.091
      vertex 44.8123 33.2697 -0.091
    endloop
  endfacet
  facet normal 0.160247 0.987077 0
    outer loop
      vertex 44.3166 33.3674 -0.391
      vertex 44.5673 33.3267 -0.091
      vertex 44.5673 33.3267 -0.391
    endloop
  endfacet
  facet normal 0.160247 0.987077 -0
    outer loop
      vertex 44.3166 33.3674 -0.391
      vertex 44.3166 33.3674 -0.091
      vertex 44.5673 33.3267 -0.091
    endloop
  endfacet
  facet normal 0.0947358 0.995502 0
    outer loop
      vertex 44.0602 33.3918 -0.391
      vertex 44.3166 33.3674 -0.091
      vertex 44.3166 33.3674 -0.391
    endloop
  endfacet
  facet normal 0.0947358 0.995502 -0
    outer loop
      vertex 44.0602 33.3918 -0.391
      vertex 44.0602 33.3918 -0.091
      vertex 44.3166 33.3674 -0.091
    endloop
  endfacet
  facet normal 0.0312586 0.999511 0
    outer loop
      vertex 43.798 33.4 -0.391
      vertex 44.0602 33.3918 -0.091
      vertex 44.0602 33.3918 -0.391
    endloop
  endfacet
  facet normal 0.0312586 0.999511 -0
    outer loop
      vertex 43.798 33.4 -0.391
      vertex 43.798 33.4 -0.091
      vertex 44.0602 33.3918 -0.091
    endloop
  endfacet
  facet normal -0.0312824 0.999511 0
    outer loop
      vertex 43.536 33.3918 -0.391
      vertex 43.798 33.4 -0.091
      vertex 43.798 33.4 -0.391
    endloop
  endfacet
  facet normal -0.0312824 0.999511 0
    outer loop
      vertex 43.536 33.3918 -0.391
      vertex 43.536 33.3918 -0.091
      vertex 43.798 33.4 -0.091
    endloop
  endfacet
  facet normal -0.0947358 0.995502 0
    outer loop
      vertex 43.2796 33.3674 -0.391
      vertex 43.536 33.3918 -0.091
      vertex 43.536 33.3918 -0.391
    endloop
  endfacet
  facet normal -0.0947358 0.995502 0
    outer loop
      vertex 43.2796 33.3674 -0.391
      vertex 43.2796 33.3674 -0.091
      vertex 43.536 33.3918 -0.091
    endloop
  endfacet
  facet normal -0.16031 0.987067 0
    outer loop
      vertex 43.029 33.3267 -0.391
      vertex 43.2796 33.3674 -0.091
      vertex 43.2796 33.3674 -0.391
    endloop
  endfacet
  facet normal -0.16031 0.987067 0
    outer loop
      vertex 43.029 33.3267 -0.391
      vertex 43.029 33.3267 -0.091
      vertex 43.2796 33.3674 -0.091
    endloop
  endfacet
  facet normal -0.226689 0.973967 0
    outer loop
      vertex 42.7841 33.2697 -0.391
      vertex 43.029 33.3267 -0.091
      vertex 43.029 33.3267 -0.391
    endloop
  endfacet
  facet normal -0.226689 0.973967 0
    outer loop
      vertex 42.7841 33.2697 -0.391
      vertex 42.7841 33.2697 -0.091
      vertex 43.029 33.3267 -0.091
    endloop
  endfacet
  facet normal -0.293356 0.956003 0
    outer loop
      vertex 42.5449 33.1963 -0.391
      vertex 42.7841 33.2697 -0.091
      vertex 42.7841 33.2697 -0.391
    endloop
  endfacet
  facet normal -0.293356 0.956003 0
    outer loop
      vertex 42.5449 33.1963 -0.391
      vertex 42.5449 33.1963 -0.091
      vertex 42.7841 33.2697 -0.091
    endloop
  endfacet
  facet normal -0.358256 0.933624 0
    outer loop
      vertex 42.3114 33.1067 -0.391
      vertex 42.5449 33.1963 -0.091
      vertex 42.5449 33.1963 -0.391
    endloop
  endfacet
  facet normal -0.358256 0.933624 0
    outer loop
      vertex 42.3114 33.1067 -0.391
      vertex 42.3114 33.1067 -0.091
      vertex 42.5449 33.1963 -0.091
    endloop
  endfacet
  facet normal -0.421556 0.906803 0
    outer loop
      vertex 42.0836 33.0008 -0.391
      vertex 42.3114 33.1067 -0.091
      vertex 42.3114 33.1067 -0.391
    endloop
  endfacet
  facet normal -0.421556 0.906803 0
    outer loop
      vertex 42.0836 33.0008 -0.391
      vertex 42.0836 33.0008 -0.091
      vertex 42.3114 33.1067 -0.091
    endloop
  endfacet
  facet normal -0.482222 0.876049 0
    outer loop
      vertex 41.8616 32.8786 -0.391
      vertex 42.0836 33.0008 -0.091
      vertex 42.0836 33.0008 -0.391
    endloop
  endfacet
  facet normal -0.482222 0.876049 0
    outer loop
      vertex 41.8616 32.8786 -0.391
      vertex 41.8616 32.8786 -0.091
      vertex 42.0836 33.0008 -0.091
    endloop
  endfacet
  facet normal -0.538789 0.842441 0
    outer loop
      vertex 41.6452 32.7402 -0.391
      vertex 41.8616 32.8786 -0.091
      vertex 41.8616 32.8786 -0.391
    endloop
  endfacet
  facet normal -0.538789 0.842441 0
    outer loop
      vertex 41.6452 32.7402 -0.391
      vertex 41.6452 32.7402 -0.091
      vertex 41.8616 32.8786 -0.091
    endloop
  endfacet
  facet normal -0.592259 0.805748 0
    outer loop
      vertex 41.4346 32.5854 -0.391
      vertex 41.6452 32.7402 -0.091
      vertex 41.6452 32.7402 -0.391
    endloop
  endfacet
  facet normal -0.592259 0.805748 0
    outer loop
      vertex 41.4346 32.5854 -0.391
      vertex 41.4346 32.5854 -0.091
      vertex 41.6452 32.7402 -0.091
    endloop
  endfacet
  facet normal -0.640958 0.767576 0
    outer loop
      vertex 41.2297 32.4143 -0.391
      vertex 41.4346 32.5854 -0.091
      vertex 41.4346 32.5854 -0.391
    endloop
  endfacet
  facet normal -0.640958 0.767576 0
    outer loop
      vertex 41.2297 32.4143 -0.391
      vertex 41.2297 32.4143 -0.091
      vertex 41.4346 32.5854 -0.091
    endloop
  endfacet
  facet normal -0.685205 0.72835 0
    outer loop
      vertex 41.0305 32.2269 -0.391
      vertex 41.2297 32.4143 -0.091
      vertex 41.2297 32.4143 -0.391
    endloop
  endfacet
  facet normal -0.685205 0.72835 0
    outer loop
      vertex 41.0305 32.2269 -0.391
      vertex 41.0305 32.2269 -0.091
      vertex 41.2297 32.4143 -0.091
    endloop
  endfacet
  facet normal -0.724857 0.688899 0
    outer loop
      vertex 40.837 32.0233 -0.391
      vertex 41.0305 32.2269 -0.091
      vertex 41.0305 32.2269 -0.391
    endloop
  endfacet
  facet normal -0.724857 0.688899 0
    outer loop
      vertex 40.837 32.0233 -0.391
      vertex 40.837 32.0233 -0.091
      vertex 41.0305 32.2269 -0.091
    endloop
  endfacet
  facet normal -0.752598 0.65848 0
    outer loop
      vertex 40.6488 31.8082 -0.391
      vertex 40.837 32.0233 -0.091
      vertex 40.837 32.0233 -0.391
    endloop
  endfacet
  facet normal -0.752598 0.65848 0
    outer loop
      vertex 40.6488 31.8082 -0.391
      vertex 40.6488 31.8082 -0.091
      vertex 40.837 32.0233 -0.091
    endloop
  endfacet
  facet normal -0.769758 0.638336 0
    outer loop
      vertex 40.4652 31.5868 -0.391
      vertex 40.6488 31.8082 -0.091
      vertex 40.6488 31.8082 -0.391
    endloop
  endfacet
  facet normal -0.769758 0.638336 0
    outer loop
      vertex 40.4652 31.5868 -0.391
      vertex 40.4652 31.5868 -0.091
      vertex 40.6488 31.8082 -0.091
    endloop
  endfacet
  facet normal -0.78663 0.617425 0
    outer loop
      vertex 40.2864 31.359 -0.391
      vertex 40.4652 31.5868 -0.091
      vertex 40.4652 31.5868 -0.391
    endloop
  endfacet
  facet normal -0.78663 0.617425 0
    outer loop
      vertex 40.2864 31.359 -0.391
      vertex 40.2864 31.359 -0.091
      vertex 40.4652 31.5868 -0.091
    endloop
  endfacet
  facet normal -0.80242 0.596759 0
    outer loop
      vertex 40.1123 31.1249 -0.391
      vertex 40.2864 31.359 -0.091
      vertex 40.2864 31.359 -0.391
    endloop
  endfacet
  facet normal -0.80242 0.596759 0
    outer loop
      vertex 40.1123 31.1249 -0.391
      vertex 40.1123 31.1249 -0.091
      vertex 40.2864 31.359 -0.091
    endloop
  endfacet
  facet normal -0.817439 0.576016 0
    outer loop
      vertex 39.9429 30.8845 -0.391
      vertex 40.1123 31.1249 -0.091
      vertex 40.1123 31.1249 -0.391
    endloop
  endfacet
  facet normal -0.817439 0.576016 0
    outer loop
      vertex 39.9429 30.8845 -0.391
      vertex 39.9429 30.8845 -0.091
      vertex 40.1123 31.1249 -0.091
    endloop
  endfacet
  facet normal -0.831791 0.555089 0
    outer loop
      vertex 39.7782 30.6377 -0.391
      vertex 39.9429 30.8845 -0.091
      vertex 39.9429 30.8845 -0.391
    endloop
  endfacet
  facet normal -0.831791 0.555089 0
    outer loop
      vertex 39.7782 30.6377 -0.391
      vertex 39.7782 30.6377 -0.091
      vertex 39.9429 30.8845 -0.091
    endloop
  endfacet
  facet normal -0.845417 0.534106 0
    outer loop
      vertex 39.6183 30.3846 -0.391
      vertex 39.7782 30.6377 -0.091
      vertex 39.7782 30.6377 -0.391
    endloop
  endfacet
  facet normal -0.845417 0.534106 0
    outer loop
      vertex 39.6183 30.3846 -0.391
      vertex 39.6183 30.3846 -0.091
      vertex 39.7782 30.6377 -0.091
    endloop
  endfacet
  facet normal -0.858222 0.513279 0
    outer loop
      vertex 39.4631 30.1251 -0.391
      vertex 39.6183 30.3846 -0.091
      vertex 39.6183 30.3846 -0.391
    endloop
  endfacet
  facet normal -0.858222 0.513279 0
    outer loop
      vertex 39.4631 30.1251 -0.391
      vertex 39.4631 30.1251 -0.091
      vertex 39.6183 30.3846 -0.091
    endloop
  endfacet
  facet normal -0.870191 0.492715 0
    outer loop
      vertex 39.3126 29.8593 -0.391
      vertex 39.4631 30.1251 -0.091
      vertex 39.4631 30.1251 -0.391
    endloop
  endfacet
  facet normal -0.870191 0.492715 0
    outer loop
      vertex 39.3126 29.8593 -0.391
      vertex 39.3126 29.8593 -0.091
      vertex 39.4631 30.1251 -0.091
    endloop
  endfacet
  facet normal -0.881509 0.472167 0
    outer loop
      vertex 39.1668 29.5871 -0.391
      vertex 39.3126 29.8593 -0.091
      vertex 39.3126 29.8593 -0.391
    endloop
  endfacet
  facet normal -0.881509 0.472167 0
    outer loop
      vertex 39.1668 29.5871 -0.391
      vertex 39.1668 29.5871 -0.091
      vertex 39.3126 29.8593 -0.091
    endloop
  endfacet
  facet normal -0.892044 0.451948 0
    outer loop
      vertex 39.0257 29.3086 -0.391
      vertex 39.1668 29.5871 -0.091
      vertex 39.1668 29.5871 -0.391
    endloop
  endfacet
  facet normal -0.892044 0.451948 0
    outer loop
      vertex 39.0257 29.3086 -0.391
      vertex 39.0257 29.3086 -0.091
      vertex 39.1668 29.5871 -0.091
    endloop
  endfacet
  facet normal -0.902022 0.431691 0
    outer loop
      vertex 38.8894 29.0238 -0.391
      vertex 39.0257 29.3086 -0.091
      vertex 39.0257 29.3086 -0.391
    endloop
  endfacet
  facet normal -0.902022 0.431691 0
    outer loop
      vertex 38.8894 29.0238 -0.391
      vertex 38.8894 29.0238 -0.091
      vertex 39.0257 29.3086 -0.091
    endloop
  endfacet
  facet normal -0.911147 0.412081 0
    outer loop
      vertex 38.7577 28.7326 -0.391
      vertex 38.8894 29.0238 -0.091
      vertex 38.8894 29.0238 -0.391
    endloop
  endfacet
  facet normal -0.911147 0.412081 0
    outer loop
      vertex 38.7577 28.7326 -0.391
      vertex 38.7577 28.7326 -0.091
      vertex 38.8894 29.0238 -0.091
    endloop
  endfacet
  facet normal -0.873872 0.486156 0
    outer loop
      vertex 24.4765 3.06194 -0.391
      vertex 38.7577 28.7326 -0.091
      vertex 38.7577 28.7326 -0.391
    endloop
  endfacet
  facet normal -0.873872 0.486156 0
    outer loop
      vertex 24.4765 3.06194 -0.391
      vertex 24.4765 3.06194 -0.091
      vertex 38.7577 28.7326 -0.091
    endloop
  endfacet
  facet normal 0 1 0
    outer loop
      vertex 14.3935 3.06194 -0.391
      vertex 24.4765 3.06194 -0.091
      vertex 24.4765 3.06194 -0.391
    endloop
  endfacet
  facet normal 0 1 0
    outer loop
      vertex 14.3935 3.06194 -0.391
      vertex 14.3935 3.06194 -0.091
      vertex 24.4765 3.06194 -0.091
    endloop
  endfacet
  facet normal 1 0 0
    outer loop
      vertex 14.3935 28.7326 -0.391
      vertex 14.3935 3.06194 -0.091
      vertex 14.3935 3.06194 -0.391
    endloop
  endfacet
  facet normal 1 0 -0
    outer loop
      vertex 14.3935 28.7326 -0.391
      vertex 14.3935 28.7326 -0.091
      vertex 14.3935 3.06194 -0.091
    endloop
  endfacet
  facet normal 0.999686 0.0250608 0
    outer loop
      vertex 14.3862 29.0238 -0.391
      vertex 14.3935 28.7326 -0.091
      vertex 14.3935 28.7326 -0.391
    endloop
  endfacet
  facet normal 0.999686 0.0250608 -0
    outer loop
      vertex 14.3862 29.0238 -0.391
      vertex 14.3862 29.0238 -0.091
      vertex 14.3935 28.7326 -0.091
    endloop
  endfacet
  facet normal 0.99703 0.0770177 0
    outer loop
      vertex 14.3642 29.3086 -0.391
      vertex 14.3862 29.0238 -0.091
      vertex 14.3862 29.0238 -0.391
    endloop
  endfacet
  facet normal 0.99703 0.0770177 -0
    outer loop
      vertex 14.3642 29.3086 -0.391
      vertex 14.3642 29.3086 -0.091
      vertex 14.3862 29.0238 -0.091
    endloop
  endfacet
  facet normal 0.991429 0.130648 0
    outer loop
      vertex 14.3275 29.5871 -0.391
      vertex 14.3642 29.3086 -0.091
      vertex 14.3642 29.3086 -0.391
    endloop
  endfacet
  facet normal 0.991429 0.130648 -0
    outer loop
      vertex 14.3275 29.5871 -0.391
      vertex 14.3275 29.5871 -0.091
      vertex 14.3642 29.3086 -0.091
    endloop
  endfacet
  facet normal 0.9827 0.185204 0
    outer loop
      vertex 14.2762 29.8593 -0.391
      vertex 14.3275 29.5871 -0.091
      vertex 14.3275 29.5871 -0.391
    endloop
  endfacet
  facet normal 0.9827 0.185204 -0
    outer loop
      vertex 14.2762 29.8593 -0.391
      vertex 14.2762 29.8593 -0.091
      vertex 14.3275 29.5871 -0.091
    endloop
  endfacet
  facet normal 0.970528 0.240989 0
    outer loop
      vertex 14.2102 30.1251 -0.391
      vertex 14.2762 29.8593 -0.091
      vertex 14.2762 29.8593 -0.391
    endloop
  endfacet
  facet normal 0.970528 0.240989 -0
    outer loop
      vertex 14.2102 30.1251 -0.391
      vertex 14.2102 30.1251 -0.091
      vertex 14.2762 29.8593 -0.091
    endloop
  endfacet
  facet normal 0.954892 0.296955 0
    outer loop
      vertex 14.1295 30.3846 -0.391
      vertex 14.2102 30.1251 -0.091
      vertex 14.2102 30.1251 -0.391
    endloop
  endfacet
  facet normal 0.954892 0.296955 -0
    outer loop
      vertex 14.1295 30.3846 -0.391
      vertex 14.1295 30.3846 -0.091
      vertex 14.2102 30.1251 -0.091
    endloop
  endfacet
  facet normal 0.935857 0.352379 0
    outer loop
      vertex 14.0342 30.6377 -0.391
      vertex 14.1295 30.3846 -0.091
      vertex 14.1295 30.3846 -0.391
    endloop
  endfacet
  facet normal 0.935857 0.352379 -0
    outer loop
      vertex 14.0342 30.6377 -0.391
      vertex 14.0342 30.6377 -0.091
      vertex 14.1295 30.3846 -0.091
    endloop
  endfacet
  facet normal 0.913521 0.406791 0
    outer loop
      vertex 13.9243 30.8845 -0.391
      vertex 14.0342 30.6377 -0.091
      vertex 14.0342 30.6377 -0.391
    endloop
  endfacet
  facet normal 0.913521 0.406791 -0
    outer loop
      vertex 13.9243 30.8845 -0.391
      vertex 13.9243 30.8845 -0.091
      vertex 14.0342 30.6377 -0.091
    endloop
  endfacet
  facet normal 0.887833 0.460166 0
    outer loop
      vertex 13.7997 31.1249 -0.391
      vertex 13.9243 30.8845 -0.091
      vertex 13.9243 30.8845 -0.391
    endloop
  endfacet
  facet normal 0.887833 0.460166 -0
    outer loop
      vertex 13.7997 31.1249 -0.391
      vertex 13.7997 31.1249 -0.091
      vertex 13.9243 30.8845 -0.091
    endloop
  endfacet
  facet normal 0.859205 0.511632 0
    outer loop
      vertex 13.6603 31.359 -0.391
      vertex 13.7997 31.1249 -0.091
      vertex 13.7997 31.1249 -0.391
    endloop
  endfacet
  facet normal 0.859205 0.511632 -0
    outer loop
      vertex 13.6603 31.359 -0.391
      vertex 13.6603 31.359 -0.091
      vertex 13.7997 31.1249 -0.091
    endloop
  endfacet
  facet normal 0.828621 0.55981 0
    outer loop
      vertex 13.5064 31.5868 -0.391
      vertex 13.6603 31.359 -0.091
      vertex 13.6603 31.359 -0.391
    endloop
  endfacet
  facet normal 0.828621 0.55981 -0
    outer loop
      vertex 13.5064 31.5868 -0.391
      vertex 13.5064 31.5868 -0.091
      vertex 13.6603 31.359 -0.091
    endloop
  endfacet
  facet normal 0.79558 0.605848 0
    outer loop
      vertex 13.3378 31.8082 -0.391
      vertex 13.5064 31.5868 -0.091
      vertex 13.5064 31.5868 -0.391
    endloop
  endfacet
  facet normal 0.79558 0.605848 -0
    outer loop
      vertex 13.3378 31.8082 -0.391
      vertex 13.3378 31.8082 -0.091
      vertex 13.5064 31.5868 -0.091
    endloop
  endfacet
  facet normal 0.761127 0.648603 0
    outer loop
      vertex 13.1545 32.0233 -0.391
      vertex 13.3378 31.8082 -0.091
      vertex 13.3378 31.8082 -0.391
    endloop
  endfacet
  facet normal 0.761127 0.648603 -0
    outer loop
      vertex 13.1545 32.0233 -0.391
      vertex 13.1545 32.0233 -0.091
      vertex 13.3378 31.8082 -0.091
    endloop
  endfacet
  facet normal 0.725035 0.688712 0
    outer loop
      vertex 12.9611 32.2269 -0.391
      vertex 13.1545 32.0233 -0.091
      vertex 13.1545 32.0233 -0.391
    endloop
  endfacet
  facet normal 0.725035 0.688712 -0
    outer loop
      vertex 12.9611 32.2269 -0.391
      vertex 12.9611 32.2269 -0.091
      vertex 13.1545 32.0233 -0.091
    endloop
  endfacet
  facet normal 0.685388 0.728179 0
    outer loop
      vertex 12.762 32.4143 -0.391
      vertex 12.9611 32.2269 -0.091
      vertex 12.9611 32.2269 -0.391
    endloop
  endfacet
  facet normal 0.685388 0.728179 -0
    outer loop
      vertex 12.762 32.4143 -0.391
      vertex 12.762 32.4143 -0.091
      vertex 12.9611 32.2269 -0.091
    endloop
  endfacet
  facet normal 0.641142 0.767422 0
    outer loop
      vertex 12.5572 32.5854 -0.391
      vertex 12.762 32.4143 -0.091
      vertex 12.762 32.4143 -0.391
    endloop
  endfacet
  facet normal 0.641142 0.767422 -0
    outer loop
      vertex 12.5572 32.5854 -0.391
      vertex 12.5572 32.5854 -0.091
      vertex 12.762 32.4143 -0.091
    endloop
  endfacet
  facet normal 0.592259 0.805748 0
    outer loop
      vertex 12.3466 32.7402 -0.391
      vertex 12.5572 32.5854 -0.091
      vertex 12.5572 32.5854 -0.391
    endloop
  endfacet
  facet normal 0.592259 0.805748 -0
    outer loop
      vertex 12.3466 32.7402 -0.391
      vertex 12.3466 32.7402 -0.091
      vertex 12.5572 32.5854 -0.091
    endloop
  endfacet
  facet normal 0.539142 0.842215 0
    outer loop
      vertex 12.1304 32.8786 -0.391
      vertex 12.3466 32.7402 -0.091
      vertex 12.3466 32.7402 -0.391
    endloop
  endfacet
  facet normal 0.539142 0.842215 -0
    outer loop
      vertex 12.1304 32.8786 -0.391
      vertex 12.1304 32.8786 -0.091
      vertex 12.3466 32.7402 -0.091
    endloop
  endfacet
  facet normal 0.482222 0.876049 0
    outer loop
      vertex 11.9084 33.0008 -0.391
      vertex 12.1304 32.8786 -0.091
      vertex 12.1304 32.8786 -0.391
    endloop
  endfacet
  facet normal 0.482222 0.876049 -0
    outer loop
      vertex 11.9084 33.0008 -0.391
      vertex 11.9084 33.0008 -0.091
      vertex 12.1304 32.8786 -0.091
    endloop
  endfacet
  facet normal 0.42186 0.906661 0
    outer loop
      vertex 11.6808 33.1067 -0.391
      vertex 11.9084 33.0008 -0.091
      vertex 11.9084 33.0008 -0.391
    endloop
  endfacet
  facet normal 0.42186 0.906661 -0
    outer loop
      vertex 11.6808 33.1067 -0.391
      vertex 11.6808 33.1067 -0.091
      vertex 11.9084 33.0008 -0.091
    endloop
  endfacet
  facet normal 0.358389 0.933572 0
    outer loop
      vertex 11.4474 33.1963 -0.391
      vertex 11.6808 33.1067 -0.091
      vertex 11.6808 33.1067 -0.391
    endloop
  endfacet
  facet normal 0.358389 0.933572 -0
    outer loop
      vertex 11.4474 33.1963 -0.391
      vertex 11.4474 33.1963 -0.091
      vertex 11.6808 33.1067 -0.091
    endloop
  endfacet
  facet normal 0.293468 0.955969 0
    outer loop
      vertex 11.2083 33.2697 -0.391
      vertex 11.4474 33.1963 -0.091
      vertex 11.4474 33.1963 -0.391
    endloop
  endfacet
  facet normal 0.293468 0.955969 -0
    outer loop
      vertex 11.2083 33.2697 -0.391
      vertex 11.2083 33.2697 -0.091
      vertex 11.4474 33.1963 -0.091
    endloop
  endfacet
  facet normal 0.226777 0.973947 0
    outer loop
      vertex 10.9635 33.3267 -0.391
      vertex 11.2083 33.2697 -0.091
      vertex 11.2083 33.2697 -0.391
    endloop
  endfacet
  facet normal 0.226777 0.973947 -0
    outer loop
      vertex 10.9635 33.3267 -0.391
      vertex 10.9635 33.3267 -0.091
      vertex 11.2083 33.2697 -0.091
    endloop
  endfacet
  facet normal 0.16031 0.987067 0
    outer loop
      vertex 10.7129 33.3674 -0.391
      vertex 10.9635 33.3267 -0.091
      vertex 10.9635 33.3267 -0.391
    endloop
  endfacet
  facet normal 0.16031 0.987067 -0
    outer loop
      vertex 10.7129 33.3674 -0.391
      vertex 10.7129 33.3674 -0.091
      vertex 10.9635 33.3267 -0.091
    endloop
  endfacet
  facet normal 0.0947724 0.995499 0
    outer loop
      vertex 10.4566 33.3918 -0.391
      vertex 10.7129 33.3674 -0.091
      vertex 10.7129 33.3674 -0.391
    endloop
  endfacet
  facet normal 0.0947724 0.995499 -0
    outer loop
      vertex 10.4566 33.3918 -0.391
      vertex 10.4566 33.3918 -0.091
      vertex 10.7129 33.3674 -0.091
    endloop
  endfacet
  facet normal 0.0312943 0.99951 0
    outer loop
      vertex 10.1947 33.4 -0.391
      vertex 10.4566 33.3918 -0.091
      vertex 10.4566 33.3918 -0.391
    endloop
  endfacet
  facet normal 0.0312943 0.99951 -0
    outer loop
      vertex 10.1947 33.4 -0.391
      vertex 10.1947 33.4 -0.091
      vertex 10.4566 33.3918 -0.091
    endloop
  endfacet
  facet normal -0.0312729 0.999511 0
    outer loop
      vertex 9.93262 33.3918 -0.391
      vertex 10.1947 33.4 -0.091
      vertex 10.1947 33.4 -0.391
    endloop
  endfacet
  facet normal -0.0312729 0.999511 0
    outer loop
      vertex 9.93262 33.3918 -0.391
      vertex 9.93262 33.3918 -0.091
      vertex 10.1947 33.4 -0.091
    endloop
  endfacet
  facet normal -0.0947578 0.9955 0
    outer loop
      vertex 9.67628 33.3674 -0.391
      vertex 9.93262 33.3918 -0.091
      vertex 9.93262 33.3918 -0.391
    endloop
  endfacet
  facet normal -0.0947578 0.9955 0
    outer loop
      vertex 9.67628 33.3674 -0.391
      vertex 9.67628 33.3674 -0.091
      vertex 9.93262 33.3918 -0.091
    endloop
  endfacet
  facet normal -0.160285 0.987071 0
    outer loop
      vertex 9.42564 33.3267 -0.391
      vertex 9.67628 33.3674 -0.091
      vertex 9.67628 33.3674 -0.391
    endloop
  endfacet
  facet normal -0.160285 0.987071 0
    outer loop
      vertex 9.42564 33.3267 -0.391
      vertex 9.42564 33.3267 -0.091
      vertex 9.67628 33.3674 -0.091
    endloop
  endfacet
  facet normal -0.22668 0.973969 0
    outer loop
      vertex 9.18073 33.2697 -0.391
      vertex 9.42564 33.3267 -0.091
      vertex 9.42564 33.3267 -0.391
    endloop
  endfacet
  facet normal -0.22668 0.973969 0
    outer loop
      vertex 9.18073 33.2697 -0.391
      vertex 9.18073 33.2697 -0.091
      vertex 9.42564 33.3267 -0.091
    endloop
  endfacet
  facet normal -0.293356 0.956003 0
    outer loop
      vertex 8.94153 33.1963 -0.391
      vertex 9.18073 33.2697 -0.091
      vertex 9.18073 33.2697 -0.391
    endloop
  endfacet
  facet normal -0.293356 0.956003 0
    outer loop
      vertex 8.94153 33.1963 -0.391
      vertex 8.94153 33.1963 -0.091
      vertex 9.18073 33.2697 -0.091
    endloop
  endfacet
  facet normal -0.358269 0.933618 0
    outer loop
      vertex 8.70804 33.1067 -0.391
      vertex 8.94153 33.1963 -0.091
      vertex 8.94153 33.1963 -0.391
    endloop
  endfacet
  facet normal -0.358269 0.933618 0
    outer loop
      vertex 8.70804 33.1067 -0.391
      vertex 8.70804 33.1067 -0.091
      vertex 8.94153 33.1963 -0.091
    endloop
  endfacet
  facet normal -0.421601 0.906781 0
    outer loop
      vertex 8.48027 33.0008 -0.391
      vertex 8.70804 33.1067 -0.091
      vertex 8.70804 33.1067 -0.391
    endloop
  endfacet
  facet normal -0.421601 0.906781 0
    outer loop
      vertex 8.48027 33.0008 -0.391
      vertex 8.48027 33.0008 -0.091
      vertex 8.70804 33.1067 -0.091
    endloop
  endfacet
  facet normal -0.482138 0.876095 0
    outer loop
      vertex 8.25822 32.8786 -0.391
      vertex 8.48027 33.0008 -0.091
      vertex 8.48027 33.0008 -0.391
    endloop
  endfacet
  facet normal -0.482138 0.876095 0
    outer loop
      vertex 8.25822 32.8786 -0.391
      vertex 8.25822 32.8786 -0.091
      vertex 8.48027 33.0008 -0.091
    endloop
  endfacet
  facet normal -0.538877 0.842385 0
    outer loop
      vertex 8.04187 32.7402 -0.391
      vertex 8.25822 32.8786 -0.091
      vertex 8.25822 32.8786 -0.391
    endloop
  endfacet
  facet normal -0.538877 0.842385 0
    outer loop
      vertex 8.04187 32.7402 -0.391
      vertex 8.04187 32.7402 -0.091
      vertex 8.25822 32.8786 -0.091
    endloop
  endfacet
  facet normal -0.592222 0.805775 0
    outer loop
      vertex 7.83125 32.5854 -0.391
      vertex 8.04187 32.7402 -0.091
      vertex 8.04187 32.7402 -0.391
    endloop
  endfacet
  facet normal -0.592222 0.805775 0
    outer loop
      vertex 7.83125 32.5854 -0.391
      vertex 7.83125 32.5854 -0.091
      vertex 8.04187 32.7402 -0.091
    endloop
  endfacet
  facet normal -0.640939 0.767591 0
    outer loop
      vertex 7.62634 32.4143 -0.391
      vertex 7.83125 32.5854 -0.091
      vertex 7.83125 32.5854 -0.391
    endloop
  endfacet
  facet normal -0.640939 0.767591 0
    outer loop
      vertex 7.62634 32.4143 -0.391
      vertex 7.62634 32.4143 -0.091
      vertex 7.83125 32.5854 -0.091
    endloop
  endfacet
  facet normal -0.685223 0.728333 0
    outer loop
      vertex 7.42715 32.2269 -0.391
      vertex 7.62634 32.4143 -0.091
      vertex 7.62634 32.4143 -0.391
    endloop
  endfacet
  facet normal -0.685223 0.728333 0
    outer loop
      vertex 7.42715 32.2269 -0.391
      vertex 7.42715 32.2269 -0.091
      vertex 7.62634 32.4143 -0.091
    endloop
  endfacet
  facet normal -0.724893 0.688862 0
    outer loop
      vertex 7.23367 32.0233 -0.391
      vertex 7.42715 32.2269 -0.091
      vertex 7.42715 32.2269 -0.391
    endloop
  endfacet
  facet normal -0.724893 0.688862 0
    outer loop
      vertex 7.23367 32.0233 -0.391
      vertex 7.23367 32.0233 -0.091
      vertex 7.42715 32.2269 -0.091
    endloop
  endfacet
  facet normal -0.761319 0.648378 0
    outer loop
      vertex 7.05048 31.8082 -0.391
      vertex 7.23367 32.0233 -0.091
      vertex 7.23367 32.0233 -0.391
    endloop
  endfacet
  facet normal -0.761319 0.648378 0
    outer loop
      vertex 7.05048 31.8082 -0.391
      vertex 7.05048 31.8082 -0.091
      vertex 7.23367 32.0233 -0.091
    endloop
  endfacet
  facet normal -0.795684 0.605712 0
    outer loop
      vertex 6.88194 31.5868 -0.391
      vertex 7.05048 31.8082 -0.091
      vertex 7.05048 31.8082 -0.391
    endloop
  endfacet
  facet normal -0.795684 0.605712 0
    outer loop
      vertex 6.88194 31.5868 -0.391
      vertex 6.88194 31.5868 -0.091
      vertex 7.05048 31.8082 -0.091
    endloop
  endfacet
  facet normal -0.828655 0.55976 0
    outer loop
      vertex 6.72806 31.359 -0.391
      vertex 6.88194 31.5868 -0.091
      vertex 6.88194 31.5868 -0.391
    endloop
  endfacet
  facet normal -0.828655 0.55976 0
    outer loop
      vertex 6.72806 31.359 -0.391
      vertex 6.72806 31.359 -0.091
      vertex 6.88194 31.5868 -0.091
    endloop
  endfacet
  facet normal -0.859495 0.511144 0
    outer loop
      vertex 6.58884 31.1249 -0.391
      vertex 6.72806 31.359 -0.091
      vertex 6.72806 31.359 -0.391
    endloop
  endfacet
  facet normal -0.859495 0.511144 0
    outer loop
      vertex 6.58884 31.1249 -0.391
      vertex 6.58884 31.1249 -0.091
      vertex 6.72806 31.359 -0.091
    endloop
  endfacet
  facet normal -0.887848 0.460137 0
    outer loop
      vertex 6.46425 30.8845 -0.391
      vertex 6.58884 31.1249 -0.091
      vertex 6.58884 31.1249 -0.391
    endloop
  endfacet
  facet normal -0.887848 0.460137 0
    outer loop
      vertex 6.46425 30.8845 -0.391
      vertex 6.46425 30.8845 -0.091
      vertex 6.58884 31.1249 -0.091
    endloop
  endfacet
  facet normal -0.913521 0.406791 0
    outer loop
      vertex 6.35435 30.6377 -0.391
      vertex 6.46425 30.8845 -0.091
      vertex 6.46425 30.8845 -0.391
    endloop
  endfacet
  facet normal -0.913521 0.406791 0
    outer loop
      vertex 6.35435 30.6377 -0.391
      vertex 6.35435 30.6377 -0.091
      vertex 6.46425 30.8845 -0.091
    endloop
  endfacet
  facet normal -0.935894 0.352282 0
    outer loop
      vertex 6.25908 30.3846 -0.391
      vertex 6.35435 30.6377 -0.091
      vertex 6.35435 30.6377 -0.391
    endloop
  endfacet
  facet normal -0.935894 0.352282 0
    outer loop
      vertex 6.25908 30.3846 -0.391
      vertex 6.25908 30.3846 -0.091
      vertex 6.35435 30.6377 -0.091
    endloop
  endfacet
  facet normal -0.954985 0.296653 0
    outer loop
      vertex 6.17847 30.1251 -0.391
      vertex 6.25908 30.3846 -0.091
      vertex 6.25908 30.3846 -0.391
    endloop
  endfacet
  facet normal -0.954985 0.296653 0
    outer loop
      vertex 6.17847 30.1251 -0.391
      vertex 6.17847 30.1251 -0.091
      vertex 6.25908 30.3846 -0.091
    endloop
  endfacet
  facet normal -0.970571 0.240817 0
    outer loop
      vertex 6.11252 29.8593 -0.391
      vertex 6.17847 30.1251 -0.091
      vertex 6.17847 30.1251 -0.391
    endloop
  endfacet
  facet normal -0.970571 0.240817 0
    outer loop
      vertex 6.11252 29.8593 -0.391
      vertex 6.11252 29.8593 -0.091
      vertex 6.17847 30.1251 -0.091
    endloop
  endfacet
  facet normal -0.982707 0.185169 0
    outer loop
      vertex 6.06123 29.5871 -0.391
      vertex 6.11252 29.8593 -0.091
      vertex 6.11252 29.8593 -0.391
    endloop
  endfacet
  facet normal -0.982707 0.185169 0
    outer loop
      vertex 6.06123 29.5871 -0.391
      vertex 6.06123 29.5871 -0.091
      vertex 6.11252 29.8593 -0.091
    endloop
  endfacet
  facet normal -0.991461 0.130403 0
    outer loop
      vertex 6.0246 29.3086 -0.391
      vertex 6.06123 29.5871 -0.091
      vertex 6.06123 29.5871 -0.391
    endloop
  endfacet
  facet normal -0.991461 0.130403 0
    outer loop
      vertex 6.0246 29.3086 -0.391
      vertex 6.0246 29.3086 -0.091
      vertex 6.06123 29.5871 -0.091
    endloop
  endfacet
  facet normal -0.997032 0.0769829 0
    outer loop
      vertex 6.00261 29.0238 -0.391
      vertex 6.0246 29.3086 -0.091
      vertex 6.0246 29.3086 -0.391
    endloop
  endfacet
  facet normal -0.997032 0.0769829 0
    outer loop
      vertex 6.00261 29.0238 -0.391
      vertex 6.00261 29.0238 -0.091
      vertex 6.0246 29.3086 -0.091
    endloop
  endfacet
  facet normal -0.999682 0.025198 0
    outer loop
      vertex 5.99527 28.7326 -0.391
      vertex 6.00261 29.0238 -0.091
      vertex 6.00261 29.0238 -0.391
    endloop
  endfacet
  facet normal -0.999682 0.025198 0
    outer loop
      vertex 5.99527 28.7326 -0.391
      vertex 5.99527 28.7326 -0.091
      vertex 6.00261 29.0238 -0.091
    endloop
  endfacet
  facet normal -1 0 0
    outer loop
      vertex 5.99527 -0.699997 -0.391
      vertex 5.99527 28.7326 -0.091
      vertex 5.99527 28.7326 -0.391
    endloop
  endfacet
  facet normal -1 0 0
    outer loop
      vertex 5.99527 -0.699997 -0.391
      vertex 5.99527 -0.699997 -0.091
      vertex 5.99527 28.7326 -0.091
    endloop
  endfacet
  facet normal 0 -1 0
    outer loop
      vertex 40.6341 -0.699997 -0.391
      vertex 5.99527 -0.699997 -0.091
      vertex 5.99527 -0.699997 -0.391
    endloop
  endfacet
  facet normal 0 -1 0
    outer loop
      vertex 40.6341 -0.699997 -0.391
      vertex 40.6341 -0.699997 -0.091
      vertex 5.99527 -0.699997 -0.091
    endloop
  endfacet
  facet normal 0.641612 0.767029 0
    outer loop
      vertex 40.4173 -0.518646 -0.391
      vertex 40.6341 -0.699997 -0.091
      vertex 40.6341 -0.699997 -0.391
    endloop
  endfacet
  facet normal 0.641612 0.767029 -0
    outer loop
      vertex 40.4173 -0.518646 -0.391
      vertex 40.4173 -0.518646 -0.091
      vertex 40.6341 -0.699997 -0.091
    endloop
  endfacet
endsolid OpenSCAD_Model
