solid OpenSCAD_Model
  facet normal 0 -0 -1
    outer loop
      vertex 43.281 33.1783 0.091
      vertex 43.5373 33.2027 0.091
      vertex 41.647 32.551 0.091
    endloop
  endfacet
  facet normal 0 0 -1
    outer loop
      vertex 42.0853 32.8117 0.091
      vertex 42.7856 33.0805 0.091
      vertex 43.0305 33.1376 0.091
    endloop
  endfacet
  facet normal 0 -0 -1
    outer loop
      vertex 42.0853 32.8117 0.091
      vertex 43.0305 33.1376 0.091
      vertex 41.8633 32.6895 0.091
    endloop
  endfacet
  facet normal 0 0 -1
    outer loop
      vertex 42.0853 32.8117 0.091
      vertex 42.313 32.9176 0.091
      vertex 42.7856 33.0805 0.091
    endloop
  endfacet
  facet normal 0 0 -1
    outer loop
      vertex 42.7856 33.0805 0.091
      vertex 42.313 32.9176 0.091
      vertex 42.5465 33.0072 0.091
    endloop
  endfacet
  facet normal 0 0 -1
    outer loop
      vertex 41.8633 32.6895 0.091
      vertex 43.0305 33.1376 0.091
      vertex 43.281 33.1783 0.091
    endloop
  endfacet
  facet normal 0 0 -1
    outer loop
      vertex 41.647 32.551 0.091
      vertex 41.8633 32.6895 0.091
      vertex 43.281 33.1783 0.091
    endloop
  endfacet
  facet normal 0 0 -1
    outer loop
      vertex 46.1624 32.3963 0.091
      vertex 43.7993 33.2109 0.091
      vertex 44.0613 33.2027 0.091
    endloop
  endfacet
  facet normal 0 0 -1
    outer loop
      vertex 45.9518 32.551 0.091
      vertex 44.0613 33.2027 0.091
      vertex 44.3177 33.1783 0.091
    endloop
  endfacet
  facet normal -0 -0 -1
    outer loop
      vertex 45.7355 32.6895 0.091
      vertex 45.9518 32.551 0.091
      vertex 44.3177 33.1783 0.091
    endloop
  endfacet
  facet normal -0 -0 -1
    outer loop
      vertex 45.5135 32.8117 0.091
      vertex 45.7355 32.6895 0.091
      vertex 44.5683 33.1376 0.091
    endloop
  endfacet
  facet normal -0 -0 -1
    outer loop
      vertex 45.2858 32.9176 0.091
      vertex 45.5135 32.8117 0.091
      vertex 44.8132 33.0805 0.091
    endloop
  endfacet
  facet normal -0 -0 -1
    outer loop
      vertex 45.0523 33.0072 0.091
      vertex 45.2858 32.9176 0.091
      vertex 44.8132 33.0805 0.091
    endloop
  endfacet
  facet normal -0 -0 -1
    outer loop
      vertex 44.8132 33.0805 0.091
      vertex 45.5135 32.8117 0.091
      vertex 44.5683 33.1376 0.091
    endloop
  endfacet
  facet normal -0 -0 -1
    outer loop
      vertex 44.5683 33.1376 0.091
      vertex 45.7355 32.6895 0.091
      vertex 44.3177 33.1783 0.091
    endloop
  endfacet
  facet normal -0 -0 -1
    outer loop
      vertex 45.9518 32.551 0.091
      vertex 46.1624 32.3963 0.091
      vertex 44.0613 33.2027 0.091
    endloop
  endfacet
  facet normal 0 0 -1
    outer loop
      vertex 43.5373 33.2027 0.091
      vertex 41.4364 32.3963 0.091
      vertex 41.647 32.551 0.091
    endloop
  endfacet
  facet normal 0 -0 -1
    outer loop
      vertex 43.5373 33.2027 0.091
      vertex 43.7993 33.2109 0.091
      vertex 41.4364 32.3963 0.091
    endloop
  endfacet
  facet normal 0 0 -1
    outer loop
      vertex 41.4364 32.3963 0.091
      vertex 43.7993 33.2109 0.091
      vertex 46.1624 32.3963 0.091
    endloop
  endfacet
  facet normal 0 0 -1
    outer loop
      vertex 46.3672 32.2252 0.091
      vertex 41.4364 32.3963 0.091
      vertex 46.1624 32.3963 0.091
    endloop
  endfacet
  facet normal 0 0 -1
    outer loop
      vertex 46.3672 32.2252 0.091
      vertex 41.2315 32.2252 0.091
      vertex 41.4364 32.3963 0.091
    endloop
  endfacet
  facet normal -0 -0 -1
    outer loop
      vertex 46.3672 32.2252 0.091
      vertex 46.5663 32.0378 0.091
      vertex 41.2315 32.2252 0.091
    endloop
  endfacet
  facet normal 0 -0 -1
    outer loop
      vertex 41.2315 32.2252 0.091
      vertex 46.5663 32.0378 0.091
      vertex 41.0323 32.0378 0.091
    endloop
  endfacet
  facet normal 0 0 -1
    outer loop
      vertex 41.0323 32.0378 0.091
      vertex 46.5663 32.0378 0.091
      vertex 46.7597 31.8342 0.091
    endloop
  endfacet
  facet normal 0 0 -1
    outer loop
      vertex 40.8389 31.8342 0.091
      vertex 41.0323 32.0378 0.091
      vertex 46.7597 31.8342 0.091
    endloop
  endfacet
  facet normal 0 0 -1
    outer loop
      vertex 40.6557 31.6192 0.091
      vertex 40.8389 31.8342 0.091
      vertex 46.7597 31.8342 0.091
    endloop
  endfacet
  facet normal 0 0 -1
    outer loop
      vertex 46.9429 31.6192 0.091
      vertex 40.6557 31.6192 0.091
      vertex 46.7597 31.8342 0.091
    endloop
  endfacet
  facet normal -0 0 -1
    outer loop
      vertex 46.9429 31.6192 0.091
      vertex 40.4871 31.3979 0.091
      vertex 40.6557 31.6192 0.091
    endloop
  endfacet
  facet normal 0 -0 -1
    outer loop
      vertex 46.9429 31.6192 0.091
      vertex 47.1116 31.3979 0.091
      vertex 40.4871 31.3979 0.091
    endloop
  endfacet
  facet normal 0 -0 -1
    outer loop
      vertex 40.4871 31.3979 0.091
      vertex 47.1116 31.3979 0.091
      vertex 40.3333 31.1702 0.091
    endloop
  endfacet
  facet normal 0 0 -1
    outer loop
      vertex 40.3333 31.1702 0.091
      vertex 47.1116 31.3979 0.091
      vertex 47.2655 31.1702 0.091
    endloop
  endfacet
  facet normal 0 0 -1
    outer loop
      vertex 40.194 30.9361 0.091
      vertex 40.3333 31.1702 0.091
      vertex 47.2655 31.1702 0.091
    endloop
  endfacet
  facet normal 0 0 -1
    outer loop
      vertex 47.4048 30.9361 0.091
      vertex 40.194 30.9361 0.091
      vertex 47.2655 31.1702 0.091
    endloop
  endfacet
  facet normal -0 0 -1
    outer loop
      vertex 47.4048 30.9361 0.091
      vertex 40.0695 30.6957 0.091
      vertex 40.194 30.9361 0.091
    endloop
  endfacet
  facet normal 0 -0 -1
    outer loop
      vertex 47.4048 30.9361 0.091
      vertex 47.5295 30.6957 0.091
      vertex 40.0695 30.6957 0.091
    endloop
  endfacet
  facet normal 0 -0 -1
    outer loop
      vertex 40.0695 30.6957 0.091
      vertex 47.5295 30.6957 0.091
      vertex 39.9595 30.4489 0.091
    endloop
  endfacet
  facet normal 0 0 -1
    outer loop
      vertex 39.9595 30.4489 0.091
      vertex 47.5295 30.6957 0.091
      vertex 47.6395 30.4489 0.091
    endloop
  endfacet
  facet normal 0 0 -1
    outer loop
      vertex 39.8643 30.1958 0.091
      vertex 39.9595 30.4489 0.091
      vertex 47.6395 30.4489 0.091
    endloop
  endfacet
  facet normal 0 0 -1
    outer loop
      vertex 47.7348 30.1958 0.091
      vertex 39.8643 30.1958 0.091
      vertex 47.6395 30.4489 0.091
    endloop
  endfacet
  facet normal -0 0 -1
    outer loop
      vertex 47.7348 30.1958 0.091
      vertex 39.7837 29.9363 0.091
      vertex 39.8643 30.1958 0.091
    endloop
  endfacet
  facet normal 0 -0 -1
    outer loop
      vertex 47.7348 30.1958 0.091
      vertex 47.8154 29.9363 0.091
      vertex 39.7837 29.9363 0.091
    endloop
  endfacet
  facet normal 0 -0 -1
    outer loop
      vertex 39.7837 29.9363 0.091
      vertex 47.8154 29.9363 0.091
      vertex 39.7177 29.6705 0.091
    endloop
  endfacet
  facet normal 0 0 -1
    outer loop
      vertex 39.7177 29.6705 0.091
      vertex 47.8154 29.9363 0.091
      vertex 47.8814 29.6705 0.091
    endloop
  endfacet
  facet normal 0 0 -1
    outer loop
      vertex 39.6664 29.3983 0.091
      vertex 39.7177 29.6705 0.091
      vertex 47.8814 29.6705 0.091
    endloop
  endfacet
  facet normal 0 0 -1
    outer loop
      vertex 47.9327 29.3983 0.091
      vertex 39.6664 29.3983 0.091
      vertex 47.8814 29.6705 0.091
    endloop
  endfacet
  facet normal -0 0 -1
    outer loop
      vertex 47.9327 29.3983 0.091
      vertex 39.6298 29.1197 0.091
      vertex 39.6664 29.3983 0.091
    endloop
  endfacet
  facet normal 0 -0 -1
    outer loop
      vertex 47.9327 29.3983 0.091
      vertex 47.9694 29.1197 0.091
      vertex 39.6298 29.1197 0.091
    endloop
  endfacet
  facet normal 0 -0 -1
    outer loop
      vertex 39.6298 29.1197 0.091
      vertex 47.9694 29.1197 0.091
      vertex 39.6078 28.8348 0.091
    endloop
  endfacet
  facet normal 0 0 -1
    outer loop
      vertex 39.6078 28.8348 0.091
      vertex 47.9694 29.1197 0.091
      vertex 47.9913 28.8348 0.091
    endloop
  endfacet
  facet normal 0 0 -1
    outer loop
      vertex 39.6005 28.5435 0.091
      vertex 39.6078 28.8348 0.091
      vertex 47.9913 28.8348 0.091
    endloop
  endfacet
  facet normal 0 0 -1
    outer loop
      vertex 47.9987 28.5435 0.091
      vertex 39.6005 28.5435 0.091
      vertex 47.9913 28.8348 0.091
    endloop
  endfacet
  facet normal -0 -0 -1
    outer loop
      vertex 47.9987 28.5435 0.091
      vertex 47.9987 -0.699997 0.091
      vertex 39.6005 28.5435 0.091
    endloop
  endfacet
  facet normal 0 0 -1
    outer loop
      vertex 39.6005 28.5435 0.091
      vertex 47.9987 -0.699997 0.091
      vertex 39.6005 -0.699997 0.091
    endloop
  endfacet
  facet normal 0 0 -1
    outer loop
      vertex 10.1959 33.2109 0.091
      vertex 10.458 33.2027 0.091
      vertex 12.5594 32.3963 0.091
    endloop
  endfacet
  facet normal 0 0 -1
    outer loop
      vertex 11.2099 33.0805 0.091
      vertex 11.4491 33.0072 0.091
      vertex 11.6826 32.9176 0.091
    endloop
  endfacet
  facet normal 0 0 -1
    outer loop
      vertex 11.9103 32.8117 0.091
      vertex 11.2099 33.0805 0.091
      vertex 11.6826 32.9176 0.091
    endloop
  endfacet
  facet normal 0 0 -1
    outer loop
      vertex 11.9103 32.8117 0.091
      vertex 10.965 33.1376 0.091
      vertex 11.2099 33.0805 0.091
    endloop
  endfacet
  facet normal -0 -0 -1
    outer loop
      vertex 11.9103 32.8117 0.091
      vertex 12.1324 32.6895 0.091
      vertex 10.965 33.1376 0.091
    endloop
  endfacet
  facet normal -0 -0 -1
    outer loop
      vertex 10.965 33.1376 0.091
      vertex 12.1324 32.6895 0.091
      vertex 10.7143 33.1783 0.091
    endloop
  endfacet
  facet normal 0 0 -1
    outer loop
      vertex 10.7143 33.1783 0.091
      vertex 12.1324 32.6895 0.091
      vertex 12.3487 32.551 0.091
    endloop
  endfacet
  facet normal 0 0 -1
    outer loop
      vertex 10.458 33.2027 0.091
      vertex 10.7143 33.1783 0.091
      vertex 12.3487 32.551 0.091
    endloop
  endfacet
  facet normal 0 0 -1
    outer loop
      vertex 12.5594 32.3963 0.091
      vertex 10.458 33.2027 0.091
      vertex 12.3487 32.551 0.091
    endloop
  endfacet
  facet normal 0 0 -1
    outer loop
      vertex 8.04254 32.551 0.091
      vertex 8.25891 32.6895 0.091
      vertex 9.67732 33.1783 0.091
    endloop
  endfacet
  facet normal 0 0 -1
    outer loop
      vertex 9.67732 33.1783 0.091
      vertex 8.25891 32.6895 0.091
      vertex 9.42662 33.1376 0.091
    endloop
  endfacet
  facet normal 0 0 -1
    outer loop
      vertex 8.70883 32.9176 0.091
      vertex 8.94237 33.0072 0.091
      vertex 9.18164 33.0805 0.091
    endloop
  endfacet
  facet normal 0 0 -1
    outer loop
      vertex 8.48102 32.8117 0.091
      vertex 8.70883 32.9176 0.091
      vertex 9.18164 33.0805 0.091
    endloop
  endfacet
  facet normal 0 0 -1
    outer loop
      vertex 9.42662 33.1376 0.091
      vertex 8.48102 32.8117 0.091
      vertex 9.18164 33.0805 0.091
    endloop
  endfacet
  facet normal 0 0 -1
    outer loop
      vertex 9.42662 33.1376 0.091
      vertex 8.25891 32.6895 0.091
      vertex 8.48102 32.8117 0.091
    endloop
  endfacet
  facet normal 0 0 -1
    outer loop
      vertex 9.93376 33.2027 0.091
      vertex 8.04254 32.551 0.091
      vertex 9.67732 33.1783 0.091
    endloop
  endfacet
  facet normal 0 0 -1
    outer loop
      vertex 9.93376 33.2027 0.091
      vertex 7.83189 32.3963 0.091
      vertex 8.04254 32.551 0.091
    endloop
  endfacet
  facet normal 0 -0 -1
    outer loop
      vertex 9.93376 33.2027 0.091
      vertex 10.1959 33.2109 0.091
      vertex 7.83189 32.3963 0.091
    endloop
  endfacet
  facet normal 0 0 -1
    outer loop
      vertex 7.83189 32.3963 0.091
      vertex 10.1959 33.2109 0.091
      vertex 12.5594 32.3963 0.091
    endloop
  endfacet
  facet normal 0 0 -1
    outer loop
      vertex 12.7643 32.2252 0.091
      vertex 7.83189 32.3963 0.091
      vertex 12.5594 32.3963 0.091
    endloop
  endfacet
  facet normal 0 0 -1
    outer loop
      vertex 12.7643 32.2252 0.091
      vertex 7.62697 32.2252 0.091
      vertex 7.83189 32.3963 0.091
    endloop
  endfacet
  facet normal -0 -0 -1
    outer loop
      vertex 12.7643 32.2252 0.091
      vertex 12.9635 32.0378 0.091
      vertex 7.62697 32.2252 0.091
    endloop
  endfacet
  facet normal 0 -0 -1
    outer loop
      vertex 7.62697 32.2252 0.091
      vertex 12.9635 32.0378 0.091
      vertex 7.42776 32.0378 0.091
    endloop
  endfacet
  facet normal 0 -0 -1
    outer loop
      vertex 7.42776 32.0378 0.091
      vertex 12.9635 32.0378 0.091
      vertex 7.23428 31.8342 0.091
    endloop
  endfacet
  facet normal 0 0 -1
    outer loop
      vertex 7.23428 31.8342 0.091
      vertex 12.9635 32.0378 0.091
      vertex 13.1569 31.8342 0.091
    endloop
  endfacet
  facet normal 0 0 -1
    outer loop
      vertex 7.05101 31.6192 0.091
      vertex 7.23428 31.8342 0.091
      vertex 13.1569 31.8342 0.091
    endloop
  endfacet
  facet normal 0 0 -1
    outer loop
      vertex 13.3453 31.6192 0.091
      vertex 7.05101 31.6192 0.091
      vertex 13.1569 31.8342 0.091
    endloop
  endfacet
  facet normal -0 0 -1
    outer loop
      vertex 13.3453 31.6192 0.091
      vertex 6.88239 31.3979 0.091
      vertex 7.05101 31.6192 0.091
    endloop
  endfacet
  facet normal 0 0 -1
    outer loop
      vertex 13.3453 31.6192 0.091
      vertex 6.72842 31.1702 0.091
      vertex 6.88239 31.3979 0.091
    endloop
  endfacet
  facet normal 0 0 -1
    outer loop
      vertex 13.3453 31.6192 0.091
      vertex 6.58911 30.9361 0.091
      vertex 6.72842 31.1702 0.091
    endloop
  endfacet
  facet normal 0 0 -1
    outer loop
      vertex 13.3453 31.6192 0.091
      vertex 6.46449 30.6957 0.091
      vertex 6.58911 30.9361 0.091
    endloop
  endfacet
  facet normal 0 0 -1
    outer loop
      vertex 13.3453 31.6192 0.091
      vertex 6.35451 30.4489 0.091
      vertex 6.46449 30.6957 0.091
    endloop
  endfacet
  facet normal 0 0 -1
    outer loop
      vertex 13.3453 31.6192 0.091
      vertex 6.25919 30.1958 0.091
      vertex 6.35451 30.4489 0.091
    endloop
  endfacet
  facet normal 0 -0 -1
    outer loop
      vertex 13.3453 31.6192 0.091
      vertex 13.5289 31.3979 0.091
      vertex 6.25919 30.1958 0.091
    endloop
  endfacet
  facet normal 0 -0 -1
    outer loop
      vertex 6.25919 30.1958 0.091
      vertex 13.5289 31.3979 0.091
      vertex 6.17856 29.9363 0.091
    endloop
  endfacet
  facet normal 0 -0 -1
    outer loop
      vertex 6.17856 29.9363 0.091
      vertex 13.5289 31.3979 0.091
      vertex 6.11256 29.6705 0.091
    endloop
  endfacet
  facet normal 0 -0 -1
    outer loop
      vertex 6.11256 29.6705 0.091
      vertex 13.5289 31.3979 0.091
      vertex 6.06125 29.3983 0.091
    endloop
  endfacet
  facet normal 0 -0 -1
    outer loop
      vertex 6.06125 29.3983 0.091
      vertex 13.5289 31.3979 0.091
      vertex 6.0246 29.1197 0.091
    endloop
  endfacet
  facet normal 0 0 -1
    outer loop
      vertex 6.0246 29.1197 0.091
      vertex 13.5289 31.3979 0.091
      vertex 13.7078 31.1702 0.091
    endloop
  endfacet
  facet normal 0 0 -1
    outer loop
      vertex 6.00259 28.8348 0.091
      vertex 6.0246 29.1197 0.091
      vertex 13.7078 31.1702 0.091
    endloop
  endfacet
  facet normal 0 0 -1
    outer loop
      vertex 5.99525 28.5435 0.091
      vertex 6.00259 28.8348 0.091
      vertex 13.7078 31.1702 0.091
    endloop
  endfacet
  facet normal -0 0 -1
    outer loop
      vertex 13.882 30.9361 0.091
      vertex 5.99525 28.5435 0.091
      vertex 13.7078 31.1702 0.091
    endloop
  endfacet
  facet normal 0 -0 -1
    outer loop
      vertex 13.882 30.9361 0.091
      vertex 14.0514 30.6957 0.091
      vertex 5.99525 28.5435 0.091
    endloop
  endfacet
  facet normal 0 0 -1
    outer loop
      vertex 5.99525 28.5435 0.091
      vertex 14.0514 30.6957 0.091
      vertex 14.2161 30.4489 0.091
    endloop
  endfacet
  facet normal -0 0 -1
    outer loop
      vertex 14.3761 30.1958 0.091
      vertex 5.99525 28.5435 0.091
      vertex 14.2161 30.4489 0.091
    endloop
  endfacet
  facet normal 0 -0 -1
    outer loop
      vertex 14.3761 30.1958 0.091
      vertex 14.5314 29.9363 0.091
      vertex 5.99525 28.5435 0.091
    endloop
  endfacet
  facet normal 0 0 -1
    outer loop
      vertex 5.99525 28.5435 0.091
      vertex 14.5314 29.9363 0.091
      vertex 14.6819 29.6705 0.091
    endloop
  endfacet
  facet normal -0 0 -1
    outer loop
      vertex 14.8277 29.3983 0.091
      vertex 5.99525 28.5435 0.091
      vertex 14.6819 29.6705 0.091
    endloop
  endfacet
  facet normal 0 -0 -1
    outer loop
      vertex 14.8277 29.3983 0.091
      vertex 14.9688 29.1197 0.091
      vertex 5.99525 28.5435 0.091
    endloop
  endfacet
  facet normal 0 0 -1
    outer loop
      vertex 5.99525 28.5435 0.091
      vertex 14.9688 29.1197 0.091
      vertex 15.1052 28.8348 0.091
    endloop
  endfacet
  facet normal 0 0 -1
    outer loop
      vertex 15.2368 28.5435 0.091
      vertex 5.99525 28.5435 0.091
      vertex 15.1052 28.8348 0.091
    endloop
  endfacet
  facet normal 0 0 -1
    outer loop
      vertex 14.3935 -0.699997 0.091
      vertex 5.99525 -0.699997 0.091
      vertex 14.3935 11.7872 0.091
    endloop
  endfacet
  facet normal 0 -0 -1
    outer loop
      vertex 15.2368 28.5435 0.091
      vertex 31.4591 -0.699997 0.091
      vertex 14.3935 11.7872 0.091
    endloop
  endfacet
  facet normal -0 0 -1
    outer loop
      vertex 15.2368 28.5435 0.091
      vertex 14.3935 11.7872 0.091
      vertex 5.99525 28.5435 0.091
    endloop
  endfacet
  facet normal -0 0 -1
    outer loop
      vertex 14.3935 11.7872 0.091
      vertex 5.99525 -0.699997 0.091
      vertex 5.99525 28.5435 0.091
    endloop
  endfacet
  facet normal 0 0 -1
    outer loop
      vertex 31.4591 -0.699997 0.091
      vertex 21.3205 -0.699997 0.091
      vertex 14.3935 11.7872 0.091
    endloop
  endfacet
  facet normal 0 0 1
    outer loop
      vertex 41.647 32.551 0.391
      vertex 43.5373 33.2027 0.391
      vertex 43.281 33.1783 0.391
    endloop
  endfacet
  facet normal 0 0 1
    outer loop
      vertex 43.0305 33.1376 0.391
      vertex 42.7856 33.0805 0.391
      vertex 42.0853 32.8117 0.391
    endloop
  endfacet
  facet normal 0 0 1
    outer loop
      vertex 41.8633 32.6895 0.391
      vertex 43.0305 33.1376 0.391
      vertex 42.0853 32.8117 0.391
    endloop
  endfacet
  facet normal 0 0 1
    outer loop
      vertex 42.7856 33.0805 0.391
      vertex 42.313 32.9176 0.391
      vertex 42.0853 32.8117 0.391
    endloop
  endfacet
  facet normal -0 0 1
    outer loop
      vertex 42.5465 33.0072 0.391
      vertex 42.313 32.9176 0.391
      vertex 42.7856 33.0805 0.391
    endloop
  endfacet
  facet normal 0 0 1
    outer loop
      vertex 43.281 33.1783 0.391
      vertex 43.0305 33.1376 0.391
      vertex 41.8633 32.6895 0.391
    endloop
  endfacet
  facet normal 0 0 1
    outer loop
      vertex 43.281 33.1783 0.391
      vertex 41.8633 32.6895 0.391
      vertex 41.647 32.551 0.391
    endloop
  endfacet
  facet normal 0 0 1
    outer loop
      vertex 44.0613 33.2027 0.391
      vertex 43.7993 33.2109 0.391
      vertex 46.1624 32.3963 0.391
    endloop
  endfacet
  facet normal 0 0 1
    outer loop
      vertex 44.3177 33.1783 0.391
      vertex 44.0613 33.2027 0.391
      vertex 45.9518 32.551 0.391
    endloop
  endfacet
  facet normal 0 0 1
    outer loop
      vertex 44.3177 33.1783 0.391
      vertex 45.9518 32.551 0.391
      vertex 45.7355 32.6895 0.391
    endloop
  endfacet
  facet normal 0 0 1
    outer loop
      vertex 44.5683 33.1376 0.391
      vertex 45.7355 32.6895 0.391
      vertex 45.5135 32.8117 0.391
    endloop
  endfacet
  facet normal 0 0 1
    outer loop
      vertex 44.8132 33.0805 0.391
      vertex 45.5135 32.8117 0.391
      vertex 45.2858 32.9176 0.391
    endloop
  endfacet
  facet normal 0 0 1
    outer loop
      vertex 44.8132 33.0805 0.391
      vertex 45.2858 32.9176 0.391
      vertex 45.0523 33.0072 0.391
    endloop
  endfacet
  facet normal 0 0 1
    outer loop
      vertex 44.5683 33.1376 0.391
      vertex 45.5135 32.8117 0.391
      vertex 44.8132 33.0805 0.391
    endloop
  endfacet
  facet normal 0 0 1
    outer loop
      vertex 44.3177 33.1783 0.391
      vertex 45.7355 32.6895 0.391
      vertex 44.5683 33.1376 0.391
    endloop
  endfacet
  facet normal 0 0 1
    outer loop
      vertex 44.0613 33.2027 0.391
      vertex 46.1624 32.3963 0.391
      vertex 45.9518 32.551 0.391
    endloop
  endfacet
  facet normal -0 0 1
    outer loop
      vertex 41.647 32.551 0.391
      vertex 41.4364 32.3963 0.391
      vertex 43.5373 33.2027 0.391
    endloop
  endfacet
  facet normal 0 0 1
    outer loop
      vertex 41.4364 32.3963 0.391
      vertex 43.7993 33.2109 0.391
      vertex 43.5373 33.2027 0.391
    endloop
  endfacet
  facet normal 0 0 1
    outer loop
      vertex 46.1624 32.3963 0.391
      vertex 43.7993 33.2109 0.391
      vertex 41.4364 32.3963 0.391
    endloop
  endfacet
  facet normal 0 0 1
    outer loop
      vertex 46.1624 32.3963 0.391
      vertex 41.4364 32.3963 0.391
      vertex 46.3672 32.2252 0.391
    endloop
  endfacet
  facet normal 0 0 1
    outer loop
      vertex 41.4364 32.3963 0.391
      vertex 41.2315 32.2252 0.391
      vertex 46.3672 32.2252 0.391
    endloop
  endfacet
  facet normal -0 0 1
    outer loop
      vertex 41.2315 32.2252 0.391
      vertex 46.5663 32.0378 0.391
      vertex 46.3672 32.2252 0.391
    endloop
  endfacet
  facet normal 0 0 1
    outer loop
      vertex 41.0323 32.0378 0.391
      vertex 46.5663 32.0378 0.391
      vertex 41.2315 32.2252 0.391
    endloop
  endfacet
  facet normal 0 0 1
    outer loop
      vertex 46.7597 31.8342 0.391
      vertex 46.5663 32.0378 0.391
      vertex 41.0323 32.0378 0.391
    endloop
  endfacet
  facet normal 0 0 1
    outer loop
      vertex 46.7597 31.8342 0.391
      vertex 41.0323 32.0378 0.391
      vertex 40.8389 31.8342 0.391
    endloop
  endfacet
  facet normal 0 0 1
    outer loop
      vertex 46.7597 31.8342 0.391
      vertex 40.8389 31.8342 0.391
      vertex 40.6557 31.6192 0.391
    endloop
  endfacet
  facet normal 0 0 1
    outer loop
      vertex 46.7597 31.8342 0.391
      vertex 40.6557 31.6192 0.391
      vertex 46.9429 31.6192 0.391
    endloop
  endfacet
  facet normal -0 0 1
    outer loop
      vertex 40.6557 31.6192 0.391
      vertex 40.4871 31.3979 0.391
      vertex 46.9429 31.6192 0.391
    endloop
  endfacet
  facet normal 0 0 1
    outer loop
      vertex 40.4871 31.3979 0.391
      vertex 47.1116 31.3979 0.391
      vertex 46.9429 31.6192 0.391
    endloop
  endfacet
  facet normal 0 0 1
    outer loop
      vertex 40.3333 31.1702 0.391
      vertex 47.1116 31.3979 0.391
      vertex 40.4871 31.3979 0.391
    endloop
  endfacet
  facet normal 0 0 1
    outer loop
      vertex 47.2655 31.1702 0.391
      vertex 47.1116 31.3979 0.391
      vertex 40.3333 31.1702 0.391
    endloop
  endfacet
  facet normal 0 0 1
    outer loop
      vertex 47.2655 31.1702 0.391
      vertex 40.3333 31.1702 0.391
      vertex 40.194 30.9361 0.391
    endloop
  endfacet
  facet normal 0 0 1
    outer loop
      vertex 47.2655 31.1702 0.391
      vertex 40.194 30.9361 0.391
      vertex 47.4048 30.9361 0.391
    endloop
  endfacet
  facet normal -0 0 1
    outer loop
      vertex 40.194 30.9361 0.391
      vertex 40.0695 30.6957 0.391
      vertex 47.4048 30.9361 0.391
    endloop
  endfacet
  facet normal 0 0 1
    outer loop
      vertex 40.0695 30.6957 0.391
      vertex 47.5295 30.6957 0.391
      vertex 47.4048 30.9361 0.391
    endloop
  endfacet
  facet normal 0 0 1
    outer loop
      vertex 39.9595 30.4489 0.391
      vertex 47.5295 30.6957 0.391
      vertex 40.0695 30.6957 0.391
    endloop
  endfacet
  facet normal 0 0 1
    outer loop
      vertex 47.6395 30.4489 0.391
      vertex 47.5295 30.6957 0.391
      vertex 39.9595 30.4489 0.391
    endloop
  endfacet
  facet normal 0 0 1
    outer loop
      vertex 47.6395 30.4489 0.391
      vertex 39.9595 30.4489 0.391
      vertex 39.8643 30.1958 0.391
    endloop
  endfacet
  facet normal 0 0 1
    outer loop
      vertex 47.6395 30.4489 0.391
      vertex 39.8643 30.1958 0.391
      vertex 47.7348 30.1958 0.391
    endloop
  endfacet
  facet normal -0 0 1
    outer loop
      vertex 39.8643 30.1958 0.391
      vertex 39.7837 29.9363 0.391
      vertex 47.7348 30.1958 0.391
    endloop
  endfacet
  facet normal 0 0 1
    outer loop
      vertex 39.7837 29.9363 0.391
      vertex 47.8154 29.9363 0.391
      vertex 47.7348 30.1958 0.391
    endloop
  endfacet
  facet normal 0 0 1
    outer loop
      vertex 39.7177 29.6705 0.391
      vertex 47.8154 29.9363 0.391
      vertex 39.7837 29.9363 0.391
    endloop
  endfacet
  facet normal 0 0 1
    outer loop
      vertex 47.8814 29.6705 0.391
      vertex 47.8154 29.9363 0.391
      vertex 39.7177 29.6705 0.391
    endloop
  endfacet
  facet normal 0 0 1
    outer loop
      vertex 47.8814 29.6705 0.391
      vertex 39.7177 29.6705 0.391
      vertex 39.6664 29.3983 0.391
    endloop
  endfacet
  facet normal 0 0 1
    outer loop
      vertex 47.8814 29.6705 0.391
      vertex 39.6664 29.3983 0.391
      vertex 47.9327 29.3983 0.391
    endloop
  endfacet
  facet normal -0 0 1
    outer loop
      vertex 39.6664 29.3983 0.391
      vertex 39.6298 29.1197 0.391
      vertex 47.9327 29.3983 0.391
    endloop
  endfacet
  facet normal 0 0 1
    outer loop
      vertex 39.6298 29.1197 0.391
      vertex 47.9694 29.1197 0.391
      vertex 47.9327 29.3983 0.391
    endloop
  endfacet
  facet normal 0 0 1
    outer loop
      vertex 39.6078 28.8348 0.391
      vertex 47.9694 29.1197 0.391
      vertex 39.6298 29.1197 0.391
    endloop
  endfacet
  facet normal 0 0 1
    outer loop
      vertex 47.9913 28.8348 0.391
      vertex 47.9694 29.1197 0.391
      vertex 39.6078 28.8348 0.391
    endloop
  endfacet
  facet normal 0 0 1
    outer loop
      vertex 47.9913 28.8348 0.391
      vertex 39.6078 28.8348 0.391
      vertex 39.6005 28.5435 0.391
    endloop
  endfacet
  facet normal 0 0 1
    outer loop
      vertex 47.9913 28.8348 0.391
      vertex 39.6005 28.5435 0.391
      vertex 47.9987 28.5435 0.391
    endloop
  endfacet
  facet normal -0 0 1
    outer loop
      vertex 39.6005 28.5435 0.391
      vertex 47.9987 -0.699997 0.391
      vertex 47.9987 28.5435 0.391
    endloop
  endfacet
  facet normal 0 0 1
    outer loop
      vertex 39.6005 -0.699997 0.391
      vertex 47.9987 -0.699997 0.391
      vertex 39.6005 28.5435 0.391
    endloop
  endfacet
  facet normal 0 0 1
    outer loop
      vertex 12.5594 32.3963 0.391
      vertex 10.458 33.2027 0.391
      vertex 10.1959 33.2109 0.391
    endloop
  endfacet
  facet normal 0 0 1
    outer loop
      vertex 11.6826 32.9176 0.391
      vertex 11.4491 33.0072 0.391
      vertex 11.2099 33.0805 0.391
    endloop
  endfacet
  facet normal 0 0 1
    outer loop
      vertex 11.6826 32.9176 0.391
      vertex 11.2099 33.0805 0.391
      vertex 11.9103 32.8117 0.391
    endloop
  endfacet
  facet normal 0 0 1
    outer loop
      vertex 11.2099 33.0805 0.391
      vertex 10.965 33.1376 0.391
      vertex 11.9103 32.8117 0.391
    endloop
  endfacet
  facet normal 0 0 1
    outer loop
      vertex 10.965 33.1376 0.391
      vertex 12.1324 32.6895 0.391
      vertex 11.9103 32.8117 0.391
    endloop
  endfacet
  facet normal 0 0 1
    outer loop
      vertex 10.7143 33.1783 0.391
      vertex 12.1324 32.6895 0.391
      vertex 10.965 33.1376 0.391
    endloop
  endfacet
  facet normal 0 0 1
    outer loop
      vertex 12.3487 32.551 0.391
      vertex 12.1324 32.6895 0.391
      vertex 10.7143 33.1783 0.391
    endloop
  endfacet
  facet normal 0 0 1
    outer loop
      vertex 12.3487 32.551 0.391
      vertex 10.7143 33.1783 0.391
      vertex 10.458 33.2027 0.391
    endloop
  endfacet
  facet normal 0 0 1
    outer loop
      vertex 12.3487 32.551 0.391
      vertex 10.458 33.2027 0.391
      vertex 12.5594 32.3963 0.391
    endloop
  endfacet
  facet normal 0 0 1
    outer loop
      vertex 9.67732 33.1783 0.391
      vertex 8.25891 32.6895 0.391
      vertex 8.04254 32.551 0.391
    endloop
  endfacet
  facet normal -0 0 1
    outer loop
      vertex 9.42662 33.1376 0.391
      vertex 8.25891 32.6895 0.391
      vertex 9.67732 33.1783 0.391
    endloop
  endfacet
  facet normal 0 0 1
    outer loop
      vertex 9.18164 33.0805 0.391
      vertex 8.94237 33.0072 0.391
      vertex 8.70883 32.9176 0.391
    endloop
  endfacet
  facet normal 0 0 1
    outer loop
      vertex 9.18164 33.0805 0.391
      vertex 8.70883 32.9176 0.391
      vertex 8.48102 32.8117 0.391
    endloop
  endfacet
  facet normal -0 0 1
    outer loop
      vertex 9.18164 33.0805 0.391
      vertex 8.48102 32.8117 0.391
      vertex 9.42662 33.1376 0.391
    endloop
  endfacet
  facet normal -0 0 1
    outer loop
      vertex 8.48102 32.8117 0.391
      vertex 8.25891 32.6895 0.391
      vertex 9.42662 33.1376 0.391
    endloop
  endfacet
  facet normal -0 0 1
    outer loop
      vertex 9.67732 33.1783 0.391
      vertex 8.04254 32.551 0.391
      vertex 9.93376 33.2027 0.391
    endloop
  endfacet
  facet normal -0 0 1
    outer loop
      vertex 8.04254 32.551 0.391
      vertex 7.83189 32.3963 0.391
      vertex 9.93376 33.2027 0.391
    endloop
  endfacet
  facet normal 0 0 1
    outer loop
      vertex 7.83189 32.3963 0.391
      vertex 10.1959 33.2109 0.391
      vertex 9.93376 33.2027 0.391
    endloop
  endfacet
  facet normal 0 0 1
    outer loop
      vertex 12.5594 32.3963 0.391
      vertex 10.1959 33.2109 0.391
      vertex 7.83189 32.3963 0.391
    endloop
  endfacet
  facet normal 0 0 1
    outer loop
      vertex 12.5594 32.3963 0.391
      vertex 7.83189 32.3963 0.391
      vertex 12.7643 32.2252 0.391
    endloop
  endfacet
  facet normal 0 0 1
    outer loop
      vertex 7.83189 32.3963 0.391
      vertex 7.62697 32.2252 0.391
      vertex 12.7643 32.2252 0.391
    endloop
  endfacet
  facet normal -0 0 1
    outer loop
      vertex 7.62697 32.2252 0.391
      vertex 12.9635 32.0378 0.391
      vertex 12.7643 32.2252 0.391
    endloop
  endfacet
  facet normal 0 0 1
    outer loop
      vertex 7.42776 32.0378 0.391
      vertex 12.9635 32.0378 0.391
      vertex 7.62697 32.2252 0.391
    endloop
  endfacet
  facet normal 0 0 1
    outer loop
      vertex 7.23428 31.8342 0.391
      vertex 12.9635 32.0378 0.391
      vertex 7.42776 32.0378 0.391
    endloop
  endfacet
  facet normal 0 0 1
    outer loop
      vertex 13.1569 31.8342 0.391
      vertex 12.9635 32.0378 0.391
      vertex 7.23428 31.8342 0.391
    endloop
  endfacet
  facet normal 0 0 1
    outer loop
      vertex 13.1569 31.8342 0.391
      vertex 7.23428 31.8342 0.391
      vertex 7.05101 31.6192 0.391
    endloop
  endfacet
  facet normal 0 0 1
    outer loop
      vertex 13.1569 31.8342 0.391
      vertex 7.05101 31.6192 0.391
      vertex 13.3453 31.6192 0.391
    endloop
  endfacet
  facet normal -0 0 1
    outer loop
      vertex 7.05101 31.6192 0.391
      vertex 6.88239 31.3979 0.391
      vertex 13.3453 31.6192 0.391
    endloop
  endfacet
  facet normal -0 0 1
    outer loop
      vertex 6.88239 31.3979 0.391
      vertex 6.72842 31.1702 0.391
      vertex 13.3453 31.6192 0.391
    endloop
  endfacet
  facet normal -0 0 1
    outer loop
      vertex 6.72842 31.1702 0.391
      vertex 6.58911 30.9361 0.391
      vertex 13.3453 31.6192 0.391
    endloop
  endfacet
  facet normal -0 0 1
    outer loop
      vertex 6.58911 30.9361 0.391
      vertex 6.46449 30.6957 0.391
      vertex 13.3453 31.6192 0.391
    endloop
  endfacet
  facet normal -0 0 1
    outer loop
      vertex 6.46449 30.6957 0.391
      vertex 6.35451 30.4489 0.391
      vertex 13.3453 31.6192 0.391
    endloop
  endfacet
  facet normal -0 0 1
    outer loop
      vertex 6.35451 30.4489 0.391
      vertex 6.25919 30.1958 0.391
      vertex 13.3453 31.6192 0.391
    endloop
  endfacet
  facet normal 0 0 1
    outer loop
      vertex 6.25919 30.1958 0.391
      vertex 13.5289 31.3979 0.391
      vertex 13.3453 31.6192 0.391
    endloop
  endfacet
  facet normal 0 0 1
    outer loop
      vertex 6.17856 29.9363 0.391
      vertex 13.5289 31.3979 0.391
      vertex 6.25919 30.1958 0.391
    endloop
  endfacet
  facet normal 0 0 1
    outer loop
      vertex 6.11256 29.6705 0.391
      vertex 13.5289 31.3979 0.391
      vertex 6.17856 29.9363 0.391
    endloop
  endfacet
  facet normal 0 0 1
    outer loop
      vertex 6.06125 29.3983 0.391
      vertex 13.5289 31.3979 0.391
      vertex 6.11256 29.6705 0.391
    endloop
  endfacet
  facet normal 0 0 1
    outer loop
      vertex 6.0246 29.1197 0.391
      vertex 13.5289 31.3979 0.391
      vertex 6.06125 29.3983 0.391
    endloop
  endfacet
  facet normal 0 0 1
    outer loop
      vertex 13.7078 31.1702 0.391
      vertex 13.5289 31.3979 0.391
      vertex 6.0246 29.1197 0.391
    endloop
  endfacet
  facet normal 0 0 1
    outer loop
      vertex 13.7078 31.1702 0.391
      vertex 6.0246 29.1197 0.391
      vertex 6.00259 28.8348 0.391
    endloop
  endfacet
  facet normal 0 0 1
    outer loop
      vertex 13.7078 31.1702 0.391
      vertex 6.00259 28.8348 0.391
      vertex 5.99525 28.5435 0.391
    endloop
  endfacet
  facet normal 0 0 1
    outer loop
      vertex 13.7078 31.1702 0.391
      vertex 5.99525 28.5435 0.391
      vertex 13.882 30.9361 0.391
    endloop
  endfacet
  facet normal 0 0 1
    outer loop
      vertex 5.99525 28.5435 0.391
      vertex 14.0514 30.6957 0.391
      vertex 13.882 30.9361 0.391
    endloop
  endfacet
  facet normal 0 0 1
    outer loop
      vertex 14.2161 30.4489 0.391
      vertex 14.0514 30.6957 0.391
      vertex 5.99525 28.5435 0.391
    endloop
  endfacet
  facet normal 0 0 1
    outer loop
      vertex 14.2161 30.4489 0.391
      vertex 5.99525 28.5435 0.391
      vertex 14.3761 30.1958 0.391
    endloop
  endfacet
  facet normal 0 0 1
    outer loop
      vertex 5.99525 28.5435 0.391
      vertex 14.5314 29.9363 0.391
      vertex 14.3761 30.1958 0.391
    endloop
  endfacet
  facet normal 0 0 1
    outer loop
      vertex 14.6819 29.6705 0.391
      vertex 14.5314 29.9363 0.391
      vertex 5.99525 28.5435 0.391
    endloop
  endfacet
  facet normal 0 0 1
    outer loop
      vertex 14.6819 29.6705 0.391
      vertex 5.99525 28.5435 0.391
      vertex 14.8277 29.3983 0.391
    endloop
  endfacet
  facet normal 0 0 1
    outer loop
      vertex 5.99525 28.5435 0.391
      vertex 14.9688 29.1197 0.391
      vertex 14.8277 29.3983 0.391
    endloop
  endfacet
  facet normal 0 0 1
    outer loop
      vertex 15.1052 28.8348 0.391
      vertex 14.9688 29.1197 0.391
      vertex 5.99525 28.5435 0.391
    endloop
  endfacet
  facet normal 0 0 1
    outer loop
      vertex 15.1052 28.8348 0.391
      vertex 5.99525 28.5435 0.391
      vertex 15.2368 28.5435 0.391
    endloop
  endfacet
  facet normal 0 0 1
    outer loop
      vertex 14.3935 11.7872 0.391
      vertex 5.99525 -0.699997 0.391
      vertex 14.3935 -0.699997 0.391
    endloop
  endfacet
  facet normal -0 0 1
    outer loop
      vertex 14.3935 11.7872 0.391
      vertex 31.4591 -0.699997 0.391
      vertex 15.2368 28.5435 0.391
    endloop
  endfacet
  facet normal -0 0 1
    outer loop
      vertex 5.99525 28.5435 0.391
      vertex 14.3935 11.7872 0.391
      vertex 15.2368 28.5435 0.391
    endloop
  endfacet
  facet normal 0 0 1
    outer loop
      vertex 5.99525 28.5435 0.391
      vertex 5.99525 -0.699997 0.391
      vertex 14.3935 11.7872 0.391
    endloop
  endfacet
  facet normal 0 0 1
    outer loop
      vertex 14.3935 11.7872 0.391
      vertex 21.3205 -0.699997 0.391
      vertex 31.4591 -0.699997 0.391
    endloop
  endfacet
  facet normal 0.999677 0.0253952 0
    outer loop
      vertex 47.9913 28.8348 0.091
      vertex 47.9987 28.5435 0.391
      vertex 47.9987 28.5435 0.091
    endloop
  endfacet
  facet normal 0.999677 0.0253952 -0
    outer loop
      vertex 47.9913 28.8348 0.091
      vertex 47.9913 28.8348 0.391
      vertex 47.9987 28.5435 0.391
    endloop
  endfacet
  facet normal 0.997059 0.076643 0
    outer loop
      vertex 47.9694 29.1197 0.091
      vertex 47.9913 28.8348 0.391
      vertex 47.9913 28.8348 0.091
    endloop
  endfacet
  facet normal 0.997059 0.076643 -0
    outer loop
      vertex 47.9694 29.1197 0.091
      vertex 47.9694 29.1197 0.391
      vertex 47.9913 28.8348 0.391
    endloop
  endfacet
  facet normal 0.991435 0.130602 0
    outer loop
      vertex 47.9327 29.3983 0.091
      vertex 47.9694 29.1197 0.391
      vertex 47.9694 29.1197 0.091
    endloop
  endfacet
  facet normal 0.991435 0.130602 -0
    outer loop
      vertex 47.9327 29.3983 0.091
      vertex 47.9327 29.3983 0.391
      vertex 47.9694 29.1197 0.391
    endloop
  endfacet
  facet normal 0.9827 0.185204 0
    outer loop
      vertex 47.8814 29.6705 0.091
      vertex 47.9327 29.3983 0.391
      vertex 47.9327 29.3983 0.091
    endloop
  endfacet
  facet normal 0.9827 0.185204 -0
    outer loop
      vertex 47.8814 29.6705 0.091
      vertex 47.8814 29.6705 0.391
      vertex 47.9327 29.3983 0.391
    endloop
  endfacet
  facet normal 0.970528 0.240989 0
    outer loop
      vertex 47.8154 29.9363 0.091
      vertex 47.8814 29.6705 0.391
      vertex 47.8814 29.6705 0.091
    endloop
  endfacet
  facet normal 0.970528 0.240989 -0
    outer loop
      vertex 47.8154 29.9363 0.091
      vertex 47.8154 29.9363 0.391
      vertex 47.8814 29.6705 0.391
    endloop
  endfacet
  facet normal 0.954996 0.296619 0
    outer loop
      vertex 47.7348 30.1958 0.091
      vertex 47.8154 29.9363 0.391
      vertex 47.8154 29.9363 0.091
    endloop
  endfacet
  facet normal 0.954996 0.296619 -0
    outer loop
      vertex 47.7348 30.1958 0.091
      vertex 47.7348 30.1958 0.391
      vertex 47.8154 29.9363 0.391
    endloop
  endfacet
  facet normal 0.935857 0.352379 0
    outer loop
      vertex 47.6395 30.4489 0.091
      vertex 47.7348 30.1958 0.391
      vertex 47.7348 30.1958 0.091
    endloop
  endfacet
  facet normal 0.935857 0.352379 -0
    outer loop
      vertex 47.6395 30.4489 0.091
      vertex 47.6395 30.4489 0.391
      vertex 47.7348 30.1958 0.391
    endloop
  endfacet
  facet normal 0.913384 0.4071 0
    outer loop
      vertex 47.5295 30.6957 0.091
      vertex 47.6395 30.4489 0.391
      vertex 47.6395 30.4489 0.091
    endloop
  endfacet
  facet normal 0.913384 0.4071 -0
    outer loop
      vertex 47.5295 30.6957 0.091
      vertex 47.5295 30.6957 0.391
      vertex 47.6395 30.4489 0.391
    endloop
  endfacet
  facet normal 0.887682 0.460457 0
    outer loop
      vertex 47.4048 30.9361 0.091
      vertex 47.5295 30.6957 0.391
      vertex 47.5295 30.6957 0.091
    endloop
  endfacet
  facet normal 0.887682 0.460457 -0
    outer loop
      vertex 47.4048 30.9361 0.091
      vertex 47.4048 30.9361 0.391
      vertex 47.5295 30.6957 0.391
    endloop
  endfacet
  facet normal 0.859366 0.511361 0
    outer loop
      vertex 47.2655 31.1702 0.091
      vertex 47.4048 30.9361 0.391
      vertex 47.4048 30.9361 0.091
    endloop
  endfacet
  facet normal 0.859366 0.511361 -0
    outer loop
      vertex 47.2655 31.1702 0.091
      vertex 47.2655 31.1702 0.391
      vertex 47.4048 30.9361 0.391
    endloop
  endfacet
  facet normal 0.828507 0.559979 0
    outer loop
      vertex 47.1116 31.3979 0.091
      vertex 47.2655 31.1702 0.391
      vertex 47.2655 31.1702 0.091
    endloop
  endfacet
  facet normal 0.828507 0.559979 -0
    outer loop
      vertex 47.1116 31.3979 0.091
      vertex 47.1116 31.3979 0.391
      vertex 47.2655 31.1702 0.391
    endloop
  endfacet
  facet normal 0.795275 0.606249 0
    outer loop
      vertex 46.9429 31.6192 0.091
      vertex 47.1116 31.3979 0.391
      vertex 47.1116 31.3979 0.091
    endloop
  endfacet
  facet normal 0.795275 0.606249 -0
    outer loop
      vertex 46.9429 31.6192 0.091
      vertex 46.9429 31.6192 0.391
      vertex 47.1116 31.3979 0.391
    endloop
  endfacet
  facet normal 0.761153 0.648573 0
    outer loop
      vertex 46.7597 31.8342 0.091
      vertex 46.9429 31.6192 0.391
      vertex 46.9429 31.6192 0.091
    endloop
  endfacet
  facet normal 0.761153 0.648573 -0
    outer loop
      vertex 46.7597 31.8342 0.091
      vertex 46.7597 31.8342 0.391
      vertex 46.9429 31.6192 0.391
    endloop
  endfacet
  facet normal 0.725035 0.688712 0
    outer loop
      vertex 46.5663 32.0378 0.091
      vertex 46.7597 31.8342 0.391
      vertex 46.7597 31.8342 0.091
    endloop
  endfacet
  facet normal 0.725035 0.688712 -0
    outer loop
      vertex 46.5663 32.0378 0.091
      vertex 46.5663 32.0378 0.391
      vertex 46.7597 31.8342 0.391
    endloop
  endfacet
  facet normal 0.685388 0.728179 0
    outer loop
      vertex 46.3672 32.2252 0.091
      vertex 46.5663 32.0378 0.391
      vertex 46.5663 32.0378 0.091
    endloop
  endfacet
  facet normal 0.685388 0.728179 -0
    outer loop
      vertex 46.3672 32.2252 0.091
      vertex 46.3672 32.2252 0.391
      vertex 46.5663 32.0378 0.391
    endloop
  endfacet
  facet normal 0.641142 0.767422 0
    outer loop
      vertex 46.1624 32.3963 0.091
      vertex 46.3672 32.2252 0.391
      vertex 46.3672 32.2252 0.091
    endloop
  endfacet
  facet normal 0.641142 0.767422 -0
    outer loop
      vertex 46.1624 32.3963 0.091
      vertex 46.1624 32.3963 0.391
      vertex 46.3672 32.2252 0.391
    endloop
  endfacet
  facet normal 0.59201 0.80593 0
    outer loop
      vertex 45.9518 32.551 0.091
      vertex 46.1624 32.3963 0.391
      vertex 46.1624 32.3963 0.091
    endloop
  endfacet
  facet normal 0.59201 0.80593 -0
    outer loop
      vertex 45.9518 32.551 0.091
      vertex 45.9518 32.551 0.391
      vertex 46.1624 32.3963 0.391
    endloop
  endfacet
  facet normal 0.539242 0.842151 0
    outer loop
      vertex 45.7355 32.6895 0.091
      vertex 45.9518 32.551 0.391
      vertex 45.9518 32.551 0.091
    endloop
  endfacet
  facet normal 0.539242 0.842151 -0
    outer loop
      vertex 45.7355 32.6895 0.091
      vertex 45.7355 32.6895 0.391
      vertex 45.9518 32.551 0.391
    endloop
  endfacet
  facet normal 0.482222 0.876049 0
    outer loop
      vertex 45.5135 32.8117 0.091
      vertex 45.7355 32.6895 0.391
      vertex 45.7355 32.6895 0.091
    endloop
  endfacet
  facet normal 0.482222 0.876049 -0
    outer loop
      vertex 45.5135 32.8117 0.091
      vertex 45.5135 32.8117 0.391
      vertex 45.7355 32.6895 0.391
    endloop
  endfacet
  facet normal 0.421708 0.906732 0
    outer loop
      vertex 45.2858 32.9176 0.091
      vertex 45.5135 32.8117 0.391
      vertex 45.5135 32.8117 0.091
    endloop
  endfacet
  facet normal 0.421708 0.906732 -0
    outer loop
      vertex 45.2858 32.9176 0.091
      vertex 45.2858 32.9176 0.391
      vertex 45.5135 32.8117 0.391
    endloop
  endfacet
  facet normal 0.358256 0.933624 0
    outer loop
      vertex 45.0523 33.0072 0.091
      vertex 45.2858 32.9176 0.391
      vertex 45.2858 32.9176 0.091
    endloop
  endfacet
  facet normal 0.358256 0.933624 -0
    outer loop
      vertex 45.0523 33.0072 0.091
      vertex 45.0523 33.0072 0.391
      vertex 45.2858 32.9176 0.391
    endloop
  endfacet
  facet normal 0.293102 0.956081 0
    outer loop
      vertex 44.8132 33.0805 0.091
      vertex 45.0523 33.0072 0.391
      vertex 45.0523 33.0072 0.091
    endloop
  endfacet
  facet normal 0.293102 0.956081 -0
    outer loop
      vertex 44.8132 33.0805 0.091
      vertex 44.8132 33.0805 0.391
      vertex 45.0523 33.0072 0.391
    endloop
  endfacet
  facet normal 0.227066 0.973879 0
    outer loop
      vertex 44.5683 33.1376 0.091
      vertex 44.8132 33.0805 0.391
      vertex 44.8132 33.0805 0.091
    endloop
  endfacet
  facet normal 0.227066 0.973879 -0
    outer loop
      vertex 44.5683 33.1376 0.091
      vertex 44.5683 33.1376 0.391
      vertex 44.8132 33.0805 0.391
    endloop
  endfacet
  facet normal 0.16031 0.987067 0
    outer loop
      vertex 44.3177 33.1783 0.091
      vertex 44.5683 33.1376 0.391
      vertex 44.5683 33.1376 0.091
    endloop
  endfacet
  facet normal 0.16031 0.987067 -0
    outer loop
      vertex 44.3177 33.1783 0.091
      vertex 44.3177 33.1783 0.391
      vertex 44.5683 33.1376 0.391
    endloop
  endfacet
  facet normal 0.0947358 0.995502 0
    outer loop
      vertex 44.0613 33.2027 0.091
      vertex 44.3177 33.1783 0.391
      vertex 44.3177 33.1783 0.091
    endloop
  endfacet
  facet normal 0.0947358 0.995502 -0
    outer loop
      vertex 44.0613 33.2027 0.091
      vertex 44.0613 33.2027 0.391
      vertex 44.3177 33.1783 0.391
    endloop
  endfacet
  facet normal 0.0312824 0.999511 0
    outer loop
      vertex 43.7993 33.2109 0.091
      vertex 44.0613 33.2027 0.391
      vertex 44.0613 33.2027 0.091
    endloop
  endfacet
  facet normal 0.0312824 0.999511 -0
    outer loop
      vertex 43.7993 33.2109 0.091
      vertex 43.7993 33.2109 0.391
      vertex 44.0613 33.2027 0.391
    endloop
  endfacet
  facet normal -0.0312824 0.999511 0
    outer loop
      vertex 43.5373 33.2027 0.091
      vertex 43.7993 33.2109 0.391
      vertex 43.7993 33.2109 0.091
    endloop
  endfacet
  facet normal -0.0312824 0.999511 0
    outer loop
      vertex 43.5373 33.2027 0.091
      vertex 43.5373 33.2027 0.391
      vertex 43.7993 33.2109 0.391
    endloop
  endfacet
  facet normal -0.0947724 0.995499 0
    outer loop
      vertex 43.281 33.1783 0.091
      vertex 43.5373 33.2027 0.391
      vertex 43.5373 33.2027 0.091
    endloop
  endfacet
  facet normal -0.0947724 0.995499 0
    outer loop
      vertex 43.281 33.1783 0.091
      vertex 43.281 33.1783 0.391
      vertex 43.5373 33.2027 0.391
    endloop
  endfacet
  facet normal -0.160372 0.987057 0
    outer loop
      vertex 43.0305 33.1376 0.091
      vertex 43.281 33.1783 0.391
      vertex 43.281 33.1783 0.091
    endloop
  endfacet
  facet normal -0.160372 0.987057 0
    outer loop
      vertex 43.0305 33.1376 0.091
      vertex 43.0305 33.1376 0.391
      vertex 43.281 33.1783 0.391
    endloop
  endfacet
  facet normal -0.227066 0.973879 0
    outer loop
      vertex 42.7856 33.0805 0.091
      vertex 43.0305 33.1376 0.391
      vertex 43.0305 33.1376 0.091
    endloop
  endfacet
  facet normal -0.227066 0.973879 0
    outer loop
      vertex 42.7856 33.0805 0.091
      vertex 42.7856 33.0805 0.391
      vertex 43.0305 33.1376 0.391
    endloop
  endfacet
  facet normal -0.293102 0.956081 0
    outer loop
      vertex 42.5465 33.0072 0.091
      vertex 42.7856 33.0805 0.391
      vertex 42.7856 33.0805 0.091
    endloop
  endfacet
  facet normal -0.293102 0.956081 0
    outer loop
      vertex 42.5465 33.0072 0.091
      vertex 42.5465 33.0072 0.391
      vertex 42.7856 33.0805 0.391
    endloop
  endfacet
  facet normal -0.358256 0.933624 0
    outer loop
      vertex 42.313 32.9176 0.091
      vertex 42.5465 33.0072 0.391
      vertex 42.5465 33.0072 0.091
    endloop
  endfacet
  facet normal -0.358256 0.933624 0
    outer loop
      vertex 42.313 32.9176 0.091
      vertex 42.313 32.9176 0.391
      vertex 42.5465 33.0072 0.391
    endloop
  endfacet
  facet normal -0.421708 0.906732 0
    outer loop
      vertex 42.0853 32.8117 0.091
      vertex 42.313 32.9176 0.391
      vertex 42.313 32.9176 0.091
    endloop
  endfacet
  facet normal -0.421708 0.906732 0
    outer loop
      vertex 42.0853 32.8117 0.091
      vertex 42.0853 32.8117 0.391
      vertex 42.313 32.9176 0.391
    endloop
  endfacet
  facet normal -0.482222 0.876049 0
    outer loop
      vertex 41.8633 32.6895 0.091
      vertex 42.0853 32.8117 0.391
      vertex 42.0853 32.8117 0.091
    endloop
  endfacet
  facet normal -0.482222 0.876049 0
    outer loop
      vertex 41.8633 32.6895 0.091
      vertex 41.8633 32.6895 0.391
      vertex 42.0853 32.8117 0.391
    endloop
  endfacet
  facet normal -0.539242 0.842151 0
    outer loop
      vertex 41.647 32.551 0.091
      vertex 41.8633 32.6895 0.391
      vertex 41.8633 32.6895 0.091
    endloop
  endfacet
  facet normal -0.539242 0.842151 0
    outer loop
      vertex 41.647 32.551 0.091
      vertex 41.647 32.551 0.391
      vertex 41.8633 32.6895 0.391
    endloop
  endfacet
  facet normal -0.59201 0.80593 0
    outer loop
      vertex 41.4364 32.3963 0.091
      vertex 41.647 32.551 0.391
      vertex 41.647 32.551 0.091
    endloop
  endfacet
  facet normal -0.59201 0.80593 0
    outer loop
      vertex 41.4364 32.3963 0.091
      vertex 41.4364 32.3963 0.391
      vertex 41.647 32.551 0.391
    endloop
  endfacet
  facet normal -0.640958 0.767576 0
    outer loop
      vertex 41.2315 32.2252 0.091
      vertex 41.4364 32.3963 0.391
      vertex 41.4364 32.3963 0.091
    endloop
  endfacet
  facet normal -0.640958 0.767576 0
    outer loop
      vertex 41.2315 32.2252 0.091
      vertex 41.2315 32.2252 0.391
      vertex 41.4364 32.3963 0.391
    endloop
  endfacet
  facet normal -0.685205 0.72835 0
    outer loop
      vertex 41.0323 32.0378 0.091
      vertex 41.2315 32.2252 0.391
      vertex 41.2315 32.2252 0.091
    endloop
  endfacet
  facet normal -0.685205 0.72835 0
    outer loop
      vertex 41.0323 32.0378 0.091
      vertex 41.0323 32.0378 0.391
      vertex 41.2315 32.2252 0.391
    endloop
  endfacet
  facet normal -0.725035 0.688712 0
    outer loop
      vertex 40.8389 31.8342 0.091
      vertex 41.0323 32.0378 0.391
      vertex 41.0323 32.0378 0.091
    endloop
  endfacet
  facet normal -0.725035 0.688712 0
    outer loop
      vertex 40.8389 31.8342 0.091
      vertex 40.8389 31.8342 0.391
      vertex 41.0323 32.0378 0.391
    endloop
  endfacet
  facet normal -0.761153 0.648573 0
    outer loop
      vertex 40.6557 31.6192 0.091
      vertex 40.8389 31.8342 0.391
      vertex 40.8389 31.8342 0.091
    endloop
  endfacet
  facet normal -0.761153 0.648573 0
    outer loop
      vertex 40.6557 31.6192 0.091
      vertex 40.6557 31.6192 0.391
      vertex 40.8389 31.8342 0.391
    endloop
  endfacet
  facet normal -0.795448 0.606022 0
    outer loop
      vertex 40.4871 31.3979 0.091
      vertex 40.6557 31.6192 0.391
      vertex 40.6557 31.6192 0.091
    endloop
  endfacet
  facet normal -0.795448 0.606022 0
    outer loop
      vertex 40.4871 31.3979 0.091
      vertex 40.4871 31.3979 0.391
      vertex 40.6557 31.6192 0.391
    endloop
  endfacet
  facet normal -0.828676 0.559729 0
    outer loop
      vertex 40.3333 31.1702 0.091
      vertex 40.4871 31.3979 0.391
      vertex 40.4871 31.3979 0.091
    endloop
  endfacet
  facet normal -0.828676 0.559729 0
    outer loop
      vertex 40.3333 31.1702 0.091
      vertex 40.3333 31.1702 0.391
      vertex 40.4871 31.3979 0.391
    endloop
  endfacet
  facet normal -0.859366 0.511361 0
    outer loop
      vertex 40.194 30.9361 0.091
      vertex 40.3333 31.1702 0.391
      vertex 40.3333 31.1702 0.091
    endloop
  endfacet
  facet normal -0.859366 0.511361 0
    outer loop
      vertex 40.194 30.9361 0.091
      vertex 40.194 30.9361 0.391
      vertex 40.3333 31.1702 0.391
    endloop
  endfacet
  facet normal -0.887984 0.459875 0
    outer loop
      vertex 40.0695 30.6957 0.091
      vertex 40.194 30.9361 0.391
      vertex 40.194 30.9361 0.091
    endloop
  endfacet
  facet normal -0.887984 0.459875 0
    outer loop
      vertex 40.0695 30.6957 0.091
      vertex 40.0695 30.6957 0.391
      vertex 40.194 30.9361 0.391
    endloop
  endfacet
  facet normal -0.913384 0.4071 0
    outer loop
      vertex 39.9595 30.4489 0.091
      vertex 40.0695 30.6957 0.391
      vertex 40.0695 30.6957 0.091
    endloop
  endfacet
  facet normal -0.913384 0.4071 0
    outer loop
      vertex 39.9595 30.4489 0.091
      vertex 39.9595 30.4489 0.391
      vertex 40.0695 30.6957 0.391
    endloop
  endfacet
  facet normal -0.935979 0.352055 0
    outer loop
      vertex 39.8643 30.1958 0.091
      vertex 39.9595 30.4489 0.391
      vertex 39.9595 30.4489 0.091
    endloop
  endfacet
  facet normal -0.935979 0.352055 0
    outer loop
      vertex 39.8643 30.1958 0.091
      vertex 39.8643 30.1958 0.391
      vertex 39.9595 30.4489 0.391
    endloop
  endfacet
  facet normal -0.954996 0.296619 0
    outer loop
      vertex 39.7837 29.9363 0.091
      vertex 39.8643 30.1958 0.391
      vertex 39.8643 30.1958 0.091
    endloop
  endfacet
  facet normal -0.954996 0.296619 0
    outer loop
      vertex 39.7837 29.9363 0.091
      vertex 39.7837 29.9363 0.391
      vertex 39.8643 30.1958 0.391
    endloop
  endfacet
  facet normal -0.970528 0.240989 0
    outer loop
      vertex 39.7177 29.6705 0.091
      vertex 39.7837 29.9363 0.391
      vertex 39.7837 29.9363 0.091
    endloop
  endfacet
  facet normal -0.970528 0.240989 0
    outer loop
      vertex 39.7177 29.6705 0.091
      vertex 39.7177 29.6705 0.391
      vertex 39.7837 29.9363 0.391
    endloop
  endfacet
  facet normal -0.9827 0.185204 0
    outer loop
      vertex 39.6664 29.3983 0.091
      vertex 39.7177 29.6705 0.391
      vertex 39.7177 29.6705 0.091
    endloop
  endfacet
  facet normal -0.9827 0.185204 0
    outer loop
      vertex 39.6664 29.3983 0.091
      vertex 39.6664 29.3983 0.391
      vertex 39.7177 29.6705 0.391
    endloop
  endfacet
  facet normal -0.991481 0.130252 0
    outer loop
      vertex 39.6298 29.1197 0.091
      vertex 39.6664 29.3983 0.391
      vertex 39.6664 29.3983 0.091
    endloop
  endfacet
  facet normal -0.991481 0.130252 0
    outer loop
      vertex 39.6298 29.1197 0.091
      vertex 39.6298 29.1197 0.391
      vertex 39.6664 29.3983 0.391
    endloop
  endfacet
  facet normal -0.997032 0.0769909 0
    outer loop
      vertex 39.6078 28.8348 0.091
      vertex 39.6298 29.1197 0.391
      vertex 39.6298 29.1197 0.091
    endloop
  endfacet
  facet normal -0.997032 0.0769909 0
    outer loop
      vertex 39.6078 28.8348 0.091
      vertex 39.6078 28.8348 0.391
      vertex 39.6298 29.1197 0.391
    endloop
  endfacet
  facet normal -0.999686 0.0250522 0
    outer loop
      vertex 39.6005 28.5435 0.091
      vertex 39.6078 28.8348 0.391
      vertex 39.6078 28.8348 0.091
    endloop
  endfacet
  facet normal -0.999686 0.0250522 0
    outer loop
      vertex 39.6005 28.5435 0.091
      vertex 39.6005 28.5435 0.391
      vertex 39.6078 28.8348 0.391
    endloop
  endfacet
  facet normal -1 0 0
    outer loop
      vertex 39.6005 -0.699997 0.091
      vertex 39.6005 28.5435 0.391
      vertex 39.6005 28.5435 0.091
    endloop
  endfacet
  facet normal -1 0 0
    outer loop
      vertex 39.6005 -0.699997 0.091
      vertex 39.6005 -0.699997 0.391
      vertex 39.6005 28.5435 0.391
    endloop
  endfacet
  facet normal 0 -1 0
    outer loop
      vertex 47.9987 -0.699997 0.091
      vertex 39.6005 -0.699997 0.391
      vertex 39.6005 -0.699997 0.091
    endloop
  endfacet
  facet normal 0 -1 0
    outer loop
      vertex 47.9987 -0.699997 0.091
      vertex 47.9987 -0.699997 0.391
      vertex 39.6005 -0.699997 0.391
    endloop
  endfacet
  facet normal 1 0 0
    outer loop
      vertex 47.9987 28.5435 0.091
      vertex 47.9987 -0.699997 0.391
      vertex 47.9987 -0.699997 0.091
    endloop
  endfacet
  facet normal 1 0 -0
    outer loop
      vertex 47.9987 28.5435 0.091
      vertex 47.9987 28.5435 0.391
      vertex 47.9987 -0.699997 0.391
    endloop
  endfacet
  facet normal 0.911318 0.411704 0
    outer loop
      vertex 15.1052 28.8348 0.091
      vertex 15.2368 28.5435 0.391
      vertex 15.2368 28.5435 0.091
    endloop
  endfacet
  facet normal 0.911318 0.411704 -0
    outer loop
      vertex 15.1052 28.8348 0.091
      vertex 15.1052 28.8348 0.391
      vertex 15.2368 28.5435 0.391
    endloop
  endfacet
  facet normal 0.901957 0.431825 0
    outer loop
      vertex 14.9688 29.1197 0.091
      vertex 15.1052 28.8348 0.391
      vertex 15.1052 28.8348 0.091
    endloop
  endfacet
  facet normal 0.901957 0.431825 -0
    outer loop
      vertex 14.9688 29.1197 0.091
      vertex 14.9688 29.1197 0.391
      vertex 15.1052 28.8348 0.391
    endloop
  endfacet
  facet normal 0.89211 0.451819 0
    outer loop
      vertex 14.8277 29.3983 0.091
      vertex 14.9688 29.1197 0.391
      vertex 14.9688 29.1197 0.091
    endloop
  endfacet
  facet normal 0.89211 0.451819 -0
    outer loop
      vertex 14.8277 29.3983 0.091
      vertex 14.8277 29.3983 0.391
      vertex 14.9688 29.1197 0.391
    endloop
  endfacet
  facet normal 0.881509 0.472167 0
    outer loop
      vertex 14.6819 29.6705 0.091
      vertex 14.8277 29.3983 0.391
      vertex 14.8277 29.3983 0.091
    endloop
  endfacet
  facet normal 0.881509 0.472167 -0
    outer loop
      vertex 14.6819 29.6705 0.091
      vertex 14.6819 29.6705 0.391
      vertex 14.8277 29.3983 0.391
    endloop
  endfacet
  facet normal 0.870191 0.492715 0
    outer loop
      vertex 14.5314 29.9363 0.091
      vertex 14.6819 29.6705 0.391
      vertex 14.6819 29.6705 0.091
    endloop
  endfacet
  facet normal 0.870191 0.492715 -0
    outer loop
      vertex 14.5314 29.9363 0.091
      vertex 14.5314 29.9363 0.391
      vertex 14.6819 29.6705 0.391
    endloop
  endfacet
  facet normal 0.858076 0.513523 0
    outer loop
      vertex 14.3761 30.1958 0.091
      vertex 14.5314 29.9363 0.391
      vertex 14.5314 29.9363 0.091
    endloop
  endfacet
  facet normal 0.858076 0.513523 -0
    outer loop
      vertex 14.3761 30.1958 0.091
      vertex 14.3761 30.1958 0.391
      vertex 14.5314 29.9363 0.391
    endloop
  endfacet
  facet normal 0.845267 0.534345 0
    outer loop
      vertex 14.2161 30.4489 0.091
      vertex 14.3761 30.1958 0.391
      vertex 14.3761 30.1958 0.091
    endloop
  endfacet
  facet normal 0.845267 0.534345 -0
    outer loop
      vertex 14.2161 30.4489 0.091
      vertex 14.2161 30.4489 0.391
      vertex 14.3761 30.1958 0.391
    endloop
  endfacet
  facet normal 0.831791 0.555089 0
    outer loop
      vertex 14.0514 30.6957 0.091
      vertex 14.2161 30.4489 0.391
      vertex 14.2161 30.4489 0.091
    endloop
  endfacet
  facet normal 0.831791 0.555089 -0
    outer loop
      vertex 14.0514 30.6957 0.091
      vertex 14.0514 30.6957 0.391
      vertex 14.2161 30.4489 0.391
    endloop
  endfacet
  facet normal 0.817439 0.576016 0
    outer loop
      vertex 13.882 30.9361 0.091
      vertex 14.0514 30.6957 0.391
      vertex 14.0514 30.6957 0.091
    endloop
  endfacet
  facet normal 0.817439 0.576016 -0
    outer loop
      vertex 13.882 30.9361 0.091
      vertex 13.882 30.9361 0.391
      vertex 14.0514 30.6957 0.391
    endloop
  endfacet
  facet normal 0.802256 0.59698 0
    outer loop
      vertex 13.7078 31.1702 0.091
      vertex 13.882 30.9361 0.391
      vertex 13.882 30.9361 0.091
    endloop
  endfacet
  facet normal 0.802256 0.59698 -0
    outer loop
      vertex 13.7078 31.1702 0.091
      vertex 13.7078 31.1702 0.391
      vertex 13.882 30.9361 0.391
    endloop
  endfacet
  facet normal 0.78633 0.617806 0
    outer loop
      vertex 13.5289 31.3979 0.091
      vertex 13.7078 31.1702 0.391
      vertex 13.7078 31.1702 0.091
    endloop
  endfacet
  facet normal 0.78633 0.617806 -0
    outer loop
      vertex 13.5289 31.3979 0.091
      vertex 13.5289 31.3979 0.391
      vertex 13.7078 31.1702 0.391
    endloop
  endfacet
  facet normal 0.769616 0.638507 0
    outer loop
      vertex 13.3453 31.6192 0.091
      vertex 13.5289 31.3979 0.391
      vertex 13.5289 31.3979 0.091
    endloop
  endfacet
  facet normal 0.769616 0.638507 -0
    outer loop
      vertex 13.3453 31.6192 0.091
      vertex 13.3453 31.6192 0.391
      vertex 13.5289 31.3979 0.391
    endloop
  endfacet
  facet normal 0.7521 0.659049 0
    outer loop
      vertex 13.1569 31.8342 0.091
      vertex 13.3453 31.6192 0.391
      vertex 13.3453 31.6192 0.091
    endloop
  endfacet
  facet normal 0.7521 0.659049 -0
    outer loop
      vertex 13.1569 31.8342 0.091
      vertex 13.1569 31.8342 0.391
      vertex 13.3453 31.6192 0.391
    endloop
  endfacet
  facet normal 0.725035 0.688712 0
    outer loop
      vertex 12.9635 32.0378 0.091
      vertex 13.1569 31.8342 0.391
      vertex 13.1569 31.8342 0.091
    endloop
  endfacet
  facet normal 0.725035 0.688712 -0
    outer loop
      vertex 12.9635 32.0378 0.091
      vertex 12.9635 32.0378 0.391
      vertex 13.1569 31.8342 0.391
    endloop
  endfacet
  facet normal 0.685205 0.72835 0
    outer loop
      vertex 12.7643 32.2252 0.091
      vertex 12.9635 32.0378 0.391
      vertex 12.9635 32.0378 0.091
    endloop
  endfacet
  facet normal 0.685205 0.72835 -0
    outer loop
      vertex 12.7643 32.2252 0.091
      vertex 12.7643 32.2252 0.391
      vertex 12.9635 32.0378 0.391
    endloop
  endfacet
  facet normal 0.640958 0.767576 0
    outer loop
      vertex 12.5594 32.3963 0.091
      vertex 12.7643 32.2252 0.391
      vertex 12.7643 32.2252 0.091
    endloop
  endfacet
  facet normal 0.640958 0.767576 -0
    outer loop
      vertex 12.5594 32.3963 0.091
      vertex 12.5594 32.3963 0.391
      vertex 12.7643 32.2252 0.391
    endloop
  endfacet
  facet normal 0.591828 0.806064 0
    outer loop
      vertex 12.3487 32.551 0.091
      vertex 12.5594 32.3963 0.391
      vertex 12.5594 32.3963 0.091
    endloop
  endfacet
  facet normal 0.591828 0.806064 -0
    outer loop
      vertex 12.3487 32.551 0.091
      vertex 12.3487 32.551 0.391
      vertex 12.5594 32.3963 0.391
    endloop
  endfacet
  facet normal 0.539242 0.842151 0
    outer loop
      vertex 12.1324 32.6895 0.091
      vertex 12.3487 32.551 0.391
      vertex 12.3487 32.551 0.091
    endloop
  endfacet
  facet normal 0.539242 0.842151 -0
    outer loop
      vertex 12.1324 32.6895 0.091
      vertex 12.1324 32.6895 0.391
      vertex 12.3487 32.551 0.391
    endloop
  endfacet
  facet normal 0.482055 0.876141 0
    outer loop
      vertex 11.9103 32.8117 0.091
      vertex 12.1324 32.6895 0.391
      vertex 12.1324 32.6895 0.091
    endloop
  endfacet
  facet normal 0.482055 0.876141 -0
    outer loop
      vertex 11.9103 32.8117 0.091
      vertex 11.9103 32.8117 0.391
      vertex 12.1324 32.6895 0.391
    endloop
  endfacet
  facet normal 0.421708 0.906732 0
    outer loop
      vertex 11.6826 32.9176 0.091
      vertex 11.9103 32.8117 0.391
      vertex 11.9103 32.8117 0.091
    endloop
  endfacet
  facet normal 0.421708 0.906732 -0
    outer loop
      vertex 11.6826 32.9176 0.091
      vertex 11.6826 32.9176 0.391
      vertex 11.9103 32.8117 0.391
    endloop
  endfacet
  facet normal 0.358256 0.933624 0
    outer loop
      vertex 11.4491 33.0072 0.091
      vertex 11.6826 32.9176 0.391
      vertex 11.6826 32.9176 0.091
    endloop
  endfacet
  facet normal 0.358256 0.933624 -0
    outer loop
      vertex 11.4491 33.0072 0.091
      vertex 11.4491 33.0072 0.391
      vertex 11.6826 32.9176 0.391
    endloop
  endfacet
  facet normal 0.29299 0.956115 0
    outer loop
      vertex 11.2099 33.0805 0.091
      vertex 11.4491 33.0072 0.391
      vertex 11.4491 33.0072 0.091
    endloop
  endfacet
  facet normal 0.29299 0.956115 -0
    outer loop
      vertex 11.2099 33.0805 0.091
      vertex 11.2099 33.0805 0.391
      vertex 11.4491 33.0072 0.391
    endloop
  endfacet
  facet normal 0.227066 0.973879 0
    outer loop
      vertex 10.965 33.1376 0.091
      vertex 11.2099 33.0805 0.391
      vertex 11.2099 33.0805 0.091
    endloop
  endfacet
  facet normal 0.227066 0.973879 -0
    outer loop
      vertex 10.965 33.1376 0.091
      vertex 10.965 33.1376 0.391
      vertex 11.2099 33.0805 0.391
    endloop
  endfacet
  facet normal 0.160247 0.987077 0
    outer loop
      vertex 10.7143 33.1783 0.091
      vertex 10.965 33.1376 0.391
      vertex 10.965 33.1376 0.091
    endloop
  endfacet
  facet normal 0.160247 0.987077 -0
    outer loop
      vertex 10.7143 33.1783 0.091
      vertex 10.7143 33.1783 0.391
      vertex 10.965 33.1376 0.391
    endloop
  endfacet
  facet normal 0.0947724 0.995499 0
    outer loop
      vertex 10.458 33.2027 0.091
      vertex 10.7143 33.1783 0.391
      vertex 10.7143 33.1783 0.091
    endloop
  endfacet
  facet normal 0.0947724 0.995499 -0
    outer loop
      vertex 10.458 33.2027 0.091
      vertex 10.458 33.2027 0.391
      vertex 10.7143 33.1783 0.391
    endloop
  endfacet
  facet normal 0.0312705 0.999511 0
    outer loop
      vertex 10.1959 33.2109 0.091
      vertex 10.458 33.2027 0.391
      vertex 10.458 33.2027 0.091
    endloop
  endfacet
  facet normal 0.0312705 0.999511 -0
    outer loop
      vertex 10.1959 33.2109 0.091
      vertex 10.1959 33.2109 0.391
      vertex 10.458 33.2027 0.391
    endloop
  endfacet
  facet normal -0.0312657 0.999511 0
    outer loop
      vertex 9.93376 33.2027 0.091
      vertex 10.1959 33.2109 0.391
      vertex 10.1959 33.2109 0.091
    endloop
  endfacet
  facet normal -0.0312657 0.999511 0
    outer loop
      vertex 9.93376 33.2027 0.091
      vertex 9.93376 33.2027 0.391
      vertex 10.1959 33.2109 0.391
    endloop
  endfacet
  facet normal -0.0947212 0.995504 0
    outer loop
      vertex 9.67732 33.1783 0.091
      vertex 9.93376 33.2027 0.391
      vertex 9.93376 33.2027 0.091
    endloop
  endfacet
  facet normal -0.0947212 0.995504 0
    outer loop
      vertex 9.67732 33.1783 0.091
      vertex 9.67732 33.1783 0.391
      vertex 9.93376 33.2027 0.391
    endloop
  endfacet
  facet normal -0.160247 0.987077 0
    outer loop
      vertex 9.42662 33.1376 0.091
      vertex 9.67732 33.1783 0.391
      vertex 9.67732 33.1783 0.091
    endloop
  endfacet
  facet normal -0.160247 0.987077 0
    outer loop
      vertex 9.42662 33.1376 0.091
      vertex 9.42662 33.1376 0.391
      vertex 9.67732 33.1783 0.391
    endloop
  endfacet
  facet normal -0.226996 0.973896 0
    outer loop
      vertex 9.18164 33.0805 0.091
      vertex 9.42662 33.1376 0.391
      vertex 9.42662 33.1376 0.091
    endloop
  endfacet
  facet normal -0.226996 0.973896 0
    outer loop
      vertex 9.18164 33.0805 0.091
      vertex 9.18164 33.0805 0.391
      vertex 9.42662 33.1376 0.391
    endloop
  endfacet
  facet normal -0.292912 0.956139 0
    outer loop
      vertex 8.94237 33.0072 0.091
      vertex 9.18164 33.0805 0.391
      vertex 9.18164 33.0805 0.091
    endloop
  endfacet
  facet normal -0.292912 0.956139 0
    outer loop
      vertex 8.94237 33.0072 0.091
      vertex 8.94237 33.0072 0.391
      vertex 9.18164 33.0805 0.391
    endloop
  endfacet
  facet normal -0.358202 0.933644 0
    outer loop
      vertex 8.70883 32.9176 0.091
      vertex 8.94237 33.0072 0.391
      vertex 8.94237 33.0072 0.091
    endloop
  endfacet
  facet normal -0.358202 0.933644 0
    outer loop
      vertex 8.70883 32.9176 0.091
      vertex 8.70883 32.9176 0.391
      vertex 8.94237 33.0072 0.391
    endloop
  endfacet
  facet normal -0.42154 0.90681 0
    outer loop
      vertex 8.48102 32.8117 0.091
      vertex 8.70883 32.9176 0.391
      vertex 8.70883 32.9176 0.091
    endloop
  endfacet
  facet normal -0.42154 0.90681 0
    outer loop
      vertex 8.48102 32.8117 0.091
      vertex 8.48102 32.8117 0.391
      vertex 8.70883 32.9176 0.391
    endloop
  endfacet
  facet normal -0.482038 0.87615 0
    outer loop
      vertex 8.25891 32.6895 0.091
      vertex 8.48102 32.8117 0.391
      vertex 8.48102 32.8117 0.091
    endloop
  endfacet
  facet normal -0.482038 0.87615 0
    outer loop
      vertex 8.25891 32.6895 0.091
      vertex 8.25891 32.6895 0.391
      vertex 8.48102 32.8117 0.391
    endloop
  endfacet
  facet normal -0.539118 0.84223 0
    outer loop
      vertex 8.04254 32.551 0.091
      vertex 8.25891 32.6895 0.391
      vertex 8.25891 32.6895 0.091
    endloop
  endfacet
  facet normal -0.539118 0.84223 0
    outer loop
      vertex 8.04254 32.551 0.091
      vertex 8.04254 32.551 0.391
      vertex 8.25891 32.6895 0.391
    endloop
  endfacet
  facet normal -0.591919 0.805997 0
    outer loop
      vertex 7.83189 32.3963 0.091
      vertex 8.04254 32.551 0.391
      vertex 8.04254 32.551 0.091
    endloop
  endfacet
  facet normal -0.591919 0.805997 0
    outer loop
      vertex 7.83189 32.3963 0.091
      vertex 7.83189 32.3963 0.391
      vertex 8.04254 32.551 0.391
    endloop
  endfacet
  facet normal -0.640921 0.767607 0
    outer loop
      vertex 7.62697 32.2252 0.091
      vertex 7.83189 32.3963 0.391
      vertex 7.83189 32.3963 0.091
    endloop
  endfacet
  facet normal -0.640921 0.767607 0
    outer loop
      vertex 7.62697 32.2252 0.091
      vertex 7.62697 32.2252 0.391
      vertex 7.83189 32.3963 0.391
    endloop
  endfacet
  facet normal -0.685187 0.728367 0
    outer loop
      vertex 7.42776 32.0378 0.091
      vertex 7.62697 32.2252 0.391
      vertex 7.62697 32.2252 0.091
    endloop
  endfacet
  facet normal -0.685187 0.728367 0
    outer loop
      vertex 7.42776 32.0378 0.091
      vertex 7.42776 32.0378 0.391
      vertex 7.62697 32.2252 0.391
    endloop
  endfacet
  facet normal -0.724893 0.688862 0
    outer loop
      vertex 7.23428 31.8342 0.091
      vertex 7.42776 32.0378 0.391
      vertex 7.42776 32.0378 0.091
    endloop
  endfacet
  facet normal -0.724893 0.688862 0
    outer loop
      vertex 7.23428 31.8342 0.091
      vertex 7.23428 31.8342 0.391
      vertex 7.42776 32.0378 0.391
    endloop
  endfacet
  facet normal -0.76103 0.648716 0
    outer loop
      vertex 7.05101 31.6192 0.091
      vertex 7.23428 31.8342 0.391
      vertex 7.23428 31.8342 0.091
    endloop
  endfacet
  facet normal -0.76103 0.648716 0
    outer loop
      vertex 7.05101 31.6192 0.091
      vertex 7.05101 31.6192 0.391
      vertex 7.23428 31.8342 0.391
    endloop
  endfacet
  facet normal -0.795414 0.606067 0
    outer loop
      vertex 6.88239 31.3979 0.091
      vertex 7.05101 31.6192 0.391
      vertex 7.05101 31.6192 0.091
    endloop
  endfacet
  facet normal -0.795414 0.606067 0
    outer loop
      vertex 6.88239 31.3979 0.091
      vertex 6.88239 31.3979 0.391
      vertex 7.05101 31.6192 0.391
    endloop
  endfacet
  facet normal -0.828389 0.560154 0
    outer loop
      vertex 6.72842 31.1702 0.091
      vertex 6.88239 31.3979 0.391
      vertex 6.88239 31.3979 0.091
    endloop
  endfacet
  facet normal -0.828389 0.560154 0
    outer loop
      vertex 6.72842 31.1702 0.091
      vertex 6.72842 31.1702 0.391
      vertex 6.88239 31.3979 0.391
    endloop
  endfacet
  facet normal -0.85935 0.511388 0
    outer loop
      vertex 6.58911 30.9361 0.091
      vertex 6.72842 31.1702 0.391
      vertex 6.72842 31.1702 0.091
    endloop
  endfacet
  facet normal -0.85935 0.511388 0
    outer loop
      vertex 6.58911 30.9361 0.091
      vertex 6.58911 30.9361 0.391
      vertex 6.72842 31.1702 0.391
    endloop
  endfacet
  facet normal -0.887803 0.460224 0
    outer loop
      vertex 6.46449 30.6957 0.091
      vertex 6.58911 30.9361 0.391
      vertex 6.58911 30.9361 0.091
    endloop
  endfacet
  facet normal -0.887803 0.460224 0
    outer loop
      vertex 6.46449 30.6957 0.091
      vertex 6.46449 30.6957 0.391
      vertex 6.58911 30.9361 0.391
    endloop
  endfacet
  facet normal -0.913411 0.407038 0
    outer loop
      vertex 6.35451 30.4489 0.091
      vertex 6.46449 30.6957 0.391
      vertex 6.46449 30.6957 0.091
    endloop
  endfacet
  facet normal -0.913411 0.407038 0
    outer loop
      vertex 6.35451 30.4489 0.091
      vertex 6.35451 30.4489 0.391
      vertex 6.46449 30.6957 0.391
    endloop
  endfacet
  facet normal -0.935833 0.352444 0
    outer loop
      vertex 6.25919 30.1958 0.091
      vertex 6.35451 30.4489 0.391
      vertex 6.35451 30.4489 0.091
    endloop
  endfacet
  facet normal -0.935833 0.352444 0
    outer loop
      vertex 6.25919 30.1958 0.091
      vertex 6.25919 30.1958 0.391
      vertex 6.35451 30.4489 0.391
    endloop
  endfacet
  facet normal -0.954965 0.29672 0
    outer loop
      vertex 6.17856 29.9363 0.091
      vertex 6.25919 30.1958 0.391
      vertex 6.25919 30.1958 0.091
    endloop
  endfacet
  facet normal -0.954965 0.29672 0
    outer loop
      vertex 6.17856 29.9363 0.091
      vertex 6.17856 29.9363 0.391
      vertex 6.25919 30.1958 0.391
    endloop
  endfacet
  facet normal -0.970528 0.240989 0
    outer loop
      vertex 6.11256 29.6705 0.091
      vertex 6.17856 29.9363 0.391
      vertex 6.17856 29.9363 0.091
    endloop
  endfacet
  facet normal -0.970528 0.240989 0
    outer loop
      vertex 6.11256 29.6705 0.091
      vertex 6.11256 29.6705 0.391
      vertex 6.17856 29.9363 0.391
    endloop
  endfacet
  facet normal -0.982694 0.185239 0
    outer loop
      vertex 6.06125 29.3983 0.091
      vertex 6.11256 29.6705 0.391
      vertex 6.11256 29.6705 0.091
    endloop
  endfacet
  facet normal -0.982694 0.185239 0
    outer loop
      vertex 6.06125 29.3983 0.091
      vertex 6.06125 29.3983 0.391
      vertex 6.11256 29.6705 0.391
    endloop
  endfacet
  facet normal -0.991458 0.130427 0
    outer loop
      vertex 6.0246 29.1197 0.091
      vertex 6.06125 29.3983 0.391
      vertex 6.06125 29.3983 0.091
    endloop
  endfacet
  facet normal -0.991458 0.130427 0
    outer loop
      vertex 6.0246 29.1197 0.091
      vertex 6.0246 29.1197 0.391
      vertex 6.06125 29.3983 0.391
    endloop
  endfacet
  facet normal -0.997029 0.0770257 0
    outer loop
      vertex 6.00259 28.8348 0.091
      vertex 6.0246 29.1197 0.391
      vertex 6.0246 29.1197 0.091
    endloop
  endfacet
  facet normal -0.997029 0.0770257 0
    outer loop
      vertex 6.00259 28.8348 0.091
      vertex 6.00259 28.8348 0.391
      vertex 6.0246 29.1197 0.391
    endloop
  endfacet
  facet normal -0.999683 0.0251894 0
    outer loop
      vertex 5.99525 28.5435 0.091
      vertex 6.00259 28.8348 0.391
      vertex 6.00259 28.8348 0.091
    endloop
  endfacet
  facet normal -0.999683 0.0251894 0
    outer loop
      vertex 5.99525 28.5435 0.091
      vertex 5.99525 28.5435 0.391
      vertex 6.00259 28.8348 0.391
    endloop
  endfacet
  facet normal -1 0 0
    outer loop
      vertex 5.99525 -0.699997 0.091
      vertex 5.99525 28.5435 0.391
      vertex 5.99525 28.5435 0.091
    endloop
  endfacet
  facet normal -1 0 0
    outer loop
      vertex 5.99525 -0.699997 0.091
      vertex 5.99525 -0.699997 0.391
      vertex 5.99525 28.5435 0.391
    endloop
  endfacet
  facet normal 0 -1 0
    outer loop
      vertex 14.3935 -0.699997 0.091
      vertex 5.99525 -0.699997 0.391
      vertex 5.99525 -0.699997 0.091
    endloop
  endfacet
  facet normal 0 -1 0
    outer loop
      vertex 14.3935 -0.699997 0.091
      vertex 14.3935 -0.699997 0.391
      vertex 5.99525 -0.699997 0.391
    endloop
  endfacet
  facet normal 1 0 0
    outer loop
      vertex 14.3935 11.7872 0.091
      vertex 14.3935 -0.699997 0.391
      vertex 14.3935 -0.699997 0.091
    endloop
  endfacet
  facet normal 1 0 -0
    outer loop
      vertex 14.3935 11.7872 0.091
      vertex 14.3935 11.7872 0.391
      vertex 14.3935 -0.699997 0.391
    endloop
  endfacet
  facet normal -0.874464 -0.48509 0
    outer loop
      vertex 21.3205 -0.699997 0.091
      vertex 14.3935 11.7872 0.391
      vertex 14.3935 11.7872 0.091
    endloop
  endfacet
  facet normal -0.874464 -0.48509 0
    outer loop
      vertex 21.3205 -0.699997 0.091
      vertex 21.3205 -0.699997 0.391
      vertex 14.3935 11.7872 0.391
    endloop
  endfacet
  facet normal 0 -1 0
    outer loop
      vertex 31.4591 -0.699997 0.091
      vertex 21.3205 -0.699997 0.391
      vertex 21.3205 -0.699997 0.091
    endloop
  endfacet
  facet normal 0 -1 0
    outer loop
      vertex 31.4591 -0.699997 0.091
      vertex 31.4591 -0.699997 0.391
      vertex 21.3205 -0.699997 0.391
    endloop
  endfacet
  facet normal 0.874463 0.485092 0
    outer loop
      vertex 15.2368 28.5435 0.091
      vertex 31.4591 -0.699997 0.391
      vertex 31.4591 -0.699997 0.091
    endloop
  endfacet
  facet normal 0.874463 0.485092 -0
    outer loop
      vertex 15.2368 28.5435 0.091
      vertex 15.2368 28.5435 0.391
      vertex 31.4591 -0.699997 0.391
    endloop
  endfacet
endsolid OpenSCAD_Model
