solid OpenSCAD_Model
  facet normal 0.9996834001261318 0.02516146880164917 0
    outer loop
      vertex 30.596282929182053 28.834772549569607 0.09099999999999997
      vertex 30.603614397346973 28.54348800331354 0.39099999999999996
      vertex 30.603614397346973 28.54348800331354 0.09099999999999997
    endloop
  endfacet
  facet normal 0.9996834001261318 0.02516146880164917 0
    outer loop
      vertex 30.596282929182053 28.834772549569607 0.09099999999999997
      vertex 30.596282929182053 28.834772549569607 0.39099999999999996
      vertex 30.603614397346973 28.54348800331354 0.39099999999999996
    endloop
  endfacet
  facet normal 0.9970338260147017 0.0769646008401609 0
    outer loop
      vertex 30.57428850233555 29.11969818174839 0.09099999999999997
      vertex 30.596282929182053 28.834772549569607 0.39099999999999996
      vertex 30.596282929182053 28.834772549569607 0.09099999999999997
    endloop
  endfacet
  facet normal 0.9970338260147017 0.0769646008401609 0
    outer loop
      vertex 30.57428850233555 29.11969818174839 0.09099999999999997
      vertex 30.57428850233555 29.11969818174839 0.39099999999999996
      vertex 30.596282929182053 28.834772549569607 0.39099999999999996
    endloop
  endfacet
  facet normal 0.991452520817162 0.13046799977502158 0
    outer loop
      vertex 30.537631131708622 29.39826489984989 0.09099999999999997
      vertex 30.57428850233555 29.11969818174839 0.39099999999999996
      vertex 30.57428850233555 29.11969818174839 0.09099999999999997
    endloop
  endfacet
  facet normal 0.991452520817162 0.13046799977502158 0
    outer loop
      vertex 30.537631131708622 29.39826489984989 0.09099999999999997
      vertex 30.537631131708622 29.39826489984989 0.39099999999999996
      vertex 30.57428850233555 29.11969818174839 0.39099999999999996
    endloop
  endfacet
  facet normal 0.9826877181062735 0.1852696647675622 0
    outer loop
      vertex 30.486310809850693 29.67047271132469 0.09099999999999997
      vertex 30.537631131708622 29.39826489984989 0.39099999999999996
      vertex 30.537631131708622 29.39826489984989 0.09099999999999997
    endloop
  endfacet
  facet normal 0.9826877181062735 0.1852696647675622 0
    outer loop
      vertex 30.486310809850693 29.67047271132469 0.09099999999999997
      vertex 30.486310809850693 29.67047271132469 0.39099999999999996
      vertex 30.537631131708622 29.39826489984989 0.39099999999999996
    endloop
  endfacet
  facet normal 0.9705525270180491 0.24088958528520724 0
    outer loop
      vertex 30.42032753676176 29.93632161617279 0.09099999999999997
      vertex 30.486310809850693 29.67047271132469 0.39099999999999996
      vertex 30.486310809850693 29.67047271132469 0.09099999999999997
    endloop
  endfacet
  facet normal 0.9705525270180491 0.24088958528520724 0
    outer loop
      vertex 30.42032753676176 29.93632161617279 0.09099999999999997
      vertex 30.42032753676176 29.93632161617279 0.39099999999999996
      vertex 30.486310809850693 29.67047271132469 0.39099999999999996
    endloop
  endfacet
  facet normal 0.954944412834172 0.2967847172561258 0
    outer loop
      vertex 30.339681312441826 30.195811599493027 0.09099999999999997
      vertex 30.42032753676176 29.93632161617279 0.39099999999999996
      vertex 30.42032753676176 29.93632161617279 0.09099999999999997
    endloop
  endfacet
  facet normal 0.954944412834172 0.2967847172561258 0
    outer loop
      vertex 30.339681312441826 30.195811599493027 0.09099999999999997
      vertex 30.339681312441826 30.195811599493027 0.39099999999999996
      vertex 30.42032753676176 29.93632161617279 0.39099999999999996
    endloop
  endfacet
  facet normal 0.9358603711435561 0.3523710625506091 0
    outer loop
      vertex 30.24437215179205 30.44894267618656 0.09099999999999997
      vertex 30.339681312441826 30.195811599493027 0.39099999999999996
      vertex 30.339681312441826 30.195811599493027 0.09099999999999997
    endloop
  endfacet
  facet normal 0.9358603711435561 0.3523710625506091 0
    outer loop
      vertex 30.24437215179205 30.44894267618656 0.09099999999999997
      vertex 30.24437215179205 30.44894267618656 0.39099999999999996
      vertex 30.339681312441826 30.195811599493027 0.39099999999999996
    endloop
  endfacet
  facet normal 0.9134050214192186 0.4070519215605751 0
    outer loop
      vertex 30.13440003246069 30.695714846253395 0.09099999999999997
      vertex 30.24437215179205 30.44894267618656 0.39099999999999996
      vertex 30.24437215179205 30.44894267618656 0.09099999999999997
    endloop
  endfacet
  facet normal 0.9134050214192186 0.4070519215605751 0
    outer loop
      vertex 30.13440003246069 30.695714846253395 0.09099999999999997
      vertex 30.13440003246069 30.695714846253395 0.39099999999999996
      vertex 30.24437215179205 30.44894267618656 0.39099999999999996
    endloop
  endfacet
  facet normal 0.8877902190428801 0.4602483318511811 0
    outer loop
      vertex 30.009764961898327 30.936128094792366 0.09099999999999997
      vertex 30.13440003246069 30.695714846253395 0.39099999999999996
      vertex 30.13440003246069 30.695714846253395 0.09099999999999997
    endloop
  endfacet
  facet normal 0.8877902190428801 0.4602483318511811 0
    outer loop
      vertex 30.009764961898327 30.936128094792366 0.09099999999999997
      vertex 30.009764961898327 30.936128094792366 0.39099999999999996
      vertex 30.13440003246069 30.695714846253395 0.39099999999999996
    endloop
  endfacet
  facet normal 0.8593252259149952 0.511429522130022 0
    outer loop
      vertex 29.87046694010496 31.170182444155216 0.09099999999999997
      vertex 30.009764961898327 30.936128094792366 0.39099999999999996
      vertex 30.009764961898327 30.936128094792366 0.09099999999999997
    endloop
  endfacet
  facet normal 0.8593252259149952 0.511429522130022 0
    outer loop
      vertex 29.87046694010496 31.170182444155216 0.09099999999999997
      vertex 29.87046694010496 31.170182444155216 0.39099999999999996
      vertex 30.009764961898327 30.936128094792366 0.39099999999999996
    endloop
  endfacet
  facet normal 0.8283987208940542 0.5601388749418263 0
    outer loop
      vertex 29.716505981981754 31.397877871990204 0.09099999999999997
      vertex 29.87046694010496 31.170182444155216 0.39099999999999996
      vertex 29.87046694010496 31.170182444155216 0.09099999999999997
    endloop
  endfacet
  facet normal 0.8283987208940542 0.5601388749418263 0
    outer loop
      vertex 29.716505981981754 31.397877871990204 0.09099999999999997
      vertex 29.716505981981754 31.397877871990204 0.39099999999999996
      vertex 29.87046694010496 31.170182444155216 0.39099999999999996
    endloop
  endfacet
  facet normal 0.7954549913509614 0.6060126704408431 0
    outer loop
      vertex 29.547882065176964 31.61921439319849 0.09099999999999997
      vertex 29.716505981981754 31.397877871990204 0.39099999999999996
      vertex 29.716505981981754 31.397877871990204 0.09099999999999997
    endloop
  endfacet
  facet normal 0.7954549913509614 0.6060126704408431 0
    outer loop
      vertex 29.547882065176964 31.61921439319849 0.09099999999999997
      vertex 29.547882065176964 31.61921439319849 0.39099999999999996
      vertex 29.716505981981754 31.397877871990204 0.39099999999999996
    endloop
  endfacet
  facet normal 0.7609674486082681 0.6487900601570765 0
    outer loop
      vertex 29.36459520459175 31.834192000329494 0.09099999999999997
      vertex 29.547882065176964 31.61921439319849 0.39099999999999996
      vertex 29.547882065176964 31.61921439319849 0.09099999999999997
    endloop
  endfacet
  facet normal 0.7609674486082681 0.6487900601570765 0
    outer loop
      vertex 29.36459520459175 31.834192000329494 0.09099999999999997
      vertex 29.36459520459175 31.834192000329494 0.39099999999999996
      vertex 29.547882065176964 31.61921439319849 0.39099999999999996
    endloop
  endfacet
  facet normal 0.7251503436515556 0.6885905743633374 0
    outer loop
      vertex 29.17121061682701 32.03784407675266 0.09099999999999997
      vertex 29.36459520459175 31.834192000329494 0.39099999999999996
      vertex 29.36459520459175 31.834192000329494 0.09099999999999997
    endloop
  endfacet
  facet normal 0.7251503436515556 0.6885905743633374 0
    outer loop
      vertex 29.17121061682701 32.03784407675266 0.09099999999999997
      vertex 29.17121061682701 32.03784407675266 0.39099999999999996
      vertex 29.36459520459175 31.834192000329494 0.39099999999999996
    endloop
  endfacet
  facet normal 0.6852958317673876 0.7282648027759163 0
    outer loop
      vertex 28.972102999687195 32.22520397603512 0.09099999999999997
      vertex 29.17121061682701 32.03784407675266 0.39099999999999996
      vertex 29.17121061682701 32.03784407675266 0.09099999999999997
    endloop
  endfacet
  facet normal 0.6852958317673876 0.7282648027759163 0
    outer loop
      vertex 28.972102999687195 32.22520397603512 0.09099999999999997
      vertex 28.972102999687195 32.22520397603512 0.39099999999999996
      vertex 29.17121061682701 32.03784407675266 0.39099999999999996
    endloop
  endfacet
  facet normal 0.6410145436110356 0.7675287322824701 0
    outer loop
      vertex 28.767272375524044 32.3962717205286 0.09099999999999997
      vertex 28.972102999687195 32.22520397603512 0.39099999999999996
      vertex 28.972102999687195 32.22520397603512 0.09099999999999997
    endloop
  endfacet
  facet normal 0.6410145436110356 0.7675287322824701 0
    outer loop
      vertex 28.767272375524044 32.3962717205286 0.09099999999999997
      vertex 28.767272375524044 32.3962717205286 0.39099999999999996
      vertex 28.972102999687195 32.22520397603512 0.39099999999999996
    endloop
  endfacet
  facet normal 0.5922829524406092 0.8057300442755223 0
    outer loop
      vertex 28.556718736886978 32.551047295331955 0.09099999999999997
      vertex 28.767272375524044 32.3962717205286 0.39099999999999996
      vertex 28.767272375524044 32.3962717205286 0.09099999999999997
    endloop
  endfacet
  facet normal 0.5922829524406092 0.8057300442755223 0
    outer loop
      vertex 28.556718736886978 32.551047295331955 0.09099999999999997
      vertex 28.556718736886978 32.551047295331955 0.39099999999999996
      vertex 28.767272375524044 32.3962717205286 0.39099999999999996
    endloop
  endfacet
  facet normal 0.5392369212005349 0.8421541087082387 0
    outer loop
      vertex 28.340442061424255 32.689530700445175 0.09099999999999997
      vertex 28.556718736886978 32.551047295331955 0.39099999999999996
      vertex 28.556718736886978 32.551047295331955 0.09099999999999997
    endloop
  endfacet
  facet normal 0.5392369212005349 0.8421541087082387 0
    outer loop
      vertex 28.340442061424255 32.689530700445175 0.09099999999999997
      vertex 28.340442061424255 32.689530700445175 0.39099999999999996
      vertex 28.556718736886978 32.551047295331955 0.39099999999999996
    endloop
  endfacet
  facet normal 0.4821956846503619 0.8760635374814824 0
    outer loop
      vertex 28.118442371487617 32.811721943318844 0.09099999999999997
      vertex 28.340442061424255 32.689530700445175 0.39099999999999996
      vertex 28.340442061424255 32.689530700445175 0.09099999999999997
    endloop
  endfacet
  facet normal 0.4821956846503619 0.8760635374814824 0
    outer loop
      vertex 28.118442371487617 32.811721943318844 0.09099999999999997
      vertex 28.118442371487617 32.811721943318844 0.39099999999999996
      vertex 28.340442061424255 32.689530700445175 0.39099999999999996
    endloop
  endfacet
  facet normal 0.4216703412000783 0.9067492064249131 0
    outer loop
      vertex 27.890719674527645 32.91762102395296 0.09099999999999997
      vertex 28.118442371487617 32.811721943318844 0.39099999999999996
      vertex 28.118442371487617 32.811721943318844 0.09099999999999997
    endloop
  endfacet
  facet normal 0.4216703412000783 0.9067492064249131 0
    outer loop
      vertex 27.890719674527645 32.91762102395296 0.09099999999999997
      vertex 27.890719674527645 32.91762102395296 0.39099999999999996
      vertex 28.118442371487617 32.811721943318844 0.39099999999999996
    endloop
  endfacet
  facet normal 0.358352228281338 0.933586461173147 0
    outer loop
      vertex 27.657273940742016 33.007227934896946 0.09099999999999997
      vertex 27.890719674527645 32.91762102395296 0.39099999999999996
      vertex 27.890719674527645 32.91762102395296 0.09099999999999997
    endloop
  endfacet
  facet normal 0.358352228281338 0.933586461173147 0
    outer loop
      vertex 27.657273940742016 33.007227934896946 0.09099999999999997
      vertex 27.657273940742016 33.007227934896946 0.39099999999999996
      vertex 27.890719674527645 32.91762102395296 0.39099999999999996
    endloop
  endfacet
  facet normal 0.29307908974838687 0.9560882005088531 0
    outer loop
      vertex 27.41810519248247 33.0805426761508 0.09099999999999997
      vertex 27.657273940742016 33.007227934896946 0.39099999999999996
      vertex 27.657273940742016 33.007227934896946 0.09099999999999997
    endloop
  endfacet
  facet normal 0.29307908974838687 0.9560882005088531 0
    outer loop
      vertex 27.41810519248247 33.0805426761508 0.09099999999999997
      vertex 27.41810519248247 33.0805426761508 0.39099999999999996
      vertex 27.657273940742016 33.007227934896946 0.39099999999999996
    endloop
  endfacet
  facet normal 0.22678138553962043 0.9739456879994542 0
    outer loop
      vertex 27.17321342229843 33.1375652551651 0.09099999999999997
      vertex 27.41810519248247 33.0805426761508 0.39099999999999996
      vertex 27.41810519248247 33.0805426761508 0.09099999999999997
    endloop
  endfacet
  facet normal 0.22678138553962043 0.9739456879994542 0
    outer loop
      vertex 27.17321342229843 33.1375652551651 0.09099999999999997
      vertex 27.17321342229843 33.1375652551651 0.39099999999999996
      vertex 27.41810519248247 33.0805426761508 0.39099999999999996
    endloop
  endfacet
  facet normal 0.16041722861163918 0.9870492960154327 0
    outer loop
      vertex 26.922598637640476 33.17829567193985 0.09099999999999997
      vertex 27.17321342229843 33.1375652551651 0.39099999999999996
      vertex 27.17321342229843 33.1375652551651 0.09099999999999997
    endloop
  endfacet
  facet normal 0.16041722861163918 0.9870492960154327 0
    outer loop
      vertex 26.922598637640476 33.17829567193985 0.09099999999999997
      vertex 26.922598637640476 33.17829567193985 0.39099999999999996
      vertex 27.17321342229843 33.1375652551651 0.39099999999999996
    endloop
  endfacet
  facet normal 0.09490577611684539 0.995486259905007 0
    outer loop
      vertex 26.666260823607445 33.20273391902447 0.09099999999999997
      vertex 26.922598637640476 33.17829567193985 0.39099999999999996
      vertex 26.922598637640476 33.17829567193985 0.09099999999999997
    endloop
  endfacet
  facet normal 0.09490577611684539 0.995486259905007 0
    outer loop
      vertex 26.666260823607445 33.20273391902447 0.09099999999999997
      vertex 26.666260823607445 33.20273391902447 0.39099999999999996
      vertex 26.922598637640476 33.17829567193985 0.39099999999999996
    endloop
  endfacet
  facet normal 0.031069703770141444 0.9995172202156578 0
    outer loop
      vertex 26.40420000255108 33.21088000386953 0.09099999999999997
      vertex 26.666260823607445 33.20273391902447 0.39099999999999996
      vertex 26.666260823607445 33.20273391902447 0.09099999999999997
    endloop
  endfacet
  facet normal 0.031069703770141444 0.9995172202156578 0
    outer loop
      vertex 26.40420000255108 33.21088000386953 0.09099999999999997
      vertex 26.40420000255108 33.21088000386953 0.39099999999999996
      vertex 26.666260823607445 33.20273391902447 0.39099999999999996
    endloop
  endfacet
  facet normal -0.03108012142651534 0.9995168963314791 0
    outer loop
      vertex 26.142227105796337 33.20273391902447 0.09099999999999997
      vertex 26.40420000255108 33.21088000386953 0.39099999999999996
      vertex 26.40420000255108 33.21088000386953 0.09099999999999997
    endloop
  endfacet
  facet normal -0.03108012142651534 0.9995168963314791 0
    outer loop
      vertex 26.142227105796337 33.20273391902447 0.09099999999999997
      vertex 26.142227105796337 33.20273391902447 0.39099999999999996
      vertex 26.40420000255108 33.21088000386953 0.39099999999999996
    endloop
  endfacet
  facet normal -0.09493267174211303 0.9954836954143971 0
    outer loop
      vertex 25.885962575674057 33.17829567193985 0.09099999999999997
      vertex 26.142227105796337 33.20273391902447 0.39099999999999996
      vertex 26.142227105796337 33.20273391902447 0.09099999999999997
    endloop
  endfacet
  facet normal -0.09493267174211303 0.9954836954143971 0
    outer loop
      vertex 25.885962575674057 33.17829567193985 0.09099999999999997
      vertex 25.885962575674057 33.17829567193985 0.39099999999999996
      vertex 26.142227105796337 33.20273391902447 0.39099999999999996
    endloop
  endfacet
  facet normal -0.16045379433343468 0.9870433525858952 0
    outer loop
      vertex 25.63540641218424 33.1375652551651 0.09099999999999997
      vertex 25.885962575674057 33.17829567193985 0.39099999999999996
      vertex 25.885962575674057 33.17829567193985 0.09099999999999997
    endloop
  endfacet
  facet normal -0.16045379433343468 0.9870433525858952 0
    outer loop
      vertex 25.63540641218424 33.1375652551651 0.09099999999999997
      vertex 25.63540641218424 33.1375652551651 0.39099999999999996
      vertex 25.885962575674057 33.17829567193985 0.39099999999999996
    endloop
  endfacet
  facet normal -0.22682001248666644 0.9739366929814014 0
    outer loop
      vertex 25.3905586078763 33.0805426761508 0.09099999999999997
      vertex 25.63540641218424 33.1375652551651 0.39099999999999996
      vertex 25.63540641218424 33.1375652551651 0.09099999999999997
    endloop
  endfacet
  facet normal -0.22682001248666644 0.9739366929814014 0
    outer loop
      vertex 25.3905586078763 33.0805426761508 0.09099999999999997
      vertex 25.3905586078763 33.0805426761508 0.39099999999999996
      vertex 25.63540641218424 33.1375652551651 0.39099999999999996
    endloop
  endfacet
  facet normal -0.29311192551508375 0.9560781344225168 0
    outer loop
      vertex 25.151419170200825 33.007227934896946 0.09099999999999997
      vertex 25.3905586078763 33.0805426761508 0.39099999999999996
      vertex 25.3905586078763 33.0805426761508 0.09099999999999997
    endloop
  endfacet
  facet normal -0.29311192551508375 0.9560781344225168 0
    outer loop
      vertex 25.151419170200825 33.007227934896946 0.09099999999999997
      vertex 25.151419170200825 33.007227934896946 0.39099999999999996
      vertex 25.3905586078763 33.0805426761508 0.39099999999999996
    endloop
  endfacet
  facet normal -0.35837184699338503 0.9335789303977193 0
    outer loop
      vertex 24.91798809915781 32.91762102395296 0.09099999999999997
      vertex 25.151419170200825 33.007227934896946 0.39099999999999996
      vertex 25.151419170200825 33.007227934896946 0.09099999999999997
    endloop
  endfacet
  facet normal -0.35837184699338503 0.9335789303977193 0
    outer loop
      vertex 24.91798809915781 32.91762102395296 0.09099999999999997
      vertex 24.91798809915781 32.91762102395296 0.39099999999999996
      vertex 25.151419170200825 33.007227934896946 0.39099999999999996
    endloop
  endfacet
  facet normal -0.42167032985699265 0.9067492116998476 0
    outer loop
      vertex 24.690265394747257 32.811721943318844 0.09099999999999997
      vertex 24.91798809915781 32.91762102395296 0.39099999999999996
      vertex 24.91798809915781 32.91762102395296 0.09099999999999997
    endloop
  endfacet
  facet normal -0.42167032985699265 0.9067492116998476 0
    outer loop
      vertex 24.690265394747257 32.811721943318844 0.09099999999999997
      vertex 24.690265394747257 32.811721943318844 0.39099999999999996
      vertex 24.91798809915781 32.91762102395296 0.39099999999999996
    endloop
  endfacet
  facet normal -0.4821712549596903 0.8760769834270259 0
    outer loop
      vertex 24.468251049518585 32.689530700445175 0.09099999999999997
      vertex 24.690265394747257 32.811721943318844 0.39099999999999996
      vertex 24.690265394747257 32.811721943318844 0.09099999999999997
    endloop
  endfacet
  facet normal -0.4821712549596903 0.8760769834270259 0
    outer loop
      vertex 24.468251049518585 32.689530700445175 0.09099999999999997
      vertex 24.468251049518585 32.689530700445175 0.39099999999999996
      vertex 24.690265394747257 32.811721943318844 0.39099999999999996
    endloop
  endfacet
  facet normal -0.5391851087700266 0.8421872823075961 0
    outer loop
      vertex 24.251945070922375 32.551047295331955 0.09099999999999997
      vertex 24.468251049518585 32.689530700445175 0.39099999999999996
      vertex 24.468251049518585 32.689530700445175 0.09099999999999997
    endloop
  endfacet
  facet normal -0.5391851087700266 0.8421872823075961 0
    outer loop
      vertex 24.251945070922375 32.551047295331955 0.09099999999999997
      vertex 24.251945070922375 32.551047295331955 0.39099999999999996
      vertex 24.468251049518585 32.689530700445175 0.39099999999999996
    endloop
  endfacet
  facet normal -0.5922026568040926 0.8057890625183333 0
    outer loop
      vertex 24.041347458958626 32.3962717205286 0.09099999999999997
      vertex 24.251945070922375 32.551047295331955 0.39099999999999996
      vertex 24.251945070922375 32.551047295331955 0.09099999999999997
    endloop
  endfacet
  facet normal -0.5922026568040926 0.8057890625183333 0
    outer loop
      vertex 24.041347458958626 32.3962717205286 0.09099999999999997
      vertex 24.041347458958626 32.3962717205286 0.39099999999999996
      vertex 24.251945070922375 32.551047295331955 0.39099999999999996
    endloop
  endfacet
  facet normal -0.6409064688590875 0.7676189798165334 0
    outer loop
      vertex 23.836458206176758 32.22520397603512 0.09099999999999997
      vertex 24.041347458958626 32.3962717205286 0.39099999999999996
      vertex 24.041347458958626 32.3962717205286 0.09099999999999997
    endloop
  endfacet
  facet normal -0.6409064688590875 0.7676189798165334 0
    outer loop
      vertex 23.836458206176758 32.22520397603512 0.09099999999999997
      vertex 23.836458206176758 32.22520397603512 0.39099999999999996
      vertex 24.041347458958626 32.3962717205286 0.39099999999999996
    endloop
  endfacet
  facet normal -0.6851620977360791 0.7283906231040429 0
    outer loop
      vertex 23.63727732002735 32.03784407675266 0.09099999999999997
      vertex 23.836458206176758 32.22520397603512 0.39099999999999996
      vertex 23.836458206176758 32.22520397603512 0.09099999999999997
    endloop
  endfacet
  facet normal -0.6851620977360791 0.7283906231040429 0
    outer loop
      vertex 23.63727732002735 32.03784407675266 0.09099999999999997
      vertex 23.63727732002735 32.03784407675266 0.39099999999999996
      vertex 23.836458206176758 32.22520397603512 0.39099999999999996
    endloop
  endfacet
  facet normal -0.7249940172453258 0.6887551632898911 0
    outer loop
      vertex 23.443804800510406 31.834192000329494 0.09099999999999997
      vertex 23.63727732002735 32.03784407675266 0.39099999999999996
      vertex 23.63727732002735 32.03784407675266 0.09099999999999997
    endloop
  endfacet
  facet normal -0.7249940172453258 0.6887551632898911 0
    outer loop
      vertex 23.443804800510406 31.834192000329494 0.09099999999999997
      vertex 23.443804800510406 31.834192000329494 0.39099999999999996
      vertex 23.63727732002735 32.03784407675266 0.39099999999999996
    endloop
  endfacet
  facet normal -0.7611275351946841 0.6486022472736777 0
    outer loop
      vertex 23.260609537363052 31.61921439319849 0.09099999999999997
      vertex 23.443804800510406 31.834192000329494 0.39099999999999996
      vertex 23.443804800510406 31.834192000329494 0.09099999999999997
    endloop
  endfacet
  facet normal -0.7611275351946841 0.6486022472736777 0
    outer loop
      vertex 23.260609537363052 31.61921439319849 0.09099999999999997
      vertex 23.260609537363052 31.61921439319849 0.39099999999999996
      vertex 23.443804800510406 31.834192000329494 0.39099999999999996
    endloop
  endfacet
  facet normal -0.7956009815120436 0.6058209951933599 0
    outer loop
      vertex 23.092069886624813 31.397877871990204 0.09099999999999997
      vertex 23.260609537363052 31.61921439319849 0.39099999999999996
      vertex 23.260609537363052 31.61921439319849 0.09099999999999997
    endloop
  endfacet
  facet normal -0.7956009815120436 0.6058209951933599 0
    outer loop
      vertex 23.092069886624813 31.397877871990204 0.09099999999999997
      vertex 23.092069886624813 31.397877871990204 0.39099999999999996
      vertex 23.260609537363052 31.61921439319849 0.39099999999999996
    endloop
  endfacet
  facet normal -0.8285286116188009 0.5599467293671981 0
    outer loop
      vertex 22.93818587064743 31.170182444155216 0.09099999999999997
      vertex 23.092069886624813 31.397877871990204 0.39099999999999996
      vertex 23.092069886624813 31.397877871990204 0.09099999999999997
    endloop
  endfacet
  facet normal -0.8285286116188009 0.5599467293671981 0
    outer loop
      vertex 22.93818587064743 31.170182444155216 0.09099999999999997
      vertex 22.93818587064743 31.170182444155216 0.39099999999999996
      vertex 23.092069886624813 31.397877871990204 0.39099999999999996
    endloop
  endfacet
  facet normal -0.8594375407894397 0.511240758822886 0
    outer loop
      vertex 22.798957459628582 30.936128094792366 0.09099999999999997
      vertex 22.93818587064743 31.170182444155216 0.39099999999999996
      vertex 22.93818587064743 31.170182444155216 0.09099999999999997
    endloop
  endfacet
  facet normal -0.8594375407894397 0.511240758822886 0
    outer loop
      vertex 22.798957459628582 30.936128094792366 0.09099999999999997
      vertex 22.798957459628582 30.936128094792366 0.39099999999999996
      vertex 22.93818587064743 31.170182444155216 0.39099999999999996
    endloop
  endfacet
  facet normal -0.8878842050701868 0.4600669933682296 0
    outer loop
      vertex 22.67438468337059 30.695714846253395 0.09099999999999997
      vertex 22.798957459628582 30.936128094792366 0.39099999999999996
      vertex 22.798957459628582 30.936128094792366 0.09099999999999997
    endloop
  endfacet
  facet normal -0.8878842050701868 0.4600669933682296 0
    outer loop
      vertex 22.67438468337059 30.695714846253395 0.09099999999999997
      vertex 22.67438468337059 30.695714846253395 0.39099999999999996
      vertex 22.798957459628582 30.936128094792366 0.39099999999999996
    endloop
  endfacet
  facet normal -0.9134806517003358 0.4068821684089017 0
    outer loop
      vertex 22.564467526972294 30.44894267618656 0.09099999999999997
      vertex 22.67438468337059 30.695714846253395 0.39099999999999996
      vertex 22.67438468337059 30.695714846253395 0.09099999999999997
    endloop
  endfacet
  facet normal -0.9134806517003358 0.4068821684089017 0
    outer loop
      vertex 22.564467526972294 30.44894267618656 0.09099999999999997
      vertex 22.564467526972294 30.44894267618656 0.39099999999999996
      vertex 22.67438468337059 30.695714846253395 0.39099999999999996
    endloop
  endfacet
  facet normal -0.9359184165319919 0.3522168616012709 0
    outer loop
      vertex 22.469205982983112 30.195811599493027 0.09099999999999997
      vertex 22.564467526972294 30.44894267618656 0.39099999999999996
      vertex 22.564467526972294 30.44894267618656 0.09099999999999997
    endloop
  endfacet
  facet normal -0.9359184165319919 0.3522168616012709 0
    outer loop
      vertex 22.469205982983112 30.195811599493027 0.09099999999999997
      vertex 22.469205982983112 30.195811599493027 0.39099999999999996
      vertex 22.564467526972294 30.44894267618656 0.39099999999999996
    endloop
  endfacet
  facet normal -0.9549864452768185 0.2966494384581677 0
    outer loop
      vertex 22.388600066304207 29.93632161617279 0.09099999999999997
      vertex 22.469205982983112 30.195811599493027 0.39099999999999996
      vertex 22.469205982983112 30.195811599493027 0.09099999999999997
    endloop
  endfacet
  facet normal -0.9549864452768185 0.2966494384581677 0
    outer loop
      vertex 22.388600066304207 29.93632161617279 0.09099999999999997
      vertex 22.388600066304207 29.93632161617279 0.39099999999999996
      vertex 22.469205982983112 30.195811599493027 0.39099999999999996
    endloop
  endfacet
  facet normal -0.9705806676026683 0.24077617755076786 0
    outer loop
      vertex 22.322649769484997 29.67047271132469 0.09099999999999997
      vertex 22.388600066304207 29.93632161617279 0.39099999999999996
      vertex 22.388600066304207 29.93632161617279 0.09099999999999997
    endloop
  endfacet
  facet normal -0.9705806676026683 0.24077617755076786 0
    outer loop
      vertex 22.322649769484997 29.67047271132469 0.09099999999999997
      vertex 22.322649769484997 29.67047271132469 0.39099999999999996
      vertex 22.388600066304207 29.93632161617279 0.39099999999999996
    endloop
  endfacet
  facet normal -0.9827045696006445 0.18518026051934383 0
    outer loop
      vertex 22.271355092525482 29.39826489984989 0.09099999999999997
      vertex 22.322649769484997 29.67047271132469 0.39099999999999996
      vertex 22.322649769484997 29.67047271132469 0.09099999999999997
    endloop
  endfacet
  facet normal -0.9827045696006445 0.18518026051934383 0
    outer loop
      vertex 22.271355092525482 29.39826489984989 0.09099999999999997
      vertex 22.271355092525482 29.39826489984989 0.39099999999999996
      vertex 22.322649769484997 29.67047271132469 0.39099999999999996
    endloop
  endfacet
  facet normal -0.9914609534708329 0.13040390232929078 0
    outer loop
      vertex 22.234716042876244 29.11969818174839 0.09099999999999997
      vertex 22.271355092525482 29.39826489984989 0.39099999999999996
      vertex 22.271355092525482 29.39826489984989 0.09099999999999997
    endloop
  endfacet
  facet normal -0.9914609534708329 0.13040390232929078 0
    outer loop
      vertex 22.234716042876244 29.11969818174839 0.09099999999999997
      vertex 22.234716042876244 29.11969818174839 0.39099999999999996
      vertex 22.271355092525482 29.39826489984989 0.39099999999999996
    endloop
  endfacet
  facet normal -0.9970367782373256 0.0769263468659057 0
    outer loop
      vertex 22.2127326130867 28.834772549569607 0.09099999999999997
      vertex 22.234716042876244 29.11969818174839 0.39099999999999996
      vertex 22.234716042876244 29.11969818174839 0.09099999999999997
    endloop
  endfacet
  facet normal -0.9970367782373256 0.0769263468659057 0
    outer loop
      vertex 22.2127326130867 28.834772549569607 0.09099999999999997
      vertex 22.2127326130867 28.834772549569607 0.39099999999999996
      vertex 22.234716042876244 29.11969818174839 0.39099999999999996
    endloop
  endfacet
  facet normal -0.9996837158496665 0.02514892174633419 0
    outer loop
      vertex 22.205404803156853 28.54348800331354 0.09099999999999997
      vertex 22.2127326130867 28.834772549569607 0.39099999999999996
      vertex 22.2127326130867 28.834772549569607 0.09099999999999997
    endloop
  endfacet
  facet normal -0.9996837158496665 0.02514892174633419 0
    outer loop
      vertex 22.205404803156853 28.54348800331354 0.09099999999999997
      vertex 22.205404803156853 28.54348800331354 0.39099999999999996
      vertex 22.2127326130867 28.834772549569607 0.39099999999999996
    endloop
  endfacet
  facet normal -1 0 0
    outer loop
      vertex 22.205404803156853 -0.7000000029802322 0.09099999999999997
      vertex 22.205404803156853 28.54348800331354 0.39099999999999996
      vertex 22.205404803156853 28.54348800331354 0.09099999999999997
    endloop
  endfacet
  facet normal -1 0 0
    outer loop
      vertex 22.205404803156853 -0.7000000029802322 0.09099999999999997
      vertex 22.205404803156853 -0.7000000029802322 0.39099999999999996
      vertex 22.205404803156853 28.54348800331354 0.39099999999999996
    endloop
  endfacet
  facet normal 0 -1 0
    outer loop
      vertex 30.603614397346973 -0.7000000029802322 0.09099999999999997
      vertex 22.205404803156853 -0.7000000029802322 0.39099999999999996
      vertex 22.205404803156853 -0.7000000029802322 0.09099999999999997
    endloop
  endfacet
  facet normal 0 -1 0
    outer loop
      vertex 30.603614397346973 -0.7000000029802322 0.09099999999999997
      vertex 30.603614397346973 -0.7000000029802322 0.39099999999999996
      vertex 22.205404803156853 -0.7000000029802322 0.39099999999999996
    endloop
  endfacet
  facet normal 1 0 0
    outer loop
      vertex 30.603614397346973 28.54348800331354 0.09099999999999997
      vertex 30.603614397346973 -0.7000000029802322 0.39099999999999996
      vertex 30.603614397346973 -0.7000000029802322 0.09099999999999997
    endloop
  endfacet
  facet normal 1 0 0
    outer loop
      vertex 30.603614397346973 28.54348800331354 0.09099999999999997
      vertex 30.603614397346973 28.54348800331354 0.39099999999999996
      vertex 30.603614397346973 -0.7000000029802322 0.39099999999999996
    endloop
  endfacet
  facet normal 0 0 -1
    outer loop
      vertex 24.251945070922375 32.551047295331955 0.09099999999999997
      vertex 25.885962575674057 33.17829567193985 0.09099999999999997
      vertex 26.142227105796337 33.20273391902447 0.09099999999999997
    endloop
  endfacet
  facet normal 0 0 -1
    outer loop
      vertex 24.468251049518585 32.689530700445175 0.09099999999999997
      vertex 24.690265394747257 32.811721943318844 0.09099999999999997
      vertex 25.63540641218424 33.1375652551651 0.09099999999999997
    endloop
  endfacet
  facet normal 0 0 -1
    outer loop
      vertex 24.690265394747257 32.811721943318844 0.09099999999999997
      vertex 25.3905586078763 33.0805426761508 0.09099999999999997
      vertex 25.63540641218424 33.1375652551651 0.09099999999999997
    endloop
  endfacet
  facet normal 0 0 -1
    outer loop
      vertex 25.3905586078763 33.0805426761508 0.09099999999999997
      vertex 24.690265394747257 32.811721943318844 0.09099999999999997
      vertex 24.91798809915781 32.91762102395296 0.09099999999999997
    endloop
  endfacet
  facet normal 0 0 -1
    outer loop
      vertex 25.151419170200825 33.007227934896946 0.09099999999999997
      vertex 25.3905586078763 33.0805426761508 0.09099999999999997
      vertex 24.91798809915781 32.91762102395296 0.09099999999999997
    endloop
  endfacet
  facet normal 0 0 -1
    outer loop
      vertex 25.885962575674057 33.17829567193985 0.09099999999999997
      vertex 24.468251049518585 32.689530700445175 0.09099999999999997
      vertex 25.63540641218424 33.1375652551651 0.09099999999999997
    endloop
  endfacet
  facet normal 0 0 -1
    outer loop
      vertex 25.885962575674057 33.17829567193985 0.09099999999999997
      vertex 24.251945070922375 32.551047295331955 0.09099999999999997
      vertex 24.468251049518585 32.689530700445175 0.09099999999999997
    endloop
  endfacet
  facet normal 0 0 -1
    outer loop
      vertex 26.666260823607445 33.20273391902447 0.09099999999999997
      vertex 28.767272375524044 32.3962717205286 0.09099999999999997
      vertex 26.40420000255108 33.21088000386953 0.09099999999999997
    endloop
  endfacet
  facet normal 0 0 -1
    outer loop
      vertex 26.922598637640476 33.17829567193985 0.09099999999999997
      vertex 28.556718736886978 32.551047295331955 0.09099999999999997
      vertex 26.666260823607445 33.20273391902447 0.09099999999999997
    endloop
  endfacet
  facet normal 0 0 -1
    outer loop
      vertex 26.922598637640476 33.17829567193985 0.09099999999999997
      vertex 28.340442061424255 32.689530700445175 0.09099999999999997
      vertex 28.556718736886978 32.551047295331955 0.09099999999999997
    endloop
  endfacet
  facet normal 0 0 -1
    outer loop
      vertex 27.17321342229843 33.1375652551651 0.09099999999999997
      vertex 28.118442371487617 32.811721943318844 0.09099999999999997
      vertex 28.340442061424255 32.689530700445175 0.09099999999999997
    endloop
  endfacet
  facet normal 0 0 -1
    outer loop
      vertex 27.41810519248247 33.0805426761508 0.09099999999999997
      vertex 27.890719674527645 32.91762102395296 0.09099999999999997
      vertex 28.118442371487617 32.811721943318844 0.09099999999999997
    endloop
  endfacet
  facet normal 0 0 -1
    outer loop
      vertex 27.41810519248247 33.0805426761508 0.09099999999999997
      vertex 27.657273940742016 33.007227934896946 0.09099999999999997
      vertex 27.890719674527645 32.91762102395296 0.09099999999999997
    endloop
  endfacet
  facet normal 0 0 -1
    outer loop
      vertex 27.17321342229843 33.1375652551651 0.09099999999999997
      vertex 27.41810519248247 33.0805426761508 0.09099999999999997
      vertex 28.118442371487617 32.811721943318844 0.09099999999999997
    endloop
  endfacet
  facet normal 0 0 -1
    outer loop
      vertex 26.922598637640476 33.17829567193985 0.09099999999999997
      vertex 27.17321342229843 33.1375652551651 0.09099999999999997
      vertex 28.340442061424255 32.689530700445175 0.09099999999999997
    endloop
  endfacet
  facet normal 0 0 -1
    outer loop
      vertex 26.666260823607445 33.20273391902447 0.09099999999999997
      vertex 28.556718736886978 32.551047295331955 0.09099999999999997
      vertex 28.767272375524044 32.3962717205286 0.09099999999999997
    endloop
  endfacet
  facet normal 0 0 -1
    outer loop
      vertex 24.251945070922375 32.551047295331955 0.09099999999999997
      vertex 26.142227105796337 33.20273391902447 0.09099999999999997
      vertex 24.041347458958626 32.3962717205286 0.09099999999999997
    endloop
  endfacet
  facet normal 0 0 -1
    outer loop
      vertex 24.041347458958626 32.3962717205286 0.09099999999999997
      vertex 26.142227105796337 33.20273391902447 0.09099999999999997
      vertex 26.40420000255108 33.21088000386953 0.09099999999999997
    endloop
  endfacet
  facet normal 0 0 -1
    outer loop
      vertex 28.767272375524044 32.3962717205286 0.09099999999999997
      vertex 24.041347458958626 32.3962717205286 0.09099999999999997
      vertex 26.40420000255108 33.21088000386953 0.09099999999999997
    endloop
  endfacet
  facet normal 0 0 -1
    outer loop
      vertex 28.767272375524044 32.3962717205286 0.09099999999999997
      vertex 28.972102999687195 32.22520397603512 0.09099999999999997
      vertex 24.041347458958626 32.3962717205286 0.09099999999999997
    endloop
  endfacet
  facet normal 0 0 -1
    outer loop
      vertex 24.041347458958626 32.3962717205286 0.09099999999999997
      vertex 28.972102999687195 32.22520397603512 0.09099999999999997
      vertex 23.836458206176758 32.22520397603512 0.09099999999999997
    endloop
  endfacet
  facet normal 0 0 -1
    outer loop
      vertex 23.836458206176758 32.22520397603512 0.09099999999999997
      vertex 28.972102999687195 32.22520397603512 0.09099999999999997
      vertex 29.17121061682701 32.03784407675266 0.09099999999999997
    endloop
  endfacet
  facet normal 0 0 -1
    outer loop
      vertex 23.63727732002735 32.03784407675266 0.09099999999999997
      vertex 23.836458206176758 32.22520397603512 0.09099999999999997
      vertex 29.17121061682701 32.03784407675266 0.09099999999999997
    endloop
  endfacet
  facet normal 0 0 -1
    outer loop
      vertex 29.36459520459175 31.834192000329494 0.09099999999999997
      vertex 23.63727732002735 32.03784407675266 0.09099999999999997
      vertex 29.17121061682701 32.03784407675266 0.09099999999999997
    endloop
  endfacet
  facet normal 0 0 -1
    outer loop
      vertex 29.36459520459175 31.834192000329494 0.09099999999999997
      vertex 23.443804800510406 31.834192000329494 0.09099999999999997
      vertex 23.63727732002735 32.03784407675266 0.09099999999999997
    endloop
  endfacet
  facet normal 0 0 -1
    outer loop
      vertex 29.36459520459175 31.834192000329494 0.09099999999999997
      vertex 23.260609537363052 31.61921439319849 0.09099999999999997
      vertex 23.443804800510406 31.834192000329494 0.09099999999999997
    endloop
  endfacet
  facet normal 0 0 -1
    outer loop
      vertex 29.36459520459175 31.834192000329494 0.09099999999999997
      vertex 29.547882065176964 31.61921439319849 0.09099999999999997
      vertex 23.260609537363052 31.61921439319849 0.09099999999999997
    endloop
  endfacet
  facet normal 0 0 -1
    outer loop
      vertex 23.260609537363052 31.61921439319849 0.09099999999999997
      vertex 29.547882065176964 31.61921439319849 0.09099999999999997
      vertex 23.092069886624813 31.397877871990204 0.09099999999999997
    endloop
  endfacet
  facet normal 0 0 -1
    outer loop
      vertex 23.092069886624813 31.397877871990204 0.09099999999999997
      vertex 29.547882065176964 31.61921439319849 0.09099999999999997
      vertex 29.716505981981754 31.397877871990204 0.09099999999999997
    endloop
  endfacet
  facet normal 0 0 -1
    outer loop
      vertex 22.93818587064743 31.170182444155216 0.09099999999999997
      vertex 23.092069886624813 31.397877871990204 0.09099999999999997
      vertex 29.716505981981754 31.397877871990204 0.09099999999999997
    endloop
  endfacet
  facet normal 0 0 -1
    outer loop
      vertex 29.87046694010496 31.170182444155216 0.09099999999999997
      vertex 22.93818587064743 31.170182444155216 0.09099999999999997
      vertex 29.716505981981754 31.397877871990204 0.09099999999999997
    endloop
  endfacet
  facet normal 0 0 -1
    outer loop
      vertex 29.87046694010496 31.170182444155216 0.09099999999999997
      vertex 22.798957459628582 30.936128094792366 0.09099999999999997
      vertex 22.93818587064743 31.170182444155216 0.09099999999999997
    endloop
  endfacet
  facet normal 0 0 -1
    outer loop
      vertex 29.87046694010496 31.170182444155216 0.09099999999999997
      vertex 30.009764961898327 30.936128094792366 0.09099999999999997
      vertex 22.798957459628582 30.936128094792366 0.09099999999999997
    endloop
  endfacet
  facet normal 0 0 -1
    outer loop
      vertex 22.798957459628582 30.936128094792366 0.09099999999999997
      vertex 30.009764961898327 30.936128094792366 0.09099999999999997
      vertex 22.67438468337059 30.695714846253395 0.09099999999999997
    endloop
  endfacet
  facet normal 0 0 -1
    outer loop
      vertex 22.67438468337059 30.695714846253395 0.09099999999999997
      vertex 30.009764961898327 30.936128094792366 0.09099999999999997
      vertex 30.13440003246069 30.695714846253395 0.09099999999999997
    endloop
  endfacet
  facet normal 0 0 -1
    outer loop
      vertex 22.564467526972294 30.44894267618656 0.09099999999999997
      vertex 22.67438468337059 30.695714846253395 0.09099999999999997
      vertex 30.13440003246069 30.695714846253395 0.09099999999999997
    endloop
  endfacet
  facet normal 0 0 -1
    outer loop
      vertex 30.24437215179205 30.44894267618656 0.09099999999999997
      vertex 22.564467526972294 30.44894267618656 0.09099999999999997
      vertex 30.13440003246069 30.695714846253395 0.09099999999999997
    endloop
  endfacet
  facet normal 0 0 -1
    outer loop
      vertex 30.24437215179205 30.44894267618656 0.09099999999999997
      vertex 22.469205982983112 30.195811599493027 0.09099999999999997
      vertex 22.564467526972294 30.44894267618656 0.09099999999999997
    endloop
  endfacet
  facet normal 0 0 -1
    outer loop
      vertex 30.24437215179205 30.44894267618656 0.09099999999999997
      vertex 30.339681312441826 30.195811599493027 0.09099999999999997
      vertex 22.469205982983112 30.195811599493027 0.09099999999999997
    endloop
  endfacet
  facet normal 0 0 -1
    outer loop
      vertex 22.469205982983112 30.195811599493027 0.09099999999999997
      vertex 30.339681312441826 30.195811599493027 0.09099999999999997
      vertex 22.388600066304207 29.93632161617279 0.09099999999999997
    endloop
  endfacet
  facet normal 0 0 -1
    outer loop
      vertex 22.388600066304207 29.93632161617279 0.09099999999999997
      vertex 30.339681312441826 30.195811599493027 0.09099999999999997
      vertex 30.42032753676176 29.93632161617279 0.09099999999999997
    endloop
  endfacet
  facet normal 0 0 -1
    outer loop
      vertex 22.322649769484997 29.67047271132469 0.09099999999999997
      vertex 22.388600066304207 29.93632161617279 0.09099999999999997
      vertex 30.42032753676176 29.93632161617279 0.09099999999999997
    endloop
  endfacet
  facet normal 0 0 -1
    outer loop
      vertex 30.486310809850693 29.67047271132469 0.09099999999999997
      vertex 22.322649769484997 29.67047271132469 0.09099999999999997
      vertex 30.42032753676176 29.93632161617279 0.09099999999999997
    endloop
  endfacet
  facet normal 0 0 -1
    outer loop
      vertex 30.486310809850693 29.67047271132469 0.09099999999999997
      vertex 22.271355092525482 29.39826489984989 0.09099999999999997
      vertex 22.322649769484997 29.67047271132469 0.09099999999999997
    endloop
  endfacet
  facet normal 0 0 -1
    outer loop
      vertex 30.486310809850693 29.67047271132469 0.09099999999999997
      vertex 30.537631131708622 29.39826489984989 0.09099999999999997
      vertex 22.271355092525482 29.39826489984989 0.09099999999999997
    endloop
  endfacet
  facet normal 0 0 -1
    outer loop
      vertex 22.271355092525482 29.39826489984989 0.09099999999999997
      vertex 30.537631131708622 29.39826489984989 0.09099999999999997
      vertex 22.234716042876244 29.11969818174839 0.09099999999999997
    endloop
  endfacet
  facet normal 0 0 -1
    outer loop
      vertex 22.234716042876244 29.11969818174839 0.09099999999999997
      vertex 30.537631131708622 29.39826489984989 0.09099999999999997
      vertex 30.57428850233555 29.11969818174839 0.09099999999999997
    endloop
  endfacet
  facet normal 0 0 -1
    outer loop
      vertex 22.2127326130867 28.834772549569607 0.09099999999999997
      vertex 22.234716042876244 29.11969818174839 0.09099999999999997
      vertex 30.57428850233555 29.11969818174839 0.09099999999999997
    endloop
  endfacet
  facet normal 0 0 -1
    outer loop
      vertex 30.596282929182053 28.834772549569607 0.09099999999999997
      vertex 22.2127326130867 28.834772549569607 0.09099999999999997
      vertex 30.57428850233555 29.11969818174839 0.09099999999999997
    endloop
  endfacet
  facet normal 0 0 -1
    outer loop
      vertex 30.596282929182053 28.834772549569607 0.09099999999999997
      vertex 22.205404803156853 28.54348800331354 0.09099999999999997
      vertex 22.2127326130867 28.834772549569607 0.09099999999999997
    endloop
  endfacet
  facet normal 0 0 -1
    outer loop
      vertex 30.596282929182053 28.834772549569607 0.09099999999999997
      vertex 30.603614397346973 28.54348800331354 0.09099999999999997
      vertex 22.205404803156853 28.54348800331354 0.09099999999999997
    endloop
  endfacet
  facet normal 0 0 -1
    outer loop
      vertex 22.205404803156853 28.54348800331354 0.09099999999999997
      vertex 30.603614397346973 -0.7000000029802322 0.09099999999999997
      vertex 22.205404803156853 -0.7000000029802322 0.09099999999999997
    endloop
  endfacet
  facet normal 0 0 -1
    outer loop
      vertex 22.205404803156853 28.54348800331354 0.09099999999999997
      vertex 30.603614397346973 28.54348800331354 0.09099999999999997
      vertex 30.603614397346973 -0.7000000029802322 0.09099999999999997
    endloop
  endfacet
  facet normal 0 0 1
    outer loop
      vertex 26.142227105796337 33.20273391902447 0.39099999999999996
      vertex 25.885962575674057 33.17829567193985 0.39099999999999996
      vertex 24.251945070922375 32.551047295331955 0.39099999999999996
    endloop
  endfacet
  facet normal 0 0 1
    outer loop
      vertex 25.63540641218424 33.1375652551651 0.39099999999999996
      vertex 24.690265394747257 32.811721943318844 0.39099999999999996
      vertex 24.468251049518585 32.689530700445175 0.39099999999999996
    endloop
  endfacet
  facet normal 0 0 1
    outer loop
      vertex 25.63540641218424 33.1375652551651 0.39099999999999996
      vertex 25.3905586078763 33.0805426761508 0.39099999999999996
      vertex 24.690265394747257 32.811721943318844 0.39099999999999996
    endloop
  endfacet
  facet normal 0 0 1
    outer loop
      vertex 24.91798809915781 32.91762102395296 0.39099999999999996
      vertex 24.690265394747257 32.811721943318844 0.39099999999999996
      vertex 25.3905586078763 33.0805426761508 0.39099999999999996
    endloop
  endfacet
  facet normal 0 0 1
    outer loop
      vertex 24.91798809915781 32.91762102395296 0.39099999999999996
      vertex 25.3905586078763 33.0805426761508 0.39099999999999996
      vertex 25.151419170200825 33.007227934896946 0.39099999999999996
    endloop
  endfacet
  facet normal 0 0 1
    outer loop
      vertex 25.63540641218424 33.1375652551651 0.39099999999999996
      vertex 24.468251049518585 32.689530700445175 0.39099999999999996
      vertex 25.885962575674057 33.17829567193985 0.39099999999999996
    endloop
  endfacet
  facet normal 0 0 1
    outer loop
      vertex 24.468251049518585 32.689530700445175 0.39099999999999996
      vertex 24.251945070922375 32.551047295331955 0.39099999999999996
      vertex 25.885962575674057 33.17829567193985 0.39099999999999996
    endloop
  endfacet
  facet normal 0 0 1
    outer loop
      vertex 26.40420000255108 33.21088000386953 0.39099999999999996
      vertex 28.767272375524044 32.3962717205286 0.39099999999999996
      vertex 26.666260823607445 33.20273391902447 0.39099999999999996
    endloop
  endfacet
  facet normal 0 0 1
    outer loop
      vertex 26.666260823607445 33.20273391902447 0.39099999999999996
      vertex 28.556718736886978 32.551047295331955 0.39099999999999996
      vertex 26.922598637640476 33.17829567193985 0.39099999999999996
    endloop
  endfacet
  facet normal 0 0 1
    outer loop
      vertex 28.556718736886978 32.551047295331955 0.39099999999999996
      vertex 28.340442061424255 32.689530700445175 0.39099999999999996
      vertex 26.922598637640476 33.17829567193985 0.39099999999999996
    endloop
  endfacet
  facet normal 0 0 1
    outer loop
      vertex 28.340442061424255 32.689530700445175 0.39099999999999996
      vertex 28.118442371487617 32.811721943318844 0.39099999999999996
      vertex 27.17321342229843 33.1375652551651 0.39099999999999996
    endloop
  endfacet
  facet normal 0 0 1
    outer loop
      vertex 28.118442371487617 32.811721943318844 0.39099999999999996
      vertex 27.890719674527645 32.91762102395296 0.39099999999999996
      vertex 27.41810519248247 33.0805426761508 0.39099999999999996
    endloop
  endfacet
  facet normal 0 0 1
    outer loop
      vertex 27.890719674527645 32.91762102395296 0.39099999999999996
      vertex 27.657273940742016 33.007227934896946 0.39099999999999996
      vertex 27.41810519248247 33.0805426761508 0.39099999999999996
    endloop
  endfacet
  facet normal 0 0 1
    outer loop
      vertex 28.118442371487617 32.811721943318844 0.39099999999999996
      vertex 27.41810519248247 33.0805426761508 0.39099999999999996
      vertex 27.17321342229843 33.1375652551651 0.39099999999999996
    endloop
  endfacet
  facet normal 0 0 1
    outer loop
      vertex 28.340442061424255 32.689530700445175 0.39099999999999996
      vertex 27.17321342229843 33.1375652551651 0.39099999999999996
      vertex 26.922598637640476 33.17829567193985 0.39099999999999996
    endloop
  endfacet
  facet normal 0 0 1
    outer loop
      vertex 28.767272375524044 32.3962717205286 0.39099999999999996
      vertex 28.556718736886978 32.551047295331955 0.39099999999999996
      vertex 26.666260823607445 33.20273391902447 0.39099999999999996
    endloop
  endfacet
  facet normal 0 0 1
    outer loop
      vertex 24.041347458958626 32.3962717205286 0.39099999999999996
      vertex 26.142227105796337 33.20273391902447 0.39099999999999996
      vertex 24.251945070922375 32.551047295331955 0.39099999999999996
    endloop
  endfacet
  facet normal 0 0 1
    outer loop
      vertex 26.40420000255108 33.21088000386953 0.39099999999999996
      vertex 26.142227105796337 33.20273391902447 0.39099999999999996
      vertex 24.041347458958626 32.3962717205286 0.39099999999999996
    endloop
  endfacet
  facet normal 0 0 1
    outer loop
      vertex 26.40420000255108 33.21088000386953 0.39099999999999996
      vertex 24.041347458958626 32.3962717205286 0.39099999999999996
      vertex 28.767272375524044 32.3962717205286 0.39099999999999996
    endloop
  endfacet
  facet normal 0 0 1
    outer loop
      vertex 24.041347458958626 32.3962717205286 0.39099999999999996
      vertex 28.972102999687195 32.22520397603512 0.39099999999999996
      vertex 28.767272375524044 32.3962717205286 0.39099999999999996
    endloop
  endfacet
  facet normal 0 0 1
    outer loop
      vertex 23.836458206176758 32.22520397603512 0.39099999999999996
      vertex 28.972102999687195 32.22520397603512 0.39099999999999996
      vertex 24.041347458958626 32.3962717205286 0.39099999999999996
    endloop
  endfacet
  facet normal 0 0 1
    outer loop
      vertex 29.17121061682701 32.03784407675266 0.39099999999999996
      vertex 28.972102999687195 32.22520397603512 0.39099999999999996
      vertex 23.836458206176758 32.22520397603512 0.39099999999999996
    endloop
  endfacet
  facet normal 0 0 1
    outer loop
      vertex 29.17121061682701 32.03784407675266 0.39099999999999996
      vertex 23.836458206176758 32.22520397603512 0.39099999999999996
      vertex 23.63727732002735 32.03784407675266 0.39099999999999996
    endloop
  endfacet
  facet normal 0 0 1
    outer loop
      vertex 29.17121061682701 32.03784407675266 0.39099999999999996
      vertex 23.63727732002735 32.03784407675266 0.39099999999999996
      vertex 29.36459520459175 31.834192000329494 0.39099999999999996
    endloop
  endfacet
  facet normal 0 0 1
    outer loop
      vertex 23.63727732002735 32.03784407675266 0.39099999999999996
      vertex 23.443804800510406 31.834192000329494 0.39099999999999996
      vertex 29.36459520459175 31.834192000329494 0.39099999999999996
    endloop
  endfacet
  facet normal 0 0 1
    outer loop
      vertex 23.443804800510406 31.834192000329494 0.39099999999999996
      vertex 23.260609537363052 31.61921439319849 0.39099999999999996
      vertex 29.36459520459175 31.834192000329494 0.39099999999999996
    endloop
  endfacet
  facet normal 0 0 1
    outer loop
      vertex 23.260609537363052 31.61921439319849 0.39099999999999996
      vertex 29.547882065176964 31.61921439319849 0.39099999999999996
      vertex 29.36459520459175 31.834192000329494 0.39099999999999996
    endloop
  endfacet
  facet normal 0 0 1
    outer loop
      vertex 23.092069886624813 31.397877871990204 0.39099999999999996
      vertex 29.547882065176964 31.61921439319849 0.39099999999999996
      vertex 23.260609537363052 31.61921439319849 0.39099999999999996
    endloop
  endfacet
  facet normal 0 0 1
    outer loop
      vertex 29.716505981981754 31.397877871990204 0.39099999999999996
      vertex 29.547882065176964 31.61921439319849 0.39099999999999996
      vertex 23.092069886624813 31.397877871990204 0.39099999999999996
    endloop
  endfacet
  facet normal 0 0 1
    outer loop
      vertex 29.716505981981754 31.397877871990204 0.39099999999999996
      vertex 23.092069886624813 31.397877871990204 0.39099999999999996
      vertex 22.93818587064743 31.170182444155216 0.39099999999999996
    endloop
  endfacet
  facet normal 0 0 1
    outer loop
      vertex 29.716505981981754 31.397877871990204 0.39099999999999996
      vertex 22.93818587064743 31.170182444155216 0.39099999999999996
      vertex 29.87046694010496 31.170182444155216 0.39099999999999996
    endloop
  endfacet
  facet normal 0 0 1
    outer loop
      vertex 22.93818587064743 31.170182444155216 0.39099999999999996
      vertex 22.798957459628582 30.936128094792366 0.39099999999999996
      vertex 29.87046694010496 31.170182444155216 0.39099999999999996
    endloop
  endfacet
  facet normal 0 0 1
    outer loop
      vertex 22.798957459628582 30.936128094792366 0.39099999999999996
      vertex 30.009764961898327 30.936128094792366 0.39099999999999996
      vertex 29.87046694010496 31.170182444155216 0.39099999999999996
    endloop
  endfacet
  facet normal 0 0 1
    outer loop
      vertex 22.67438468337059 30.695714846253395 0.39099999999999996
      vertex 30.009764961898327 30.936128094792366 0.39099999999999996
      vertex 22.798957459628582 30.936128094792366 0.39099999999999996
    endloop
  endfacet
  facet normal 0 0 1
    outer loop
      vertex 30.13440003246069 30.695714846253395 0.39099999999999996
      vertex 30.009764961898327 30.936128094792366 0.39099999999999996
      vertex 22.67438468337059 30.695714846253395 0.39099999999999996
    endloop
  endfacet
  facet normal 0 0 1
    outer loop
      vertex 30.13440003246069 30.695714846253395 0.39099999999999996
      vertex 22.67438468337059 30.695714846253395 0.39099999999999996
      vertex 22.564467526972294 30.44894267618656 0.39099999999999996
    endloop
  endfacet
  facet normal 0 0 1
    outer loop
      vertex 30.13440003246069 30.695714846253395 0.39099999999999996
      vertex 22.564467526972294 30.44894267618656 0.39099999999999996
      vertex 30.24437215179205 30.44894267618656 0.39099999999999996
    endloop
  endfacet
  facet normal 0 0 1
    outer loop
      vertex 22.564467526972294 30.44894267618656 0.39099999999999996
      vertex 22.469205982983112 30.195811599493027 0.39099999999999996
      vertex 30.24437215179205 30.44894267618656 0.39099999999999996
    endloop
  endfacet
  facet normal 0 0 1
    outer loop
      vertex 22.469205982983112 30.195811599493027 0.39099999999999996
      vertex 30.339681312441826 30.195811599493027 0.39099999999999996
      vertex 30.24437215179205 30.44894267618656 0.39099999999999996
    endloop
  endfacet
  facet normal 0 0 1
    outer loop
      vertex 22.388600066304207 29.93632161617279 0.39099999999999996
      vertex 30.339681312441826 30.195811599493027 0.39099999999999996
      vertex 22.469205982983112 30.195811599493027 0.39099999999999996
    endloop
  endfacet
  facet normal 0 0 1
    outer loop
      vertex 30.42032753676176 29.93632161617279 0.39099999999999996
      vertex 30.339681312441826 30.195811599493027 0.39099999999999996
      vertex 22.388600066304207 29.93632161617279 0.39099999999999996
    endloop
  endfacet
  facet normal 0 0 1
    outer loop
      vertex 30.42032753676176 29.93632161617279 0.39099999999999996
      vertex 22.388600066304207 29.93632161617279 0.39099999999999996
      vertex 22.322649769484997 29.67047271132469 0.39099999999999996
    endloop
  endfacet
  facet normal 0 0 1
    outer loop
      vertex 30.42032753676176 29.93632161617279 0.39099999999999996
      vertex 22.322649769484997 29.67047271132469 0.39099999999999996
      vertex 30.486310809850693 29.67047271132469 0.39099999999999996
    endloop
  endfacet
  facet normal 0 0 1
    outer loop
      vertex 22.322649769484997 29.67047271132469 0.39099999999999996
      vertex 22.271355092525482 29.39826489984989 0.39099999999999996
      vertex 30.486310809850693 29.67047271132469 0.39099999999999996
    endloop
  endfacet
  facet normal 0 0 1
    outer loop
      vertex 22.271355092525482 29.39826489984989 0.39099999999999996
      vertex 30.537631131708622 29.39826489984989 0.39099999999999996
      vertex 30.486310809850693 29.67047271132469 0.39099999999999996
    endloop
  endfacet
  facet normal 0 0 1
    outer loop
      vertex 22.234716042876244 29.11969818174839 0.39099999999999996
      vertex 30.537631131708622 29.39826489984989 0.39099999999999996
      vertex 22.271355092525482 29.39826489984989 0.39099999999999996
    endloop
  endfacet
  facet normal 0 0 1
    outer loop
      vertex 30.57428850233555 29.11969818174839 0.39099999999999996
      vertex 30.537631131708622 29.39826489984989 0.39099999999999996
      vertex 22.234716042876244 29.11969818174839 0.39099999999999996
    endloop
  endfacet
  facet normal 0 0 1
    outer loop
      vertex 30.57428850233555 29.11969818174839 0.39099999999999996
      vertex 22.234716042876244 29.11969818174839 0.39099999999999996
      vertex 22.2127326130867 28.834772549569607 0.39099999999999996
    endloop
  endfacet
  facet normal 0 0 1
    outer loop
      vertex 30.57428850233555 29.11969818174839 0.39099999999999996
      vertex 22.2127326130867 28.834772549569607 0.39099999999999996
      vertex 30.596282929182053 28.834772549569607 0.39099999999999996
    endloop
  endfacet
  facet normal 0 0 1
    outer loop
      vertex 22.2127326130867 28.834772549569607 0.39099999999999996
      vertex 22.205404803156853 28.54348800331354 0.39099999999999996
      vertex 30.596282929182053 28.834772549569607 0.39099999999999996
    endloop
  endfacet
  facet normal 0 0 1
    outer loop
      vertex 22.205404803156853 28.54348800331354 0.39099999999999996
      vertex 30.603614397346973 28.54348800331354 0.39099999999999996
      vertex 30.596282929182053 28.834772549569607 0.39099999999999996
    endloop
  endfacet
  facet normal 0 0 1
    outer loop
      vertex 22.205404803156853 -0.7000000029802322 0.39099999999999996
      vertex 30.603614397346973 -0.7000000029802322 0.39099999999999996
      vertex 22.205404803156853 28.54348800331354 0.39099999999999996
    endloop
  endfacet
  facet normal 0 0 1
    outer loop
      vertex 30.603614397346973 -0.7000000029802322 0.39099999999999996
      vertex 30.603614397346973 28.54348800331354 0.39099999999999996
      vertex 22.205404803156853 28.54348800331354 0.39099999999999996
    endloop
  endfacet
endsolid OpenSCAD_Model
