solid OpenSCAD_Model
  facet normal 0 -0 -1
    outer loop
      vertex 26.4765 33.1783 0.091
      vertex 26.7327 33.2027 0.091
      vertex 24.8425 32.551 0.091
    endloop
  endfacet
  facet normal 0 -0 -1
    outer loop
      vertex 25.2808 32.8117 0.091
      vertex 26.2259 33.1376 0.091
      vertex 25.0588 32.6895 0.091
    endloop
  endfacet
  facet normal 0 -0 -1
    outer loop
      vertex 25.9811 33.0805 0.091
      vertex 26.2259 33.1376 0.091
      vertex 25.2808 32.8117 0.091
    endloop
  endfacet
  facet normal 0 0 -1
    outer loop
      vertex 25.2808 32.8117 0.091
      vertex 25.5085 32.9176 0.091
      vertex 25.9811 33.0805 0.091
    endloop
  endfacet
  facet normal 0 0 -1
    outer loop
      vertex 25.9811 33.0805 0.091
      vertex 25.5085 32.9176 0.091
      vertex 25.7419 33.0072 0.091
    endloop
  endfacet
  facet normal 0 0 -1
    outer loop
      vertex 25.0588 32.6895 0.091
      vertex 26.2259 33.1376 0.091
      vertex 26.4765 33.1783 0.091
    endloop
  endfacet
  facet normal 0 0 -1
    outer loop
      vertex 24.8425 32.551 0.091
      vertex 25.0588 32.6895 0.091
      vertex 26.4765 33.1783 0.091
    endloop
  endfacet
  facet normal 0 0 -1
    outer loop
      vertex 29.3578 32.3963 0.091
      vertex 26.9947 33.2109 0.091
      vertex 27.2568 33.2027 0.091
    endloop
  endfacet
  facet normal 0 0 -1
    outer loop
      vertex 29.1472 32.551 0.091
      vertex 27.2568 33.2027 0.091
      vertex 27.5131 33.1783 0.091
    endloop
  endfacet
  facet normal -0 -0 -1
    outer loop
      vertex 28.931 32.6895 0.091
      vertex 29.1472 32.551 0.091
      vertex 27.5131 33.1783 0.091
    endloop
  endfacet
  facet normal -0 -0 -1
    outer loop
      vertex 28.709 32.8117 0.091
      vertex 28.931 32.6895 0.091
      vertex 27.7637 33.1376 0.091
    endloop
  endfacet
  facet normal -0 -0 -1
    outer loop
      vertex 28.4812 32.9176 0.091
      vertex 28.709 32.8117 0.091
      vertex 28.0086 33.0805 0.091
    endloop
  endfacet
  facet normal -0 -0 -1
    outer loop
      vertex 28.2478 33.0072 0.091
      vertex 28.4812 32.9176 0.091
      vertex 28.0086 33.0805 0.091
    endloop
  endfacet
  facet normal -0 -0 -1
    outer loop
      vertex 28.0086 33.0805 0.091
      vertex 28.709 32.8117 0.091
      vertex 27.7637 33.1376 0.091
    endloop
  endfacet
  facet normal -0 -0 -1
    outer loop
      vertex 27.7637 33.1376 0.091
      vertex 28.931 32.6895 0.091
      vertex 27.5131 33.1783 0.091
    endloop
  endfacet
  facet normal -0 -0 -1
    outer loop
      vertex 29.1472 32.551 0.091
      vertex 29.3578 32.3963 0.091
      vertex 27.2568 33.2027 0.091
    endloop
  endfacet
  facet normal 0 0 -1
    outer loop
      vertex 26.7327 33.2027 0.091
      vertex 24.6319 32.3963 0.091
      vertex 24.8425 32.551 0.091
    endloop
  endfacet
  facet normal 0 -0 -1
    outer loop
      vertex 26.7327 33.2027 0.091
      vertex 26.9947 33.2109 0.091
      vertex 24.6319 32.3963 0.091
    endloop
  endfacet
  facet normal 0 0 -1
    outer loop
      vertex 24.6319 32.3963 0.091
      vertex 26.9947 33.2109 0.091
      vertex 29.3578 32.3963 0.091
    endloop
  endfacet
  facet normal 0 0 -1
    outer loop
      vertex 29.5626 32.2252 0.091
      vertex 24.6319 32.3963 0.091
      vertex 29.3578 32.3963 0.091
    endloop
  endfacet
  facet normal 0 0 -1
    outer loop
      vertex 29.5626 32.2252 0.091
      vertex 24.427 32.2252 0.091
      vertex 24.6319 32.3963 0.091
    endloop
  endfacet
  facet normal -0 -0 -1
    outer loop
      vertex 29.5626 32.2252 0.091
      vertex 29.7617 32.0378 0.091
      vertex 24.427 32.2252 0.091
    endloop
  endfacet
  facet normal 0 -0 -1
    outer loop
      vertex 24.427 32.2252 0.091
      vertex 29.7617 32.0378 0.091
      vertex 24.2278 32.0378 0.091
    endloop
  endfacet
  facet normal 0 0 -1
    outer loop
      vertex 24.2278 32.0378 0.091
      vertex 29.7617 32.0378 0.091
      vertex 29.9551 31.8342 0.091
    endloop
  endfacet
  facet normal 0 0 -1
    outer loop
      vertex 24.0343 31.8342 0.091
      vertex 24.2278 32.0378 0.091
      vertex 29.9551 31.8342 0.091
    endloop
  endfacet
  facet normal 0 0 -1
    outer loop
      vertex 23.8511 31.6192 0.091
      vertex 24.0343 31.8342 0.091
      vertex 29.9551 31.8342 0.091
    endloop
  endfacet
  facet normal 0 0 -1
    outer loop
      vertex 30.1384 31.6192 0.091
      vertex 23.8511 31.6192 0.091
      vertex 29.9551 31.8342 0.091
    endloop
  endfacet
  facet normal -0 0 -1
    outer loop
      vertex 30.1384 31.6192 0.091
      vertex 23.6826 31.3979 0.091
      vertex 23.8511 31.6192 0.091
    endloop
  endfacet
  facet normal 0 -0 -1
    outer loop
      vertex 30.1384 31.6192 0.091
      vertex 30.307 31.3979 0.091
      vertex 23.6826 31.3979 0.091
    endloop
  endfacet
  facet normal 0 -0 -1
    outer loop
      vertex 23.6826 31.3979 0.091
      vertex 30.307 31.3979 0.091
      vertex 23.5287 31.1702 0.091
    endloop
  endfacet
  facet normal 0 0 -1
    outer loop
      vertex 23.5287 31.1702 0.091
      vertex 30.307 31.3979 0.091
      vertex 30.461 31.1702 0.091
    endloop
  endfacet
  facet normal 0 0 -1
    outer loop
      vertex 23.3895 30.9361 0.091
      vertex 23.5287 31.1702 0.091
      vertex 30.461 31.1702 0.091
    endloop
  endfacet
  facet normal 0 0 -1
    outer loop
      vertex 30.6003 30.9361 0.091
      vertex 23.3895 30.9361 0.091
      vertex 30.461 31.1702 0.091
    endloop
  endfacet
  facet normal -0 0 -1
    outer loop
      vertex 30.6003 30.9361 0.091
      vertex 23.2649 30.6957 0.091
      vertex 23.3895 30.9361 0.091
    endloop
  endfacet
  facet normal 0 -0 -1
    outer loop
      vertex 30.6003 30.9361 0.091
      vertex 30.7249 30.6957 0.091
      vertex 23.2649 30.6957 0.091
    endloop
  endfacet
  facet normal 0 -0 -1
    outer loop
      vertex 23.2649 30.6957 0.091
      vertex 30.7249 30.6957 0.091
      vertex 23.155 30.4489 0.091
    endloop
  endfacet
  facet normal 0 0 -1
    outer loop
      vertex 23.155 30.4489 0.091
      vertex 30.7249 30.6957 0.091
      vertex 30.8349 30.4489 0.091
    endloop
  endfacet
  facet normal 0 0 -1
    outer loop
      vertex 23.0597 30.1958 0.091
      vertex 23.155 30.4489 0.091
      vertex 30.8349 30.4489 0.091
    endloop
  endfacet
  facet normal 0 0 -1
    outer loop
      vertex 30.9302 30.1958 0.091
      vertex 23.0597 30.1958 0.091
      vertex 30.8349 30.4489 0.091
    endloop
  endfacet
  facet normal -0 0 -1
    outer loop
      vertex 30.9302 30.1958 0.091
      vertex 22.9791 29.9363 0.091
      vertex 23.0597 30.1958 0.091
    endloop
  endfacet
  facet normal 0 -0 -1
    outer loop
      vertex 30.9302 30.1958 0.091
      vertex 31.0108 29.9363 0.091
      vertex 22.9791 29.9363 0.091
    endloop
  endfacet
  facet normal 0 -0 -1
    outer loop
      vertex 22.9791 29.9363 0.091
      vertex 31.0108 29.9363 0.091
      vertex 22.9132 29.6705 0.091
    endloop
  endfacet
  facet normal 0 0 -1
    outer loop
      vertex 22.9132 29.6705 0.091
      vertex 31.0108 29.9363 0.091
      vertex 31.0768 29.6705 0.091
    endloop
  endfacet
  facet normal 0 0 -1
    outer loop
      vertex 22.8619 29.3983 0.091
      vertex 22.9132 29.6705 0.091
      vertex 31.0768 29.6705 0.091
    endloop
  endfacet
  facet normal 0 0 -1
    outer loop
      vertex 31.1281 29.3983 0.091
      vertex 22.8619 29.3983 0.091
      vertex 31.0768 29.6705 0.091
    endloop
  endfacet
  facet normal -0 0 -1
    outer loop
      vertex 31.1281 29.3983 0.091
      vertex 22.8252 29.1197 0.091
      vertex 22.8619 29.3983 0.091
    endloop
  endfacet
  facet normal 0 -0 -1
    outer loop
      vertex 31.1281 29.3983 0.091
      vertex 31.1648 29.1197 0.091
      vertex 22.8252 29.1197 0.091
    endloop
  endfacet
  facet normal 0 -0 -1
    outer loop
      vertex 22.8252 29.1197 0.091
      vertex 31.1648 29.1197 0.091
      vertex 22.8032 28.8348 0.091
    endloop
  endfacet
  facet normal 0 0 -1
    outer loop
      vertex 22.8032 28.8348 0.091
      vertex 31.1648 29.1197 0.091
      vertex 31.1868 28.8348 0.091
    endloop
  endfacet
  facet normal 0 0 -1
    outer loop
      vertex 22.7959 28.5435 0.091
      vertex 22.8032 28.8348 0.091
      vertex 31.1868 28.8348 0.091
    endloop
  endfacet
  facet normal 0 0 -1
    outer loop
      vertex 31.1941 28.5435 0.091
      vertex 22.7959 28.5435 0.091
      vertex 31.1868 28.8348 0.091
    endloop
  endfacet
  facet normal -0 -0 -1
    outer loop
      vertex 31.1941 28.5435 0.091
      vertex 31.1941 -0.699997 0.091
      vertex 22.7959 28.5435 0.091
    endloop
  endfacet
  facet normal 0 0 -1
    outer loop
      vertex 22.7959 28.5435 0.091
      vertex 31.1941 -0.699997 0.091
      vertex 22.7959 -0.699997 0.091
    endloop
  endfacet
  facet normal 0 0 1
    outer loop
      vertex 24.8425 32.551 0.391
      vertex 26.7327 33.2027 0.391
      vertex 26.4765 33.1783 0.391
    endloop
  endfacet
  facet normal 0 0 1
    outer loop
      vertex 25.0588 32.6895 0.391
      vertex 26.2259 33.1376 0.391
      vertex 25.2808 32.8117 0.391
    endloop
  endfacet
  facet normal 0 0 1
    outer loop
      vertex 25.2808 32.8117 0.391
      vertex 26.2259 33.1376 0.391
      vertex 25.9811 33.0805 0.391
    endloop
  endfacet
  facet normal 0 0 1
    outer loop
      vertex 25.9811 33.0805 0.391
      vertex 25.5085 32.9176 0.391
      vertex 25.2808 32.8117 0.391
    endloop
  endfacet
  facet normal -0 0 1
    outer loop
      vertex 25.7419 33.0072 0.391
      vertex 25.5085 32.9176 0.391
      vertex 25.9811 33.0805 0.391
    endloop
  endfacet
  facet normal 0 0 1
    outer loop
      vertex 26.4765 33.1783 0.391
      vertex 26.2259 33.1376 0.391
      vertex 25.0588 32.6895 0.391
    endloop
  endfacet
  facet normal 0 0 1
    outer loop
      vertex 26.4765 33.1783 0.391
      vertex 25.0588 32.6895 0.391
      vertex 24.8425 32.551 0.391
    endloop
  endfacet
  facet normal 0 0 1
    outer loop
      vertex 27.2568 33.2027 0.391
      vertex 26.9947 33.2109 0.391
      vertex 29.3578 32.3963 0.391
    endloop
  endfacet
  facet normal 0 0 1
    outer loop
      vertex 27.5131 33.1783 0.391
      vertex 27.2568 33.2027 0.391
      vertex 29.1472 32.551 0.391
    endloop
  endfacet
  facet normal 0 0 1
    outer loop
      vertex 27.5131 33.1783 0.391
      vertex 29.1472 32.551 0.391
      vertex 28.931 32.6895 0.391
    endloop
  endfacet
  facet normal 0 0 1
    outer loop
      vertex 27.7637 33.1376 0.391
      vertex 28.931 32.6895 0.391
      vertex 28.709 32.8117 0.391
    endloop
  endfacet
  facet normal 0 0 1
    outer loop
      vertex 28.0086 33.0805 0.391
      vertex 28.709 32.8117 0.391
      vertex 28.4812 32.9176 0.391
    endloop
  endfacet
  facet normal 0 0 1
    outer loop
      vertex 28.0086 33.0805 0.391
      vertex 28.4812 32.9176 0.391
      vertex 28.2478 33.0072 0.391
    endloop
  endfacet
  facet normal 0 0 1
    outer loop
      vertex 27.7637 33.1376 0.391
      vertex 28.709 32.8117 0.391
      vertex 28.0086 33.0805 0.391
    endloop
  endfacet
  facet normal 0 0 1
    outer loop
      vertex 27.5131 33.1783 0.391
      vertex 28.931 32.6895 0.391
      vertex 27.7637 33.1376 0.391
    endloop
  endfacet
  facet normal 0 0 1
    outer loop
      vertex 27.2568 33.2027 0.391
      vertex 29.3578 32.3963 0.391
      vertex 29.1472 32.551 0.391
    endloop
  endfacet
  facet normal -0 0 1
    outer loop
      vertex 24.8425 32.551 0.391
      vertex 24.6319 32.3963 0.391
      vertex 26.7327 33.2027 0.391
    endloop
  endfacet
  facet normal 0 0 1
    outer loop
      vertex 24.6319 32.3963 0.391
      vertex 26.9947 33.2109 0.391
      vertex 26.7327 33.2027 0.391
    endloop
  endfacet
  facet normal 0 0 1
    outer loop
      vertex 29.3578 32.3963 0.391
      vertex 26.9947 33.2109 0.391
      vertex 24.6319 32.3963 0.391
    endloop
  endfacet
  facet normal 0 0 1
    outer loop
      vertex 29.3578 32.3963 0.391
      vertex 24.6319 32.3963 0.391
      vertex 29.5626 32.2252 0.391
    endloop
  endfacet
  facet normal 0 0 1
    outer loop
      vertex 24.6319 32.3963 0.391
      vertex 24.427 32.2252 0.391
      vertex 29.5626 32.2252 0.391
    endloop
  endfacet
  facet normal -0 0 1
    outer loop
      vertex 24.427 32.2252 0.391
      vertex 29.7617 32.0378 0.391
      vertex 29.5626 32.2252 0.391
    endloop
  endfacet
  facet normal 0 0 1
    outer loop
      vertex 24.2278 32.0378 0.391
      vertex 29.7617 32.0378 0.391
      vertex 24.427 32.2252 0.391
    endloop
  endfacet
  facet normal 0 0 1
    outer loop
      vertex 29.9551 31.8342 0.391
      vertex 29.7617 32.0378 0.391
      vertex 24.2278 32.0378 0.391
    endloop
  endfacet
  facet normal 0 0 1
    outer loop
      vertex 29.9551 31.8342 0.391
      vertex 24.2278 32.0378 0.391
      vertex 24.0343 31.8342 0.391
    endloop
  endfacet
  facet normal 0 0 1
    outer loop
      vertex 29.9551 31.8342 0.391
      vertex 24.0343 31.8342 0.391
      vertex 23.8511 31.6192 0.391
    endloop
  endfacet
  facet normal 0 0 1
    outer loop
      vertex 29.9551 31.8342 0.391
      vertex 23.8511 31.6192 0.391
      vertex 30.1384 31.6192 0.391
    endloop
  endfacet
  facet normal -0 0 1
    outer loop
      vertex 23.8511 31.6192 0.391
      vertex 23.6826 31.3979 0.391
      vertex 30.1384 31.6192 0.391
    endloop
  endfacet
  facet normal 0 0 1
    outer loop
      vertex 23.6826 31.3979 0.391
      vertex 30.307 31.3979 0.391
      vertex 30.1384 31.6192 0.391
    endloop
  endfacet
  facet normal 0 0 1
    outer loop
      vertex 23.5287 31.1702 0.391
      vertex 30.307 31.3979 0.391
      vertex 23.6826 31.3979 0.391
    endloop
  endfacet
  facet normal 0 0 1
    outer loop
      vertex 30.461 31.1702 0.391
      vertex 30.307 31.3979 0.391
      vertex 23.5287 31.1702 0.391
    endloop
  endfacet
  facet normal 0 0 1
    outer loop
      vertex 30.461 31.1702 0.391
      vertex 23.5287 31.1702 0.391
      vertex 23.3895 30.9361 0.391
    endloop
  endfacet
  facet normal 0 0 1
    outer loop
      vertex 30.461 31.1702 0.391
      vertex 23.3895 30.9361 0.391
      vertex 30.6003 30.9361 0.391
    endloop
  endfacet
  facet normal -0 0 1
    outer loop
      vertex 23.3895 30.9361 0.391
      vertex 23.2649 30.6957 0.391
      vertex 30.6003 30.9361 0.391
    endloop
  endfacet
  facet normal 0 0 1
    outer loop
      vertex 23.2649 30.6957 0.391
      vertex 30.7249 30.6957 0.391
      vertex 30.6003 30.9361 0.391
    endloop
  endfacet
  facet normal 0 0 1
    outer loop
      vertex 23.155 30.4489 0.391
      vertex 30.7249 30.6957 0.391
      vertex 23.2649 30.6957 0.391
    endloop
  endfacet
  facet normal 0 0 1
    outer loop
      vertex 30.8349 30.4489 0.391
      vertex 30.7249 30.6957 0.391
      vertex 23.155 30.4489 0.391
    endloop
  endfacet
  facet normal 0 0 1
    outer loop
      vertex 30.8349 30.4489 0.391
      vertex 23.155 30.4489 0.391
      vertex 23.0597 30.1958 0.391
    endloop
  endfacet
  facet normal 0 0 1
    outer loop
      vertex 30.8349 30.4489 0.391
      vertex 23.0597 30.1958 0.391
      vertex 30.9302 30.1958 0.391
    endloop
  endfacet
  facet normal -0 0 1
    outer loop
      vertex 23.0597 30.1958 0.391
      vertex 22.9791 29.9363 0.391
      vertex 30.9302 30.1958 0.391
    endloop
  endfacet
  facet normal 0 0 1
    outer loop
      vertex 22.9791 29.9363 0.391
      vertex 31.0108 29.9363 0.391
      vertex 30.9302 30.1958 0.391
    endloop
  endfacet
  facet normal 0 0 1
    outer loop
      vertex 22.9132 29.6705 0.391
      vertex 31.0108 29.9363 0.391
      vertex 22.9791 29.9363 0.391
    endloop
  endfacet
  facet normal 0 0 1
    outer loop
      vertex 31.0768 29.6705 0.391
      vertex 31.0108 29.9363 0.391
      vertex 22.9132 29.6705 0.391
    endloop
  endfacet
  facet normal 0 0 1
    outer loop
      vertex 31.0768 29.6705 0.391
      vertex 22.9132 29.6705 0.391
      vertex 22.8619 29.3983 0.391
    endloop
  endfacet
  facet normal 0 0 1
    outer loop
      vertex 31.0768 29.6705 0.391
      vertex 22.8619 29.3983 0.391
      vertex 31.1281 29.3983 0.391
    endloop
  endfacet
  facet normal -0 0 1
    outer loop
      vertex 22.8619 29.3983 0.391
      vertex 22.8252 29.1197 0.391
      vertex 31.1281 29.3983 0.391
    endloop
  endfacet
  facet normal 0 0 1
    outer loop
      vertex 22.8252 29.1197 0.391
      vertex 31.1648 29.1197 0.391
      vertex 31.1281 29.3983 0.391
    endloop
  endfacet
  facet normal 0 0 1
    outer loop
      vertex 22.8032 28.8348 0.391
      vertex 31.1648 29.1197 0.391
      vertex 22.8252 29.1197 0.391
    endloop
  endfacet
  facet normal 0 0 1
    outer loop
      vertex 31.1868 28.8348 0.391
      vertex 31.1648 29.1197 0.391
      vertex 22.8032 28.8348 0.391
    endloop
  endfacet
  facet normal 0 0 1
    outer loop
      vertex 31.1868 28.8348 0.391
      vertex 22.8032 28.8348 0.391
      vertex 22.7959 28.5435 0.391
    endloop
  endfacet
  facet normal 0 0 1
    outer loop
      vertex 31.1868 28.8348 0.391
      vertex 22.7959 28.5435 0.391
      vertex 31.1941 28.5435 0.391
    endloop
  endfacet
  facet normal -0 0 1
    outer loop
      vertex 22.7959 28.5435 0.391
      vertex 31.1941 -0.699997 0.391
      vertex 31.1941 28.5435 0.391
    endloop
  endfacet
  facet normal 0 0 1
    outer loop
      vertex 22.7959 -0.699997 0.391
      vertex 31.1941 -0.699997 0.391
      vertex 22.7959 28.5435 0.391
    endloop
  endfacet
  facet normal 0.999686 0.0250522 0
    outer loop
      vertex 31.1868 28.8348 0.091
      vertex 31.1941 28.5435 0.391
      vertex 31.1941 28.5435 0.091
    endloop
  endfacet
  facet normal 0.999686 0.0250522 -0
    outer loop
      vertex 31.1868 28.8348 0.091
      vertex 31.1868 28.8348 0.391
      vertex 31.1941 28.5435 0.391
    endloop
  endfacet
  facet normal 0.997032 0.0769909 0
    outer loop
      vertex 31.1648 29.1197 0.091
      vertex 31.1868 28.8348 0.391
      vertex 31.1868 28.8348 0.091
    endloop
  endfacet
  facet normal 0.997032 0.0769909 -0
    outer loop
      vertex 31.1648 29.1197 0.091
      vertex 31.1648 29.1197 0.391
      vertex 31.1868 28.8348 0.391
    endloop
  endfacet
  facet normal 0.991435 0.130602 0
    outer loop
      vertex 31.1281 29.3983 0.091
      vertex 31.1648 29.1197 0.391
      vertex 31.1648 29.1197 0.091
    endloop
  endfacet
  facet normal 0.991435 0.130602 -0
    outer loop
      vertex 31.1281 29.3983 0.091
      vertex 31.1281 29.3983 0.391
      vertex 31.1648 29.1197 0.391
    endloop
  endfacet
  facet normal 0.9827 0.185204 0
    outer loop
      vertex 31.0768 29.6705 0.091
      vertex 31.1281 29.3983 0.391
      vertex 31.1281 29.3983 0.091
    endloop
  endfacet
  facet normal 0.9827 0.185204 -0
    outer loop
      vertex 31.0768 29.6705 0.091
      vertex 31.0768 29.6705 0.391
      vertex 31.1281 29.3983 0.391
    endloop
  endfacet
  facet normal 0.970528 0.240989 0
    outer loop
      vertex 31.0108 29.9363 0.091
      vertex 31.0768 29.6705 0.391
      vertex 31.0768 29.6705 0.091
    endloop
  endfacet
  facet normal 0.970528 0.240989 -0
    outer loop
      vertex 31.0108 29.9363 0.091
      vertex 31.0108 29.9363 0.391
      vertex 31.0768 29.6705 0.391
    endloop
  endfacet
  facet normal 0.954996 0.296619 0
    outer loop
      vertex 30.9302 30.1958 0.091
      vertex 31.0108 29.9363 0.391
      vertex 31.0108 29.9363 0.091
    endloop
  endfacet
  facet normal 0.954996 0.296619 -0
    outer loop
      vertex 30.9302 30.1958 0.091
      vertex 30.9302 30.1958 0.391
      vertex 31.0108 29.9363 0.391
    endloop
  endfacet
  facet normal 0.935857 0.352379 0
    outer loop
      vertex 30.8349 30.4489 0.091
      vertex 30.9302 30.1958 0.391
      vertex 30.9302 30.1958 0.091
    endloop
  endfacet
  facet normal 0.935857 0.352379 -0
    outer loop
      vertex 30.8349 30.4489 0.091
      vertex 30.8349 30.4489 0.391
      vertex 30.9302 30.1958 0.391
    endloop
  endfacet
  facet normal 0.913384 0.4071 0
    outer loop
      vertex 30.7249 30.6957 0.091
      vertex 30.8349 30.4489 0.391
      vertex 30.8349 30.4489 0.091
    endloop
  endfacet
  facet normal 0.913384 0.4071 -0
    outer loop
      vertex 30.7249 30.6957 0.091
      vertex 30.7249 30.6957 0.391
      vertex 30.8349 30.4489 0.391
    endloop
  endfacet
  facet normal 0.887833 0.460166 0
    outer loop
      vertex 30.6003 30.9361 0.091
      vertex 30.7249 30.6957 0.391
      vertex 30.7249 30.6957 0.091
    endloop
  endfacet
  facet normal 0.887833 0.460166 -0
    outer loop
      vertex 30.6003 30.9361 0.091
      vertex 30.6003 30.9361 0.391
      vertex 30.7249 30.6957 0.391
    endloop
  endfacet
  facet normal 0.859366 0.511361 0
    outer loop
      vertex 30.461 31.1702 0.091
      vertex 30.6003 30.9361 0.391
      vertex 30.6003 30.9361 0.091
    endloop
  endfacet
  facet normal 0.859366 0.511361 -0
    outer loop
      vertex 30.461 31.1702 0.091
      vertex 30.461 31.1702 0.391
      vertex 30.6003 30.9361 0.391
    endloop
  endfacet
  facet normal 0.828338 0.560229 0
    outer loop
      vertex 30.307 31.3979 0.091
      vertex 30.461 31.1702 0.391
      vertex 30.461 31.1702 0.091
    endloop
  endfacet
  facet normal 0.828338 0.560229 -0
    outer loop
      vertex 30.307 31.3979 0.091
      vertex 30.307 31.3979 0.391
      vertex 30.461 31.1702 0.391
    endloop
  endfacet
  facet normal 0.795448 0.606022 0
    outer loop
      vertex 30.1384 31.6192 0.091
      vertex 30.307 31.3979 0.391
      vertex 30.307 31.3979 0.091
    endloop
  endfacet
  facet normal 0.795448 0.606022 -0
    outer loop
      vertex 30.1384 31.6192 0.091
      vertex 30.1384 31.6192 0.391
      vertex 30.307 31.3979 0.391
    endloop
  endfacet
  facet normal 0.760978 0.648778 0
    outer loop
      vertex 29.9551 31.8342 0.091
      vertex 30.1384 31.6192 0.391
      vertex 30.1384 31.6192 0.091
    endloop
  endfacet
  facet normal 0.760978 0.648778 -0
    outer loop
      vertex 29.9551 31.8342 0.091
      vertex 29.9551 31.8342 0.391
      vertex 30.1384 31.6192 0.391
    endloop
  endfacet
  facet normal 0.725035 0.688712 0
    outer loop
      vertex 29.7617 32.0378 0.091
      vertex 29.9551 31.8342 0.391
      vertex 29.9551 31.8342 0.091
    endloop
  endfacet
  facet normal 0.725035 0.688712 -0
    outer loop
      vertex 29.7617 32.0378 0.091
      vertex 29.7617 32.0378 0.391
      vertex 29.9551 31.8342 0.391
    endloop
  endfacet
  facet normal 0.685388 0.728179 0
    outer loop
      vertex 29.5626 32.2252 0.091
      vertex 29.7617 32.0378 0.391
      vertex 29.7617 32.0378 0.091
    endloop
  endfacet
  facet normal 0.685388 0.728179 -0
    outer loop
      vertex 29.5626 32.2252 0.091
      vertex 29.5626 32.2252 0.391
      vertex 29.7617 32.0378 0.391
    endloop
  endfacet
  facet normal 0.641142 0.767422 0
    outer loop
      vertex 29.3578 32.3963 0.091
      vertex 29.5626 32.2252 0.391
      vertex 29.5626 32.2252 0.091
    endloop
  endfacet
  facet normal 0.641142 0.767422 -0
    outer loop
      vertex 29.3578 32.3963 0.091
      vertex 29.3578 32.3963 0.391
      vertex 29.5626 32.2252 0.391
    endloop
  endfacet
  facet normal 0.59201 0.80593 0
    outer loop
      vertex 29.1472 32.551 0.091
      vertex 29.3578 32.3963 0.391
      vertex 29.3578 32.3963 0.091
    endloop
  endfacet
  facet normal 0.59201 0.80593 -0
    outer loop
      vertex 29.1472 32.551 0.091
      vertex 29.1472 32.551 0.391
      vertex 29.3578 32.3963 0.391
    endloop
  endfacet
  facet normal 0.539418 0.842038 0
    outer loop
      vertex 28.931 32.6895 0.091
      vertex 29.1472 32.551 0.391
      vertex 29.1472 32.551 0.091
    endloop
  endfacet
  facet normal 0.539418 0.842038 -0
    outer loop
      vertex 28.931 32.6895 0.091
      vertex 28.931 32.6895 0.391
      vertex 29.1472 32.551 0.391
    endloop
  endfacet
  facet normal 0.482222 0.876049 0
    outer loop
      vertex 28.709 32.8117 0.091
      vertex 28.931 32.6895 0.391
      vertex 28.931 32.6895 0.091
    endloop
  endfacet
  facet normal 0.482222 0.876049 -0
    outer loop
      vertex 28.709 32.8117 0.091
      vertex 28.709 32.8117 0.391
      vertex 28.931 32.6895 0.391
    endloop
  endfacet
  facet normal 0.421556 0.906803 0
    outer loop
      vertex 28.4812 32.9176 0.091
      vertex 28.709 32.8117 0.391
      vertex 28.709 32.8117 0.091
    endloop
  endfacet
  facet normal 0.421556 0.906803 -0
    outer loop
      vertex 28.4812 32.9176 0.091
      vertex 28.4812 32.9176 0.391
      vertex 28.709 32.8117 0.391
    endloop
  endfacet
  facet normal 0.358389 0.933572 0
    outer loop
      vertex 28.2478 33.0072 0.091
      vertex 28.4812 32.9176 0.391
      vertex 28.4812 32.9176 0.091
    endloop
  endfacet
  facet normal 0.358389 0.933572 -0
    outer loop
      vertex 28.2478 33.0072 0.091
      vertex 28.2478 33.0072 0.391
      vertex 28.4812 32.9176 0.391
    endloop
  endfacet
  facet normal 0.29299 0.956115 0
    outer loop
      vertex 28.0086 33.0805 0.091
      vertex 28.2478 33.0072 0.391
      vertex 28.2478 33.0072 0.091
    endloop
  endfacet
  facet normal 0.29299 0.956115 -0
    outer loop
      vertex 28.0086 33.0805 0.091
      vertex 28.0086 33.0805 0.391
      vertex 28.2478 33.0072 0.391
    endloop
  endfacet
  facet normal 0.227066 0.973879 0
    outer loop
      vertex 27.7637 33.1376 0.091
      vertex 28.0086 33.0805 0.391
      vertex 28.0086 33.0805 0.091
    endloop
  endfacet
  facet normal 0.227066 0.973879 -0
    outer loop
      vertex 27.7637 33.1376 0.091
      vertex 27.7637 33.1376 0.391
      vertex 28.0086 33.0805 0.391
    endloop
  endfacet
  facet normal 0.16031 0.987067 0
    outer loop
      vertex 27.5131 33.1783 0.091
      vertex 27.7637 33.1376 0.391
      vertex 27.7637 33.1376 0.091
    endloop
  endfacet
  facet normal 0.16031 0.987067 -0
    outer loop
      vertex 27.5131 33.1783 0.091
      vertex 27.5131 33.1783 0.391
      vertex 27.7637 33.1376 0.391
    endloop
  endfacet
  facet normal 0.0947724 0.995499 0
    outer loop
      vertex 27.2568 33.2027 0.091
      vertex 27.5131 33.1783 0.391
      vertex 27.5131 33.1783 0.091
    endloop
  endfacet
  facet normal 0.0947724 0.995499 -0
    outer loop
      vertex 27.2568 33.2027 0.091
      vertex 27.2568 33.2027 0.391
      vertex 27.5131 33.1783 0.391
    endloop
  endfacet
  facet normal 0.0312705 0.999511 0
    outer loop
      vertex 26.9947 33.2109 0.091
      vertex 27.2568 33.2027 0.391
      vertex 27.2568 33.2027 0.091
    endloop
  endfacet
  facet normal 0.0312705 0.999511 -0
    outer loop
      vertex 26.9947 33.2109 0.091
      vertex 26.9947 33.2109 0.391
      vertex 27.2568 33.2027 0.391
    endloop
  endfacet
  facet normal -0.0312824 0.999511 0
    outer loop
      vertex 26.7327 33.2027 0.091
      vertex 26.9947 33.2109 0.391
      vertex 26.9947 33.2109 0.091
    endloop
  endfacet
  facet normal -0.0312824 0.999511 0
    outer loop
      vertex 26.7327 33.2027 0.091
      vertex 26.7327 33.2027 0.391
      vertex 26.9947 33.2109 0.391
    endloop
  endfacet
  facet normal -0.0948091 0.995495 0
    outer loop
      vertex 26.4765 33.1783 0.091
      vertex 26.7327 33.2027 0.391
      vertex 26.7327 33.2027 0.091
    endloop
  endfacet
  facet normal -0.0948091 0.995495 0
    outer loop
      vertex 26.4765 33.1783 0.091
      vertex 26.4765 33.1783 0.391
      vertex 26.7327 33.2027 0.391
    endloop
  endfacet
  facet normal -0.16031 0.987067 0
    outer loop
      vertex 26.2259 33.1376 0.091
      vertex 26.4765 33.1783 0.391
      vertex 26.4765 33.1783 0.091
    endloop
  endfacet
  facet normal -0.16031 0.987067 0
    outer loop
      vertex 26.2259 33.1376 0.091
      vertex 26.2259 33.1376 0.391
      vertex 26.4765 33.1783 0.391
    endloop
  endfacet
  facet normal -0.227154 0.973859 0
    outer loop
      vertex 25.9811 33.0805 0.091
      vertex 26.2259 33.1376 0.391
      vertex 26.2259 33.1376 0.091
    endloop
  endfacet
  facet normal -0.227154 0.973859 0
    outer loop
      vertex 25.9811 33.0805 0.091
      vertex 25.9811 33.0805 0.391
      vertex 26.2259 33.1376 0.391
    endloop
  endfacet
  facet normal -0.29299 0.956115 0
    outer loop
      vertex 25.7419 33.0072 0.091
      vertex 25.9811 33.0805 0.391
      vertex 25.9811 33.0805 0.091
    endloop
  endfacet
  facet normal -0.29299 0.956115 0
    outer loop
      vertex 25.7419 33.0072 0.091
      vertex 25.7419 33.0072 0.391
      vertex 25.9811 33.0805 0.391
    endloop
  endfacet
  facet normal -0.358389 0.933572 0
    outer loop
      vertex 25.5085 32.9176 0.091
      vertex 25.7419 33.0072 0.391
      vertex 25.7419 33.0072 0.091
    endloop
  endfacet
  facet normal -0.358389 0.933572 0
    outer loop
      vertex 25.5085 32.9176 0.091
      vertex 25.5085 32.9176 0.391
      vertex 25.7419 33.0072 0.391
    endloop
  endfacet
  facet normal -0.421708 0.906732 0
    outer loop
      vertex 25.2808 32.8117 0.091
      vertex 25.5085 32.9176 0.391
      vertex 25.5085 32.9176 0.091
    endloop
  endfacet
  facet normal -0.421708 0.906732 0
    outer loop
      vertex 25.2808 32.8117 0.091
      vertex 25.2808 32.8117 0.391
      vertex 25.5085 32.9176 0.391
    endloop
  endfacet
  facet normal -0.482222 0.876049 0
    outer loop
      vertex 25.0588 32.6895 0.091
      vertex 25.2808 32.8117 0.391
      vertex 25.2808 32.8117 0.091
    endloop
  endfacet
  facet normal -0.482222 0.876049 0
    outer loop
      vertex 25.0588 32.6895 0.091
      vertex 25.0588 32.6895 0.391
      vertex 25.2808 32.8117 0.391
    endloop
  endfacet
  facet normal -0.539242 0.842151 0
    outer loop
      vertex 24.8425 32.551 0.091
      vertex 25.0588 32.6895 0.391
      vertex 25.0588 32.6895 0.091
    endloop
  endfacet
  facet normal -0.539242 0.842151 0
    outer loop
      vertex 24.8425 32.551 0.091
      vertex 24.8425 32.551 0.391
      vertex 25.0588 32.6895 0.391
    endloop
  endfacet
  facet normal -0.59201 0.80593 0
    outer loop
      vertex 24.6319 32.3963 0.091
      vertex 24.8425 32.551 0.391
      vertex 24.8425 32.551 0.091
    endloop
  endfacet
  facet normal -0.59201 0.80593 0
    outer loop
      vertex 24.6319 32.3963 0.091
      vertex 24.6319 32.3963 0.391
      vertex 24.8425 32.551 0.391
    endloop
  endfacet
  facet normal -0.640958 0.767576 0
    outer loop
      vertex 24.427 32.2252 0.091
      vertex 24.6319 32.3963 0.391
      vertex 24.6319 32.3963 0.091
    endloop
  endfacet
  facet normal -0.640958 0.767576 0
    outer loop
      vertex 24.427 32.2252 0.091
      vertex 24.427 32.2252 0.391
      vertex 24.6319 32.3963 0.391
    endloop
  endfacet
  facet normal -0.685205 0.72835 0
    outer loop
      vertex 24.2278 32.0378 0.091
      vertex 24.427 32.2252 0.391
      vertex 24.427 32.2252 0.091
    endloop
  endfacet
  facet normal -0.685205 0.72835 0
    outer loop
      vertex 24.2278 32.0378 0.091
      vertex 24.2278 32.0378 0.391
      vertex 24.427 32.2252 0.391
    endloop
  endfacet
  facet normal -0.724857 0.688899 0
    outer loop
      vertex 24.0343 31.8342 0.091
      vertex 24.2278 32.0378 0.391
      vertex 24.2278 32.0378 0.091
    endloop
  endfacet
  facet normal -0.724857 0.688899 0
    outer loop
      vertex 24.0343 31.8342 0.091
      vertex 24.0343 31.8342 0.391
      vertex 24.2278 32.0378 0.391
    endloop
  endfacet
  facet normal -0.761153 0.648573 0
    outer loop
      vertex 23.8511 31.6192 0.091
      vertex 24.0343 31.8342 0.391
      vertex 24.0343 31.8342 0.091
    endloop
  endfacet
  facet normal -0.761153 0.648573 0
    outer loop
      vertex 23.8511 31.6192 0.091
      vertex 23.8511 31.6192 0.391
      vertex 24.0343 31.8342 0.391
    endloop
  endfacet
  facet normal -0.795622 0.605794 0
    outer loop
      vertex 23.6826 31.3979 0.091
      vertex 23.8511 31.6192 0.391
      vertex 23.8511 31.6192 0.091
    endloop
  endfacet
  facet normal -0.795622 0.605794 0
    outer loop
      vertex 23.6826 31.3979 0.091
      vertex 23.6826 31.3979 0.391
      vertex 23.8511 31.6192 0.391
    endloop
  endfacet
  facet normal -0.828507 0.559979 0
    outer loop
      vertex 23.5287 31.1702 0.091
      vertex 23.6826 31.3979 0.391
      vertex 23.6826 31.3979 0.091
    endloop
  endfacet
  facet normal -0.828507 0.559979 0
    outer loop
      vertex 23.5287 31.1702 0.091
      vertex 23.5287 31.1702 0.391
      vertex 23.6826 31.3979 0.391
    endloop
  endfacet
  facet normal -0.859527 0.51109 0
    outer loop
      vertex 23.3895 30.9361 0.091
      vertex 23.5287 31.1702 0.391
      vertex 23.5287 31.1702 0.091
    endloop
  endfacet
  facet normal -0.859527 0.51109 0
    outer loop
      vertex 23.3895 30.9361 0.091
      vertex 23.3895 30.9361 0.391
      vertex 23.5287 31.1702 0.391
    endloop
  endfacet
  facet normal -0.887833 0.460166 0
    outer loop
      vertex 23.2649 30.6957 0.091
      vertex 23.3895 30.9361 0.391
      vertex 23.3895 30.9361 0.091
    endloop
  endfacet
  facet normal -0.887833 0.460166 0
    outer loop
      vertex 23.2649 30.6957 0.091
      vertex 23.2649 30.6957 0.391
      vertex 23.3895 30.9361 0.391
    endloop
  endfacet
  facet normal -0.913521 0.406791 0
    outer loop
      vertex 23.155 30.4489 0.091
      vertex 23.2649 30.6957 0.391
      vertex 23.2649 30.6957 0.091
    endloop
  endfacet
  facet normal -0.913521 0.406791 0
    outer loop
      vertex 23.155 30.4489 0.091
      vertex 23.155 30.4489 0.391
      vertex 23.2649 30.6957 0.391
    endloop
  endfacet
  facet normal -0.935857 0.352379 0
    outer loop
      vertex 23.0597 30.1958 0.091
      vertex 23.155 30.4489 0.391
      vertex 23.155 30.4489 0.091
    endloop
  endfacet
  facet normal -0.935857 0.352379 0
    outer loop
      vertex 23.0597 30.1958 0.091
      vertex 23.0597 30.1958 0.391
      vertex 23.155 30.4489 0.391
    endloop
  endfacet
  facet normal -0.954996 0.296619 0
    outer loop
      vertex 22.9791 29.9363 0.091
      vertex 23.0597 30.1958 0.391
      vertex 23.0597 30.1958 0.091
    endloop
  endfacet
  facet normal -0.954996 0.296619 0
    outer loop
      vertex 22.9791 29.9363 0.091
      vertex 22.9791 29.9363 0.391
      vertex 23.0597 30.1958 0.391
    endloop
  endfacet
  facet normal -0.970613 0.240645 0
    outer loop
      vertex 22.9132 29.6705 0.091
      vertex 22.9791 29.9363 0.391
      vertex 22.9791 29.9363 0.091
    endloop
  endfacet
  facet normal -0.970613 0.240645 0
    outer loop
      vertex 22.9132 29.6705 0.091
      vertex 22.9132 29.6705 0.391
      vertex 22.9791 29.9363 0.391
    endloop
  endfacet
  facet normal -0.9827 0.185204 0
    outer loop
      vertex 22.8619 29.3983 0.091
      vertex 22.9132 29.6705 0.391
      vertex 22.9132 29.6705 0.091
    endloop
  endfacet
  facet normal -0.9827 0.185204 0
    outer loop
      vertex 22.8619 29.3983 0.091
      vertex 22.8619 29.3983 0.391
      vertex 22.9132 29.6705 0.391
    endloop
  endfacet
  facet normal -0.991435 0.130602 0
    outer loop
      vertex 22.8252 29.1197 0.091
      vertex 22.8619 29.3983 0.391
      vertex 22.8619 29.3983 0.091
    endloop
  endfacet
  facet normal -0.991435 0.130602 0
    outer loop
      vertex 22.8252 29.1197 0.091
      vertex 22.8252 29.1197 0.391
      vertex 22.8619 29.3983 0.391
    endloop
  endfacet
  facet normal -0.997032 0.0769909 0
    outer loop
      vertex 22.8032 28.8348 0.091
      vertex 22.8252 29.1197 0.391
      vertex 22.8252 29.1197 0.091
    endloop
  endfacet
  facet normal -0.997032 0.0769909 0
    outer loop
      vertex 22.8032 28.8348 0.091
      vertex 22.8032 28.8348 0.391
      vertex 22.8252 29.1197 0.391
    endloop
  endfacet
  facet normal -0.999686 0.0250522 0
    outer loop
      vertex 22.7959 28.5435 0.091
      vertex 22.8032 28.8348 0.391
      vertex 22.8032 28.8348 0.091
    endloop
  endfacet
  facet normal -0.999686 0.0250522 0
    outer loop
      vertex 22.7959 28.5435 0.091
      vertex 22.7959 28.5435 0.391
      vertex 22.8032 28.8348 0.391
    endloop
  endfacet
  facet normal -1 0 0
    outer loop
      vertex 22.7959 -0.699997 0.091
      vertex 22.7959 28.5435 0.391
      vertex 22.7959 28.5435 0.091
    endloop
  endfacet
  facet normal -1 0 0
    outer loop
      vertex 22.7959 -0.699997 0.091
      vertex 22.7959 -0.699997 0.391
      vertex 22.7959 28.5435 0.391
    endloop
  endfacet
  facet normal 0 -1 0
    outer loop
      vertex 31.1941 -0.699997 0.091
      vertex 22.7959 -0.699997 0.391
      vertex 22.7959 -0.699997 0.091
    endloop
  endfacet
  facet normal 0 -1 0
    outer loop
      vertex 31.1941 -0.699997 0.091
      vertex 31.1941 -0.699997 0.391
      vertex 22.7959 -0.699997 0.391
    endloop
  endfacet
  facet normal 1 0 0
    outer loop
      vertex 31.1941 28.5435 0.091
      vertex 31.1941 -0.699997 0.391
      vertex 31.1941 -0.699997 0.091
    endloop
  endfacet
  facet normal 1 0 -0
    outer loop
      vertex 31.1941 28.5435 0.091
      vertex 31.1941 28.5435 0.391
      vertex 31.1941 -0.699997 0.391
    endloop
  endfacet
endsolid OpenSCAD_Model
