solid OpenSCAD_Model
  facet normal -0 0 -1
    outer loop
      vertex 35.6235 31.2282 0.091
      vertex 31.4835 23.0011 0.091
      vertex 34.4813 31.7542 0.091
    endloop
  endfacet
  facet normal -0 0 -1
    outer loop
      vertex 34.4813 31.7542 0.091
      vertex 30.7804 23.2685 0.091
      vertex 33.3091 32.1993 0.091
    endloop
  endfacet
  facet normal 0 0 -1
    outer loop
      vertex 31.4835 23.0011 0.091
      vertex 30.7804 23.2685 0.091
      vertex 34.4813 31.7542 0.091
    endloop
  endfacet
  facet normal 0 0 -1
    outer loop
      vertex 32.1686 22.6852 0.091
      vertex 31.4835 23.0011 0.091
      vertex 35.6235 31.2282 0.091
    endloop
  endfacet
  facet normal 0 -0 -1
    outer loop
      vertex 32.1067 32.5635 0.091
      vertex 33.3091 32.1993 0.091
      vertex 30.0595 23.4872 0.091
    endloop
  endfacet
  facet normal 0 0 -1
    outer loop
      vertex 30.0595 23.4872 0.091
      vertex 33.3091 32.1993 0.091
      vertex 30.7804 23.2685 0.091
    endloop
  endfacet
  facet normal 0 0 -1
    outer loop
      vertex 30.0595 23.4872 0.091
      vertex 29.3207 23.6573 0.091
      vertex 32.1067 32.5635 0.091
    endloop
  endfacet
  facet normal -0 0 -1
    outer loop
      vertex 28.3193 33.1704 0.091
      vertex 26.9967 23.8761 0.091
      vertex 26.9967 33.2109 0.091
    endloop
  endfacet
  facet normal 0 0 -1
    outer loop
      vertex 27.7892 23.8518 0.091
      vertex 26.9967 23.8761 0.091
      vertex 28.3193 33.1704 0.091
    endloop
  endfacet
  facet normal 0 0 -1
    outer loop
      vertex 28.5639 23.7789 0.091
      vertex 30.8743 32.8467 0.091
      vertex 29.3207 23.6573 0.091
    endloop
  endfacet
  facet normal 0 0 -1
    outer loop
      vertex 28.5639 23.7789 0.091
      vertex 29.6119 33.049 0.091
      vertex 30.8743 32.8467 0.091
    endloop
  endfacet
  facet normal 0 0 -1
    outer loop
      vertex 28.5639 23.7789 0.091
      vertex 27.7892 23.8518 0.091
      vertex 29.6119 33.049 0.091
    endloop
  endfacet
  facet normal -0 0 -1
    outer loop
      vertex 29.6119 33.049 0.091
      vertex 27.7892 23.8518 0.091
      vertex 28.3193 33.1704 0.091
    endloop
  endfacet
  facet normal 0 -0 -1
    outer loop
      vertex 30.8743 32.8467 0.091
      vertex 32.1067 32.5635 0.091
      vertex 29.3207 23.6573 0.091
    endloop
  endfacet
  facet normal 0 -0 -1
    outer loop
      vertex 26.9967 33.2109 0.091
      vertex 26.9967 23.8761 0.091
      vertex 14.3935 23.8761 0.091
    endloop
  endfacet
  facet normal -0 0 -1
    outer loop
      vertex 36.7356 30.6213 0.091
      vertex 32.1686 22.6852 0.091
      vertex 35.6235 31.2282 0.091
    endloop
  endfacet
  facet normal -0 0 -1
    outer loop
      vertex 39.8915 28.315 0.091
      vertex 34.1165 21.4457 0.091
      vertex 38.8696 29.1647 0.091
    endloop
  endfacet
  facet normal 0 0 -1
    outer loop
      vertex 39.8915 28.315 0.091
      vertex 34.73 20.9353 0.091
      vertex 34.1165 21.4457 0.091
    endloop
  endfacet
  facet normal -0 0 -1
    outer loop
      vertex 42.7554 25.3042 0.091
      vertex 35.9032 19.7687 0.091
      vertex 41.8451 26.3728 0.091
    endloop
  endfacet
  facet normal 0 0 -1
    outer loop
      vertex 42.7554 25.3042 0.091
      vertex 36.4502 19.1269 0.091
      vertex 35.9032 19.7687 0.091
    endloop
  endfacet
  facet normal 0 0 -1
    outer loop
      vertex 5.99525 -0.699997 0.091
      vertex 5.99525 28.5435 0.091
      vertex 14.3935 23.8761 0.091
    endloop
  endfacet
  facet normal 0 0 -1
    outer loop
      vertex 37.4128 17.7836 0.091
      vertex 36.9533 18.4652 0.091
      vertex 44.3575 23.0667 0.091
    endloop
  endfacet
  facet normal 0 -0 -1
    outer loop
      vertex 7.42776 32.0378 0.091
      vertex 10.1959 33.2109 0.091
      vertex 7.23428 31.8342 0.091
    endloop
  endfacet
  facet normal 0 0 -1
    outer loop
      vertex 7.62697 32.2252 0.091
      vertex 7.83189 32.3963 0.091
      vertex 10.1959 33.2109 0.091
    endloop
  endfacet
  facet normal 0 0 -1
    outer loop
      vertex 8.70883 32.9176 0.091
      vertex 8.94237 33.0072 0.091
      vertex 9.18164 33.0805 0.091
    endloop
  endfacet
  facet normal 0 0 -1
    outer loop
      vertex 8.48102 32.8117 0.091
      vertex 8.70883 32.9176 0.091
      vertex 9.18164 33.0805 0.091
    endloop
  endfacet
  facet normal 0 0 -1
    outer loop
      vertex 9.42662 33.1376 0.091
      vertex 8.48102 32.8117 0.091
      vertex 9.18164 33.0805 0.091
    endloop
  endfacet
  facet normal 0 0 -1
    outer loop
      vertex 9.42662 33.1376 0.091
      vertex 8.25891 32.6895 0.091
      vertex 8.48102 32.8117 0.091
    endloop
  endfacet
  facet normal 0 -0 -1
    outer loop
      vertex 9.42662 33.1376 0.091
      vertex 9.67732 33.1783 0.091
      vertex 8.25891 32.6895 0.091
    endloop
  endfacet
  facet normal 0 -0 -1
    outer loop
      vertex 8.25891 32.6895 0.091
      vertex 9.67732 33.1783 0.091
      vertex 8.04254 32.551 0.091
    endloop
  endfacet
  facet normal 0 0 -1
    outer loop
      vertex 8.04254 32.551 0.091
      vertex 9.67732 33.1783 0.091
      vertex 9.93376 33.2027 0.091
    endloop
  endfacet
  facet normal 0 0 -1
    outer loop
      vertex 7.83189 32.3963 0.091
      vertex 8.04254 32.551 0.091
      vertex 9.93376 33.2027 0.091
    endloop
  endfacet
  facet normal 0 0 -1
    outer loop
      vertex 10.1959 33.2109 0.091
      vertex 7.83189 32.3963 0.091
      vertex 9.93376 33.2027 0.091
    endloop
  endfacet
  facet normal 0 0 -1
    outer loop
      vertex 7.42776 32.0378 0.091
      vertex 7.62697 32.2252 0.091
      vertex 10.1959 33.2109 0.091
    endloop
  endfacet
  facet normal 0 -0 -1
    outer loop
      vertex 7.23428 31.8342 0.091
      vertex 10.1959 33.2109 0.091
      vertex 7.05101 31.6192 0.091
    endloop
  endfacet
  facet normal 0 -0 -1
    outer loop
      vertex 7.05101 31.6192 0.091
      vertex 10.1959 33.2109 0.091
      vertex 6.88239 31.3979 0.091
    endloop
  endfacet
  facet normal 0 -0 -1
    outer loop
      vertex 6.88239 31.3979 0.091
      vertex 10.1959 33.2109 0.091
      vertex 6.72842 31.1702 0.091
    endloop
  endfacet
  facet normal 0 -0 -1
    outer loop
      vertex 6.72842 31.1702 0.091
      vertex 10.1959 33.2109 0.091
      vertex 6.58911 30.9361 0.091
    endloop
  endfacet
  facet normal 0 -0 -1
    outer loop
      vertex 6.58911 30.9361 0.091
      vertex 10.1959 33.2109 0.091
      vertex 6.46449 30.6957 0.091
    endloop
  endfacet
  facet normal 0 -0 -1
    outer loop
      vertex 6.46449 30.6957 0.091
      vertex 10.1959 33.2109 0.091
      vertex 6.35451 30.4489 0.091
    endloop
  endfacet
  facet normal 0 -0 -1
    outer loop
      vertex 6.35451 30.4489 0.091
      vertex 10.1959 33.2109 0.091
      vertex 6.25919 30.1958 0.091
    endloop
  endfacet
  facet normal 0 -0 -1
    outer loop
      vertex 6.25919 30.1958 0.091
      vertex 10.1959 33.2109 0.091
      vertex 6.17856 29.9363 0.091
    endloop
  endfacet
  facet normal 0 -0 -1
    outer loop
      vertex 6.17856 29.9363 0.091
      vertex 10.1959 33.2109 0.091
      vertex 6.11256 29.6705 0.091
    endloop
  endfacet
  facet normal 0 -0 -1
    outer loop
      vertex 6.11256 29.6705 0.091
      vertex 10.1959 33.2109 0.091
      vertex 6.06125 29.3983 0.091
    endloop
  endfacet
  facet normal 0 -0 -1
    outer loop
      vertex 6.06125 29.3983 0.091
      vertex 10.1959 33.2109 0.091
      vertex 6.0246 29.1197 0.091
    endloop
  endfacet
  facet normal 0 -0 -1
    outer loop
      vertex 6.0246 29.1197 0.091
      vertex 10.1959 33.2109 0.091
      vertex 6.00259 28.8348 0.091
    endloop
  endfacet
  facet normal 0 -0 -1
    outer loop
      vertex 6.00259 28.8348 0.091
      vertex 10.1959 33.2109 0.091
      vertex 5.99525 28.5435 0.091
    endloop
  endfacet
  facet normal 0 0 -1
    outer loop
      vertex 5.99525 28.5435 0.091
      vertex 10.1959 33.2109 0.091
      vertex 14.3935 23.8761 0.091
    endloop
  endfacet
  facet normal 0 0 -1
    outer loop
      vertex 5.99525 -0.699997 0.091
      vertex 14.3935 23.8761 0.091
      vertex 14.3935 -0.699997 0.091
    endloop
  endfacet
  facet normal -0 0 -1
    outer loop
      vertex 45.0493 21.8979 0.091
      vertex 37.4128 17.7836 0.091
      vertex 44.3575 23.0667 0.091
    endloop
  endfacet
  facet normal 0 0 -1
    outer loop
      vertex 39.2504 13.2764 0.091
      vertex 39.0535 14.0773 0.091
      vertex 47.4161 15.5521 0.091
    endloop
  endfacet
  facet normal 0 0 -1
    outer loop
      vertex 14.3935 23.8761 0.091
      vertex 10.1959 33.2109 0.091
      vertex 26.9967 33.2109 0.091
    endloop
  endfacet
  facet normal 0 0 -1
    outer loop
      vertex 36.7356 30.6213 0.091
      vertex 32.8358 22.3206 0.091
      vertex 32.1686 22.6852 0.091
    endloop
  endfacet
  facet normal 0 -0 -1
    outer loop
      vertex 36.7356 30.6213 0.091
      vertex 37.8177 29.9335 0.091
      vertex 32.8358 22.3206 0.091
    endloop
  endfacet
  facet normal 0 0 -1
    outer loop
      vertex 33.4851 21.9075 0.091
      vertex 37.8177 29.9335 0.091
      vertex 38.8696 29.1647 0.091
    endloop
  endfacet
  facet normal 0 0 -1
    outer loop
      vertex 32.8358 22.3206 0.091
      vertex 37.8177 29.9335 0.091
      vertex 33.4851 21.9075 0.091
    endloop
  endfacet
  facet normal 0 0 -1
    outer loop
      vertex 34.1165 21.4457 0.091
      vertex 33.4851 21.9075 0.091
      vertex 38.8696 29.1647 0.091
    endloop
  endfacet
  facet normal 0 -0 -1
    outer loop
      vertex 39.8915 28.315 0.091
      vertex 40.8833 27.3844 0.091
      vertex 34.73 20.9353 0.091
    endloop
  endfacet
  facet normal 0 0 -1
    outer loop
      vertex 35.3256 20.3763 0.091
      vertex 40.8833 27.3844 0.091
      vertex 41.8451 26.3728 0.091
    endloop
  endfacet
  facet normal 0 0 -1
    outer loop
      vertex 34.73 20.9353 0.091
      vertex 40.8833 27.3844 0.091
      vertex 35.3256 20.3763 0.091
    endloop
  endfacet
  facet normal 0 0 -1
    outer loop
      vertex 35.9032 19.7687 0.091
      vertex 35.3256 20.3763 0.091
      vertex 41.8451 26.3728 0.091
    endloop
  endfacet
  facet normal 0 -0 -1
    outer loop
      vertex 42.7554 25.3042 0.091
      vertex 43.5928 24.2022 0.091
      vertex 36.4502 19.1269 0.091
    endloop
  endfacet
  facet normal 0 0 -1
    outer loop
      vertex 36.9533 18.4652 0.091
      vertex 43.5928 24.2022 0.091
      vertex 44.3575 23.0667 0.091
    endloop
  endfacet
  facet normal 0 0 -1
    outer loop
      vertex 36.4502 19.1269 0.091
      vertex 43.5928 24.2022 0.091
      vertex 36.9533 18.4652 0.091
    endloop
  endfacet
  facet normal 0 0 -1
    outer loop
      vertex 45.0493 21.8979 0.091
      vertex 37.8284 17.0821 0.091
      vertex 37.4128 17.7836 0.091
    endloop
  endfacet
  facet normal 0 -0 -1
    outer loop
      vertex 45.0493 21.8979 0.091
      vertex 45.6683 20.6956 0.091
      vertex 37.8284 17.0821 0.091
    endloop
  endfacet
  facet normal 0 0 -1
    outer loop
      vertex 38.2003 16.3607 0.091
      vertex 45.6683 20.6956 0.091
      vertex 46.2145 19.4598 0.091
    endloop
  endfacet
  facet normal 0 0 -1
    outer loop
      vertex 37.8284 17.0821 0.091
      vertex 45.6683 20.6956 0.091
      vertex 38.2003 16.3607 0.091
    endloop
  endfacet
  facet normal 0 0 -1
    outer loop
      vertex 38.5285 15.6194 0.091
      vertex 38.2003 16.3607 0.091
      vertex 46.2145 19.4598 0.091
    endloop
  endfacet
  facet normal -0 0 -1
    outer loop
      vertex 46.6879 18.1907 0.091
      vertex 38.5285 15.6194 0.091
      vertex 46.2145 19.4598 0.091
    endloop
  endfacet
  facet normal 0 0 -1
    outer loop
      vertex 46.6879 18.1907 0.091
      vertex 38.8129 14.8583 0.091
      vertex 38.5285 15.6194 0.091
    endloop
  endfacet
  facet normal 0 -0 -1
    outer loop
      vertex 46.6879 18.1907 0.091
      vertex 47.0884 16.8881 0.091
      vertex 38.8129 14.8583 0.091
    endloop
  endfacet
  facet normal 0 0 -1
    outer loop
      vertex 38.8129 14.8583 0.091
      vertex 47.0884 16.8881 0.091
      vertex 39.0535 14.0773 0.091
    endloop
  endfacet
  facet normal 0 0 -1
    outer loop
      vertex 39.0535 14.0773 0.091
      vertex 47.0884 16.8881 0.091
      vertex 47.4161 15.5521 0.091
    endloop
  endfacet
  facet normal 0 -0 -1
    outer loop
      vertex 47.4161 15.5521 0.091
      vertex 47.671 14.1827 0.091
      vertex 39.2504 13.2764 0.091
    endloop
  endfacet
  facet normal 0 0 -1
    outer loop
      vertex 39.2504 13.2764 0.091
      vertex 47.671 14.1827 0.091
      vertex 39.4036 12.4556 0.091
    endloop
  endfacet
  facet normal 0 0 -1
    outer loop
      vertex 39.4036 12.4556 0.091
      vertex 47.671 14.1827 0.091
      vertex 47.853 12.7799 0.091
    endloop
  endfacet
  facet normal 0 0 -1
    outer loop
      vertex 39.513 11.6149 0.091
      vertex 39.4036 12.4556 0.091
      vertex 47.853 12.7799 0.091
    endloop
  endfacet
  facet normal 0 0 -1
    outer loop
      vertex 47.9623 11.3436 0.091
      vertex 39.513 11.6149 0.091
      vertex 47.853 12.7799 0.091
    endloop
  endfacet
  facet normal -0 0 -1
    outer loop
      vertex 47.9623 11.3436 0.091
      vertex 39.5786 10.7543 0.091
      vertex 39.513 11.6149 0.091
    endloop
  endfacet
  facet normal 0 -0 -1
    outer loop
      vertex 47.9623 11.3436 0.091
      vertex 47.9987 9.87392 0.091
      vertex 39.5786 10.7543 0.091
    endloop
  endfacet
  facet normal 0 0 -1
    outer loop
      vertex 39.5786 10.7543 0.091
      vertex 47.9987 9.87392 0.091
      vertex 39.6005 9.87392 0.091
    endloop
  endfacet
  facet normal 0 0 -1
    outer loop
      vertex 39.6005 9.87392 0.091
      vertex 47.9987 9.87392 0.091
      vertex 47.9987 -0.699997 0.091
    endloop
  endfacet
  facet normal 0 0 -1
    outer loop
      vertex 39.6005 -0.699997 0.091
      vertex 39.6005 9.87392 0.091
      vertex 47.9987 -0.699997 0.091
    endloop
  endfacet
  facet normal 0 0 1
    outer loop
      vertex 34.4813 31.7542 0.391
      vertex 31.4835 23.0011 0.391
      vertex 35.6235 31.2282 0.391
    endloop
  endfacet
  facet normal 0 0 1
    outer loop
      vertex 33.3091 32.1993 0.391
      vertex 30.7804 23.2685 0.391
      vertex 34.4813 31.7542 0.391
    endloop
  endfacet
  facet normal 0 0 1
    outer loop
      vertex 34.4813 31.7542 0.391
      vertex 30.7804 23.2685 0.391
      vertex 31.4835 23.0011 0.391
    endloop
  endfacet
  facet normal 0 0 1
    outer loop
      vertex 35.6235 31.2282 0.391
      vertex 31.4835 23.0011 0.391
      vertex 32.1686 22.6852 0.391
    endloop
  endfacet
  facet normal 0 0 1
    outer loop
      vertex 30.0595 23.4872 0.391
      vertex 33.3091 32.1993 0.391
      vertex 32.1067 32.5635 0.391
    endloop
  endfacet
  facet normal 0 -0 1
    outer loop
      vertex 30.7804 23.2685 0.391
      vertex 33.3091 32.1993 0.391
      vertex 30.0595 23.4872 0.391
    endloop
  endfacet
  facet normal 0 0 1
    outer loop
      vertex 32.1067 32.5635 0.391
      vertex 29.3207 23.6573 0.391
      vertex 30.0595 23.4872 0.391
    endloop
  endfacet
  facet normal 0 0 1
    outer loop
      vertex 26.9967 33.2109 0.391
      vertex 26.9967 23.8761 0.391
      vertex 28.3193 33.1704 0.391
    endloop
  endfacet
  facet normal 0 0 1
    outer loop
      vertex 28.3193 33.1704 0.391
      vertex 26.9967 23.8761 0.391
      vertex 27.7892 23.8518 0.391
    endloop
  endfacet
  facet normal 0 -0 1
    outer loop
      vertex 29.3207 23.6573 0.391
      vertex 30.8743 32.8467 0.391
      vertex 28.5639 23.7789 0.391
    endloop
  endfacet
  facet normal 0 0 1
    outer loop
      vertex 30.8743 32.8467 0.391
      vertex 29.6119 33.049 0.391
      vertex 28.5639 23.7789 0.391
    endloop
  endfacet
  facet normal 0 0 1
    outer loop
      vertex 29.6119 33.049 0.391
      vertex 27.7892 23.8518 0.391
      vertex 28.5639 23.7789 0.391
    endloop
  endfacet
  facet normal 0 0 1
    outer loop
      vertex 28.3193 33.1704 0.391
      vertex 27.7892 23.8518 0.391
      vertex 29.6119 33.049 0.391
    endloop
  endfacet
  facet normal 0 0 1
    outer loop
      vertex 29.3207 23.6573 0.391
      vertex 32.1067 32.5635 0.391
      vertex 30.8743 32.8467 0.391
    endloop
  endfacet
  facet normal 0 0 1
    outer loop
      vertex 14.3935 23.8761 0.391
      vertex 26.9967 23.8761 0.391
      vertex 26.9967 33.2109 0.391
    endloop
  endfacet
  facet normal 0 0 1
    outer loop
      vertex 35.6235 31.2282 0.391
      vertex 32.1686 22.6852 0.391
      vertex 36.7356 30.6213 0.391
    endloop
  endfacet
  facet normal 0 0 1
    outer loop
      vertex 38.8696 29.1647 0.391
      vertex 34.1165 21.4457 0.391
      vertex 39.8915 28.315 0.391
    endloop
  endfacet
  facet normal -0 0 1
    outer loop
      vertex 34.1165 21.4457 0.391
      vertex 34.73 20.9353 0.391
      vertex 39.8915 28.315 0.391
    endloop
  endfacet
  facet normal 0 0 1
    outer loop
      vertex 41.8451 26.3728 0.391
      vertex 35.9032 19.7687 0.391
      vertex 42.7554 25.3042 0.391
    endloop
  endfacet
  facet normal -0 0 1
    outer loop
      vertex 35.9032 19.7687 0.391
      vertex 36.4502 19.1269 0.391
      vertex 42.7554 25.3042 0.391
    endloop
  endfacet
  facet normal 0 0 1
    outer loop
      vertex 14.3935 23.8761 0.391
      vertex 5.99525 28.5435 0.391
      vertex 5.99525 -0.699997 0.391
    endloop
  endfacet
  facet normal 0 0 1
    outer loop
      vertex 44.3575 23.0667 0.391
      vertex 36.9533 18.4652 0.391
      vertex 37.4128 17.7836 0.391
    endloop
  endfacet
  facet normal 0 0 1
    outer loop
      vertex 7.23428 31.8342 0.391
      vertex 10.1959 33.2109 0.391
      vertex 7.42776 32.0378 0.391
    endloop
  endfacet
  facet normal 0 0 1
    outer loop
      vertex 10.1959 33.2109 0.391
      vertex 7.83189 32.3963 0.391
      vertex 7.62697 32.2252 0.391
    endloop
  endfacet
  facet normal 0 0 1
    outer loop
      vertex 9.18164 33.0805 0.391
      vertex 8.94237 33.0072 0.391
      vertex 8.70883 32.9176 0.391
    endloop
  endfacet
  facet normal 0 0 1
    outer loop
      vertex 9.18164 33.0805 0.391
      vertex 8.70883 32.9176 0.391
      vertex 8.48102 32.8117 0.391
    endloop
  endfacet
  facet normal -0 0 1
    outer loop
      vertex 9.18164 33.0805 0.391
      vertex 8.48102 32.8117 0.391
      vertex 9.42662 33.1376 0.391
    endloop
  endfacet
  facet normal -0 0 1
    outer loop
      vertex 8.48102 32.8117 0.391
      vertex 8.25891 32.6895 0.391
      vertex 9.42662 33.1376 0.391
    endloop
  endfacet
  facet normal 0 0 1
    outer loop
      vertex 8.25891 32.6895 0.391
      vertex 9.67732 33.1783 0.391
      vertex 9.42662 33.1376 0.391
    endloop
  endfacet
  facet normal 0 0 1
    outer loop
      vertex 8.04254 32.551 0.391
      vertex 9.67732 33.1783 0.391
      vertex 8.25891 32.6895 0.391
    endloop
  endfacet
  facet normal 0 0 1
    outer loop
      vertex 9.93376 33.2027 0.391
      vertex 9.67732 33.1783 0.391
      vertex 8.04254 32.551 0.391
    endloop
  endfacet
  facet normal 0 0 1
    outer loop
      vertex 9.93376 33.2027 0.391
      vertex 8.04254 32.551 0.391
      vertex 7.83189 32.3963 0.391
    endloop
  endfacet
  facet normal -0 0 1
    outer loop
      vertex 9.93376 33.2027 0.391
      vertex 7.83189 32.3963 0.391
      vertex 10.1959 33.2109 0.391
    endloop
  endfacet
  facet normal 0 0 1
    outer loop
      vertex 10.1959 33.2109 0.391
      vertex 7.62697 32.2252 0.391
      vertex 7.42776 32.0378 0.391
    endloop
  endfacet
  facet normal 0 0 1
    outer loop
      vertex 7.05101 31.6192 0.391
      vertex 10.1959 33.2109 0.391
      vertex 7.23428 31.8342 0.391
    endloop
  endfacet
  facet normal 0 0 1
    outer loop
      vertex 6.88239 31.3979 0.391
      vertex 10.1959 33.2109 0.391
      vertex 7.05101 31.6192 0.391
    endloop
  endfacet
  facet normal 0 0 1
    outer loop
      vertex 6.72842 31.1702 0.391
      vertex 10.1959 33.2109 0.391
      vertex 6.88239 31.3979 0.391
    endloop
  endfacet
  facet normal 0 0 1
    outer loop
      vertex 6.58911 30.9361 0.391
      vertex 10.1959 33.2109 0.391
      vertex 6.72842 31.1702 0.391
    endloop
  endfacet
  facet normal 0 0 1
    outer loop
      vertex 6.46449 30.6957 0.391
      vertex 10.1959 33.2109 0.391
      vertex 6.58911 30.9361 0.391
    endloop
  endfacet
  facet normal 0 0 1
    outer loop
      vertex 6.35451 30.4489 0.391
      vertex 10.1959 33.2109 0.391
      vertex 6.46449 30.6957 0.391
    endloop
  endfacet
  facet normal 0 0 1
    outer loop
      vertex 6.25919 30.1958 0.391
      vertex 10.1959 33.2109 0.391
      vertex 6.35451 30.4489 0.391
    endloop
  endfacet
  facet normal 0 0 1
    outer loop
      vertex 6.17856 29.9363 0.391
      vertex 10.1959 33.2109 0.391
      vertex 6.25919 30.1958 0.391
    endloop
  endfacet
  facet normal 0 0 1
    outer loop
      vertex 6.11256 29.6705 0.391
      vertex 10.1959 33.2109 0.391
      vertex 6.17856 29.9363 0.391
    endloop
  endfacet
  facet normal 0 0 1
    outer loop
      vertex 6.06125 29.3983 0.391
      vertex 10.1959 33.2109 0.391
      vertex 6.11256 29.6705 0.391
    endloop
  endfacet
  facet normal 0 0 1
    outer loop
      vertex 6.0246 29.1197 0.391
      vertex 10.1959 33.2109 0.391
      vertex 6.06125 29.3983 0.391
    endloop
  endfacet
  facet normal 0 0 1
    outer loop
      vertex 6.00259 28.8348 0.391
      vertex 10.1959 33.2109 0.391
      vertex 6.0246 29.1197 0.391
    endloop
  endfacet
  facet normal 0 0 1
    outer loop
      vertex 5.99525 28.5435 0.391
      vertex 10.1959 33.2109 0.391
      vertex 6.00259 28.8348 0.391
    endloop
  endfacet
  facet normal 0 0 1
    outer loop
      vertex 14.3935 23.8761 0.391
      vertex 10.1959 33.2109 0.391
      vertex 5.99525 28.5435 0.391
    endloop
  endfacet
  facet normal 0 -0 1
    outer loop
      vertex 14.3935 -0.699997 0.391
      vertex 14.3935 23.8761 0.391
      vertex 5.99525 -0.699997 0.391
    endloop
  endfacet
  facet normal 0 0 1
    outer loop
      vertex 44.3575 23.0667 0.391
      vertex 37.4128 17.7836 0.391
      vertex 45.0493 21.8979 0.391
    endloop
  endfacet
  facet normal 0 0 1
    outer loop
      vertex 47.4161 15.5521 0.391
      vertex 39.0535 14.0773 0.391
      vertex 39.2504 13.2764 0.391
    endloop
  endfacet
  facet normal 0 0 1
    outer loop
      vertex 26.9967 33.2109 0.391
      vertex 10.1959 33.2109 0.391
      vertex 14.3935 23.8761 0.391
    endloop
  endfacet
  facet normal -0 0 1
    outer loop
      vertex 32.1686 22.6852 0.391
      vertex 32.8358 22.3206 0.391
      vertex 36.7356 30.6213 0.391
    endloop
  endfacet
  facet normal 0 0 1
    outer loop
      vertex 32.8358 22.3206 0.391
      vertex 37.8177 29.9335 0.391
      vertex 36.7356 30.6213 0.391
    endloop
  endfacet
  facet normal 0 0 1
    outer loop
      vertex 38.8696 29.1647 0.391
      vertex 37.8177 29.9335 0.391
      vertex 33.4851 21.9075 0.391
    endloop
  endfacet
  facet normal 0 -0 1
    outer loop
      vertex 33.4851 21.9075 0.391
      vertex 37.8177 29.9335 0.391
      vertex 32.8358 22.3206 0.391
    endloop
  endfacet
  facet normal 0 0 1
    outer loop
      vertex 38.8696 29.1647 0.391
      vertex 33.4851 21.9075 0.391
      vertex 34.1165 21.4457 0.391
    endloop
  endfacet
  facet normal 0 0 1
    outer loop
      vertex 34.73 20.9353 0.391
      vertex 40.8833 27.3844 0.391
      vertex 39.8915 28.315 0.391
    endloop
  endfacet
  facet normal 0 0 1
    outer loop
      vertex 41.8451 26.3728 0.391
      vertex 40.8833 27.3844 0.391
      vertex 35.3256 20.3763 0.391
    endloop
  endfacet
  facet normal 0 -0 1
    outer loop
      vertex 35.3256 20.3763 0.391
      vertex 40.8833 27.3844 0.391
      vertex 34.73 20.9353 0.391
    endloop
  endfacet
  facet normal 0 0 1
    outer loop
      vertex 41.8451 26.3728 0.391
      vertex 35.3256 20.3763 0.391
      vertex 35.9032 19.7687 0.391
    endloop
  endfacet
  facet normal 0 0 1
    outer loop
      vertex 36.4502 19.1269 0.391
      vertex 43.5928 24.2022 0.391
      vertex 42.7554 25.3042 0.391
    endloop
  endfacet
  facet normal 0 0 1
    outer loop
      vertex 44.3575 23.0667 0.391
      vertex 43.5928 24.2022 0.391
      vertex 36.9533 18.4652 0.391
    endloop
  endfacet
  facet normal 0 -0 1
    outer loop
      vertex 36.9533 18.4652 0.391
      vertex 43.5928 24.2022 0.391
      vertex 36.4502 19.1269 0.391
    endloop
  endfacet
  facet normal -0 0 1
    outer loop
      vertex 37.4128 17.7836 0.391
      vertex 37.8284 17.0821 0.391
      vertex 45.0493 21.8979 0.391
    endloop
  endfacet
  facet normal 0 0 1
    outer loop
      vertex 37.8284 17.0821 0.391
      vertex 45.6683 20.6956 0.391
      vertex 45.0493 21.8979 0.391
    endloop
  endfacet
  facet normal 0 0 1
    outer loop
      vertex 46.2145 19.4598 0.391
      vertex 45.6683 20.6956 0.391
      vertex 38.2003 16.3607 0.391
    endloop
  endfacet
  facet normal 0 -0 1
    outer loop
      vertex 38.2003 16.3607 0.391
      vertex 45.6683 20.6956 0.391
      vertex 37.8284 17.0821 0.391
    endloop
  endfacet
  facet normal 0 0 1
    outer loop
      vertex 46.2145 19.4598 0.391
      vertex 38.2003 16.3607 0.391
      vertex 38.5285 15.6194 0.391
    endloop
  endfacet
  facet normal 0 0 1
    outer loop
      vertex 46.2145 19.4598 0.391
      vertex 38.5285 15.6194 0.391
      vertex 46.6879 18.1907 0.391
    endloop
  endfacet
  facet normal -0 0 1
    outer loop
      vertex 38.5285 15.6194 0.391
      vertex 38.8129 14.8583 0.391
      vertex 46.6879 18.1907 0.391
    endloop
  endfacet
  facet normal 0 0 1
    outer loop
      vertex 38.8129 14.8583 0.391
      vertex 47.0884 16.8881 0.391
      vertex 46.6879 18.1907 0.391
    endloop
  endfacet
  facet normal 0 -0 1
    outer loop
      vertex 39.0535 14.0773 0.391
      vertex 47.0884 16.8881 0.391
      vertex 38.8129 14.8583 0.391
    endloop
  endfacet
  facet normal 0 0 1
    outer loop
      vertex 47.4161 15.5521 0.391
      vertex 47.0884 16.8881 0.391
      vertex 39.0535 14.0773 0.391
    endloop
  endfacet
  facet normal 0 0 1
    outer loop
      vertex 39.2504 13.2764 0.391
      vertex 47.671 14.1827 0.391
      vertex 47.4161 15.5521 0.391
    endloop
  endfacet
  facet normal 0 -0 1
    outer loop
      vertex 39.4036 12.4556 0.391
      vertex 47.671 14.1827 0.391
      vertex 39.2504 13.2764 0.391
    endloop
  endfacet
  facet normal 0 0 1
    outer loop
      vertex 47.853 12.7799 0.391
      vertex 47.671 14.1827 0.391
      vertex 39.4036 12.4556 0.391
    endloop
  endfacet
  facet normal 0 0 1
    outer loop
      vertex 47.853 12.7799 0.391
      vertex 39.4036 12.4556 0.391
      vertex 39.513 11.6149 0.391
    endloop
  endfacet
  facet normal 0 0 1
    outer loop
      vertex 47.853 12.7799 0.391
      vertex 39.513 11.6149 0.391
      vertex 47.9623 11.3436 0.391
    endloop
  endfacet
  facet normal 0 0 1
    outer loop
      vertex 39.513 11.6149 0.391
      vertex 39.5786 10.7543 0.391
      vertex 47.9623 11.3436 0.391
    endloop
  endfacet
  facet normal -0 0 1
    outer loop
      vertex 39.5786 10.7543 0.391
      vertex 47.9987 9.87392 0.391
      vertex 47.9623 11.3436 0.391
    endloop
  endfacet
  facet normal 0 -0 1
    outer loop
      vertex 39.6005 9.87392 0.391
      vertex 47.9987 9.87392 0.391
      vertex 39.5786 10.7543 0.391
    endloop
  endfacet
  facet normal 0 -0 1
    outer loop
      vertex 47.9987 -0.699997 0.391
      vertex 47.9987 9.87392 0.391
      vertex 39.6005 9.87392 0.391
    endloop
  endfacet
  facet normal 0 0 1
    outer loop
      vertex 47.9987 -0.699997 0.391
      vertex 39.6005 9.87392 0.391
      vertex 39.6005 -0.699997 0.391
    endloop
  endfacet
  facet normal 0.999693 0.0247597 0
    outer loop
      vertex 47.9623 11.3436 0.091
      vertex 47.9987 9.87392 0.391
      vertex 47.9987 9.87392 0.091
    endloop
  endfacet
  facet normal 0.999693 0.0247597 -0
    outer loop
      vertex 47.9623 11.3436 0.091
      vertex 47.9623 11.3436 0.391
      vertex 47.9987 9.87392 0.391
    endloop
  endfacet
  facet normal 0.997117 0.0758789 0
    outer loop
      vertex 47.853 12.7799 0.091
      vertex 47.9623 11.3436 0.391
      vertex 47.9623 11.3436 0.091
    endloop
  endfacet
  facet normal 0.997117 0.0758789 -0
    outer loop
      vertex 47.853 12.7799 0.091
      vertex 47.853 12.7799 0.391
      vertex 47.9623 11.3436 0.391
    endloop
  endfacet
  facet normal 0.991688 0.128662 0
    outer loop
      vertex 47.671 14.1827 0.091
      vertex 47.853 12.7799 0.391
      vertex 47.853 12.7799 0.091
    endloop
  endfacet
  facet normal 0.991688 0.128662 -0
    outer loop
      vertex 47.671 14.1827 0.091
      vertex 47.671 14.1827 0.391
      vertex 47.853 12.7799 0.391
    endloop
  endfacet
  facet normal 0.983114 0.182997 0
    outer loop
      vertex 47.4161 15.5521 0.091
      vertex 47.671 14.1827 0.391
      vertex 47.671 14.1827 0.091
    endloop
  endfacet
  facet normal 0.983114 0.182997 -0
    outer loop
      vertex 47.4161 15.5521 0.091
      vertex 47.4161 15.5521 0.391
      vertex 47.671 14.1827 0.391
    endloop
  endfacet
  facet normal 0.971211 0.238223 0
    outer loop
      vertex 47.0884 16.8881 0.091
      vertex 47.4161 15.5521 0.391
      vertex 47.4161 15.5521 0.091
    endloop
  endfacet
  facet normal 0.971211 0.238223 -0
    outer loop
      vertex 47.0884 16.8881 0.091
      vertex 47.0884 16.8881 0.391
      vertex 47.4161 15.5521 0.391
    endloop
  endfacet
  facet normal 0.955841 0.293885 0
    outer loop
      vertex 46.6879 18.1907 0.091
      vertex 47.0884 16.8881 0.391
      vertex 47.0884 16.8881 0.091
    endloop
  endfacet
  facet normal 0.955841 0.293885 -0
    outer loop
      vertex 46.6879 18.1907 0.091
      vertex 46.6879 18.1907 0.391
      vertex 47.0884 16.8881 0.391
    endloop
  endfacet
  facet normal 0.936938 0.349497 0
    outer loop
      vertex 46.2145 19.4598 0.091
      vertex 46.6879 18.1907 0.391
      vertex 46.6879 18.1907 0.091
    endloop
  endfacet
  facet normal 0.936938 0.349497 -0
    outer loop
      vertex 46.2145 19.4598 0.091
      vertex 46.2145 19.4598 0.391
      vertex 46.6879 18.1907 0.391
    endloop
  endfacet
  facet normal 0.914646 0.404256 0
    outer loop
      vertex 45.6683 20.6956 0.091
      vertex 46.2145 19.4598 0.391
      vertex 46.2145 19.4598 0.091
    endloop
  endfacet
  facet normal 0.914646 0.404256 -0
    outer loop
      vertex 45.6683 20.6956 0.091
      vertex 45.6683 20.6956 0.391
      vertex 46.2145 19.4598 0.391
    endloop
  endfacet
  facet normal 0.889085 0.457742 0
    outer loop
      vertex 45.0493 21.8979 0.091
      vertex 45.6683 20.6956 0.391
      vertex 45.6683 20.6956 0.091
    endloop
  endfacet
  facet normal 0.889085 0.457742 -0
    outer loop
      vertex 45.0493 21.8979 0.091
      vertex 45.0493 21.8979 0.391
      vertex 45.6683 20.6956 0.391
    endloop
  endfacet
  facet normal 0.860557 0.509354 0
    outer loop
      vertex 44.3575 23.0667 0.091
      vertex 45.0493 21.8979 0.391
      vertex 45.0493 21.8979 0.091
    endloop
  endfacet
  facet normal 0.860557 0.509354 -0
    outer loop
      vertex 44.3575 23.0667 0.091
      vertex 44.3575 23.0667 0.391
      vertex 45.0493 21.8979 0.391
    endloop
  endfacet
  facet normal 0.829445 0.558588 0
    outer loop
      vertex 43.5928 24.2022 0.091
      vertex 44.3575 23.0667 0.391
      vertex 44.3575 23.0667 0.091
    endloop
  endfacet
  facet normal 0.829445 0.558588 -0
    outer loop
      vertex 43.5928 24.2022 0.091
      vertex 43.5928 24.2022 0.391
      vertex 44.3575 23.0667 0.391
    endloop
  endfacet
  facet normal 0.796204 0.605028 0
    outer loop
      vertex 42.7554 25.3042 0.091
      vertex 43.5928 24.2022 0.391
      vertex 43.5928 24.2022 0.091
    endloop
  endfacet
  facet normal 0.796204 0.605028 -0
    outer loop
      vertex 42.7554 25.3042 0.091
      vertex 42.7554 25.3042 0.391
      vertex 43.5928 24.2022 0.391
    endloop
  endfacet
  facet normal 0.761239 0.648471 0
    outer loop
      vertex 41.8451 26.3728 0.091
      vertex 42.7554 25.3042 0.391
      vertex 42.7554 25.3042 0.091
    endloop
  endfacet
  facet normal 0.761239 0.648471 -0
    outer loop
      vertex 41.8451 26.3728 0.091
      vertex 41.8451 26.3728 0.391
      vertex 42.7554 25.3042 0.391
    endloop
  endfacet
  facet normal 0.72472 0.689043 0
    outer loop
      vertex 40.8833 27.3844 0.091
      vertex 41.8451 26.3728 0.391
      vertex 41.8451 26.3728 0.091
    endloop
  endfacet
  facet normal 0.72472 0.689043 -0
    outer loop
      vertex 40.8833 27.3844 0.091
      vertex 40.8833 27.3844 0.391
      vertex 41.8451 26.3728 0.391
    endloop
  endfacet
  facet normal 0.684249 0.729248 0
    outer loop
      vertex 39.8915 28.315 0.091
      vertex 40.8833 27.3844 0.391
      vertex 40.8833 27.3844 0.091
    endloop
  endfacet
  facet normal 0.684249 0.729248 -0
    outer loop
      vertex 39.8915 28.315 0.091
      vertex 39.8915 28.315 0.391
      vertex 40.8833 27.3844 0.391
    endloop
  endfacet
  facet normal 0.639348 0.768918 0
    outer loop
      vertex 38.8696 29.1647 0.091
      vertex 39.8915 28.315 0.391
      vertex 39.8915 28.315 0.091
    endloop
  endfacet
  facet normal 0.639348 0.768918 -0
    outer loop
      vertex 38.8696 29.1647 0.091
      vertex 38.8696 29.1647 0.391
      vertex 39.8915 28.315 0.391
    endloop
  endfacet
  facet normal 0.590069 0.807353 0
    outer loop
      vertex 37.8177 29.9335 0.091
      vertex 38.8696 29.1647 0.391
      vertex 38.8696 29.1647 0.091
    endloop
  endfacet
  facet normal 0.590069 0.807353 -0
    outer loop
      vertex 37.8177 29.9335 0.091
      vertex 37.8177 29.9335 0.391
      vertex 38.8696 29.1647 0.391
    endloop
  endfacet
  facet normal 0.536426 0.843947 0
    outer loop
      vertex 36.7356 30.6213 0.091
      vertex 37.8177 29.9335 0.391
      vertex 37.8177 29.9335 0.091
    endloop
  endfacet
  facet normal 0.536426 0.843947 -0
    outer loop
      vertex 36.7356 30.6213 0.091
      vertex 36.7356 30.6213 0.391
      vertex 37.8177 29.9335 0.391
    endloop
  endfacet
  facet normal 0.479035 0.877796 0
    outer loop
      vertex 35.6235 31.2282 0.091
      vertex 36.7356 30.6213 0.391
      vertex 36.7356 30.6213 0.091
    endloop
  endfacet
  facet normal 0.479035 0.877796 -0
    outer loop
      vertex 35.6235 31.2282 0.091
      vertex 35.6235 31.2282 0.391
      vertex 36.7356 30.6213 0.391
    endloop
  endfacet
  facet normal 0.418292 0.908313 0
    outer loop
      vertex 34.4813 31.7542 0.091
      vertex 35.6235 31.2282 0.391
      vertex 35.6235 31.2282 0.091
    endloop
  endfacet
  facet normal 0.418292 0.908313 -0
    outer loop
      vertex 34.4813 31.7542 0.091
      vertex 34.4813 31.7542 0.391
      vertex 35.6235 31.2282 0.391
    endloop
  endfacet
  facet normal 0.354984 0.934873 0
    outer loop
      vertex 33.3091 32.1993 0.091
      vertex 34.4813 31.7542 0.391
      vertex 34.4813 31.7542 0.091
    endloop
  endfacet
  facet normal 0.354984 0.934873 -0
    outer loop
      vertex 33.3091 32.1993 0.091
      vertex 33.3091 32.1993 0.391
      vertex 34.4813 31.7542 0.391
    endloop
  endfacet
  facet normal 0.289888 0.957061 0
    outer loop
      vertex 32.1067 32.5635 0.091
      vertex 33.3091 32.1993 0.391
      vertex 33.3091 32.1993 0.091
    endloop
  endfacet
  facet normal 0.289888 0.957061 -0
    outer loop
      vertex 32.1067 32.5635 0.091
      vertex 32.1067 32.5635 0.391
      vertex 33.3091 32.1993 0.391
    endloop
  endfacet
  facet normal 0.223958 0.974599 0
    outer loop
      vertex 30.8743 32.8467 0.091
      vertex 32.1067 32.5635 0.391
      vertex 32.1067 32.5635 0.091
    endloop
  endfacet
  facet normal 0.223958 0.974599 -0
    outer loop
      vertex 30.8743 32.8467 0.091
      vertex 30.8743 32.8467 0.391
      vertex 32.1067 32.5635 0.391
    endloop
  endfacet
  facet normal 0.158231 0.987402 0
    outer loop
      vertex 29.6119 33.049 0.091
      vertex 30.8743 32.8467 0.391
      vertex 30.8743 32.8467 0.091
    endloop
  endfacet
  facet normal 0.158231 0.987402 -0
    outer loop
      vertex 29.6119 33.049 0.091
      vertex 29.6119 33.049 0.391
      vertex 30.8743 32.8467 0.391
    endloop
  endfacet
  facet normal 0.0935077 0.995619 0
    outer loop
      vertex 28.3193 33.1704 0.091
      vertex 29.6119 33.049 0.391
      vertex 29.6119 33.049 0.091
    endloop
  endfacet
  facet normal 0.0935077 0.995619 -0
    outer loop
      vertex 28.3193 33.1704 0.091
      vertex 28.3193 33.1704 0.391
      vertex 29.6119 33.049 0.391
    endloop
  endfacet
  facet normal 0.0306072 0.999531 0
    outer loop
      vertex 26.9967 33.2109 0.091
      vertex 28.3193 33.1704 0.391
      vertex 28.3193 33.1704 0.091
    endloop
  endfacet
  facet normal 0.0306072 0.999531 -0
    outer loop
      vertex 26.9967 33.2109 0.091
      vertex 26.9967 33.2109 0.391
      vertex 28.3193 33.1704 0.391
    endloop
  endfacet
  facet normal 0 1 0
    outer loop
      vertex 10.1959 33.2109 0.091
      vertex 26.9967 33.2109 0.391
      vertex 26.9967 33.2109 0.091
    endloop
  endfacet
  facet normal 0 1 0
    outer loop
      vertex 10.1959 33.2109 0.091
      vertex 10.1959 33.2109 0.391
      vertex 26.9967 33.2109 0.391
    endloop
  endfacet
  facet normal -0.0312657 0.999511 0
    outer loop
      vertex 9.93376 33.2027 0.091
      vertex 10.1959 33.2109 0.391
      vertex 10.1959 33.2109 0.091
    endloop
  endfacet
  facet normal -0.0312657 0.999511 0
    outer loop
      vertex 9.93376 33.2027 0.091
      vertex 9.93376 33.2027 0.391
      vertex 10.1959 33.2109 0.391
    endloop
  endfacet
  facet normal -0.0947212 0.995504 0
    outer loop
      vertex 9.67732 33.1783 0.091
      vertex 9.93376 33.2027 0.391
      vertex 9.93376 33.2027 0.091
    endloop
  endfacet
  facet normal -0.0947212 0.995504 0
    outer loop
      vertex 9.67732 33.1783 0.091
      vertex 9.67732 33.1783 0.391
      vertex 9.93376 33.2027 0.391
    endloop
  endfacet
  facet normal -0.160247 0.987077 0
    outer loop
      vertex 9.42662 33.1376 0.091
      vertex 9.67732 33.1783 0.391
      vertex 9.67732 33.1783 0.091
    endloop
  endfacet
  facet normal -0.160247 0.987077 0
    outer loop
      vertex 9.42662 33.1376 0.091
      vertex 9.42662 33.1376 0.391
      vertex 9.67732 33.1783 0.391
    endloop
  endfacet
  facet normal -0.226996 0.973896 0
    outer loop
      vertex 9.18164 33.0805 0.091
      vertex 9.42662 33.1376 0.391
      vertex 9.42662 33.1376 0.091
    endloop
  endfacet
  facet normal -0.226996 0.973896 0
    outer loop
      vertex 9.18164 33.0805 0.091
      vertex 9.18164 33.0805 0.391
      vertex 9.42662 33.1376 0.391
    endloop
  endfacet
  facet normal -0.292912 0.956139 0
    outer loop
      vertex 8.94237 33.0072 0.091
      vertex 9.18164 33.0805 0.391
      vertex 9.18164 33.0805 0.091
    endloop
  endfacet
  facet normal -0.292912 0.956139 0
    outer loop
      vertex 8.94237 33.0072 0.091
      vertex 8.94237 33.0072 0.391
      vertex 9.18164 33.0805 0.391
    endloop
  endfacet
  facet normal -0.358202 0.933644 0
    outer loop
      vertex 8.70883 32.9176 0.091
      vertex 8.94237 33.0072 0.391
      vertex 8.94237 33.0072 0.091
    endloop
  endfacet
  facet normal -0.358202 0.933644 0
    outer loop
      vertex 8.70883 32.9176 0.091
      vertex 8.70883 32.9176 0.391
      vertex 8.94237 33.0072 0.391
    endloop
  endfacet
  facet normal -0.42154 0.90681 0
    outer loop
      vertex 8.48102 32.8117 0.091
      vertex 8.70883 32.9176 0.391
      vertex 8.70883 32.9176 0.091
    endloop
  endfacet
  facet normal -0.42154 0.90681 0
    outer loop
      vertex 8.48102 32.8117 0.091
      vertex 8.48102 32.8117 0.391
      vertex 8.70883 32.9176 0.391
    endloop
  endfacet
  facet normal -0.482038 0.87615 0
    outer loop
      vertex 8.25891 32.6895 0.091
      vertex 8.48102 32.8117 0.391
      vertex 8.48102 32.8117 0.091
    endloop
  endfacet
  facet normal -0.482038 0.87615 0
    outer loop
      vertex 8.25891 32.6895 0.091
      vertex 8.25891 32.6895 0.391
      vertex 8.48102 32.8117 0.391
    endloop
  endfacet
  facet normal -0.539118 0.84223 0
    outer loop
      vertex 8.04254 32.551 0.091
      vertex 8.25891 32.6895 0.391
      vertex 8.25891 32.6895 0.091
    endloop
  endfacet
  facet normal -0.539118 0.84223 0
    outer loop
      vertex 8.04254 32.551 0.091
      vertex 8.04254 32.551 0.391
      vertex 8.25891 32.6895 0.391
    endloop
  endfacet
  facet normal -0.591919 0.805997 0
    outer loop
      vertex 7.83189 32.3963 0.091
      vertex 8.04254 32.551 0.391
      vertex 8.04254 32.551 0.091
    endloop
  endfacet
  facet normal -0.591919 0.805997 0
    outer loop
      vertex 7.83189 32.3963 0.091
      vertex 7.83189 32.3963 0.391
      vertex 8.04254 32.551 0.391
    endloop
  endfacet
  facet normal -0.640921 0.767607 0
    outer loop
      vertex 7.62697 32.2252 0.091
      vertex 7.83189 32.3963 0.391
      vertex 7.83189 32.3963 0.091
    endloop
  endfacet
  facet normal -0.640921 0.767607 0
    outer loop
      vertex 7.62697 32.2252 0.091
      vertex 7.62697 32.2252 0.391
      vertex 7.83189 32.3963 0.391
    endloop
  endfacet
  facet normal -0.685187 0.728367 0
    outer loop
      vertex 7.42776 32.0378 0.091
      vertex 7.62697 32.2252 0.391
      vertex 7.62697 32.2252 0.091
    endloop
  endfacet
  facet normal -0.685187 0.728367 0
    outer loop
      vertex 7.42776 32.0378 0.091
      vertex 7.42776 32.0378 0.391
      vertex 7.62697 32.2252 0.391
    endloop
  endfacet
  facet normal -0.724893 0.688862 0
    outer loop
      vertex 7.23428 31.8342 0.091
      vertex 7.42776 32.0378 0.391
      vertex 7.42776 32.0378 0.091
    endloop
  endfacet
  facet normal -0.724893 0.688862 0
    outer loop
      vertex 7.23428 31.8342 0.091
      vertex 7.23428 31.8342 0.391
      vertex 7.42776 32.0378 0.391
    endloop
  endfacet
  facet normal -0.76103 0.648716 0
    outer loop
      vertex 7.05101 31.6192 0.091
      vertex 7.23428 31.8342 0.391
      vertex 7.23428 31.8342 0.091
    endloop
  endfacet
  facet normal -0.76103 0.648716 0
    outer loop
      vertex 7.05101 31.6192 0.091
      vertex 7.05101 31.6192 0.391
      vertex 7.23428 31.8342 0.391
    endloop
  endfacet
  facet normal -0.795414 0.606067 0
    outer loop
      vertex 6.88239 31.3979 0.091
      vertex 7.05101 31.6192 0.391
      vertex 7.05101 31.6192 0.091
    endloop
  endfacet
  facet normal -0.795414 0.606067 0
    outer loop
      vertex 6.88239 31.3979 0.091
      vertex 6.88239 31.3979 0.391
      vertex 7.05101 31.6192 0.391
    endloop
  endfacet
  facet normal -0.828389 0.560154 0
    outer loop
      vertex 6.72842 31.1702 0.091
      vertex 6.88239 31.3979 0.391
      vertex 6.88239 31.3979 0.091
    endloop
  endfacet
  facet normal -0.828389 0.560154 0
    outer loop
      vertex 6.72842 31.1702 0.091
      vertex 6.72842 31.1702 0.391
      vertex 6.88239 31.3979 0.391
    endloop
  endfacet
  facet normal -0.85935 0.511388 0
    outer loop
      vertex 6.58911 30.9361 0.091
      vertex 6.72842 31.1702 0.391
      vertex 6.72842 31.1702 0.091
    endloop
  endfacet
  facet normal -0.85935 0.511388 0
    outer loop
      vertex 6.58911 30.9361 0.091
      vertex 6.58911 30.9361 0.391
      vertex 6.72842 31.1702 0.391
    endloop
  endfacet
  facet normal -0.887803 0.460224 0
    outer loop
      vertex 6.46449 30.6957 0.091
      vertex 6.58911 30.9361 0.391
      vertex 6.58911 30.9361 0.091
    endloop
  endfacet
  facet normal -0.887803 0.460224 0
    outer loop
      vertex 6.46449 30.6957 0.091
      vertex 6.46449 30.6957 0.391
      vertex 6.58911 30.9361 0.391
    endloop
  endfacet
  facet normal -0.913411 0.407038 0
    outer loop
      vertex 6.35451 30.4489 0.091
      vertex 6.46449 30.6957 0.391
      vertex 6.46449 30.6957 0.091
    endloop
  endfacet
  facet normal -0.913411 0.407038 0
    outer loop
      vertex 6.35451 30.4489 0.091
      vertex 6.35451 30.4489 0.391
      vertex 6.46449 30.6957 0.391
    endloop
  endfacet
  facet normal -0.935833 0.352444 0
    outer loop
      vertex 6.25919 30.1958 0.091
      vertex 6.35451 30.4489 0.391
      vertex 6.35451 30.4489 0.091
    endloop
  endfacet
  facet normal -0.935833 0.352444 0
    outer loop
      vertex 6.25919 30.1958 0.091
      vertex 6.25919 30.1958 0.391
      vertex 6.35451 30.4489 0.391
    endloop
  endfacet
  facet normal -0.954965 0.29672 0
    outer loop
      vertex 6.17856 29.9363 0.091
      vertex 6.25919 30.1958 0.391
      vertex 6.25919 30.1958 0.091
    endloop
  endfacet
  facet normal -0.954965 0.29672 0
    outer loop
      vertex 6.17856 29.9363 0.091
      vertex 6.17856 29.9363 0.391
      vertex 6.25919 30.1958 0.391
    endloop
  endfacet
  facet normal -0.970528 0.240989 0
    outer loop
      vertex 6.11256 29.6705 0.091
      vertex 6.17856 29.9363 0.391
      vertex 6.17856 29.9363 0.091
    endloop
  endfacet
  facet normal -0.970528 0.240989 0
    outer loop
      vertex 6.11256 29.6705 0.091
      vertex 6.11256 29.6705 0.391
      vertex 6.17856 29.9363 0.391
    endloop
  endfacet
  facet normal -0.982694 0.185239 0
    outer loop
      vertex 6.06125 29.3983 0.091
      vertex 6.11256 29.6705 0.391
      vertex 6.11256 29.6705 0.091
    endloop
  endfacet
  facet normal -0.982694 0.185239 0
    outer loop
      vertex 6.06125 29.3983 0.091
      vertex 6.06125 29.3983 0.391
      vertex 6.11256 29.6705 0.391
    endloop
  endfacet
  facet normal -0.991458 0.130427 0
    outer loop
      vertex 6.0246 29.1197 0.091
      vertex 6.06125 29.3983 0.391
      vertex 6.06125 29.3983 0.091
    endloop
  endfacet
  facet normal -0.991458 0.130427 0
    outer loop
      vertex 6.0246 29.1197 0.091
      vertex 6.0246 29.1197 0.391
      vertex 6.06125 29.3983 0.391
    endloop
  endfacet
  facet normal -0.997029 0.0770257 0
    outer loop
      vertex 6.00259 28.8348 0.091
      vertex 6.0246 29.1197 0.391
      vertex 6.0246 29.1197 0.091
    endloop
  endfacet
  facet normal -0.997029 0.0770257 0
    outer loop
      vertex 6.00259 28.8348 0.091
      vertex 6.00259 28.8348 0.391
      vertex 6.0246 29.1197 0.391
    endloop
  endfacet
  facet normal -0.999683 0.0251894 0
    outer loop
      vertex 5.99525 28.5435 0.091
      vertex 6.00259 28.8348 0.391
      vertex 6.00259 28.8348 0.091
    endloop
  endfacet
  facet normal -0.999683 0.0251894 0
    outer loop
      vertex 5.99525 28.5435 0.091
      vertex 5.99525 28.5435 0.391
      vertex 6.00259 28.8348 0.391
    endloop
  endfacet
  facet normal -1 0 0
    outer loop
      vertex 5.99525 -0.699997 0.091
      vertex 5.99525 28.5435 0.391
      vertex 5.99525 28.5435 0.091
    endloop
  endfacet
  facet normal -1 0 0
    outer loop
      vertex 5.99525 -0.699997 0.091
      vertex 5.99525 -0.699997 0.391
      vertex 5.99525 28.5435 0.391
    endloop
  endfacet
  facet normal 0 -1 0
    outer loop
      vertex 14.3935 -0.699997 0.091
      vertex 5.99525 -0.699997 0.391
      vertex 5.99525 -0.699997 0.091
    endloop
  endfacet
  facet normal 0 -1 0
    outer loop
      vertex 14.3935 -0.699997 0.091
      vertex 14.3935 -0.699997 0.391
      vertex 5.99525 -0.699997 0.391
    endloop
  endfacet
  facet normal 1 0 0
    outer loop
      vertex 14.3935 23.8761 0.091
      vertex 14.3935 -0.699997 0.391
      vertex 14.3935 -0.699997 0.091
    endloop
  endfacet
  facet normal 1 0 -0
    outer loop
      vertex 14.3935 23.8761 0.091
      vertex 14.3935 23.8761 0.391
      vertex 14.3935 -0.699997 0.391
    endloop
  endfacet
  facet normal 0 -1 0
    outer loop
      vertex 26.9967 23.8761 0.091
      vertex 14.3935 23.8761 0.391
      vertex 14.3935 23.8761 0.091
    endloop
  endfacet
  facet normal 0 -1 0
    outer loop
      vertex 26.9967 23.8761 0.091
      vertex 26.9967 23.8761 0.391
      vertex 14.3935 23.8761 0.391
    endloop
  endfacet
  facet normal -0.0306481 -0.99953 0
    outer loop
      vertex 27.7892 23.8518 0.091
      vertex 26.9967 23.8761 0.391
      vertex 26.9967 23.8761 0.091
    endloop
  endfacet
  facet normal -0.0306481 -0.99953 0
    outer loop
      vertex 27.7892 23.8518 0.091
      vertex 27.7892 23.8518 0.391
      vertex 26.9967 23.8761 0.391
    endloop
  endfacet
  facet normal -0.0936871 -0.995602 0
    outer loop
      vertex 28.5639 23.7789 0.091
      vertex 27.7892 23.8518 0.391
      vertex 27.7892 23.8518 0.091
    endloop
  endfacet
  facet normal -0.0936871 -0.995602 0
    outer loop
      vertex 28.5639 23.7789 0.091
      vertex 28.5639 23.7789 0.391
      vertex 27.7892 23.8518 0.391
    endloop
  endfacet
  facet normal -0.158642 -0.987336 0
    outer loop
      vertex 29.3207 23.6573 0.091
      vertex 28.5639 23.7789 0.391
      vertex 28.5639 23.7789 0.091
    endloop
  endfacet
  facet normal -0.158642 -0.987336 0
    outer loop
      vertex 29.3207 23.6573 0.091
      vertex 29.3207 23.6573 0.391
      vertex 28.5639 23.7789 0.391
    endloop
  endfacet
  facet normal -0.224368 -0.974504 0
    outer loop
      vertex 30.0595 23.4872 0.091
      vertex 29.3207 23.6573 0.391
      vertex 29.3207 23.6573 0.091
    endloop
  endfacet
  facet normal -0.224368 -0.974504 0
    outer loop
      vertex 30.0595 23.4872 0.091
      vertex 30.0595 23.4872 0.391
      vertex 29.3207 23.6573 0.391
    endloop
  endfacet
  facet normal -0.290306 -0.956934 0
    outer loop
      vertex 30.7804 23.2685 0.091
      vertex 30.0595 23.4872 0.391
      vertex 30.0595 23.4872 0.091
    endloop
  endfacet
  facet normal -0.290306 -0.956934 0
    outer loop
      vertex 30.7804 23.2685 0.091
      vertex 30.7804 23.2685 0.391
      vertex 30.0595 23.4872 0.391
    endloop
  endfacet
  facet normal -0.355476 -0.934686 0
    outer loop
      vertex 31.4835 23.0011 0.091
      vertex 30.7804 23.2685 0.391
      vertex 30.7804 23.2685 0.091
    endloop
  endfacet
  facet normal -0.355476 -0.934686 0
    outer loop
      vertex 31.4835 23.0011 0.091
      vertex 31.4835 23.0011 0.391
      vertex 30.7804 23.2685 0.391
    endloop
  endfacet
  facet normal -0.41873 -0.908111 0
    outer loop
      vertex 32.1686 22.6852 0.091
      vertex 31.4835 23.0011 0.391
      vertex 31.4835 23.0011 0.091
    endloop
  endfacet
  facet normal -0.41873 -0.908111 0
    outer loop
      vertex 32.1686 22.6852 0.091
      vertex 32.1686 22.6852 0.391
      vertex 31.4835 23.0011 0.391
    endloop
  endfacet
  facet normal -0.479534 -0.877523 0
    outer loop
      vertex 32.8358 22.3206 0.091
      vertex 32.1686 22.6852 0.391
      vertex 32.1686 22.6852 0.091
    endloop
  endfacet
  facet normal -0.479534 -0.877523 0
    outer loop
      vertex 32.8358 22.3206 0.091
      vertex 32.8358 22.3206 0.391
      vertex 32.1686 22.6852 0.391
    endloop
  endfacet
  facet normal -0.536791 -0.843715 0
    outer loop
      vertex 33.4851 21.9075 0.091
      vertex 32.8358 22.3206 0.391
      vertex 32.8358 22.3206 0.091
    endloop
  endfacet
  facet normal -0.536791 -0.843715 0
    outer loop
      vertex 33.4851 21.9075 0.091
      vertex 33.4851 21.9075 0.391
      vertex 32.8358 22.3206 0.391
    endloop
  endfacet
  facet normal -0.590343 -0.807152 0
    outer loop
      vertex 34.1165 21.4457 0.091
      vertex 33.4851 21.9075 0.391
      vertex 33.4851 21.9075 0.091
    endloop
  endfacet
  facet normal -0.590343 -0.807152 0
    outer loop
      vertex 34.1165 21.4457 0.091
      vertex 34.1165 21.4457 0.391
      vertex 33.4851 21.9075 0.391
    endloop
  endfacet
  facet normal -0.639556 -0.768745 0
    outer loop
      vertex 34.73 20.9353 0.091
      vertex 34.1165 21.4457 0.391
      vertex 34.1165 21.4457 0.091
    endloop
  endfacet
  facet normal -0.639556 -0.768745 0
    outer loop
      vertex 34.73 20.9353 0.091
      vertex 34.73 20.9353 0.391
      vertex 34.1165 21.4457 0.391
    endloop
  endfacet
  facet normal -0.684348 -0.729155 0
    outer loop
      vertex 35.3256 20.3763 0.091
      vertex 34.73 20.9353 0.391
      vertex 34.73 20.9353 0.091
    endloop
  endfacet
  facet normal -0.684348 -0.729155 0
    outer loop
      vertex 35.3256 20.3763 0.091
      vertex 35.3256 20.3763 0.391
      vertex 34.73 20.9353 0.391
    endloop
  endfacet
  facet normal -0.724773 -0.688988 0
    outer loop
      vertex 35.9032 19.7687 0.091
      vertex 35.3256 20.3763 0.391
      vertex 35.3256 20.3763 0.091
    endloop
  endfacet
  facet normal -0.724773 -0.688988 0
    outer loop
      vertex 35.9032 19.7687 0.091
      vertex 35.9032 19.7687 0.391
      vertex 35.3256 20.3763 0.391
    endloop
  endfacet
  facet normal -0.761078 -0.64866 0
    outer loop
      vertex 36.4502 19.1269 0.091
      vertex 35.9032 19.7687 0.391
      vertex 35.9032 19.7687 0.091
    endloop
  endfacet
  facet normal -0.761078 -0.64866 0
    outer loop
      vertex 36.4502 19.1269 0.091
      vertex 36.4502 19.1269 0.391
      vertex 35.9032 19.7687 0.391
    endloop
  endfacet
  facet normal -0.796042 -0.605242 0
    outer loop
      vertex 36.9533 18.4652 0.091
      vertex 36.4502 19.1269 0.391
      vertex 36.4502 19.1269 0.091
    endloop
  endfacet
  facet normal -0.796042 -0.605242 0
    outer loop
      vertex 36.9533 18.4652 0.091
      vertex 36.9533 18.4652 0.391
      vertex 36.4502 19.1269 0.391
    endloop
  endfacet
  facet normal -0.829176 -0.558988 0
    outer loop
      vertex 37.4128 17.7836 0.091
      vertex 36.9533 18.4652 0.391
      vertex 36.9533 18.4652 0.091
    endloop
  endfacet
  facet normal -0.829176 -0.558988 0
    outer loop
      vertex 37.4128 17.7836 0.091
      vertex 37.4128 17.7836 0.391
      vertex 36.9533 18.4652 0.391
    endloop
  endfacet
  facet normal -0.860347 -0.509708 0
    outer loop
      vertex 37.8284 17.0821 0.091
      vertex 37.4128 17.7836 0.391
      vertex 37.4128 17.7836 0.091
    endloop
  endfacet
  facet normal -0.860347 -0.509708 0
    outer loop
      vertex 37.8284 17.0821 0.091
      vertex 37.8284 17.0821 0.391
      vertex 37.4128 17.7836 0.391
    endloop
  endfacet
  facet normal -0.888839 -0.458219 0
    outer loop
      vertex 38.2003 16.3607 0.091
      vertex 37.8284 17.0821 0.391
      vertex 37.8284 17.0821 0.091
    endloop
  endfacet
  facet normal -0.888839 -0.458219 0
    outer loop
      vertex 38.2003 16.3607 0.091
      vertex 38.2003 16.3607 0.391
      vertex 37.8284 17.0821 0.391
    endloop
  endfacet
  facet normal -0.91439 -0.404833 0
    outer loop
      vertex 38.5285 15.6194 0.091
      vertex 38.2003 16.3607 0.391
      vertex 38.2003 16.3607 0.091
    endloop
  endfacet
  facet normal -0.91439 -0.404833 0
    outer loop
      vertex 38.5285 15.6194 0.091
      vertex 38.5285 15.6194 0.391
      vertex 38.2003 16.3607 0.391
    endloop
  endfacet
  facet normal -0.936738 -0.350031 0
    outer loop
      vertex 38.8129 14.8583 0.091
      vertex 38.5285 15.6194 0.391
      vertex 38.5285 15.6194 0.091
    endloop
  endfacet
  facet normal -0.936738 -0.350031 0
    outer loop
      vertex 38.8129 14.8583 0.091
      vertex 38.8129 14.8583 0.391
      vertex 38.5285 15.6194 0.391
    endloop
  endfacet
  facet normal -0.955678 -0.294413 0
    outer loop
      vertex 39.0535 14.0773 0.091
      vertex 38.8129 14.8583 0.391
      vertex 38.8129 14.8583 0.091
    endloop
  endfacet
  facet normal -0.955678 -0.294413 0
    outer loop
      vertex 39.0535 14.0773 0.091
      vertex 39.0535 14.0773 0.391
      vertex 38.8129 14.8583 0.391
    endloop
  endfacet
  facet normal -0.971084 -0.238739 0
    outer loop
      vertex 39.2504 13.2764 0.091
      vertex 39.0535 14.0773 0.391
      vertex 39.0535 14.0773 0.091
    endloop
  endfacet
  facet normal -0.971084 -0.238739 0
    outer loop
      vertex 39.2504 13.2764 0.091
      vertex 39.2504 13.2764 0.391
      vertex 39.0535 14.0773 0.391
    endloop
  endfacet
  facet normal -0.983024 -0.183479 0
    outer loop
      vertex 39.4036 12.4556 0.091
      vertex 39.2504 13.2764 0.391
      vertex 39.2504 13.2764 0.091
    endloop
  endfacet
  facet normal -0.983024 -0.183479 0
    outer loop
      vertex 39.4036 12.4556 0.091
      vertex 39.4036 12.4556 0.391
      vertex 39.2504 13.2764 0.391
    endloop
  endfacet
  facet normal -0.991639 -0.129042 0
    outer loop
      vertex 39.513 11.6149 0.091
      vertex 39.4036 12.4556 0.391
      vertex 39.4036 12.4556 0.091
    endloop
  endfacet
  facet normal -0.991639 -0.129042 0
    outer loop
      vertex 39.513 11.6149 0.091
      vertex 39.513 11.6149 0.391
      vertex 39.4036 12.4556 0.391
    endloop
  endfacet
  facet normal -0.997107 -0.0760054 0
    outer loop
      vertex 39.5786 10.7543 0.091
      vertex 39.513 11.6149 0.391
      vertex 39.513 11.6149 0.091
    endloop
  endfacet
  facet normal -0.997107 -0.0760054 0
    outer loop
      vertex 39.5786 10.7543 0.091
      vertex 39.5786 10.7543 0.391
      vertex 39.513 11.6149 0.391
    endloop
  endfacet
  facet normal -0.999691 -0.0248679 0
    outer loop
      vertex 39.6005 9.87392 0.091
      vertex 39.5786 10.7543 0.391
      vertex 39.5786 10.7543 0.091
    endloop
  endfacet
  facet normal -0.999691 -0.0248679 0
    outer loop
      vertex 39.6005 9.87392 0.091
      vertex 39.6005 9.87392 0.391
      vertex 39.5786 10.7543 0.391
    endloop
  endfacet
  facet normal -1 0 0
    outer loop
      vertex 39.6005 -0.699997 0.091
      vertex 39.6005 9.87392 0.391
      vertex 39.6005 9.87392 0.091
    endloop
  endfacet
  facet normal -1 0 0
    outer loop
      vertex 39.6005 -0.699997 0.091
      vertex 39.6005 -0.699997 0.391
      vertex 39.6005 9.87392 0.391
    endloop
  endfacet
  facet normal 0 -1 0
    outer loop
      vertex 47.9987 -0.699997 0.091
      vertex 39.6005 -0.699997 0.391
      vertex 39.6005 -0.699997 0.091
    endloop
  endfacet
  facet normal 0 -1 0
    outer loop
      vertex 47.9987 -0.699997 0.091
      vertex 47.9987 -0.699997 0.391
      vertex 39.6005 -0.699997 0.391
    endloop
  endfacet
  facet normal 1 0 0
    outer loop
      vertex 47.9987 9.87392 0.091
      vertex 47.9987 -0.699997 0.391
      vertex 47.9987 -0.699997 0.091
    endloop
  endfacet
  facet normal 1 0 -0
    outer loop
      vertex 47.9987 9.87392 0.091
      vertex 47.9987 9.87392 0.391
      vertex 47.9987 -0.699997 0.391
    endloop
  endfacet
endsolid OpenSCAD_Model
