solid OpenSCAD_Model
  facet normal 0 0 -1
    outer loop
      vertex 43.5981 -0.212936 -0.391
      vertex 43.6641 -0.478745 -0.391
      vertex 43.7058 -0.699997 -0.391
    endloop
  endfacet
  facet normal -0 -0 -1
    outer loop
      vertex 42.7261 1.47017 -0.391
      vertex 42.8946 1.24876 -0.391
      vertex 39.5838 3.06194 -0.391
    endloop
  endfacet
  facet normal 0 0 -1
    outer loop
      vertex 39.5838 3.06194 -0.391
      vertex 43.0485 1.021 -0.391
      vertex 43.1878 0.786896 -0.391
    endloop
  endfacet
  facet normal 0 0 -1
    outer loop
      vertex 39.5838 3.06194 -0.391
      vertex 42.8946 1.24876 -0.391
      vertex 43.0485 1.021 -0.391
    endloop
  endfacet
  facet normal 0 0 -1
    outer loop
      vertex 43.3123 0.546448 -0.391
      vertex 39.5838 3.06194 -0.391
      vertex 43.1878 0.786896 -0.391
    endloop
  endfacet
  facet normal 0 0 -1
    outer loop
      vertex 42.7261 1.47017 -0.391
      vertex 39.5838 3.06194 -0.391
      vertex 42.5429 1.68526 -0.391
    endloop
  endfacet
  facet normal 0 0 -1
    outer loop
      vertex 39.5838 3.06194 -0.391
      vertex 42.1505 2.07626 -0.391
      vertex 42.3495 1.8889 -0.391
    endloop
  endfacet
  facet normal -0 -0 -1
    outer loop
      vertex 39.8456 3.05379 -0.391
      vertex 41.9457 2.24733 -0.391
      vertex 39.5838 3.06194 -0.391
    endloop
  endfacet
  facet normal -0 -0 -1
    outer loop
      vertex 41.519 2.54059 -0.391
      vertex 41.7352 2.4021 -0.391
      vertex 40.1018 3.02936 -0.391
    endloop
  endfacet
  facet normal 0 0 -1
    outer loop
      vertex 41.297 2.66278 -0.391
      vertex 40.597 2.93159 -0.391
      vertex 41.0694 2.76868 -0.391
    endloop
  endfacet
  facet normal 0 0 -1
    outer loop
      vertex 41.0694 2.76868 -0.391
      vertex 40.597 2.93159 -0.391
      vertex 40.8361 2.85829 -0.391
    endloop
  endfacet
  facet normal 0 0 -1
    outer loop
      vertex 41.297 2.66278 -0.391
      vertex 40.3523 2.98862 -0.391
      vertex 40.597 2.93159 -0.391
    endloop
  endfacet
  facet normal -0 -0 -1
    outer loop
      vertex 41.297 2.66278 -0.391
      vertex 41.519 2.54059 -0.391
      vertex 40.3523 2.98862 -0.391
    endloop
  endfacet
  facet normal -0 -0 -1
    outer loop
      vertex 40.3523 2.98862 -0.391
      vertex 41.519 2.54059 -0.391
      vertex 40.1018 3.02936 -0.391
    endloop
  endfacet
  facet normal -0 -0 -1
    outer loop
      vertex 40.1018 3.02936 -0.391
      vertex 41.7352 2.4021 -0.391
      vertex 39.8456 3.05379 -0.391
    endloop
  endfacet
  facet normal 0 0 -1
    outer loop
      vertex 39.8456 3.05379 -0.391
      vertex 41.7352 2.4021 -0.391
      vertex 41.9457 2.24733 -0.391
    endloop
  endfacet
  facet normal 0 0 -1
    outer loop
      vertex 39.5838 3.06194 -0.391
      vertex 41.9457 2.24733 -0.391
      vertex 42.1505 2.07626 -0.391
    endloop
  endfacet
  facet normal 0 0 -1
    outer loop
      vertex 42.5429 1.68526 -0.391
      vertex 39.5838 3.06194 -0.391
      vertex 42.3495 1.8889 -0.391
    endloop
  endfacet
  facet normal -0 -0 -1
    outer loop
      vertex 43.3123 0.546448 -0.391
      vertex 43.4222 0.299652 -0.391
      vertex 39.5838 3.06194 -0.391
    endloop
  endfacet
  facet normal 0 0 -1
    outer loop
      vertex 39.5838 3.06194 -0.391
      vertex 43.4222 0.299652 -0.391
      vertex 43.5175 0.046524 -0.391
    endloop
  endfacet
  facet normal 0 0 -1
    outer loop
      vertex 43.5981 -0.212936 -0.391
      vertex 39.5838 3.06194 -0.391
      vertex 43.5175 0.046524 -0.391
    endloop
  endfacet
  facet normal -0 -0 -1
    outer loop
      vertex 43.5981 -0.212936 -0.391
      vertex 43.7058 -0.699997 -0.391
      vertex 39.5838 3.06194 -0.391
    endloop
  endfacet
  facet normal -0 -0 -1
    outer loop
      vertex 39.5838 3.06194 -0.391
      vertex 43.7058 -0.699997 -0.391
      vertex 14.3935 3.06194 -0.391
    endloop
  endfacet
  facet normal 0 -0 -1
    outer loop
      vertex 14.3935 3.06194 -0.391
      vertex 43.7058 -0.699997 -0.391
      vertex 5.99527 -0.699997 -0.391
    endloop
  endfacet
  facet normal 0 -0 -1
    outer loop
      vertex 8.94099 33.1963 -0.391
      vertex 9.18018 33.2697 -0.391
      vertex 8.70755 33.1067 -0.391
    endloop
  endfacet
  facet normal 0 0 -1
    outer loop
      vertex 45.2697 24.3586 -0.391
      vertex 45.0363 24.269 -0.391
      vertex 44.7971 24.1956 -0.391
    endloop
  endfacet
  facet normal 0 0 -1
    outer loop
      vertex 44.7971 24.1956 -0.391
      vertex 45.4974 24.4646 -0.391
      vertex 45.2697 24.3586 -0.391
    endloop
  endfacet
  facet normal -0 0 -1
    outer loop
      vertex 44.7971 24.1956 -0.391
      vertex 44.5522 24.1385 -0.391
      vertex 45.4974 24.4646 -0.391
    endloop
  endfacet
  facet normal -0 0 -1
    outer loop
      vertex 45.4974 24.4646 -0.391
      vertex 44.5522 24.1385 -0.391
      vertex 45.7194 24.5868 -0.391
    endloop
  endfacet
  facet normal 0 0 -1
    outer loop
      vertex 45.7194 24.5868 -0.391
      vertex 44.5522 24.1385 -0.391
      vertex 44.3016 24.0978 -0.391
    endloop
  endfacet
  facet normal 0 0 -1
    outer loop
      vertex 45.9357 24.7254 -0.391
      vertex 45.7194 24.5868 -0.391
      vertex 44.3016 24.0978 -0.391
    endloop
  endfacet
  facet normal 0 0 -1
    outer loop
      vertex 44.0452 24.0733 -0.391
      vertex 45.9357 24.7254 -0.391
      vertex 44.3016 24.0978 -0.391
    endloop
  endfacet
  facet normal 0 0 -1
    outer loop
      vertex 44.0452 24.0733 -0.391
      vertex 46.1462 24.8802 -0.391
      vertex 45.9357 24.7254 -0.391
    endloop
  endfacet
  facet normal -0 0 -1
    outer loop
      vertex 44.0452 24.0733 -0.391
      vertex 43.7832 24.0652 -0.391
      vertex 46.1462 24.8802 -0.391
    endloop
  endfacet
  facet normal -0 0 -1
    outer loop
      vertex 46.1462 24.8802 -0.391
      vertex 43.7832 24.0652 -0.391
      vertex 46.3511 25.0514 -0.391
    endloop
  endfacet
  facet normal -0 0 -1
    outer loop
      vertex 46.3511 25.0514 -0.391
      vertex 43.7832 24.0652 -0.391
      vertex 46.5502 25.2388 -0.391
    endloop
  endfacet
  facet normal -0 0 -1
    outer loop
      vertex 46.5502 25.2388 -0.391
      vertex 43.7832 24.0652 -0.391
      vertex 46.7436 25.4426 -0.391
    endloop
  endfacet
  facet normal -0 0 -1
    outer loop
      vertex 46.7436 25.4426 -0.391
      vertex 43.7832 24.0652 -0.391
      vertex 46.9268 25.6575 -0.391
    endloop
  endfacet
  facet normal -0 0 -1
    outer loop
      vertex 46.9268 25.6575 -0.391
      vertex 43.7832 24.0652 -0.391
      vertex 47.0953 25.8789 -0.391
    endloop
  endfacet
  facet normal -0 0 -1
    outer loop
      vertex 47.0953 25.8789 -0.391
      vertex 43.7832 24.0652 -0.391
      vertex 47.2492 26.1066 -0.391
    endloop
  endfacet
  facet normal -0 0 -1
    outer loop
      vertex 47.2492 26.1066 -0.391
      vertex 43.7832 24.0652 -0.391
      vertex 47.3884 26.3406 -0.391
    endloop
  endfacet
  facet normal -0 0 -1
    outer loop
      vertex 47.3884 26.3406 -0.391
      vertex 43.7832 24.0652 -0.391
      vertex 47.513 26.5809 -0.391
    endloop
  endfacet
  facet normal -0 0 -1
    outer loop
      vertex 47.513 26.5809 -0.391
      vertex 43.7832 24.0652 -0.391
      vertex 47.6229 26.8277 -0.391
    endloop
  endfacet
  facet normal -0 0 -1
    outer loop
      vertex 47.6229 26.8277 -0.391
      vertex 43.7832 24.0652 -0.391
      vertex 47.7182 27.0808 -0.391
    endloop
  endfacet
  facet normal -0 0 -1
    outer loop
      vertex 47.7182 27.0808 -0.391
      vertex 43.7832 24.0652 -0.391
      vertex 47.7988 27.3402 -0.391
    endloop
  endfacet
  facet normal -0 0 -1
    outer loop
      vertex 47.7988 27.3402 -0.391
      vertex 43.7832 24.0652 -0.391
      vertex 47.8647 27.606 -0.391
    endloop
  endfacet
  facet normal -0 0 -1
    outer loop
      vertex 47.8647 27.606 -0.391
      vertex 43.7832 24.0652 -0.391
      vertex 47.916 27.8781 -0.391
    endloop
  endfacet
  facet normal -0 0 -1
    outer loop
      vertex 47.916 27.8781 -0.391
      vertex 43.7832 24.0652 -0.391
      vertex 47.9527 28.1566 -0.391
    endloop
  endfacet
  facet normal -0 0 -1
    outer loop
      vertex 47.9527 28.1566 -0.391
      vertex 43.7832 24.0652 -0.391
      vertex 47.9746 28.4414 -0.391
    endloop
  endfacet
  facet normal -0 0 -1
    outer loop
      vertex 47.9746 28.4414 -0.391
      vertex 43.7832 24.0652 -0.391
      vertex 47.982 28.7326 -0.391
    endloop
  endfacet
  facet normal 0 0 -1
    outer loop
      vertex 43.7832 33.4 -0.391
      vertex 47.9526 29.3086 -0.391
      vertex 47.9746 29.0238 -0.391
    endloop
  endfacet
  facet normal -0 -0 -1
    outer loop
      vertex 47.6227 30.6377 -0.391
      vertex 47.718 30.3846 -0.391
      vertex 43.7832 33.4 -0.391
    endloop
  endfacet
  facet normal 0 0 -1
    outer loop
      vertex 43.7832 33.4 -0.391
      vertex 46.3505 32.4143 -0.391
      vertex 46.5496 32.2269 -0.391
    endloop
  endfacet
  facet normal 0 0 -1
    outer loop
      vertex 43.7832 33.4 -0.391
      vertex 46.9262 31.8082 -0.391
      vertex 47.0948 31.5868 -0.391
    endloop
  endfacet
  facet normal -0 -0 -1
    outer loop
      vertex 47.2488 31.359 -0.391
      vertex 47.3881 31.1249 -0.391
      vertex 43.7832 33.4 -0.391
    endloop
  endfacet
  facet normal 0 0 -1
    outer loop
      vertex 47.2488 31.359 -0.391
      vertex 43.7832 33.4 -0.391
      vertex 47.0948 31.5868 -0.391
    endloop
  endfacet
  facet normal 0 0 -1
    outer loop
      vertex 46.9262 31.8082 -0.391
      vertex 43.7832 33.4 -0.391
      vertex 46.743 32.0233 -0.391
    endloop
  endfacet
  facet normal 0 0 -1
    outer loop
      vertex 46.743 32.0233 -0.391
      vertex 43.7832 33.4 -0.391
      vertex 46.5496 32.2269 -0.391
    endloop
  endfacet
  facet normal 0 0 -1
    outer loop
      vertex 43.7832 33.4 -0.391
      vertex 46.1457 32.5854 -0.391
      vertex 46.3505 32.4143 -0.391
    endloop
  endfacet
  facet normal 0 0 -1
    outer loop
      vertex 44.0452 33.3918 -0.391
      vertex 45.9351 32.7402 -0.391
      vertex 46.1457 32.5854 -0.391
    endloop
  endfacet
  facet normal 0 0 -1
    outer loop
      vertex 44.0452 33.3918 -0.391
      vertex 44.3014 33.3674 -0.391
      vertex 45.9351 32.7402 -0.391
    endloop
  endfacet
  facet normal 0 0 -1
    outer loop
      vertex 45.9351 32.7402 -0.391
      vertex 44.3014 33.3674 -0.391
      vertex 45.7189 32.8786 -0.391
    endloop
  endfacet
  facet normal 0 0 -1
    outer loop
      vertex 45.7189 32.8786 -0.391
      vertex 44.3014 33.3674 -0.391
      vertex 44.5519 33.3267 -0.391
    endloop
  endfacet
  facet normal 0 0 -1
    outer loop
      vertex 45.4969 33.0008 -0.391
      vertex 44.5519 33.3267 -0.391
      vertex 44.7968 33.2697 -0.391
    endloop
  endfacet
  facet normal 0 0 -1
    outer loop
      vertex 45.2693 33.1067 -0.391
      vertex 44.7968 33.2697 -0.391
      vertex 45.0359 33.1963 -0.391
    endloop
  endfacet
  facet normal -0 -0 -1
    outer loop
      vertex 45.2693 33.1067 -0.391
      vertex 45.4969 33.0008 -0.391
      vertex 44.7968 33.2697 -0.391
    endloop
  endfacet
  facet normal -0 -0 -1
    outer loop
      vertex 45.4969 33.0008 -0.391
      vertex 45.7189 32.8786 -0.391
      vertex 44.5519 33.3267 -0.391
    endloop
  endfacet
  facet normal 0 0 -1
    outer loop
      vertex 43.7832 33.4 -0.391
      vertex 44.0452 33.3918 -0.391
      vertex 46.1457 32.5854 -0.391
    endloop
  endfacet
  facet normal 0 0 -1
    outer loop
      vertex 47.5127 30.8845 -0.391
      vertex 43.7832 33.4 -0.391
      vertex 47.3881 31.1249 -0.391
    endloop
  endfacet
  facet normal -0 -0 -1
    outer loop
      vertex 47.5127 30.8845 -0.391
      vertex 47.6227 30.6377 -0.391
      vertex 43.7832 33.4 -0.391
    endloop
  endfacet
  facet normal 0 0 -1
    outer loop
      vertex 43.7832 33.4 -0.391
      vertex 47.718 30.3846 -0.391
      vertex 47.7987 30.1251 -0.391
    endloop
  endfacet
  facet normal 0 0 -1
    outer loop
      vertex 47.8647 29.8593 -0.391
      vertex 43.7832 33.4 -0.391
      vertex 47.7987 30.1251 -0.391
    endloop
  endfacet
  facet normal -0 -0 -1
    outer loop
      vertex 47.8647 29.8593 -0.391
      vertex 47.916 29.5871 -0.391
      vertex 43.7832 33.4 -0.391
    endloop
  endfacet
  facet normal 0 0 -1
    outer loop
      vertex 43.7832 33.4 -0.391
      vertex 47.916 29.5871 -0.391
      vertex 47.9526 29.3086 -0.391
    endloop
  endfacet
  facet normal 0 0 -1
    outer loop
      vertex 47.982 28.7326 -0.391
      vertex 43.7832 33.4 -0.391
      vertex 47.9746 29.0238 -0.391
    endloop
  endfacet
  facet normal -0 0 -1
    outer loop
      vertex 47.982 28.7326 -0.391
      vertex 43.7832 24.0652 -0.391
      vertex 43.7832 33.4 -0.391
    endloop
  endfacet
  facet normal 0 -0 -1
    outer loop
      vertex 43.7832 33.4 -0.391
      vertex 43.7832 24.0652 -0.391
      vertex 14.3935 24.0652 -0.391
    endloop
  endfacet
  facet normal 0 0 -1
    outer loop
      vertex 10.1941 33.4 -0.391
      vertex 43.7832 33.4 -0.391
      vertex 14.3935 24.0652 -0.391
    endloop
  endfacet
  facet normal 0 0 -1
    outer loop
      vertex 8.47983 33.0008 -0.391
      vertex 8.70755 33.1067 -0.391
      vertex 9.18018 33.2697 -0.391
    endloop
  endfacet
  facet normal 0 0 -1
    outer loop
      vertex 9.42506 33.3267 -0.391
      vertex 8.47983 33.0008 -0.391
      vertex 9.18018 33.2697 -0.391
    endloop
  endfacet
  facet normal 0 0 -1
    outer loop
      vertex 9.42506 33.3267 -0.391
      vertex 8.25784 32.8786 -0.391
      vertex 8.47983 33.0008 -0.391
    endloop
  endfacet
  facet normal 0 -0 -1
    outer loop
      vertex 9.42506 33.3267 -0.391
      vertex 9.67567 33.3674 -0.391
      vertex 8.25784 32.8786 -0.391
    endloop
  endfacet
  facet normal 0 -0 -1
    outer loop
      vertex 8.25784 32.8786 -0.391
      vertex 9.67567 33.3674 -0.391
      vertex 8.04156 32.7402 -0.391
    endloop
  endfacet
  facet normal 0 0 -1
    outer loop
      vertex 8.04156 32.7402 -0.391
      vertex 9.67567 33.3674 -0.391
      vertex 9.93202 33.3918 -0.391
    endloop
  endfacet
  facet normal 0 0 -1
    outer loop
      vertex 7.83101 32.5854 -0.391
      vertex 8.04156 32.7402 -0.391
      vertex 9.93202 33.3918 -0.391
    endloop
  endfacet
  facet normal 0 0 -1
    outer loop
      vertex 10.1941 33.4 -0.391
      vertex 7.83101 32.5854 -0.391
      vertex 9.93202 33.3918 -0.391
    endloop
  endfacet
  facet normal 0 0 -1
    outer loop
      vertex 10.1941 33.4 -0.391
      vertex 7.62616 32.4143 -0.391
      vertex 7.83101 32.5854 -0.391
    endloop
  endfacet
  facet normal 0 0 -1
    outer loop
      vertex 10.1941 33.4 -0.391
      vertex 7.42706 32.2269 -0.391
      vertex 7.62616 32.4143 -0.391
    endloop
  endfacet
  facet normal 0 0 -1
    outer loop
      vertex 10.1941 33.4 -0.391
      vertex 7.23367 32.0233 -0.391
      vertex 7.42706 32.2269 -0.391
    endloop
  endfacet
  facet normal 0 0 -1
    outer loop
      vertex 10.1941 33.4 -0.391
      vertex 7.05048 31.8082 -0.391
      vertex 7.23367 32.0233 -0.391
    endloop
  endfacet
  facet normal 0 0 -1
    outer loop
      vertex 10.1941 33.4 -0.391
      vertex 6.88194 31.5868 -0.391
      vertex 7.05048 31.8082 -0.391
    endloop
  endfacet
  facet normal 0 0 -1
    outer loop
      vertex 10.1941 33.4 -0.391
      vertex 6.72806 31.359 -0.391
      vertex 6.88194 31.5868 -0.391
    endloop
  endfacet
  facet normal 0 0 -1
    outer loop
      vertex 10.1941 33.4 -0.391
      vertex 6.58884 31.1249 -0.391
      vertex 6.72806 31.359 -0.391
    endloop
  endfacet
  facet normal 0 0 -1
    outer loop
      vertex 10.1941 33.4 -0.391
      vertex 6.46425 30.8845 -0.391
      vertex 6.58884 31.1249 -0.391
    endloop
  endfacet
  facet normal 0 0 -1
    outer loop
      vertex 10.1941 33.4 -0.391
      vertex 6.35435 30.6377 -0.391
      vertex 6.46425 30.8845 -0.391
    endloop
  endfacet
  facet normal 0 0 -1
    outer loop
      vertex 10.1941 33.4 -0.391
      vertex 6.25908 30.3846 -0.391
      vertex 6.35435 30.6377 -0.391
    endloop
  endfacet
  facet normal 0 0 -1
    outer loop
      vertex 10.1941 33.4 -0.391
      vertex 6.17847 30.1251 -0.391
      vertex 6.25908 30.3846 -0.391
    endloop
  endfacet
  facet normal 0 0 -1
    outer loop
      vertex 10.1941 33.4 -0.391
      vertex 6.11252 29.8593 -0.391
      vertex 6.17847 30.1251 -0.391
    endloop
  endfacet
  facet normal 0 0 -1
    outer loop
      vertex 10.1941 33.4 -0.391
      vertex 6.06123 29.5871 -0.391
      vertex 6.11252 29.8593 -0.391
    endloop
  endfacet
  facet normal 0 0 -1
    outer loop
      vertex 10.1941 33.4 -0.391
      vertex 6.0246 29.3086 -0.391
      vertex 6.06123 29.5871 -0.391
    endloop
  endfacet
  facet normal 0 0 -1
    outer loop
      vertex 10.1941 33.4 -0.391
      vertex 6.00261 29.0238 -0.391
      vertex 6.0246 29.3086 -0.391
    endloop
  endfacet
  facet normal 0 0 -1
    outer loop
      vertex 10.1941 33.4 -0.391
      vertex 5.99527 28.7326 -0.391
      vertex 6.00261 29.0238 -0.391
    endloop
  endfacet
  facet normal 0 -0 -1
    outer loop
      vertex 10.1941 33.4 -0.391
      vertex 14.3935 24.0652 -0.391
      vertex 5.99527 28.7326 -0.391
    endloop
  endfacet
  facet normal 0 0 -1
    outer loop
      vertex 5.99527 28.7326 -0.391
      vertex 14.3935 24.0652 -0.391
      vertex 5.99527 -0.699997 -0.391
    endloop
  endfacet
  facet normal 0 0 -1
    outer loop
      vertex 5.99527 -0.699997 -0.391
      vertex 14.3935 24.0652 -0.391
      vertex 14.3935 3.06194 -0.391
    endloop
  endfacet
  facet normal 0 0 1
    outer loop
      vertex 43.7058 -0.699997 -0.091
      vertex 43.6641 -0.478745 -0.091
      vertex 43.5981 -0.212936 -0.091
    endloop
  endfacet
  facet normal 0 0 1
    outer loop
      vertex 39.5838 3.06194 -0.091
      vertex 42.8946 1.24876 -0.091
      vertex 42.7261 1.47017 -0.091
    endloop
  endfacet
  facet normal 0 0 1
    outer loop
      vertex 43.1878 0.786896 -0.091
      vertex 43.0485 1.021 -0.091
      vertex 39.5838 3.06194 -0.091
    endloop
  endfacet
  facet normal 0 0 1
    outer loop
      vertex 43.0485 1.021 -0.091
      vertex 42.8946 1.24876 -0.091
      vertex 39.5838 3.06194 -0.091
    endloop
  endfacet
  facet normal 0 0 1
    outer loop
      vertex 43.1878 0.786896 -0.091
      vertex 39.5838 3.06194 -0.091
      vertex 43.3123 0.546448 -0.091
    endloop
  endfacet
  facet normal 0 0 1
    outer loop
      vertex 42.5429 1.68526 -0.091
      vertex 39.5838 3.06194 -0.091
      vertex 42.7261 1.47017 -0.091
    endloop
  endfacet
  facet normal 0 0 1
    outer loop
      vertex 42.3495 1.8889 -0.091
      vertex 42.1505 2.07626 -0.091
      vertex 39.5838 3.06194 -0.091
    endloop
  endfacet
  facet normal 0 0 1
    outer loop
      vertex 39.5838 3.06194 -0.091
      vertex 41.9457 2.24733 -0.091
      vertex 39.8456 3.05379 -0.091
    endloop
  endfacet
  facet normal 0 0 1
    outer loop
      vertex 40.1018 3.02936 -0.091
      vertex 41.7352 2.4021 -0.091
      vertex 41.519 2.54059 -0.091
    endloop
  endfacet
  facet normal 0 0 1
    outer loop
      vertex 41.0694 2.76868 -0.091
      vertex 40.597 2.93159 -0.091
      vertex 41.297 2.66278 -0.091
    endloop
  endfacet
  facet normal 0 0 1
    outer loop
      vertex 40.8361 2.85829 -0.091
      vertex 40.597 2.93159 -0.091
      vertex 41.0694 2.76868 -0.091
    endloop
  endfacet
  facet normal 0 0 1
    outer loop
      vertex 40.597 2.93159 -0.091
      vertex 40.3523 2.98862 -0.091
      vertex 41.297 2.66278 -0.091
    endloop
  endfacet
  facet normal 0 0 1
    outer loop
      vertex 40.3523 2.98862 -0.091
      vertex 41.519 2.54059 -0.091
      vertex 41.297 2.66278 -0.091
    endloop
  endfacet
  facet normal 0 0 1
    outer loop
      vertex 40.1018 3.02936 -0.091
      vertex 41.519 2.54059 -0.091
      vertex 40.3523 2.98862 -0.091
    endloop
  endfacet
  facet normal 0 0 1
    outer loop
      vertex 39.8456 3.05379 -0.091
      vertex 41.7352 2.4021 -0.091
      vertex 40.1018 3.02936 -0.091
    endloop
  endfacet
  facet normal 0 0 1
    outer loop
      vertex 41.9457 2.24733 -0.091
      vertex 41.7352 2.4021 -0.091
      vertex 39.8456 3.05379 -0.091
    endloop
  endfacet
  facet normal 0 0 1
    outer loop
      vertex 42.1505 2.07626 -0.091
      vertex 41.9457 2.24733 -0.091
      vertex 39.5838 3.06194 -0.091
    endloop
  endfacet
  facet normal 0 0 1
    outer loop
      vertex 42.3495 1.8889 -0.091
      vertex 39.5838 3.06194 -0.091
      vertex 42.5429 1.68526 -0.091
    endloop
  endfacet
  facet normal 0 0 1
    outer loop
      vertex 39.5838 3.06194 -0.091
      vertex 43.4222 0.299652 -0.091
      vertex 43.3123 0.546448 -0.091
    endloop
  endfacet
  facet normal 0 0 1
    outer loop
      vertex 43.5175 0.046524 -0.091
      vertex 43.4222 0.299652 -0.091
      vertex 39.5838 3.06194 -0.091
    endloop
  endfacet
  facet normal 0 0 1
    outer loop
      vertex 43.5175 0.046524 -0.091
      vertex 39.5838 3.06194 -0.091
      vertex 43.5981 -0.212936 -0.091
    endloop
  endfacet
  facet normal 0 0 1
    outer loop
      vertex 39.5838 3.06194 -0.091
      vertex 43.7058 -0.699997 -0.091
      vertex 43.5981 -0.212936 -0.091
    endloop
  endfacet
  facet normal -0 0 1
    outer loop
      vertex 14.3935 3.06194 -0.091
      vertex 43.7058 -0.699997 -0.091
      vertex 39.5838 3.06194 -0.091
    endloop
  endfacet
  facet normal 0 0 1
    outer loop
      vertex 5.99527 -0.699997 -0.091
      vertex 43.7058 -0.699997 -0.091
      vertex 14.3935 3.06194 -0.091
    endloop
  endfacet
  facet normal 0 0 1
    outer loop
      vertex 8.70755 33.1067 -0.091
      vertex 9.18018 33.2697 -0.091
      vertex 8.94099 33.1963 -0.091
    endloop
  endfacet
  facet normal 0 0 1
    outer loop
      vertex 44.7971 24.1956 -0.091
      vertex 45.0363 24.269 -0.091
      vertex 45.2697 24.3586 -0.091
    endloop
  endfacet
  facet normal 0 -0 1
    outer loop
      vertex 45.2697 24.3586 -0.091
      vertex 45.4974 24.4646 -0.091
      vertex 44.7971 24.1956 -0.091
    endloop
  endfacet
  facet normal 0 0 1
    outer loop
      vertex 45.4974 24.4646 -0.091
      vertex 44.5522 24.1385 -0.091
      vertex 44.7971 24.1956 -0.091
    endloop
  endfacet
  facet normal 0 0 1
    outer loop
      vertex 45.7194 24.5868 -0.091
      vertex 44.5522 24.1385 -0.091
      vertex 45.4974 24.4646 -0.091
    endloop
  endfacet
  facet normal 0 0 1
    outer loop
      vertex 44.3016 24.0978 -0.091
      vertex 44.5522 24.1385 -0.091
      vertex 45.7194 24.5868 -0.091
    endloop
  endfacet
  facet normal 0 0 1
    outer loop
      vertex 44.3016 24.0978 -0.091
      vertex 45.7194 24.5868 -0.091
      vertex 45.9357 24.7254 -0.091
    endloop
  endfacet
  facet normal 0 -0 1
    outer loop
      vertex 44.3016 24.0978 -0.091
      vertex 45.9357 24.7254 -0.091
      vertex 44.0452 24.0733 -0.091
    endloop
  endfacet
  facet normal 0 -0 1
    outer loop
      vertex 45.9357 24.7254 -0.091
      vertex 46.1462 24.8802 -0.091
      vertex 44.0452 24.0733 -0.091
    endloop
  endfacet
  facet normal 0 0 1
    outer loop
      vertex 46.1462 24.8802 -0.091
      vertex 43.7832 24.0652 -0.091
      vertex 44.0452 24.0733 -0.091
    endloop
  endfacet
  facet normal 0 0 1
    outer loop
      vertex 46.3511 25.0514 -0.091
      vertex 43.7832 24.0652 -0.091
      vertex 46.1462 24.8802 -0.091
    endloop
  endfacet
  facet normal 0 0 1
    outer loop
      vertex 46.5502 25.2388 -0.091
      vertex 43.7832 24.0652 -0.091
      vertex 46.3511 25.0514 -0.091
    endloop
  endfacet
  facet normal 0 0 1
    outer loop
      vertex 46.7436 25.4426 -0.091
      vertex 43.7832 24.0652 -0.091
      vertex 46.5502 25.2388 -0.091
    endloop
  endfacet
  facet normal 0 0 1
    outer loop
      vertex 46.9268 25.6575 -0.091
      vertex 43.7832 24.0652 -0.091
      vertex 46.7436 25.4426 -0.091
    endloop
  endfacet
  facet normal 0 0 1
    outer loop
      vertex 47.0953 25.8789 -0.091
      vertex 43.7832 24.0652 -0.091
      vertex 46.9268 25.6575 -0.091
    endloop
  endfacet
  facet normal 0 0 1
    outer loop
      vertex 47.2492 26.1066 -0.091
      vertex 43.7832 24.0652 -0.091
      vertex 47.0953 25.8789 -0.091
    endloop
  endfacet
  facet normal 0 0 1
    outer loop
      vertex 47.3884 26.3406 -0.091
      vertex 43.7832 24.0652 -0.091
      vertex 47.2492 26.1066 -0.091
    endloop
  endfacet
  facet normal 0 0 1
    outer loop
      vertex 47.513 26.5809 -0.091
      vertex 43.7832 24.0652 -0.091
      vertex 47.3884 26.3406 -0.091
    endloop
  endfacet
  facet normal 0 0 1
    outer loop
      vertex 47.6229 26.8277 -0.091
      vertex 43.7832 24.0652 -0.091
      vertex 47.513 26.5809 -0.091
    endloop
  endfacet
  facet normal 0 0 1
    outer loop
      vertex 47.7182 27.0808 -0.091
      vertex 43.7832 24.0652 -0.091
      vertex 47.6229 26.8277 -0.091
    endloop
  endfacet
  facet normal 0 0 1
    outer loop
      vertex 47.7988 27.3402 -0.091
      vertex 43.7832 24.0652 -0.091
      vertex 47.7182 27.0808 -0.091
    endloop
  endfacet
  facet normal 0 0 1
    outer loop
      vertex 47.8647 27.606 -0.091
      vertex 43.7832 24.0652 -0.091
      vertex 47.7988 27.3402 -0.091
    endloop
  endfacet
  facet normal 0 0 1
    outer loop
      vertex 47.916 27.8781 -0.091
      vertex 43.7832 24.0652 -0.091
      vertex 47.8647 27.606 -0.091
    endloop
  endfacet
  facet normal 0 0 1
    outer loop
      vertex 47.9527 28.1566 -0.091
      vertex 43.7832 24.0652 -0.091
      vertex 47.916 27.8781 -0.091
    endloop
  endfacet
  facet normal 0 0 1
    outer loop
      vertex 47.9746 28.4414 -0.091
      vertex 43.7832 24.0652 -0.091
      vertex 47.9527 28.1566 -0.091
    endloop
  endfacet
  facet normal 0 0 1
    outer loop
      vertex 47.982 28.7326 -0.091
      vertex 43.7832 24.0652 -0.091
      vertex 47.9746 28.4414 -0.091
    endloop
  endfacet
  facet normal 0 0 1
    outer loop
      vertex 47.9746 29.0238 -0.091
      vertex 47.9526 29.3086 -0.091
      vertex 43.7832 33.4 -0.091
    endloop
  endfacet
  facet normal 0 0 1
    outer loop
      vertex 43.7832 33.4 -0.091
      vertex 47.718 30.3846 -0.091
      vertex 47.6227 30.6377 -0.091
    endloop
  endfacet
  facet normal 0 0 1
    outer loop
      vertex 46.5496 32.2269 -0.091
      vertex 46.3505 32.4143 -0.091
      vertex 43.7832 33.4 -0.091
    endloop
  endfacet
  facet normal 0 0 1
    outer loop
      vertex 47.0948 31.5868 -0.091
      vertex 46.9262 31.8082 -0.091
      vertex 43.7832 33.4 -0.091
    endloop
  endfacet
  facet normal 0 0 1
    outer loop
      vertex 43.7832 33.4 -0.091
      vertex 47.3881 31.1249 -0.091
      vertex 47.2488 31.359 -0.091
    endloop
  endfacet
  facet normal 0 0 1
    outer loop
      vertex 47.0948 31.5868 -0.091
      vertex 43.7832 33.4 -0.091
      vertex 47.2488 31.359 -0.091
    endloop
  endfacet
  facet normal 0 0 1
    outer loop
      vertex 46.743 32.0233 -0.091
      vertex 43.7832 33.4 -0.091
      vertex 46.9262 31.8082 -0.091
    endloop
  endfacet
  facet normal 0 0 1
    outer loop
      vertex 46.5496 32.2269 -0.091
      vertex 43.7832 33.4 -0.091
      vertex 46.743 32.0233 -0.091
    endloop
  endfacet
  facet normal 0 0 1
    outer loop
      vertex 46.3505 32.4143 -0.091
      vertex 46.1457 32.5854 -0.091
      vertex 43.7832 33.4 -0.091
    endloop
  endfacet
  facet normal 0 0 1
    outer loop
      vertex 46.1457 32.5854 -0.091
      vertex 45.9351 32.7402 -0.091
      vertex 44.0452 33.3918 -0.091
    endloop
  endfacet
  facet normal 0 0 1
    outer loop
      vertex 45.9351 32.7402 -0.091
      vertex 44.3014 33.3674 -0.091
      vertex 44.0452 33.3918 -0.091
    endloop
  endfacet
  facet normal 0 0 1
    outer loop
      vertex 45.7189 32.8786 -0.091
      vertex 44.3014 33.3674 -0.091
      vertex 45.9351 32.7402 -0.091
    endloop
  endfacet
  facet normal 0 0 1
    outer loop
      vertex 44.5519 33.3267 -0.091
      vertex 44.3014 33.3674 -0.091
      vertex 45.7189 32.8786 -0.091
    endloop
  endfacet
  facet normal 0 0 1
    outer loop
      vertex 44.7968 33.2697 -0.091
      vertex 44.5519 33.3267 -0.091
      vertex 45.4969 33.0008 -0.091
    endloop
  endfacet
  facet normal 0 0 1
    outer loop
      vertex 45.0359 33.1963 -0.091
      vertex 44.7968 33.2697 -0.091
      vertex 45.2693 33.1067 -0.091
    endloop
  endfacet
  facet normal 0 0 1
    outer loop
      vertex 44.7968 33.2697 -0.091
      vertex 45.4969 33.0008 -0.091
      vertex 45.2693 33.1067 -0.091
    endloop
  endfacet
  facet normal 0 0 1
    outer loop
      vertex 44.5519 33.3267 -0.091
      vertex 45.7189 32.8786 -0.091
      vertex 45.4969 33.0008 -0.091
    endloop
  endfacet
  facet normal 0 0 1
    outer loop
      vertex 46.1457 32.5854 -0.091
      vertex 44.0452 33.3918 -0.091
      vertex 43.7832 33.4 -0.091
    endloop
  endfacet
  facet normal 0 0 1
    outer loop
      vertex 47.3881 31.1249 -0.091
      vertex 43.7832 33.4 -0.091
      vertex 47.5127 30.8845 -0.091
    endloop
  endfacet
  facet normal 0 0 1
    outer loop
      vertex 43.7832 33.4 -0.091
      vertex 47.6227 30.6377 -0.091
      vertex 47.5127 30.8845 -0.091
    endloop
  endfacet
  facet normal 0 0 1
    outer loop
      vertex 47.7987 30.1251 -0.091
      vertex 47.718 30.3846 -0.091
      vertex 43.7832 33.4 -0.091
    endloop
  endfacet
  facet normal 0 0 1
    outer loop
      vertex 47.7987 30.1251 -0.091
      vertex 43.7832 33.4 -0.091
      vertex 47.8647 29.8593 -0.091
    endloop
  endfacet
  facet normal 0 0 1
    outer loop
      vertex 43.7832 33.4 -0.091
      vertex 47.916 29.5871 -0.091
      vertex 47.8647 29.8593 -0.091
    endloop
  endfacet
  facet normal 0 0 1
    outer loop
      vertex 47.9526 29.3086 -0.091
      vertex 47.916 29.5871 -0.091
      vertex 43.7832 33.4 -0.091
    endloop
  endfacet
  facet normal 0 0 1
    outer loop
      vertex 47.9746 29.0238 -0.091
      vertex 43.7832 33.4 -0.091
      vertex 47.982 28.7326 -0.091
    endloop
  endfacet
  facet normal 0 0 1
    outer loop
      vertex 43.7832 33.4 -0.091
      vertex 43.7832 24.0652 -0.091
      vertex 47.982 28.7326 -0.091
    endloop
  endfacet
  facet normal 0 0 1
    outer loop
      vertex 14.3935 24.0652 -0.091
      vertex 43.7832 24.0652 -0.091
      vertex 43.7832 33.4 -0.091
    endloop
  endfacet
  facet normal 0 -0 1
    outer loop
      vertex 14.3935 24.0652 -0.091
      vertex 43.7832 33.4 -0.091
      vertex 10.1941 33.4 -0.091
    endloop
  endfacet
  facet normal 0 0 1
    outer loop
      vertex 9.18018 33.2697 -0.091
      vertex 8.70755 33.1067 -0.091
      vertex 8.47983 33.0008 -0.091
    endloop
  endfacet
  facet normal -0 0 1
    outer loop
      vertex 9.18018 33.2697 -0.091
      vertex 8.47983 33.0008 -0.091
      vertex 9.42506 33.3267 -0.091
    endloop
  endfacet
  facet normal -0 0 1
    outer loop
      vertex 8.47983 33.0008 -0.091
      vertex 8.25784 32.8786 -0.091
      vertex 9.42506 33.3267 -0.091
    endloop
  endfacet
  facet normal 0 0 1
    outer loop
      vertex 8.25784 32.8786 -0.091
      vertex 9.67567 33.3674 -0.091
      vertex 9.42506 33.3267 -0.091
    endloop
  endfacet
  facet normal 0 0 1
    outer loop
      vertex 8.04156 32.7402 -0.091
      vertex 9.67567 33.3674 -0.091
      vertex 8.25784 32.8786 -0.091
    endloop
  endfacet
  facet normal 0 0 1
    outer loop
      vertex 9.93202 33.3918 -0.091
      vertex 9.67567 33.3674 -0.091
      vertex 8.04156 32.7402 -0.091
    endloop
  endfacet
  facet normal 0 0 1
    outer loop
      vertex 9.93202 33.3918 -0.091
      vertex 8.04156 32.7402 -0.091
      vertex 7.83101 32.5854 -0.091
    endloop
  endfacet
  facet normal -0 0 1
    outer loop
      vertex 9.93202 33.3918 -0.091
      vertex 7.83101 32.5854 -0.091
      vertex 10.1941 33.4 -0.091
    endloop
  endfacet
  facet normal -0 0 1
    outer loop
      vertex 7.83101 32.5854 -0.091
      vertex 7.62616 32.4143 -0.091
      vertex 10.1941 33.4 -0.091
    endloop
  endfacet
  facet normal -0 0 1
    outer loop
      vertex 7.62616 32.4143 -0.091
      vertex 7.42706 32.2269 -0.091
      vertex 10.1941 33.4 -0.091
    endloop
  endfacet
  facet normal -0 0 1
    outer loop
      vertex 7.42706 32.2269 -0.091
      vertex 7.23367 32.0233 -0.091
      vertex 10.1941 33.4 -0.091
    endloop
  endfacet
  facet normal -0 0 1
    outer loop
      vertex 7.23367 32.0233 -0.091
      vertex 7.05048 31.8082 -0.091
      vertex 10.1941 33.4 -0.091
    endloop
  endfacet
  facet normal -0 0 1
    outer loop
      vertex 7.05048 31.8082 -0.091
      vertex 6.88194 31.5868 -0.091
      vertex 10.1941 33.4 -0.091
    endloop
  endfacet
  facet normal -0 0 1
    outer loop
      vertex 6.88194 31.5868 -0.091
      vertex 6.72806 31.359 -0.091
      vertex 10.1941 33.4 -0.091
    endloop
  endfacet
  facet normal -0 0 1
    outer loop
      vertex 6.72806 31.359 -0.091
      vertex 6.58884 31.1249 -0.091
      vertex 10.1941 33.4 -0.091
    endloop
  endfacet
  facet normal -0 0 1
    outer loop
      vertex 6.58884 31.1249 -0.091
      vertex 6.46425 30.8845 -0.091
      vertex 10.1941 33.4 -0.091
    endloop
  endfacet
  facet normal -0 0 1
    outer loop
      vertex 6.46425 30.8845 -0.091
      vertex 6.35435 30.6377 -0.091
      vertex 10.1941 33.4 -0.091
    endloop
  endfacet
  facet normal -0 0 1
    outer loop
      vertex 6.35435 30.6377 -0.091
      vertex 6.25908 30.3846 -0.091
      vertex 10.1941 33.4 -0.091
    endloop
  endfacet
  facet normal -0 0 1
    outer loop
      vertex 6.25908 30.3846 -0.091
      vertex 6.17847 30.1251 -0.091
      vertex 10.1941 33.4 -0.091
    endloop
  endfacet
  facet normal -0 0 1
    outer loop
      vertex 6.17847 30.1251 -0.091
      vertex 6.11252 29.8593 -0.091
      vertex 10.1941 33.4 -0.091
    endloop
  endfacet
  facet normal -0 0 1
    outer loop
      vertex 6.11252 29.8593 -0.091
      vertex 6.06123 29.5871 -0.091
      vertex 10.1941 33.4 -0.091
    endloop
  endfacet
  facet normal -0 0 1
    outer loop
      vertex 6.06123 29.5871 -0.091
      vertex 6.0246 29.3086 -0.091
      vertex 10.1941 33.4 -0.091
    endloop
  endfacet
  facet normal -0 0 1
    outer loop
      vertex 6.0246 29.3086 -0.091
      vertex 6.00261 29.0238 -0.091
      vertex 10.1941 33.4 -0.091
    endloop
  endfacet
  facet normal -0 0 1
    outer loop
      vertex 6.00261 29.0238 -0.091
      vertex 5.99527 28.7326 -0.091
      vertex 10.1941 33.4 -0.091
    endloop
  endfacet
  facet normal -0 0 1
    outer loop
      vertex 5.99527 28.7326 -0.091
      vertex 14.3935 24.0652 -0.091
      vertex 10.1941 33.4 -0.091
    endloop
  endfacet
  facet normal 0 0 1
    outer loop
      vertex 5.99527 -0.699997 -0.091
      vertex 14.3935 24.0652 -0.091
      vertex 5.99527 28.7326 -0.091
    endloop
  endfacet
  facet normal 0 -0 1
    outer loop
      vertex 14.3935 3.06194 -0.091
      vertex 14.3935 24.0652 -0.091
      vertex 5.99527 -0.699997 -0.091
    endloop
  endfacet
  facet normal 0.97053 0.240981 0
    outer loop
      vertex 43.5981 -0.212936 -0.391
      vertex 43.6641 -0.478745 -0.091
      vertex 43.6641 -0.478745 -0.391
    endloop
  endfacet
  facet normal 0.97053 0.240981 -0
    outer loop
      vertex 43.5981 -0.212936 -0.391
      vertex 43.5981 -0.212936 -0.091
      vertex 43.6641 -0.478745 -0.091
    endloop
  endfacet
  facet normal 0.954983 0.296661 0
    outer loop
      vertex 43.5175 0.046524 -0.391
      vertex 43.5981 -0.212936 -0.091
      vertex 43.5981 -0.212936 -0.391
    endloop
  endfacet
  facet normal 0.954983 0.296661 -0
    outer loop
      vertex 43.5175 0.046524 -0.391
      vertex 43.5175 0.046524 -0.091
      vertex 43.5981 -0.212936 -0.091
    endloop
  endfacet
  facet normal 0.93587 0.352345 0
    outer loop
      vertex 43.4222 0.299652 -0.391
      vertex 43.5175 0.046524 -0.091
      vertex 43.5175 0.046524 -0.391
    endloop
  endfacet
  facet normal 0.93587 0.352345 -0
    outer loop
      vertex 43.4222 0.299652 -0.391
      vertex 43.4222 0.299652 -0.091
      vertex 43.5175 0.046524 -0.091
    endloop
  endfacet
  facet normal 0.913519 0.406796 0
    outer loop
      vertex 43.3123 0.546448 -0.391
      vertex 43.4222 0.299652 -0.091
      vertex 43.4222 0.299652 -0.391
    endloop
  endfacet
  facet normal 0.913519 0.406796 -0
    outer loop
      vertex 43.3123 0.546448 -0.391
      vertex 43.3123 0.546448 -0.091
      vertex 43.4222 0.299652 -0.091
    endloop
  endfacet
  facet normal 0.888021 0.459803 0
    outer loop
      vertex 43.1878 0.786896 -0.391
      vertex 43.3123 0.546448 -0.091
      vertex 43.3123 0.546448 -0.391
    endloop
  endfacet
  facet normal 0.888021 0.459803 -0
    outer loop
      vertex 43.1878 0.786896 -0.391
      vertex 43.1878 0.786896 -0.091
      vertex 43.3123 0.546448 -0.091
    endloop
  endfacet
  facet normal 0.85937 0.511355 0
    outer loop
      vertex 43.0485 1.021 -0.391
      vertex 43.1878 0.786896 -0.091
      vertex 43.1878 0.786896 -0.391
    endloop
  endfacet
  facet normal 0.85937 0.511355 -0
    outer loop
      vertex 43.0485 1.021 -0.391
      vertex 43.0485 1.021 -0.091
      vertex 43.1878 0.786896 -0.091
    endloop
  endfacet
  facet normal 0.828575 0.559878 0
    outer loop
      vertex 42.8946 1.24876 -0.391
      vertex 43.0485 1.021 -0.091
      vertex 43.0485 1.021 -0.391
    endloop
  endfacet
  facet normal 0.828575 0.559878 -0
    outer loop
      vertex 42.8946 1.24876 -0.391
      vertex 42.8946 1.24876 -0.091
      vertex 43.0485 1.021 -0.091
    endloop
  endfacet
  facet normal 0.795767 0.605603 0
    outer loop
      vertex 42.7261 1.47017 -0.391
      vertex 42.8946 1.24876 -0.091
      vertex 42.8946 1.24876 -0.391
    endloop
  endfacet
  facet normal 0.795767 0.605603 -0
    outer loop
      vertex 42.7261 1.47017 -0.391
      vertex 42.7261 1.47017 -0.091
      vertex 42.8946 1.24876 -0.091
    endloop
  endfacet
  facet normal 0.761287 0.648416 0
    outer loop
      vertex 42.5429 1.68526 -0.391
      vertex 42.7261 1.47017 -0.091
      vertex 42.7261 1.47017 -0.391
    endloop
  endfacet
  facet normal 0.761287 0.648416 -0
    outer loop
      vertex 42.5429 1.68526 -0.391
      vertex 42.5429 1.68526 -0.091
      vertex 42.7261 1.47017 -0.091
    endloop
  endfacet
  facet normal 0.725103 0.688641 0
    outer loop
      vertex 42.3495 1.8889 -0.391
      vertex 42.5429 1.68526 -0.091
      vertex 42.5429 1.68526 -0.391
    endloop
  endfacet
  facet normal 0.725103 0.688641 -0
    outer loop
      vertex 42.3495 1.8889 -0.391
      vertex 42.3495 1.8889 -0.091
      vertex 42.5429 1.68526 -0.091
    endloop
  endfacet
  facet normal 0.685493 0.72808 0
    outer loop
      vertex 42.1505 2.07626 -0.391
      vertex 42.3495 1.8889 -0.091
      vertex 42.3495 1.8889 -0.391
    endloop
  endfacet
  facet normal 0.685493 0.72808 -0
    outer loop
      vertex 42.1505 2.07626 -0.391
      vertex 42.1505 2.07626 -0.091
      vertex 42.3495 1.8889 -0.091
    endloop
  endfacet
  facet normal 0.641076 0.767477 0
    outer loop
      vertex 41.9457 2.24733 -0.391
      vertex 42.1505 2.07626 -0.091
      vertex 42.1505 2.07626 -0.391
    endloop
  endfacet
  facet normal 0.641076 0.767477 -0
    outer loop
      vertex 41.9457 2.24733 -0.391
      vertex 41.9457 2.24733 -0.091
      vertex 42.1505 2.07626 -0.091
    endloop
  endfacet
  facet normal 0.592367 0.805668 0
    outer loop
      vertex 41.7352 2.4021 -0.391
      vertex 41.9457 2.24733 -0.091
      vertex 41.9457 2.24733 -0.391
    endloop
  endfacet
  facet normal 0.592367 0.805668 -0
    outer loop
      vertex 41.7352 2.4021 -0.391
      vertex 41.7352 2.4021 -0.091
      vertex 41.9457 2.24733 -0.091
    endloop
  endfacet
  facet normal 0.539391 0.842056 0
    outer loop
      vertex 41.519 2.54059 -0.391
      vertex 41.7352 2.4021 -0.091
      vertex 41.7352 2.4021 -0.391
    endloop
  endfacet
  facet normal 0.539391 0.842056 -0
    outer loop
      vertex 41.519 2.54059 -0.391
      vertex 41.519 2.54059 -0.091
      vertex 41.7352 2.4021 -0.091
    endloop
  endfacet
  facet normal 0.482191 0.876066 0
    outer loop
      vertex 41.297 2.66278 -0.391
      vertex 41.519 2.54059 -0.091
      vertex 41.519 2.54059 -0.391
    endloop
  endfacet
  facet normal 0.482191 0.876066 -0
    outer loop
      vertex 41.297 2.66278 -0.391
      vertex 41.297 2.66278 -0.091
      vertex 41.519 2.54059 -0.091
    endloop
  endfacet
  facet normal 0.42186 0.906661 0
    outer loop
      vertex 41.0694 2.76868 -0.391
      vertex 41.297 2.66278 -0.091
      vertex 41.297 2.66278 -0.391
    endloop
  endfacet
  facet normal 0.42186 0.906661 -0
    outer loop
      vertex 41.0694 2.76868 -0.391
      vertex 41.0694 2.76868 -0.091
      vertex 41.297 2.66278 -0.091
    endloop
  endfacet
  facet normal 0.358558 0.933507 0
    outer loop
      vertex 40.8361 2.85829 -0.391
      vertex 41.0694 2.76868 -0.091
      vertex 41.0694 2.76868 -0.391
    endloop
  endfacet
  facet normal 0.358558 0.933507 -0
    outer loop
      vertex 40.8361 2.85829 -0.391
      vertex 40.8361 2.85829 -0.091
      vertex 41.0694 2.76868 -0.091
    endloop
  endfacet
  facet normal 0.293102 0.956081 0
    outer loop
      vertex 40.597 2.93159 -0.391
      vertex 40.8361 2.85829 -0.091
      vertex 40.8361 2.85829 -0.391
    endloop
  endfacet
  facet normal 0.293102 0.956081 -0
    outer loop
      vertex 40.597 2.93159 -0.391
      vertex 40.597 2.93159 -0.091
      vertex 40.8361 2.85829 -0.091
    endloop
  endfacet
  facet normal 0.226978 0.9739 0
    outer loop
      vertex 40.3523 2.98862 -0.391
      vertex 40.597 2.93159 -0.091
      vertex 40.597 2.93159 -0.391
    endloop
  endfacet
  facet normal 0.226978 0.9739 -0
    outer loop
      vertex 40.3523 2.98862 -0.391
      vertex 40.3523 2.98862 -0.091
      vertex 40.597 2.93159 -0.091
    endloop
  endfacet
  facet normal 0.160526 0.987032 0
    outer loop
      vertex 40.1018 3.02936 -0.391
      vertex 40.3523 2.98862 -0.091
      vertex 40.3523 2.98862 -0.391
    endloop
  endfacet
  facet normal 0.160526 0.987032 -0
    outer loop
      vertex 40.1018 3.02936 -0.391
      vertex 40.1018 3.02936 -0.091
      vertex 40.3523 2.98862 -0.091
    endloop
  endfacet
  facet normal 0.0949246 0.995484 0
    outer loop
      vertex 39.8456 3.05379 -0.391
      vertex 40.1018 3.02936 -0.091
      vertex 40.1018 3.02936 -0.391
    endloop
  endfacet
  facet normal 0.0949246 0.995484 -0
    outer loop
      vertex 39.8456 3.05379 -0.391
      vertex 39.8456 3.05379 -0.091
      vertex 40.1018 3.02936 -0.091
    endloop
  endfacet
  facet normal 0.0311156 0.999516 0
    outer loop
      vertex 39.5838 3.06194 -0.391
      vertex 39.8456 3.05379 -0.091
      vertex 39.8456 3.05379 -0.391
    endloop
  endfacet
  facet normal 0.0311156 0.999516 -0
    outer loop
      vertex 39.5838 3.06194 -0.391
      vertex 39.5838 3.06194 -0.091
      vertex 39.8456 3.05379 -0.091
    endloop
  endfacet
  facet normal 0 1 0
    outer loop
      vertex 14.3935 3.06194 -0.391
      vertex 39.5838 3.06194 -0.091
      vertex 39.5838 3.06194 -0.391
    endloop
  endfacet
  facet normal 0 1 0
    outer loop
      vertex 14.3935 3.06194 -0.391
      vertex 14.3935 3.06194 -0.091
      vertex 39.5838 3.06194 -0.091
    endloop
  endfacet
  facet normal 1 0 0
    outer loop
      vertex 14.3935 24.0652 -0.391
      vertex 14.3935 3.06194 -0.091
      vertex 14.3935 3.06194 -0.391
    endloop
  endfacet
  facet normal 1 0 -0
    outer loop
      vertex 14.3935 24.0652 -0.391
      vertex 14.3935 24.0652 -0.091
      vertex 14.3935 3.06194 -0.091
    endloop
  endfacet
  facet normal 0 -1 0
    outer loop
      vertex 43.7832 24.0652 -0.391
      vertex 14.3935 24.0652 -0.091
      vertex 14.3935 24.0652 -0.391
    endloop
  endfacet
  facet normal 0 -1 0
    outer loop
      vertex 43.7832 24.0652 -0.391
      vertex 43.7832 24.0652 -0.091
      vertex 14.3935 24.0652 -0.091
    endloop
  endfacet
  facet normal 0.0309013 -0.999522 0
    outer loop
      vertex 44.0452 24.0733 -0.391
      vertex 43.7832 24.0652 -0.091
      vertex 43.7832 24.0652 -0.391
    endloop
  endfacet
  facet normal 0.0309013 -0.999522 0
    outer loop
      vertex 44.0452 24.0733 -0.391
      vertex 44.0452 24.0733 -0.091
      vertex 43.7832 24.0652 -0.091
    endloop
  endfacet
  facet normal 0.0951206 -0.995466 0
    outer loop
      vertex 44.3016 24.0978 -0.391
      vertex 44.0452 24.0733 -0.091
      vertex 44.0452 24.0733 -0.391
    endloop
  endfacet
  facet normal 0.0951206 -0.995466 0
    outer loop
      vertex 44.3016 24.0978 -0.391
      vertex 44.3016 24.0978 -0.091
      vertex 44.0452 24.0733 -0.091
    endloop
  endfacet
  facet normal 0.16031 -0.987067 0
    outer loop
      vertex 44.5522 24.1385 -0.391
      vertex 44.3016 24.0978 -0.091
      vertex 44.3016 24.0978 -0.391
    endloop
  endfacet
  facet normal 0.16031 -0.987067 0
    outer loop
      vertex 44.5522 24.1385 -0.391
      vertex 44.5522 24.1385 -0.091
      vertex 44.3016 24.0978 -0.091
    endloop
  endfacet
  facet normal 0.227066 -0.973879 0
    outer loop
      vertex 44.7971 24.1956 -0.391
      vertex 44.5522 24.1385 -0.091
      vertex 44.5522 24.1385 -0.391
    endloop
  endfacet
  facet normal 0.227066 -0.973879 0
    outer loop
      vertex 44.7971 24.1956 -0.391
      vertex 44.7971 24.1956 -0.091
      vertex 44.5522 24.1385 -0.091
    endloop
  endfacet
  facet normal 0.293356 -0.956003 0
    outer loop
      vertex 45.0363 24.269 -0.391
      vertex 44.7971 24.1956 -0.091
      vertex 44.7971 24.1956 -0.391
    endloop
  endfacet
  facet normal 0.293356 -0.956003 0
    outer loop
      vertex 45.0363 24.269 -0.391
      vertex 45.0363 24.269 -0.091
      vertex 44.7971 24.1956 -0.091
    endloop
  endfacet
  facet normal 0.358389 -0.933572 0
    outer loop
      vertex 45.2697 24.3586 -0.391
      vertex 45.0363 24.269 -0.091
      vertex 45.0363 24.269 -0.391
    endloop
  endfacet
  facet normal 0.358389 -0.933572 0
    outer loop
      vertex 45.2697 24.3586 -0.391
      vertex 45.2697 24.3586 -0.091
      vertex 45.0363 24.269 -0.091
    endloop
  endfacet
  facet normal 0.422035 -0.906579 0
    outer loop
      vertex 45.4974 24.4646 -0.391
      vertex 45.2697 24.3586 -0.091
      vertex 45.2697 24.3586 -0.391
    endloop
  endfacet
  facet normal 0.422035 -0.906579 0
    outer loop
      vertex 45.4974 24.4646 -0.391
      vertex 45.4974 24.4646 -0.091
      vertex 45.2697 24.3586 -0.091
    endloop
  endfacet
  facet normal 0.482222 -0.876049 0
    outer loop
      vertex 45.7194 24.5868 -0.391
      vertex 45.4974 24.4646 -0.091
      vertex 45.4974 24.4646 -0.391
    endloop
  endfacet
  facet normal 0.482222 -0.876049 0
    outer loop
      vertex 45.7194 24.5868 -0.391
      vertex 45.7194 24.5868 -0.091
      vertex 45.4974 24.4646 -0.091
    endloop
  endfacet
  facet normal 0.539518 -0.841974 0
    outer loop
      vertex 45.9357 24.7254 -0.391
      vertex 45.7194 24.5868 -0.091
      vertex 45.7194 24.5868 -0.391
    endloop
  endfacet
  facet normal 0.539518 -0.841974 0
    outer loop
      vertex 45.9357 24.7254 -0.391
      vertex 45.9357 24.7254 -0.091
      vertex 45.7194 24.5868 -0.091
    endloop
  endfacet
  facet normal 0.592442 -0.805613 0
    outer loop
      vertex 46.1462 24.8802 -0.391
      vertex 45.9357 24.7254 -0.091
      vertex 45.9357 24.7254 -0.391
    endloop
  endfacet
  facet normal 0.592442 -0.805613 0
    outer loop
      vertex 46.1462 24.8802 -0.391
      vertex 46.1462 24.8802 -0.091
      vertex 45.9357 24.7254 -0.091
    endloop
  endfacet
  facet normal 0.641178 -0.767392 0
    outer loop
      vertex 46.3511 25.0514 -0.391
      vertex 46.1462 24.8802 -0.091
      vertex 46.1462 24.8802 -0.391
    endloop
  endfacet
  facet normal 0.641178 -0.767392 0
    outer loop
      vertex 46.3511 25.0514 -0.391
      vertex 46.3511 25.0514 -0.091
      vertex 46.1462 24.8802 -0.091
    endloop
  endfacet
  facet normal 0.685388 -0.728179 0
    outer loop
      vertex 46.5502 25.2388 -0.391
      vertex 46.3511 25.0514 -0.091
      vertex 46.3511 25.0514 -0.391
    endloop
  endfacet
  facet normal 0.685388 -0.728179 0
    outer loop
      vertex 46.5502 25.2388 -0.391
      vertex 46.5502 25.2388 -0.091
      vertex 46.3511 25.0514 -0.091
    endloop
  endfacet
  facet normal 0.725373 -0.688356 0
    outer loop
      vertex 46.7436 25.4426 -0.391
      vertex 46.5502 25.2388 -0.091
      vertex 46.5502 25.2388 -0.391
    endloop
  endfacet
  facet normal 0.725373 -0.688356 0
    outer loop
      vertex 46.7436 25.4426 -0.391
      vertex 46.7436 25.4426 -0.091
      vertex 46.5502 25.2388 -0.091
    endloop
  endfacet
  facet normal 0.761004 -0.648748 0
    outer loop
      vertex 46.9268 25.6575 -0.391
      vertex 46.7436 25.4426 -0.091
      vertex 46.7436 25.4426 -0.391
    endloop
  endfacet
  facet normal 0.761004 -0.648748 0
    outer loop
      vertex 46.9268 25.6575 -0.391
      vertex 46.9268 25.6575 -0.091
      vertex 46.7436 25.4426 -0.091
    endloop
  endfacet
  facet normal 0.795753 -0.605621 0
    outer loop
      vertex 47.0953 25.8789 -0.391
      vertex 46.9268 25.6575 -0.091
      vertex 46.9268 25.6575 -0.391
    endloop
  endfacet
  facet normal 0.795753 -0.605621 0
    outer loop
      vertex 47.0953 25.8789 -0.391
      vertex 47.0953 25.8789 -0.091
      vertex 46.9268 25.6575 -0.091
    endloop
  endfacet
  facet normal 0.828507 -0.559979 0
    outer loop
      vertex 47.2492 26.1066 -0.391
      vertex 47.0953 25.8789 -0.091
      vertex 47.0953 25.8789 -0.391
    endloop
  endfacet
  facet normal 0.828507 -0.559979 0
    outer loop
      vertex 47.2492 26.1066 -0.391
      vertex 47.2492 26.1066 -0.091
      vertex 47.0953 25.8789 -0.091
    endloop
  endfacet
  facet normal 0.859431 -0.511251 0
    outer loop
      vertex 47.3884 26.3406 -0.391
      vertex 47.2492 26.1066 -0.091
      vertex 47.2492 26.1066 -0.391
    endloop
  endfacet
  facet normal 0.859431 -0.511251 0
    outer loop
      vertex 47.3884 26.3406 -0.391
      vertex 47.3884 26.3406 -0.091
      vertex 47.2492 26.1066 -0.091
    endloop
  endfacet
  facet normal 0.887755 -0.460317 0
    outer loop
      vertex 47.513 26.5809 -0.391
      vertex 47.3884 26.3406 -0.091
      vertex 47.3884 26.3406 -0.391
    endloop
  endfacet
  facet normal 0.887755 -0.460317 0
    outer loop
      vertex 47.513 26.5809 -0.391
      vertex 47.513 26.5809 -0.091
      vertex 47.3884 26.3406 -0.091
    endloop
  endfacet
  facet normal 0.913521 -0.406791 0
    outer loop
      vertex 47.6229 26.8277 -0.391
      vertex 47.513 26.5809 -0.091
      vertex 47.513 26.5809 -0.391
    endloop
  endfacet
  facet normal 0.913521 -0.406791 0
    outer loop
      vertex 47.6229 26.8277 -0.391
      vertex 47.6229 26.8277 -0.091
      vertex 47.513 26.5809 -0.091
    endloop
  endfacet
  facet normal 0.935857 -0.352379 0
    outer loop
      vertex 47.7182 27.0808 -0.391
      vertex 47.6229 26.8277 -0.091
      vertex 47.6229 26.8277 -0.391
    endloop
  endfacet
  facet normal 0.935857 -0.352379 0
    outer loop
      vertex 47.7182 27.0808 -0.391
      vertex 47.7182 27.0808 -0.091
      vertex 47.6229 26.8277 -0.091
    endloop
  endfacet
  facet normal 0.954963 -0.296723 0
    outer loop
      vertex 47.7988 27.3402 -0.391
      vertex 47.7182 27.0808 -0.091
      vertex 47.7182 27.0808 -0.391
    endloop
  endfacet
  facet normal 0.954963 -0.296723 0
    outer loop
      vertex 47.7988 27.3402 -0.391
      vertex 47.7988 27.3402 -0.091
      vertex 47.7182 27.0808 -0.091
    endloop
  endfacet
  facet normal 0.970613 -0.240645 0
    outer loop
      vertex 47.8647 27.606 -0.391
      vertex 47.7988 27.3402 -0.091
      vertex 47.7988 27.3402 -0.391
    endloop
  endfacet
  facet normal 0.970613 -0.240645 0
    outer loop
      vertex 47.8647 27.606 -0.391
      vertex 47.8647 27.606 -0.091
      vertex 47.7988 27.3402 -0.091
    endloop
  endfacet
  facet normal 0.982688 -0.18527 0
    outer loop
      vertex 47.916 27.8781 -0.391
      vertex 47.8647 27.606 -0.091
      vertex 47.8647 27.606 -0.391
    endloop
  endfacet
  facet normal 0.982688 -0.18527 0
    outer loop
      vertex 47.916 27.8781 -0.391
      vertex 47.916 27.8781 -0.091
      vertex 47.8647 27.606 -0.091
    endloop
  endfacet
  facet normal 0.991429 -0.130648 0
    outer loop
      vertex 47.9527 28.1566 -0.391
      vertex 47.916 27.8781 -0.091
      vertex 47.916 27.8781 -0.391
    endloop
  endfacet
  facet normal 0.991429 -0.130648 0
    outer loop
      vertex 47.9527 28.1566 -0.391
      vertex 47.9527 28.1566 -0.091
      vertex 47.916 27.8781 -0.091
    endloop
  endfacet
  facet normal 0.997057 -0.0766697 0
    outer loop
      vertex 47.9746 28.4414 -0.391
      vertex 47.9527 28.1566 -0.091
      vertex 47.9527 28.1566 -0.391
    endloop
  endfacet
  facet normal 0.997057 -0.0766697 0
    outer loop
      vertex 47.9746 28.4414 -0.391
      vertex 47.9746 28.4414 -0.091
      vertex 47.9527 28.1566 -0.091
    endloop
  endfacet
  facet normal 0.999677 -0.0254039 0
    outer loop
      vertex 47.982 28.7326 -0.391
      vertex 47.9746 28.4414 -0.091
      vertex 47.9746 28.4414 -0.391
    endloop
  endfacet
  facet normal 0.999677 -0.0254039 0
    outer loop
      vertex 47.982 28.7326 -0.391
      vertex 47.982 28.7326 -0.091
      vertex 47.9746 28.4414 -0.091
    endloop
  endfacet
  facet normal 0.999677 0.0254039 0
    outer loop
      vertex 47.9746 29.0238 -0.391
      vertex 47.982 28.7326 -0.091
      vertex 47.982 28.7326 -0.391
    endloop
  endfacet
  facet normal 0.999677 0.0254039 -0
    outer loop
      vertex 47.9746 29.0238 -0.391
      vertex 47.9746 29.0238 -0.091
      vertex 47.982 28.7326 -0.091
    endloop
  endfacet
  facet normal 0.99703 0.0770177 0
    outer loop
      vertex 47.9526 29.3086 -0.391
      vertex 47.9746 29.0238 -0.091
      vertex 47.9746 29.0238 -0.391
    endloop
  endfacet
  facet normal 0.99703 0.0770177 -0
    outer loop
      vertex 47.9526 29.3086 -0.391
      vertex 47.9526 29.3086 -0.091
      vertex 47.9746 29.0238 -0.091
    endloop
  endfacet
  facet normal 0.991475 0.130298 0
    outer loop
      vertex 47.916 29.5871 -0.391
      vertex 47.9526 29.3086 -0.091
      vertex 47.9526 29.3086 -0.391
    endloop
  endfacet
  facet normal 0.991475 0.130298 -0
    outer loop
      vertex 47.916 29.5871 -0.391
      vertex 47.916 29.5871 -0.091
      vertex 47.9526 29.3086 -0.091
    endloop
  endfacet
  facet normal 0.9827 0.185204 0
    outer loop
      vertex 47.8647 29.8593 -0.391
      vertex 47.916 29.5871 -0.091
      vertex 47.916 29.5871 -0.391
    endloop
  endfacet
  facet normal 0.9827 0.185204 -0
    outer loop
      vertex 47.8647 29.8593 -0.391
      vertex 47.8647 29.8593 -0.091
      vertex 47.916 29.5871 -0.091
    endloop
  endfacet
  facet normal 0.970528 0.240989 0
    outer loop
      vertex 47.7987 30.1251 -0.391
      vertex 47.8647 29.8593 -0.091
      vertex 47.8647 29.8593 -0.391
    endloop
  endfacet
  facet normal 0.970528 0.240989 -0
    outer loop
      vertex 47.7987 30.1251 -0.391
      vertex 47.7987 30.1251 -0.091
      vertex 47.8647 29.8593 -0.091
    endloop
  endfacet
  facet normal 0.954892 0.296955 0
    outer loop
      vertex 47.718 30.3846 -0.391
      vertex 47.7987 30.1251 -0.091
      vertex 47.7987 30.1251 -0.391
    endloop
  endfacet
  facet normal 0.954892 0.296955 -0
    outer loop
      vertex 47.718 30.3846 -0.391
      vertex 47.718 30.3846 -0.091
      vertex 47.7987 30.1251 -0.091
    endloop
  endfacet
  facet normal 0.935857 0.352379 0
    outer loop
      vertex 47.6227 30.6377 -0.391
      vertex 47.718 30.3846 -0.091
      vertex 47.718 30.3846 -0.391
    endloop
  endfacet
  facet normal 0.935857 0.352379 -0
    outer loop
      vertex 47.6227 30.6377 -0.391
      vertex 47.6227 30.6377 -0.091
      vertex 47.718 30.3846 -0.091
    endloop
  endfacet
  facet normal 0.913384 0.4071 0
    outer loop
      vertex 47.5127 30.8845 -0.391
      vertex 47.6227 30.6377 -0.091
      vertex 47.6227 30.6377 -0.391
    endloop
  endfacet
  facet normal 0.913384 0.4071 -0
    outer loop
      vertex 47.5127 30.8845 -0.391
      vertex 47.5127 30.8845 -0.091
      vertex 47.6227 30.6377 -0.091
    endloop
  endfacet
  facet normal 0.887833 0.460166 0
    outer loop
      vertex 47.3881 31.1249 -0.391
      vertex 47.5127 30.8845 -0.091
      vertex 47.5127 30.8845 -0.391
    endloop
  endfacet
  facet normal 0.887833 0.460166 -0
    outer loop
      vertex 47.3881 31.1249 -0.391
      vertex 47.3881 31.1249 -0.091
      vertex 47.5127 30.8845 -0.091
    endloop
  endfacet
  facet normal 0.859366 0.511361 0
    outer loop
      vertex 47.2488 31.359 -0.391
      vertex 47.3881 31.1249 -0.091
      vertex 47.3881 31.1249 -0.391
    endloop
  endfacet
  facet normal 0.859366 0.511361 -0
    outer loop
      vertex 47.2488 31.359 -0.391
      vertex 47.2488 31.359 -0.091
      vertex 47.3881 31.1249 -0.091
    endloop
  endfacet
  facet normal 0.828452 0.56006 0
    outer loop
      vertex 47.0948 31.5868 -0.391
      vertex 47.2488 31.359 -0.091
      vertex 47.2488 31.359 -0.391
    endloop
  endfacet
  facet normal 0.828452 0.56006 -0
    outer loop
      vertex 47.0948 31.5868 -0.391
      vertex 47.0948 31.5868 -0.091
      vertex 47.2488 31.359 -0.091
    endloop
  endfacet
  facet normal 0.79558 0.605848 0
    outer loop
      vertex 46.9262 31.8082 -0.391
      vertex 47.0948 31.5868 -0.091
      vertex 47.0948 31.5868 -0.391
    endloop
  endfacet
  facet normal 0.79558 0.605848 -0
    outer loop
      vertex 46.9262 31.8082 -0.391
      vertex 46.9262 31.8082 -0.091
      vertex 47.0948 31.5868 -0.091
    endloop
  endfacet
  facet normal 0.761301 0.648398 0
    outer loop
      vertex 46.743 32.0233 -0.391
      vertex 46.9262 31.8082 -0.091
      vertex 46.9262 31.8082 -0.391
    endloop
  endfacet
  facet normal 0.761301 0.648398 -0
    outer loop
      vertex 46.743 32.0233 -0.391
      vertex 46.743 32.0233 -0.091
      vertex 46.9262 31.8082 -0.091
    endloop
  endfacet
  facet normal 0.725035 0.688712 0
    outer loop
      vertex 46.5496 32.2269 -0.391
      vertex 46.743 32.0233 -0.091
      vertex 46.743 32.0233 -0.391
    endloop
  endfacet
  facet normal 0.725035 0.688712 -0
    outer loop
      vertex 46.5496 32.2269 -0.391
      vertex 46.5496 32.2269 -0.091
      vertex 46.743 32.0233 -0.091
    endloop
  endfacet
  facet normal 0.685388 0.728179 0
    outer loop
      vertex 46.3505 32.4143 -0.391
      vertex 46.5496 32.2269 -0.091
      vertex 46.5496 32.2269 -0.391
    endloop
  endfacet
  facet normal 0.685388 0.728179 -0
    outer loop
      vertex 46.3505 32.4143 -0.391
      vertex 46.3505 32.4143 -0.091
      vertex 46.5496 32.2269 -0.091
    endloop
  endfacet
  facet normal 0.641142 0.767422 0
    outer loop
      vertex 46.1457 32.5854 -0.391
      vertex 46.3505 32.4143 -0.091
      vertex 46.3505 32.4143 -0.391
    endloop
  endfacet
  facet normal 0.641142 0.767422 -0
    outer loop
      vertex 46.1457 32.5854 -0.391
      vertex 46.1457 32.5854 -0.091
      vertex 46.3505 32.4143 -0.091
    endloop
  endfacet
  facet normal 0.592259 0.805748 0
    outer loop
      vertex 45.9351 32.7402 -0.391
      vertex 46.1457 32.5854 -0.091
      vertex 46.1457 32.5854 -0.391
    endloop
  endfacet
  facet normal 0.592259 0.805748 -0
    outer loop
      vertex 45.9351 32.7402 -0.391
      vertex 45.9351 32.7402 -0.091
      vertex 46.1457 32.5854 -0.091
    endloop
  endfacet
  facet normal 0.539142 0.842215 0
    outer loop
      vertex 45.7189 32.8786 -0.391
      vertex 45.9351 32.7402 -0.091
      vertex 45.9351 32.7402 -0.391
    endloop
  endfacet
  facet normal 0.539142 0.842215 -0
    outer loop
      vertex 45.7189 32.8786 -0.391
      vertex 45.7189 32.8786 -0.091
      vertex 45.9351 32.7402 -0.091
    endloop
  endfacet
  facet normal 0.482222 0.876049 0
    outer loop
      vertex 45.4969 33.0008 -0.391
      vertex 45.7189 32.8786 -0.091
      vertex 45.7189 32.8786 -0.391
    endloop
  endfacet
  facet normal 0.482222 0.876049 -0
    outer loop
      vertex 45.4969 33.0008 -0.391
      vertex 45.4969 33.0008 -0.091
      vertex 45.7189 32.8786 -0.091
    endloop
  endfacet
  facet normal 0.42186 0.906661 0
    outer loop
      vertex 45.2693 33.1067 -0.391
      vertex 45.4969 33.0008 -0.091
      vertex 45.4969 33.0008 -0.391
    endloop
  endfacet
  facet normal 0.42186 0.906661 -0
    outer loop
      vertex 45.2693 33.1067 -0.391
      vertex 45.2693 33.1067 -0.091
      vertex 45.4969 33.0008 -0.091
    endloop
  endfacet
  facet normal 0.358389 0.933572 0
    outer loop
      vertex 45.0359 33.1963 -0.391
      vertex 45.2693 33.1067 -0.091
      vertex 45.2693 33.1067 -0.391
    endloop
  endfacet
  facet normal 0.358389 0.933572 -0
    outer loop
      vertex 45.0359 33.1963 -0.391
      vertex 45.0359 33.1963 -0.091
      vertex 45.2693 33.1067 -0.091
    endloop
  endfacet
  facet normal 0.293468 0.955969 0
    outer loop
      vertex 44.7968 33.2697 -0.391
      vertex 45.0359 33.1963 -0.091
      vertex 45.0359 33.1963 -0.391
    endloop
  endfacet
  facet normal 0.293468 0.955969 -0
    outer loop
      vertex 44.7968 33.2697 -0.391
      vertex 44.7968 33.2697 -0.091
      vertex 45.0359 33.1963 -0.091
    endloop
  endfacet
  facet normal 0.226689 0.973967 0
    outer loop
      vertex 44.5519 33.3267 -0.391
      vertex 44.7968 33.2697 -0.091
      vertex 44.7968 33.2697 -0.391
    endloop
  endfacet
  facet normal 0.226689 0.973967 -0
    outer loop
      vertex 44.5519 33.3267 -0.391
      vertex 44.5519 33.3267 -0.091
      vertex 44.7968 33.2697 -0.091
    endloop
  endfacet
  facet normal 0.160372 0.987057 0
    outer loop
      vertex 44.3014 33.3674 -0.391
      vertex 44.5519 33.3267 -0.091
      vertex 44.5519 33.3267 -0.391
    endloop
  endfacet
  facet normal 0.160372 0.987057 -0
    outer loop
      vertex 44.3014 33.3674 -0.391
      vertex 44.3014 33.3674 -0.091
      vertex 44.5519 33.3267 -0.091
    endloop
  endfacet
  facet normal 0.0948091 0.995495 0
    outer loop
      vertex 44.0452 33.3918 -0.391
      vertex 44.3014 33.3674 -0.091
      vertex 44.3014 33.3674 -0.391
    endloop
  endfacet
  facet normal 0.0948091 0.995495 -0
    outer loop
      vertex 44.0452 33.3918 -0.391
      vertex 44.0452 33.3918 -0.091
      vertex 44.3014 33.3674 -0.091
    endloop
  endfacet
  facet normal 0.0312824 0.999511 0
    outer loop
      vertex 43.7832 33.4 -0.391
      vertex 44.0452 33.3918 -0.091
      vertex 44.0452 33.3918 -0.391
    endloop
  endfacet
  facet normal 0.0312824 0.999511 -0
    outer loop
      vertex 43.7832 33.4 -0.391
      vertex 43.7832 33.4 -0.091
      vertex 44.0452 33.3918 -0.091
    endloop
  endfacet
  facet normal 0 1 0
    outer loop
      vertex 10.1941 33.4 -0.391
      vertex 43.7832 33.4 -0.091
      vertex 43.7832 33.4 -0.391
    endloop
  endfacet
  facet normal 0 1 0
    outer loop
      vertex 10.1941 33.4 -0.391
      vertex 10.1941 33.4 -0.091
      vertex 43.7832 33.4 -0.091
    endloop
  endfacet
  facet normal -0.0312729 0.999511 0
    outer loop
      vertex 9.93202 33.3918 -0.391
      vertex 10.1941 33.4 -0.091
      vertex 10.1941 33.4 -0.391
    endloop
  endfacet
  facet normal -0.0312729 0.999511 0
    outer loop
      vertex 9.93202 33.3918 -0.391
      vertex 9.93202 33.3918 -0.091
      vertex 10.1941 33.4 -0.091
    endloop
  endfacet
  facet normal -0.0947541 0.995501 0
    outer loop
      vertex 9.67567 33.3674 -0.391
      vertex 9.93202 33.3918 -0.091
      vertex 9.93202 33.3918 -0.391
    endloop
  endfacet
  facet normal -0.0947541 0.995501 0
    outer loop
      vertex 9.67567 33.3674 -0.391
      vertex 9.67567 33.3674 -0.091
      vertex 9.93202 33.3918 -0.091
    endloop
  endfacet
  facet normal -0.160303 0.987068 0
    outer loop
      vertex 9.42506 33.3267 -0.391
      vertex 9.67567 33.3674 -0.091
      vertex 9.67567 33.3674 -0.391
    endloop
  endfacet
  facet normal -0.160303 0.987068 0
    outer loop
      vertex 9.42506 33.3267 -0.391
      vertex 9.42506 33.3267 -0.091
      vertex 9.67567 33.3674 -0.091
    endloop
  endfacet
  facet normal -0.226707 0.973963 0
    outer loop
      vertex 9.18018 33.2697 -0.391
      vertex 9.42506 33.3267 -0.091
      vertex 9.42506 33.3267 -0.391
    endloop
  endfacet
  facet normal -0.226707 0.973963 0
    outer loop
      vertex 9.18018 33.2697 -0.391
      vertex 9.18018 33.2697 -0.091
      vertex 9.42506 33.3267 -0.091
    endloop
  endfacet
  facet normal -0.293367 0.956 0
    outer loop
      vertex 8.94099 33.1963 -0.391
      vertex 9.18018 33.2697 -0.091
      vertex 9.18018 33.2697 -0.391
    endloop
  endfacet
  facet normal -0.293367 0.956 0
    outer loop
      vertex 8.94099 33.1963 -0.391
      vertex 8.94099 33.1963 -0.091
      vertex 9.18018 33.2697 -0.091
    endloop
  endfacet
  facet normal -0.358336 0.933593 0
    outer loop
      vertex 8.70755 33.1067 -0.391
      vertex 8.94099 33.1963 -0.091
      vertex 8.94099 33.1963 -0.391
    endloop
  endfacet
  facet normal -0.358336 0.933593 0
    outer loop
      vertex 8.70755 33.1067 -0.391
      vertex 8.70755 33.1067 -0.091
      vertex 8.94099 33.1963 -0.091
    endloop
  endfacet
  facet normal -0.421677 0.906746 0
    outer loop
      vertex 8.47983 33.0008 -0.391
      vertex 8.70755 33.1067 -0.091
      vertex 8.70755 33.1067 -0.391
    endloop
  endfacet
  facet normal -0.421677 0.906746 0
    outer loop
      vertex 8.47983 33.0008 -0.391
      vertex 8.47983 33.0008 -0.091
      vertex 8.70755 33.1067 -0.091
    endloop
  endfacet
  facet normal -0.482238 0.87604 0
    outer loop
      vertex 8.25784 32.8786 -0.391
      vertex 8.47983 33.0008 -0.091
      vertex 8.47983 33.0008 -0.391
    endloop
  endfacet
  facet normal -0.482238 0.87604 0
    outer loop
      vertex 8.25784 32.8786 -0.391
      vertex 8.25784 32.8786 -0.091
      vertex 8.47983 33.0008 -0.091
    endloop
  endfacet
  facet normal -0.539001 0.842305 0
    outer loop
      vertex 8.04156 32.7402 -0.391
      vertex 8.25784 32.8786 -0.091
      vertex 8.25784 32.8786 -0.391
    endloop
  endfacet
  facet normal -0.539001 0.842305 0
    outer loop
      vertex 8.04156 32.7402 -0.391
      vertex 8.04156 32.7402 -0.091
      vertex 8.25784 32.8786 -0.091
    endloop
  endfacet
  facet normal -0.59235 0.805681 0
    outer loop
      vertex 7.83101 32.5854 -0.391
      vertex 8.04156 32.7402 -0.091
      vertex 8.04156 32.7402 -0.391
    endloop
  endfacet
  facet normal -0.59235 0.805681 0
    outer loop
      vertex 7.83101 32.5854 -0.391
      vertex 7.83101 32.5854 -0.091
      vertex 8.04156 32.7402 -0.091
    endloop
  endfacet
  facet normal -0.64105 0.767499 0
    outer loop
      vertex 7.62616 32.4143 -0.391
      vertex 7.83101 32.5854 -0.091
      vertex 7.83101 32.5854 -0.391
    endloop
  endfacet
  facet normal -0.64105 0.767499 0
    outer loop
      vertex 7.62616 32.4143 -0.391
      vertex 7.62616 32.4143 -0.091
      vertex 7.83101 32.5854 -0.091
    endloop
  endfacet
  facet normal -0.685388 0.728179 0
    outer loop
      vertex 7.42706 32.2269 -0.391
      vertex 7.62616 32.4143 -0.091
      vertex 7.62616 32.4143 -0.391
    endloop
  endfacet
  facet normal -0.685388 0.728179 0
    outer loop
      vertex 7.42706 32.2269 -0.391
      vertex 7.42706 32.2269 -0.091
      vertex 7.62616 32.4143 -0.091
    endloop
  endfacet
  facet normal -0.725053 0.688693 0
    outer loop
      vertex 7.23367 32.0233 -0.391
      vertex 7.42706 32.2269 -0.091
      vertex 7.42706 32.2269 -0.391
    endloop
  endfacet
  facet normal -0.725053 0.688693 0
    outer loop
      vertex 7.23367 32.0233 -0.391
      vertex 7.23367 32.0233 -0.091
      vertex 7.42706 32.2269 -0.091
    endloop
  endfacet
  facet normal -0.761319 0.648378 0
    outer loop
      vertex 7.05048 31.8082 -0.391
      vertex 7.23367 32.0233 -0.091
      vertex 7.23367 32.0233 -0.391
    endloop
  endfacet
  facet normal -0.761319 0.648378 0
    outer loop
      vertex 7.05048 31.8082 -0.391
      vertex 7.05048 31.8082 -0.091
      vertex 7.23367 32.0233 -0.091
    endloop
  endfacet
  facet normal -0.795684 0.605712 0
    outer loop
      vertex 6.88194 31.5868 -0.391
      vertex 7.05048 31.8082 -0.091
      vertex 7.05048 31.8082 -0.391
    endloop
  endfacet
  facet normal -0.795684 0.605712 0
    outer loop
      vertex 6.88194 31.5868 -0.391
      vertex 6.88194 31.5868 -0.091
      vertex 7.05048 31.8082 -0.091
    endloop
  endfacet
  facet normal -0.828655 0.55976 0
    outer loop
      vertex 6.72806 31.359 -0.391
      vertex 6.88194 31.5868 -0.091
      vertex 6.88194 31.5868 -0.391
    endloop
  endfacet
  facet normal -0.828655 0.55976 0
    outer loop
      vertex 6.72806 31.359 -0.391
      vertex 6.72806 31.359 -0.091
      vertex 6.88194 31.5868 -0.091
    endloop
  endfacet
  facet normal -0.859495 0.511144 0
    outer loop
      vertex 6.58884 31.1249 -0.391
      vertex 6.72806 31.359 -0.091
      vertex 6.72806 31.359 -0.391
    endloop
  endfacet
  facet normal -0.859495 0.511144 0
    outer loop
      vertex 6.58884 31.1249 -0.391
      vertex 6.58884 31.1249 -0.091
      vertex 6.72806 31.359 -0.091
    endloop
  endfacet
  facet normal -0.887848 0.460137 0
    outer loop
      vertex 6.46425 30.8845 -0.391
      vertex 6.58884 31.1249 -0.091
      vertex 6.58884 31.1249 -0.391
    endloop
  endfacet
  facet normal -0.887848 0.460137 0
    outer loop
      vertex 6.46425 30.8845 -0.391
      vertex 6.46425 30.8845 -0.091
      vertex 6.58884 31.1249 -0.091
    endloop
  endfacet
  facet normal -0.913521 0.406791 0
    outer loop
      vertex 6.35435 30.6377 -0.391
      vertex 6.46425 30.8845 -0.091
      vertex 6.46425 30.8845 -0.391
    endloop
  endfacet
  facet normal -0.913521 0.406791 0
    outer loop
      vertex 6.35435 30.6377 -0.391
      vertex 6.35435 30.6377 -0.091
      vertex 6.46425 30.8845 -0.091
    endloop
  endfacet
  facet normal -0.935894 0.352282 0
    outer loop
      vertex 6.25908 30.3846 -0.391
      vertex 6.35435 30.6377 -0.091
      vertex 6.35435 30.6377 -0.391
    endloop
  endfacet
  facet normal -0.935894 0.352282 0
    outer loop
      vertex 6.25908 30.3846 -0.391
      vertex 6.25908 30.3846 -0.091
      vertex 6.35435 30.6377 -0.091
    endloop
  endfacet
  facet normal -0.954985 0.296653 0
    outer loop
      vertex 6.17847 30.1251 -0.391
      vertex 6.25908 30.3846 -0.091
      vertex 6.25908 30.3846 -0.391
    endloop
  endfacet
  facet normal -0.954985 0.296653 0
    outer loop
      vertex 6.17847 30.1251 -0.391
      vertex 6.17847 30.1251 -0.091
      vertex 6.25908 30.3846 -0.091
    endloop
  endfacet
  facet normal -0.970571 0.240817 0
    outer loop
      vertex 6.11252 29.8593 -0.391
      vertex 6.17847 30.1251 -0.091
      vertex 6.17847 30.1251 -0.391
    endloop
  endfacet
  facet normal -0.970571 0.240817 0
    outer loop
      vertex 6.11252 29.8593 -0.391
      vertex 6.11252 29.8593 -0.091
      vertex 6.17847 30.1251 -0.091
    endloop
  endfacet
  facet normal -0.982707 0.185169 0
    outer loop
      vertex 6.06123 29.5871 -0.391
      vertex 6.11252 29.8593 -0.091
      vertex 6.11252 29.8593 -0.391
    endloop
  endfacet
  facet normal -0.982707 0.185169 0
    outer loop
      vertex 6.06123 29.5871 -0.391
      vertex 6.06123 29.5871 -0.091
      vertex 6.11252 29.8593 -0.091
    endloop
  endfacet
  facet normal -0.991461 0.130403 0
    outer loop
      vertex 6.0246 29.3086 -0.391
      vertex 6.06123 29.5871 -0.091
      vertex 6.06123 29.5871 -0.391
    endloop
  endfacet
  facet normal -0.991461 0.130403 0
    outer loop
      vertex 6.0246 29.3086 -0.391
      vertex 6.0246 29.3086 -0.091
      vertex 6.06123 29.5871 -0.091
    endloop
  endfacet
  facet normal -0.997032 0.0769829 0
    outer loop
      vertex 6.00261 29.0238 -0.391
      vertex 6.0246 29.3086 -0.091
      vertex 6.0246 29.3086 -0.391
    endloop
  endfacet
  facet normal -0.997032 0.0769829 0
    outer loop
      vertex 6.00261 29.0238 -0.391
      vertex 6.00261 29.0238 -0.091
      vertex 6.0246 29.3086 -0.091
    endloop
  endfacet
  facet normal -0.999682 0.025198 0
    outer loop
      vertex 5.99527 28.7326 -0.391
      vertex 6.00261 29.0238 -0.091
      vertex 6.00261 29.0238 -0.391
    endloop
  endfacet
  facet normal -0.999682 0.025198 0
    outer loop
      vertex 5.99527 28.7326 -0.391
      vertex 5.99527 28.7326 -0.091
      vertex 6.00261 29.0238 -0.091
    endloop
  endfacet
  facet normal -1 0 0
    outer loop
      vertex 5.99527 -0.699997 -0.391
      vertex 5.99527 28.7326 -0.091
      vertex 5.99527 28.7326 -0.391
    endloop
  endfacet
  facet normal -1 0 0
    outer loop
      vertex 5.99527 -0.699997 -0.391
      vertex 5.99527 -0.699997 -0.091
      vertex 5.99527 28.7326 -0.091
    endloop
  endfacet
  facet normal 0 -1 0
    outer loop
      vertex 43.7058 -0.699997 -0.391
      vertex 5.99527 -0.699997 -0.091
      vertex 5.99527 -0.699997 -0.391
    endloop
  endfacet
  facet normal 0 -1 0
    outer loop
      vertex 43.7058 -0.699997 -0.391
      vertex 43.7058 -0.699997 -0.091
      vertex 5.99527 -0.699997 -0.091
    endloop
  endfacet
  facet normal 0.982699 0.185212 0
    outer loop
      vertex 43.6641 -0.478745 -0.391
      vertex 43.7058 -0.699997 -0.091
      vertex 43.7058 -0.699997 -0.391
    endloop
  endfacet
  facet normal 0.982699 0.185212 -0
    outer loop
      vertex 43.6641 -0.478745 -0.391
      vertex 43.6641 -0.478745 -0.091
      vertex 43.7058 -0.699997 -0.091
    endloop
  endfacet
endsolid OpenSCAD_Model
