solid OpenSCAD_Model
  facet normal 0 0 -1
    outer loop
      vertex 46.0269 4.35463 -0.391
      vertex 38.2715 8.15762 -0.391
      vertex 38.5504 8.69862 -0.391
    endloop
  endfacet
  facet normal 0 0 -1
    outer loop
      vertex 45.5031 3.33028 -0.391
      vertex 38.2715 8.15762 -0.391
      vertex 46.0269 4.35463 -0.391
    endloop
  endfacet
  facet normal 0 0 -1
    outer loop
      vertex 46.0269 4.35463 -0.391
      vertex 38.5504 8.69862 -0.391
      vertex 46.489 5.40715 -0.391
    endloop
  endfacet
  facet normal 0 0 -1
    outer loop
      vertex 46.8895 6.48784 -0.391
      vertex 38.7965 9.25453 -0.391
      vertex 39.0098 9.82536 -0.391
    endloop
  endfacet
  facet normal 0 0 -1
    outer loop
      vertex 47.8754 11.0923 -0.391
      vertex 39.5349 12.2578 -0.391
      vertex 47.9679 12.3139 -0.391
    endloop
  endfacet
  facet normal 0 0 -1
    outer loop
      vertex 39.5841 12.9032 -0.391
      vertex 39.6005 13.5636 -0.391
      vertex 47.9987 13.5636 -0.391
    endloop
  endfacet
  facet normal 0 0 -1
    outer loop
      vertex 39.5841 14.2239 -0.391
      vertex 39.5349 14.8693 -0.391
      vertex 47.9677 14.8132 -0.391
    endloop
  endfacet
  facet normal 0 0 -1
    outer loop
      vertex 39.4528 15.4998 -0.391
      vertex 47.7202 17.227 -0.391
      vertex 47.8749 16.0343 -0.391
    endloop
  endfacet
  facet normal 0 -0 -1
    outer loop
      vertex 39.4528 11.6273 -0.391
      vertex 47.7214 9.89893 -0.391
      vertex 39.338 11.0118 -0.391
    endloop
  endfacet
  facet normal 0 0 -1
    outer loop
      vertex 47.2284 7.59669 -0.391
      vertex 39.1903 10.4111 -0.391
      vertex 47.5057 8.73373 -0.391
    endloop
  endfacet
  facet normal 0 0 -1
    outer loop
      vertex 35.4875 22.2426 -0.391
      vertex 35.014 22.5889 -0.391
      vertex 41.1086 29.2396 -0.391
    endloop
  endfacet
  facet normal -0 0 -1
    outer loop
      vertex 32.3704 33.2625 -0.391
      vertex 30.7422 24.047 -0.391
      vertex 31.2716 33.3656 -0.391
    endloop
  endfacet
  facet normal 0 -0 -1
    outer loop
      vertex 37.4809 31.7152 -0.391
      vertex 38.4262 31.1994 -0.391
      vertex 34.0266 23.1721 -0.391
    endloop
  endfacet
  facet normal 0 -0 -1
    outer loop
      vertex 36.5099 32.1622 -0.391
      vertex 37.4809 31.7152 -0.391
      vertex 33.5127 23.4091 -0.391
    endloop
  endfacet
  facet normal 0 0 -1
    outer loop
      vertex 33.5127 23.4091 -0.391
      vertex 37.4809 31.7152 -0.391
      vertex 34.0266 23.1721 -0.391
    endloop
  endfacet
  facet normal 0 0 -1
    outer loop
      vertex 33.5127 23.4091 -0.391
      vertex 32.9855 23.6096 -0.391
      vertex 36.5099 32.1622 -0.391
    endloop
  endfacet
  facet normal 0 0 -1
    outer loop
      vertex 32.9855 23.6096 -0.391
      vertex 32.4448 23.7736 -0.391
      vertex 35.5134 32.5404 -0.391
    endloop
  endfacet
  facet normal -0 0 -1
    outer loop
      vertex 36.5099 32.1622 -0.391
      vertex 32.9855 23.6096 -0.391
      vertex 35.5134 32.5404 -0.391
    endloop
  endfacet
  facet normal 0 -0 -1
    outer loop
      vertex 34.4914 32.8499 -0.391
      vertex 35.5134 32.5404 -0.391
      vertex 32.4448 23.7736 -0.391
    endloop
  endfacet
  facet normal 0 0 -1
    outer loop
      vertex 30.1478 24.0652 -0.391
      vertex 31.2716 33.3656 -0.391
      vertex 30.7422 24.047 -0.391
    endloop
  endfacet
  facet normal 0 0 -1
    outer loop
      vertex 31.8907 23.9012 -0.391
      vertex 33.4437 33.0905 -0.391
      vertex 34.4914 32.8499 -0.391
    endloop
  endfacet
  facet normal 0 0 -1
    outer loop
      vertex 31.8907 23.9012 -0.391
      vertex 31.3231 23.9923 -0.391
      vertex 33.4437 33.0905 -0.391
    endloop
  endfacet
  facet normal -0 0 -1
    outer loop
      vertex 33.4437 33.0905 -0.391
      vertex 31.3231 23.9923 -0.391
      vertex 32.3704 33.2625 -0.391
    endloop
  endfacet
  facet normal 0 0 -1
    outer loop
      vertex 32.3704 33.2625 -0.391
      vertex 31.3231 23.9923 -0.391
      vertex 30.7422 24.047 -0.391
    endloop
  endfacet
  facet normal 0 0 -1
    outer loop
      vertex 31.8907 23.9012 -0.391
      vertex 34.4914 32.8499 -0.391
      vertex 32.4448 23.7736 -0.391
    endloop
  endfacet
  facet normal 0 0 -1
    outer loop
      vertex 30.1472 33.4 -0.391
      vertex 31.2716 33.3656 -0.391
      vertex 30.1478 24.0652 -0.391
    endloop
  endfacet
  facet normal 0 -0 -1
    outer loop
      vertex 38.4262 31.1994 -0.391
      vertex 39.3459 30.6149 -0.391
      vertex 34.0266 23.1721 -0.391
    endloop
  endfacet
  facet normal 0 0 -1
    outer loop
      vertex 34.0266 23.1721 -0.391
      vertex 39.3459 30.6149 -0.391
      vertex 34.527 22.8987 -0.391
    endloop
  endfacet
  facet normal 0 0 -1
    outer loop
      vertex 35.014 22.5889 -0.391
      vertex 34.527 22.8987 -0.391
      vertex 40.24 29.9616 -0.391
    endloop
  endfacet
  facet normal -0 0 -1
    outer loop
      vertex 41.9516 28.4487 -0.391
      vertex 35.4875 22.2426 -0.391
      vertex 41.1086 29.2396 -0.391
    endloop
  endfacet
  facet normal 0 0 -1
    outer loop
      vertex 36.8277 20.985 -0.391
      vertex 36.3944 21.4407 -0.391
      vertex 43.5426 26.6809 -0.391
    endloop
  endfacet
  facet normal 0 0 -1
    outer loop
      vertex 37.2379 20.5036 -0.391
      vertex 36.8277 20.985 -0.391
      vertex 43.5426 26.6809 -0.391
    endloop
  endfacet
  facet normal 0 0 -1
    outer loop
      vertex 38.2715 18.9698 -0.391
      vertex 45.4921 23.7856 -0.391
      vertex 46.0182 22.7637 -0.391
    endloop
  endfacet
  facet normal 0 0 -1
    outer loop
      vertex 38.5504 18.4288 -0.391
      vertex 38.2715 18.9698 -0.391
      vertex 46.0182 22.7637 -0.391
    endloop
  endfacet
  facet normal 0 0 -1
    outer loop
      vertex 6.72844 31.359 -0.391
      vertex 6.88239 31.5868 -0.391
      vertex 10.1959 33.4 -0.391
    endloop
  endfacet
  facet normal 0 0 -1
    outer loop
      vertex 8.70885 33.1067 -0.391
      vertex 8.94238 33.1963 -0.391
      vertex 9.18166 33.2697 -0.391
    endloop
  endfacet
  facet normal 0 0 -1
    outer loop
      vertex 8.48103 33.0008 -0.391
      vertex 8.70885 33.1067 -0.391
      vertex 9.18166 33.2697 -0.391
    endloop
  endfacet
  facet normal 0 0 -1
    outer loop
      vertex 9.42664 33.3267 -0.391
      vertex 8.48103 33.0008 -0.391
      vertex 9.18166 33.2697 -0.391
    endloop
  endfacet
  facet normal 0 0 -1
    outer loop
      vertex 9.42664 33.3267 -0.391
      vertex 8.25893 32.8786 -0.391
      vertex 8.48103 33.0008 -0.391
    endloop
  endfacet
  facet normal 0 -0 -1
    outer loop
      vertex 9.42664 33.3267 -0.391
      vertex 9.67734 33.3674 -0.391
      vertex 8.25893 32.8786 -0.391
    endloop
  endfacet
  facet normal 0 -0 -1
    outer loop
      vertex 8.25893 32.8786 -0.391
      vertex 9.67734 33.3674 -0.391
      vertex 8.04256 32.7402 -0.391
    endloop
  endfacet
  facet normal 0 0 -1
    outer loop
      vertex 8.04256 32.7402 -0.391
      vertex 9.67734 33.3674 -0.391
      vertex 9.93378 33.3918 -0.391
    endloop
  endfacet
  facet normal 0 0 -1
    outer loop
      vertex 7.83191 32.5854 -0.391
      vertex 8.04256 32.7402 -0.391
      vertex 9.93378 33.3918 -0.391
    endloop
  endfacet
  facet normal 0 0 -1
    outer loop
      vertex 10.1959 33.4 -0.391
      vertex 7.83191 32.5854 -0.391
      vertex 9.93378 33.3918 -0.391
    endloop
  endfacet
  facet normal 0 0 -1
    outer loop
      vertex 10.1959 33.4 -0.391
      vertex 7.62698 32.4143 -0.391
      vertex 7.83191 32.5854 -0.391
    endloop
  endfacet
  facet normal 0 0 -1
    outer loop
      vertex 10.1959 33.4 -0.391
      vertex 7.42778 32.2269 -0.391
      vertex 7.62698 32.4143 -0.391
    endloop
  endfacet
  facet normal 0 0 -1
    outer loop
      vertex 10.1959 33.4 -0.391
      vertex 7.2343 32.0233 -0.391
      vertex 7.42778 32.2269 -0.391
    endloop
  endfacet
  facet normal 0 0 -1
    outer loop
      vertex 10.1959 33.4 -0.391
      vertex 7.05103 31.8082 -0.391
      vertex 7.2343 32.0233 -0.391
    endloop
  endfacet
  facet normal 0 0 -1
    outer loop
      vertex 10.1959 33.4 -0.391
      vertex 6.88239 31.5868 -0.391
      vertex 7.05103 31.8082 -0.391
    endloop
  endfacet
  facet normal 0 0 -1
    outer loop
      vertex 6.58913 31.1249 -0.391
      vertex 6.72844 31.359 -0.391
      vertex 10.1959 33.4 -0.391
    endloop
  endfacet
  facet normal 0 0 -1
    outer loop
      vertex 6.46449 30.8845 -0.391
      vertex 6.58913 31.1249 -0.391
      vertex 10.1959 33.4 -0.391
    endloop
  endfacet
  facet normal 0 0 -1
    outer loop
      vertex 6.35452 30.6377 -0.391
      vertex 6.46449 30.8845 -0.391
      vertex 10.1959 33.4 -0.391
    endloop
  endfacet
  facet normal 0 0 -1
    outer loop
      vertex 6.2592 30.3846 -0.391
      vertex 6.35452 30.6377 -0.391
      vertex 10.1959 33.4 -0.391
    endloop
  endfacet
  facet normal 0 0 -1
    outer loop
      vertex 6.17857 30.1251 -0.391
      vertex 6.2592 30.3846 -0.391
      vertex 10.1959 33.4 -0.391
    endloop
  endfacet
  facet normal 0 0 -1
    outer loop
      vertex 6.11258 29.8593 -0.391
      vertex 6.17857 30.1251 -0.391
      vertex 10.1959 33.4 -0.391
    endloop
  endfacet
  facet normal 0 0 -1
    outer loop
      vertex 6.06126 29.5871 -0.391
      vertex 6.11258 29.8593 -0.391
      vertex 10.1959 33.4 -0.391
    endloop
  endfacet
  facet normal 0 0 -1
    outer loop
      vertex 6.02461 29.3086 -0.391
      vertex 6.06126 29.5871 -0.391
      vertex 10.1959 33.4 -0.391
    endloop
  endfacet
  facet normal 0 0 -1
    outer loop
      vertex 6.00261 29.0238 -0.391
      vertex 6.02461 29.3086 -0.391
      vertex 10.1959 33.4 -0.391
    endloop
  endfacet
  facet normal 0 0 -1
    outer loop
      vertex 5.99527 28.7326 -0.391
      vertex 6.00261 29.0238 -0.391
      vertex 10.1959 33.4 -0.391
    endloop
  endfacet
  facet normal 0 0 -1
    outer loop
      vertex 14.3935 24.0652 -0.391
      vertex 5.99527 28.7326 -0.391
      vertex 10.1959 33.4 -0.391
    endloop
  endfacet
  facet normal -0 0 -1
    outer loop
      vertex 30.1478 3.06194 -0.391
      vertex 5.99527 -0.699997 -0.391
      vertex 14.3935 3.06194 -0.391
    endloop
  endfacet
  facet normal -0 0 -1
    outer loop
      vertex 45.5031 3.33028 -0.391
      vertex 44.9177 2.33411 -0.391
      vertex 37.9598 7.63155 -0.391
    endloop
  endfacet
  facet normal 0 -0 -1
    outer loop
      vertex 30.1478 3.06194 -0.391
      vertex 42.5809 -0.699997 -0.391
      vertex 5.99527 -0.699997 -0.391
    endloop
  endfacet
  facet normal -0 0 -1
    outer loop
      vertex 14.3935 3.06194 -0.391
      vertex 5.99527 -0.699997 -0.391
      vertex 14.3935 24.0652 -0.391
    endloop
  endfacet
  facet normal -0 0 -1
    outer loop
      vertex 30.1472 33.4 -0.391
      vertex 14.3935 24.0652 -0.391
      vertex 10.1959 33.4 -0.391
    endloop
  endfacet
  facet normal -0 0 -1
    outer loop
      vertex 14.3935 24.0652 -0.391
      vertex 5.99527 -0.699997 -0.391
      vertex 5.99527 28.7326 -0.391
    endloop
  endfacet
  facet normal 0 -0 -1
    outer loop
      vertex 30.1472 33.4 -0.391
      vertex 30.1478 24.0652 -0.391
      vertex 14.3935 24.0652 -0.391
    endloop
  endfacet
  facet normal 0 0 -1
    outer loop
      vertex 39.4528 15.4998 -0.391
      vertex 39.338 16.1154 -0.391
      vertex 47.7202 17.227 -0.391
    endloop
  endfacet
  facet normal 0 0 -1
    outer loop
      vertex 34.527 22.8987 -0.391
      vertex 39.3459 30.6149 -0.391
      vertex 40.24 29.9616 -0.391
    endloop
  endfacet
  facet normal 0 0 -1
    outer loop
      vertex 35.014 22.5889 -0.391
      vertex 40.24 29.9616 -0.391
      vertex 41.1086 29.2396 -0.391
    endloop
  endfacet
  facet normal 0 0 -1
    outer loop
      vertex 41.9516 28.4487 -0.391
      vertex 35.9477 21.8599 -0.391
      vertex 35.4875 22.2426 -0.391
    endloop
  endfacet
  facet normal 0 0 -1
    outer loop
      vertex 35.9477 21.8599 -0.391
      vertex 42.7689 27.5891 -0.391
      vertex 36.3944 21.4407 -0.391
    endloop
  endfacet
  facet normal 0 -0 -1
    outer loop
      vertex 41.9516 28.4487 -0.391
      vertex 42.7689 27.5891 -0.391
      vertex 35.9477 21.8599 -0.391
    endloop
  endfacet
  facet normal 0 0 -1
    outer loop
      vertex 36.3944 21.4407 -0.391
      vertex 42.7689 27.5891 -0.391
      vertex 43.5426 26.6809 -0.391
    endloop
  endfacet
  facet normal -0 0 -1
    outer loop
      vertex 44.2543 25.7443 -0.391
      vertex 37.2379 20.5036 -0.391
      vertex 43.5426 26.6809 -0.391
    endloop
  endfacet
  facet normal 0 -0 -1
    outer loop
      vertex 44.2543 25.7443 -0.391
      vertex 44.9041 24.7792 -0.391
      vertex 37.6152 20.0072 -0.391
    endloop
  endfacet
  facet normal 0 0 -1
    outer loop
      vertex 44.2543 25.7443 -0.391
      vertex 37.6152 20.0072 -0.391
      vertex 37.2379 20.5036 -0.391
    endloop
  endfacet
  facet normal 0 -0 -1
    outer loop
      vertex 44.9041 24.7792 -0.391
      vertex 45.4921 23.7856 -0.391
      vertex 37.9598 19.496 -0.391
    endloop
  endfacet
  facet normal 0 0 -1
    outer loop
      vertex 44.9041 24.7792 -0.391
      vertex 37.9598 19.496 -0.391
      vertex 37.6152 20.0072 -0.391
    endloop
  endfacet
  facet normal 0 0 -1
    outer loop
      vertex 37.9598 19.496 -0.391
      vertex 45.4921 23.7856 -0.391
      vertex 38.2715 18.9698 -0.391
    endloop
  endfacet
  facet normal -0 0 -1
    outer loop
      vertex 46.4824 21.7132 -0.391
      vertex 38.5504 18.4288 -0.391
      vertex 46.0182 22.7637 -0.391
    endloop
  endfacet
  facet normal 0 -0 -1
    outer loop
      vertex 46.4824 21.7132 -0.391
      vertex 46.8847 20.6343 -0.391
      vertex 38.7965 17.8728 -0.391
    endloop
  endfacet
  facet normal 0 0 -1
    outer loop
      vertex 46.4824 21.7132 -0.391
      vertex 38.7965 17.8728 -0.391
      vertex 38.5504 18.4288 -0.391
    endloop
  endfacet
  facet normal 0 -0 -1
    outer loop
      vertex 46.8847 20.6343 -0.391
      vertex 47.2251 19.527 -0.391
      vertex 39.0098 17.3019 -0.391
    endloop
  endfacet
  facet normal 0 0 -1
    outer loop
      vertex 46.8847 20.6343 -0.391
      vertex 39.0098 17.3019 -0.391
      vertex 38.7965 17.8728 -0.391
    endloop
  endfacet
  facet normal 0 -0 -1
    outer loop
      vertex 47.2251 19.527 -0.391
      vertex 47.5036 18.3912 -0.391
      vertex 39.1903 16.7161 -0.391
    endloop
  endfacet
  facet normal 0 0 -1
    outer loop
      vertex 47.2251 19.527 -0.391
      vertex 39.1903 16.7161 -0.391
      vertex 39.0098 17.3019 -0.391
    endloop
  endfacet
  facet normal 0 -0 -1
    outer loop
      vertex 47.5036 18.3912 -0.391
      vertex 47.7202 17.227 -0.391
      vertex 39.338 16.1154 -0.391
    endloop
  endfacet
  facet normal 0 0 -1
    outer loop
      vertex 47.5036 18.3912 -0.391
      vertex 39.338 16.1154 -0.391
      vertex 39.1903 16.7161 -0.391
    endloop
  endfacet
  facet normal 0 0 -1
    outer loop
      vertex 39.5349 14.8693 -0.391
      vertex 39.4528 15.4998 -0.391
      vertex 47.8749 16.0343 -0.391
    endloop
  endfacet
  facet normal 0 0 -1
    outer loop
      vertex 47.9677 14.8132 -0.391
      vertex 39.5349 14.8693 -0.391
      vertex 47.8749 16.0343 -0.391
    endloop
  endfacet
  facet normal 0 0 -1
    outer loop
      vertex 47.9987 13.5636 -0.391
      vertex 39.5841 14.2239 -0.391
      vertex 47.9677 14.8132 -0.391
    endloop
  endfacet
  facet normal 0 0 -1
    outer loop
      vertex 47.9987 13.5636 -0.391
      vertex 39.6005 13.5636 -0.391
      vertex 39.5841 14.2239 -0.391
    endloop
  endfacet
  facet normal 0 0 -1
    outer loop
      vertex 47.9679 12.3139 -0.391
      vertex 39.5841 12.9032 -0.391
      vertex 47.9987 13.5636 -0.391
    endloop
  endfacet
  facet normal -0 0 -1
    outer loop
      vertex 47.9679 12.3139 -0.391
      vertex 39.5349 12.2578 -0.391
      vertex 39.5841 12.9032 -0.391
    endloop
  endfacet
  facet normal 0 0 -1
    outer loop
      vertex 47.8754 11.0923 -0.391
      vertex 39.4528 11.6273 -0.391
      vertex 39.5349 12.2578 -0.391
    endloop
  endfacet
  facet normal -0 0 -1
    outer loop
      vertex 47.8754 11.0923 -0.391
      vertex 47.7214 9.89893 -0.391
      vertex 39.4528 11.6273 -0.391
    endloop
  endfacet
  facet normal -0 0 -1
    outer loop
      vertex 47.7214 9.89893 -0.391
      vertex 47.5057 8.73373 -0.391
      vertex 39.338 11.0118 -0.391
    endloop
  endfacet
  facet normal 0 -0 -1
    outer loop
      vertex 39.338 11.0118 -0.391
      vertex 47.5057 8.73373 -0.391
      vertex 39.1903 10.4111 -0.391
    endloop
  endfacet
  facet normal 0 -0 -1
    outer loop
      vertex 39.1903 10.4111 -0.391
      vertex 47.2284 7.59669 -0.391
      vertex 39.0098 9.82536 -0.391
    endloop
  endfacet
  facet normal 0 0 -1
    outer loop
      vertex 39.0098 9.82536 -0.391
      vertex 47.2284 7.59669 -0.391
      vertex 46.8895 6.48784 -0.391
    endloop
  endfacet
  facet normal 0 0 -1
    outer loop
      vertex 38.7965 9.25453 -0.391
      vertex 46.8895 6.48784 -0.391
      vertex 46.489 5.40715 -0.391
    endloop
  endfacet
  facet normal 0 0 -1
    outer loop
      vertex 38.5504 8.69862 -0.391
      vertex 38.7965 9.25453 -0.391
      vertex 46.489 5.40715 -0.391
    endloop
  endfacet
  facet normal 0 -0 -1
    outer loop
      vertex 38.2715 8.15762 -0.391
      vertex 45.5031 3.33028 -0.391
      vertex 37.9598 7.63155 -0.391
    endloop
  endfacet
  facet normal 0 -0 -1
    outer loop
      vertex 37.9598 7.63155 -0.391
      vertex 44.9177 2.33411 -0.391
      vertex 37.6152 7.12038 -0.391
    endloop
  endfacet
  facet normal 0 0 -1
    outer loop
      vertex 37.6152 7.12038 -0.391
      vertex 44.9177 2.33411 -0.391
      vertex 44.2707 1.3661 -0.391
    endloop
  endfacet
  facet normal 0 0 -1
    outer loop
      vertex 37.2379 6.62413 -0.391
      vertex 37.6152 7.12038 -0.391
      vertex 44.2707 1.3661 -0.391
    endloop
  endfacet
  facet normal 0 0 -1
    outer loop
      vertex 43.5621 0.42627 -0.391
      vertex 37.2379 6.62413 -0.391
      vertex 44.2707 1.3661 -0.391
    endloop
  endfacet
  facet normal 0 0 -1
    outer loop
      vertex 43.5621 0.42627 -0.391
      vertex 36.8277 6.14281 -0.391
      vertex 37.2379 6.62413 -0.391
    endloop
  endfacet
  facet normal 0 0 -1
    outer loop
      vertex 43.5621 0.42627 -0.391
      vertex 36.3944 5.68706 -0.391
      vertex 36.8277 6.14281 -0.391
    endloop
  endfacet
  facet normal -0 0 -1
    outer loop
      vertex 43.5621 0.42627 -0.391
      vertex 42.7918 -0.485382 -0.391
      vertex 36.3944 5.68706 -0.391
    endloop
  endfacet
  facet normal 0 0 -1
    outer loop
      vertex 36.3944 5.68706 -0.391
      vertex 42.7918 -0.485382 -0.391
      vertex 42.7076 -0.571533 -0.391
    endloop
  endfacet
  facet normal 0 0 -1
    outer loop
      vertex 42.6228 -0.6577 -0.391
      vertex 36.3944 5.68706 -0.391
      vertex 42.7076 -0.571533 -0.391
    endloop
  endfacet
  facet normal -0 0 -1
    outer loop
      vertex 42.6228 -0.6577 -0.391
      vertex 42.5809 -0.699997 -0.391
      vertex 36.3944 5.68706 -0.391
    endloop
  endfacet
  facet normal 0 -0 -1
    outer loop
      vertex 36.3944 5.68706 -0.391
      vertex 42.5809 -0.699997 -0.391
      vertex 35.9477 5.26776 -0.391
    endloop
  endfacet
  facet normal 0 -0 -1
    outer loop
      vertex 35.9477 5.26776 -0.391
      vertex 42.5809 -0.699997 -0.391
      vertex 35.4875 4.88493 -0.391
    endloop
  endfacet
  facet normal 0 -0 -1
    outer loop
      vertex 35.4875 4.88493 -0.391
      vertex 42.5809 -0.699997 -0.391
      vertex 35.014 4.53856 -0.391
    endloop
  endfacet
  facet normal 0 -0 -1
    outer loop
      vertex 35.014 4.53856 -0.391
      vertex 42.5809 -0.699997 -0.391
      vertex 34.527 4.22865 -0.391
    endloop
  endfacet
  facet normal 0 -0 -1
    outer loop
      vertex 34.527 4.22865 -0.391
      vertex 42.5809 -0.699997 -0.391
      vertex 34.0266 3.9552 -0.391
    endloop
  endfacet
  facet normal 0 -0 -1
    outer loop
      vertex 34.0266 3.9552 -0.391
      vertex 42.5809 -0.699997 -0.391
      vertex 33.5127 3.71822 -0.391
    endloop
  endfacet
  facet normal 0 -0 -1
    outer loop
      vertex 33.5127 3.71822 -0.391
      vertex 42.5809 -0.699997 -0.391
      vertex 32.9855 3.51768 -0.391
    endloop
  endfacet
  facet normal 0 -0 -1
    outer loop
      vertex 32.9855 3.51768 -0.391
      vertex 42.5809 -0.699997 -0.391
      vertex 32.4448 3.35362 -0.391
    endloop
  endfacet
  facet normal 0 -0 -1
    outer loop
      vertex 32.4448 3.35362 -0.391
      vertex 42.5809 -0.699997 -0.391
      vertex 31.8907 3.22601 -0.391
    endloop
  endfacet
  facet normal 0 -0 -1
    outer loop
      vertex 31.8907 3.22601 -0.391
      vertex 42.5809 -0.699997 -0.391
      vertex 31.3231 3.13486 -0.391
    endloop
  endfacet
  facet normal 0 -0 -1
    outer loop
      vertex 31.3231 3.13486 -0.391
      vertex 42.5809 -0.699997 -0.391
      vertex 30.7422 3.08017 -0.391
    endloop
  endfacet
  facet normal 0 -0 -1
    outer loop
      vertex 30.7422 3.08017 -0.391
      vertex 42.5809 -0.699997 -0.391
      vertex 30.1478 3.06194 -0.391
    endloop
  endfacet
  facet normal 0 0 1
    outer loop
      vertex 38.5504 8.69862 -0.091
      vertex 38.2715 8.15762 -0.091
      vertex 46.0269 4.35463 -0.091
    endloop
  endfacet
  facet normal 0 0 1
    outer loop
      vertex 46.0269 4.35463 -0.091
      vertex 38.2715 8.15762 -0.091
      vertex 45.5031 3.33028 -0.091
    endloop
  endfacet
  facet normal 0 0 1
    outer loop
      vertex 46.489 5.40715 -0.091
      vertex 38.5504 8.69862 -0.091
      vertex 46.0269 4.35463 -0.091
    endloop
  endfacet
  facet normal 0 0 1
    outer loop
      vertex 39.0098 9.82536 -0.091
      vertex 38.7965 9.25453 -0.091
      vertex 46.8895 6.48784 -0.091
    endloop
  endfacet
  facet normal 0 0 1
    outer loop
      vertex 47.9679 12.3139 -0.091
      vertex 39.5349 12.2578 -0.091
      vertex 47.8754 11.0923 -0.091
    endloop
  endfacet
  facet normal 0 0 1
    outer loop
      vertex 47.9987 13.5636 -0.091
      vertex 39.6005 13.5636 -0.091
      vertex 39.5841 12.9032 -0.091
    endloop
  endfacet
  facet normal 0 0 1
    outer loop
      vertex 47.9677 14.8132 -0.091
      vertex 39.5349 14.8693 -0.091
      vertex 39.5841 14.2239 -0.091
    endloop
  endfacet
  facet normal 0 0 1
    outer loop
      vertex 47.8749 16.0343 -0.091
      vertex 47.7202 17.227 -0.091
      vertex 39.4528 15.4998 -0.091
    endloop
  endfacet
  facet normal -0 0 1
    outer loop
      vertex 39.338 11.0118 -0.091
      vertex 47.7214 9.89893 -0.091
      vertex 39.4528 11.6273 -0.091
    endloop
  endfacet
  facet normal 0 0 1
    outer loop
      vertex 47.5057 8.73373 -0.091
      vertex 39.1903 10.4111 -0.091
      vertex 47.2284 7.59669 -0.091
    endloop
  endfacet
  facet normal 0 0 1
    outer loop
      vertex 41.1086 29.2396 -0.091
      vertex 35.014 22.5889 -0.091
      vertex 35.4875 22.2426 -0.091
    endloop
  endfacet
  facet normal 0 0 1
    outer loop
      vertex 31.2716 33.3656 -0.091
      vertex 30.7422 24.047 -0.091
      vertex 32.3704 33.2625 -0.091
    endloop
  endfacet
  facet normal 0 0 1
    outer loop
      vertex 34.0266 23.1721 -0.091
      vertex 38.4262 31.1994 -0.091
      vertex 37.4809 31.7152 -0.091
    endloop
  endfacet
  facet normal 0 0 1
    outer loop
      vertex 33.5127 23.4091 -0.091
      vertex 37.4809 31.7152 -0.091
      vertex 36.5099 32.1622 -0.091
    endloop
  endfacet
  facet normal 0 -0 1
    outer loop
      vertex 34.0266 23.1721 -0.091
      vertex 37.4809 31.7152 -0.091
      vertex 33.5127 23.4091 -0.091
    endloop
  endfacet
  facet normal 0 0 1
    outer loop
      vertex 36.5099 32.1622 -0.091
      vertex 32.9855 23.6096 -0.091
      vertex 33.5127 23.4091 -0.091
    endloop
  endfacet
  facet normal 0 0 1
    outer loop
      vertex 35.5134 32.5404 -0.091
      vertex 32.4448 23.7736 -0.091
      vertex 32.9855 23.6096 -0.091
    endloop
  endfacet
  facet normal 0 0 1
    outer loop
      vertex 35.5134 32.5404 -0.091
      vertex 32.9855 23.6096 -0.091
      vertex 36.5099 32.1622 -0.091
    endloop
  endfacet
  facet normal 0 0 1
    outer loop
      vertex 32.4448 23.7736 -0.091
      vertex 35.5134 32.5404 -0.091
      vertex 34.4914 32.8499 -0.091
    endloop
  endfacet
  facet normal 0 -0 1
    outer loop
      vertex 30.7422 24.047 -0.091
      vertex 31.2716 33.3656 -0.091
      vertex 30.1478 24.0652 -0.091
    endloop
  endfacet
  facet normal 0 0 1
    outer loop
      vertex 34.4914 32.8499 -0.091
      vertex 33.4437 33.0905 -0.091
      vertex 31.8907 23.9012 -0.091
    endloop
  endfacet
  facet normal 0 0 1
    outer loop
      vertex 33.4437 33.0905 -0.091
      vertex 31.3231 23.9923 -0.091
      vertex 31.8907 23.9012 -0.091
    endloop
  endfacet
  facet normal 0 0 1
    outer loop
      vertex 32.3704 33.2625 -0.091
      vertex 31.3231 23.9923 -0.091
      vertex 33.4437 33.0905 -0.091
    endloop
  endfacet
  facet normal -0 0 1
    outer loop
      vertex 30.7422 24.047 -0.091
      vertex 31.3231 23.9923 -0.091
      vertex 32.3704 33.2625 -0.091
    endloop
  endfacet
  facet normal 0 -0 1
    outer loop
      vertex 32.4448 23.7736 -0.091
      vertex 34.4914 32.8499 -0.091
      vertex 31.8907 23.9012 -0.091
    endloop
  endfacet
  facet normal 0 -0 1
    outer loop
      vertex 30.1478 24.0652 -0.091
      vertex 31.2716 33.3656 -0.091
      vertex 30.1472 33.4 -0.091
    endloop
  endfacet
  facet normal 0 0 1
    outer loop
      vertex 34.0266 23.1721 -0.091
      vertex 39.3459 30.6149 -0.091
      vertex 38.4262 31.1994 -0.091
    endloop
  endfacet
  facet normal 0 -0 1
    outer loop
      vertex 34.527 22.8987 -0.091
      vertex 39.3459 30.6149 -0.091
      vertex 34.0266 23.1721 -0.091
    endloop
  endfacet
  facet normal 0 0 1
    outer loop
      vertex 40.24 29.9616 -0.091
      vertex 34.527 22.8987 -0.091
      vertex 35.014 22.5889 -0.091
    endloop
  endfacet
  facet normal 0 0 1
    outer loop
      vertex 41.1086 29.2396 -0.091
      vertex 35.4875 22.2426 -0.091
      vertex 41.9516 28.4487 -0.091
    endloop
  endfacet
  facet normal 0 0 1
    outer loop
      vertex 43.5426 26.6809 -0.091
      vertex 36.3944 21.4407 -0.091
      vertex 36.8277 20.985 -0.091
    endloop
  endfacet
  facet normal 0 0 1
    outer loop
      vertex 43.5426 26.6809 -0.091
      vertex 36.8277 20.985 -0.091
      vertex 37.2379 20.5036 -0.091
    endloop
  endfacet
  facet normal 0 0 1
    outer loop
      vertex 46.0182 22.7637 -0.091
      vertex 45.4921 23.7856 -0.091
      vertex 38.2715 18.9698 -0.091
    endloop
  endfacet
  facet normal 0 0 1
    outer loop
      vertex 46.0182 22.7637 -0.091
      vertex 38.2715 18.9698 -0.091
      vertex 38.5504 18.4288 -0.091
    endloop
  endfacet
  facet normal 0 0 1
    outer loop
      vertex 10.1959 33.4 -0.091
      vertex 6.88239 31.5868 -0.091
      vertex 6.72844 31.359 -0.091
    endloop
  endfacet
  facet normal 0 0 1
    outer loop
      vertex 9.18166 33.2697 -0.091
      vertex 8.94238 33.1963 -0.091
      vertex 8.70885 33.1067 -0.091
    endloop
  endfacet
  facet normal 0 0 1
    outer loop
      vertex 9.18166 33.2697 -0.091
      vertex 8.70885 33.1067 -0.091
      vertex 8.48103 33.0008 -0.091
    endloop
  endfacet
  facet normal -0 0 1
    outer loop
      vertex 9.18166 33.2697 -0.091
      vertex 8.48103 33.0008 -0.091
      vertex 9.42664 33.3267 -0.091
    endloop
  endfacet
  facet normal -0 0 1
    outer loop
      vertex 8.48103 33.0008 -0.091
      vertex 8.25893 32.8786 -0.091
      vertex 9.42664 33.3267 -0.091
    endloop
  endfacet
  facet normal 0 0 1
    outer loop
      vertex 8.25893 32.8786 -0.091
      vertex 9.67734 33.3674 -0.091
      vertex 9.42664 33.3267 -0.091
    endloop
  endfacet
  facet normal 0 0 1
    outer loop
      vertex 8.04256 32.7402 -0.091
      vertex 9.67734 33.3674 -0.091
      vertex 8.25893 32.8786 -0.091
    endloop
  endfacet
  facet normal 0 0 1
    outer loop
      vertex 9.93378 33.3918 -0.091
      vertex 9.67734 33.3674 -0.091
      vertex 8.04256 32.7402 -0.091
    endloop
  endfacet
  facet normal 0 0 1
    outer loop
      vertex 9.93378 33.3918 -0.091
      vertex 8.04256 32.7402 -0.091
      vertex 7.83191 32.5854 -0.091
    endloop
  endfacet
  facet normal -0 0 1
    outer loop
      vertex 9.93378 33.3918 -0.091
      vertex 7.83191 32.5854 -0.091
      vertex 10.1959 33.4 -0.091
    endloop
  endfacet
  facet normal -0 0 1
    outer loop
      vertex 7.83191 32.5854 -0.091
      vertex 7.62698 32.4143 -0.091
      vertex 10.1959 33.4 -0.091
    endloop
  endfacet
  facet normal -0 0 1
    outer loop
      vertex 7.62698 32.4143 -0.091
      vertex 7.42778 32.2269 -0.091
      vertex 10.1959 33.4 -0.091
    endloop
  endfacet
  facet normal -0 0 1
    outer loop
      vertex 7.42778 32.2269 -0.091
      vertex 7.2343 32.0233 -0.091
      vertex 10.1959 33.4 -0.091
    endloop
  endfacet
  facet normal -0 0 1
    outer loop
      vertex 7.2343 32.0233 -0.091
      vertex 7.05103 31.8082 -0.091
      vertex 10.1959 33.4 -0.091
    endloop
  endfacet
  facet normal -0 0 1
    outer loop
      vertex 7.05103 31.8082 -0.091
      vertex 6.88239 31.5868 -0.091
      vertex 10.1959 33.4 -0.091
    endloop
  endfacet
  facet normal 0 0 1
    outer loop
      vertex 10.1959 33.4 -0.091
      vertex 6.72844 31.359 -0.091
      vertex 6.58913 31.1249 -0.091
    endloop
  endfacet
  facet normal 0 0 1
    outer loop
      vertex 10.1959 33.4 -0.091
      vertex 6.58913 31.1249 -0.091
      vertex 6.46449 30.8845 -0.091
    endloop
  endfacet
  facet normal 0 0 1
    outer loop
      vertex 10.1959 33.4 -0.091
      vertex 6.46449 30.8845 -0.091
      vertex 6.35452 30.6377 -0.091
    endloop
  endfacet
  facet normal 0 0 1
    outer loop
      vertex 10.1959 33.4 -0.091
      vertex 6.35452 30.6377 -0.091
      vertex 6.2592 30.3846 -0.091
    endloop
  endfacet
  facet normal 0 0 1
    outer loop
      vertex 10.1959 33.4 -0.091
      vertex 6.2592 30.3846 -0.091
      vertex 6.17857 30.1251 -0.091
    endloop
  endfacet
  facet normal 0 0 1
    outer loop
      vertex 10.1959 33.4 -0.091
      vertex 6.17857 30.1251 -0.091
      vertex 6.11258 29.8593 -0.091
    endloop
  endfacet
  facet normal 0 0 1
    outer loop
      vertex 10.1959 33.4 -0.091
      vertex 6.11258 29.8593 -0.091
      vertex 6.06126 29.5871 -0.091
    endloop
  endfacet
  facet normal 0 0 1
    outer loop
      vertex 10.1959 33.4 -0.091
      vertex 6.06126 29.5871 -0.091
      vertex 6.02461 29.3086 -0.091
    endloop
  endfacet
  facet normal 0 0 1
    outer loop
      vertex 10.1959 33.4 -0.091
      vertex 6.02461 29.3086 -0.091
      vertex 6.00261 29.0238 -0.091
    endloop
  endfacet
  facet normal 0 0 1
    outer loop
      vertex 10.1959 33.4 -0.091
      vertex 6.00261 29.0238 -0.091
      vertex 5.99527 28.7326 -0.091
    endloop
  endfacet
  facet normal 0 0 1
    outer loop
      vertex 10.1959 33.4 -0.091
      vertex 5.99527 28.7326 -0.091
      vertex 14.3935 24.0652 -0.091
    endloop
  endfacet
  facet normal -0 0 1
    outer loop
      vertex 14.3935 3.06194 -0.091
      vertex 5.99527 -0.699997 -0.091
      vertex 30.1478 3.06194 -0.091
    endloop
  endfacet
  facet normal 0 0 1
    outer loop
      vertex 37.9598 7.63155 -0.091
      vertex 44.9177 2.33411 -0.091
      vertex 45.5031 3.33028 -0.091
    endloop
  endfacet
  facet normal 0 0 1
    outer loop
      vertex 5.99527 -0.699997 -0.091
      vertex 42.5809 -0.699997 -0.091
      vertex 30.1478 3.06194 -0.091
    endloop
  endfacet
  facet normal 0 0 1
    outer loop
      vertex 14.3935 24.0652 -0.091
      vertex 5.99527 -0.699997 -0.091
      vertex 14.3935 3.06194 -0.091
    endloop
  endfacet
  facet normal -0 0 1
    outer loop
      vertex 10.1959 33.4 -0.091
      vertex 14.3935 24.0652 -0.091
      vertex 30.1472 33.4 -0.091
    endloop
  endfacet
  facet normal 0 0 1
    outer loop
      vertex 5.99527 28.7326 -0.091
      vertex 5.99527 -0.699997 -0.091
      vertex 14.3935 24.0652 -0.091
    endloop
  endfacet
  facet normal 0 0 1
    outer loop
      vertex 14.3935 24.0652 -0.091
      vertex 30.1478 24.0652 -0.091
      vertex 30.1472 33.4 -0.091
    endloop
  endfacet
  facet normal 0 0 1
    outer loop
      vertex 47.7202 17.227 -0.091
      vertex 39.338 16.1154 -0.091
      vertex 39.4528 15.4998 -0.091
    endloop
  endfacet
  facet normal 0 0 1
    outer loop
      vertex 40.24 29.9616 -0.091
      vertex 39.3459 30.6149 -0.091
      vertex 34.527 22.8987 -0.091
    endloop
  endfacet
  facet normal 0 0 1
    outer loop
      vertex 41.1086 29.2396 -0.091
      vertex 40.24 29.9616 -0.091
      vertex 35.014 22.5889 -0.091
    endloop
  endfacet
  facet normal -0 0 1
    outer loop
      vertex 35.4875 22.2426 -0.091
      vertex 35.9477 21.8599 -0.091
      vertex 41.9516 28.4487 -0.091
    endloop
  endfacet
  facet normal 0 -0 1
    outer loop
      vertex 36.3944 21.4407 -0.091
      vertex 42.7689 27.5891 -0.091
      vertex 35.9477 21.8599 -0.091
    endloop
  endfacet
  facet normal 0 0 1
    outer loop
      vertex 35.9477 21.8599 -0.091
      vertex 42.7689 27.5891 -0.091
      vertex 41.9516 28.4487 -0.091
    endloop
  endfacet
  facet normal 0 0 1
    outer loop
      vertex 43.5426 26.6809 -0.091
      vertex 42.7689 27.5891 -0.091
      vertex 36.3944 21.4407 -0.091
    endloop
  endfacet
  facet normal 0 0 1
    outer loop
      vertex 43.5426 26.6809 -0.091
      vertex 37.2379 20.5036 -0.091
      vertex 44.2543 25.7443 -0.091
    endloop
  endfacet
  facet normal 0 0 1
    outer loop
      vertex 37.6152 20.0072 -0.091
      vertex 44.9041 24.7792 -0.091
      vertex 44.2543 25.7443 -0.091
    endloop
  endfacet
  facet normal -0 0 1
    outer loop
      vertex 37.2379 20.5036 -0.091
      vertex 37.6152 20.0072 -0.091
      vertex 44.2543 25.7443 -0.091
    endloop
  endfacet
  facet normal 0 0 1
    outer loop
      vertex 37.9598 19.496 -0.091
      vertex 45.4921 23.7856 -0.091
      vertex 44.9041 24.7792 -0.091
    endloop
  endfacet
  facet normal -0 0 1
    outer loop
      vertex 37.6152 20.0072 -0.091
      vertex 37.9598 19.496 -0.091
      vertex 44.9041 24.7792 -0.091
    endloop
  endfacet
  facet normal 0 -0 1
    outer loop
      vertex 38.2715 18.9698 -0.091
      vertex 45.4921 23.7856 -0.091
      vertex 37.9598 19.496 -0.091
    endloop
  endfacet
  facet normal 0 0 1
    outer loop
      vertex 46.0182 22.7637 -0.091
      vertex 38.5504 18.4288 -0.091
      vertex 46.4824 21.7132 -0.091
    endloop
  endfacet
  facet normal 0 0 1
    outer loop
      vertex 38.7965 17.8728 -0.091
      vertex 46.8847 20.6343 -0.091
      vertex 46.4824 21.7132 -0.091
    endloop
  endfacet
  facet normal -0 0 1
    outer loop
      vertex 38.5504 18.4288 -0.091
      vertex 38.7965 17.8728 -0.091
      vertex 46.4824 21.7132 -0.091
    endloop
  endfacet
  facet normal 0 0 1
    outer loop
      vertex 39.0098 17.3019 -0.091
      vertex 47.2251 19.527 -0.091
      vertex 46.8847 20.6343 -0.091
    endloop
  endfacet
  facet normal -0 0 1
    outer loop
      vertex 38.7965 17.8728 -0.091
      vertex 39.0098 17.3019 -0.091
      vertex 46.8847 20.6343 -0.091
    endloop
  endfacet
  facet normal 0 0 1
    outer loop
      vertex 39.1903 16.7161 -0.091
      vertex 47.5036 18.3912 -0.091
      vertex 47.2251 19.527 -0.091
    endloop
  endfacet
  facet normal -0 0 1
    outer loop
      vertex 39.0098 17.3019 -0.091
      vertex 39.1903 16.7161 -0.091
      vertex 47.2251 19.527 -0.091
    endloop
  endfacet
  facet normal 0 0 1
    outer loop
      vertex 39.338 16.1154 -0.091
      vertex 47.7202 17.227 -0.091
      vertex 47.5036 18.3912 -0.091
    endloop
  endfacet
  facet normal -0 0 1
    outer loop
      vertex 39.1903 16.7161 -0.091
      vertex 39.338 16.1154 -0.091
      vertex 47.5036 18.3912 -0.091
    endloop
  endfacet
  facet normal 0 0 1
    outer loop
      vertex 47.8749 16.0343 -0.091
      vertex 39.4528 15.4998 -0.091
      vertex 39.5349 14.8693 -0.091
    endloop
  endfacet
  facet normal 0 0 1
    outer loop
      vertex 47.8749 16.0343 -0.091
      vertex 39.5349 14.8693 -0.091
      vertex 47.9677 14.8132 -0.091
    endloop
  endfacet
  facet normal 0 0 1
    outer loop
      vertex 47.9677 14.8132 -0.091
      vertex 39.5841 14.2239 -0.091
      vertex 47.9987 13.5636 -0.091
    endloop
  endfacet
  facet normal 0 0 1
    outer loop
      vertex 39.5841 14.2239 -0.091
      vertex 39.6005 13.5636 -0.091
      vertex 47.9987 13.5636 -0.091
    endloop
  endfacet
  facet normal 0 0 1
    outer loop
      vertex 47.9987 13.5636 -0.091
      vertex 39.5841 12.9032 -0.091
      vertex 47.9679 12.3139 -0.091
    endloop
  endfacet
  facet normal 0 0 1
    outer loop
      vertex 39.5841 12.9032 -0.091
      vertex 39.5349 12.2578 -0.091
      vertex 47.9679 12.3139 -0.091
    endloop
  endfacet
  facet normal 0 0 1
    outer loop
      vertex 39.5349 12.2578 -0.091
      vertex 39.4528 11.6273 -0.091
      vertex 47.8754 11.0923 -0.091
    endloop
  endfacet
  facet normal 0 0 1
    outer loop
      vertex 39.4528 11.6273 -0.091
      vertex 47.7214 9.89893 -0.091
      vertex 47.8754 11.0923 -0.091
    endloop
  endfacet
  facet normal 0 0 1
    outer loop
      vertex 39.338 11.0118 -0.091
      vertex 47.5057 8.73373 -0.091
      vertex 47.7214 9.89893 -0.091
    endloop
  endfacet
  facet normal -0 0 1
    outer loop
      vertex 39.1903 10.4111 -0.091
      vertex 47.5057 8.73373 -0.091
      vertex 39.338 11.0118 -0.091
    endloop
  endfacet
  facet normal -0 0 1
    outer loop
      vertex 39.0098 9.82536 -0.091
      vertex 47.2284 7.59669 -0.091
      vertex 39.1903 10.4111 -0.091
    endloop
  endfacet
  facet normal 0 -0 1
    outer loop
      vertex 46.8895 6.48784 -0.091
      vertex 47.2284 7.59669 -0.091
      vertex 39.0098 9.82536 -0.091
    endloop
  endfacet
  facet normal 0 -0 1
    outer loop
      vertex 46.489 5.40715 -0.091
      vertex 46.8895 6.48784 -0.091
      vertex 38.7965 9.25453 -0.091
    endloop
  endfacet
  facet normal 0 0 1
    outer loop
      vertex 46.489 5.40715 -0.091
      vertex 38.7965 9.25453 -0.091
      vertex 38.5504 8.69862 -0.091
    endloop
  endfacet
  facet normal -0 0 1
    outer loop
      vertex 37.9598 7.63155 -0.091
      vertex 45.5031 3.33028 -0.091
      vertex 38.2715 8.15762 -0.091
    endloop
  endfacet
  facet normal -0 0 1
    outer loop
      vertex 37.6152 7.12038 -0.091
      vertex 44.9177 2.33411 -0.091
      vertex 37.9598 7.63155 -0.091
    endloop
  endfacet
  facet normal 0 -0 1
    outer loop
      vertex 44.2707 1.3661 -0.091
      vertex 44.9177 2.33411 -0.091
      vertex 37.6152 7.12038 -0.091
    endloop
  endfacet
  facet normal 0 0 1
    outer loop
      vertex 44.2707 1.3661 -0.091
      vertex 37.6152 7.12038 -0.091
      vertex 37.2379 6.62413 -0.091
    endloop
  endfacet
  facet normal 0 0 1
    outer loop
      vertex 44.2707 1.3661 -0.091
      vertex 37.2379 6.62413 -0.091
      vertex 43.5621 0.42627 -0.091
    endloop
  endfacet
  facet normal 0 0 1
    outer loop
      vertex 37.2379 6.62413 -0.091
      vertex 36.8277 6.14281 -0.091
      vertex 43.5621 0.42627 -0.091
    endloop
  endfacet
  facet normal 0 0 1
    outer loop
      vertex 36.8277 6.14281 -0.091
      vertex 36.3944 5.68706 -0.091
      vertex 43.5621 0.42627 -0.091
    endloop
  endfacet
  facet normal 0 0 1
    outer loop
      vertex 36.3944 5.68706 -0.091
      vertex 42.7918 -0.485382 -0.091
      vertex 43.5621 0.42627 -0.091
    endloop
  endfacet
  facet normal 0 -0 1
    outer loop
      vertex 42.7076 -0.571533 -0.091
      vertex 42.7918 -0.485382 -0.091
      vertex 36.3944 5.68706 -0.091
    endloop
  endfacet
  facet normal 0 0 1
    outer loop
      vertex 42.7076 -0.571533 -0.091
      vertex 36.3944 5.68706 -0.091
      vertex 42.6228 -0.6577 -0.091
    endloop
  endfacet
  facet normal 0 0 1
    outer loop
      vertex 36.3944 5.68706 -0.091
      vertex 42.5809 -0.699997 -0.091
      vertex 42.6228 -0.6577 -0.091
    endloop
  endfacet
  facet normal -0 0 1
    outer loop
      vertex 35.9477 5.26776 -0.091
      vertex 42.5809 -0.699997 -0.091
      vertex 36.3944 5.68706 -0.091
    endloop
  endfacet
  facet normal -0 0 1
    outer loop
      vertex 35.4875 4.88493 -0.091
      vertex 42.5809 -0.699997 -0.091
      vertex 35.9477 5.26776 -0.091
    endloop
  endfacet
  facet normal -0 0 1
    outer loop
      vertex 35.014 4.53856 -0.091
      vertex 42.5809 -0.699997 -0.091
      vertex 35.4875 4.88493 -0.091
    endloop
  endfacet
  facet normal -0 0 1
    outer loop
      vertex 34.527 4.22865 -0.091
      vertex 42.5809 -0.699997 -0.091
      vertex 35.014 4.53856 -0.091
    endloop
  endfacet
  facet normal -0 0 1
    outer loop
      vertex 34.0266 3.9552 -0.091
      vertex 42.5809 -0.699997 -0.091
      vertex 34.527 4.22865 -0.091
    endloop
  endfacet
  facet normal -0 0 1
    outer loop
      vertex 33.5127 3.71822 -0.091
      vertex 42.5809 -0.699997 -0.091
      vertex 34.0266 3.9552 -0.091
    endloop
  endfacet
  facet normal -0 0 1
    outer loop
      vertex 32.9855 3.51768 -0.091
      vertex 42.5809 -0.699997 -0.091
      vertex 33.5127 3.71822 -0.091
    endloop
  endfacet
  facet normal -0 0 1
    outer loop
      vertex 32.4448 3.35362 -0.091
      vertex 42.5809 -0.699997 -0.091
      vertex 32.9855 3.51768 -0.091
    endloop
  endfacet
  facet normal -0 0 1
    outer loop
      vertex 31.8907 3.22601 -0.091
      vertex 42.5809 -0.699997 -0.091
      vertex 32.4448 3.35362 -0.091
    endloop
  endfacet
  facet normal -0 0 1
    outer loop
      vertex 31.3231 3.13486 -0.091
      vertex 42.5809 -0.699997 -0.091
      vertex 31.8907 3.22601 -0.091
    endloop
  endfacet
  facet normal -0 0 1
    outer loop
      vertex 30.7422 3.08017 -0.091
      vertex 42.5809 -0.699997 -0.091
      vertex 31.3231 3.13486 -0.091
    endloop
  endfacet
  facet normal -0 0 1
    outer loop
      vertex 30.1478 3.06194 -0.091
      vertex 42.5809 -0.699997 -0.091
      vertex 30.7422 3.08017 -0.091
    endloop
  endfacet
  facet normal 0.712738 -0.701431 0
    outer loop
      vertex 42.7076 -0.571533 -0.391
      vertex 42.6228 -0.6577 -0.091
      vertex 42.6228 -0.6577 -0.391
    endloop
  endfacet
  facet normal 0.712738 -0.701431 0
    outer loop
      vertex 42.7076 -0.571533 -0.391
      vertex 42.7076 -0.571533 -0.091
      vertex 42.6228 -0.6577 -0.091
    endloop
  endfacet
  facet normal 0.715158 -0.698963 0
    outer loop
      vertex 42.7918 -0.485382 -0.391
      vertex 42.7076 -0.571533 -0.091
      vertex 42.7076 -0.571533 -0.391
    endloop
  endfacet
  facet normal 0.715158 -0.698963 0
    outer loop
      vertex 42.7918 -0.485382 -0.391
      vertex 42.7918 -0.485382 -0.091
      vertex 42.7076 -0.571533 -0.091
    endloop
  endfacet
  facet normal 0.76384 -0.645406 0
    outer loop
      vertex 43.5621 0.42627 -0.391
      vertex 42.7918 -0.485382 -0.091
      vertex 42.7918 -0.485382 -0.391
    endloop
  endfacet
  facet normal 0.76384 -0.645406 0
    outer loop
      vertex 43.5621 0.42627 -0.391
      vertex 43.5621 0.42627 -0.091
      vertex 42.7918 -0.485382 -0.091
    endloop
  endfacet
  facet normal 0.798477 -0.602025 0
    outer loop
      vertex 44.2707 1.3661 -0.391
      vertex 43.5621 0.42627 -0.091
      vertex 43.5621 0.42627 -0.391
    endloop
  endfacet
  facet normal 0.798477 -0.602025 0
    outer loop
      vertex 44.2707 1.3661 -0.391
      vertex 44.2707 1.3661 -0.091
      vertex 43.5621 0.42627 -0.091
    endloop
  endfacet
  facet normal 0.831392 -0.555687 0
    outer loop
      vertex 44.9177 2.33411 -0.391
      vertex 44.2707 1.3661 -0.091
      vertex 44.2707 1.3661 -0.391
    endloop
  endfacet
  facet normal 0.831392 -0.555687 0
    outer loop
      vertex 44.9177 2.33411 -0.391
      vertex 44.9177 2.33411 -0.091
      vertex 44.2707 1.3661 -0.091
    endloop
  endfacet
  facet normal 0.862154 -0.506646 0
    outer loop
      vertex 45.5031 3.33028 -0.391
      vertex 44.9177 2.33411 -0.091
      vertex 44.9177 2.33411 -0.391
    endloop
  endfacet
  facet normal 0.862154 -0.506646 0
    outer loop
      vertex 45.5031 3.33028 -0.391
      vertex 45.5031 3.33028 -0.091
      vertex 44.9177 2.33411 -0.091
    endloop
  endfacet
  facet normal 0.890349 -0.455279 0
    outer loop
      vertex 46.0269 4.35463 -0.391
      vertex 45.5031 3.33028 -0.091
      vertex 45.5031 3.33028 -0.391
    endloop
  endfacet
  facet normal 0.890349 -0.455279 0
    outer loop
      vertex 46.0269 4.35463 -0.391
      vertex 46.0269 4.35463 -0.091
      vertex 45.5031 3.33028 -0.091
    endloop
  endfacet
  facet normal 0.915638 -0.402003 0
    outer loop
      vertex 46.489 5.40715 -0.391
      vertex 46.0269 4.35463 -0.091
      vertex 46.0269 4.35463 -0.391
    endloop
  endfacet
  facet normal 0.915638 -0.402003 0
    outer loop
      vertex 46.489 5.40715 -0.391
      vertex 46.489 5.40715 -0.091
      vertex 46.0269 4.35463 -0.091
    endloop
  endfacet
  facet normal 0.93768 -0.347501 0
    outer loop
      vertex 46.8895 6.48784 -0.391
      vertex 46.489 5.40715 -0.091
      vertex 46.489 5.40715 -0.391
    endloop
  endfacet
  facet normal 0.93768 -0.347501 0
    outer loop
      vertex 46.8895 6.48784 -0.391
      vertex 46.8895 6.48784 -0.091
      vertex 46.489 5.40715 -0.091
    endloop
  endfacet
  facet normal 0.956331 -0.292285 0
    outer loop
      vertex 47.2284 7.59669 -0.391
      vertex 46.8895 6.48784 -0.091
      vertex 46.8895 6.48784 -0.391
    endloop
  endfacet
  facet normal 0.956331 -0.292285 0
    outer loop
      vertex 47.2284 7.59669 -0.391
      vertex 47.2284 7.59669 -0.091
      vertex 46.8895 6.48784 -0.091
    endloop
  endfacet
  facet normal 0.971526 -0.236935 0
    outer loop
      vertex 47.5057 8.73373 -0.391
      vertex 47.2284 7.59669 -0.091
      vertex 47.2284 7.59669 -0.391
    endloop
  endfacet
  facet normal 0.971526 -0.236935 0
    outer loop
      vertex 47.5057 8.73373 -0.391
      vertex 47.5057 8.73373 -0.091
      vertex 47.2284 7.59669 -0.091
    endloop
  endfacet
  facet normal 0.983294 -0.182026 0
    outer loop
      vertex 47.7214 9.89893 -0.391
      vertex 47.5057 8.73373 -0.091
      vertex 47.5057 8.73373 -0.391
    endloop
  endfacet
  facet normal 0.983294 -0.182026 0
    outer loop
      vertex 47.7214 9.89893 -0.391
      vertex 47.7214 9.89893 -0.091
      vertex 47.5057 8.73373 -0.091
    endloop
  endfacet
  facet normal 0.991776 -0.127985 0
    outer loop
      vertex 47.8754 11.0923 -0.391
      vertex 47.7214 9.89893 -0.091
      vertex 47.7214 9.89893 -0.391
    endloop
  endfacet
  facet normal 0.991776 -0.127985 0
    outer loop
      vertex 47.8754 11.0923 -0.391
      vertex 47.8754 11.0923 -0.091
      vertex 47.7214 9.89893 -0.091
    endloop
  endfacet
  facet normal 0.997145 -0.0755042 0
    outer loop
      vertex 47.9679 12.3139 -0.391
      vertex 47.8754 11.0923 -0.091
      vertex 47.8754 11.0923 -0.391
    endloop
  endfacet
  facet normal 0.997145 -0.0755042 0
    outer loop
      vertex 47.9679 12.3139 -0.391
      vertex 47.9679 12.3139 -0.091
      vertex 47.8754 11.0923 -0.091
    endloop
  endfacet
  facet normal 0.999696 -0.0246384 0
    outer loop
      vertex 47.9987 13.5636 -0.391
      vertex 47.9679 12.3139 -0.091
      vertex 47.9679 12.3139 -0.391
    endloop
  endfacet
  facet normal 0.999696 -0.0246384 0
    outer loop
      vertex 47.9987 13.5636 -0.391
      vertex 47.9987 13.5636 -0.091
      vertex 47.9679 12.3139 -0.091
    endloop
  endfacet
  facet normal 0.999692 0.0248003 0
    outer loop
      vertex 47.9677 14.8132 -0.391
      vertex 47.9987 13.5636 -0.091
      vertex 47.9987 13.5636 -0.391
    endloop
  endfacet
  facet normal 0.999692 0.0248003 -0
    outer loop
      vertex 47.9677 14.8132 -0.391
      vertex 47.9677 14.8132 -0.091
      vertex 47.9987 13.5636 -0.091
    endloop
  endfacet
  facet normal 0.997125 0.0757785 0
    outer loop
      vertex 47.8749 16.0343 -0.391
      vertex 47.9677 14.8132 -0.091
      vertex 47.9677 14.8132 -0.391
    endloop
  endfacet
  facet normal 0.997125 0.0757785 -0
    outer loop
      vertex 47.8749 16.0343 -0.391
      vertex 47.8749 16.0343 -0.091
      vertex 47.9677 14.8132 -0.091
    endloop
  endfacet
  facet normal 0.991693 0.128628 0
    outer loop
      vertex 47.7202 17.227 -0.391
      vertex 47.8749 16.0343 -0.091
      vertex 47.8749 16.0343 -0.391
    endloop
  endfacet
  facet normal 0.991693 0.128628 -0
    outer loop
      vertex 47.7202 17.227 -0.391
      vertex 47.7202 17.227 -0.091
      vertex 47.8749 16.0343 -0.091
    endloop
  endfacet
  facet normal 0.983129 0.182912 0
    outer loop
      vertex 47.5036 18.3912 -0.391
      vertex 47.7202 17.227 -0.091
      vertex 47.7202 17.227 -0.391
    endloop
  endfacet
  facet normal 0.983129 0.182912 -0
    outer loop
      vertex 47.5036 18.3912 -0.391
      vertex 47.5036 18.3912 -0.091
      vertex 47.7202 17.227 -0.091
    endloop
  endfacet
  facet normal 0.971229 0.238147 0
    outer loop
      vertex 47.2251 19.527 -0.391
      vertex 47.5036 18.3912 -0.091
      vertex 47.5036 18.3912 -0.391
    endloop
  endfacet
  facet normal 0.971229 0.238147 -0
    outer loop
      vertex 47.2251 19.527 -0.391
      vertex 47.2251 19.527 -0.091
      vertex 47.5036 18.3912 -0.091
    endloop
  endfacet
  facet normal 0.955854 0.293843 0
    outer loop
      vertex 46.8847 20.6343 -0.391
      vertex 47.2251 19.527 -0.091
      vertex 47.2251 19.527 -0.391
    endloop
  endfacet
  facet normal 0.955854 0.293843 -0
    outer loop
      vertex 46.8847 20.6343 -0.391
      vertex 46.8847 20.6343 -0.091
      vertex 47.2251 19.527 -0.091
    endloop
  endfacet
  facet normal 0.936981 0.349381 0
    outer loop
      vertex 46.4824 21.7132 -0.391
      vertex 46.8847 20.6343 -0.091
      vertex 46.8847 20.6343 -0.391
    endloop
  endfacet
  facet normal 0.936981 0.349381 -0
    outer loop
      vertex 46.4824 21.7132 -0.391
      vertex 46.4824 21.7132 -0.091
      vertex 46.8847 20.6343 -0.091
    endloop
  endfacet
  facet normal 0.914678 0.404182 0
    outer loop
      vertex 46.0182 22.7637 -0.391
      vertex 46.4824 21.7132 -0.091
      vertex 46.4824 21.7132 -0.391
    endloop
  endfacet
  facet normal 0.914678 0.404182 -0
    outer loop
      vertex 46.0182 22.7637 -0.391
      vertex 46.0182 22.7637 -0.091
      vertex 46.4824 21.7132 -0.091
    endloop
  endfacet
  facet normal 0.889093 0.457727 0
    outer loop
      vertex 45.4921 23.7856 -0.391
      vertex 46.0182 22.7637 -0.091
      vertex 46.0182 22.7637 -0.391
    endloop
  endfacet
  facet normal 0.889093 0.457727 -0
    outer loop
      vertex 45.4921 23.7856 -0.391
      vertex 45.4921 23.7856 -0.091
      vertex 46.0182 22.7637 -0.091
    endloop
  endfacet
  facet normal 0.860595 0.509289 0
    outer loop
      vertex 44.9041 24.7792 -0.391
      vertex 45.4921 23.7856 -0.091
      vertex 45.4921 23.7856 -0.391
    endloop
  endfacet
  facet normal 0.860595 0.509289 -0
    outer loop
      vertex 44.9041 24.7792 -0.391
      vertex 44.9041 24.7792 -0.091
      vertex 45.4921 23.7856 -0.091
    endloop
  endfacet
  facet normal 0.829503 0.558503 0
    outer loop
      vertex 44.2543 25.7443 -0.391
      vertex 44.9041 24.7792 -0.091
      vertex 44.9041 24.7792 -0.391
    endloop
  endfacet
  facet normal 0.829503 0.558503 -0
    outer loop
      vertex 44.2543 25.7443 -0.391
      vertex 44.2543 25.7443 -0.091
      vertex 44.9041 24.7792 -0.091
    endloop
  endfacet
  facet normal 0.79621 0.605021 0
    outer loop
      vertex 43.5426 26.6809 -0.391
      vertex 44.2543 25.7443 -0.091
      vertex 44.2543 25.7443 -0.391
    endloop
  endfacet
  facet normal 0.79621 0.605021 -0
    outer loop
      vertex 43.5426 26.6809 -0.391
      vertex 43.5426 26.6809 -0.091
      vertex 44.2543 25.7443 -0.091
    endloop
  endfacet
  facet normal 0.761223 0.64849 0
    outer loop
      vertex 42.7689 27.5891 -0.391
      vertex 43.5426 26.6809 -0.091
      vertex 43.5426 26.6809 -0.391
    endloop
  endfacet
  facet normal 0.761223 0.64849 -0
    outer loop
      vertex 42.7689 27.5891 -0.391
      vertex 42.7689 27.5891 -0.091
      vertex 43.5426 26.6809 -0.091
    endloop
  endfacet
  facet normal 0.724713 0.689051 0
    outer loop
      vertex 41.9516 28.4487 -0.391
      vertex 42.7689 27.5891 -0.091
      vertex 42.7689 27.5891 -0.391
    endloop
  endfacet
  facet normal 0.724713 0.689051 -0
    outer loop
      vertex 41.9516 28.4487 -0.391
      vertex 41.9516 28.4487 -0.091
      vertex 42.7689 27.5891 -0.091
    endloop
  endfacet
  facet normal 0.684212 0.729284 0
    outer loop
      vertex 41.1086 29.2396 -0.391
      vertex 41.9516 28.4487 -0.091
      vertex 41.9516 28.4487 -0.391
    endloop
  endfacet
  facet normal 0.684212 0.729284 -0
    outer loop
      vertex 41.1086 29.2396 -0.391
      vertex 41.1086 29.2396 -0.091
      vertex 41.9516 28.4487 -0.091
    endloop
  endfacet
  facet normal 0.639226 0.769019 0
    outer loop
      vertex 40.24 29.9616 -0.391
      vertex 41.1086 29.2396 -0.091
      vertex 41.1086 29.2396 -0.391
    endloop
  endfacet
  facet normal 0.639226 0.769019 -0
    outer loop
      vertex 40.24 29.9616 -0.391
      vertex 40.24 29.9616 -0.091
      vertex 41.1086 29.2396 -0.091
    endloop
  endfacet
  facet normal 0.589969 0.807426 0
    outer loop
      vertex 39.3459 30.6149 -0.391
      vertex 40.24 29.9616 -0.091
      vertex 40.24 29.9616 -0.391
    endloop
  endfacet
  facet normal 0.589969 0.807426 -0
    outer loop
      vertex 39.3459 30.6149 -0.391
      vertex 39.3459 30.6149 -0.091
      vertex 40.24 29.9616 -0.091
    endloop
  endfacet
  facet normal 0.536377 0.843979 0
    outer loop
      vertex 38.4262 31.1994 -0.391
      vertex 39.3459 30.6149 -0.091
      vertex 39.3459 30.6149 -0.391
    endloop
  endfacet
  facet normal 0.536377 0.843979 -0
    outer loop
      vertex 38.4262 31.1994 -0.391
      vertex 38.4262 31.1994 -0.091
      vertex 39.3459 30.6149 -0.091
    endloop
  endfacet
  facet normal 0.478982 0.877825 0
    outer loop
      vertex 37.4809 31.7152 -0.391
      vertex 38.4262 31.1994 -0.091
      vertex 38.4262 31.1994 -0.391
    endloop
  endfacet
  facet normal 0.478982 0.877825 -0
    outer loop
      vertex 37.4809 31.7152 -0.391
      vertex 37.4809 31.7152 -0.091
      vertex 38.4262 31.1994 -0.091
    endloop
  endfacet
  facet normal 0.418168 0.90837 0
    outer loop
      vertex 36.5099 32.1622 -0.391
      vertex 37.4809 31.7152 -0.091
      vertex 37.4809 31.7152 -0.391
    endloop
  endfacet
  facet normal 0.418168 0.90837 -0
    outer loop
      vertex 36.5099 32.1622 -0.391
      vertex 36.5099 32.1622 -0.091
      vertex 37.4809 31.7152 -0.091
    endloop
  endfacet
  facet normal 0.354832 0.93493 0
    outer loop
      vertex 35.5134 32.5404 -0.391
      vertex 36.5099 32.1622 -0.091
      vertex 36.5099 32.1622 -0.391
    endloop
  endfacet
  facet normal 0.354832 0.93493 -0
    outer loop
      vertex 35.5134 32.5404 -0.391
      vertex 35.5134 32.5404 -0.091
      vertex 36.5099 32.1622 -0.091
    endloop
  endfacet
  facet normal 0.289838 0.957076 0
    outer loop
      vertex 34.4914 32.8499 -0.391
      vertex 35.5134 32.5404 -0.091
      vertex 35.5134 32.5404 -0.391
    endloop
  endfacet
  facet normal 0.289838 0.957076 -0
    outer loop
      vertex 34.4914 32.8499 -0.391
      vertex 34.4914 32.8499 -0.091
      vertex 35.5134 32.5404 -0.091
    endloop
  endfacet
  facet normal 0.22382 0.974631 0
    outer loop
      vertex 33.4437 33.0905 -0.391
      vertex 34.4914 32.8499 -0.091
      vertex 34.4914 32.8499 -0.391
    endloop
  endfacet
  facet normal 0.22382 0.974631 -0
    outer loop
      vertex 33.4437 33.0905 -0.391
      vertex 33.4437 33.0905 -0.091
      vertex 34.4914 32.8499 -0.091
    endloop
  endfacet
  facet normal 0.158234 0.987402 0
    outer loop
      vertex 32.3704 33.2625 -0.391
      vertex 33.4437 33.0905 -0.091
      vertex 33.4437 33.0905 -0.391
    endloop
  endfacet
  facet normal 0.158234 0.987402 -0
    outer loop
      vertex 32.3704 33.2625 -0.391
      vertex 32.3704 33.2625 -0.091
      vertex 33.4437 33.0905 -0.091
    endloop
  endfacet
  facet normal 0.0934193 0.995627 0
    outer loop
      vertex 31.2716 33.3656 -0.391
      vertex 32.3704 33.2625 -0.091
      vertex 32.3704 33.2625 -0.391
    endloop
  endfacet
  facet normal 0.0934193 0.995627 -0
    outer loop
      vertex 31.2716 33.3656 -0.391
      vertex 31.2716 33.3656 -0.091
      vertex 32.3704 33.2625 -0.091
    endloop
  endfacet
  facet normal 0.0305798 0.999532 0
    outer loop
      vertex 30.1472 33.4 -0.391
      vertex 31.2716 33.3656 -0.091
      vertex 31.2716 33.3656 -0.391
    endloop
  endfacet
  facet normal 0.0305798 0.999532 -0
    outer loop
      vertex 30.1472 33.4 -0.391
      vertex 30.1472 33.4 -0.091
      vertex 31.2716 33.3656 -0.091
    endloop
  endfacet
  facet normal 0 1 0
    outer loop
      vertex 10.1959 33.4 -0.391
      vertex 30.1472 33.4 -0.091
      vertex 30.1472 33.4 -0.391
    endloop
  endfacet
  facet normal 0 1 0
    outer loop
      vertex 10.1959 33.4 -0.391
      vertex 10.1959 33.4 -0.091
      vertex 30.1472 33.4 -0.091
    endloop
  endfacet
  facet normal -0.0312681 0.999511 0
    outer loop
      vertex 9.93378 33.3918 -0.391
      vertex 10.1959 33.4 -0.091
      vertex 10.1959 33.4 -0.391
    endloop
  endfacet
  facet normal -0.0312681 0.999511 0
    outer loop
      vertex 9.93378 33.3918 -0.391
      vertex 9.93378 33.3918 -0.091
      vertex 10.1959 33.4 -0.091
    endloop
  endfacet
  facet normal -0.0947212 0.995504 0
    outer loop
      vertex 9.67734 33.3674 -0.391
      vertex 9.93378 33.3918 -0.091
      vertex 9.93378 33.3918 -0.391
    endloop
  endfacet
  facet normal -0.0947212 0.995504 0
    outer loop
      vertex 9.67734 33.3674 -0.391
      vertex 9.67734 33.3674 -0.091
      vertex 9.93378 33.3918 -0.091
    endloop
  endfacet
  facet normal -0.160247 0.987077 0
    outer loop
      vertex 9.42664 33.3267 -0.391
      vertex 9.67734 33.3674 -0.091
      vertex 9.67734 33.3674 -0.391
    endloop
  endfacet
  facet normal -0.160247 0.987077 0
    outer loop
      vertex 9.42664 33.3267 -0.391
      vertex 9.42664 33.3267 -0.091
      vertex 9.67734 33.3674 -0.091
    endloop
  endfacet
  facet normal -0.226619 0.973984 0
    outer loop
      vertex 9.18166 33.2697 -0.391
      vertex 9.42664 33.3267 -0.091
      vertex 9.42664 33.3267 -0.391
    endloop
  endfacet
  facet normal -0.226619 0.973984 0
    outer loop
      vertex 9.18166 33.2697 -0.391
      vertex 9.18166 33.2697 -0.091
      vertex 9.42664 33.3267 -0.091
    endloop
  endfacet
  facet normal -0.293266 0.956031 0
    outer loop
      vertex 8.94238 33.1963 -0.391
      vertex 9.18166 33.2697 -0.091
      vertex 9.18166 33.2697 -0.391
    endloop
  endfacet
  facet normal -0.293266 0.956031 0
    outer loop
      vertex 8.94238 33.1963 -0.391
      vertex 8.94238 33.1963 -0.091
      vertex 9.18166 33.2697 -0.091
    endloop
  endfacet
  facet normal -0.358215 0.933639 0
    outer loop
      vertex 8.70885 33.1067 -0.391
      vertex 8.94238 33.1963 -0.091
      vertex 8.94238 33.1963 -0.391
    endloop
  endfacet
  facet normal -0.358215 0.933639 0
    outer loop
      vertex 8.70885 33.1067 -0.391
      vertex 8.70885 33.1067 -0.091
      vertex 8.94238 33.1963 -0.091
    endloop
  endfacet
  facet normal -0.421525 0.906817 0
    outer loop
      vertex 8.48103 33.0008 -0.391
      vertex 8.70885 33.1067 -0.091
      vertex 8.70885 33.1067 -0.391
    endloop
  endfacet
  facet normal -0.421525 0.906817 0
    outer loop
      vertex 8.48103 33.0008 -0.391
      vertex 8.48103 33.0008 -0.091
      vertex 8.70885 33.1067 -0.091
    endloop
  endfacet
  facet normal -0.482055 0.876141 0
    outer loop
      vertex 8.25893 32.8786 -0.391
      vertex 8.48103 33.0008 -0.091
      vertex 8.48103 33.0008 -0.391
    endloop
  endfacet
  facet normal -0.482055 0.876141 0
    outer loop
      vertex 8.25893 32.8786 -0.391
      vertex 8.25893 32.8786 -0.091
      vertex 8.48103 33.0008 -0.091
    endloop
  endfacet
  facet normal -0.538842 0.842407 0
    outer loop
      vertex 8.04256 32.7402 -0.391
      vertex 8.25893 32.8786 -0.091
      vertex 8.25893 32.8786 -0.391
    endloop
  endfacet
  facet normal -0.538842 0.842407 0
    outer loop
      vertex 8.04256 32.7402 -0.391
      vertex 8.04256 32.7402 -0.091
      vertex 8.25893 32.8786 -0.091
    endloop
  endfacet
  facet normal -0.592168 0.805815 0
    outer loop
      vertex 7.83191 32.5854 -0.391
      vertex 8.04256 32.7402 -0.091
      vertex 8.04256 32.7402 -0.391
    endloop
  endfacet
  facet normal -0.592168 0.805815 0
    outer loop
      vertex 7.83191 32.5854 -0.391
      vertex 7.83191 32.5854 -0.091
      vertex 8.04256 32.7402 -0.091
    endloop
  endfacet
  facet normal -0.640903 0.767622 0
    outer loop
      vertex 7.62698 32.4143 -0.391
      vertex 7.83191 32.5854 -0.091
      vertex 7.83191 32.5854 -0.391
    endloop
  endfacet
  facet normal -0.640903 0.767622 0
    outer loop
      vertex 7.62698 32.4143 -0.391
      vertex 7.62698 32.4143 -0.091
      vertex 7.83191 32.5854 -0.091
    endloop
  endfacet
  facet normal -0.685205 0.72835 0
    outer loop
      vertex 7.42778 32.2269 -0.391
      vertex 7.62698 32.4143 -0.091
      vertex 7.62698 32.4143 -0.391
    endloop
  endfacet
  facet normal -0.685205 0.72835 0
    outer loop
      vertex 7.42778 32.2269 -0.391
      vertex 7.42778 32.2269 -0.091
      vertex 7.62698 32.4143 -0.091
    endloop
  endfacet
  facet normal -0.724893 0.688862 0
    outer loop
      vertex 7.2343 32.0233 -0.391
      vertex 7.42778 32.2269 -0.091
      vertex 7.42778 32.2269 -0.391
    endloop
  endfacet
  facet normal -0.724893 0.688862 0
    outer loop
      vertex 7.2343 32.0233 -0.391
      vertex 7.2343 32.0233 -0.091
      vertex 7.42778 32.2269 -0.091
    endloop
  endfacet
  facet normal -0.761179 0.648542 0
    outer loop
      vertex 7.05103 31.8082 -0.391
      vertex 7.2343 32.0233 -0.091
      vertex 7.2343 32.0233 -0.391
    endloop
  endfacet
  facet normal -0.761179 0.648542 0
    outer loop
      vertex 7.05103 31.8082 -0.391
      vertex 7.05103 31.8082 -0.091
      vertex 7.2343 32.0233 -0.091
    endloop
  endfacet
  facet normal -0.795511 0.605939 0
    outer loop
      vertex 6.88239 31.5868 -0.391
      vertex 7.05103 31.8082 -0.091
      vertex 7.05103 31.8082 -0.391
    endloop
  endfacet
  facet normal -0.795511 0.605939 0
    outer loop
      vertex 6.88239 31.5868 -0.391
      vertex 6.88239 31.5868 -0.091
      vertex 7.05103 31.8082 -0.091
    endloop
  endfacet
  facet normal -0.828537 0.559935 0
    outer loop
      vertex 6.72844 31.359 -0.391
      vertex 6.88239 31.5868 -0.091
      vertex 6.88239 31.5868 -0.391
    endloop
  endfacet
  facet normal -0.828537 0.559935 0
    outer loop
      vertex 6.72844 31.359 -0.391
      vertex 6.72844 31.359 -0.091
      vertex 6.88239 31.5868 -0.091
    endloop
  endfacet
  facet normal -0.85935 0.511388 0
    outer loop
      vertex 6.58913 31.1249 -0.391
      vertex 6.72844 31.359 -0.091
      vertex 6.72844 31.359 -0.391
    endloop
  endfacet
  facet normal -0.85935 0.511388 0
    outer loop
      vertex 6.58913 31.1249 -0.391
      vertex 6.58913 31.1249 -0.091
      vertex 6.72844 31.359 -0.091
    endloop
  endfacet
  facet normal -0.887772 0.460283 0
    outer loop
      vertex 6.46449 30.8845 -0.391
      vertex 6.58913 31.1249 -0.091
      vertex 6.58913 31.1249 -0.391
    endloop
  endfacet
  facet normal -0.887772 0.460283 0
    outer loop
      vertex 6.46449 30.8845 -0.391
      vertex 6.46449 30.8845 -0.091
      vertex 6.58913 31.1249 -0.091
    endloop
  endfacet
  facet normal -0.913425 0.407007 0
    outer loop
      vertex 6.35452 30.6377 -0.391
      vertex 6.46449 30.8845 -0.091
      vertex 6.46449 30.8845 -0.391
    endloop
  endfacet
  facet normal -0.913425 0.407007 0
    outer loop
      vertex 6.35452 30.6377 -0.391
      vertex 6.35452 30.6377 -0.091
      vertex 6.46449 30.8845 -0.091
    endloop
  endfacet
  facet normal -0.935833 0.352444 0
    outer loop
      vertex 6.2592 30.3846 -0.391
      vertex 6.35452 30.6377 -0.091
      vertex 6.35452 30.6377 -0.391
    endloop
  endfacet
  facet normal -0.935833 0.352444 0
    outer loop
      vertex 6.2592 30.3846 -0.391
      vertex 6.2592 30.3846 -0.091
      vertex 6.35452 30.6377 -0.091
    endloop
  endfacet
  facet normal -0.954965 0.29672 0
    outer loop
      vertex 6.17857 30.1251 -0.391
      vertex 6.2592 30.3846 -0.091
      vertex 6.2592 30.3846 -0.391
    endloop
  endfacet
  facet normal -0.954965 0.29672 0
    outer loop
      vertex 6.17857 30.1251 -0.391
      vertex 6.17857 30.1251 -0.091
      vertex 6.2592 30.3846 -0.091
    endloop
  endfacet
  facet normal -0.970536 0.240954 0
    outer loop
      vertex 6.11258 29.8593 -0.391
      vertex 6.17857 30.1251 -0.091
      vertex 6.17857 30.1251 -0.391
    endloop
  endfacet
  facet normal -0.970536 0.240954 0
    outer loop
      vertex 6.11258 29.8593 -0.391
      vertex 6.11258 29.8593 -0.091
      vertex 6.17857 30.1251 -0.091
    endloop
  endfacet
  facet normal -0.982687 0.185274 0
    outer loop
      vertex 6.06126 29.5871 -0.391
      vertex 6.11258 29.8593 -0.091
      vertex 6.11258 29.8593 -0.391
    endloop
  endfacet
  facet normal -0.982687 0.185274 0
    outer loop
      vertex 6.06126 29.5871 -0.391
      vertex 6.06126 29.5871 -0.091
      vertex 6.11258 29.8593 -0.091
    endloop
  endfacet
  facet normal -0.991452 0.130473 0
    outer loop
      vertex 6.02461 29.3086 -0.391
      vertex 6.06126 29.5871 -0.091
      vertex 6.06126 29.5871 -0.391
    endloop
  endfacet
  facet normal -0.991452 0.130473 0
    outer loop
      vertex 6.02461 29.3086 -0.391
      vertex 6.02461 29.3086 -0.091
      vertex 6.06126 29.5871 -0.091
    endloop
  endfacet
  facet normal -0.99703 0.0770177 0
    outer loop
      vertex 6.00261 29.0238 -0.391
      vertex 6.02461 29.3086 -0.091
      vertex 6.02461 29.3086 -0.391
    endloop
  endfacet
  facet normal -0.99703 0.0770177 0
    outer loop
      vertex 6.00261 29.0238 -0.391
      vertex 6.00261 29.0238 -0.091
      vertex 6.02461 29.3086 -0.091
    endloop
  endfacet
  facet normal -0.999682 0.025198 0
    outer loop
      vertex 5.99527 28.7326 -0.391
      vertex 6.00261 29.0238 -0.091
      vertex 6.00261 29.0238 -0.391
    endloop
  endfacet
  facet normal -0.999682 0.025198 0
    outer loop
      vertex 5.99527 28.7326 -0.391
      vertex 5.99527 28.7326 -0.091
      vertex 6.00261 29.0238 -0.091
    endloop
  endfacet
  facet normal -1 0 0
    outer loop
      vertex 5.99527 -0.699997 -0.391
      vertex 5.99527 28.7326 -0.091
      vertex 5.99527 28.7326 -0.391
    endloop
  endfacet
  facet normal -1 0 0
    outer loop
      vertex 5.99527 -0.699997 -0.391
      vertex 5.99527 -0.699997 -0.091
      vertex 5.99527 28.7326 -0.091
    endloop
  endfacet
  facet normal 0 -1 0
    outer loop
      vertex 42.5809 -0.699997 -0.391
      vertex 5.99527 -0.699997 -0.091
      vertex 5.99527 -0.699997 -0.391
    endloop
  endfacet
  facet normal 0 -1 0
    outer loop
      vertex 42.5809 -0.699997 -0.391
      vertex 42.5809 -0.699997 -0.091
      vertex 5.99527 -0.699997 -0.091
    endloop
  endfacet
  facet normal 0.710433 -0.703765 0
    outer loop
      vertex 42.6228 -0.6577 -0.391
      vertex 42.5809 -0.699997 -0.091
      vertex 42.5809 -0.699997 -0.391
    endloop
  endfacet
  facet normal 0.710433 -0.703765 0
    outer loop
      vertex 42.6228 -0.6577 -0.391
      vertex 42.6228 -0.6577 -0.091
      vertex 42.5809 -0.699997 -0.091
    endloop
  endfacet
  facet normal 1 0 -0
    outer loop
      vertex 14.3935 24.0652 -0.391
      vertex 14.3935 24.0652 -0.091
      vertex 14.3935 3.06194 -0.391
    endloop
  endfacet
  facet normal 1 -0 0
    outer loop
      vertex 14.3935 3.06194 -0.091
      vertex 14.3935 3.06194 -0.391
      vertex 14.3935 24.0652 -0.091
    endloop
  endfacet
  facet normal 0 -1 0
    outer loop
      vertex 30.1478 24.0652 -0.391
      vertex 30.1478 24.0652 -0.091
      vertex 14.3935 24.0652 -0.391
    endloop
  endfacet
  facet normal 0 -1 0
    outer loop
      vertex 14.3935 24.0652 -0.091
      vertex 14.3935 24.0652 -0.391
      vertex 30.1478 24.0652 -0.091
    endloop
  endfacet
  facet normal -0.0306048 -0.999532 0
    outer loop
      vertex 30.7422 24.047 -0.391
      vertex 30.7422 24.047 -0.091
      vertex 30.1478 24.0652 -0.391
    endloop
  endfacet
  facet normal -0.0306048 -0.999532 -0
    outer loop
      vertex 30.1478 24.0652 -0.091
      vertex 30.1478 24.0652 -0.391
      vertex 30.7422 24.047 -0.091
    endloop
  endfacet
  facet normal -0.0937495 -0.995596 0
    outer loop
      vertex 31.3231 23.9923 -0.391
      vertex 31.3231 23.9923 -0.091
      vertex 30.7422 24.047 -0.391
    endloop
  endfacet
  facet normal -0.0937495 -0.995596 -0
    outer loop
      vertex 30.7422 24.047 -0.091
      vertex 30.7422 24.047 -0.391
      vertex 31.3231 23.9923 -0.091
    endloop
  endfacet
  facet normal -0.158472 -0.987363 0
    outer loop
      vertex 31.8907 23.9012 -0.391
      vertex 31.8907 23.9012 -0.091
      vertex 31.3231 23.9923 -0.391
    endloop
  endfacet
  facet normal -0.158472 -0.987363 -0
    outer loop
      vertex 31.3231 23.9923 -0.091
      vertex 31.3231 23.9923 -0.391
      vertex 31.8907 23.9012 -0.091
    endloop
  endfacet
  facet normal -0.22441 -0.974495 0
    outer loop
      vertex 32.4448 23.7736 -0.391
      vertex 32.4448 23.7736 -0.091
      vertex 31.8907 23.9012 -0.391
    endloop
  endfacet
  facet normal -0.22441 -0.974495 -0
    outer loop
      vertex 31.8907 23.9012 -0.091
      vertex 31.8907 23.9012 -0.391
      vertex 32.4448 23.7736 -0.091
    endloop
  endfacet
  facet normal -0.290253 -0.95695 0
    outer loop
      vertex 32.9855 23.6096 -0.391
      vertex 32.9855 23.6096 -0.091
      vertex 32.4448 23.7736 -0.391
    endloop
  endfacet
  facet normal -0.290253 -0.95695 -0
    outer loop
      vertex 32.4448 23.7736 -0.091
      vertex 32.4448 23.7736 -0.391
      vertex 32.9855 23.6096 -0.091
    endloop
  endfacet
  facet normal -0.355472 -0.934687 0
    outer loop
      vertex 33.5127 23.4091 -0.391
      vertex 33.5127 23.4091 -0.091
      vertex 32.9855 23.6096 -0.391
    endloop
  endfacet
  facet normal -0.355472 -0.934687 -0
    outer loop
      vertex 32.9855 23.6096 -0.091
      vertex 32.9855 23.6096 -0.391
      vertex 33.5127 23.4091 -0.091
    endloop
  endfacet
  facet normal -0.418789 -0.908083 0
    outer loop
      vertex 34.0266 23.1721 -0.391
      vertex 34.0266 23.1721 -0.091
      vertex 33.5127 23.4091 -0.391
    endloop
  endfacet
  facet normal -0.418789 -0.908083 -0
    outer loop
      vertex 33.5127 23.4091 -0.091
      vertex 33.5127 23.4091 -0.391
      vertex 34.0266 23.1721 -0.091
    endloop
  endfacet
  facet normal -0.479466 -0.87756 0
    outer loop
      vertex 34.527 22.8987 -0.391
      vertex 34.527 22.8987 -0.091
      vertex 34.0266 23.1721 -0.391
    endloop
  endfacet
  facet normal -0.479466 -0.87756 -0
    outer loop
      vertex 34.0266 23.1721 -0.091
      vertex 34.0266 23.1721 -0.391
      vertex 34.527 22.8987 -0.091
    endloop
  endfacet
  facet normal -0.536741 -0.843747 0
    outer loop
      vertex 35.014 22.5889 -0.391
      vertex 35.014 22.5889 -0.091
      vertex 34.527 22.8987 -0.391
    endloop
  endfacet
  facet normal -0.536741 -0.843747 -0
    outer loop
      vertex 34.527 22.8987 -0.091
      vertex 34.527 22.8987 -0.391
      vertex 35.014 22.5889 -0.091
    endloop
  endfacet
  facet normal -0.590329 -0.807163 0
    outer loop
      vertex 35.4875 22.2426 -0.391
      vertex 35.4875 22.2426 -0.091
      vertex 35.014 22.5889 -0.391
    endloop
  endfacet
  facet normal -0.590329 -0.807163 -0
    outer loop
      vertex 35.014 22.5889 -0.091
      vertex 35.014 22.5889 -0.391
      vertex 35.4875 22.2426 -0.091
    endloop
  endfacet
  facet normal -0.639395 -0.768878 0
    outer loop
      vertex 35.9477 21.8599 -0.391
      vertex 35.9477 21.8599 -0.091
      vertex 35.4875 22.2426 -0.391
    endloop
  endfacet
  facet normal -0.639395 -0.768878 -0
    outer loop
      vertex 35.4875 22.2426 -0.091
      vertex 35.4875 22.2426 -0.391
      vertex 35.9477 21.8599 -0.091
    endloop
  endfacet
  facet normal -0.684305 -0.729196 0
    outer loop
      vertex 36.3944 21.4407 -0.391
      vertex 36.3944 21.4407 -0.091
      vertex 35.9477 21.8599 -0.391
    endloop
  endfacet
  facet normal -0.684305 -0.729196 -0
    outer loop
      vertex 35.9477 21.8599 -0.091
      vertex 35.9477 21.8599 -0.391
      vertex 36.3944 21.4407 -0.091
    endloop
  endfacet
  facet normal -0.724694 -0.689071 0
    outer loop
      vertex 36.8277 20.985 -0.391
      vertex 36.8277 20.985 -0.091
      vertex 36.3944 21.4407 -0.391
    endloop
  endfacet
  facet normal -0.724694 -0.689071 -0
    outer loop
      vertex 36.3944 21.4407 -0.091
      vertex 36.3944 21.4407 -0.391
      vertex 36.8277 20.985 -0.091
    endloop
  endfacet
  facet normal -0.761151 -0.648575 0
    outer loop
      vertex 37.2379 20.5036 -0.391
      vertex 37.2379 20.5036 -0.091
      vertex 36.8277 20.985 -0.391
    endloop
  endfacet
  facet normal -0.761151 -0.648575 -0
    outer loop
      vertex 36.8277 20.985 -0.091
      vertex 36.8277 20.985 -0.391
      vertex 37.2379 20.5036 -0.091
    endloop
  endfacet
  facet normal -0.796134 -0.60512 0
    outer loop
      vertex 37.6152 20.0072 -0.391
      vertex 37.6152 20.0072 -0.091
      vertex 37.2379 20.5036 -0.391
    endloop
  endfacet
  facet normal -0.796134 -0.60512 -0
    outer loop
      vertex 37.2379 20.5036 -0.091
      vertex 37.2379 20.5036 -0.391
      vertex 37.6152 20.0072 -0.091
    endloop
  endfacet
  facet normal -0.829195 -0.55896 0
    outer loop
      vertex 37.9598 19.496 -0.391
      vertex 37.9598 19.496 -0.091
      vertex 37.6152 20.0072 -0.391
    endloop
  endfacet
  facet normal -0.829195 -0.55896 -0
    outer loop
      vertex 37.6152 20.0072 -0.091
      vertex 37.6152 20.0072 -0.391
      vertex 37.9598 19.496 -0.091
    endloop
  endfacet
  facet normal -0.860379 -0.509654 0
    outer loop
      vertex 38.2715 18.9698 -0.391
      vertex 38.2715 18.9698 -0.091
      vertex 37.9598 19.496 -0.391
    endloop
  endfacet
  facet normal -0.860379 -0.509654 -0
    outer loop
      vertex 37.9598 19.496 -0.091
      vertex 37.9598 19.496 -0.391
      vertex 38.2715 18.9698 -0.091
    endloop
  endfacet
  facet normal -0.888839 -0.45822 0
    outer loop
      vertex 38.5504 18.4288 -0.391
      vertex 38.5504 18.4288 -0.091
      vertex 38.2715 18.9698 -0.391
    endloop
  endfacet
  facet normal -0.888839 -0.45822 -0
    outer loop
      vertex 38.2715 18.9698 -0.091
      vertex 38.2715 18.9698 -0.391
      vertex 38.5504 18.4288 -0.091
    endloop
  endfacet
  facet normal -0.914428 -0.404749 0
    outer loop
      vertex 38.7965 17.8728 -0.391
      vertex 38.7965 17.8728 -0.091
      vertex 38.5504 18.4288 -0.391
    endloop
  endfacet
  facet normal -0.914428 -0.404749 -0
    outer loop
      vertex 38.5504 18.4288 -0.091
      vertex 38.5504 18.4288 -0.391
      vertex 38.7965 17.8728 -0.091
    endloop
  endfacet
  facet normal -0.936753 -0.34999 0
    outer loop
      vertex 39.0098 17.3019 -0.391
      vertex 39.0098 17.3019 -0.091
      vertex 38.7965 17.8728 -0.391
    endloop
  endfacet
  facet normal -0.936753 -0.34999 -0
    outer loop
      vertex 38.7965 17.8728 -0.091
      vertex 38.7965 17.8728 -0.391
      vertex 39.0098 17.3019 -0.091
    endloop
  endfacet
  facet normal -0.955663 -0.294464 0
    outer loop
      vertex 39.1903 16.7161 -0.391
      vertex 39.1903 16.7161 -0.091
      vertex 39.0098 17.3019 -0.391
    endloop
  endfacet
  facet normal -0.955663 -0.294464 -0
    outer loop
      vertex 39.0098 17.3019 -0.091
      vertex 39.0098 17.3019 -0.391
      vertex 39.1903 16.7161 -0.091
    endloop
  endfacet
  facet normal -0.971077 -0.238768 0
    outer loop
      vertex 39.338 16.1154 -0.391
      vertex 39.338 16.1154 -0.091
      vertex 39.1903 16.7161 -0.391
    endloop
  endfacet
  facet normal -0.971077 -0.238768 -0
    outer loop
      vertex 39.1903 16.7161 -0.091
      vertex 39.1903 16.7161 -0.391
      vertex 39.338 16.1154 -0.091
    endloop
  endfacet
  facet normal -0.983052 -0.183324 0
    outer loop
      vertex 39.4528 15.4998 -0.391
      vertex 39.4528 15.4998 -0.091
      vertex 39.338 16.1154 -0.391
    endloop
  endfacet
  facet normal -0.983052 -0.183324 -0
    outer loop
      vertex 39.338 16.1154 -0.091
      vertex 39.338 16.1154 -0.391
      vertex 39.4528 15.4998 -0.091
    endloop
  endfacet
  facet normal -0.991628 -0.129124 0
    outer loop
      vertex 39.5349 14.8693 -0.391
      vertex 39.5349 14.8693 -0.091
      vertex 39.4528 15.4998 -0.391
    endloop
  endfacet
  facet normal -0.991628 -0.129124 -0
    outer loop
      vertex 39.4528 15.4998 -0.091
      vertex 39.4528 15.4998 -0.391
      vertex 39.5349 14.8693 -0.091
    endloop
  endfacet
  facet normal -0.997107 -0.0760113 0
    outer loop
      vertex 39.5841 14.2239 -0.391
      vertex 39.5841 14.2239 -0.091
      vertex 39.5349 14.8693 -0.391
    endloop
  endfacet
  facet normal -0.997107 -0.0760113 -0
    outer loop
      vertex 39.5349 14.8693 -0.091
      vertex 39.5349 14.8693 -0.391
      vertex 39.5841 14.2239 -0.091
    endloop
  endfacet
  facet normal -0.999692 -0.0248295 0
    outer loop
      vertex 39.6005 13.5636 -0.391
      vertex 39.6005 13.5636 -0.091
      vertex 39.5841 14.2239 -0.391
    endloop
  endfacet
  facet normal -0.999692 -0.0248295 -0
    outer loop
      vertex 39.5841 14.2239 -0.091
      vertex 39.5841 14.2239 -0.391
      vertex 39.6005 13.5636 -0.091
    endloop
  endfacet
  facet normal -0.999692 0.0248258 0
    outer loop
      vertex 39.5841 12.9032 -0.391
      vertex 39.5841 12.9032 -0.091
      vertex 39.6005 13.5636 -0.391
    endloop
  endfacet
  facet normal -0.999692 0.0248258 0
    outer loop
      vertex 39.6005 13.5636 -0.091
      vertex 39.6005 13.5636 -0.391
      vertex 39.5841 12.9032 -0.091
    endloop
  endfacet
  facet normal -0.997107 0.0760113 0
    outer loop
      vertex 39.5349 12.2578 -0.391
      vertex 39.5349 12.2578 -0.091
      vertex 39.5841 12.9032 -0.391
    endloop
  endfacet
  facet normal -0.997107 0.0760113 0
    outer loop
      vertex 39.5841 12.9032 -0.091
      vertex 39.5841 12.9032 -0.391
      vertex 39.5349 12.2578 -0.091
    endloop
  endfacet
  facet normal -0.991628 0.129124 0
    outer loop
      vertex 39.4528 11.6273 -0.391
      vertex 39.4528 11.6273 -0.091
      vertex 39.5349 12.2578 -0.391
    endloop
  endfacet
  facet normal -0.991628 0.129124 0
    outer loop
      vertex 39.5349 12.2578 -0.091
      vertex 39.5349 12.2578 -0.391
      vertex 39.4528 11.6273 -0.091
    endloop
  endfacet
  facet normal -0.983047 0.183353 0
    outer loop
      vertex 39.338 11.0118 -0.391
      vertex 39.338 11.0118 -0.091
      vertex 39.4528 11.6273 -0.391
    endloop
  endfacet
  facet normal -0.983047 0.183353 0
    outer loop
      vertex 39.4528 11.6273 -0.091
      vertex 39.4528 11.6273 -0.391
      vertex 39.338 11.0118 -0.091
    endloop
  endfacet
  facet normal -0.971077 0.238768 0
    outer loop
      vertex 39.1903 10.4111 -0.391
      vertex 39.1903 10.4111 -0.091
      vertex 39.338 11.0118 -0.391
    endloop
  endfacet
  facet normal -0.971077 0.238768 0
    outer loop
      vertex 39.338 11.0118 -0.091
      vertex 39.338 11.0118 -0.391
      vertex 39.1903 10.4111 -0.091
    endloop
  endfacet
  facet normal -0.955654 0.294492 0
    outer loop
      vertex 39.0098 9.82536 -0.391
      vertex 39.0098 9.82536 -0.091
      vertex 39.1903 10.4111 -0.391
    endloop
  endfacet
  facet normal -0.955654 0.294492 0
    outer loop
      vertex 39.1903 10.4111 -0.091
      vertex 39.1903 10.4111 -0.391
      vertex 39.0098 9.82536 -0.091
    endloop
  endfacet
  facet normal -0.936739 0.350028 0
    outer loop
      vertex 38.7965 9.25453 -0.391
      vertex 38.7965 9.25453 -0.091
      vertex 39.0098 9.82536 -0.391
    endloop
  endfacet
  facet normal -0.936739 0.350028 0
    outer loop
      vertex 39.0098 9.82536 -0.091
      vertex 39.0098 9.82536 -0.391
      vertex 38.7965 9.25453 -0.091
    endloop
  endfacet
  facet normal -0.914403 0.404804 0
    outer loop
      vertex 38.5504 8.69862 -0.391
      vertex 38.5504 8.69862 -0.091
      vertex 38.7965 9.25453 -0.391
    endloop
  endfacet
  facet normal -0.914403 0.404804 0
    outer loop
      vertex 38.7965 9.25453 -0.091
      vertex 38.7965 9.25453 -0.391
      vertex 38.5504 8.69862 -0.091
    endloop
  endfacet
  facet normal -0.888839 0.45822 0
    outer loop
      vertex 38.2715 8.15762 -0.391
      vertex 38.2715 8.15762 -0.091
      vertex 38.5504 8.69862 -0.391
    endloop
  endfacet
  facet normal -0.888839 0.45822 0
    outer loop
      vertex 38.5504 8.69862 -0.091
      vertex 38.5504 8.69862 -0.391
      vertex 38.2715 8.15762 -0.091
    endloop
  endfacet
  facet normal -0.860324 0.509748 0
    outer loop
      vertex 37.9598 7.63155 -0.391
      vertex 37.9598 7.63155 -0.091
      vertex 38.2715 8.15762 -0.391
    endloop
  endfacet
  facet normal -0.860324 0.509748 0
    outer loop
      vertex 38.2715 8.15762 -0.091
      vertex 38.2715 8.15762 -0.391
      vertex 37.9598 7.63155 -0.091
    endloop
  endfacet
  facet normal -0.829179 0.558983 0
    outer loop
      vertex 37.6152 7.12038 -0.391
      vertex 37.6152 7.12038 -0.091
      vertex 37.9598 7.63155 -0.391
    endloop
  endfacet
  facet normal -0.829179 0.558983 0
    outer loop
      vertex 37.9598 7.63155 -0.091
      vertex 37.9598 7.63155 -0.391
      vertex 37.6152 7.12038 -0.091
    endloop
  endfacet
  facet normal -0.796046 0.605236 0
    outer loop
      vertex 37.2379 6.62413 -0.391
      vertex 37.2379 6.62413 -0.091
      vertex 37.6152 7.12038 -0.391
    endloop
  endfacet
  facet normal -0.796046 0.605236 0
    outer loop
      vertex 37.6152 7.12038 -0.091
      vertex 37.6152 7.12038 -0.391
      vertex 37.2379 6.62413 -0.091
    endloop
  endfacet
  facet normal -0.761098 0.648637 0
    outer loop
      vertex 36.8277 6.14281 -0.391
      vertex 36.8277 6.14281 -0.091
      vertex 37.2379 6.62413 -0.391
    endloop
  endfacet
  facet normal -0.761098 0.648637 0
    outer loop
      vertex 37.2379 6.62413 -0.091
      vertex 37.2379 6.62413 -0.391
      vertex 36.8277 6.14281 -0.091
    endloop
  endfacet
  facet normal -0.724731 0.689032 0
    outer loop
      vertex 36.3944 5.68706 -0.391
      vertex 36.3944 5.68706 -0.091
      vertex 36.8277 6.14281 -0.391
    endloop
  endfacet
  facet normal -0.724731 0.689032 0
    outer loop
      vertex 36.8277 6.14281 -0.091
      vertex 36.8277 6.14281 -0.391
      vertex 36.3944 5.68706 -0.091
    endloop
  endfacet
  facet normal -0.684392 0.729115 0
    outer loop
      vertex 35.9477 5.26776 -0.391
      vertex 35.9477 5.26776 -0.091
      vertex 36.3944 5.68706 -0.391
    endloop
  endfacet
  facet normal -0.684392 0.729115 0
    outer loop
      vertex 36.3944 5.68706 -0.091
      vertex 36.3944 5.68706 -0.391
      vertex 35.9477 5.26776 -0.091
    endloop
  endfacet
  facet normal -0.639524 0.768771 0
    outer loop
      vertex 35.4875 4.88493 -0.391
      vertex 35.4875 4.88493 -0.091
      vertex 35.9477 5.26776 -0.391
    endloop
  endfacet
  facet normal -0.639524 0.768771 0
    outer loop
      vertex 35.9477 5.26776 -0.091
      vertex 35.9477 5.26776 -0.391
      vertex 35.4875 4.88493 -0.091
    endloop
  endfacet
  facet normal -0.590406 0.807106 0
    outer loop
      vertex 35.014 4.53856 -0.391
      vertex 35.014 4.53856 -0.091
      vertex 35.4875 4.88493 -0.391
    endloop
  endfacet
  facet normal -0.590406 0.807106 0
    outer loop
      vertex 35.4875 4.88493 -0.091
      vertex 35.4875 4.88493 -0.391
      vertex 35.014 4.53856 -0.091
    endloop
  endfacet
  facet normal -0.536877 0.843661 0
    outer loop
      vertex 34.527 4.22865 -0.391
      vertex 34.527 4.22865 -0.091
      vertex 35.014 4.53856 -0.391
    endloop
  endfacet
  facet normal -0.536877 0.843661 0
    outer loop
      vertex 35.014 4.53856 -0.091
      vertex 35.014 4.53856 -0.391
      vertex 34.527 4.22865 -0.091
    endloop
  endfacet
  facet normal -0.479534 0.877523 0
    outer loop
      vertex 34.0266 3.9552 -0.391
      vertex 34.0266 3.9552 -0.091
      vertex 34.527 4.22865 -0.391
    endloop
  endfacet
  facet normal -0.479534 0.877523 0
    outer loop
      vertex 34.527 4.22865 -0.091
      vertex 34.527 4.22865 -0.391
      vertex 34.0266 3.9552 -0.091
    endloop
  endfacet
  facet normal -0.41876 0.908097 0
    outer loop
      vertex 33.5127 3.71822 -0.391
      vertex 33.5127 3.71822 -0.091
      vertex 34.0266 3.9552 -0.391
    endloop
  endfacet
  facet normal -0.41876 0.908097 0
    outer loop
      vertex 34.0266 3.9552 -0.091
      vertex 34.0266 3.9552 -0.391
      vertex 33.5127 3.71822 -0.091
    endloop
  endfacet
  facet normal -0.355534 0.934663 0
    outer loop
      vertex 32.9855 3.51768 -0.391
      vertex 32.9855 3.51768 -0.091
      vertex 33.5127 3.71822 -0.391
    endloop
  endfacet
  facet normal -0.355534 0.934663 0
    outer loop
      vertex 33.5127 3.71822 -0.091
      vertex 33.5127 3.71822 -0.391
      vertex 32.9855 3.51768 -0.091
    endloop
  endfacet
  facet normal -0.29035 0.95692 0
    outer loop
      vertex 32.4448 3.35362 -0.391
      vertex 32.4448 3.35362 -0.091
      vertex 32.9855 3.51768 -0.391
    endloop
  endfacet
  facet normal -0.29035 0.95692 0
    outer loop
      vertex 32.9855 3.51768 -0.091
      vertex 32.9855 3.51768 -0.391
      vertex 32.4448 3.35362 -0.091
    endloop
  endfacet
  facet normal -0.224427 0.974491 0
    outer loop
      vertex 31.8907 3.22601 -0.391
      vertex 31.8907 3.22601 -0.091
      vertex 32.4448 3.35362 -0.391
    endloop
  endfacet
  facet normal -0.224427 0.974491 0
    outer loop
      vertex 32.4448 3.35362 -0.091
      vertex 32.4448 3.35362 -0.391
      vertex 31.8907 3.22601 -0.091
    endloop
  endfacet
  facet normal -0.158557 0.98735 0
    outer loop
      vertex 31.3231 3.13486 -0.391
      vertex 31.3231 3.13486 -0.091
      vertex 31.8907 3.22601 -0.391
    endloop
  endfacet
  facet normal -0.158557 0.98735 0
    outer loop
      vertex 31.8907 3.22601 -0.091
      vertex 31.8907 3.22601 -0.391
      vertex 31.3231 3.13486 -0.091
    endloop
  endfacet
  facet normal -0.0937325 0.995597 0
    outer loop
      vertex 30.7422 3.08017 -0.391
      vertex 30.7422 3.08017 -0.091
      vertex 31.3231 3.13486 -0.391
    endloop
  endfacet
  facet normal -0.0937325 0.995597 0
    outer loop
      vertex 31.3231 3.13486 -0.091
      vertex 31.3231 3.13486 -0.391
      vertex 30.7422 3.08017 -0.091
    endloop
  endfacet
  facet normal -0.0306552 0.99953 0
    outer loop
      vertex 30.1478 3.06194 -0.391
      vertex 30.1478 3.06194 -0.091
      vertex 30.7422 3.08017 -0.391
    endloop
  endfacet
  facet normal -0.0306552 0.99953 0
    outer loop
      vertex 30.7422 3.08017 -0.091
      vertex 30.7422 3.08017 -0.391
      vertex 30.1478 3.06194 -0.091
    endloop
  endfacet
  facet normal 0 1 0
    outer loop
      vertex 14.3935 3.06194 -0.391
      vertex 14.3935 3.06194 -0.091
      vertex 30.1478 3.06194 -0.391
    endloop
  endfacet
  facet normal 0 1 0
    outer loop
      vertex 30.1478 3.06194 -0.091
      vertex 30.1478 3.06194 -0.391
      vertex 14.3935 3.06194 -0.091
    endloop
  endfacet
endsolid OpenSCAD_Model
