solid OpenSCAD_Model
  facet normal 0.358389 -0.933572 0
    outer loop
      vertex 28.2478 18.269 -0.391
      vertex 28.4812 18.3586 -0.0909996
      vertex 28.2478 18.269 -0.0909996
    endloop
  endfacet
  facet normal 0.358389 -0.933572 0
    outer loop
      vertex 28.4812 18.3586 -0.0909996
      vertex 28.2478 18.269 -0.391
      vertex 28.4812 18.3586 -0.391
    endloop
  endfacet
  facet normal 0.227066 -0.973879 0
    outer loop
      vertex 27.7637 18.1385 -0.391
      vertex 28.0086 18.1956 -0.0909996
      vertex 27.7637 18.1385 -0.0909996
    endloop
  endfacet
  facet normal 0.227066 -0.973879 0
    outer loop
      vertex 28.0086 18.1956 -0.0909996
      vertex 27.7637 18.1385 -0.391
      vertex 28.0086 18.1956 -0.391
    endloop
  endfacet
  facet normal 0 -1 0
    outer loop
      vertex 23.125 38.56 -0.891
      vertex 30.8649 38.56 -0.391
      vertex 23.125 38.56 -0.391
    endloop
  endfacet
  facet normal 0 -1 -0
    outer loop
      vertex 30.8649 38.56 -0.391
      vertex 23.125 38.56 -0.891
      vertex 30.8649 38.56 -0.891
    endloop
  endfacet
  facet normal 0 -1 0
    outer loop
      vertex 23.125 38.56 -0.0909996
      vertex 30.8649 38.56 0.108999
      vertex 23.125 38.56 0.108999
    endloop
  endfacet
  facet normal 0 -1 -0
    outer loop
      vertex 30.8649 38.56 0.108999
      vertex 23.125 38.56 -0.0909996
      vertex 30.8649 38.56 -0.0909996
    endloop
  endfacet
  facet normal 0.293356 -0.956003 0
    outer loop
      vertex 28.0086 18.1956 -0.391
      vertex 28.2478 18.269 -0.0909996
      vertex 28.0086 18.1956 -0.0909996
    endloop
  endfacet
  facet normal 0.293356 -0.956003 0
    outer loop
      vertex 28.2478 18.269 -0.0909996
      vertex 28.0086 18.1956 -0.391
      vertex 28.2478 18.269 -0.391
    endloop
  endfacet
  facet normal 0.970528 0.240989 0
    outer loop
      vertex 31.0768 37.8614 -0.0909996
      vertex 31.0108 38.1272 -0.391
      vertex 31.0108 38.1272 -0.0909996
    endloop
  endfacet
  facet normal 0.970528 0.240989 0
    outer loop
      vertex 31.0108 38.1272 -0.391
      vertex 31.0768 37.8614 -0.0909996
      vertex 31.0768 37.8614 -0.391
    endloop
  endfacet
  facet normal -0.999677 0.0254126 0
    outer loop
      vertex 22.7959 36.7348 -0.391
      vertex 22.8033 37.0259 -0.0909996
      vertex 22.8033 37.0259 -0.391
    endloop
  endfacet
  facet normal -0.999677 0.0254126 0
    outer loop
      vertex 22.8033 37.0259 -0.0909996
      vertex 22.7959 36.7348 -0.391
      vertex 22.7959 36.7348 -0.0909996
    endloop
  endfacet
  facet normal -1 0 0
    outer loop
      vertex 22.7959 22.7326 -0.391
      vertex 22.7959 36.7348 -0.0909996
      vertex 22.7959 36.7348 -0.391
    endloop
  endfacet
  facet normal -1 -0 0
    outer loop
      vertex 22.7959 36.7348 -0.0909996
      vertex 22.7959 22.7326 -0.391
      vertex 22.7959 22.7326 -0.0909996
    endloop
  endfacet
  facet normal 0.954963 0.296723 0
    outer loop
      vertex 31.0108 38.1272 -0.0909996
      vertex 30.9302 38.3866 -0.391
      vertex 30.9302 38.3866 -0.0909996
    endloop
  endfacet
  facet normal 0.954963 0.296723 0
    outer loop
      vertex 30.9302 38.3866 -0.391
      vertex 31.0108 38.1272 -0.0909996
      vertex 31.0108 38.1272 -0.391
    endloop
  endfacet
  facet normal 0.93584 0.352424 0
    outer loop
      vertex 30.9302 38.3866 -0.0909996
      vertex 30.8649 38.56 -0.391
      vertex 30.8649 38.56 -0.0909996
    endloop
  endfacet
  facet normal 0.93584 0.352424 0
    outer loop
      vertex 30.8649 38.56 -0.391
      vertex 30.9302 38.3866 -0.0909996
      vertex 30.9302 38.3866 -0.391
    endloop
  endfacet
  facet normal -0.9827 0.185204 0
    outer loop
      vertex 22.8619 37.5892 -0.391
      vertex 22.9132 37.8614 -0.0909996
      vertex 22.9132 37.8614 -0.391
    endloop
  endfacet
  facet normal -0.9827 0.185204 0
    outer loop
      vertex 22.9132 37.8614 -0.0909996
      vertex 22.8619 37.5892 -0.391
      vertex 22.8619 37.5892 -0.0909996
    endloop
  endfacet
  facet normal 0 0 -1
    outer loop
      vertex 22.7959 22.7326 -0.391
      vertex 31.1941 22.7326 -0.391
      vertex 31.1868 22.4414 -0.391
    endloop
  endfacet
  facet normal 0 0 -1
    outer loop
      vertex 31.1941 22.7326 -0.391
      vertex 22.7959 22.7326 -0.391
      vertex 31.1941 36.7348 -0.391
    endloop
  endfacet
  facet normal 0 0 -1
    outer loop
      vertex 22.8033 22.4414 -0.391
      vertex 31.1868 22.4414 -0.391
      vertex 31.1648 22.1566 -0.391
    endloop
  endfacet
  facet normal 0 0 -1
    outer loop
      vertex 22.7959 36.7348 -0.391
      vertex 31.1941 36.7348 -0.391
      vertex 22.7959 22.7326 -0.391
    endloop
  endfacet
  facet normal 0 0 -1
    outer loop
      vertex 22.8252 22.1566 -0.391
      vertex 31.1648 22.1566 -0.391
      vertex 31.1281 21.8781 -0.391
    endloop
  endfacet
  facet normal 0 0 -1
    outer loop
      vertex 31.1941 36.7348 -0.391
      vertex 22.7959 36.7348 -0.391
      vertex 31.1868 37.0259 -0.391
    endloop
  endfacet
  facet normal 0 0 -1
    outer loop
      vertex 22.8619 21.8781 -0.391
      vertex 31.1281 21.8781 -0.391
      vertex 31.0768 21.606 -0.391
    endloop
  endfacet
  facet normal 0 -0 -1
    outer loop
      vertex 22.8033 37.0259 -0.391
      vertex 31.1868 37.0259 -0.391
      vertex 22.7959 36.7348 -0.391
    endloop
  endfacet
  facet normal 0 0 -1
    outer loop
      vertex 22.8619 21.8781 -0.391
      vertex 31.0768 21.606 -0.391
      vertex 31.0108 21.3402 -0.391
    endloop
  endfacet
  facet normal 0 0 -1
    outer loop
      vertex 31.1868 37.0259 -0.391
      vertex 22.8033 37.0259 -0.391
      vertex 31.1648 37.3108 -0.391
    endloop
  endfacet
  facet normal 0 0 -1
    outer loop
      vertex 22.9132 21.606 -0.391
      vertex 31.0108 21.3402 -0.391
      vertex 30.9302 21.0808 -0.391
    endloop
  endfacet
  facet normal 0 -0 -1
    outer loop
      vertex 22.8252 37.3108 -0.391
      vertex 31.1648 37.3108 -0.391
      vertex 22.8033 37.0259 -0.391
    endloop
  endfacet
  facet normal 0 -0 -1
    outer loop
      vertex 22.8619 37.5892 -0.391
      vertex 31.1281 37.5892 -0.391
      vertex 22.8252 37.3108 -0.391
    endloop
  endfacet
  facet normal 0 0 -1
    outer loop
      vertex 22.9791 21.3402 -0.391
      vertex 30.9302 21.0808 -0.391
      vertex 30.8349 20.8277 -0.391
    endloop
  endfacet
  facet normal 0 0 -1
    outer loop
      vertex 23.0597 21.0808 -0.391
      vertex 30.8349 20.8277 -0.391
      vertex 30.7249 20.5809 -0.391
    endloop
  endfacet
  facet normal 0 0 -1
    outer loop
      vertex 23.155 20.8277 -0.391
      vertex 30.7249 20.5809 -0.391
      vertex 30.6003 20.3406 -0.391
    endloop
  endfacet
  facet normal 0 0 -1
    outer loop
      vertex 23.2649 20.5809 -0.391
      vertex 30.6003 20.3406 -0.391
      vertex 30.461 20.1066 -0.391
    endloop
  endfacet
  facet normal 0 0 -1
    outer loop
      vertex 23.3895 20.3406 -0.391
      vertex 30.461 20.1066 -0.391
      vertex 30.307 19.8789 -0.391
    endloop
  endfacet
  facet normal 0 0 -1
    outer loop
      vertex 23.6826 19.8789 -0.391
      vertex 30.307 19.8789 -0.391
      vertex 30.1384 19.6575 -0.391
    endloop
  endfacet
  facet normal 0 0 -1
    outer loop
      vertex 23.8511 19.6575 -0.391
      vertex 30.1384 19.6575 -0.391
      vertex 29.9551 19.4426 -0.391
    endloop
  endfacet
  facet normal 0 0 -1
    outer loop
      vertex 24.0343 19.4426 -0.391
      vertex 29.9551 19.4426 -0.391
      vertex 29.7617 19.2388 -0.391
    endloop
  endfacet
  facet normal 0 0 -1
    outer loop
      vertex 24.2278 19.2388 -0.391
      vertex 29.7617 19.2388 -0.391
      vertex 29.5626 19.0514 -0.391
    endloop
  endfacet
  facet normal 0 0 -1
    outer loop
      vertex 24.2278 19.2388 -0.391
      vertex 29.5626 19.0514 -0.391
      vertex 29.3578 18.8802 -0.391
    endloop
  endfacet
  facet normal 0 0 -1
    outer loop
      vertex 24.2278 19.2388 -0.391
      vertex 29.3578 18.8802 -0.391
      vertex 29.1472 18.7254 -0.391
    endloop
  endfacet
  facet normal 0 0 -1
    outer loop
      vertex 24.2278 19.2388 -0.391
      vertex 29.1472 18.7254 -0.391
      vertex 28.931 18.5868 -0.391
    endloop
  endfacet
  facet normal 0 0 -1
    outer loop
      vertex 24.2278 19.2388 -0.391
      vertex 28.931 18.5868 -0.391
      vertex 28.709 18.4646 -0.391
    endloop
  endfacet
  facet normal 0 0 -1
    outer loop
      vertex 24.2278 19.2388 -0.391
      vertex 28.709 18.4646 -0.391
      vertex 28.4812 18.3586 -0.391
    endloop
  endfacet
  facet normal 0 0 -1
    outer loop
      vertex 24.2278 19.2388 -0.391
      vertex 28.4812 18.3586 -0.391
      vertex 28.2478 18.269 -0.391
    endloop
  endfacet
  facet normal 0 0 -1
    outer loop
      vertex 24.2278 19.2388 -0.391
      vertex 28.2478 18.269 -0.391
      vertex 28.0086 18.1956 -0.391
    endloop
  endfacet
  facet normal 0 0 -1
    outer loop
      vertex 24.2278 19.2388 -0.391
      vertex 28.0086 18.1956 -0.391
      vertex 27.7637 18.1385 -0.391
    endloop
  endfacet
  facet normal 0 0 -1
    outer loop
      vertex 24.2278 19.2388 -0.391
      vertex 27.7637 18.1385 -0.391
      vertex 27.5131 18.0978 -0.391
    endloop
  endfacet
  facet normal 0 0 -1
    outer loop
      vertex 24.2278 19.2388 -0.391
      vertex 27.5131 18.0978 -0.391
      vertex 27.2568 18.0733 -0.391
    endloop
  endfacet
  facet normal 0 0 -1
    outer loop
      vertex 24.427 19.0514 -0.391
      vertex 27.2568 18.0733 -0.391
      vertex 26.9947 18.0652 -0.391
    endloop
  endfacet
  facet normal 0 0 -1
    outer loop
      vertex 24.427 19.0514 -0.391
      vertex 26.9947 18.0652 -0.391
      vertex 26.7328 18.0733 -0.391
    endloop
  endfacet
  facet normal 0 0 -1
    outer loop
      vertex 24.427 19.0514 -0.391
      vertex 26.7328 18.0733 -0.391
      vertex 26.4765 18.0978 -0.391
    endloop
  endfacet
  facet normal 0 0 -1
    outer loop
      vertex 24.427 19.0514 -0.391
      vertex 26.4765 18.0978 -0.391
      vertex 26.2259 18.1385 -0.391
    endloop
  endfacet
  facet normal 0 0 -1
    outer loop
      vertex 24.427 19.0514 -0.391
      vertex 26.2259 18.1385 -0.391
      vertex 25.9811 18.1956 -0.391
    endloop
  endfacet
  facet normal 0 0 -1
    outer loop
      vertex 24.427 19.0514 -0.391
      vertex 25.9811 18.1956 -0.391
      vertex 25.7419 18.269 -0.391
    endloop
  endfacet
  facet normal 0 0 -1
    outer loop
      vertex 24.427 19.0514 -0.391
      vertex 25.7419 18.269 -0.391
      vertex 25.5085 18.3586 -0.391
    endloop
  endfacet
  facet normal 0 0 -1
    outer loop
      vertex 24.427 19.0514 -0.391
      vertex 25.5085 18.3586 -0.391
      vertex 25.2808 18.4646 -0.391
    endloop
  endfacet
  facet normal 0 0 -1
    outer loop
      vertex 24.8425 18.7254 -0.391
      vertex 25.2808 18.4646 -0.391
      vertex 25.0588 18.5868 -0.391
    endloop
  endfacet
  facet normal 0 0 -1
    outer loop
      vertex 24.6319 18.8802 -0.391
      vertex 25.2808 18.4646 -0.391
      vertex 24.8425 18.7254 -0.391
    endloop
  endfacet
  facet normal 0 0 -1
    outer loop
      vertex 24.427 19.0514 -0.391
      vertex 25.2808 18.4646 -0.391
      vertex 24.6319 18.8802 -0.391
    endloop
  endfacet
  facet normal 0 0 -1
    outer loop
      vertex 27.2568 18.0733 -0.391
      vertex 24.427 19.0514 -0.391
      vertex 24.2278 19.2388 -0.391
    endloop
  endfacet
  facet normal 0 0 -1
    outer loop
      vertex 29.7617 19.2388 -0.391
      vertex 24.2278 19.2388 -0.391
      vertex 24.0343 19.4426 -0.391
    endloop
  endfacet
  facet normal 0 0 -1
    outer loop
      vertex 29.9551 19.4426 -0.391
      vertex 24.0343 19.4426 -0.391
      vertex 23.8511 19.6575 -0.391
    endloop
  endfacet
  facet normal 0 0 -1
    outer loop
      vertex 30.1384 19.6575 -0.391
      vertex 23.8511 19.6575 -0.391
      vertex 23.6826 19.8789 -0.391
    endloop
  endfacet
  facet normal 0 0 -1
    outer loop
      vertex 30.307 19.8789 -0.391
      vertex 23.6826 19.8789 -0.391
      vertex 23.5287 20.1066 -0.391
    endloop
  endfacet
  facet normal 0 0 -1
    outer loop
      vertex 30.307 19.8789 -0.391
      vertex 23.5287 20.1066 -0.391
      vertex 23.3895 20.3406 -0.391
    endloop
  endfacet
  facet normal 0 0 -1
    outer loop
      vertex 30.461 20.1066 -0.391
      vertex 23.3895 20.3406 -0.391
      vertex 23.2649 20.5809 -0.391
    endloop
  endfacet
  facet normal 0 0 -1
    outer loop
      vertex 30.6003 20.3406 -0.391
      vertex 23.2649 20.5809 -0.391
      vertex 23.155 20.8277 -0.391
    endloop
  endfacet
  facet normal 0 0 -1
    outer loop
      vertex 30.7249 20.5809 -0.391
      vertex 23.155 20.8277 -0.391
      vertex 23.0597 21.0808 -0.391
    endloop
  endfacet
  facet normal 0 0 -1
    outer loop
      vertex 31.1648 37.3108 -0.391
      vertex 22.8252 37.3108 -0.391
      vertex 31.1281 37.5892 -0.391
    endloop
  endfacet
  facet normal 0 0 -1
    outer loop
      vertex 30.8349 20.8277 -0.391
      vertex 23.0597 21.0808 -0.391
      vertex 22.9791 21.3402 -0.391
    endloop
  endfacet
  facet normal 0 0 -1
    outer loop
      vertex 31.1281 37.5892 -0.391
      vertex 22.8619 37.5892 -0.391
      vertex 31.0768 37.8614 -0.391
    endloop
  endfacet
  facet normal 0 0 -1
    outer loop
      vertex 30.9302 21.0808 -0.391
      vertex 22.9791 21.3402 -0.391
      vertex 22.9132 21.606 -0.391
    endloop
  endfacet
  facet normal -0 0 -1
    outer loop
      vertex 31.0768 37.8614 -0.391
      vertex 22.8619 37.5892 -0.391
      vertex 31.0108 38.1272 -0.391
    endloop
  endfacet
  facet normal 0 0 -1
    outer loop
      vertex 31.0108 21.3402 -0.391
      vertex 22.9132 21.606 -0.391
      vertex 22.8619 21.8781 -0.391
    endloop
  endfacet
  facet normal -0 0 -1
    outer loop
      vertex 30.8649 38.56 -0.391
      vertex 22.9791 38.1272 -0.391
      vertex 23.125 38.56 -0.391
    endloop
  endfacet
  facet normal 0 0 -1
    outer loop
      vertex 31.1281 21.8781 -0.391
      vertex 22.8619 21.8781 -0.391
      vertex 22.8252 22.1566 -0.391
    endloop
  endfacet
  facet normal 0 0 -1
    outer loop
      vertex 23.125 38.56 -0.391
      vertex 22.9791 38.1272 -0.391
      vertex 23.0597 38.3866 -0.391
    endloop
  endfacet
  facet normal 0 0 -1
    outer loop
      vertex 31.1648 22.1566 -0.391
      vertex 22.8252 22.1566 -0.391
      vertex 22.8033 22.4414 -0.391
    endloop
  endfacet
  facet normal 0 0 -1
    outer loop
      vertex 30.8649 38.56 -0.391
      vertex 22.9132 37.8614 -0.391
      vertex 22.9791 38.1272 -0.391
    endloop
  endfacet
  facet normal 0 0 -1
    outer loop
      vertex 31.1868 22.4414 -0.391
      vertex 22.8033 22.4414 -0.391
      vertex 22.7959 22.7326 -0.391
    endloop
  endfacet
  facet normal -0 0 -1
    outer loop
      vertex 30.9302 38.3866 -0.391
      vertex 22.9132 37.8614 -0.391
      vertex 30.8649 38.56 -0.391
    endloop
  endfacet
  facet normal -0 0 -1
    outer loop
      vertex 31.0108 38.1272 -0.391
      vertex 22.9132 37.8614 -0.391
      vertex 30.9302 38.3866 -0.391
    endloop
  endfacet
  facet normal 0 -0 -1
    outer loop
      vertex 22.9132 37.8614 -0.391
      vertex 31.0108 38.1272 -0.391
      vertex 22.8619 37.5892 -0.391
    endloop
  endfacet
  facet normal -0.954963 0.296723 0
    outer loop
      vertex 22.9791 38.1272 -0.391
      vertex 23.0597 38.3866 -0.0909996
      vertex 23.0597 38.3866 -0.391
    endloop
  endfacet
  facet normal -0.954963 0.296723 0
    outer loop
      vertex 23.0597 38.3866 -0.0909996
      vertex 22.9791 38.1272 -0.391
      vertex 22.9791 38.1272 -0.0909996
    endloop
  endfacet
  facet normal -0.93584 0.352424 0
    outer loop
      vertex 23.0597 38.3866 -0.391
      vertex 23.125 38.56 -0.0909996
      vertex 23.125 38.56 -0.391
    endloop
  endfacet
  facet normal -0.93584 0.352424 0
    outer loop
      vertex 23.125 38.56 -0.0909996
      vertex 23.0597 38.3866 -0.391
      vertex 23.0597 38.3866 -0.0909996
    endloop
  endfacet
  facet normal -0.970613 0.240645 0
    outer loop
      vertex 22.9132 37.8614 -0.391
      vertex 22.9791 38.1272 -0.0909996
      vertex 22.9791 38.1272 -0.391
    endloop
  endfacet
  facet normal -0.970613 0.240645 0
    outer loop
      vertex 22.9791 38.1272 -0.0909996
      vertex 22.9132 37.8614 -0.391
      vertex 22.9132 37.8614 -0.0909996
    endloop
  endfacet
  facet normal -0.997059 0.076643 0
    outer loop
      vertex 22.8033 37.0259 -0.391
      vertex 22.8252 37.3108 -0.0909996
      vertex 22.8252 37.3108 -0.391
    endloop
  endfacet
  facet normal -0.997059 0.076643 0
    outer loop
      vertex 22.8252 37.3108 -0.0909996
      vertex 22.8033 37.0259 -0.391
      vertex 22.8033 37.0259 -0.0909996
    endloop
  endfacet
  facet normal -0.991423 0.130694 0
    outer loop
      vertex 22.8252 37.3108 -0.391
      vertex 22.8619 37.5892 -0.0909996
      vertex 22.8619 37.5892 -0.391
    endloop
  endfacet
  facet normal -0.991423 0.130694 0
    outer loop
      vertex 22.8619 37.5892 -0.0909996
      vertex 22.8252 37.3108 -0.391
      vertex 22.8252 37.3108 -0.0909996
    endloop
  endfacet
  facet normal -0.999677 -0.0254039 0
    outer loop
      vertex 22.8033 22.4414 -0.391
      vertex 22.7959 22.7326 -0.0909996
      vertex 22.7959 22.7326 -0.391
    endloop
  endfacet
  facet normal -0.999677 -0.0254039 0
    outer loop
      vertex 22.7959 22.7326 -0.0909996
      vertex 22.8033 22.4414 -0.391
      vertex 22.8033 22.4414 -0.0909996
    endloop
  endfacet
  facet normal -0.991429 -0.130648 0
    outer loop
      vertex 22.8619 21.8781 -0.391
      vertex 22.8252 22.1566 -0.0909996
      vertex 22.8252 22.1566 -0.391
    endloop
  endfacet
  facet normal -0.991429 -0.130648 0
    outer loop
      vertex 22.8252 22.1566 -0.0909996
      vertex 22.8619 21.8781 -0.391
      vertex 22.8619 21.8781 -0.0909996
    endloop
  endfacet
  facet normal -0.970613 -0.240645 0
    outer loop
      vertex 22.9791 21.3402 -0.391
      vertex 22.9132 21.606 -0.0909996
      vertex 22.9132 21.606 -0.391
    endloop
  endfacet
  facet normal -0.970613 -0.240645 0
    outer loop
      vertex 22.9132 21.606 -0.0909996
      vertex 22.9791 21.3402 -0.391
      vertex 22.9791 21.3402 -0.0909996
    endloop
  endfacet
  facet normal -0.422035 -0.906579 0
    outer loop
      vertex 25.2808 18.4646 -0.391
      vertex 25.5085 18.3586 -0.0909996
      vertex 25.2808 18.4646 -0.0909996
    endloop
  endfacet
  facet normal -0.422035 -0.906579 -0
    outer loop
      vertex 25.5085 18.3586 -0.0909996
      vertex 25.2808 18.4646 -0.391
      vertex 25.5085 18.3586 -0.391
    endloop
  endfacet
  facet normal -0.539518 -0.841974 0
    outer loop
      vertex 24.8425 18.7254 -0.391
      vertex 25.0588 18.5868 -0.0909996
      vertex 24.8425 18.7254 -0.0909996
    endloop
  endfacet
  facet normal -0.539518 -0.841974 -0
    outer loop
      vertex 25.0588 18.5868 -0.0909996
      vertex 24.8425 18.7254 -0.391
      vertex 25.0588 18.5868 -0.391
    endloop
  endfacet
  facet normal -0.358389 -0.933572 0
    outer loop
      vertex 25.5085 18.3586 -0.391
      vertex 25.7419 18.269 -0.0909996
      vertex 25.5085 18.3586 -0.0909996
    endloop
  endfacet
  facet normal -0.358389 -0.933572 -0
    outer loop
      vertex 25.7419 18.269 -0.0909996
      vertex 25.5085 18.3586 -0.391
      vertex 25.7419 18.269 -0.391
    endloop
  endfacet
  facet normal 0.991423 0.130694 0
    outer loop
      vertex 31.1648 37.3108 -0.0909996
      vertex 31.1281 37.5892 -0.391
      vertex 31.1281 37.5892 -0.0909996
    endloop
  endfacet
  facet normal 0.991423 0.130694 0
    outer loop
      vertex 31.1281 37.5892 -0.391
      vertex 31.1648 37.3108 -0.0909996
      vertex 31.1648 37.3108 -0.391
    endloop
  endfacet
  facet normal 0.99703 -0.0770177 0
    outer loop
      vertex 31.1648 22.1566 -0.0909996
      vertex 31.1868 22.4414 -0.391
      vertex 31.1868 22.4414 -0.0909996
    endloop
  endfacet
  facet normal 0.99703 -0.0770177 0
    outer loop
      vertex 31.1868 22.4414 -0.391
      vertex 31.1648 22.1566 -0.0909996
      vertex 31.1648 22.1566 -0.391
    endloop
  endfacet
  facet normal 1 -0 0
    outer loop
      vertex 31.1941 22.7326 -0.0909996
      vertex 31.1941 36.7348 -0.391
      vertex 31.1941 36.7348 -0.0909996
    endloop
  endfacet
  facet normal 1 0 0
    outer loop
      vertex 31.1941 36.7348 -0.391
      vertex 31.1941 22.7326 -0.0909996
      vertex 31.1941 22.7326 -0.391
    endloop
  endfacet
  facet normal 0.999686 0.0250694 0
    outer loop
      vertex 31.1941 36.7348 -0.0909996
      vertex 31.1868 37.0259 -0.391
      vertex 31.1868 37.0259 -0.0909996
    endloop
  endfacet
  facet normal 0.999686 0.0250694 0
    outer loop
      vertex 31.1868 37.0259 -0.391
      vertex 31.1941 36.7348 -0.0909996
      vertex 31.1941 36.7348 -0.391
    endloop
  endfacet
  facet normal 0.9827 0.185204 0
    outer loop
      vertex 31.1281 37.5892 -0.0909996
      vertex 31.0768 37.8614 -0.391
      vertex 31.0768 37.8614 -0.0909996
    endloop
  endfacet
  facet normal 0.9827 0.185204 0
    outer loop
      vertex 31.0768 37.8614 -0.391
      vertex 31.1281 37.5892 -0.0909996
      vertex 31.1281 37.5892 -0.391
    endloop
  endfacet
  facet normal -0.997057 -0.0766697 0
    outer loop
      vertex 22.8252 22.1566 -0.391
      vertex 22.8033 22.4414 -0.0909996
      vertex 22.8033 22.4414 -0.391
    endloop
  endfacet
  facet normal -0.997057 -0.0766697 0
    outer loop
      vertex 22.8033 22.4414 -0.0909996
      vertex 22.8252 22.1566 -0.391
      vertex 22.8252 22.1566 -0.0909996
    endloop
  endfacet
  facet normal 0 0 1
    outer loop
      vertex 22.7959 36.7348 -0.0909996
      vertex 31.1941 36.7348 -0.0909996
      vertex 31.1868 37.0259 -0.0909996
    endloop
  endfacet
  facet normal 0 0 1
    outer loop
      vertex 31.1941 36.7348 -0.0909996
      vertex 22.7959 36.7348 -0.0909996
      vertex 31.1941 22.7326 -0.0909996
    endloop
  endfacet
  facet normal 0 0 1
    outer loop
      vertex 22.8033 37.0259 -0.0909996
      vertex 31.1868 37.0259 -0.0909996
      vertex 31.1648 37.3108 -0.0909996
    endloop
  endfacet
  facet normal 0 0 1
    outer loop
      vertex 22.7959 22.7326 -0.0909996
      vertex 31.1941 22.7326 -0.0909996
      vertex 22.7959 36.7348 -0.0909996
    endloop
  endfacet
  facet normal 0 0 1
    outer loop
      vertex 22.8252 37.3108 -0.0909996
      vertex 31.1648 37.3108 -0.0909996
      vertex 31.1281 37.5892 -0.0909996
    endloop
  endfacet
  facet normal 0 0 1
    outer loop
      vertex 31.1941 22.7326 -0.0909996
      vertex 22.7959 22.7326 -0.0909996
      vertex 31.1868 22.4414 -0.0909996
    endloop
  endfacet
  facet normal 0 0 1
    outer loop
      vertex 22.8619 37.5892 -0.0909996
      vertex 31.1281 37.5892 -0.0909996
      vertex 31.0768 37.8614 -0.0909996
    endloop
  endfacet
  facet normal 0 -0 1
    outer loop
      vertex 22.8033 22.4414 -0.0909996
      vertex 31.1868 22.4414 -0.0909996
      vertex 22.7959 22.7326 -0.0909996
    endloop
  endfacet
  facet normal 0 0 1
    outer loop
      vertex 22.8619 37.5892 -0.0909996
      vertex 31.0768 37.8614 -0.0909996
      vertex 31.0108 38.1272 -0.0909996
    endloop
  endfacet
  facet normal 0 0 1
    outer loop
      vertex 31.1868 22.4414 -0.0909996
      vertex 22.8033 22.4414 -0.0909996
      vertex 31.1648 22.1566 -0.0909996
    endloop
  endfacet
  facet normal 0 0 1
    outer loop
      vertex 22.9132 37.8614 -0.0909996
      vertex 31.0108 38.1272 -0.0909996
      vertex 30.9302 38.3866 -0.0909996
    endloop
  endfacet
  facet normal 0 -0 1
    outer loop
      vertex 22.8252 22.1566 -0.0909996
      vertex 31.1648 22.1566 -0.0909996
      vertex 22.8033 22.4414 -0.0909996
    endloop
  endfacet
  facet normal 0 0 1
    outer loop
      vertex 22.9132 37.8614 -0.0909996
      vertex 30.9302 38.3866 -0.0909996
      vertex 30.8649 38.56 -0.0909996
    endloop
  endfacet
  facet normal 0 0 1
    outer loop
      vertex 31.1648 22.1566 -0.0909996
      vertex 22.8252 22.1566 -0.0909996
      vertex 31.1281 21.8781 -0.0909996
    endloop
  endfacet
  facet normal 0 0 1
    outer loop
      vertex 31.1281 21.8781 -0.0909996
      vertex 22.8619 21.8781 -0.0909996
      vertex 31.0768 21.606 -0.0909996
    endloop
  endfacet
  facet normal 0 0 1
    outer loop
      vertex 31.0768 21.606 -0.0909996
      vertex 22.8619 21.8781 -0.0909996
      vertex 31.0108 21.3402 -0.0909996
    endloop
  endfacet
  facet normal -0 -0 1
    outer loop
      vertex 22.9132 21.606 -0.0909996
      vertex 31.0108 21.3402 -0.0909996
      vertex 22.8619 21.8781 -0.0909996
    endloop
  endfacet
  facet normal 0 0 1
    outer loop
      vertex 31.0108 21.3402 -0.0909996
      vertex 22.9132 21.606 -0.0909996
      vertex 30.9302 21.0808 -0.0909996
    endloop
  endfacet
  facet normal -0 -0 1
    outer loop
      vertex 22.9791 21.3402 -0.0909996
      vertex 30.9302 21.0808 -0.0909996
      vertex 22.9132 21.606 -0.0909996
    endloop
  endfacet
  facet normal 0 0 1
    outer loop
      vertex 30.9302 21.0808 -0.0909996
      vertex 22.9791 21.3402 -0.0909996
      vertex 30.8349 20.8277 -0.0909996
    endloop
  endfacet
  facet normal -0 -0 1
    outer loop
      vertex 23.0597 21.0808 -0.0909996
      vertex 30.8349 20.8277 -0.0909996
      vertex 22.9791 21.3402 -0.0909996
    endloop
  endfacet
  facet normal 0 0 1
    outer loop
      vertex 30.8349 20.8277 -0.0909996
      vertex 23.0597 21.0808 -0.0909996
      vertex 30.7249 20.5809 -0.0909996
    endloop
  endfacet
  facet normal -0 -0 1
    outer loop
      vertex 23.155 20.8277 -0.0909996
      vertex 30.7249 20.5809 -0.0909996
      vertex 23.0597 21.0808 -0.0909996
    endloop
  endfacet
  facet normal 0 0 1
    outer loop
      vertex 30.7249 20.5809 -0.0909996
      vertex 23.155 20.8277 -0.0909996
      vertex 30.6003 20.3406 -0.0909996
    endloop
  endfacet
  facet normal -0 -0 1
    outer loop
      vertex 23.2649 20.5809 -0.0909996
      vertex 30.6003 20.3406 -0.0909996
      vertex 23.155 20.8277 -0.0909996
    endloop
  endfacet
  facet normal 0 0 1
    outer loop
      vertex 30.6003 20.3406 -0.0909996
      vertex 23.2649 20.5809 -0.0909996
      vertex 30.461 20.1066 -0.0909996
    endloop
  endfacet
  facet normal -0 -0 1
    outer loop
      vertex 23.3895 20.3406 -0.0909996
      vertex 30.461 20.1066 -0.0909996
      vertex 23.2649 20.5809 -0.0909996
    endloop
  endfacet
  facet normal 0 0 1
    outer loop
      vertex 30.461 20.1066 -0.0909996
      vertex 23.3895 20.3406 -0.0909996
      vertex 30.307 19.8789 -0.0909996
    endloop
  endfacet
  facet normal -0 -0 1
    outer loop
      vertex 23.5287 20.1066 -0.0909996
      vertex 30.307 19.8789 -0.0909996
      vertex 23.3895 20.3406 -0.0909996
    endloop
  endfacet
  facet normal 0 -0 1
    outer loop
      vertex 23.6826 19.8789 -0.0909996
      vertex 30.307 19.8789 -0.0909996
      vertex 23.5287 20.1066 -0.0909996
    endloop
  endfacet
  facet normal 0 0 1
    outer loop
      vertex 30.307 19.8789 -0.0909996
      vertex 23.6826 19.8789 -0.0909996
      vertex 30.1384 19.6575 -0.0909996
    endloop
  endfacet
  facet normal 0 -0 1
    outer loop
      vertex 23.8511 19.6575 -0.0909996
      vertex 30.1384 19.6575 -0.0909996
      vertex 23.6826 19.8789 -0.0909996
    endloop
  endfacet
  facet normal 0 0 1
    outer loop
      vertex 30.1384 19.6575 -0.0909996
      vertex 23.8511 19.6575 -0.0909996
      vertex 29.9551 19.4426 -0.0909996
    endloop
  endfacet
  facet normal 0 -0 1
    outer loop
      vertex 24.0343 19.4426 -0.0909996
      vertex 29.9551 19.4426 -0.0909996
      vertex 23.8511 19.6575 -0.0909996
    endloop
  endfacet
  facet normal 0 0 1
    outer loop
      vertex 29.9551 19.4426 -0.0909996
      vertex 24.0343 19.4426 -0.0909996
      vertex 29.7617 19.2388 -0.0909996
    endloop
  endfacet
  facet normal 0 0 1
    outer loop
      vertex 28.2478 18.269 -0.0909996
      vertex 24.2278 19.2388 -0.0909996
      vertex 28.0086 18.1956 -0.0909996
    endloop
  endfacet
  facet normal 0 0 1
    outer loop
      vertex 27.5131 18.0978 -0.0909996
      vertex 24.2278 19.2388 -0.0909996
      vertex 27.2568 18.0733 -0.0909996
    endloop
  endfacet
  facet normal -0 -0 1
    outer loop
      vertex 24.427 19.0514 -0.0909996
      vertex 27.2568 18.0733 -0.0909996
      vertex 24.2278 19.2388 -0.0909996
    endloop
  endfacet
  facet normal 0 0 1
    outer loop
      vertex 26.9947 18.0652 -0.0909996
      vertex 24.427 19.0514 -0.0909996
      vertex 26.7328 18.0733 -0.0909996
    endloop
  endfacet
  facet normal 0 0 1
    outer loop
      vertex 26.7328 18.0733 -0.0909996
      vertex 24.427 19.0514 -0.0909996
      vertex 26.4765 18.0978 -0.0909996
    endloop
  endfacet
  facet normal 0 0 1
    outer loop
      vertex 26.2259 18.1385 -0.0909996
      vertex 24.427 19.0514 -0.0909996
      vertex 25.9811 18.1956 -0.0909996
    endloop
  endfacet
  facet normal 0 0 1
    outer loop
      vertex 25.9811 18.1956 -0.0909996
      vertex 24.427 19.0514 -0.0909996
      vertex 25.7419 18.269 -0.0909996
    endloop
  endfacet
  facet normal 0 0 1
    outer loop
      vertex 25.2808 18.4646 -0.0909996
      vertex 24.8425 18.7254 -0.0909996
      vertex 25.0588 18.5868 -0.0909996
    endloop
  endfacet
  facet normal 0 0 1
    outer loop
      vertex 25.2808 18.4646 -0.0909996
      vertex 24.6319 18.8802 -0.0909996
      vertex 24.8425 18.7254 -0.0909996
    endloop
  endfacet
  facet normal 0 0 1
    outer loop
      vertex 25.2808 18.4646 -0.0909996
      vertex 24.427 19.0514 -0.0909996
      vertex 24.6319 18.8802 -0.0909996
    endloop
  endfacet
  facet normal 0 0 1
    outer loop
      vertex 25.5085 18.3586 -0.0909996
      vertex 24.427 19.0514 -0.0909996
      vertex 25.2808 18.4646 -0.0909996
    endloop
  endfacet
  facet normal 0 0 1
    outer loop
      vertex 25.7419 18.269 -0.0909996
      vertex 24.427 19.0514 -0.0909996
      vertex 25.5085 18.3586 -0.0909996
    endloop
  endfacet
  facet normal 0 0 1
    outer loop
      vertex 26.4765 18.0978 -0.0909996
      vertex 24.427 19.0514 -0.0909996
      vertex 26.2259 18.1385 -0.0909996
    endloop
  endfacet
  facet normal 0 0 1
    outer loop
      vertex 27.2568 18.0733 -0.0909996
      vertex 24.427 19.0514 -0.0909996
      vertex 26.9947 18.0652 -0.0909996
    endloop
  endfacet
  facet normal 0 0 1
    outer loop
      vertex 27.7637 18.1385 -0.0909996
      vertex 24.2278 19.2388 -0.0909996
      vertex 27.5131 18.0978 -0.0909996
    endloop
  endfacet
  facet normal 0 0 1
    outer loop
      vertex 28.0086 18.1956 -0.0909996
      vertex 24.2278 19.2388 -0.0909996
      vertex 27.7637 18.1385 -0.0909996
    endloop
  endfacet
  facet normal 0 0 1
    outer loop
      vertex 28.4812 18.3586 -0.0909996
      vertex 24.2278 19.2388 -0.0909996
      vertex 28.2478 18.269 -0.0909996
    endloop
  endfacet
  facet normal 0 0 1
    outer loop
      vertex 22.9791 38.1272 -0.0909996
      vertex 30.8649 38.56 -0.0909996
      vertex 23.125 38.56 -0.0909996
    endloop
  endfacet
  facet normal 0 0 1
    outer loop
      vertex 22.9791 38.1272 -0.0909996
      vertex 23.125 38.56 -0.0909996
      vertex 23.0597 38.3866 -0.0909996
    endloop
  endfacet
  facet normal 0 -0 1
    outer loop
      vertex 22.8619 21.8781 -0.0909996
      vertex 31.1281 21.8781 -0.0909996
      vertex 22.8252 22.1566 -0.0909996
    endloop
  endfacet
  facet normal 0 0 1
    outer loop
      vertex 22.9132 37.8614 -0.0909996
      vertex 30.8649 38.56 -0.0909996
      vertex 22.9791 38.1272 -0.0909996
    endloop
  endfacet
  facet normal 0 0 1
    outer loop
      vertex 28.709 18.4646 -0.0909996
      vertex 24.2278 19.2388 -0.0909996
      vertex 28.4812 18.3586 -0.0909996
    endloop
  endfacet
  facet normal 0 0 1
    outer loop
      vertex 31.0108 38.1272 -0.0909996
      vertex 22.9132 37.8614 -0.0909996
      vertex 22.8619 37.5892 -0.0909996
    endloop
  endfacet
  facet normal 0 0 1
    outer loop
      vertex 28.931 18.5868 -0.0909996
      vertex 24.2278 19.2388 -0.0909996
      vertex 28.709 18.4646 -0.0909996
    endloop
  endfacet
  facet normal 0 0 1
    outer loop
      vertex 31.1281 37.5892 -0.0909996
      vertex 22.8619 37.5892 -0.0909996
      vertex 22.8252 37.3108 -0.0909996
    endloop
  endfacet
  facet normal 0 0 1
    outer loop
      vertex 29.1472 18.7254 -0.0909996
      vertex 24.2278 19.2388 -0.0909996
      vertex 28.931 18.5868 -0.0909996
    endloop
  endfacet
  facet normal 0 0 1
    outer loop
      vertex 31.1648 37.3108 -0.0909996
      vertex 22.8252 37.3108 -0.0909996
      vertex 22.8033 37.0259 -0.0909996
    endloop
  endfacet
  facet normal 0 0 1
    outer loop
      vertex 29.3578 18.8802 -0.0909996
      vertex 24.2278 19.2388 -0.0909996
      vertex 29.1472 18.7254 -0.0909996
    endloop
  endfacet
  facet normal 0 0 1
    outer loop
      vertex 31.1868 37.0259 -0.0909996
      vertex 22.8033 37.0259 -0.0909996
      vertex 22.7959 36.7348 -0.0909996
    endloop
  endfacet
  facet normal 0 0 1
    outer loop
      vertex 29.5626 19.0514 -0.0909996
      vertex 24.2278 19.2388 -0.0909996
      vertex 29.3578 18.8802 -0.0909996
    endloop
  endfacet
  facet normal 0 0 1
    outer loop
      vertex 29.7617 19.2388 -0.0909996
      vertex 24.2278 19.2388 -0.0909996
      vertex 29.5626 19.0514 -0.0909996
    endloop
  endfacet
  facet normal 0 -0 1
    outer loop
      vertex 24.2278 19.2388 -0.0909996
      vertex 29.7617 19.2388 -0.0909996
      vertex 24.0343 19.4426 -0.0909996
    endloop
  endfacet
  facet normal -0.982688 -0.18527 0
    outer loop
      vertex 22.9132 21.606 -0.391
      vertex 22.8619 21.8781 -0.0909996
      vertex 22.8619 21.8781 -0.391
    endloop
  endfacet
  facet normal -0.982688 -0.18527 0
    outer loop
      vertex 22.8619 21.8781 -0.0909996
      vertex 22.9132 21.606 -0.391
      vertex 22.9132 21.606 -0.0909996
    endloop
  endfacet
  facet normal -0.954963 -0.296723 0
    outer loop
      vertex 23.0597 21.0808 -0.391
      vertex 22.9791 21.3402 -0.0909996
      vertex 22.9791 21.3402 -0.391
    endloop
  endfacet
  facet normal -0.954963 -0.296723 0
    outer loop
      vertex 22.9791 21.3402 -0.0909996
      vertex 23.0597 21.0808 -0.391
      vertex 23.0597 21.0808 -0.0909996
    endloop
  endfacet
  facet normal -0.859431 -0.511251 0
    outer loop
      vertex 23.5287 20.1066 -0.391
      vertex 23.3895 20.3406 -0.0909996
      vertex 23.3895 20.3406 -0.391
    endloop
  endfacet
  facet normal -0.859431 -0.511251 0
    outer loop
      vertex 23.3895 20.3406 -0.0909996
      vertex 23.5287 20.1066 -0.391
      vertex 23.5287 20.1066 -0.0909996
    endloop
  endfacet
  facet normal -0.913521 -0.406791 0
    outer loop
      vertex 23.2649 20.5809 -0.391
      vertex 23.155 20.8277 -0.0909996
      vertex 23.155 20.8277 -0.391
    endloop
  endfacet
  facet normal -0.913521 -0.406791 0
    outer loop
      vertex 23.155 20.8277 -0.0909996
      vertex 23.2649 20.5809 -0.391
      vertex 23.2649 20.5809 -0.0909996
    endloop
  endfacet
  facet normal -0.685205 -0.72835 0
    outer loop
      vertex 24.2278 19.2388 -0.391
      vertex 24.427 19.0514 -0.0909996
      vertex 24.2278 19.2388 -0.0909996
    endloop
  endfacet
  facet normal -0.685205 -0.72835 -0
    outer loop
      vertex 24.427 19.0514 -0.0909996
      vertex 24.2278 19.2388 -0.391
      vertex 24.427 19.0514 -0.391
    endloop
  endfacet
  facet normal -0.592259 -0.805748 0
    outer loop
      vertex 24.6319 18.8802 -0.391
      vertex 24.8425 18.7254 -0.0909996
      vertex 24.6319 18.8802 -0.0909996
    endloop
  endfacet
  facet normal -0.592259 -0.805748 -0
    outer loop
      vertex 24.8425 18.7254 -0.0909996
      vertex 24.6319 18.8802 -0.391
      vertex 24.8425 18.7254 -0.391
    endloop
  endfacet
  facet normal -0.761004 -0.648748 0
    outer loop
      vertex 24.0343 19.4426 -0.391
      vertex 23.8511 19.6575 -0.0909996
      vertex 23.8511 19.6575 -0.391
    endloop
  endfacet
  facet normal -0.761004 -0.648748 0
    outer loop
      vertex 23.8511 19.6575 -0.0909996
      vertex 24.0343 19.4426 -0.391
      vertex 24.0343 19.4426 -0.0909996
    endloop
  endfacet
  facet normal -0.828507 -0.559979 0
    outer loop
      vertex 23.6826 19.8789 -0.391
      vertex 23.5287 20.1066 -0.0909996
      vertex 23.5287 20.1066 -0.391
    endloop
  endfacet
  facet normal -0.828507 -0.559979 0
    outer loop
      vertex 23.5287 20.1066 -0.0909996
      vertex 23.6826 19.8789 -0.391
      vertex 23.6826 19.8789 -0.0909996
    endloop
  endfacet
  facet normal -0.482222 -0.876049 0
    outer loop
      vertex 25.0588 18.5868 -0.391
      vertex 25.2808 18.4646 -0.0909996
      vertex 25.0588 18.5868 -0.0909996
    endloop
  endfacet
  facet normal -0.482222 -0.876049 -0
    outer loop
      vertex 25.2808 18.4646 -0.0909996
      vertex 25.0588 18.5868 -0.391
      vertex 25.2808 18.4646 -0.391
    endloop
  endfacet
  facet normal -0.293356 -0.956003 0
    outer loop
      vertex 25.7419 18.269 -0.391
      vertex 25.9811 18.1956 -0.0909996
      vertex 25.7419 18.269 -0.0909996
    endloop
  endfacet
  facet normal -0.293356 -0.956003 -0
    outer loop
      vertex 25.9811 18.1956 -0.0909996
      vertex 25.7419 18.269 -0.391
      vertex 25.9811 18.1956 -0.391
    endloop
  endfacet
  facet normal -0.16031 -0.987067 0
    outer loop
      vertex 26.2259 18.1385 -0.391
      vertex 26.4765 18.0978 -0.0909996
      vertex 26.2259 18.1385 -0.0909996
    endloop
  endfacet
  facet normal -0.16031 -0.987067 -0
    outer loop
      vertex 26.4765 18.0978 -0.0909996
      vertex 26.2259 18.1385 -0.391
      vertex 26.4765 18.0978 -0.391
    endloop
  endfacet
  facet normal -0.0309131 -0.999522 0
    outer loop
      vertex 26.7328 18.0733 -0.391
      vertex 26.9947 18.0652 -0.0909996
      vertex 26.7328 18.0733 -0.0909996
    endloop
  endfacet
  facet normal -0.0309131 -0.999522 -0
    outer loop
      vertex 26.9947 18.0652 -0.0909996
      vertex 26.7328 18.0733 -0.391
      vertex 26.9947 18.0652 -0.391
    endloop
  endfacet
  facet normal 0.0951573 -0.995462 0
    outer loop
      vertex 27.2568 18.0733 -0.391
      vertex 27.5131 18.0978 -0.0909996
      vertex 27.2568 18.0733 -0.0909996
    endloop
  endfacet
  facet normal 0.0951573 -0.995462 0
    outer loop
      vertex 27.5131 18.0978 -0.0909996
      vertex 27.2568 18.0733 -0.391
      vertex 27.5131 18.0978 -0.391
    endloop
  endfacet
  facet normal 0.999686 -0.0250608 0
    outer loop
      vertex 31.1868 22.4414 -0.0909996
      vertex 31.1941 22.7326 -0.391
      vertex 31.1941 22.7326 -0.0909996
    endloop
  endfacet
  facet normal 0.999686 -0.0250608 0
    outer loop
      vertex 31.1941 22.7326 -0.391
      vertex 31.1868 22.4414 -0.0909996
      vertex 31.1868 22.4414 -0.391
    endloop
  endfacet
  facet normal 0.997032 0.0769909 0
    outer loop
      vertex 31.1868 37.0259 -0.0909996
      vertex 31.1648 37.3108 -0.391
      vertex 31.1648 37.3108 -0.0909996
    endloop
  endfacet
  facet normal 0.997032 0.0769909 0
    outer loop
      vertex 31.1648 37.3108 -0.391
      vertex 31.1868 37.0259 -0.0909996
      vertex 31.1868 37.0259 -0.391
    endloop
  endfacet
  facet normal 0.913384 -0.4071 0
    outer loop
      vertex 30.7249 20.5809 -0.0909996
      vertex 30.8349 20.8277 -0.391
      vertex 30.8349 20.8277 -0.0909996
    endloop
  endfacet
  facet normal 0.913384 -0.4071 0
    outer loop
      vertex 30.8349 20.8277 -0.391
      vertex 30.7249 20.5809 -0.0909996
      vertex 30.7249 20.5809 -0.391
    endloop
  endfacet
  facet normal 0.954963 -0.296723 0
    outer loop
      vertex 30.9302 21.0808 -0.0909996
      vertex 31.0108 21.3402 -0.391
      vertex 31.0108 21.3402 -0.0909996
    endloop
  endfacet
  facet normal 0.954963 -0.296723 0
    outer loop
      vertex 31.0108 21.3402 -0.391
      vertex 30.9302 21.0808 -0.0909996
      vertex 30.9302 21.0808 -0.391
    endloop
  endfacet
  facet normal 0.982688 -0.18527 0
    outer loop
      vertex 31.0768 21.606 -0.0909996
      vertex 31.1281 21.8781 -0.391
      vertex 31.1281 21.8781 -0.0909996
    endloop
  endfacet
  facet normal 0.982688 -0.18527 0
    outer loop
      vertex 31.1281 21.8781 -0.391
      vertex 31.0768 21.606 -0.0909996
      vertex 31.0768 21.606 -0.391
    endloop
  endfacet
  facet normal 0.641363 -0.767238 0
    outer loop
      vertex 29.3578 18.8802 -0.391
      vertex 29.5626 19.0514 -0.0909996
      vertex 29.3578 18.8802 -0.0909996
    endloop
  endfacet
  facet normal 0.641363 -0.767238 0
    outer loop
      vertex 29.5626 19.0514 -0.0909996
      vertex 29.3578 18.8802 -0.391
      vertex 29.5626 19.0514 -0.391
    endloop
  endfacet
  facet normal 0.539694 -0.841861 0
    outer loop
      vertex 28.931 18.5868 -0.391
      vertex 29.1472 18.7254 -0.0909996
      vertex 28.931 18.5868 -0.0909996
    endloop
  endfacet
  facet normal 0.539694 -0.841861 0
    outer loop
      vertex 29.1472 18.7254 -0.0909996
      vertex 28.931 18.5868 -0.391
      vertex 29.1472 18.7254 -0.391
    endloop
  endfacet
  facet normal 0.421883 -0.90665 0
    outer loop
      vertex 28.4812 18.3586 -0.391
      vertex 28.709 18.4646 -0.0909996
      vertex 28.4812 18.3586 -0.0909996
    endloop
  endfacet
  facet normal 0.421883 -0.90665 0
    outer loop
      vertex 28.709 18.4646 -0.0909996
      vertex 28.4812 18.3586 -0.391
      vertex 28.709 18.4646 -0.391
    endloop
  endfacet
  facet normal -0.935857 -0.352379 0
    outer loop
      vertex 23.155 20.8277 -0.391
      vertex 23.0597 21.0808 -0.0909996
      vertex 23.0597 21.0808 -0.391
    endloop
  endfacet
  facet normal -0.935857 -0.352379 0
    outer loop
      vertex 23.0597 21.0808 -0.0909996
      vertex 23.155 20.8277 -0.391
      vertex 23.155 20.8277 -0.0909996
    endloop
  endfacet
  facet normal -0.887755 -0.460317 0
    outer loop
      vertex 23.3895 20.3406 -0.391
      vertex 23.2649 20.5809 -0.0909996
      vertex 23.2649 20.5809 -0.391
    endloop
  endfacet
  facet normal -0.887755 -0.460317 0
    outer loop
      vertex 23.2649 20.5809 -0.0909996
      vertex 23.3895 20.3406 -0.391
      vertex 23.3895 20.3406 -0.0909996
    endloop
  endfacet
  facet normal -0.641178 -0.767392 0
    outer loop
      vertex 24.427 19.0514 -0.391
      vertex 24.6319 18.8802 -0.0909996
      vertex 24.427 19.0514 -0.0909996
    endloop
  endfacet
  facet normal -0.641178 -0.767392 -0
    outer loop
      vertex 24.6319 18.8802 -0.0909996
      vertex 24.427 19.0514 -0.391
      vertex 24.6319 18.8802 -0.391
    endloop
  endfacet
  facet normal -0.725195 -0.688544 0
    outer loop
      vertex 24.2278 19.2388 -0.391
      vertex 24.0343 19.4426 -0.0909996
      vertex 24.0343 19.4426 -0.391
    endloop
  endfacet
  facet normal -0.725195 -0.688544 0
    outer loop
      vertex 24.0343 19.4426 -0.0909996
      vertex 24.2278 19.2388 -0.391
      vertex 24.2278 19.2388 -0.0909996
    endloop
  endfacet
  facet normal -0.795753 -0.605621 0
    outer loop
      vertex 23.8511 19.6575 -0.391
      vertex 23.6826 19.8789 -0.0909996
      vertex 23.6826 19.8789 -0.391
    endloop
  endfacet
  facet normal -0.795753 -0.605621 0
    outer loop
      vertex 23.6826 19.8789 -0.0909996
      vertex 23.8511 19.6575 -0.391
      vertex 23.8511 19.6575 -0.0909996
    endloop
  endfacet
  facet normal -0.227154 -0.973859 0
    outer loop
      vertex 25.9811 18.1956 -0.391
      vertex 26.2259 18.1385 -0.0909996
      vertex 25.9811 18.1956 -0.0909996
    endloop
  endfacet
  facet normal -0.227154 -0.973859 -0
    outer loop
      vertex 26.2259 18.1385 -0.0909996
      vertex 25.9811 18.1956 -0.391
      vertex 26.2259 18.1385 -0.391
    endloop
  endfacet
  facet normal -0.0951573 -0.995462 0
    outer loop
      vertex 26.4765 18.0978 -0.391
      vertex 26.7328 18.0733 -0.0909996
      vertex 26.4765 18.0978 -0.0909996
    endloop
  endfacet
  facet normal -0.0951573 -0.995462 -0
    outer loop
      vertex 26.7328 18.0733 -0.0909996
      vertex 26.4765 18.0978 -0.391
      vertex 26.7328 18.0733 -0.391
    endloop
  endfacet
  facet normal 0.0308895 -0.999523 0
    outer loop
      vertex 26.9947 18.0652 -0.391
      vertex 27.2568 18.0733 -0.0909996
      vertex 26.9947 18.0652 -0.0909996
    endloop
  endfacet
  facet normal 0.0308895 -0.999523 0
    outer loop
      vertex 27.2568 18.0733 -0.0909996
      vertex 26.9947 18.0652 -0.391
      vertex 27.2568 18.0733 -0.391
    endloop
  endfacet
  facet normal 0.16031 -0.987067 0
    outer loop
      vertex 27.5131 18.0978 -0.391
      vertex 27.7637 18.1385 -0.0909996
      vertex 27.5131 18.0978 -0.0909996
    endloop
  endfacet
  facet normal 0.16031 -0.987067 0
    outer loop
      vertex 27.7637 18.1385 -0.0909996
      vertex 27.5131 18.0978 -0.391
      vertex 27.7637 18.1385 -0.391
    endloop
  endfacet
  facet normal 0.828338 -0.560229 0
    outer loop
      vertex 30.307 19.8789 -0.0909996
      vertex 30.461 20.1066 -0.391
      vertex 30.461 20.1066 -0.0909996
    endloop
  endfacet
  facet normal 0.828338 -0.560229 0
    outer loop
      vertex 30.461 20.1066 -0.391
      vertex 30.307 19.8789 -0.0909996
      vertex 30.307 19.8789 -0.391
    endloop
  endfacet
  facet normal 0.887755 -0.460317 0
    outer loop
      vertex 30.6003 20.3406 -0.0909996
      vertex 30.7249 20.5809 -0.391
      vertex 30.7249 20.5809 -0.0909996
    endloop
  endfacet
  facet normal 0.887755 -0.460317 0
    outer loop
      vertex 30.7249 20.5809 -0.391
      vertex 30.6003 20.3406 -0.0909996
      vertex 30.6003 20.3406 -0.391
    endloop
  endfacet
  facet normal 0.935857 -0.352379 0
    outer loop
      vertex 30.8349 20.8277 -0.0909996
      vertex 30.9302 21.0808 -0.391
      vertex 30.9302 21.0808 -0.0909996
    endloop
  endfacet
  facet normal 0.935857 -0.352379 0
    outer loop
      vertex 30.9302 21.0808 -0.391
      vertex 30.8349 20.8277 -0.0909996
      vertex 30.8349 20.8277 -0.391
    endloop
  endfacet
  facet normal 0.970528 -0.240989 0
    outer loop
      vertex 31.0108 21.3402 -0.0909996
      vertex 31.0768 21.606 -0.391
      vertex 31.0768 21.606 -0.0909996
    endloop
  endfacet
  facet normal 0.970528 -0.240989 0
    outer loop
      vertex 31.0768 21.606 -0.391
      vertex 31.0108 21.3402 -0.0909996
      vertex 31.0108 21.3402 -0.391
    endloop
  endfacet
  facet normal 0.991429 -0.130648 0
    outer loop
      vertex 31.1281 21.8781 -0.0909996
      vertex 31.1648 22.1566 -0.391
      vertex 31.1648 22.1566 -0.0909996
    endloop
  endfacet
  facet normal 0.991429 -0.130648 0
    outer loop
      vertex 31.1648 22.1566 -0.391
      vertex 31.1281 21.8781 -0.0909996
      vertex 31.1281 21.8781 -0.391
    endloop
  endfacet
  facet normal 0.685388 -0.728179 0
    outer loop
      vertex 29.5626 19.0514 -0.391
      vertex 29.7617 19.2388 -0.0909996
      vertex 29.5626 19.0514 -0.0909996
    endloop
  endfacet
  facet normal 0.685388 -0.728179 0
    outer loop
      vertex 29.7617 19.2388 -0.0909996
      vertex 29.5626 19.0514 -0.391
      vertex 29.7617 19.2388 -0.391
    endloop
  endfacet
  facet normal 0.725373 -0.688356 0
    outer loop
      vertex 29.7617 19.2388 -0.0909996
      vertex 29.9551 19.4426 -0.391
      vertex 29.9551 19.4426 -0.0909996
    endloop
  endfacet
  facet normal 0.725373 -0.688356 0
    outer loop
      vertex 29.9551 19.4426 -0.391
      vertex 29.7617 19.2388 -0.0909996
      vertex 29.7617 19.2388 -0.391
    endloop
  endfacet
  facet normal 0.79558 -0.605848 0
    outer loop
      vertex 30.1384 19.6575 -0.0909996
      vertex 30.307 19.8789 -0.391
      vertex 30.307 19.8789 -0.0909996
    endloop
  endfacet
  facet normal 0.79558 -0.605848 0
    outer loop
      vertex 30.307 19.8789 -0.391
      vertex 30.1384 19.6575 -0.0909996
      vertex 30.1384 19.6575 -0.391
    endloop
  endfacet
  facet normal 0.592259 -0.805748 0
    outer loop
      vertex 29.1472 18.7254 -0.391
      vertex 29.3578 18.8802 -0.0909996
      vertex 29.1472 18.7254 -0.0909996
    endloop
  endfacet
  facet normal 0.592259 -0.805748 0
    outer loop
      vertex 29.3578 18.8802 -0.0909996
      vertex 29.1472 18.7254 -0.391
      vertex 29.3578 18.8802 -0.391
    endloop
  endfacet
  facet normal 0.482222 -0.876049 0
    outer loop
      vertex 28.709 18.4646 -0.391
      vertex 28.931 18.5868 -0.0909996
      vertex 28.709 18.4646 -0.0909996
    endloop
  endfacet
  facet normal 0.482222 -0.876049 0
    outer loop
      vertex 28.931 18.5868 -0.0909996
      vertex 28.709 18.4646 -0.391
      vertex 28.931 18.5868 -0.391
    endloop
  endfacet
  facet normal 0.85927 -0.511523 0
    outer loop
      vertex 30.461 20.1066 -0.0909996
      vertex 30.6003 20.3406 -0.391
      vertex 30.6003 20.3406 -0.0909996
    endloop
  endfacet
  facet normal 0.85927 -0.511523 0
    outer loop
      vertex 30.6003 20.3406 -0.391
      vertex 30.461 20.1066 -0.0909996
      vertex 30.461 20.1066 -0.391
    endloop
  endfacet
  facet normal 0.760829 -0.648953 0
    outer loop
      vertex 29.9551 19.4426 -0.0909996
      vertex 30.1384 19.6575 -0.391
      vertex 30.1384 19.6575 -0.0909996
    endloop
  endfacet
  facet normal 0.760829 -0.648953 0
    outer loop
      vertex 30.1384 19.6575 -0.391
      vertex 29.9551 19.4426 -0.0909996
      vertex 29.9551 19.4426 -0.391
    endloop
  endfacet
  facet normal 0.935894 0.352281 -0
    outer loop
      vertex 30.8649 38.56 -0.0909996
      vertex 30.8349 38.6397 0.108999
      vertex 30.8649 38.56 0.108999
    endloop
  endfacet
  facet normal 0.935894 0.352281 -0
    outer loop
      vertex 30.8649 38.56 -0.391
      vertex 30.8349 38.6397 0.108999
      vertex 30.8649 38.56 -0.0909996
    endloop
  endfacet
  facet normal 0.935894 0.352281 0
    outer loop
      vertex 30.8349 38.6397 0.108999
      vertex 30.8649 38.56 -0.391
      vertex 30.8349 38.6397 -0.891
    endloop
  endfacet
  facet normal 0.935894 0.352281 0
    outer loop
      vertex 30.8349 38.6397 -0.891
      vertex 30.8649 38.56 -0.391
      vertex 30.8649 38.56 -0.891
    endloop
  endfacet
  facet normal 0 0 -1
    outer loop
      vertex 30.8649 38.56 -0.891
      vertex 30.7249 38.8864 -0.891
      vertex 30.8349 38.6397 -0.891
    endloop
  endfacet
  facet normal 0 0 -1
    outer loop
      vertex 30.8649 38.56 -0.891
      vertex 30.6003 39.1268 -0.891
      vertex 30.7249 38.8864 -0.891
    endloop
  endfacet
  facet normal 0 0 -1
    outer loop
      vertex 30.8649 38.56 -0.891
      vertex 30.461 39.3608 -0.891
      vertex 30.6003 39.1268 -0.891
    endloop
  endfacet
  facet normal 0 0 -1
    outer loop
      vertex 23.5287 39.3608 -0.891
      vertex 30.461 39.3608 -0.891
      vertex 30.8649 38.56 -0.891
    endloop
  endfacet
  facet normal 0 0 -1
    outer loop
      vertex 30.461 39.3608 -0.891
      vertex 23.5287 39.3608 -0.891
      vertex 30.307 39.5885 -0.891
    endloop
  endfacet
  facet normal 0 0 -1
    outer loop
      vertex 30.307 39.5885 -0.891
      vertex 23.6826 39.5885 -0.891
      vertex 30.1384 39.8098 -0.891
    endloop
  endfacet
  facet normal 0 -0 -1
    outer loop
      vertex 23.8511 39.8098 -0.891
      vertex 30.1384 39.8098 -0.891
      vertex 23.6826 39.5885 -0.891
    endloop
  endfacet
  facet normal 0 -0 -1
    outer loop
      vertex 24.0343 40.0248 -0.891
      vertex 29.9551 40.0248 -0.891
      vertex 23.8511 39.8098 -0.891
    endloop
  endfacet
  facet normal 0 0 -1
    outer loop
      vertex 29.9551 40.0248 -0.891
      vertex 24.0343 40.0248 -0.891
      vertex 29.7617 40.2285 -0.891
    endloop
  endfacet
  facet normal 0 0 -1
    outer loop
      vertex 29.7617 40.2285 -0.891
      vertex 24.2278 40.2285 -0.891
      vertex 29.5626 40.416 -0.891
    endloop
  endfacet
  facet normal 0 -0 -1
    outer loop
      vertex 24.427 40.416 -0.891
      vertex 29.5626 40.416 -0.891
      vertex 24.2278 40.2285 -0.891
    endloop
  endfacet
  facet normal -0 0 -1
    outer loop
      vertex 29.3578 40.5871 -0.891
      vertex 24.427 40.416 -0.891
      vertex 29.1472 40.742 -0.891
    endloop
  endfacet
  facet normal 0 -0 -1
    outer loop
      vertex 24.6319 40.5871 -0.891
      vertex 29.1472 40.742 -0.891
      vertex 24.427 40.416 -0.891
    endloop
  endfacet
  facet normal 0 0 -1
    outer loop
      vertex 28.709 41.0028 -0.891
      vertex 28.2478 41.1984 -0.891
      vertex 28.4812 41.1087 -0.891
    endloop
  endfacet
  facet normal 0 0 -1
    outer loop
      vertex 28.709 41.0028 -0.891
      vertex 28.0086 41.2717 -0.891
      vertex 28.2478 41.1984 -0.891
    endloop
  endfacet
  facet normal 0 0 -1
    outer loop
      vertex 28.709 41.0028 -0.891
      vertex 27.7637 41.3288 -0.891
      vertex 28.0086 41.2717 -0.891
    endloop
  endfacet
  facet normal 0 0 -1
    outer loop
      vertex 28.709 41.0028 -0.891
      vertex 27.5131 41.3696 -0.891
      vertex 27.7637 41.3288 -0.891
    endloop
  endfacet
  facet normal 0 0 -1
    outer loop
      vertex 28.709 41.0028 -0.891
      vertex 27.2568 41.394 -0.891
      vertex 27.5131 41.3696 -0.891
    endloop
  endfacet
  facet normal 0 0 -1
    outer loop
      vertex 28.709 41.0028 -0.891
      vertex 26.9947 41.4021 -0.891
      vertex 27.2568 41.394 -0.891
    endloop
  endfacet
  facet normal 0 0 -1
    outer loop
      vertex 28.709 41.0028 -0.891
      vertex 26.7328 41.394 -0.891
      vertex 26.9947 41.4021 -0.891
    endloop
  endfacet
  facet normal 0 0 -1
    outer loop
      vertex 28.709 41.0028 -0.891
      vertex 26.4765 41.3696 -0.891
      vertex 26.7328 41.394 -0.891
    endloop
  endfacet
  facet normal 0 0 -1
    outer loop
      vertex 28.709 41.0028 -0.891
      vertex 26.2259 41.3288 -0.891
      vertex 26.4765 41.3696 -0.891
    endloop
  endfacet
  facet normal 0 0 -1
    outer loop
      vertex 28.709 41.0028 -0.891
      vertex 25.9811 41.2717 -0.891
      vertex 26.2259 41.3288 -0.891
    endloop
  endfacet
  facet normal 0 0 -1
    outer loop
      vertex 28.709 41.0028 -0.891
      vertex 25.7419 41.1984 -0.891
      vertex 25.9811 41.2717 -0.891
    endloop
  endfacet
  facet normal 0 0 -1
    outer loop
      vertex 28.709 41.0028 -0.891
      vertex 25.5085 41.1087 -0.891
      vertex 25.7419 41.1984 -0.891
    endloop
  endfacet
  facet normal 0 0 -1
    outer loop
      vertex 28.709 41.0028 -0.891
      vertex 25.2808 41.0028 -0.891
      vertex 25.5085 41.1087 -0.891
    endloop
  endfacet
  facet normal -0 0 -1
    outer loop
      vertex 28.709 41.0028 -0.891
      vertex 25.0588 40.8805 -0.891
      vertex 25.2808 41.0028 -0.891
    endloop
  endfacet
  facet normal 0 0 -1
    outer loop
      vertex 28.709 41.0028 -0.891
      vertex 24.8425 40.742 -0.891
      vertex 25.0588 40.8805 -0.891
    endloop
  endfacet
  facet normal 0 0 -1
    outer loop
      vertex 28.709 41.0028 -0.891
      vertex 24.6319 40.5871 -0.891
      vertex 24.8425 40.742 -0.891
    endloop
  endfacet
  facet normal -0 0 -1
    outer loop
      vertex 28.931 40.8805 -0.891
      vertex 24.6319 40.5871 -0.891
      vertex 28.709 41.0028 -0.891
    endloop
  endfacet
  facet normal -0 0 -1
    outer loop
      vertex 29.1472 40.742 -0.891
      vertex 24.6319 40.5871 -0.891
      vertex 28.931 40.8805 -0.891
    endloop
  endfacet
  facet normal 0 0 -1
    outer loop
      vertex 29.5626 40.416 -0.891
      vertex 24.427 40.416 -0.891
      vertex 29.3578 40.5871 -0.891
    endloop
  endfacet
  facet normal 0 -0 -1
    outer loop
      vertex 24.2278 40.2285 -0.891
      vertex 29.7617 40.2285 -0.891
      vertex 24.0343 40.0248 -0.891
    endloop
  endfacet
  facet normal 0 0 -1
    outer loop
      vertex 30.1384 39.8098 -0.891
      vertex 23.8511 39.8098 -0.891
      vertex 29.9551 40.0248 -0.891
    endloop
  endfacet
  facet normal -0 0 -1
    outer loop
      vertex 30.307 39.5885 -0.891
      vertex 23.5287 39.3608 -0.891
      vertex 23.6826 39.5885 -0.891
    endloop
  endfacet
  facet normal 0 0 -1
    outer loop
      vertex 30.8649 38.56 -0.891
      vertex 23.3895 39.1268 -0.891
      vertex 23.5287 39.3608 -0.891
    endloop
  endfacet
  facet normal 0 0 -1
    outer loop
      vertex 30.8649 38.56 -0.891
      vertex 23.2649 38.8864 -0.891
      vertex 23.3895 39.1268 -0.891
    endloop
  endfacet
  facet normal 0 0 -1
    outer loop
      vertex 23.125 38.56 -0.891
      vertex 23.2649 38.8864 -0.891
      vertex 30.8649 38.56 -0.891
    endloop
  endfacet
  facet normal 0 0 -1
    outer loop
      vertex 23.2649 38.8864 -0.891
      vertex 23.125 38.56 -0.891
      vertex 23.155 38.6397 -0.891
    endloop
  endfacet
  facet normal 0.913322 0.407237 0
    outer loop
      vertex 30.8349 38.6397 0.108999
      vertex 30.7249 38.8864 -0.891
      vertex 30.7249 38.8864 0.108999
    endloop
  endfacet
  facet normal 0.913322 0.407237 0
    outer loop
      vertex 30.7249 38.8864 -0.891
      vertex 30.8349 38.6397 0.108999
      vertex 30.8349 38.6397 -0.891
    endloop
  endfacet
  facet normal -0.935894 0.352281 0
    outer loop
      vertex 23.125 38.56 -0.391
      vertex 23.155 38.6397 -0.891
      vertex 23.125 38.56 -0.891
    endloop
  endfacet
  facet normal -0.935894 0.352281 0
    outer loop
      vertex 23.155 38.6397 -0.891
      vertex 23.125 38.56 -0.391
      vertex 23.155 38.6397 0.108999
    endloop
  endfacet
  facet normal -0.935894 0.352281 0
    outer loop
      vertex 23.125 38.56 -0.0909996
      vertex 23.155 38.6397 0.108999
      vertex 23.125 38.56 -0.391
    endloop
  endfacet
  facet normal -0.935894 0.352281 0
    outer loop
      vertex 23.155 38.6397 0.108999
      vertex 23.125 38.56 -0.0909996
      vertex 23.125 38.56 0.108999
    endloop
  endfacet
  facet normal -0.592507 0.805565 0
    outer loop
      vertex 24.8425 40.742 -0.891
      vertex 24.6319 40.5871 0.108999
      vertex 24.8425 40.742 0.108999
    endloop
  endfacet
  facet normal -0.592507 0.805565 0
    outer loop
      vertex 24.6319 40.5871 0.108999
      vertex 24.8425 40.742 -0.891
      vertex 24.6319 40.5871 -0.891
    endloop
  endfacet
  facet normal 0.795448 0.606022 0
    outer loop
      vertex 30.307 39.5885 0.108999
      vertex 30.1384 39.8098 -0.891
      vertex 30.1384 39.8098 0.108999
    endloop
  endfacet
  facet normal 0.795448 0.606022 0
    outer loop
      vertex 30.1384 39.8098 -0.891
      vertex 30.307 39.5885 0.108999
      vertex 30.307 39.5885 -0.891
    endloop
  endfacet
  facet normal -0.725026 0.688721 0
    outer loop
      vertex 24.0343 40.0248 -0.891
      vertex 24.2278 40.2285 0.108999
      vertex 24.2278 40.2285 -0.891
    endloop
  endfacet
  facet normal -0.725026 0.688721 0
    outer loop
      vertex 24.2278 40.2285 0.108999
      vertex 24.0343 40.0248 -0.891
      vertex 24.0343 40.0248 0.108999
    endloop
  endfacet
  facet normal -0.358738 0.933438 0
    outer loop
      vertex 25.7419 41.1984 -0.891
      vertex 25.5085 41.1087 0.108999
      vertex 25.7419 41.1984 0.108999
    endloop
  endfacet
  facet normal -0.358738 0.933438 0
    outer loop
      vertex 25.5085 41.1087 0.108999
      vertex 25.7419 41.1984 -0.891
      vertex 25.5085 41.1087 -0.891
    endloop
  endfacet
  facet normal -0.29299 0.956115 0
    outer loop
      vertex 25.9811 41.2717 -0.891
      vertex 25.7419 41.1984 0.108999
      vertex 25.9811 41.2717 0.108999
    endloop
  endfacet
  facet normal -0.29299 0.956115 0
    outer loop
      vertex 25.7419 41.1984 0.108999
      vertex 25.9811 41.2717 -0.891
      vertex 25.7419 41.1984 -0.891
    endloop
  endfacet
  facet normal 0.482524 0.875882 -0
    outer loop
      vertex 28.931 40.8805 -0.891
      vertex 28.709 41.0028 0.108999
      vertex 28.931 40.8805 0.108999
    endloop
  endfacet
  facet normal 0.482524 0.875882 0
    outer loop
      vertex 28.709 41.0028 0.108999
      vertex 28.931 40.8805 -0.891
      vertex 28.709 41.0028 -0.891
    endloop
  endfacet
  facet normal 0 0 1
    outer loop
      vertex 30.7249 38.8864 0.108999
      vertex 30.8649 38.56 0.108999
      vertex 30.8349 38.6397 0.108999
    endloop
  endfacet
  facet normal 0 0 1
    outer loop
      vertex 30.6003 39.1268 0.108999
      vertex 30.8649 38.56 0.108999
      vertex 30.7249 38.8864 0.108999
    endloop
  endfacet
  facet normal 0 0 1
    outer loop
      vertex 30.461 39.3608 0.108999
      vertex 30.8649 38.56 0.108999
      vertex 30.6003 39.1268 0.108999
    endloop
  endfacet
  facet normal 0 0 1
    outer loop
      vertex 23.5287 39.3608 0.108999
      vertex 30.461 39.3608 0.108999
      vertex 30.307 39.5885 0.108999
    endloop
  endfacet
  facet normal 0 0 1
    outer loop
      vertex 23.6826 39.5885 0.108999
      vertex 30.307 39.5885 0.108999
      vertex 30.1384 39.8098 0.108999
    endloop
  endfacet
  facet normal 0 0 1
    outer loop
      vertex 23.8511 39.8098 0.108999
      vertex 30.1384 39.8098 0.108999
      vertex 29.9551 40.0248 0.108999
    endloop
  endfacet
  facet normal 0 0 1
    outer loop
      vertex 24.0343 40.0248 0.108999
      vertex 29.9551 40.0248 0.108999
      vertex 29.7617 40.2285 0.108999
    endloop
  endfacet
  facet normal 0 0 1
    outer loop
      vertex 24.2278 40.2285 0.108999
      vertex 29.7617 40.2285 0.108999
      vertex 29.5626 40.416 0.108999
    endloop
  endfacet
  facet normal 0 0 1
    outer loop
      vertex 24.427 40.416 0.108999
      vertex 29.5626 40.416 0.108999
      vertex 29.3578 40.5871 0.108999
    endloop
  endfacet
  facet normal 0 0 1
    outer loop
      vertex 24.427 40.416 0.108999
      vertex 29.3578 40.5871 0.108999
      vertex 29.1472 40.742 0.108999
    endloop
  endfacet
  facet normal 0 0 1
    outer loop
      vertex 24.6319 40.5871 0.108999
      vertex 29.1472 40.742 0.108999
      vertex 28.931 40.8805 0.108999
    endloop
  endfacet
  facet normal 0 0 1
    outer loop
      vertex 24.6319 40.5871 0.108999
      vertex 28.931 40.8805 0.108999
      vertex 28.709 41.0028 0.108999
    endloop
  endfacet
  facet normal 0 0 1
    outer loop
      vertex 28.2478 41.1984 0.108999
      vertex 28.709 41.0028 0.108999
      vertex 28.4812 41.1087 0.108999
    endloop
  endfacet
  facet normal 0 0 1
    outer loop
      vertex 28.0086 41.2717 0.108999
      vertex 28.709 41.0028 0.108999
      vertex 28.2478 41.1984 0.108999
    endloop
  endfacet
  facet normal 0 0 1
    outer loop
      vertex 27.7637 41.3288 0.108999
      vertex 28.709 41.0028 0.108999
      vertex 28.0086 41.2717 0.108999
    endloop
  endfacet
  facet normal 0 0 1
    outer loop
      vertex 27.5131 41.3696 0.108999
      vertex 28.709 41.0028 0.108999
      vertex 27.7637 41.3288 0.108999
    endloop
  endfacet
  facet normal 0 0 1
    outer loop
      vertex 27.2568 41.394 0.108999
      vertex 28.709 41.0028 0.108999
      vertex 27.5131 41.3696 0.108999
    endloop
  endfacet
  facet normal 0 0 1
    outer loop
      vertex 26.9947 41.4021 0.108999
      vertex 28.709 41.0028 0.108999
      vertex 27.2568 41.394 0.108999
    endloop
  endfacet
  facet normal -0 0 1
    outer loop
      vertex 26.7328 41.394 0.108999
      vertex 28.709 41.0028 0.108999
      vertex 26.9947 41.4021 0.108999
    endloop
  endfacet
  facet normal -0 0 1
    outer loop
      vertex 26.4765 41.3696 0.108999
      vertex 28.709 41.0028 0.108999
      vertex 26.7328 41.394 0.108999
    endloop
  endfacet
  facet normal -0 0 1
    outer loop
      vertex 26.2259 41.3288 0.108999
      vertex 28.709 41.0028 0.108999
      vertex 26.4765 41.3696 0.108999
    endloop
  endfacet
  facet normal -0 0 1
    outer loop
      vertex 25.9811 41.2717 0.108999
      vertex 28.709 41.0028 0.108999
      vertex 26.2259 41.3288 0.108999
    endloop
  endfacet
  facet normal -0 0 1
    outer loop
      vertex 25.7419 41.1984 0.108999
      vertex 28.709 41.0028 0.108999
      vertex 25.9811 41.2717 0.108999
    endloop
  endfacet
  facet normal -0 0 1
    outer loop
      vertex 25.5085 41.1087 0.108999
      vertex 28.709 41.0028 0.108999
      vertex 25.7419 41.1984 0.108999
    endloop
  endfacet
  facet normal 0 0 1
    outer loop
      vertex 25.2808 41.0028 0.108999
      vertex 28.709 41.0028 0.108999
      vertex 25.5085 41.1087 0.108999
    endloop
  endfacet
  facet normal 0 0 1
    outer loop
      vertex 25.0588 40.8805 0.108999
      vertex 28.709 41.0028 0.108999
      vertex 25.2808 41.0028 0.108999
    endloop
  endfacet
  facet normal 0 0 1
    outer loop
      vertex 24.8425 40.742 0.108999
      vertex 28.709 41.0028 0.108999
      vertex 25.0588 40.8805 0.108999
    endloop
  endfacet
  facet normal 0 0 1
    outer loop
      vertex 24.6319 40.5871 0.108999
      vertex 28.709 41.0028 0.108999
      vertex 24.8425 40.742 0.108999
    endloop
  endfacet
  facet normal 0 0 1
    outer loop
      vertex 29.1472 40.742 0.108999
      vertex 24.6319 40.5871 0.108999
      vertex 24.427 40.416 0.108999
    endloop
  endfacet
  facet normal 0 0 1
    outer loop
      vertex 29.5626 40.416 0.108999
      vertex 24.427 40.416 0.108999
      vertex 24.2278 40.2285 0.108999
    endloop
  endfacet
  facet normal 0 0 1
    outer loop
      vertex 29.7617 40.2285 0.108999
      vertex 24.2278 40.2285 0.108999
      vertex 24.0343 40.0248 0.108999
    endloop
  endfacet
  facet normal 0 0 1
    outer loop
      vertex 29.9551 40.0248 0.108999
      vertex 24.0343 40.0248 0.108999
      vertex 23.8511 39.8098 0.108999
    endloop
  endfacet
  facet normal 0 0 1
    outer loop
      vertex 30.1384 39.8098 0.108999
      vertex 23.8511 39.8098 0.108999
      vertex 23.6826 39.5885 0.108999
    endloop
  endfacet
  facet normal 0 0 1
    outer loop
      vertex 23.5287 39.3608 0.108999
      vertex 30.307 39.5885 0.108999
      vertex 23.6826 39.5885 0.108999
    endloop
  endfacet
  facet normal 0 0 1
    outer loop
      vertex 30.461 39.3608 0.108999
      vertex 23.5287 39.3608 0.108999
      vertex 30.8649 38.56 0.108999
    endloop
  endfacet
  facet normal -0 0 1
    outer loop
      vertex 23.3895 39.1268 0.108999
      vertex 30.8649 38.56 0.108999
      vertex 23.5287 39.3608 0.108999
    endloop
  endfacet
  facet normal -0 0 1
    outer loop
      vertex 23.2649 38.8864 0.108999
      vertex 30.8649 38.56 0.108999
      vertex 23.3895 39.1268 0.108999
    endloop
  endfacet
  facet normal 0 0 1
    outer loop
      vertex 23.125 38.56 0.108999
      vertex 23.2649 38.8864 0.108999
      vertex 23.155 38.6397 0.108999
    endloop
  endfacet
  facet normal 0 0 1
    outer loop
      vertex 23.2649 38.8864 0.108999
      vertex 23.125 38.56 0.108999
      vertex 30.8649 38.56 0.108999
    endloop
  endfacet
  facet normal -0.887833 0.460166 0
    outer loop
      vertex 23.2649 38.8864 -0.891
      vertex 23.3895 39.1268 0.108999
      vertex 23.3895 39.1268 -0.891
    endloop
  endfacet
  facet normal -0.887833 0.460166 0
    outer loop
      vertex 23.3895 39.1268 0.108999
      vertex 23.2649 38.8864 -0.891
      vertex 23.2649 38.8864 0.108999
    endloop
  endfacet
  facet normal -0.859431 0.511251 0
    outer loop
      vertex 23.3895 39.1268 -0.891
      vertex 23.5287 39.3608 0.108999
      vertex 23.5287 39.3608 -0.891
    endloop
  endfacet
  facet normal -0.859431 0.511251 0
    outer loop
      vertex 23.5287 39.3608 0.108999
      vertex 23.3895 39.1268 -0.891
      vertex 23.3895 39.1268 0.108999
    endloop
  endfacet
  facet normal -0.828507 0.559979 0
    outer loop
      vertex 23.5287 39.3608 -0.891
      vertex 23.6826 39.5885 0.108999
      vertex 23.6826 39.5885 -0.891
    endloop
  endfacet
  facet normal -0.828507 0.559979 0
    outer loop
      vertex 23.6826 39.5885 0.108999
      vertex 23.5287 39.3608 -0.891
      vertex 23.5287 39.3608 0.108999
    endloop
  endfacet
  facet normal -0.685399 0.728168 0
    outer loop
      vertex 24.427 40.416 -0.891
      vertex 24.2278 40.2285 0.108999
      vertex 24.427 40.416 0.108999
    endloop
  endfacet
  facet normal -0.685399 0.728168 0
    outer loop
      vertex 24.2278 40.2285 0.108999
      vertex 24.427 40.416 -0.891
      vertex 24.2278 40.2285 -0.891
    endloop
  endfacet
  facet normal -0.640958 0.767576 0
    outer loop
      vertex 24.6319 40.5871 -0.891
      vertex 24.427 40.416 0.108999
      vertex 24.6319 40.5871 0.108999
    endloop
  endfacet
  facet normal -0.640958 0.767576 0
    outer loop
      vertex 24.427 40.416 0.108999
      vertex 24.6319 40.5871 -0.891
      vertex 24.427 40.416 -0.891
    endloop
  endfacet
  facet normal -0.795622 0.605794 0
    outer loop
      vertex 23.6826 39.5885 -0.891
      vertex 23.8511 39.8098 0.108999
      vertex 23.8511 39.8098 -0.891
    endloop
  endfacet
  facet normal -0.795622 0.605794 0
    outer loop
      vertex 23.8511 39.8098 0.108999
      vertex 23.6826 39.5885 -0.891
      vertex 23.6826 39.5885 0.108999
    endloop
  endfacet
  facet normal -0.539242 0.842151 0
    outer loop
      vertex 25.0588 40.8805 -0.891
      vertex 24.8425 40.742 0.108999
      vertex 25.0588 40.8805 0.108999
    endloop
  endfacet
  facet normal -0.539242 0.842151 0
    outer loop
      vertex 24.8425 40.742 0.108999
      vertex 25.0588 40.8805 -0.891
      vertex 24.8425 40.742 -0.891
    endloop
  endfacet
  facet normal -0.482524 0.875882 0
    outer loop
      vertex 25.2808 41.0028 -0.891
      vertex 25.0588 40.8805 0.108999
      vertex 25.2808 41.0028 0.108999
    endloop
  endfacet
  facet normal -0.482524 0.875882 0
    outer loop
      vertex 25.0588 40.8805 0.108999
      vertex 25.2808 41.0028 -0.891
      vertex 25.0588 40.8805 -0.891
    endloop
  endfacet
  facet normal -0.227154 0.973859 0
    outer loop
      vertex 26.2259 41.3288 -0.891
      vertex 25.9811 41.2717 0.108999
      vertex 26.2259 41.3288 0.108999
    endloop
  endfacet
  facet normal -0.227154 0.973859 0
    outer loop
      vertex 25.9811 41.2717 0.108999
      vertex 26.2259 41.3288 -0.891
      vertex 25.9811 41.2717 -0.891
    endloop
  endfacet
  facet normal -0.160693 0.987004 0
    outer loop
      vertex 26.4765 41.3696 -0.891
      vertex 26.2259 41.3288 0.108999
      vertex 26.4765 41.3696 0.108999
    endloop
  endfacet
  facet normal -0.160693 0.987004 0
    outer loop
      vertex 26.2259 41.3288 0.108999
      vertex 26.4765 41.3696 -0.891
      vertex 26.2259 41.3288 -0.891
    endloop
  endfacet
  facet normal -0.0947724 0.995499 0
    outer loop
      vertex 26.7328 41.394 -0.891
      vertex 26.4765 41.3696 0.108999
      vertex 26.7328 41.394 0.108999
    endloop
  endfacet
  facet normal -0.0947724 0.995499 0
    outer loop
      vertex 26.4765 41.3696 0.108999
      vertex 26.7328 41.394 -0.891
      vertex 26.4765 41.3696 -0.891
    endloop
  endfacet
  facet normal 0.227066 0.973879 -0
    outer loop
      vertex 28.0086 41.2717 -0.891
      vertex 27.7637 41.3288 0.108999
      vertex 28.0086 41.2717 0.108999
    endloop
  endfacet
  facet normal 0.227066 0.973879 0
    outer loop
      vertex 27.7637 41.3288 0.108999
      vertex 28.0086 41.2717 -0.891
      vertex 27.7637 41.3288 -0.891
    endloop
  endfacet
  facet normal 0.0947724 0.995499 -0
    outer loop
      vertex 27.5131 41.3696 -0.891
      vertex 27.2568 41.394 0.108999
      vertex 27.5131 41.3696 0.108999
    endloop
  endfacet
  facet normal 0.0947724 0.995499 0
    outer loop
      vertex 27.2568 41.394 0.108999
      vertex 27.5131 41.3696 -0.891
      vertex 27.2568 41.394 -0.891
    endloop
  endfacet
  facet normal 0.160693 0.987004 -0
    outer loop
      vertex 27.7637 41.3288 -0.891
      vertex 27.5131 41.3696 0.108999
      vertex 27.7637 41.3288 0.108999
    endloop
  endfacet
  facet normal 0.160693 0.987004 0
    outer loop
      vertex 27.5131 41.3696 0.108999
      vertex 27.7637 41.3288 -0.891
      vertex 27.5131 41.3696 -0.891
    endloop
  endfacet
  facet normal 0.539418 0.842038 -0
    outer loop
      vertex 29.1472 40.742 -0.891
      vertex 28.931 40.8805 0.108999
      vertex 29.1472 40.742 0.108999
    endloop
  endfacet
  facet normal 0.539418 0.842038 0
    outer loop
      vertex 28.931 40.8805 0.108999
      vertex 29.1472 40.742 -0.891
      vertex 28.931 40.8805 -0.891
    endloop
  endfacet
  facet normal 0.760978 0.648778 0
    outer loop
      vertex 30.1384 39.8098 0.108999
      vertex 29.9551 40.0248 -0.891
      vertex 29.9551 40.0248 0.108999
    endloop
  endfacet
  facet normal 0.760978 0.648778 0
    outer loop
      vertex 29.9551 40.0248 -0.891
      vertex 30.1384 39.8098 0.108999
      vertex 30.1384 39.8098 -0.891
    endloop
  endfacet
  facet normal 0.887833 0.460166 0
    outer loop
      vertex 30.7249 38.8864 0.108999
      vertex 30.6003 39.1268 -0.891
      vertex 30.6003 39.1268 0.108999
    endloop
  endfacet
  facet normal 0.887833 0.460166 0
    outer loop
      vertex 30.6003 39.1268 -0.891
      vertex 30.7249 38.8864 0.108999
      vertex 30.7249 38.8864 -0.891
    endloop
  endfacet
  facet normal -0.91346 0.406928 0
    outer loop
      vertex 23.155 38.6397 -0.891
      vertex 23.2649 38.8864 0.108999
      vertex 23.2649 38.8864 -0.891
    endloop
  endfacet
  facet normal -0.91346 0.406928 0
    outer loop
      vertex 23.2649 38.8864 0.108999
      vertex 23.155 38.6397 -0.891
      vertex 23.155 38.6397 0.108999
    endloop
  endfacet
  facet normal -0.761153 0.648573 0
    outer loop
      vertex 23.8511 39.8098 -0.891
      vertex 24.0343 40.0248 0.108999
      vertex 24.0343 40.0248 -0.891
    endloop
  endfacet
  facet normal -0.761153 0.648573 0
    outer loop
      vertex 24.0343 40.0248 0.108999
      vertex 23.8511 39.8098 -0.891
      vertex 23.8511 39.8098 0.108999
    endloop
  endfacet
  facet normal -0.421708 0.906732 0
    outer loop
      vertex 25.5085 41.1087 -0.891
      vertex 25.2808 41.0028 0.108999
      vertex 25.5085 41.1087 0.108999
    endloop
  endfacet
  facet normal -0.421708 0.906732 0
    outer loop
      vertex 25.2808 41.0028 0.108999
      vertex 25.5085 41.1087 -0.891
      vertex 25.2808 41.0028 -0.891
    endloop
  endfacet
  facet normal 0.0308895 0.999523 -0
    outer loop
      vertex 27.2568 41.394 -0.891
      vertex 26.9947 41.4021 0.108999
      vertex 27.2568 41.394 0.108999
    endloop
  endfacet
  facet normal 0.0308895 0.999523 0
    outer loop
      vertex 26.9947 41.4021 0.108999
      vertex 27.2568 41.394 -0.891
      vertex 26.9947 41.4021 -0.891
    endloop
  endfacet
  facet normal -0.0309131 0.999522 0
    outer loop
      vertex 26.9947 41.4021 -0.891
      vertex 26.7328 41.394 0.108999
      vertex 26.9947 41.4021 0.108999
    endloop
  endfacet
  facet normal -0.0309131 0.999522 0
    outer loop
      vertex 26.7328 41.394 0.108999
      vertex 26.9947 41.4021 -0.891
      vertex 26.7328 41.394 -0.891
    endloop
  endfacet
  facet normal 0.725204 0.688534 0
    outer loop
      vertex 29.9551 40.0248 0.108999
      vertex 29.7617 40.2285 -0.891
      vertex 29.7617 40.2285 0.108999
    endloop
  endfacet
  facet normal 0.725204 0.688534 0
    outer loop
      vertex 29.7617 40.2285 -0.891
      vertex 29.9551 40.0248 0.108999
      vertex 29.9551 40.0248 -0.891
    endloop
  endfacet
  facet normal 0.592507 0.805565 -0
    outer loop
      vertex 29.3578 40.5871 -0.891
      vertex 29.1472 40.742 0.108999
      vertex 29.3578 40.5871 0.108999
    endloop
  endfacet
  facet normal 0.592507 0.805565 0
    outer loop
      vertex 29.1472 40.742 0.108999
      vertex 29.3578 40.5871 -0.891
      vertex 29.1472 40.742 -0.891
    endloop
  endfacet
  facet normal 0.421556 0.906803 -0
    outer loop
      vertex 28.709 41.0028 -0.891
      vertex 28.4812 41.1087 0.108999
      vertex 28.709 41.0028 0.108999
    endloop
  endfacet
  facet normal 0.421556 0.906803 0
    outer loop
      vertex 28.4812 41.1087 0.108999
      vertex 28.709 41.0028 -0.891
      vertex 28.4812 41.1087 -0.891
    endloop
  endfacet
  facet normal 0.29299 0.956115 -0
    outer loop
      vertex 28.2478 41.1984 -0.891
      vertex 28.0086 41.2717 0.108999
      vertex 28.2478 41.1984 0.108999
    endloop
  endfacet
  facet normal 0.29299 0.956115 0
    outer loop
      vertex 28.0086 41.2717 0.108999
      vertex 28.2478 41.1984 -0.891
      vertex 28.0086 41.2717 -0.891
    endloop
  endfacet
  facet normal 0.358738 0.933438 -0
    outer loop
      vertex 28.4812 41.1087 -0.891
      vertex 28.2478 41.1984 0.108999
      vertex 28.4812 41.1087 0.108999
    endloop
  endfacet
  facet normal 0.358738 0.933438 0
    outer loop
      vertex 28.2478 41.1984 0.108999
      vertex 28.4812 41.1087 -0.891
      vertex 28.2478 41.1984 -0.891
    endloop
  endfacet
  facet normal 0.685581 0.727996 -0
    outer loop
      vertex 29.7617 40.2285 -0.891
      vertex 29.5626 40.416 0.108999
      vertex 29.7617 40.2285 0.108999
    endloop
  endfacet
  facet normal 0.685581 0.727996 0
    outer loop
      vertex 29.5626 40.416 0.108999
      vertex 29.7617 40.2285 -0.891
      vertex 29.5626 40.416 -0.891
    endloop
  endfacet
  facet normal 0.641142 0.767422 -0
    outer loop
      vertex 29.5626 40.416 -0.891
      vertex 29.3578 40.5871 0.108999
      vertex 29.5626 40.416 0.108999
    endloop
  endfacet
  facet normal 0.641142 0.767422 0
    outer loop
      vertex 29.3578 40.5871 0.108999
      vertex 29.5626 40.416 -0.891
      vertex 29.3578 40.5871 -0.891
    endloop
  endfacet
  facet normal 0.828338 0.560229 0
    outer loop
      vertex 30.461 39.3608 0.108999
      vertex 30.307 39.5885 -0.891
      vertex 30.307 39.5885 0.108999
    endloop
  endfacet
  facet normal 0.828338 0.560229 0
    outer loop
      vertex 30.307 39.5885 -0.891
      vertex 30.461 39.3608 0.108999
      vertex 30.461 39.3608 -0.891
    endloop
  endfacet
  facet normal 0.85927 0.511523 0
    outer loop
      vertex 30.6003 39.1268 0.108999
      vertex 30.461 39.3608 -0.891
      vertex 30.461 39.3608 0.108999
    endloop
  endfacet
  facet normal 0.85927 0.511523 0
    outer loop
      vertex 30.461 39.3608 -0.891
      vertex 30.6003 39.1268 0.108999
      vertex 30.6003 39.1268 -0.891
    endloop
  endfacet
endsolid OpenSCAD_Model
