solid OpenSCAD_Model
  facet normal -0 0 -1
    outer loop
      vertex 28.2478 16.269 -0.391
      vertex 28.0086 16.1956 -0.391
      vertex 28.4812 16.3586 -0.391
    endloop
  endfacet
  facet normal -0 0 -1
    outer loop
      vertex 28.0086 16.1956 -0.391
      vertex 27.7637 16.1385 -0.391
      vertex 28.709 16.4646 -0.391
    endloop
  endfacet
  facet normal 0 0 -1
    outer loop
      vertex 28.0086 16.1956 -0.391
      vertex 28.709 16.4646 -0.391
      vertex 28.4812 16.3586 -0.391
    endloop
  endfacet
  facet normal -0 0 -1
    outer loop
      vertex 28.709 16.4646 -0.391
      vertex 27.7637 16.1385 -0.391
      vertex 28.931 16.5868 -0.391
    endloop
  endfacet
  facet normal 0 0 -1
    outer loop
      vertex 28.931 16.5868 -0.391
      vertex 27.7637 16.1385 -0.391
      vertex 27.5131 16.0978 -0.391
    endloop
  endfacet
  facet normal 0 0 -1
    outer loop
      vertex 29.1472 16.7254 -0.391
      vertex 28.931 16.5868 -0.391
      vertex 27.5131 16.0978 -0.391
    endloop
  endfacet
  facet normal 0 0 -1
    outer loop
      vertex 27.2568 16.0733 -0.391
      vertex 29.1472 16.7254 -0.391
      vertex 27.5131 16.0978 -0.391
    endloop
  endfacet
  facet normal 0 0 -1
    outer loop
      vertex 27.2568 16.0733 -0.391
      vertex 29.3578 16.8802 -0.391
      vertex 29.1472 16.7254 -0.391
    endloop
  endfacet
  facet normal -0 0 -1
    outer loop
      vertex 27.2568 16.0733 -0.391
      vertex 26.9947 16.0652 -0.391
      vertex 29.3578 16.8802 -0.391
    endloop
  endfacet
  facet normal 0 0 -1
    outer loop
      vertex 24.2278 17.2388 -0.391
      vertex 29.7617 17.2388 -0.391
      vertex 24.427 17.0514 -0.391
    endloop
  endfacet
  facet normal 0 0 -1
    outer loop
      vertex 30.1384 17.6575 -0.391
      vertex 23.6826 17.8789 -0.391
      vertex 30.307 17.8789 -0.391
    endloop
  endfacet
  facet normal 0 0 -1
    outer loop
      vertex 30.7249 18.5809 -0.391
      vertex 23.2649 18.5809 -0.391
      vertex 23.155 18.8277 -0.391
    endloop
  endfacet
  facet normal 0 0 -1
    outer loop
      vertex 30.8349 18.8277 -0.391
      vertex 23.0597 19.0808 -0.391
      vertex 30.9302 19.0808 -0.391
    endloop
  endfacet
  facet normal 0 0 -1
    outer loop
      vertex 30.9302 19.0808 -0.391
      vertex 23.0597 19.0808 -0.391
      vertex 22.9791 19.3402 -0.391
    endloop
  endfacet
  facet normal -0 0 -1
    outer loop
      vertex 31.0108 19.3402 -0.391
      vertex 30.9302 19.0808 -0.391
      vertex 22.9791 19.3402 -0.391
    endloop
  endfacet
  facet normal 0 0 -1
    outer loop
      vertex 22.9132 19.606 -0.391
      vertex 31.0108 19.3402 -0.391
      vertex 22.9791 19.3402 -0.391
    endloop
  endfacet
  facet normal 0 0 -1
    outer loop
      vertex 22.9132 19.606 -0.391
      vertex 31.0768 19.606 -0.391
      vertex 31.0108 19.3402 -0.391
    endloop
  endfacet
  facet normal 0 0 -1
    outer loop
      vertex 22.9132 19.606 -0.391
      vertex 22.8619 19.8781 -0.391
      vertex 31.0768 19.606 -0.391
    endloop
  endfacet
  facet normal 0 0 -1
    outer loop
      vertex 31.0768 19.606 -0.391
      vertex 22.8619 19.8781 -0.391
      vertex 31.1281 19.8781 -0.391
    endloop
  endfacet
  facet normal 0 0 -1
    outer loop
      vertex 31.1281 19.8781 -0.391
      vertex 22.8619 19.8781 -0.391
      vertex 22.8252 20.1566 -0.391
    endloop
  endfacet
  facet normal -0 0 -1
    outer loop
      vertex 31.1648 20.1566 -0.391
      vertex 31.1281 19.8781 -0.391
      vertex 22.8252 20.1566 -0.391
    endloop
  endfacet
  facet normal 0 0 -1
    outer loop
      vertex 22.8033 20.4414 -0.391
      vertex 31.1648 20.1566 -0.391
      vertex 22.8252 20.1566 -0.391
    endloop
  endfacet
  facet normal 0 0 -1
    outer loop
      vertex 22.8033 20.4414 -0.391
      vertex 31.1868 20.4414 -0.391
      vertex 31.1648 20.1566 -0.391
    endloop
  endfacet
  facet normal 0 0 -1
    outer loop
      vertex 22.8033 20.4414 -0.391
      vertex 22.7959 20.7326 -0.391
      vertex 31.1868 20.4414 -0.391
    endloop
  endfacet
  facet normal 0 0 -1
    outer loop
      vertex 31.1868 20.4414 -0.391
      vertex 22.7959 20.7326 -0.391
      vertex 31.1941 20.7326 -0.391
    endloop
  endfacet
  facet normal 0 -0 -1
    outer loop
      vertex 24.0343 38.0248 -0.391
      vertex 29.9551 38.0248 -0.391
      vertex 23.8511 37.8098 -0.391
    endloop
  endfacet
  facet normal 0 0 -1
    outer loop
      vertex 26.7328 39.394 -0.391
      vertex 24.8425 38.742 -0.391
      vertex 26.4765 39.3696 -0.391
    endloop
  endfacet
  facet normal 0 -0 -1
    outer loop
      vertex 25.2808 39.0028 -0.391
      vertex 26.2259 39.3288 -0.391
      vertex 25.0588 38.8805 -0.391
    endloop
  endfacet
  facet normal 0 0 -1
    outer loop
      vertex 25.2808 39.0028 -0.391
      vertex 25.9811 39.2717 -0.391
      vertex 26.2259 39.3288 -0.391
    endloop
  endfacet
  facet normal 0 0 -1
    outer loop
      vertex 25.2808 39.0028 -0.391
      vertex 25.5085 39.1087 -0.391
      vertex 25.9811 39.2717 -0.391
    endloop
  endfacet
  facet normal 0 0 -1
    outer loop
      vertex 25.9811 39.2717 -0.391
      vertex 25.5085 39.1087 -0.391
      vertex 25.7419 39.1984 -0.391
    endloop
  endfacet
  facet normal 0 0 -1
    outer loop
      vertex 25.0588 38.8805 -0.391
      vertex 26.2259 39.3288 -0.391
      vertex 26.4765 39.3696 -0.391
    endloop
  endfacet
  facet normal 0 0 -1
    outer loop
      vertex 24.8425 38.742 -0.391
      vertex 25.0588 38.8805 -0.391
      vertex 26.4765 39.3696 -0.391
    endloop
  endfacet
  facet normal 0 0 -1
    outer loop
      vertex 29.3578 38.5871 -0.391
      vertex 26.9947 39.4021 -0.391
      vertex 27.2568 39.394 -0.391
    endloop
  endfacet
  facet normal -0 -0 -1
    outer loop
      vertex 29.1472 38.742 -0.391
      vertex 29.3578 38.5871 -0.391
      vertex 27.2568 39.394 -0.391
    endloop
  endfacet
  facet normal -0 -0 -1
    outer loop
      vertex 28.931 38.8805 -0.391
      vertex 29.1472 38.742 -0.391
      vertex 27.5131 39.3696 -0.391
    endloop
  endfacet
  facet normal -0 -0 -1
    outer loop
      vertex 28.709 39.0028 -0.391
      vertex 28.931 38.8805 -0.391
      vertex 27.7637 39.3288 -0.391
    endloop
  endfacet
  facet normal -0 -0 -1
    outer loop
      vertex 28.4812 39.1087 -0.391
      vertex 28.709 39.0028 -0.391
      vertex 28.0086 39.2717 -0.391
    endloop
  endfacet
  facet normal -0 -0 -1
    outer loop
      vertex 28.2478 39.1984 -0.391
      vertex 28.4812 39.1087 -0.391
      vertex 28.0086 39.2717 -0.391
    endloop
  endfacet
  facet normal -0 -0 -1
    outer loop
      vertex 28.0086 39.2717 -0.391
      vertex 28.709 39.0028 -0.391
      vertex 27.7637 39.3288 -0.391
    endloop
  endfacet
  facet normal -0 -0 -1
    outer loop
      vertex 27.7637 39.3288 -0.391
      vertex 28.931 38.8805 -0.391
      vertex 27.5131 39.3696 -0.391
    endloop
  endfacet
  facet normal -0 -0 -1
    outer loop
      vertex 27.5131 39.3696 -0.391
      vertex 29.1472 38.742 -0.391
      vertex 27.2568 39.394 -0.391
    endloop
  endfacet
  facet normal 0 0 -1
    outer loop
      vertex 26.7328 39.394 -0.391
      vertex 24.6319 38.5871 -0.391
      vertex 24.8425 38.742 -0.391
    endloop
  endfacet
  facet normal 0 -0 -1
    outer loop
      vertex 26.7328 39.394 -0.391
      vertex 26.9947 39.4021 -0.391
      vertex 24.6319 38.5871 -0.391
    endloop
  endfacet
  facet normal 0 0 -1
    outer loop
      vertex 24.6319 38.5871 -0.391
      vertex 26.9947 39.4021 -0.391
      vertex 29.3578 38.5871 -0.391
    endloop
  endfacet
  facet normal 0 0 -1
    outer loop
      vertex 29.5626 38.416 -0.391
      vertex 24.6319 38.5871 -0.391
      vertex 29.3578 38.5871 -0.391
    endloop
  endfacet
  facet normal 0 0 -1
    outer loop
      vertex 29.5626 38.416 -0.391
      vertex 24.427 38.416 -0.391
      vertex 24.6319 38.5871 -0.391
    endloop
  endfacet
  facet normal -0 -0 -1
    outer loop
      vertex 29.5626 38.416 -0.391
      vertex 29.7617 38.2285 -0.391
      vertex 24.427 38.416 -0.391
    endloop
  endfacet
  facet normal 0 -0 -1
    outer loop
      vertex 24.427 38.416 -0.391
      vertex 29.7617 38.2285 -0.391
      vertex 24.2278 38.2285 -0.391
    endloop
  endfacet
  facet normal 0 0 -1
    outer loop
      vertex 24.2278 38.2285 -0.391
      vertex 29.7617 38.2285 -0.391
      vertex 29.9551 38.0248 -0.391
    endloop
  endfacet
  facet normal 0 0 -1
    outer loop
      vertex 24.0343 38.0248 -0.391
      vertex 24.2278 38.2285 -0.391
      vertex 29.9551 38.0248 -0.391
    endloop
  endfacet
  facet normal 0 0 -1
    outer loop
      vertex 23.8511 37.8098 -0.391
      vertex 29.9551 38.0248 -0.391
      vertex 30.1384 37.8098 -0.391
    endloop
  endfacet
  facet normal 0 0 -1
    outer loop
      vertex 23.6826 37.5885 -0.391
      vertex 23.8511 37.8098 -0.391
      vertex 30.1384 37.8098 -0.391
    endloop
  endfacet
  facet normal 0 0 -1
    outer loop
      vertex 30.307 37.5885 -0.391
      vertex 23.6826 37.5885 -0.391
      vertex 30.1384 37.8098 -0.391
    endloop
  endfacet
  facet normal -0 0 -1
    outer loop
      vertex 30.307 37.5885 -0.391
      vertex 23.5287 37.3608 -0.391
      vertex 23.6826 37.5885 -0.391
    endloop
  endfacet
  facet normal 0 -0 -1
    outer loop
      vertex 30.307 37.5885 -0.391
      vertex 30.461 37.3608 -0.391
      vertex 23.5287 37.3608 -0.391
    endloop
  endfacet
  facet normal 0 -0 -1
    outer loop
      vertex 23.5287 37.3608 -0.391
      vertex 30.461 37.3608 -0.391
      vertex 23.3895 37.1268 -0.391
    endloop
  endfacet
  facet normal 0 0 -1
    outer loop
      vertex 23.3895 37.1268 -0.391
      vertex 30.461 37.3608 -0.391
      vertex 30.6003 37.1268 -0.391
    endloop
  endfacet
  facet normal 0 0 -1
    outer loop
      vertex 23.2649 36.8864 -0.391
      vertex 23.3895 37.1268 -0.391
      vertex 30.6003 37.1268 -0.391
    endloop
  endfacet
  facet normal 0 0 -1
    outer loop
      vertex 30.7249 36.8864 -0.391
      vertex 23.2649 36.8864 -0.391
      vertex 30.6003 37.1268 -0.391
    endloop
  endfacet
  facet normal -0 0 -1
    outer loop
      vertex 30.7249 36.8864 -0.391
      vertex 23.155 36.6397 -0.391
      vertex 23.2649 36.8864 -0.391
    endloop
  endfacet
  facet normal 0 -0 -1
    outer loop
      vertex 30.7249 36.8864 -0.391
      vertex 30.8349 36.6397 -0.391
      vertex 23.155 36.6397 -0.391
    endloop
  endfacet
  facet normal 0 -0 -1
    outer loop
      vertex 23.155 36.6397 -0.391
      vertex 30.8349 36.6397 -0.391
      vertex 23.0597 36.3866 -0.391
    endloop
  endfacet
  facet normal 0 0 -1
    outer loop
      vertex 23.0597 36.3866 -0.391
      vertex 30.8349 36.6397 -0.391
      vertex 30.9302 36.3866 -0.391
    endloop
  endfacet
  facet normal 0 0 -1
    outer loop
      vertex 22.9791 36.1272 -0.391
      vertex 23.0597 36.3866 -0.391
      vertex 30.9302 36.3866 -0.391
    endloop
  endfacet
  facet normal 0 0 -1
    outer loop
      vertex 31.0108 36.1272 -0.391
      vertex 22.9791 36.1272 -0.391
      vertex 30.9302 36.3866 -0.391
    endloop
  endfacet
  facet normal -0 0 -1
    outer loop
      vertex 31.0108 36.1272 -0.391
      vertex 22.9132 35.8614 -0.391
      vertex 22.9791 36.1272 -0.391
    endloop
  endfacet
  facet normal 0 -0 -1
    outer loop
      vertex 31.0108 36.1272 -0.391
      vertex 31.0768 35.8614 -0.391
      vertex 22.9132 35.8614 -0.391
    endloop
  endfacet
  facet normal 0 -0 -1
    outer loop
      vertex 22.9132 35.8614 -0.391
      vertex 31.0768 35.8614 -0.391
      vertex 22.8619 35.5892 -0.391
    endloop
  endfacet
  facet normal 0 0 -1
    outer loop
      vertex 22.8619 35.5892 -0.391
      vertex 31.0768 35.8614 -0.391
      vertex 31.1281 35.5892 -0.391
    endloop
  endfacet
  facet normal 0 0 -1
    outer loop
      vertex 22.8252 35.3108 -0.391
      vertex 22.8619 35.5892 -0.391
      vertex 31.1281 35.5892 -0.391
    endloop
  endfacet
  facet normal 0 0 -1
    outer loop
      vertex 31.1648 35.3108 -0.391
      vertex 22.8252 35.3108 -0.391
      vertex 31.1281 35.5892 -0.391
    endloop
  endfacet
  facet normal -0 0 -1
    outer loop
      vertex 31.1648 35.3108 -0.391
      vertex 22.8033 35.0259 -0.391
      vertex 22.8252 35.3108 -0.391
    endloop
  endfacet
  facet normal 0 -0 -1
    outer loop
      vertex 31.1648 35.3108 -0.391
      vertex 31.1868 35.0259 -0.391
      vertex 22.8033 35.0259 -0.391
    endloop
  endfacet
  facet normal 0 -0 -1
    outer loop
      vertex 22.8033 35.0259 -0.391
      vertex 31.1868 35.0259 -0.391
      vertex 22.7959 34.7348 -0.391
    endloop
  endfacet
  facet normal 0 0 -1
    outer loop
      vertex 22.7959 34.7348 -0.391
      vertex 31.1868 35.0259 -0.391
      vertex 31.1941 34.7348 -0.391
    endloop
  endfacet
  facet normal 0 0 -1
    outer loop
      vertex 31.1941 20.7326 -0.391
      vertex 22.7959 34.7348 -0.391
      vertex 31.1941 34.7348 -0.391
    endloop
  endfacet
  facet normal 0 0 -1
    outer loop
      vertex 31.1941 20.7326 -0.391
      vertex 22.7959 20.7326 -0.391
      vertex 22.7959 34.7348 -0.391
    endloop
  endfacet
  facet normal 0 0 -1
    outer loop
      vertex 30.8349 18.8277 -0.391
      vertex 23.155 18.8277 -0.391
      vertex 23.0597 19.0808 -0.391
    endloop
  endfacet
  facet normal -0 0 -1
    outer loop
      vertex 30.8349 18.8277 -0.391
      vertex 30.7249 18.5809 -0.391
      vertex 23.155 18.8277 -0.391
    endloop
  endfacet
  facet normal -0 0 -1
    outer loop
      vertex 30.7249 18.5809 -0.391
      vertex 30.6003 18.3406 -0.391
      vertex 23.2649 18.5809 -0.391
    endloop
  endfacet
  facet normal 0 0 -1
    outer loop
      vertex 23.2649 18.5809 -0.391
      vertex 30.6003 18.3406 -0.391
      vertex 23.3895 18.3406 -0.391
    endloop
  endfacet
  facet normal 0 0 -1
    outer loop
      vertex 23.3895 18.3406 -0.391
      vertex 30.6003 18.3406 -0.391
      vertex 30.461 18.1066 -0.391
    endloop
  endfacet
  facet normal 0 0 -1
    outer loop
      vertex 23.5287 18.1066 -0.391
      vertex 23.3895 18.3406 -0.391
      vertex 30.461 18.1066 -0.391
    endloop
  endfacet
  facet normal 0 0 -1
    outer loop
      vertex 30.307 17.8789 -0.391
      vertex 23.5287 18.1066 -0.391
      vertex 30.461 18.1066 -0.391
    endloop
  endfacet
  facet normal 0 0 -1
    outer loop
      vertex 30.307 17.8789 -0.391
      vertex 23.6826 17.8789 -0.391
      vertex 23.5287 18.1066 -0.391
    endloop
  endfacet
  facet normal 0 0 -1
    outer loop
      vertex 30.1384 17.6575 -0.391
      vertex 23.8511 17.6575 -0.391
      vertex 23.6826 17.8789 -0.391
    endloop
  endfacet
  facet normal -0 0 -1
    outer loop
      vertex 30.1384 17.6575 -0.391
      vertex 29.9551 17.4426 -0.391
      vertex 23.8511 17.6575 -0.391
    endloop
  endfacet
  facet normal 0 0 -1
    outer loop
      vertex 23.8511 17.6575 -0.391
      vertex 29.9551 17.4426 -0.391
      vertex 24.0343 17.4426 -0.391
    endloop
  endfacet
  facet normal 0 0 -1
    outer loop
      vertex 24.0343 17.4426 -0.391
      vertex 29.9551 17.4426 -0.391
      vertex 24.2278 17.2388 -0.391
    endloop
  endfacet
  facet normal 0 0 -1
    outer loop
      vertex 24.2278 17.2388 -0.391
      vertex 29.9551 17.4426 -0.391
      vertex 29.7617 17.2388 -0.391
    endloop
  endfacet
  facet normal 0 0 -1
    outer loop
      vertex 24.427 17.0514 -0.391
      vertex 29.7617 17.2388 -0.391
      vertex 29.5626 17.0514 -0.391
    endloop
  endfacet
  facet normal 0 0 -1
    outer loop
      vertex 24.6319 16.8802 -0.391
      vertex 24.427 17.0514 -0.391
      vertex 29.5626 17.0514 -0.391
    endloop
  endfacet
  facet normal 0 0 -1
    outer loop
      vertex 29.3578 16.8802 -0.391
      vertex 24.6319 16.8802 -0.391
      vertex 29.5626 17.0514 -0.391
    endloop
  endfacet
  facet normal -0 0 -1
    outer loop
      vertex 29.3578 16.8802 -0.391
      vertex 26.9947 16.0652 -0.391
      vertex 24.6319 16.8802 -0.391
    endloop
  endfacet
  facet normal 0 0 -1
    outer loop
      vertex 24.6319 16.8802 -0.391
      vertex 26.7328 16.0733 -0.391
      vertex 24.8425 16.7254 -0.391
    endloop
  endfacet
  facet normal 0 0 -1
    outer loop
      vertex 26.4765 16.0978 -0.391
      vertex 26.2259 16.1385 -0.391
      vertex 25.0588 16.5868 -0.391
    endloop
  endfacet
  facet normal 0 0 -1
    outer loop
      vertex 25.9811 16.1956 -0.391
      vertex 25.5085 16.3586 -0.391
      vertex 25.2808 16.4646 -0.391
    endloop
  endfacet
  facet normal 0 0 -1
    outer loop
      vertex 25.9811 16.1956 -0.391
      vertex 25.7419 16.269 -0.391
      vertex 25.5085 16.3586 -0.391
    endloop
  endfacet
  facet normal 0 0 -1
    outer loop
      vertex 26.2259 16.1385 -0.391
      vertex 25.9811 16.1956 -0.391
      vertex 25.2808 16.4646 -0.391
    endloop
  endfacet
  facet normal 0 0 -1
    outer loop
      vertex 25.0588 16.5868 -0.391
      vertex 26.2259 16.1385 -0.391
      vertex 25.2808 16.4646 -0.391
    endloop
  endfacet
  facet normal 0 0 -1
    outer loop
      vertex 24.8425 16.7254 -0.391
      vertex 26.4765 16.0978 -0.391
      vertex 25.0588 16.5868 -0.391
    endloop
  endfacet
  facet normal 0 0 -1
    outer loop
      vertex 24.8425 16.7254 -0.391
      vertex 26.7328 16.0733 -0.391
      vertex 26.4765 16.0978 -0.391
    endloop
  endfacet
  facet normal 0 0 -1
    outer loop
      vertex 24.6319 16.8802 -0.391
      vertex 26.9947 16.0652 -0.391
      vertex 26.7328 16.0733 -0.391
    endloop
  endfacet
  facet normal 0 0 1
    outer loop
      vertex 28.4812 16.3586 -0.091
      vertex 28.0086 16.1956 -0.091
      vertex 28.2478 16.269 -0.091
    endloop
  endfacet
  facet normal 0 0 1
    outer loop
      vertex 28.709 16.4646 -0.091
      vertex 27.7637 16.1385 -0.091
      vertex 28.0086 16.1956 -0.091
    endloop
  endfacet
  facet normal 0 -0 1
    outer loop
      vertex 28.4812 16.3586 -0.091
      vertex 28.709 16.4646 -0.091
      vertex 28.0086 16.1956 -0.091
    endloop
  endfacet
  facet normal 0 0 1
    outer loop
      vertex 28.931 16.5868 -0.091
      vertex 27.7637 16.1385 -0.091
      vertex 28.709 16.4646 -0.091
    endloop
  endfacet
  facet normal 0 0 1
    outer loop
      vertex 27.5131 16.0978 -0.091
      vertex 27.7637 16.1385 -0.091
      vertex 28.931 16.5868 -0.091
    endloop
  endfacet
  facet normal 0 0 1
    outer loop
      vertex 27.5131 16.0978 -0.091
      vertex 28.931 16.5868 -0.091
      vertex 29.1472 16.7254 -0.091
    endloop
  endfacet
  facet normal 0 -0 1
    outer loop
      vertex 27.5131 16.0978 -0.091
      vertex 29.1472 16.7254 -0.091
      vertex 27.2568 16.0733 -0.091
    endloop
  endfacet
  facet normal 0 -0 1
    outer loop
      vertex 29.1472 16.7254 -0.091
      vertex 29.3578 16.8802 -0.091
      vertex 27.2568 16.0733 -0.091
    endloop
  endfacet
  facet normal 0 0 1
    outer loop
      vertex 29.3578 16.8802 -0.091
      vertex 26.9947 16.0652 -0.091
      vertex 27.2568 16.0733 -0.091
    endloop
  endfacet
  facet normal 0 -0 1
    outer loop
      vertex 24.427 17.0514 -0.091
      vertex 29.7617 17.2388 -0.091
      vertex 24.2278 17.2388 -0.091
    endloop
  endfacet
  facet normal 0 0 1
    outer loop
      vertex 30.307 17.8789 -0.091
      vertex 23.6826 17.8789 -0.091
      vertex 30.1384 17.6575 -0.091
    endloop
  endfacet
  facet normal 0 0 1
    outer loop
      vertex 23.155 18.8277 -0.091
      vertex 23.2649 18.5809 -0.091
      vertex 30.7249 18.5809 -0.091
    endloop
  endfacet
  facet normal 0 0 1
    outer loop
      vertex 30.9302 19.0808 -0.091
      vertex 23.0597 19.0808 -0.091
      vertex 30.8349 18.8277 -0.091
    endloop
  endfacet
  facet normal 0 0 1
    outer loop
      vertex 22.9791 19.3402 -0.091
      vertex 23.0597 19.0808 -0.091
      vertex 30.9302 19.0808 -0.091
    endloop
  endfacet
  facet normal -0 0 1
    outer loop
      vertex 22.9791 19.3402 -0.091
      vertex 30.9302 19.0808 -0.091
      vertex 31.0108 19.3402 -0.091
    endloop
  endfacet
  facet normal 0 -0 1
    outer loop
      vertex 22.9791 19.3402 -0.091
      vertex 31.0108 19.3402 -0.091
      vertex 22.9132 19.606 -0.091
    endloop
  endfacet
  facet normal 0 -0 1
    outer loop
      vertex 31.0108 19.3402 -0.091
      vertex 31.0768 19.606 -0.091
      vertex 22.9132 19.606 -0.091
    endloop
  endfacet
  facet normal 0 0 1
    outer loop
      vertex 31.0768 19.606 -0.091
      vertex 22.8619 19.8781 -0.091
      vertex 22.9132 19.606 -0.091
    endloop
  endfacet
  facet normal 0 0 1
    outer loop
      vertex 31.1281 19.8781 -0.091
      vertex 22.8619 19.8781 -0.091
      vertex 31.0768 19.606 -0.091
    endloop
  endfacet
  facet normal 0 0 1
    outer loop
      vertex 22.8252 20.1566 -0.091
      vertex 22.8619 19.8781 -0.091
      vertex 31.1281 19.8781 -0.091
    endloop
  endfacet
  facet normal -0 0 1
    outer loop
      vertex 22.8252 20.1566 -0.091
      vertex 31.1281 19.8781 -0.091
      vertex 31.1648 20.1566 -0.091
    endloop
  endfacet
  facet normal 0 -0 1
    outer loop
      vertex 22.8252 20.1566 -0.091
      vertex 31.1648 20.1566 -0.091
      vertex 22.8033 20.4414 -0.091
    endloop
  endfacet
  facet normal 0 -0 1
    outer loop
      vertex 31.1648 20.1566 -0.091
      vertex 31.1868 20.4414 -0.091
      vertex 22.8033 20.4414 -0.091
    endloop
  endfacet
  facet normal 0 0 1
    outer loop
      vertex 31.1868 20.4414 -0.091
      vertex 22.7959 20.7326 -0.091
      vertex 22.8033 20.4414 -0.091
    endloop
  endfacet
  facet normal 0 0 1
    outer loop
      vertex 31.1941 20.7326 -0.091
      vertex 22.7959 20.7326 -0.091
      vertex 31.1868 20.4414 -0.091
    endloop
  endfacet
  facet normal 0 0 1
    outer loop
      vertex 23.8511 37.8098 -0.091
      vertex 29.9551 38.0248 -0.091
      vertex 24.0343 38.0248 -0.091
    endloop
  endfacet
  facet normal -0 0 1
    outer loop
      vertex 26.4765 39.3696 -0.091
      vertex 24.8425 38.742 -0.091
      vertex 26.7328 39.394 -0.091
    endloop
  endfacet
  facet normal 0 0 1
    outer loop
      vertex 25.0588 38.8805 -0.091
      vertex 26.2259 39.3288 -0.091
      vertex 25.2808 39.0028 -0.091
    endloop
  endfacet
  facet normal 0 0 1
    outer loop
      vertex 26.2259 39.3288 -0.091
      vertex 25.9811 39.2717 -0.091
      vertex 25.2808 39.0028 -0.091
    endloop
  endfacet
  facet normal 0 0 1
    outer loop
      vertex 25.9811 39.2717 -0.091
      vertex 25.5085 39.1087 -0.091
      vertex 25.2808 39.0028 -0.091
    endloop
  endfacet
  facet normal -0 0 1
    outer loop
      vertex 25.7419 39.1984 -0.091
      vertex 25.5085 39.1087 -0.091
      vertex 25.9811 39.2717 -0.091
    endloop
  endfacet
  facet normal 0 0 1
    outer loop
      vertex 26.4765 39.3696 -0.091
      vertex 26.2259 39.3288 -0.091
      vertex 25.0588 38.8805 -0.091
    endloop
  endfacet
  facet normal 0 0 1
    outer loop
      vertex 26.4765 39.3696 -0.091
      vertex 25.0588 38.8805 -0.091
      vertex 24.8425 38.742 -0.091
    endloop
  endfacet
  facet normal 0 0 1
    outer loop
      vertex 27.2568 39.394 -0.091
      vertex 26.9947 39.4021 -0.091
      vertex 29.3578 38.5871 -0.091
    endloop
  endfacet
  facet normal 0 0 1
    outer loop
      vertex 27.2568 39.394 -0.091
      vertex 29.3578 38.5871 -0.091
      vertex 29.1472 38.742 -0.091
    endloop
  endfacet
  facet normal 0 0 1
    outer loop
      vertex 27.5131 39.3696 -0.091
      vertex 29.1472 38.742 -0.091
      vertex 28.931 38.8805 -0.091
    endloop
  endfacet
  facet normal 0 0 1
    outer loop
      vertex 27.7637 39.3288 -0.091
      vertex 28.931 38.8805 -0.091
      vertex 28.709 39.0028 -0.091
    endloop
  endfacet
  facet normal 0 0 1
    outer loop
      vertex 28.0086 39.2717 -0.091
      vertex 28.709 39.0028 -0.091
      vertex 28.4812 39.1087 -0.091
    endloop
  endfacet
  facet normal 0 0 1
    outer loop
      vertex 28.0086 39.2717 -0.091
      vertex 28.4812 39.1087 -0.091
      vertex 28.2478 39.1984 -0.091
    endloop
  endfacet
  facet normal 0 0 1
    outer loop
      vertex 27.7637 39.3288 -0.091
      vertex 28.709 39.0028 -0.091
      vertex 28.0086 39.2717 -0.091
    endloop
  endfacet
  facet normal 0 0 1
    outer loop
      vertex 27.5131 39.3696 -0.091
      vertex 28.931 38.8805 -0.091
      vertex 27.7637 39.3288 -0.091
    endloop
  endfacet
  facet normal 0 0 1
    outer loop
      vertex 27.2568 39.394 -0.091
      vertex 29.1472 38.742 -0.091
      vertex 27.5131 39.3696 -0.091
    endloop
  endfacet
  facet normal -0 0 1
    outer loop
      vertex 24.8425 38.742 -0.091
      vertex 24.6319 38.5871 -0.091
      vertex 26.7328 39.394 -0.091
    endloop
  endfacet
  facet normal 0 0 1
    outer loop
      vertex 24.6319 38.5871 -0.091
      vertex 26.9947 39.4021 -0.091
      vertex 26.7328 39.394 -0.091
    endloop
  endfacet
  facet normal 0 0 1
    outer loop
      vertex 29.3578 38.5871 -0.091
      vertex 26.9947 39.4021 -0.091
      vertex 24.6319 38.5871 -0.091
    endloop
  endfacet
  facet normal 0 0 1
    outer loop
      vertex 29.3578 38.5871 -0.091
      vertex 24.6319 38.5871 -0.091
      vertex 29.5626 38.416 -0.091
    endloop
  endfacet
  facet normal 0 0 1
    outer loop
      vertex 24.6319 38.5871 -0.091
      vertex 24.427 38.416 -0.091
      vertex 29.5626 38.416 -0.091
    endloop
  endfacet
  facet normal -0 0 1
    outer loop
      vertex 24.427 38.416 -0.091
      vertex 29.7617 38.2285 -0.091
      vertex 29.5626 38.416 -0.091
    endloop
  endfacet
  facet normal 0 0 1
    outer loop
      vertex 24.2278 38.2285 -0.091
      vertex 29.7617 38.2285 -0.091
      vertex 24.427 38.416 -0.091
    endloop
  endfacet
  facet normal 0 0 1
    outer loop
      vertex 29.9551 38.0248 -0.091
      vertex 29.7617 38.2285 -0.091
      vertex 24.2278 38.2285 -0.091
    endloop
  endfacet
  facet normal 0 0 1
    outer loop
      vertex 29.9551 38.0248 -0.091
      vertex 24.2278 38.2285 -0.091
      vertex 24.0343 38.0248 -0.091
    endloop
  endfacet
  facet normal 0 0 1
    outer loop
      vertex 30.1384 37.8098 -0.091
      vertex 29.9551 38.0248 -0.091
      vertex 23.8511 37.8098 -0.091
    endloop
  endfacet
  facet normal 0 0 1
    outer loop
      vertex 30.1384 37.8098 -0.091
      vertex 23.8511 37.8098 -0.091
      vertex 23.6826 37.5885 -0.091
    endloop
  endfacet
  facet normal 0 0 1
    outer loop
      vertex 30.1384 37.8098 -0.091
      vertex 23.6826 37.5885 -0.091
      vertex 30.307 37.5885 -0.091
    endloop
  endfacet
  facet normal -0 0 1
    outer loop
      vertex 23.6826 37.5885 -0.091
      vertex 23.5287 37.3608 -0.091
      vertex 30.307 37.5885 -0.091
    endloop
  endfacet
  facet normal 0 0 1
    outer loop
      vertex 23.5287 37.3608 -0.091
      vertex 30.461 37.3608 -0.091
      vertex 30.307 37.5885 -0.091
    endloop
  endfacet
  facet normal 0 0 1
    outer loop
      vertex 23.3895 37.1268 -0.091
      vertex 30.461 37.3608 -0.091
      vertex 23.5287 37.3608 -0.091
    endloop
  endfacet
  facet normal 0 0 1
    outer loop
      vertex 30.6003 37.1268 -0.091
      vertex 30.461 37.3608 -0.091
      vertex 23.3895 37.1268 -0.091
    endloop
  endfacet
  facet normal 0 0 1
    outer loop
      vertex 30.6003 37.1268 -0.091
      vertex 23.3895 37.1268 -0.091
      vertex 23.2649 36.8864 -0.091
    endloop
  endfacet
  facet normal 0 0 1
    outer loop
      vertex 30.6003 37.1268 -0.091
      vertex 23.2649 36.8864 -0.091
      vertex 30.7249 36.8864 -0.091
    endloop
  endfacet
  facet normal -0 0 1
    outer loop
      vertex 23.2649 36.8864 -0.091
      vertex 23.155 36.6397 -0.091
      vertex 30.7249 36.8864 -0.091
    endloop
  endfacet
  facet normal 0 0 1
    outer loop
      vertex 23.155 36.6397 -0.091
      vertex 30.8349 36.6397 -0.091
      vertex 30.7249 36.8864 -0.091
    endloop
  endfacet
  facet normal 0 0 1
    outer loop
      vertex 23.0597 36.3866 -0.091
      vertex 30.8349 36.6397 -0.091
      vertex 23.155 36.6397 -0.091
    endloop
  endfacet
  facet normal 0 0 1
    outer loop
      vertex 30.9302 36.3866 -0.091
      vertex 30.8349 36.6397 -0.091
      vertex 23.0597 36.3866 -0.091
    endloop
  endfacet
  facet normal 0 0 1
    outer loop
      vertex 30.9302 36.3866 -0.091
      vertex 23.0597 36.3866 -0.091
      vertex 22.9791 36.1272 -0.091
    endloop
  endfacet
  facet normal 0 0 1
    outer loop
      vertex 30.9302 36.3866 -0.091
      vertex 22.9791 36.1272 -0.091
      vertex 31.0108 36.1272 -0.091
    endloop
  endfacet
  facet normal -0 0 1
    outer loop
      vertex 22.9791 36.1272 -0.091
      vertex 22.9132 35.8614 -0.091
      vertex 31.0108 36.1272 -0.091
    endloop
  endfacet
  facet normal 0 0 1
    outer loop
      vertex 22.9132 35.8614 -0.091
      vertex 31.0768 35.8614 -0.091
      vertex 31.0108 36.1272 -0.091
    endloop
  endfacet
  facet normal 0 0 1
    outer loop
      vertex 22.8619 35.5892 -0.091
      vertex 31.0768 35.8614 -0.091
      vertex 22.9132 35.8614 -0.091
    endloop
  endfacet
  facet normal 0 0 1
    outer loop
      vertex 31.1281 35.5892 -0.091
      vertex 31.0768 35.8614 -0.091
      vertex 22.8619 35.5892 -0.091
    endloop
  endfacet
  facet normal 0 0 1
    outer loop
      vertex 31.1281 35.5892 -0.091
      vertex 22.8619 35.5892 -0.091
      vertex 22.8252 35.3108 -0.091
    endloop
  endfacet
  facet normal 0 0 1
    outer loop
      vertex 31.1281 35.5892 -0.091
      vertex 22.8252 35.3108 -0.091
      vertex 31.1648 35.3108 -0.091
    endloop
  endfacet
  facet normal -0 0 1
    outer loop
      vertex 22.8252 35.3108 -0.091
      vertex 22.8033 35.0259 -0.091
      vertex 31.1648 35.3108 -0.091
    endloop
  endfacet
  facet normal 0 0 1
    outer loop
      vertex 22.8033 35.0259 -0.091
      vertex 31.1868 35.0259 -0.091
      vertex 31.1648 35.3108 -0.091
    endloop
  endfacet
  facet normal 0 0 1
    outer loop
      vertex 22.7959 34.7348 -0.091
      vertex 31.1868 35.0259 -0.091
      vertex 22.8033 35.0259 -0.091
    endloop
  endfacet
  facet normal 0 0 1
    outer loop
      vertex 31.1941 34.7348 -0.091
      vertex 31.1868 35.0259 -0.091
      vertex 22.7959 34.7348 -0.091
    endloop
  endfacet
  facet normal 0 0 1
    outer loop
      vertex 31.1941 34.7348 -0.091
      vertex 22.7959 34.7348 -0.091
      vertex 31.1941 20.7326 -0.091
    endloop
  endfacet
  facet normal 0 0 1
    outer loop
      vertex 22.7959 34.7348 -0.091
      vertex 22.7959 20.7326 -0.091
      vertex 31.1941 20.7326 -0.091
    endloop
  endfacet
  facet normal 0 0 1
    outer loop
      vertex 23.0597 19.0808 -0.091
      vertex 23.155 18.8277 -0.091
      vertex 30.8349 18.8277 -0.091
    endloop
  endfacet
  facet normal -0 0 1
    outer loop
      vertex 23.155 18.8277 -0.091
      vertex 30.7249 18.5809 -0.091
      vertex 30.8349 18.8277 -0.091
    endloop
  endfacet
  facet normal -0 0 1
    outer loop
      vertex 23.2649 18.5809 -0.091
      vertex 30.6003 18.3406 -0.091
      vertex 30.7249 18.5809 -0.091
    endloop
  endfacet
  facet normal 0 -0 1
    outer loop
      vertex 23.3895 18.3406 -0.091
      vertex 30.6003 18.3406 -0.091
      vertex 23.2649 18.5809 -0.091
    endloop
  endfacet
  facet normal 0 -0 1
    outer loop
      vertex 30.461 18.1066 -0.091
      vertex 30.6003 18.3406 -0.091
      vertex 23.3895 18.3406 -0.091
    endloop
  endfacet
  facet normal 0 0 1
    outer loop
      vertex 30.461 18.1066 -0.091
      vertex 23.3895 18.3406 -0.091
      vertex 23.5287 18.1066 -0.091
    endloop
  endfacet
  facet normal 0 0 1
    outer loop
      vertex 30.461 18.1066 -0.091
      vertex 23.5287 18.1066 -0.091
      vertex 30.307 17.8789 -0.091
    endloop
  endfacet
  facet normal 0 0 1
    outer loop
      vertex 23.5287 18.1066 -0.091
      vertex 23.6826 17.8789 -0.091
      vertex 30.307 17.8789 -0.091
    endloop
  endfacet
  facet normal 0 0 1
    outer loop
      vertex 23.6826 17.8789 -0.091
      vertex 23.8511 17.6575 -0.091
      vertex 30.1384 17.6575 -0.091
    endloop
  endfacet
  facet normal -0 0 1
    outer loop
      vertex 23.8511 17.6575 -0.091
      vertex 29.9551 17.4426 -0.091
      vertex 30.1384 17.6575 -0.091
    endloop
  endfacet
  facet normal 0 -0 1
    outer loop
      vertex 24.0343 17.4426 -0.091
      vertex 29.9551 17.4426 -0.091
      vertex 23.8511 17.6575 -0.091
    endloop
  endfacet
  facet normal 0 -0 1
    outer loop
      vertex 24.2278 17.2388 -0.091
      vertex 29.9551 17.4426 -0.091
      vertex 24.0343 17.4426 -0.091
    endloop
  endfacet
  facet normal 0 -0 1
    outer loop
      vertex 29.7617 17.2388 -0.091
      vertex 29.9551 17.4426 -0.091
      vertex 24.2278 17.2388 -0.091
    endloop
  endfacet
  facet normal 0 -0 1
    outer loop
      vertex 29.5626 17.0514 -0.091
      vertex 29.7617 17.2388 -0.091
      vertex 24.427 17.0514 -0.091
    endloop
  endfacet
  facet normal 0 0 1
    outer loop
      vertex 29.5626 17.0514 -0.091
      vertex 24.427 17.0514 -0.091
      vertex 24.6319 16.8802 -0.091
    endloop
  endfacet
  facet normal 0 0 1
    outer loop
      vertex 29.5626 17.0514 -0.091
      vertex 24.6319 16.8802 -0.091
      vertex 29.3578 16.8802 -0.091
    endloop
  endfacet
  facet normal -0 0 1
    outer loop
      vertex 24.6319 16.8802 -0.091
      vertex 26.9947 16.0652 -0.091
      vertex 29.3578 16.8802 -0.091
    endloop
  endfacet
  facet normal -0 -0 1
    outer loop
      vertex 24.8425 16.7254 -0.091
      vertex 26.7328 16.0733 -0.091
      vertex 24.6319 16.8802 -0.091
    endloop
  endfacet
  facet normal 0 0 1
    outer loop
      vertex 25.0588 16.5868 -0.091
      vertex 26.2259 16.1385 -0.091
      vertex 26.4765 16.0978 -0.091
    endloop
  endfacet
  facet normal 0 0 1
    outer loop
      vertex 25.2808 16.4646 -0.091
      vertex 25.5085 16.3586 -0.091
      vertex 25.9811 16.1956 -0.091
    endloop
  endfacet
  facet normal 0 0 1
    outer loop
      vertex 25.5085 16.3586 -0.091
      vertex 25.7419 16.269 -0.091
      vertex 25.9811 16.1956 -0.091
    endloop
  endfacet
  facet normal 0 0 1
    outer loop
      vertex 25.2808 16.4646 -0.091
      vertex 25.9811 16.1956 -0.091
      vertex 26.2259 16.1385 -0.091
    endloop
  endfacet
  facet normal -0 -0 1
    outer loop
      vertex 25.2808 16.4646 -0.091
      vertex 26.2259 16.1385 -0.091
      vertex 25.0588 16.5868 -0.091
    endloop
  endfacet
  facet normal -0 -0 1
    outer loop
      vertex 25.0588 16.5868 -0.091
      vertex 26.4765 16.0978 -0.091
      vertex 24.8425 16.7254 -0.091
    endloop
  endfacet
  facet normal -0 -0 1
    outer loop
      vertex 26.4765 16.0978 -0.091
      vertex 26.7328 16.0733 -0.091
      vertex 24.8425 16.7254 -0.091
    endloop
  endfacet
  facet normal -0 -0 1
    outer loop
      vertex 26.7328 16.0733 -0.091
      vertex 26.9947 16.0652 -0.091
      vertex 24.6319 16.8802 -0.091
    endloop
  endfacet
  facet normal 0.0951573 -0.995462 0
    outer loop
      vertex 27.5131 16.0978 -0.391
      vertex 27.2568 16.0733 -0.091
      vertex 27.2568 16.0733 -0.391
    endloop
  endfacet
  facet normal 0.0951573 -0.995462 0
    outer loop
      vertex 27.5131 16.0978 -0.391
      vertex 27.5131 16.0978 -0.091
      vertex 27.2568 16.0733 -0.091
    endloop
  endfacet
  facet normal 0.16031 -0.987067 0
    outer loop
      vertex 27.7637 16.1385 -0.391
      vertex 27.5131 16.0978 -0.091
      vertex 27.5131 16.0978 -0.391
    endloop
  endfacet
  facet normal 0.16031 -0.987067 0
    outer loop
      vertex 27.7637 16.1385 -0.391
      vertex 27.7637 16.1385 -0.091
      vertex 27.5131 16.0978 -0.091
    endloop
  endfacet
  facet normal 0.227066 -0.973879 0
    outer loop
      vertex 28.0086 16.1956 -0.391
      vertex 27.7637 16.1385 -0.091
      vertex 27.7637 16.1385 -0.391
    endloop
  endfacet
  facet normal 0.227066 -0.973879 0
    outer loop
      vertex 28.0086 16.1956 -0.391
      vertex 28.0086 16.1956 -0.091
      vertex 27.7637 16.1385 -0.091
    endloop
  endfacet
  facet normal 0.293356 -0.956003 0
    outer loop
      vertex 28.2478 16.269 -0.391
      vertex 28.0086 16.1956 -0.091
      vertex 28.0086 16.1956 -0.391
    endloop
  endfacet
  facet normal 0.293356 -0.956003 0
    outer loop
      vertex 28.2478 16.269 -0.391
      vertex 28.2478 16.269 -0.091
      vertex 28.0086 16.1956 -0.091
    endloop
  endfacet
  facet normal 0.358389 -0.933572 0
    outer loop
      vertex 28.4812 16.3586 -0.391
      vertex 28.2478 16.269 -0.091
      vertex 28.2478 16.269 -0.391
    endloop
  endfacet
  facet normal 0.358389 -0.933572 0
    outer loop
      vertex 28.4812 16.3586 -0.391
      vertex 28.4812 16.3586 -0.091
      vertex 28.2478 16.269 -0.091
    endloop
  endfacet
  facet normal 0.421883 -0.90665 0
    outer loop
      vertex 28.709 16.4646 -0.391
      vertex 28.4812 16.3586 -0.091
      vertex 28.4812 16.3586 -0.391
    endloop
  endfacet
  facet normal 0.421883 -0.90665 0
    outer loop
      vertex 28.709 16.4646 -0.391
      vertex 28.709 16.4646 -0.091
      vertex 28.4812 16.3586 -0.091
    endloop
  endfacet
  facet normal 0.482222 -0.876049 0
    outer loop
      vertex 28.931 16.5868 -0.391
      vertex 28.709 16.4646 -0.091
      vertex 28.709 16.4646 -0.391
    endloop
  endfacet
  facet normal 0.482222 -0.876049 0
    outer loop
      vertex 28.931 16.5868 -0.391
      vertex 28.931 16.5868 -0.091
      vertex 28.709 16.4646 -0.091
    endloop
  endfacet
  facet normal 0.539694 -0.841861 0
    outer loop
      vertex 29.1472 16.7254 -0.391
      vertex 28.931 16.5868 -0.091
      vertex 28.931 16.5868 -0.391
    endloop
  endfacet
  facet normal 0.539694 -0.841861 0
    outer loop
      vertex 29.1472 16.7254 -0.391
      vertex 29.1472 16.7254 -0.091
      vertex 28.931 16.5868 -0.091
    endloop
  endfacet
  facet normal 0.592259 -0.805748 0
    outer loop
      vertex 29.3578 16.8802 -0.391
      vertex 29.1472 16.7254 -0.091
      vertex 29.1472 16.7254 -0.391
    endloop
  endfacet
  facet normal 0.592259 -0.805748 0
    outer loop
      vertex 29.3578 16.8802 -0.391
      vertex 29.3578 16.8802 -0.091
      vertex 29.1472 16.7254 -0.091
    endloop
  endfacet
  facet normal 0.641363 -0.767238 0
    outer loop
      vertex 29.5626 17.0514 -0.391
      vertex 29.3578 16.8802 -0.091
      vertex 29.3578 16.8802 -0.391
    endloop
  endfacet
  facet normal 0.641363 -0.767238 0
    outer loop
      vertex 29.5626 17.0514 -0.391
      vertex 29.5626 17.0514 -0.091
      vertex 29.3578 16.8802 -0.091
    endloop
  endfacet
  facet normal 0.685388 -0.728179 0
    outer loop
      vertex 29.7617 17.2388 -0.391
      vertex 29.5626 17.0514 -0.091
      vertex 29.5626 17.0514 -0.391
    endloop
  endfacet
  facet normal 0.685388 -0.728179 0
    outer loop
      vertex 29.7617 17.2388 -0.391
      vertex 29.7617 17.2388 -0.091
      vertex 29.5626 17.0514 -0.091
    endloop
  endfacet
  facet normal 0.725373 -0.688356 0
    outer loop
      vertex 29.9551 17.4426 -0.391
      vertex 29.7617 17.2388 -0.091
      vertex 29.7617 17.2388 -0.391
    endloop
  endfacet
  facet normal 0.725373 -0.688356 0
    outer loop
      vertex 29.9551 17.4426 -0.391
      vertex 29.9551 17.4426 -0.091
      vertex 29.7617 17.2388 -0.091
    endloop
  endfacet
  facet normal 0.760829 -0.648953 0
    outer loop
      vertex 30.1384 17.6575 -0.391
      vertex 29.9551 17.4426 -0.091
      vertex 29.9551 17.4426 -0.391
    endloop
  endfacet
  facet normal 0.760829 -0.648953 0
    outer loop
      vertex 30.1384 17.6575 -0.391
      vertex 30.1384 17.6575 -0.091
      vertex 29.9551 17.4426 -0.091
    endloop
  endfacet
  facet normal 0.79558 -0.605848 0
    outer loop
      vertex 30.307 17.8789 -0.391
      vertex 30.1384 17.6575 -0.091
      vertex 30.1384 17.6575 -0.391
    endloop
  endfacet
  facet normal 0.79558 -0.605848 0
    outer loop
      vertex 30.307 17.8789 -0.391
      vertex 30.307 17.8789 -0.091
      vertex 30.1384 17.6575 -0.091
    endloop
  endfacet
  facet normal 0.828338 -0.560229 0
    outer loop
      vertex 30.461 18.1066 -0.391
      vertex 30.307 17.8789 -0.091
      vertex 30.307 17.8789 -0.391
    endloop
  endfacet
  facet normal 0.828338 -0.560229 0
    outer loop
      vertex 30.461 18.1066 -0.391
      vertex 30.461 18.1066 -0.091
      vertex 30.307 17.8789 -0.091
    endloop
  endfacet
  facet normal 0.85927 -0.511523 0
    outer loop
      vertex 30.6003 18.3406 -0.391
      vertex 30.461 18.1066 -0.091
      vertex 30.461 18.1066 -0.391
    endloop
  endfacet
  facet normal 0.85927 -0.511523 0
    outer loop
      vertex 30.6003 18.3406 -0.391
      vertex 30.6003 18.3406 -0.091
      vertex 30.461 18.1066 -0.091
    endloop
  endfacet
  facet normal 0.887755 -0.460317 0
    outer loop
      vertex 30.7249 18.5809 -0.391
      vertex 30.6003 18.3406 -0.091
      vertex 30.6003 18.3406 -0.391
    endloop
  endfacet
  facet normal 0.887755 -0.460317 0
    outer loop
      vertex 30.7249 18.5809 -0.391
      vertex 30.7249 18.5809 -0.091
      vertex 30.6003 18.3406 -0.091
    endloop
  endfacet
  facet normal 0.913384 -0.4071 0
    outer loop
      vertex 30.8349 18.8277 -0.391
      vertex 30.7249 18.5809 -0.091
      vertex 30.7249 18.5809 -0.391
    endloop
  endfacet
  facet normal 0.913384 -0.4071 0
    outer loop
      vertex 30.8349 18.8277 -0.391
      vertex 30.8349 18.8277 -0.091
      vertex 30.7249 18.5809 -0.091
    endloop
  endfacet
  facet normal 0.935857 -0.352379 0
    outer loop
      vertex 30.9302 19.0808 -0.391
      vertex 30.8349 18.8277 -0.091
      vertex 30.8349 18.8277 -0.391
    endloop
  endfacet
  facet normal 0.935857 -0.352379 0
    outer loop
      vertex 30.9302 19.0808 -0.391
      vertex 30.9302 19.0808 -0.091
      vertex 30.8349 18.8277 -0.091
    endloop
  endfacet
  facet normal 0.954963 -0.296723 0
    outer loop
      vertex 31.0108 19.3402 -0.391
      vertex 30.9302 19.0808 -0.091
      vertex 30.9302 19.0808 -0.391
    endloop
  endfacet
  facet normal 0.954963 -0.296723 0
    outer loop
      vertex 31.0108 19.3402 -0.391
      vertex 31.0108 19.3402 -0.091
      vertex 30.9302 19.0808 -0.091
    endloop
  endfacet
  facet normal 0.970528 -0.240989 0
    outer loop
      vertex 31.0768 19.606 -0.391
      vertex 31.0108 19.3402 -0.091
      vertex 31.0108 19.3402 -0.391
    endloop
  endfacet
  facet normal 0.970528 -0.240989 0
    outer loop
      vertex 31.0768 19.606 -0.391
      vertex 31.0768 19.606 -0.091
      vertex 31.0108 19.3402 -0.091
    endloop
  endfacet
  facet normal 0.982688 -0.18527 0
    outer loop
      vertex 31.1281 19.8781 -0.391
      vertex 31.0768 19.606 -0.091
      vertex 31.0768 19.606 -0.391
    endloop
  endfacet
  facet normal 0.982688 -0.18527 0
    outer loop
      vertex 31.1281 19.8781 -0.391
      vertex 31.1281 19.8781 -0.091
      vertex 31.0768 19.606 -0.091
    endloop
  endfacet
  facet normal 0.991429 -0.130648 0
    outer loop
      vertex 31.1648 20.1566 -0.391
      vertex 31.1281 19.8781 -0.091
      vertex 31.1281 19.8781 -0.391
    endloop
  endfacet
  facet normal 0.991429 -0.130648 0
    outer loop
      vertex 31.1648 20.1566 -0.391
      vertex 31.1648 20.1566 -0.091
      vertex 31.1281 19.8781 -0.091
    endloop
  endfacet
  facet normal 0.99703 -0.0770177 0
    outer loop
      vertex 31.1868 20.4414 -0.391
      vertex 31.1648 20.1566 -0.091
      vertex 31.1648 20.1566 -0.391
    endloop
  endfacet
  facet normal 0.99703 -0.0770177 0
    outer loop
      vertex 31.1868 20.4414 -0.391
      vertex 31.1868 20.4414 -0.091
      vertex 31.1648 20.1566 -0.091
    endloop
  endfacet
  facet normal 0.999686 -0.0250608 0
    outer loop
      vertex 31.1941 20.7326 -0.391
      vertex 31.1868 20.4414 -0.091
      vertex 31.1868 20.4414 -0.391
    endloop
  endfacet
  facet normal 0.999686 -0.0250608 0
    outer loop
      vertex 31.1941 20.7326 -0.391
      vertex 31.1941 20.7326 -0.091
      vertex 31.1868 20.4414 -0.091
    endloop
  endfacet
  facet normal 1 0 0
    outer loop
      vertex 31.1941 34.7348 -0.391
      vertex 31.1941 20.7326 -0.091
      vertex 31.1941 20.7326 -0.391
    endloop
  endfacet
  facet normal 1 0 -0
    outer loop
      vertex 31.1941 34.7348 -0.391
      vertex 31.1941 34.7348 -0.091
      vertex 31.1941 20.7326 -0.091
    endloop
  endfacet
  facet normal 0.999686 0.0250694 0
    outer loop
      vertex 31.1868 35.0259 -0.391
      vertex 31.1941 34.7348 -0.091
      vertex 31.1941 34.7348 -0.391
    endloop
  endfacet
  facet normal 0.999686 0.0250694 -0
    outer loop
      vertex 31.1868 35.0259 -0.391
      vertex 31.1868 35.0259 -0.091
      vertex 31.1941 34.7348 -0.091
    endloop
  endfacet
  facet normal 0.997032 0.0769909 0
    outer loop
      vertex 31.1648 35.3108 -0.391
      vertex 31.1868 35.0259 -0.091
      vertex 31.1868 35.0259 -0.391
    endloop
  endfacet
  facet normal 0.997032 0.0769909 -0
    outer loop
      vertex 31.1648 35.3108 -0.391
      vertex 31.1648 35.3108 -0.091
      vertex 31.1868 35.0259 -0.091
    endloop
  endfacet
  facet normal 0.991423 0.130694 0
    outer loop
      vertex 31.1281 35.5892 -0.391
      vertex 31.1648 35.3108 -0.091
      vertex 31.1648 35.3108 -0.391
    endloop
  endfacet
  facet normal 0.991423 0.130694 -0
    outer loop
      vertex 31.1281 35.5892 -0.391
      vertex 31.1281 35.5892 -0.091
      vertex 31.1648 35.3108 -0.091
    endloop
  endfacet
  facet normal 0.9827 0.185204 0
    outer loop
      vertex 31.0768 35.8614 -0.391
      vertex 31.1281 35.5892 -0.091
      vertex 31.1281 35.5892 -0.391
    endloop
  endfacet
  facet normal 0.9827 0.185204 -0
    outer loop
      vertex 31.0768 35.8614 -0.391
      vertex 31.0768 35.8614 -0.091
      vertex 31.1281 35.5892 -0.091
    endloop
  endfacet
  facet normal 0.970528 0.240989 0
    outer loop
      vertex 31.0108 36.1272 -0.391
      vertex 31.0768 35.8614 -0.091
      vertex 31.0768 35.8614 -0.391
    endloop
  endfacet
  facet normal 0.970528 0.240989 -0
    outer loop
      vertex 31.0108 36.1272 -0.391
      vertex 31.0108 36.1272 -0.091
      vertex 31.0768 35.8614 -0.091
    endloop
  endfacet
  facet normal 0.954963 0.296723 0
    outer loop
      vertex 30.9302 36.3866 -0.391
      vertex 31.0108 36.1272 -0.091
      vertex 31.0108 36.1272 -0.391
    endloop
  endfacet
  facet normal 0.954963 0.296723 -0
    outer loop
      vertex 30.9302 36.3866 -0.391
      vertex 30.9302 36.3866 -0.091
      vertex 31.0108 36.1272 -0.091
    endloop
  endfacet
  facet normal 0.935857 0.352379 0
    outer loop
      vertex 30.8349 36.6397 -0.391
      vertex 30.9302 36.3866 -0.091
      vertex 30.9302 36.3866 -0.391
    endloop
  endfacet
  facet normal 0.935857 0.352379 -0
    outer loop
      vertex 30.8349 36.6397 -0.391
      vertex 30.8349 36.6397 -0.091
      vertex 30.9302 36.3866 -0.091
    endloop
  endfacet
  facet normal 0.913322 0.407237 0
    outer loop
      vertex 30.7249 36.8864 -0.391
      vertex 30.8349 36.6397 -0.091
      vertex 30.8349 36.6397 -0.391
    endloop
  endfacet
  facet normal 0.913322 0.407237 -0
    outer loop
      vertex 30.7249 36.8864 -0.391
      vertex 30.7249 36.8864 -0.091
      vertex 30.8349 36.6397 -0.091
    endloop
  endfacet
  facet normal 0.887833 0.460166 0
    outer loop
      vertex 30.6003 37.1268 -0.391
      vertex 30.7249 36.8864 -0.091
      vertex 30.7249 36.8864 -0.391
    endloop
  endfacet
  facet normal 0.887833 0.460166 -0
    outer loop
      vertex 30.6003 37.1268 -0.391
      vertex 30.6003 37.1268 -0.091
      vertex 30.7249 36.8864 -0.091
    endloop
  endfacet
  facet normal 0.85927 0.511523 0
    outer loop
      vertex 30.461 37.3608 -0.391
      vertex 30.6003 37.1268 -0.091
      vertex 30.6003 37.1268 -0.391
    endloop
  endfacet
  facet normal 0.85927 0.511523 -0
    outer loop
      vertex 30.461 37.3608 -0.391
      vertex 30.461 37.3608 -0.091
      vertex 30.6003 37.1268 -0.091
    endloop
  endfacet
  facet normal 0.828338 0.560229 0
    outer loop
      vertex 30.307 37.5885 -0.391
      vertex 30.461 37.3608 -0.091
      vertex 30.461 37.3608 -0.391
    endloop
  endfacet
  facet normal 0.828338 0.560229 -0
    outer loop
      vertex 30.307 37.5885 -0.391
      vertex 30.307 37.5885 -0.091
      vertex 30.461 37.3608 -0.091
    endloop
  endfacet
  facet normal 0.795448 0.606022 0
    outer loop
      vertex 30.1384 37.8098 -0.391
      vertex 30.307 37.5885 -0.091
      vertex 30.307 37.5885 -0.391
    endloop
  endfacet
  facet normal 0.795448 0.606022 -0
    outer loop
      vertex 30.1384 37.8098 -0.391
      vertex 30.1384 37.8098 -0.091
      vertex 30.307 37.5885 -0.091
    endloop
  endfacet
  facet normal 0.760978 0.648778 0
    outer loop
      vertex 29.9551 38.0248 -0.391
      vertex 30.1384 37.8098 -0.091
      vertex 30.1384 37.8098 -0.391
    endloop
  endfacet
  facet normal 0.760978 0.648778 -0
    outer loop
      vertex 29.9551 38.0248 -0.391
      vertex 29.9551 38.0248 -0.091
      vertex 30.1384 37.8098 -0.091
    endloop
  endfacet
  facet normal 0.725204 0.688534 0
    outer loop
      vertex 29.7617 38.2285 -0.391
      vertex 29.9551 38.0248 -0.091
      vertex 29.9551 38.0248 -0.391
    endloop
  endfacet
  facet normal 0.725204 0.688534 -0
    outer loop
      vertex 29.7617 38.2285 -0.391
      vertex 29.7617 38.2285 -0.091
      vertex 29.9551 38.0248 -0.091
    endloop
  endfacet
  facet normal 0.685581 0.727996 0
    outer loop
      vertex 29.5626 38.416 -0.391
      vertex 29.7617 38.2285 -0.091
      vertex 29.7617 38.2285 -0.391
    endloop
  endfacet
  facet normal 0.685581 0.727996 -0
    outer loop
      vertex 29.5626 38.416 -0.391
      vertex 29.5626 38.416 -0.091
      vertex 29.7617 38.2285 -0.091
    endloop
  endfacet
  facet normal 0.641142 0.767422 0
    outer loop
      vertex 29.3578 38.5871 -0.391
      vertex 29.5626 38.416 -0.091
      vertex 29.5626 38.416 -0.391
    endloop
  endfacet
  facet normal 0.641142 0.767422 -0
    outer loop
      vertex 29.3578 38.5871 -0.391
      vertex 29.3578 38.5871 -0.091
      vertex 29.5626 38.416 -0.091
    endloop
  endfacet
  facet normal 0.592507 0.805565 0
    outer loop
      vertex 29.1472 38.742 -0.391
      vertex 29.3578 38.5871 -0.091
      vertex 29.3578 38.5871 -0.391
    endloop
  endfacet
  facet normal 0.592507 0.805565 -0
    outer loop
      vertex 29.1472 38.742 -0.391
      vertex 29.1472 38.742 -0.091
      vertex 29.3578 38.5871 -0.091
    endloop
  endfacet
  facet normal 0.539418 0.842038 0
    outer loop
      vertex 28.931 38.8805 -0.391
      vertex 29.1472 38.742 -0.091
      vertex 29.1472 38.742 -0.391
    endloop
  endfacet
  facet normal 0.539418 0.842038 -0
    outer loop
      vertex 28.931 38.8805 -0.391
      vertex 28.931 38.8805 -0.091
      vertex 29.1472 38.742 -0.091
    endloop
  endfacet
  facet normal 0.482524 0.875882 0
    outer loop
      vertex 28.709 39.0028 -0.391
      vertex 28.931 38.8805 -0.091
      vertex 28.931 38.8805 -0.391
    endloop
  endfacet
  facet normal 0.482524 0.875882 -0
    outer loop
      vertex 28.709 39.0028 -0.391
      vertex 28.709 39.0028 -0.091
      vertex 28.931 38.8805 -0.091
    endloop
  endfacet
  facet normal 0.421556 0.906803 0
    outer loop
      vertex 28.4812 39.1087 -0.391
      vertex 28.709 39.0028 -0.091
      vertex 28.709 39.0028 -0.391
    endloop
  endfacet
  facet normal 0.421556 0.906803 -0
    outer loop
      vertex 28.4812 39.1087 -0.391
      vertex 28.4812 39.1087 -0.091
      vertex 28.709 39.0028 -0.091
    endloop
  endfacet
  facet normal 0.358738 0.933438 0
    outer loop
      vertex 28.2478 39.1984 -0.391
      vertex 28.4812 39.1087 -0.091
      vertex 28.4812 39.1087 -0.391
    endloop
  endfacet
  facet normal 0.358738 0.933438 -0
    outer loop
      vertex 28.2478 39.1984 -0.391
      vertex 28.2478 39.1984 -0.091
      vertex 28.4812 39.1087 -0.091
    endloop
  endfacet
  facet normal 0.29299 0.956115 0
    outer loop
      vertex 28.0086 39.2717 -0.391
      vertex 28.2478 39.1984 -0.091
      vertex 28.2478 39.1984 -0.391
    endloop
  endfacet
  facet normal 0.29299 0.956115 -0
    outer loop
      vertex 28.0086 39.2717 -0.391
      vertex 28.0086 39.2717 -0.091
      vertex 28.2478 39.1984 -0.091
    endloop
  endfacet
  facet normal 0.227066 0.973879 0
    outer loop
      vertex 27.7637 39.3288 -0.391
      vertex 28.0086 39.2717 -0.091
      vertex 28.0086 39.2717 -0.391
    endloop
  endfacet
  facet normal 0.227066 0.973879 -0
    outer loop
      vertex 27.7637 39.3288 -0.391
      vertex 27.7637 39.3288 -0.091
      vertex 28.0086 39.2717 -0.091
    endloop
  endfacet
  facet normal 0.160693 0.987004 0
    outer loop
      vertex 27.5131 39.3696 -0.391
      vertex 27.7637 39.3288 -0.091
      vertex 27.7637 39.3288 -0.391
    endloop
  endfacet
  facet normal 0.160693 0.987004 -0
    outer loop
      vertex 27.5131 39.3696 -0.391
      vertex 27.5131 39.3696 -0.091
      vertex 27.7637 39.3288 -0.091
    endloop
  endfacet
  facet normal 0.0947724 0.995499 0
    outer loop
      vertex 27.2568 39.394 -0.391
      vertex 27.5131 39.3696 -0.091
      vertex 27.5131 39.3696 -0.391
    endloop
  endfacet
  facet normal 0.0947724 0.995499 -0
    outer loop
      vertex 27.2568 39.394 -0.391
      vertex 27.2568 39.394 -0.091
      vertex 27.5131 39.3696 -0.091
    endloop
  endfacet
  facet normal 0.0308895 0.999523 0
    outer loop
      vertex 26.9947 39.4021 -0.391
      vertex 27.2568 39.394 -0.091
      vertex 27.2568 39.394 -0.391
    endloop
  endfacet
  facet normal 0.0308895 0.999523 -0
    outer loop
      vertex 26.9947 39.4021 -0.391
      vertex 26.9947 39.4021 -0.091
      vertex 27.2568 39.394 -0.091
    endloop
  endfacet
  facet normal -0.0309131 0.999522 0
    outer loop
      vertex 26.7328 39.394 -0.391
      vertex 26.9947 39.4021 -0.091
      vertex 26.9947 39.4021 -0.391
    endloop
  endfacet
  facet normal -0.0309131 0.999522 0
    outer loop
      vertex 26.7328 39.394 -0.391
      vertex 26.7328 39.394 -0.091
      vertex 26.9947 39.4021 -0.091
    endloop
  endfacet
  facet normal -0.0947724 0.995499 0
    outer loop
      vertex 26.4765 39.3696 -0.391
      vertex 26.7328 39.394 -0.091
      vertex 26.7328 39.394 -0.391
    endloop
  endfacet
  facet normal -0.0947724 0.995499 0
    outer loop
      vertex 26.4765 39.3696 -0.391
      vertex 26.4765 39.3696 -0.091
      vertex 26.7328 39.394 -0.091
    endloop
  endfacet
  facet normal -0.160693 0.987004 0
    outer loop
      vertex 26.2259 39.3288 -0.391
      vertex 26.4765 39.3696 -0.091
      vertex 26.4765 39.3696 -0.391
    endloop
  endfacet
  facet normal -0.160693 0.987004 0
    outer loop
      vertex 26.2259 39.3288 -0.391
      vertex 26.2259 39.3288 -0.091
      vertex 26.4765 39.3696 -0.091
    endloop
  endfacet
  facet normal -0.227154 0.973859 0
    outer loop
      vertex 25.9811 39.2717 -0.391
      vertex 26.2259 39.3288 -0.091
      vertex 26.2259 39.3288 -0.391
    endloop
  endfacet
  facet normal -0.227154 0.973859 0
    outer loop
      vertex 25.9811 39.2717 -0.391
      vertex 25.9811 39.2717 -0.091
      vertex 26.2259 39.3288 -0.091
    endloop
  endfacet
  facet normal -0.29299 0.956115 0
    outer loop
      vertex 25.7419 39.1984 -0.391
      vertex 25.9811 39.2717 -0.091
      vertex 25.9811 39.2717 -0.391
    endloop
  endfacet
  facet normal -0.29299 0.956115 0
    outer loop
      vertex 25.7419 39.1984 -0.391
      vertex 25.7419 39.1984 -0.091
      vertex 25.9811 39.2717 -0.091
    endloop
  endfacet
  facet normal -0.358738 0.933438 0
    outer loop
      vertex 25.5085 39.1087 -0.391
      vertex 25.7419 39.1984 -0.091
      vertex 25.7419 39.1984 -0.391
    endloop
  endfacet
  facet normal -0.358738 0.933438 0
    outer loop
      vertex 25.5085 39.1087 -0.391
      vertex 25.5085 39.1087 -0.091
      vertex 25.7419 39.1984 -0.091
    endloop
  endfacet
  facet normal -0.421708 0.906732 0
    outer loop
      vertex 25.2808 39.0028 -0.391
      vertex 25.5085 39.1087 -0.091
      vertex 25.5085 39.1087 -0.391
    endloop
  endfacet
  facet normal -0.421708 0.906732 0
    outer loop
      vertex 25.2808 39.0028 -0.391
      vertex 25.2808 39.0028 -0.091
      vertex 25.5085 39.1087 -0.091
    endloop
  endfacet
  facet normal -0.482524 0.875882 0
    outer loop
      vertex 25.0588 38.8805 -0.391
      vertex 25.2808 39.0028 -0.091
      vertex 25.2808 39.0028 -0.391
    endloop
  endfacet
  facet normal -0.482524 0.875882 0
    outer loop
      vertex 25.0588 38.8805 -0.391
      vertex 25.0588 38.8805 -0.091
      vertex 25.2808 39.0028 -0.091
    endloop
  endfacet
  facet normal -0.539242 0.842151 0
    outer loop
      vertex 24.8425 38.742 -0.391
      vertex 25.0588 38.8805 -0.091
      vertex 25.0588 38.8805 -0.391
    endloop
  endfacet
  facet normal -0.539242 0.842151 0
    outer loop
      vertex 24.8425 38.742 -0.391
      vertex 24.8425 38.742 -0.091
      vertex 25.0588 38.8805 -0.091
    endloop
  endfacet
  facet normal -0.592507 0.805565 0
    outer loop
      vertex 24.6319 38.5871 -0.391
      vertex 24.8425 38.742 -0.091
      vertex 24.8425 38.742 -0.391
    endloop
  endfacet
  facet normal -0.592507 0.805565 0
    outer loop
      vertex 24.6319 38.5871 -0.391
      vertex 24.6319 38.5871 -0.091
      vertex 24.8425 38.742 -0.091
    endloop
  endfacet
  facet normal -0.640958 0.767576 0
    outer loop
      vertex 24.427 38.416 -0.391
      vertex 24.6319 38.5871 -0.091
      vertex 24.6319 38.5871 -0.391
    endloop
  endfacet
  facet normal -0.640958 0.767576 0
    outer loop
      vertex 24.427 38.416 -0.391
      vertex 24.427 38.416 -0.091
      vertex 24.6319 38.5871 -0.091
    endloop
  endfacet
  facet normal -0.685399 0.728168 0
    outer loop
      vertex 24.2278 38.2285 -0.391
      vertex 24.427 38.416 -0.091
      vertex 24.427 38.416 -0.391
    endloop
  endfacet
  facet normal -0.685399 0.728168 0
    outer loop
      vertex 24.2278 38.2285 -0.391
      vertex 24.2278 38.2285 -0.091
      vertex 24.427 38.416 -0.091
    endloop
  endfacet
  facet normal -0.725026 0.688721 0
    outer loop
      vertex 24.0343 38.0248 -0.391
      vertex 24.2278 38.2285 -0.091
      vertex 24.2278 38.2285 -0.391
    endloop
  endfacet
  facet normal -0.725026 0.688721 0
    outer loop
      vertex 24.0343 38.0248 -0.391
      vertex 24.0343 38.0248 -0.091
      vertex 24.2278 38.2285 -0.091
    endloop
  endfacet
  facet normal -0.761153 0.648573 0
    outer loop
      vertex 23.8511 37.8098 -0.391
      vertex 24.0343 38.0248 -0.091
      vertex 24.0343 38.0248 -0.391
    endloop
  endfacet
  facet normal -0.761153 0.648573 0
    outer loop
      vertex 23.8511 37.8098 -0.391
      vertex 23.8511 37.8098 -0.091
      vertex 24.0343 38.0248 -0.091
    endloop
  endfacet
  facet normal -0.795622 0.605794 0
    outer loop
      vertex 23.6826 37.5885 -0.391
      vertex 23.8511 37.8098 -0.091
      vertex 23.8511 37.8098 -0.391
    endloop
  endfacet
  facet normal -0.795622 0.605794 0
    outer loop
      vertex 23.6826 37.5885 -0.391
      vertex 23.6826 37.5885 -0.091
      vertex 23.8511 37.8098 -0.091
    endloop
  endfacet
  facet normal -0.828507 0.559979 0
    outer loop
      vertex 23.5287 37.3608 -0.391
      vertex 23.6826 37.5885 -0.091
      vertex 23.6826 37.5885 -0.391
    endloop
  endfacet
  facet normal -0.828507 0.559979 0
    outer loop
      vertex 23.5287 37.3608 -0.391
      vertex 23.5287 37.3608 -0.091
      vertex 23.6826 37.5885 -0.091
    endloop
  endfacet
  facet normal -0.859431 0.511251 0
    outer loop
      vertex 23.3895 37.1268 -0.391
      vertex 23.5287 37.3608 -0.091
      vertex 23.5287 37.3608 -0.391
    endloop
  endfacet
  facet normal -0.859431 0.511251 0
    outer loop
      vertex 23.3895 37.1268 -0.391
      vertex 23.3895 37.1268 -0.091
      vertex 23.5287 37.3608 -0.091
    endloop
  endfacet
  facet normal -0.887833 0.460166 0
    outer loop
      vertex 23.2649 36.8864 -0.391
      vertex 23.3895 37.1268 -0.091
      vertex 23.3895 37.1268 -0.391
    endloop
  endfacet
  facet normal -0.887833 0.460166 0
    outer loop
      vertex 23.2649 36.8864 -0.391
      vertex 23.2649 36.8864 -0.091
      vertex 23.3895 37.1268 -0.091
    endloop
  endfacet
  facet normal -0.91346 0.406928 0
    outer loop
      vertex 23.155 36.6397 -0.391
      vertex 23.2649 36.8864 -0.091
      vertex 23.2649 36.8864 -0.391
    endloop
  endfacet
  facet normal -0.91346 0.406928 0
    outer loop
      vertex 23.155 36.6397 -0.391
      vertex 23.155 36.6397 -0.091
      vertex 23.2649 36.8864 -0.091
    endloop
  endfacet
  facet normal -0.935857 0.352379 0
    outer loop
      vertex 23.0597 36.3866 -0.391
      vertex 23.155 36.6397 -0.091
      vertex 23.155 36.6397 -0.391
    endloop
  endfacet
  facet normal -0.935857 0.352379 0
    outer loop
      vertex 23.0597 36.3866 -0.391
      vertex 23.0597 36.3866 -0.091
      vertex 23.155 36.6397 -0.091
    endloop
  endfacet
  facet normal -0.954963 0.296723 0
    outer loop
      vertex 22.9791 36.1272 -0.391
      vertex 23.0597 36.3866 -0.091
      vertex 23.0597 36.3866 -0.391
    endloop
  endfacet
  facet normal -0.954963 0.296723 0
    outer loop
      vertex 22.9791 36.1272 -0.391
      vertex 22.9791 36.1272 -0.091
      vertex 23.0597 36.3866 -0.091
    endloop
  endfacet
  facet normal -0.970613 0.240645 0
    outer loop
      vertex 22.9132 35.8614 -0.391
      vertex 22.9791 36.1272 -0.091
      vertex 22.9791 36.1272 -0.391
    endloop
  endfacet
  facet normal -0.970613 0.240645 0
    outer loop
      vertex 22.9132 35.8614 -0.391
      vertex 22.9132 35.8614 -0.091
      vertex 22.9791 36.1272 -0.091
    endloop
  endfacet
  facet normal -0.9827 0.185204 0
    outer loop
      vertex 22.8619 35.5892 -0.391
      vertex 22.9132 35.8614 -0.091
      vertex 22.9132 35.8614 -0.391
    endloop
  endfacet
  facet normal -0.9827 0.185204 0
    outer loop
      vertex 22.8619 35.5892 -0.391
      vertex 22.8619 35.5892 -0.091
      vertex 22.9132 35.8614 -0.091
    endloop
  endfacet
  facet normal -0.991423 0.130694 0
    outer loop
      vertex 22.8252 35.3108 -0.391
      vertex 22.8619 35.5892 -0.091
      vertex 22.8619 35.5892 -0.391
    endloop
  endfacet
  facet normal -0.991423 0.130694 0
    outer loop
      vertex 22.8252 35.3108 -0.391
      vertex 22.8252 35.3108 -0.091
      vertex 22.8619 35.5892 -0.091
    endloop
  endfacet
  facet normal -0.997059 0.076643 0
    outer loop
      vertex 22.8033 35.0259 -0.391
      vertex 22.8252 35.3108 -0.091
      vertex 22.8252 35.3108 -0.391
    endloop
  endfacet
  facet normal -0.997059 0.076643 0
    outer loop
      vertex 22.8033 35.0259 -0.391
      vertex 22.8033 35.0259 -0.091
      vertex 22.8252 35.3108 -0.091
    endloop
  endfacet
  facet normal -0.999677 0.0254126 0
    outer loop
      vertex 22.7959 34.7348 -0.391
      vertex 22.8033 35.0259 -0.091
      vertex 22.8033 35.0259 -0.391
    endloop
  endfacet
  facet normal -0.999677 0.0254126 0
    outer loop
      vertex 22.7959 34.7348 -0.391
      vertex 22.7959 34.7348 -0.091
      vertex 22.8033 35.0259 -0.091
    endloop
  endfacet
  facet normal -1 0 0
    outer loop
      vertex 22.7959 20.7326 -0.391
      vertex 22.7959 34.7348 -0.091
      vertex 22.7959 34.7348 -0.391
    endloop
  endfacet
  facet normal -1 0 0
    outer loop
      vertex 22.7959 20.7326 -0.391
      vertex 22.7959 20.7326 -0.091
      vertex 22.7959 34.7348 -0.091
    endloop
  endfacet
  facet normal -0.999677 -0.0254039 0
    outer loop
      vertex 22.8033 20.4414 -0.391
      vertex 22.7959 20.7326 -0.091
      vertex 22.7959 20.7326 -0.391
    endloop
  endfacet
  facet normal -0.999677 -0.0254039 0
    outer loop
      vertex 22.8033 20.4414 -0.391
      vertex 22.8033 20.4414 -0.091
      vertex 22.7959 20.7326 -0.091
    endloop
  endfacet
  facet normal -0.997057 -0.0766697 0
    outer loop
      vertex 22.8252 20.1566 -0.391
      vertex 22.8033 20.4414 -0.091
      vertex 22.8033 20.4414 -0.391
    endloop
  endfacet
  facet normal -0.997057 -0.0766697 0
    outer loop
      vertex 22.8252 20.1566 -0.391
      vertex 22.8252 20.1566 -0.091
      vertex 22.8033 20.4414 -0.091
    endloop
  endfacet
  facet normal -0.991429 -0.130648 0
    outer loop
      vertex 22.8619 19.8781 -0.391
      vertex 22.8252 20.1566 -0.091
      vertex 22.8252 20.1566 -0.391
    endloop
  endfacet
  facet normal -0.991429 -0.130648 0
    outer loop
      vertex 22.8619 19.8781 -0.391
      vertex 22.8619 19.8781 -0.091
      vertex 22.8252 20.1566 -0.091
    endloop
  endfacet
  facet normal -0.982688 -0.18527 0
    outer loop
      vertex 22.9132 19.606 -0.391
      vertex 22.8619 19.8781 -0.091
      vertex 22.8619 19.8781 -0.391
    endloop
  endfacet
  facet normal -0.982688 -0.18527 0
    outer loop
      vertex 22.9132 19.606 -0.391
      vertex 22.9132 19.606 -0.091
      vertex 22.8619 19.8781 -0.091
    endloop
  endfacet
  facet normal -0.970613 -0.240645 0
    outer loop
      vertex 22.9791 19.3402 -0.391
      vertex 22.9132 19.606 -0.091
      vertex 22.9132 19.606 -0.391
    endloop
  endfacet
  facet normal -0.970613 -0.240645 0
    outer loop
      vertex 22.9791 19.3402 -0.391
      vertex 22.9791 19.3402 -0.091
      vertex 22.9132 19.606 -0.091
    endloop
  endfacet
  facet normal -0.954963 -0.296723 0
    outer loop
      vertex 23.0597 19.0808 -0.391
      vertex 22.9791 19.3402 -0.091
      vertex 22.9791 19.3402 -0.391
    endloop
  endfacet
  facet normal -0.954963 -0.296723 0
    outer loop
      vertex 23.0597 19.0808 -0.391
      vertex 23.0597 19.0808 -0.091
      vertex 22.9791 19.3402 -0.091
    endloop
  endfacet
  facet normal -0.935857 -0.352379 0
    outer loop
      vertex 23.155 18.8277 -0.391
      vertex 23.0597 19.0808 -0.091
      vertex 23.0597 19.0808 -0.391
    endloop
  endfacet
  facet normal -0.935857 -0.352379 0
    outer loop
      vertex 23.155 18.8277 -0.391
      vertex 23.155 18.8277 -0.091
      vertex 23.0597 19.0808 -0.091
    endloop
  endfacet
  facet normal -0.913521 -0.406791 0
    outer loop
      vertex 23.2649 18.5809 -0.391
      vertex 23.155 18.8277 -0.091
      vertex 23.155 18.8277 -0.391
    endloop
  endfacet
  facet normal -0.913521 -0.406791 0
    outer loop
      vertex 23.2649 18.5809 -0.391
      vertex 23.2649 18.5809 -0.091
      vertex 23.155 18.8277 -0.091
    endloop
  endfacet
  facet normal -0.887755 -0.460317 0
    outer loop
      vertex 23.3895 18.3406 -0.391
      vertex 23.2649 18.5809 -0.091
      vertex 23.2649 18.5809 -0.391
    endloop
  endfacet
  facet normal -0.887755 -0.460317 0
    outer loop
      vertex 23.3895 18.3406 -0.391
      vertex 23.3895 18.3406 -0.091
      vertex 23.2649 18.5809 -0.091
    endloop
  endfacet
  facet normal -0.859431 -0.511251 0
    outer loop
      vertex 23.5287 18.1066 -0.391
      vertex 23.3895 18.3406 -0.091
      vertex 23.3895 18.3406 -0.391
    endloop
  endfacet
  facet normal -0.859431 -0.511251 0
    outer loop
      vertex 23.5287 18.1066 -0.391
      vertex 23.5287 18.1066 -0.091
      vertex 23.3895 18.3406 -0.091
    endloop
  endfacet
  facet normal -0.828507 -0.559979 0
    outer loop
      vertex 23.6826 17.8789 -0.391
      vertex 23.5287 18.1066 -0.091
      vertex 23.5287 18.1066 -0.391
    endloop
  endfacet
  facet normal -0.828507 -0.559979 0
    outer loop
      vertex 23.6826 17.8789 -0.391
      vertex 23.6826 17.8789 -0.091
      vertex 23.5287 18.1066 -0.091
    endloop
  endfacet
  facet normal -0.795753 -0.605621 0
    outer loop
      vertex 23.8511 17.6575 -0.391
      vertex 23.6826 17.8789 -0.091
      vertex 23.6826 17.8789 -0.391
    endloop
  endfacet
  facet normal -0.795753 -0.605621 0
    outer loop
      vertex 23.8511 17.6575 -0.391
      vertex 23.8511 17.6575 -0.091
      vertex 23.6826 17.8789 -0.091
    endloop
  endfacet
  facet normal -0.761004 -0.648748 0
    outer loop
      vertex 24.0343 17.4426 -0.391
      vertex 23.8511 17.6575 -0.091
      vertex 23.8511 17.6575 -0.391
    endloop
  endfacet
  facet normal -0.761004 -0.648748 0
    outer loop
      vertex 24.0343 17.4426 -0.391
      vertex 24.0343 17.4426 -0.091
      vertex 23.8511 17.6575 -0.091
    endloop
  endfacet
  facet normal -0.725195 -0.688544 0
    outer loop
      vertex 24.2278 17.2388 -0.391
      vertex 24.0343 17.4426 -0.091
      vertex 24.0343 17.4426 -0.391
    endloop
  endfacet
  facet normal -0.725195 -0.688544 0
    outer loop
      vertex 24.2278 17.2388 -0.391
      vertex 24.2278 17.2388 -0.091
      vertex 24.0343 17.4426 -0.091
    endloop
  endfacet
  facet normal -0.685205 -0.72835 0
    outer loop
      vertex 24.427 17.0514 -0.391
      vertex 24.2278 17.2388 -0.091
      vertex 24.2278 17.2388 -0.391
    endloop
  endfacet
  facet normal -0.685205 -0.72835 0
    outer loop
      vertex 24.427 17.0514 -0.391
      vertex 24.427 17.0514 -0.091
      vertex 24.2278 17.2388 -0.091
    endloop
  endfacet
  facet normal -0.641178 -0.767392 0
    outer loop
      vertex 24.6319 16.8802 -0.391
      vertex 24.427 17.0514 -0.091
      vertex 24.427 17.0514 -0.391
    endloop
  endfacet
  facet normal -0.641178 -0.767392 0
    outer loop
      vertex 24.6319 16.8802 -0.391
      vertex 24.6319 16.8802 -0.091
      vertex 24.427 17.0514 -0.091
    endloop
  endfacet
  facet normal -0.592259 -0.805748 0
    outer loop
      vertex 24.8425 16.7254 -0.391
      vertex 24.6319 16.8802 -0.091
      vertex 24.6319 16.8802 -0.391
    endloop
  endfacet
  facet normal -0.592259 -0.805748 0
    outer loop
      vertex 24.8425 16.7254 -0.391
      vertex 24.8425 16.7254 -0.091
      vertex 24.6319 16.8802 -0.091
    endloop
  endfacet
  facet normal -0.539518 -0.841974 0
    outer loop
      vertex 25.0588 16.5868 -0.391
      vertex 24.8425 16.7254 -0.091
      vertex 24.8425 16.7254 -0.391
    endloop
  endfacet
  facet normal -0.539518 -0.841974 0
    outer loop
      vertex 25.0588 16.5868 -0.391
      vertex 25.0588 16.5868 -0.091
      vertex 24.8425 16.7254 -0.091
    endloop
  endfacet
  facet normal -0.482222 -0.876049 0
    outer loop
      vertex 25.2808 16.4646 -0.391
      vertex 25.0588 16.5868 -0.091
      vertex 25.0588 16.5868 -0.391
    endloop
  endfacet
  facet normal -0.482222 -0.876049 0
    outer loop
      vertex 25.2808 16.4646 -0.391
      vertex 25.2808 16.4646 -0.091
      vertex 25.0588 16.5868 -0.091
    endloop
  endfacet
  facet normal -0.422035 -0.906579 0
    outer loop
      vertex 25.5085 16.3586 -0.391
      vertex 25.2808 16.4646 -0.091
      vertex 25.2808 16.4646 -0.391
    endloop
  endfacet
  facet normal -0.422035 -0.906579 0
    outer loop
      vertex 25.5085 16.3586 -0.391
      vertex 25.5085 16.3586 -0.091
      vertex 25.2808 16.4646 -0.091
    endloop
  endfacet
  facet normal -0.358389 -0.933572 0
    outer loop
      vertex 25.7419 16.269 -0.391
      vertex 25.5085 16.3586 -0.091
      vertex 25.5085 16.3586 -0.391
    endloop
  endfacet
  facet normal -0.358389 -0.933572 0
    outer loop
      vertex 25.7419 16.269 -0.391
      vertex 25.7419 16.269 -0.091
      vertex 25.5085 16.3586 -0.091
    endloop
  endfacet
  facet normal -0.293356 -0.956003 0
    outer loop
      vertex 25.9811 16.1956 -0.391
      vertex 25.7419 16.269 -0.091
      vertex 25.7419 16.269 -0.391
    endloop
  endfacet
  facet normal -0.293356 -0.956003 0
    outer loop
      vertex 25.9811 16.1956 -0.391
      vertex 25.9811 16.1956 -0.091
      vertex 25.7419 16.269 -0.091
    endloop
  endfacet
  facet normal -0.227154 -0.973859 0
    outer loop
      vertex 26.2259 16.1385 -0.391
      vertex 25.9811 16.1956 -0.091
      vertex 25.9811 16.1956 -0.391
    endloop
  endfacet
  facet normal -0.227154 -0.973859 0
    outer loop
      vertex 26.2259 16.1385 -0.391
      vertex 26.2259 16.1385 -0.091
      vertex 25.9811 16.1956 -0.091
    endloop
  endfacet
  facet normal -0.16031 -0.987067 0
    outer loop
      vertex 26.4765 16.0978 -0.391
      vertex 26.2259 16.1385 -0.091
      vertex 26.2259 16.1385 -0.391
    endloop
  endfacet
  facet normal -0.16031 -0.987067 0
    outer loop
      vertex 26.4765 16.0978 -0.391
      vertex 26.4765 16.0978 -0.091
      vertex 26.2259 16.1385 -0.091
    endloop
  endfacet
  facet normal -0.0951573 -0.995462 0
    outer loop
      vertex 26.7328 16.0733 -0.391
      vertex 26.4765 16.0978 -0.091
      vertex 26.4765 16.0978 -0.391
    endloop
  endfacet
  facet normal -0.0951573 -0.995462 0
    outer loop
      vertex 26.7328 16.0733 -0.391
      vertex 26.7328 16.0733 -0.091
      vertex 26.4765 16.0978 -0.091
    endloop
  endfacet
  facet normal -0.0309131 -0.999522 0
    outer loop
      vertex 26.9947 16.0652 -0.391
      vertex 26.7328 16.0733 -0.091
      vertex 26.7328 16.0733 -0.391
    endloop
  endfacet
  facet normal -0.0309131 -0.999522 0
    outer loop
      vertex 26.9947 16.0652 -0.391
      vertex 26.9947 16.0652 -0.091
      vertex 26.7328 16.0733 -0.091
    endloop
  endfacet
  facet normal 0.0308895 -0.999523 0
    outer loop
      vertex 27.2568 16.0733 -0.391
      vertex 26.9947 16.0652 -0.091
      vertex 26.9947 16.0652 -0.391
    endloop
  endfacet
  facet normal 0.0308895 -0.999523 0
    outer loop
      vertex 27.2568 16.0733 -0.391
      vertex 27.2568 16.0733 -0.091
      vertex 26.9947 16.0652 -0.091
    endloop
  endfacet
endsolid OpenSCAD_Model
