solid OpenSCAD_Model
  facet normal -0 0 -1
    outer loop
      vertex 47.9677 14.624 0.091
      vertex 39.5841 14.0348 0.091
      vertex 39.5349 14.6802 0.091
    endloop
  endfacet
  facet normal 0 0 -1
    outer loop
      vertex 47.9679 12.125 0.091
      vertex 47.8754 10.9043 0.091
      vertex 39.5349 12.0687 0.091
    endloop
  endfacet
  facet normal -0 0 -1
    outer loop
      vertex 47.9987 13.3745 0.091
      vertex 39.5841 12.7141 0.091
      vertex 39.6005 13.3745 0.091
    endloop
  endfacet
  facet normal -0 0 -1
    outer loop
      vertex 47.8749 15.8452 0.091
      vertex 39.4528 15.3107 0.091
      vertex 47.7202 17.0378 0.091
    endloop
  endfacet
  facet normal 0 0 -1
    outer loop
      vertex 39.338 10.8226 0.091
      vertex 39.4528 11.4382 0.091
      vertex 47.7214 9.71231 0.091
    endloop
  endfacet
  facet normal -0 0 -1
    outer loop
      vertex 47.5057 8.54904 0.091
      vertex 47.2284 7.41451 0.091
      vertex 39.1903 10.2219 0.091
    endloop
  endfacet
  facet normal 0 0 -1
    outer loop
      vertex 39.1903 16.5269 0.091
      vertex 47.2251 19.3379 0.091
      vertex 47.5036 18.2021 0.091
    endloop
  endfacet
  facet normal 0 0 -1
    outer loop
      vertex 38.7965 9.06522 0.091
      vertex 39.0098 9.63609 0.091
      vertex 46.8895 6.30869 0.091
    endloop
  endfacet
  facet normal -0 0 -1
    outer loop
      vertex 46.489 5.2316 0.091
      vertex 46.0269 4.18323 0.091
      vertex 38.5504 8.50925 0.091
    endloop
  endfacet
  facet normal 0 0 -1
    outer loop
      vertex 35.4875 22.0531 0.091
      vertex 35.014 22.3995 0.091
      vertex 41.1086 29.0504 0.091
    endloop
  endfacet
  facet normal -0 0 -1
    outer loop
      vertex 32.3704 33.0733 0.091
      vertex 30.7422 23.8578 0.091
      vertex 31.2716 33.1765 0.091
    endloop
  endfacet
  facet normal 0 -0 -1
    outer loop
      vertex 37.4809 31.5261 0.091
      vertex 38.4262 31.0103 0.091
      vertex 34.0266 22.9828 0.091
    endloop
  endfacet
  facet normal 0 -0 -1
    outer loop
      vertex 36.5099 31.9731 0.091
      vertex 37.4809 31.5261 0.091
      vertex 33.5127 23.2198 0.091
    endloop
  endfacet
  facet normal 0 0 -1
    outer loop
      vertex 33.5127 23.2198 0.091
      vertex 37.4809 31.5261 0.091
      vertex 34.0266 22.9828 0.091
    endloop
  endfacet
  facet normal 0 0 -1
    outer loop
      vertex 33.5127 23.2198 0.091
      vertex 32.9855 23.4203 0.091
      vertex 36.5099 31.9731 0.091
    endloop
  endfacet
  facet normal 0 0 -1
    outer loop
      vertex 32.9855 23.4203 0.091
      vertex 32.4448 23.5844 0.091
      vertex 35.5134 32.3513 0.091
    endloop
  endfacet
  facet normal -0 0 -1
    outer loop
      vertex 36.5099 31.9731 0.091
      vertex 32.9855 23.4203 0.091
      vertex 35.5134 32.3513 0.091
    endloop
  endfacet
  facet normal 0 -0 -1
    outer loop
      vertex 34.4914 32.6607 0.091
      vertex 35.5134 32.3513 0.091
      vertex 32.4448 23.5844 0.091
    endloop
  endfacet
  facet normal 0 0 -1
    outer loop
      vertex 30.1478 23.8761 0.091
      vertex 31.2716 33.1765 0.091
      vertex 30.7422 23.8578 0.091
    endloop
  endfacet
  facet normal 0 0 -1
    outer loop
      vertex 31.8907 23.712 0.091
      vertex 33.4437 32.9014 0.091
      vertex 34.4914 32.6607 0.091
    endloop
  endfacet
  facet normal 0 0 -1
    outer loop
      vertex 31.8907 23.712 0.091
      vertex 31.3231 23.8032 0.091
      vertex 33.4437 32.9014 0.091
    endloop
  endfacet
  facet normal -0 0 -1
    outer loop
      vertex 33.4437 32.9014 0.091
      vertex 31.3231 23.8032 0.091
      vertex 32.3704 33.0733 0.091
    endloop
  endfacet
  facet normal 0 0 -1
    outer loop
      vertex 32.3704 33.0733 0.091
      vertex 31.3231 23.8032 0.091
      vertex 30.7422 23.8578 0.091
    endloop
  endfacet
  facet normal 0 0 -1
    outer loop
      vertex 31.8907 23.712 0.091
      vertex 34.4914 32.6607 0.091
      vertex 32.4448 23.5844 0.091
    endloop
  endfacet
  facet normal 0 0 -1
    outer loop
      vertex 30.1472 33.2109 0.091
      vertex 31.2716 33.1765 0.091
      vertex 30.1478 23.8761 0.091
    endloop
  endfacet
  facet normal 0 -0 -1
    outer loop
      vertex 38.4262 31.0103 0.091
      vertex 39.3459 30.4258 0.091
      vertex 34.0266 22.9828 0.091
    endloop
  endfacet
  facet normal 0 0 -1
    outer loop
      vertex 34.0266 22.9828 0.091
      vertex 39.3459 30.4258 0.091
      vertex 34.527 22.7094 0.091
    endloop
  endfacet
  facet normal 0 0 -1
    outer loop
      vertex 35.014 22.3995 0.091
      vertex 34.527 22.7094 0.091
      vertex 40.24 29.7725 0.091
    endloop
  endfacet
  facet normal -0 0 -1
    outer loop
      vertex 41.9516 28.2596 0.091
      vertex 35.4875 22.0531 0.091
      vertex 41.1086 29.0504 0.091
    endloop
  endfacet
  facet normal 0 0 -1
    outer loop
      vertex 36.8277 20.7952 0.091
      vertex 36.3944 21.251 0.091
      vertex 43.5426 26.4918 0.091
    endloop
  endfacet
  facet normal 0 0 -1
    outer loop
      vertex 37.2379 20.3139 0.091
      vertex 36.8277 20.7952 0.091
      vertex 43.5426 26.4918 0.091
    endloop
  endfacet
  facet normal 0 0 -1
    outer loop
      vertex 38.2715 18.7804 0.091
      vertex 45.4921 23.5965 0.091
      vertex 46.0182 22.5745 0.091
    endloop
  endfacet
  facet normal 0 0 -1
    outer loop
      vertex 38.5504 18.2394 0.091
      vertex 38.2715 18.7804 0.091
      vertex 46.0182 22.5745 0.091
    endloop
  endfacet
  facet normal 0 0 -1
    outer loop
      vertex 6.72842 31.1702 0.091
      vertex 6.88239 31.3979 0.091
      vertex 10.1959 33.2109 0.091
    endloop
  endfacet
  facet normal 0 0 -1
    outer loop
      vertex 8.70883 32.9176 0.091
      vertex 8.94237 33.0072 0.091
      vertex 9.18164 33.0805 0.091
    endloop
  endfacet
  facet normal 0 0 -1
    outer loop
      vertex 8.48102 32.8117 0.091
      vertex 8.70883 32.9176 0.091
      vertex 9.18164 33.0805 0.091
    endloop
  endfacet
  facet normal 0 0 -1
    outer loop
      vertex 9.42662 33.1376 0.091
      vertex 8.48102 32.8117 0.091
      vertex 9.18164 33.0805 0.091
    endloop
  endfacet
  facet normal 0 0 -1
    outer loop
      vertex 9.42662 33.1376 0.091
      vertex 8.25891 32.6895 0.091
      vertex 8.48102 32.8117 0.091
    endloop
  endfacet
  facet normal 0 -0 -1
    outer loop
      vertex 9.42662 33.1376 0.091
      vertex 9.67732 33.1783 0.091
      vertex 8.25891 32.6895 0.091
    endloop
  endfacet
  facet normal 0 -0 -1
    outer loop
      vertex 8.25891 32.6895 0.091
      vertex 9.67732 33.1783 0.091
      vertex 8.04254 32.551 0.091
    endloop
  endfacet
  facet normal 0 0 -1
    outer loop
      vertex 8.04254 32.551 0.091
      vertex 9.67732 33.1783 0.091
      vertex 9.93376 33.2027 0.091
    endloop
  endfacet
  facet normal 0 0 -1
    outer loop
      vertex 7.83189 32.3963 0.091
      vertex 8.04254 32.551 0.091
      vertex 9.93376 33.2027 0.091
    endloop
  endfacet
  facet normal 0 0 -1
    outer loop
      vertex 10.1959 33.2109 0.091
      vertex 7.83189 32.3963 0.091
      vertex 9.93376 33.2027 0.091
    endloop
  endfacet
  facet normal 0 0 -1
    outer loop
      vertex 10.1959 33.2109 0.091
      vertex 7.62697 32.2252 0.091
      vertex 7.83189 32.3963 0.091
    endloop
  endfacet
  facet normal 0 0 -1
    outer loop
      vertex 10.1959 33.2109 0.091
      vertex 7.42776 32.0378 0.091
      vertex 7.62697 32.2252 0.091
    endloop
  endfacet
  facet normal 0 0 -1
    outer loop
      vertex 10.1959 33.2109 0.091
      vertex 7.23428 31.8342 0.091
      vertex 7.42776 32.0378 0.091
    endloop
  endfacet
  facet normal 0 0 -1
    outer loop
      vertex 10.1959 33.2109 0.091
      vertex 7.05101 31.6192 0.091
      vertex 7.23428 31.8342 0.091
    endloop
  endfacet
  facet normal 0 0 -1
    outer loop
      vertex 10.1959 33.2109 0.091
      vertex 6.88239 31.3979 0.091
      vertex 7.05101 31.6192 0.091
    endloop
  endfacet
  facet normal 0 0 -1
    outer loop
      vertex 6.58911 30.9361 0.091
      vertex 6.72842 31.1702 0.091
      vertex 10.1959 33.2109 0.091
    endloop
  endfacet
  facet normal 0 0 -1
    outer loop
      vertex 6.46449 30.6957 0.091
      vertex 6.58911 30.9361 0.091
      vertex 10.1959 33.2109 0.091
    endloop
  endfacet
  facet normal 0 0 -1
    outer loop
      vertex 6.35451 30.4489 0.091
      vertex 6.46449 30.6957 0.091
      vertex 10.1959 33.2109 0.091
    endloop
  endfacet
  facet normal 0 0 -1
    outer loop
      vertex 6.25919 30.1958 0.091
      vertex 6.35451 30.4489 0.091
      vertex 10.1959 33.2109 0.091
    endloop
  endfacet
  facet normal 0 0 -1
    outer loop
      vertex 6.17856 29.9363 0.091
      vertex 6.25919 30.1958 0.091
      vertex 10.1959 33.2109 0.091
    endloop
  endfacet
  facet normal 0 0 -1
    outer loop
      vertex 6.11256 29.6705 0.091
      vertex 6.17856 29.9363 0.091
      vertex 10.1959 33.2109 0.091
    endloop
  endfacet
  facet normal 0 0 -1
    outer loop
      vertex 6.06125 29.3983 0.091
      vertex 6.11256 29.6705 0.091
      vertex 10.1959 33.2109 0.091
    endloop
  endfacet
  facet normal 0 0 -1
    outer loop
      vertex 6.0246 29.1197 0.091
      vertex 6.06125 29.3983 0.091
      vertex 10.1959 33.2109 0.091
    endloop
  endfacet
  facet normal 0 0 -1
    outer loop
      vertex 6.00259 28.8348 0.091
      vertex 6.0246 29.1197 0.091
      vertex 10.1959 33.2109 0.091
    endloop
  endfacet
  facet normal 0 0 -1
    outer loop
      vertex 5.99525 28.5435 0.091
      vertex 6.00259 28.8348 0.091
      vertex 10.1959 33.2109 0.091
    endloop
  endfacet
  facet normal 0 0 -1
    outer loop
      vertex 14.3935 23.8761 0.091
      vertex 5.99525 28.5435 0.091
      vertex 10.1959 33.2109 0.091
    endloop
  endfacet
  facet normal -0 0 -1
    outer loop
      vertex 30.1478 2.87282 0.091
      vertex 5.99525 -0.699997 0.091
      vertex 14.3935 2.87282 0.091
    endloop
  endfacet
  facet normal 0 0 -1
    outer loop
      vertex 38.2715 7.96819 0.091
      vertex 46.0269 4.18323 0.091
      vertex 45.5031 3.16359 0.091
    endloop
  endfacet
  facet normal 0 -0 -1
    outer loop
      vertex 30.1478 2.87282 0.091
      vertex 42.7264 -0.699997 0.091
      vertex 5.99525 -0.699997 0.091
    endloop
  endfacet
  facet normal -0 0 -1
    outer loop
      vertex 14.3935 2.87282 0.091
      vertex 5.99525 -0.699997 0.091
      vertex 14.3935 23.8761 0.091
    endloop
  endfacet
  facet normal -0 0 -1
    outer loop
      vertex 30.1472 33.2109 0.091
      vertex 14.3935 23.8761 0.091
      vertex 10.1959 33.2109 0.091
    endloop
  endfacet
  facet normal -0 0 -1
    outer loop
      vertex 14.3935 23.8761 0.091
      vertex 5.99525 -0.699997 0.091
      vertex 5.99525 28.5435 0.091
    endloop
  endfacet
  facet normal 0 -0 -1
    outer loop
      vertex 30.1472 33.2109 0.091
      vertex 30.1478 23.8761 0.091
      vertex 14.3935 23.8761 0.091
    endloop
  endfacet
  facet normal 0 0 -1
    outer loop
      vertex 39.4528 15.3107 0.091
      vertex 39.338 15.9263 0.091
      vertex 47.7202 17.0378 0.091
    endloop
  endfacet
  facet normal 0 0 -1
    outer loop
      vertex 34.527 22.7094 0.091
      vertex 39.3459 30.4258 0.091
      vertex 40.24 29.7725 0.091
    endloop
  endfacet
  facet normal 0 0 -1
    outer loop
      vertex 35.014 22.3995 0.091
      vertex 40.24 29.7725 0.091
      vertex 41.1086 29.0504 0.091
    endloop
  endfacet
  facet normal 0 0 -1
    outer loop
      vertex 41.9516 28.2596 0.091
      vertex 35.9477 21.6703 0.091
      vertex 35.4875 22.0531 0.091
    endloop
  endfacet
  facet normal 0 0 -1
    outer loop
      vertex 35.9477 21.6703 0.091
      vertex 42.7689 27.4 0.091
      vertex 36.3944 21.251 0.091
    endloop
  endfacet
  facet normal 0 -0 -1
    outer loop
      vertex 41.9516 28.2596 0.091
      vertex 42.7689 27.4 0.091
      vertex 35.9477 21.6703 0.091
    endloop
  endfacet
  facet normal 0 0 -1
    outer loop
      vertex 36.3944 21.251 0.091
      vertex 42.7689 27.4 0.091
      vertex 43.5426 26.4918 0.091
    endloop
  endfacet
  facet normal -0 0 -1
    outer loop
      vertex 44.2543 25.5552 0.091
      vertex 37.2379 20.3139 0.091
      vertex 43.5426 26.4918 0.091
    endloop
  endfacet
  facet normal 0 -0 -1
    outer loop
      vertex 44.2543 25.5552 0.091
      vertex 44.9041 24.5901 0.091
      vertex 37.6152 19.8176 0.091
    endloop
  endfacet
  facet normal 0 0 -1
    outer loop
      vertex 44.2543 25.5552 0.091
      vertex 37.6152 19.8176 0.091
      vertex 37.2379 20.3139 0.091
    endloop
  endfacet
  facet normal 0 -0 -1
    outer loop
      vertex 44.9041 24.5901 0.091
      vertex 45.4921 23.5965 0.091
      vertex 37.9598 19.3065 0.091
    endloop
  endfacet
  facet normal 0 0 -1
    outer loop
      vertex 44.9041 24.5901 0.091
      vertex 37.9598 19.3065 0.091
      vertex 37.6152 19.8176 0.091
    endloop
  endfacet
  facet normal 0 0 -1
    outer loop
      vertex 37.9598 19.3065 0.091
      vertex 45.4921 23.5965 0.091
      vertex 38.2715 18.7804 0.091
    endloop
  endfacet
  facet normal -0 0 -1
    outer loop
      vertex 46.4824 21.5241 0.091
      vertex 38.5504 18.2394 0.091
      vertex 46.0182 22.5745 0.091
    endloop
  endfacet
  facet normal 0 -0 -1
    outer loop
      vertex 46.4824 21.5241 0.091
      vertex 46.8847 20.4452 0.091
      vertex 38.7965 17.6835 0.091
    endloop
  endfacet
  facet normal 0 0 -1
    outer loop
      vertex 46.4824 21.5241 0.091
      vertex 38.7965 17.6835 0.091
      vertex 38.5504 18.2394 0.091
    endloop
  endfacet
  facet normal 0 -0 -1
    outer loop
      vertex 46.8847 20.4452 0.091
      vertex 47.2251 19.3379 0.091
      vertex 39.0098 17.1127 0.091
    endloop
  endfacet
  facet normal 0 0 -1
    outer loop
      vertex 46.8847 20.4452 0.091
      vertex 39.0098 17.1127 0.091
      vertex 38.7965 17.6835 0.091
    endloop
  endfacet
  facet normal 0 0 -1
    outer loop
      vertex 39.0098 17.1127 0.091
      vertex 47.2251 19.3379 0.091
      vertex 39.1903 16.5269 0.091
    endloop
  endfacet
  facet normal 0 -0 -1
    outer loop
      vertex 47.5036 18.2021 0.091
      vertex 47.7202 17.0378 0.091
      vertex 39.338 15.9263 0.091
    endloop
  endfacet
  facet normal 0 0 -1
    outer loop
      vertex 47.5036 18.2021 0.091
      vertex 39.338 15.9263 0.091
      vertex 39.1903 16.5269 0.091
    endloop
  endfacet
  facet normal 0 0 -1
    outer loop
      vertex 39.5349 14.6802 0.091
      vertex 39.4528 15.3107 0.091
      vertex 47.8749 15.8452 0.091
    endloop
  endfacet
  facet normal 0 0 -1
    outer loop
      vertex 47.9677 14.624 0.091
      vertex 39.5349 14.6802 0.091
      vertex 47.8749 15.8452 0.091
    endloop
  endfacet
  facet normal 0 0 -1
    outer loop
      vertex 47.9987 13.3745 0.091
      vertex 39.5841 14.0348 0.091
      vertex 47.9677 14.624 0.091
    endloop
  endfacet
  facet normal 0 0 -1
    outer loop
      vertex 47.9987 13.3745 0.091
      vertex 39.6005 13.3745 0.091
      vertex 39.5841 14.0348 0.091
    endloop
  endfacet
  facet normal 0 0 -1
    outer loop
      vertex 47.9679 12.125 0.091
      vertex 39.5841 12.7141 0.091
      vertex 47.9987 13.3745 0.091
    endloop
  endfacet
  facet normal -0 0 -1
    outer loop
      vertex 47.9679 12.125 0.091
      vertex 39.5349 12.0687 0.091
      vertex 39.5841 12.7141 0.091
    endloop
  endfacet
  facet normal 0 0 -1
    outer loop
      vertex 47.8754 10.9043 0.091
      vertex 39.4528 11.4382 0.091
      vertex 39.5349 12.0687 0.091
    endloop
  endfacet
  facet normal -0 0 -1
    outer loop
      vertex 47.8754 10.9043 0.091
      vertex 47.7214 9.71231 0.091
      vertex 39.4528 11.4382 0.091
    endloop
  endfacet
  facet normal -0 0 -1
    outer loop
      vertex 47.7214 9.71231 0.091
      vertex 47.5057 8.54904 0.091
      vertex 39.338 10.8226 0.091
    endloop
  endfacet
  facet normal 0 -0 -1
    outer loop
      vertex 39.338 10.8226 0.091
      vertex 47.5057 8.54904 0.091
      vertex 39.1903 10.2219 0.091
    endloop
  endfacet
  facet normal 0 -0 -1
    outer loop
      vertex 39.1903 10.2219 0.091
      vertex 47.2284 7.41451 0.091
      vertex 39.0098 9.63609 0.091
    endloop
  endfacet
  facet normal 0 0 -1
    outer loop
      vertex 39.0098 9.63609 0.091
      vertex 47.2284 7.41451 0.091
      vertex 46.8895 6.30869 0.091
    endloop
  endfacet
  facet normal 0 0 -1
    outer loop
      vertex 38.7965 9.06522 0.091
      vertex 46.8895 6.30869 0.091
      vertex 46.489 5.2316 0.091
    endloop
  endfacet
  facet normal 0 0 -1
    outer loop
      vertex 38.5504 8.50925 0.091
      vertex 38.7965 9.06522 0.091
      vertex 46.489 5.2316 0.091
    endloop
  endfacet
  facet normal 0 0 -1
    outer loop
      vertex 38.2715 7.96819 0.091
      vertex 38.5504 8.50925 0.091
      vertex 46.0269 4.18323 0.091
    endloop
  endfacet
  facet normal 0 0 -1
    outer loop
      vertex 37.9598 7.44202 0.091
      vertex 38.2715 7.96819 0.091
      vertex 45.5031 3.16359 0.091
    endloop
  endfacet
  facet normal 0 0 -1
    outer loop
      vertex 44.9177 2.17267 0.091
      vertex 37.9598 7.44202 0.091
      vertex 45.5031 3.16359 0.091
    endloop
  endfacet
  facet normal 0 0 -1
    outer loop
      vertex 44.9177 2.17267 0.091
      vertex 37.6152 6.93077 0.091
      vertex 37.9598 7.44202 0.091
    endloop
  endfacet
  facet normal -0 0 -1
    outer loop
      vertex 44.9177 2.17267 0.091
      vertex 44.2707 1.21048 0.091
      vertex 37.6152 6.93077 0.091
    endloop
  endfacet
  facet normal 0 -0 -1
    outer loop
      vertex 37.6152 6.93077 0.091
      vertex 44.2707 1.21048 0.091
      vertex 37.2379 6.43443 0.091
    endloop
  endfacet
  facet normal 0 0 -1
    outer loop
      vertex 37.2379 6.43443 0.091
      vertex 44.2707 1.21048 0.091
      vertex 43.5621 0.277023 0.091
    endloop
  endfacet
  facet normal 0 0 -1
    outer loop
      vertex 36.8277 5.953 0.091
      vertex 37.2379 6.43443 0.091
      vertex 43.5621 0.277023 0.091
    endloop
  endfacet
  facet normal 0 0 -1
    outer loop
      vertex 42.7918 -0.627701 0.091
      vertex 36.8277 5.953 0.091
      vertex 43.5621 0.277023 0.091
    endloop
  endfacet
  facet normal 0 0 -1
    outer loop
      vertex 42.7918 -0.627701 0.091
      vertex 36.3944 5.49734 0.091
      vertex 36.8277 5.953 0.091
    endloop
  endfacet
  facet normal -0 0 -1
    outer loop
      vertex 42.7918 -0.627701 0.091
      vertex 42.7264 -0.699997 0.091
      vertex 36.3944 5.49734 0.091
    endloop
  endfacet
  facet normal 0 -0 -1
    outer loop
      vertex 36.3944 5.49734 0.091
      vertex 42.7264 -0.699997 0.091
      vertex 35.9477 5.07816 0.091
    endloop
  endfacet
  facet normal 0 -0 -1
    outer loop
      vertex 35.9477 5.07816 0.091
      vertex 42.7264 -0.699997 0.091
      vertex 35.4875 4.6954 0.091
    endloop
  endfacet
  facet normal 0 -0 -1
    outer loop
      vertex 35.4875 4.6954 0.091
      vertex 42.7264 -0.699997 0.091
      vertex 35.014 4.34912 0.091
    endloop
  endfacet
  facet normal 0 -0 -1
    outer loop
      vertex 35.014 4.34912 0.091
      vertex 42.7264 -0.699997 0.091
      vertex 34.527 4.03928 0.091
    endloop
  endfacet
  facet normal 0 -0 -1
    outer loop
      vertex 34.527 4.03928 0.091
      vertex 42.7264 -0.699997 0.091
      vertex 34.0266 3.76588 0.091
    endloop
  endfacet
  facet normal 0 -0 -1
    outer loop
      vertex 34.0266 3.76588 0.091
      vertex 42.7264 -0.699997 0.091
      vertex 33.5127 3.52895 0.091
    endloop
  endfacet
  facet normal 0 -0 -1
    outer loop
      vertex 33.5127 3.52895 0.091
      vertex 42.7264 -0.699997 0.091
      vertex 32.9855 3.32848 0.091
    endloop
  endfacet
  facet normal 0 -0 -1
    outer loop
      vertex 32.9855 3.32848 0.091
      vertex 42.7264 -0.699997 0.091
      vertex 32.4448 3.16443 0.091
    endloop
  endfacet
  facet normal 0 -0 -1
    outer loop
      vertex 32.4448 3.16443 0.091
      vertex 42.7264 -0.699997 0.091
      vertex 31.8907 3.03685 0.091
    endloop
  endfacet
  facet normal 0 -0 -1
    outer loop
      vertex 31.8907 3.03685 0.091
      vertex 42.7264 -0.699997 0.091
      vertex 31.3231 2.94572 0.091
    endloop
  endfacet
  facet normal 0 -0 -1
    outer loop
      vertex 31.3231 2.94572 0.091
      vertex 42.7264 -0.699997 0.091
      vertex 30.7422 2.89105 0.091
    endloop
  endfacet
  facet normal 0 -0 -1
    outer loop
      vertex 30.7422 2.89105 0.091
      vertex 42.7264 -0.699997 0.091
      vertex 30.1478 2.87282 0.091
    endloop
  endfacet
  facet normal 0 0 1
    outer loop
      vertex 39.5349 14.6802 0.391
      vertex 39.5841 14.0348 0.391
      vertex 47.9677 14.624 0.391
    endloop
  endfacet
  facet normal -0 0 1
    outer loop
      vertex 39.5349 12.0687 0.391
      vertex 47.8754 10.9043 0.391
      vertex 47.9679 12.125 0.391
    endloop
  endfacet
  facet normal -0 0 1
    outer loop
      vertex 39.6005 13.3745 0.391
      vertex 39.5841 12.7141 0.391
      vertex 47.9987 13.3745 0.391
    endloop
  endfacet
  facet normal 0 0 1
    outer loop
      vertex 47.7202 17.0378 0.391
      vertex 39.4528 15.3107 0.391
      vertex 47.8749 15.8452 0.391
    endloop
  endfacet
  facet normal 0 0 1
    outer loop
      vertex 47.7214 9.71231 0.391
      vertex 39.4528 11.4382 0.391
      vertex 39.338 10.8226 0.391
    endloop
  endfacet
  facet normal 0 0 1
    outer loop
      vertex 39.1903 10.2219 0.391
      vertex 47.2284 7.41451 0.391
      vertex 47.5057 8.54904 0.391
    endloop
  endfacet
  facet normal 0 0 1
    outer loop
      vertex 47.5036 18.2021 0.391
      vertex 47.2251 19.3379 0.391
      vertex 39.1903 16.5269 0.391
    endloop
  endfacet
  facet normal 0 0 1
    outer loop
      vertex 46.8895 6.30869 0.391
      vertex 39.0098 9.63609 0.391
      vertex 38.7965 9.06522 0.391
    endloop
  endfacet
  facet normal 0 0 1
    outer loop
      vertex 38.5504 8.50925 0.391
      vertex 46.0269 4.18323 0.391
      vertex 46.489 5.2316 0.391
    endloop
  endfacet
  facet normal 0 0 1
    outer loop
      vertex 41.1086 29.0504 0.391
      vertex 35.014 22.3995 0.391
      vertex 35.4875 22.0531 0.391
    endloop
  endfacet
  facet normal 0 0 1
    outer loop
      vertex 31.2716 33.1765 0.391
      vertex 30.7422 23.8578 0.391
      vertex 32.3704 33.0733 0.391
    endloop
  endfacet
  facet normal 0 0 1
    outer loop
      vertex 34.0266 22.9828 0.391
      vertex 38.4262 31.0103 0.391
      vertex 37.4809 31.5261 0.391
    endloop
  endfacet
  facet normal 0 0 1
    outer loop
      vertex 33.5127 23.2198 0.391
      vertex 37.4809 31.5261 0.391
      vertex 36.5099 31.9731 0.391
    endloop
  endfacet
  facet normal 0 -0 1
    outer loop
      vertex 34.0266 22.9828 0.391
      vertex 37.4809 31.5261 0.391
      vertex 33.5127 23.2198 0.391
    endloop
  endfacet
  facet normal 0 0 1
    outer loop
      vertex 36.5099 31.9731 0.391
      vertex 32.9855 23.4203 0.391
      vertex 33.5127 23.2198 0.391
    endloop
  endfacet
  facet normal 0 0 1
    outer loop
      vertex 35.5134 32.3513 0.391
      vertex 32.4448 23.5844 0.391
      vertex 32.9855 23.4203 0.391
    endloop
  endfacet
  facet normal 0 0 1
    outer loop
      vertex 35.5134 32.3513 0.391
      vertex 32.9855 23.4203 0.391
      vertex 36.5099 31.9731 0.391
    endloop
  endfacet
  facet normal 0 0 1
    outer loop
      vertex 32.4448 23.5844 0.391
      vertex 35.5134 32.3513 0.391
      vertex 34.4914 32.6607 0.391
    endloop
  endfacet
  facet normal 0 -0 1
    outer loop
      vertex 30.7422 23.8578 0.391
      vertex 31.2716 33.1765 0.391
      vertex 30.1478 23.8761 0.391
    endloop
  endfacet
  facet normal 0 0 1
    outer loop
      vertex 34.4914 32.6607 0.391
      vertex 33.4437 32.9014 0.391
      vertex 31.8907 23.712 0.391
    endloop
  endfacet
  facet normal 0 0 1
    outer loop
      vertex 33.4437 32.9014 0.391
      vertex 31.3231 23.8032 0.391
      vertex 31.8907 23.712 0.391
    endloop
  endfacet
  facet normal 0 0 1
    outer loop
      vertex 32.3704 33.0733 0.391
      vertex 31.3231 23.8032 0.391
      vertex 33.4437 32.9014 0.391
    endloop
  endfacet
  facet normal -0 0 1
    outer loop
      vertex 30.7422 23.8578 0.391
      vertex 31.3231 23.8032 0.391
      vertex 32.3704 33.0733 0.391
    endloop
  endfacet
  facet normal 0 -0 1
    outer loop
      vertex 32.4448 23.5844 0.391
      vertex 34.4914 32.6607 0.391
      vertex 31.8907 23.712 0.391
    endloop
  endfacet
  facet normal 0 -0 1
    outer loop
      vertex 30.1478 23.8761 0.391
      vertex 31.2716 33.1765 0.391
      vertex 30.1472 33.2109 0.391
    endloop
  endfacet
  facet normal 0 0 1
    outer loop
      vertex 34.0266 22.9828 0.391
      vertex 39.3459 30.4258 0.391
      vertex 38.4262 31.0103 0.391
    endloop
  endfacet
  facet normal 0 -0 1
    outer loop
      vertex 34.527 22.7094 0.391
      vertex 39.3459 30.4258 0.391
      vertex 34.0266 22.9828 0.391
    endloop
  endfacet
  facet normal 0 0 1
    outer loop
      vertex 40.24 29.7725 0.391
      vertex 34.527 22.7094 0.391
      vertex 35.014 22.3995 0.391
    endloop
  endfacet
  facet normal 0 0 1
    outer loop
      vertex 41.1086 29.0504 0.391
      vertex 35.4875 22.0531 0.391
      vertex 41.9516 28.2596 0.391
    endloop
  endfacet
  facet normal 0 0 1
    outer loop
      vertex 43.5426 26.4918 0.391
      vertex 36.3944 21.251 0.391
      vertex 36.8277 20.7952 0.391
    endloop
  endfacet
  facet normal 0 0 1
    outer loop
      vertex 43.5426 26.4918 0.391
      vertex 36.8277 20.7952 0.391
      vertex 37.2379 20.3139 0.391
    endloop
  endfacet
  facet normal 0 0 1
    outer loop
      vertex 46.0182 22.5745 0.391
      vertex 45.4921 23.5965 0.391
      vertex 38.2715 18.7804 0.391
    endloop
  endfacet
  facet normal 0 0 1
    outer loop
      vertex 46.0182 22.5745 0.391
      vertex 38.2715 18.7804 0.391
      vertex 38.5504 18.2394 0.391
    endloop
  endfacet
  facet normal 0 0 1
    outer loop
      vertex 10.1959 33.2109 0.391
      vertex 6.88239 31.3979 0.391
      vertex 6.72842 31.1702 0.391
    endloop
  endfacet
  facet normal 0 0 1
    outer loop
      vertex 9.18164 33.0805 0.391
      vertex 8.94237 33.0072 0.391
      vertex 8.70883 32.9176 0.391
    endloop
  endfacet
  facet normal 0 0 1
    outer loop
      vertex 9.18164 33.0805 0.391
      vertex 8.70883 32.9176 0.391
      vertex 8.48102 32.8117 0.391
    endloop
  endfacet
  facet normal -0 0 1
    outer loop
      vertex 9.18164 33.0805 0.391
      vertex 8.48102 32.8117 0.391
      vertex 9.42662 33.1376 0.391
    endloop
  endfacet
  facet normal -0 0 1
    outer loop
      vertex 8.48102 32.8117 0.391
      vertex 8.25891 32.6895 0.391
      vertex 9.42662 33.1376 0.391
    endloop
  endfacet
  facet normal 0 0 1
    outer loop
      vertex 8.25891 32.6895 0.391
      vertex 9.67732 33.1783 0.391
      vertex 9.42662 33.1376 0.391
    endloop
  endfacet
  facet normal 0 0 1
    outer loop
      vertex 8.04254 32.551 0.391
      vertex 9.67732 33.1783 0.391
      vertex 8.25891 32.6895 0.391
    endloop
  endfacet
  facet normal 0 0 1
    outer loop
      vertex 9.93376 33.2027 0.391
      vertex 9.67732 33.1783 0.391
      vertex 8.04254 32.551 0.391
    endloop
  endfacet
  facet normal 0 0 1
    outer loop
      vertex 9.93376 33.2027 0.391
      vertex 8.04254 32.551 0.391
      vertex 7.83189 32.3963 0.391
    endloop
  endfacet
  facet normal -0 0 1
    outer loop
      vertex 9.93376 33.2027 0.391
      vertex 7.83189 32.3963 0.391
      vertex 10.1959 33.2109 0.391
    endloop
  endfacet
  facet normal -0 0 1
    outer loop
      vertex 7.83189 32.3963 0.391
      vertex 7.62697 32.2252 0.391
      vertex 10.1959 33.2109 0.391
    endloop
  endfacet
  facet normal -0 0 1
    outer loop
      vertex 7.62697 32.2252 0.391
      vertex 7.42776 32.0378 0.391
      vertex 10.1959 33.2109 0.391
    endloop
  endfacet
  facet normal -0 0 1
    outer loop
      vertex 7.42776 32.0378 0.391
      vertex 7.23428 31.8342 0.391
      vertex 10.1959 33.2109 0.391
    endloop
  endfacet
  facet normal -0 0 1
    outer loop
      vertex 7.23428 31.8342 0.391
      vertex 7.05101 31.6192 0.391
      vertex 10.1959 33.2109 0.391
    endloop
  endfacet
  facet normal -0 0 1
    outer loop
      vertex 7.05101 31.6192 0.391
      vertex 6.88239 31.3979 0.391
      vertex 10.1959 33.2109 0.391
    endloop
  endfacet
  facet normal 0 0 1
    outer loop
      vertex 10.1959 33.2109 0.391
      vertex 6.72842 31.1702 0.391
      vertex 6.58911 30.9361 0.391
    endloop
  endfacet
  facet normal 0 0 1
    outer loop
      vertex 10.1959 33.2109 0.391
      vertex 6.58911 30.9361 0.391
      vertex 6.46449 30.6957 0.391
    endloop
  endfacet
  facet normal 0 0 1
    outer loop
      vertex 10.1959 33.2109 0.391
      vertex 6.46449 30.6957 0.391
      vertex 6.35451 30.4489 0.391
    endloop
  endfacet
  facet normal 0 0 1
    outer loop
      vertex 10.1959 33.2109 0.391
      vertex 6.35451 30.4489 0.391
      vertex 6.25919 30.1958 0.391
    endloop
  endfacet
  facet normal 0 0 1
    outer loop
      vertex 10.1959 33.2109 0.391
      vertex 6.25919 30.1958 0.391
      vertex 6.17856 29.9363 0.391
    endloop
  endfacet
  facet normal 0 0 1
    outer loop
      vertex 10.1959 33.2109 0.391
      vertex 6.17856 29.9363 0.391
      vertex 6.11256 29.6705 0.391
    endloop
  endfacet
  facet normal 0 0 1
    outer loop
      vertex 10.1959 33.2109 0.391
      vertex 6.11256 29.6705 0.391
      vertex 6.06125 29.3983 0.391
    endloop
  endfacet
  facet normal 0 0 1
    outer loop
      vertex 10.1959 33.2109 0.391
      vertex 6.06125 29.3983 0.391
      vertex 6.0246 29.1197 0.391
    endloop
  endfacet
  facet normal 0 0 1
    outer loop
      vertex 10.1959 33.2109 0.391
      vertex 6.0246 29.1197 0.391
      vertex 6.00259 28.8348 0.391
    endloop
  endfacet
  facet normal 0 0 1
    outer loop
      vertex 10.1959 33.2109 0.391
      vertex 6.00259 28.8348 0.391
      vertex 5.99525 28.5435 0.391
    endloop
  endfacet
  facet normal 0 0 1
    outer loop
      vertex 10.1959 33.2109 0.391
      vertex 5.99525 28.5435 0.391
      vertex 14.3935 23.8761 0.391
    endloop
  endfacet
  facet normal -0 0 1
    outer loop
      vertex 14.3935 2.87282 0.391
      vertex 5.99525 -0.699997 0.391
      vertex 30.1478 2.87282 0.391
    endloop
  endfacet
  facet normal 0 -0 1
    outer loop
      vertex 45.5031 3.16359 0.391
      vertex 46.0269 4.18323 0.391
      vertex 38.2715 7.96819 0.391
    endloop
  endfacet
  facet normal 0 0 1
    outer loop
      vertex 5.99525 -0.699997 0.391
      vertex 42.7264 -0.699997 0.391
      vertex 30.1478 2.87282 0.391
    endloop
  endfacet
  facet normal 0 0 1
    outer loop
      vertex 14.3935 23.8761 0.391
      vertex 5.99525 -0.699997 0.391
      vertex 14.3935 2.87282 0.391
    endloop
  endfacet
  facet normal -0 0 1
    outer loop
      vertex 10.1959 33.2109 0.391
      vertex 14.3935 23.8761 0.391
      vertex 30.1472 33.2109 0.391
    endloop
  endfacet
  facet normal 0 0 1
    outer loop
      vertex 5.99525 28.5435 0.391
      vertex 5.99525 -0.699997 0.391
      vertex 14.3935 23.8761 0.391
    endloop
  endfacet
  facet normal 0 0 1
    outer loop
      vertex 14.3935 23.8761 0.391
      vertex 30.1478 23.8761 0.391
      vertex 30.1472 33.2109 0.391
    endloop
  endfacet
  facet normal 0 0 1
    outer loop
      vertex 47.7202 17.0378 0.391
      vertex 39.338 15.9263 0.391
      vertex 39.4528 15.3107 0.391
    endloop
  endfacet
  facet normal 0 0 1
    outer loop
      vertex 40.24 29.7725 0.391
      vertex 39.3459 30.4258 0.391
      vertex 34.527 22.7094 0.391
    endloop
  endfacet
  facet normal 0 0 1
    outer loop
      vertex 41.1086 29.0504 0.391
      vertex 40.24 29.7725 0.391
      vertex 35.014 22.3995 0.391
    endloop
  endfacet
  facet normal -0 0 1
    outer loop
      vertex 35.4875 22.0531 0.391
      vertex 35.9477 21.6703 0.391
      vertex 41.9516 28.2596 0.391
    endloop
  endfacet
  facet normal 0 -0 1
    outer loop
      vertex 36.3944 21.251 0.391
      vertex 42.7689 27.4 0.391
      vertex 35.9477 21.6703 0.391
    endloop
  endfacet
  facet normal 0 0 1
    outer loop
      vertex 35.9477 21.6703 0.391
      vertex 42.7689 27.4 0.391
      vertex 41.9516 28.2596 0.391
    endloop
  endfacet
  facet normal 0 0 1
    outer loop
      vertex 43.5426 26.4918 0.391
      vertex 42.7689 27.4 0.391
      vertex 36.3944 21.251 0.391
    endloop
  endfacet
  facet normal 0 0 1
    outer loop
      vertex 43.5426 26.4918 0.391
      vertex 37.2379 20.3139 0.391
      vertex 44.2543 25.5552 0.391
    endloop
  endfacet
  facet normal 0 0 1
    outer loop
      vertex 37.6152 19.8176 0.391
      vertex 44.9041 24.5901 0.391
      vertex 44.2543 25.5552 0.391
    endloop
  endfacet
  facet normal -0 0 1
    outer loop
      vertex 37.2379 20.3139 0.391
      vertex 37.6152 19.8176 0.391
      vertex 44.2543 25.5552 0.391
    endloop
  endfacet
  facet normal 0 0 1
    outer loop
      vertex 37.9598 19.3065 0.391
      vertex 45.4921 23.5965 0.391
      vertex 44.9041 24.5901 0.391
    endloop
  endfacet
  facet normal -0 0 1
    outer loop
      vertex 37.6152 19.8176 0.391
      vertex 37.9598 19.3065 0.391
      vertex 44.9041 24.5901 0.391
    endloop
  endfacet
  facet normal 0 -0 1
    outer loop
      vertex 38.2715 18.7804 0.391
      vertex 45.4921 23.5965 0.391
      vertex 37.9598 19.3065 0.391
    endloop
  endfacet
  facet normal 0 0 1
    outer loop
      vertex 46.0182 22.5745 0.391
      vertex 38.5504 18.2394 0.391
      vertex 46.4824 21.5241 0.391
    endloop
  endfacet
  facet normal 0 0 1
    outer loop
      vertex 38.7965 17.6835 0.391
      vertex 46.8847 20.4452 0.391
      vertex 46.4824 21.5241 0.391
    endloop
  endfacet
  facet normal -0 0 1
    outer loop
      vertex 38.5504 18.2394 0.391
      vertex 38.7965 17.6835 0.391
      vertex 46.4824 21.5241 0.391
    endloop
  endfacet
  facet normal 0 0 1
    outer loop
      vertex 39.0098 17.1127 0.391
      vertex 47.2251 19.3379 0.391
      vertex 46.8847 20.4452 0.391
    endloop
  endfacet
  facet normal -0 0 1
    outer loop
      vertex 38.7965 17.6835 0.391
      vertex 39.0098 17.1127 0.391
      vertex 46.8847 20.4452 0.391
    endloop
  endfacet
  facet normal 0 -0 1
    outer loop
      vertex 39.1903 16.5269 0.391
      vertex 47.2251 19.3379 0.391
      vertex 39.0098 17.1127 0.391
    endloop
  endfacet
  facet normal 0 0 1
    outer loop
      vertex 39.338 15.9263 0.391
      vertex 47.7202 17.0378 0.391
      vertex 47.5036 18.2021 0.391
    endloop
  endfacet
  facet normal -0 0 1
    outer loop
      vertex 39.1903 16.5269 0.391
      vertex 39.338 15.9263 0.391
      vertex 47.5036 18.2021 0.391
    endloop
  endfacet
  facet normal 0 0 1
    outer loop
      vertex 47.8749 15.8452 0.391
      vertex 39.4528 15.3107 0.391
      vertex 39.5349 14.6802 0.391
    endloop
  endfacet
  facet normal 0 0 1
    outer loop
      vertex 47.8749 15.8452 0.391
      vertex 39.5349 14.6802 0.391
      vertex 47.9677 14.624 0.391
    endloop
  endfacet
  facet normal 0 0 1
    outer loop
      vertex 47.9677 14.624 0.391
      vertex 39.5841 14.0348 0.391
      vertex 47.9987 13.3745 0.391
    endloop
  endfacet
  facet normal 0 0 1
    outer loop
      vertex 39.5841 14.0348 0.391
      vertex 39.6005 13.3745 0.391
      vertex 47.9987 13.3745 0.391
    endloop
  endfacet
  facet normal 0 0 1
    outer loop
      vertex 47.9987 13.3745 0.391
      vertex 39.5841 12.7141 0.391
      vertex 47.9679 12.125 0.391
    endloop
  endfacet
  facet normal 0 0 1
    outer loop
      vertex 39.5841 12.7141 0.391
      vertex 39.5349 12.0687 0.391
      vertex 47.9679 12.125 0.391
    endloop
  endfacet
  facet normal 0 0 1
    outer loop
      vertex 39.5349 12.0687 0.391
      vertex 39.4528 11.4382 0.391
      vertex 47.8754 10.9043 0.391
    endloop
  endfacet
  facet normal 0 0 1
    outer loop
      vertex 39.4528 11.4382 0.391
      vertex 47.7214 9.71231 0.391
      vertex 47.8754 10.9043 0.391
    endloop
  endfacet
  facet normal 0 0 1
    outer loop
      vertex 39.338 10.8226 0.391
      vertex 47.5057 8.54904 0.391
      vertex 47.7214 9.71231 0.391
    endloop
  endfacet
  facet normal -0 0 1
    outer loop
      vertex 39.1903 10.2219 0.391
      vertex 47.5057 8.54904 0.391
      vertex 39.338 10.8226 0.391
    endloop
  endfacet
  facet normal -0 0 1
    outer loop
      vertex 39.0098 9.63609 0.391
      vertex 47.2284 7.41451 0.391
      vertex 39.1903 10.2219 0.391
    endloop
  endfacet
  facet normal 0 -0 1
    outer loop
      vertex 46.8895 6.30869 0.391
      vertex 47.2284 7.41451 0.391
      vertex 39.0098 9.63609 0.391
    endloop
  endfacet
  facet normal 0 -0 1
    outer loop
      vertex 46.489 5.2316 0.391
      vertex 46.8895 6.30869 0.391
      vertex 38.7965 9.06522 0.391
    endloop
  endfacet
  facet normal 0 0 1
    outer loop
      vertex 46.489 5.2316 0.391
      vertex 38.7965 9.06522 0.391
      vertex 38.5504 8.50925 0.391
    endloop
  endfacet
  facet normal 0 0 1
    outer loop
      vertex 46.0269 4.18323 0.391
      vertex 38.5504 8.50925 0.391
      vertex 38.2715 7.96819 0.391
    endloop
  endfacet
  facet normal 0 0 1
    outer loop
      vertex 45.5031 3.16359 0.391
      vertex 38.2715 7.96819 0.391
      vertex 37.9598 7.44202 0.391
    endloop
  endfacet
  facet normal 0 0 1
    outer loop
      vertex 45.5031 3.16359 0.391
      vertex 37.9598 7.44202 0.391
      vertex 44.9177 2.17267 0.391
    endloop
  endfacet
  facet normal 0 0 1
    outer loop
      vertex 37.9598 7.44202 0.391
      vertex 37.6152 6.93077 0.391
      vertex 44.9177 2.17267 0.391
    endloop
  endfacet
  facet normal 0 0 1
    outer loop
      vertex 37.6152 6.93077 0.391
      vertex 44.2707 1.21048 0.391
      vertex 44.9177 2.17267 0.391
    endloop
  endfacet
  facet normal -0 0 1
    outer loop
      vertex 37.2379 6.43443 0.391
      vertex 44.2707 1.21048 0.391
      vertex 37.6152 6.93077 0.391
    endloop
  endfacet
  facet normal 0 -0 1
    outer loop
      vertex 43.5621 0.277023 0.391
      vertex 44.2707 1.21048 0.391
      vertex 37.2379 6.43443 0.391
    endloop
  endfacet
  facet normal 0 0 1
    outer loop
      vertex 43.5621 0.277023 0.391
      vertex 37.2379 6.43443 0.391
      vertex 36.8277 5.953 0.391
    endloop
  endfacet
  facet normal 0 0 1
    outer loop
      vertex 43.5621 0.277023 0.391
      vertex 36.8277 5.953 0.391
      vertex 42.7918 -0.627701 0.391
    endloop
  endfacet
  facet normal 0 0 1
    outer loop
      vertex 36.8277 5.953 0.391
      vertex 36.3944 5.49734 0.391
      vertex 42.7918 -0.627701 0.391
    endloop
  endfacet
  facet normal 0 0 1
    outer loop
      vertex 36.3944 5.49734 0.391
      vertex 42.7264 -0.699997 0.391
      vertex 42.7918 -0.627701 0.391
    endloop
  endfacet
  facet normal -0 0 1
    outer loop
      vertex 35.9477 5.07816 0.391
      vertex 42.7264 -0.699997 0.391
      vertex 36.3944 5.49734 0.391
    endloop
  endfacet
  facet normal -0 0 1
    outer loop
      vertex 35.4875 4.6954 0.391
      vertex 42.7264 -0.699997 0.391
      vertex 35.9477 5.07816 0.391
    endloop
  endfacet
  facet normal -0 0 1
    outer loop
      vertex 35.014 4.34912 0.391
      vertex 42.7264 -0.699997 0.391
      vertex 35.4875 4.6954 0.391
    endloop
  endfacet
  facet normal -0 0 1
    outer loop
      vertex 34.527 4.03928 0.391
      vertex 42.7264 -0.699997 0.391
      vertex 35.014 4.34912 0.391
    endloop
  endfacet
  facet normal -0 0 1
    outer loop
      vertex 34.0266 3.76588 0.391
      vertex 42.7264 -0.699997 0.391
      vertex 34.527 4.03928 0.391
    endloop
  endfacet
  facet normal -0 0 1
    outer loop
      vertex 33.5127 3.52895 0.391
      vertex 42.7264 -0.699997 0.391
      vertex 34.0266 3.76588 0.391
    endloop
  endfacet
  facet normal -0 0 1
    outer loop
      vertex 32.9855 3.32848 0.391
      vertex 42.7264 -0.699997 0.391
      vertex 33.5127 3.52895 0.391
    endloop
  endfacet
  facet normal -0 0 1
    outer loop
      vertex 32.4448 3.16443 0.391
      vertex 42.7264 -0.699997 0.391
      vertex 32.9855 3.32848 0.391
    endloop
  endfacet
  facet normal -0 0 1
    outer loop
      vertex 31.8907 3.03685 0.391
      vertex 42.7264 -0.699997 0.391
      vertex 32.4448 3.16443 0.391
    endloop
  endfacet
  facet normal -0 0 1
    outer loop
      vertex 31.3231 2.94572 0.391
      vertex 42.7264 -0.699997 0.391
      vertex 31.8907 3.03685 0.391
    endloop
  endfacet
  facet normal -0 0 1
    outer loop
      vertex 30.7422 2.89105 0.391
      vertex 42.7264 -0.699997 0.391
      vertex 31.3231 2.94572 0.391
    endloop
  endfacet
  facet normal -0 0 1
    outer loop
      vertex 30.1478 2.87282 0.391
      vertex 42.7264 -0.699997 0.391
      vertex 30.7422 2.89105 0.391
    endloop
  endfacet
  facet normal 0.761406 -0.648276 0
    outer loop
      vertex 43.5621 0.277023 0.091
      vertex 42.7918 -0.627701 0.391
      vertex 42.7918 -0.627701 0.091
    endloop
  endfacet
  facet normal 0.761406 -0.648276 0
    outer loop
      vertex 43.5621 0.277023 0.091
      vertex 43.5621 0.277023 0.391
      vertex 42.7918 -0.627701 0.391
    endloop
  endfacet
  facet normal 0.796502 -0.604636 0
    outer loop
      vertex 44.2707 1.21048 0.091
      vertex 43.5621 0.277023 0.391
      vertex 43.5621 0.277023 0.091
    endloop
  endfacet
  facet normal 0.796502 -0.604636 0
    outer loop
      vertex 44.2707 1.21048 0.091
      vertex 44.2707 1.21048 0.391
      vertex 43.5621 0.277023 0.391
    endloop
  endfacet
  facet normal 0.829839 -0.558004 0
    outer loop
      vertex 44.9177 2.17267 0.091
      vertex 44.2707 1.21048 0.391
      vertex 44.2707 1.21048 0.091
    endloop
  endfacet
  facet normal 0.829839 -0.558004 0
    outer loop
      vertex 44.9177 2.17267 0.091
      vertex 44.9177 2.17267 0.391
      vertex 44.2707 1.21048 0.391
    endloop
  endfacet
  facet normal 0.860981 -0.508637 0
    outer loop
      vertex 45.5031 3.16359 0.091
      vertex 44.9177 2.17267 0.391
      vertex 44.9177 2.17267 0.091
    endloop
  endfacet
  facet normal 0.860981 -0.508637 0
    outer loop
      vertex 45.5031 3.16359 0.091
      vertex 45.5031 3.16359 0.391
      vertex 44.9177 2.17267 0.391
    endloop
  endfacet
  facet normal 0.889496 -0.456943 0
    outer loop
      vertex 46.0269 4.18323 0.091
      vertex 45.5031 3.16359 0.391
      vertex 45.5031 3.16359 0.091
    endloop
  endfacet
  facet normal 0.889496 -0.456943 0
    outer loop
      vertex 46.0269 4.18323 0.091
      vertex 46.0269 4.18323 0.391
      vertex 45.5031 3.16359 0.391
    endloop
  endfacet
  facet normal 0.915052 -0.403336 0
    outer loop
      vertex 46.489 5.2316 0.091
      vertex 46.0269 4.18323 0.391
      vertex 46.0269 4.18323 0.091
    endloop
  endfacet
  facet normal 0.915052 -0.403336 0
    outer loop
      vertex 46.489 5.2316 0.091
      vertex 46.489 5.2316 0.391
      vertex 46.0269 4.18323 0.391
    endloop
  endfacet
  facet normal 0.937301 -0.348521 0
    outer loop
      vertex 46.8895 6.30869 0.091
      vertex 46.489 5.2316 0.391
      vertex 46.489 5.2316 0.091
    endloop
  endfacet
  facet normal 0.937301 -0.348521 0
    outer loop
      vertex 46.8895 6.30869 0.091
      vertex 46.8895 6.30869 0.391
      vertex 46.489 5.2316 0.391
    endloop
  endfacet
  facet normal 0.956107 -0.293018 0
    outer loop
      vertex 47.2284 7.41451 0.091
      vertex 46.8895 6.30869 0.391
      vertex 46.8895 6.30869 0.091
    endloop
  endfacet
  facet normal 0.956107 -0.293018 0
    outer loop
      vertex 47.2284 7.41451 0.091
      vertex 47.2284 7.41451 0.391
      vertex 46.8895 6.30869 0.391
    endloop
  endfacet
  facet normal 0.971405 -0.237429 0
    outer loop
      vertex 47.5057 8.54904 0.091
      vertex 47.2284 7.41451 0.391
      vertex 47.2284 7.41451 0.091
    endloop
  endfacet
  facet normal 0.971405 -0.237429 0
    outer loop
      vertex 47.5057 8.54904 0.091
      vertex 47.5057 8.54904 0.391
      vertex 47.2284 7.41451 0.391
    endloop
  endfacet
  facet normal 0.98324 -0.182318 0
    outer loop
      vertex 47.7214 9.71231 0.091
      vertex 47.5057 8.54904 0.391
      vertex 47.5057 8.54904 0.091
    endloop
  endfacet
  facet normal 0.98324 -0.182318 0
    outer loop
      vertex 47.7214 9.71231 0.091
      vertex 47.7214 9.71231 0.391
      vertex 47.5057 8.54904 0.391
    endloop
  endfacet
  facet normal 0.991757 -0.128131 0
    outer loop
      vertex 47.8754 10.9043 0.091
      vertex 47.7214 9.71231 0.391
      vertex 47.7214 9.71231 0.091
    endloop
  endfacet
  facet normal 0.991757 -0.128131 0
    outer loop
      vertex 47.8754 10.9043 0.091
      vertex 47.8754 10.9043 0.391
      vertex 47.7214 9.71231 0.391
    endloop
  endfacet
  facet normal 0.997141 -0.0755596 0
    outer loop
      vertex 47.9679 12.125 0.091
      vertex 47.8754 10.9043 0.391
      vertex 47.8754 10.9043 0.091
    endloop
  endfacet
  facet normal 0.997141 -0.0755596 0
    outer loop
      vertex 47.9679 12.125 0.091
      vertex 47.9679 12.125 0.391
      vertex 47.8754 10.9043 0.391
    endloop
  endfacet
  facet normal 0.999696 -0.0246424 0
    outer loop
      vertex 47.9987 13.3745 0.091
      vertex 47.9679 12.125 0.391
      vertex 47.9679 12.125 0.091
    endloop
  endfacet
  facet normal 0.999696 -0.0246424 0
    outer loop
      vertex 47.9987 13.3745 0.091
      vertex 47.9987 13.3745 0.391
      vertex 47.9679 12.125 0.391
    endloop
  endfacet
  facet normal 0.999692 0.0248023 0
    outer loop
      vertex 47.9677 14.624 0.091
      vertex 47.9987 13.3745 0.391
      vertex 47.9987 13.3745 0.091
    endloop
  endfacet
  facet normal 0.999692 0.0248023 -0
    outer loop
      vertex 47.9677 14.624 0.091
      vertex 47.9677 14.624 0.391
      vertex 47.9987 13.3745 0.391
    endloop
  endfacet
  facet normal 0.997125 0.0757724 0
    outer loop
      vertex 47.8749 15.8452 0.091
      vertex 47.9677 14.624 0.391
      vertex 47.9677 14.624 0.091
    endloop
  endfacet
  facet normal 0.997125 0.0757724 -0
    outer loop
      vertex 47.8749 15.8452 0.091
      vertex 47.8749 15.8452 0.391
      vertex 47.9677 14.624 0.391
    endloop
  endfacet
  facet normal 0.991692 0.128639 0
    outer loop
      vertex 47.7202 17.0378 0.091
      vertex 47.8749 15.8452 0.391
      vertex 47.8749 15.8452 0.091
    endloop
  endfacet
  facet normal 0.991692 0.128639 -0
    outer loop
      vertex 47.7202 17.0378 0.091
      vertex 47.7202 17.0378 0.391
      vertex 47.8749 15.8452 0.391
    endloop
  endfacet
  facet normal 0.983132 0.182897 0
    outer loop
      vertex 47.5036 18.2021 0.091
      vertex 47.7202 17.0378 0.391
      vertex 47.7202 17.0378 0.091
    endloop
  endfacet
  facet normal 0.983132 0.182897 -0
    outer loop
      vertex 47.5036 18.2021 0.091
      vertex 47.5036 18.2021 0.391
      vertex 47.7202 17.0378 0.391
    endloop
  endfacet
  facet normal 0.971229 0.238147 0
    outer loop
      vertex 47.2251 19.3379 0.091
      vertex 47.5036 18.2021 0.391
      vertex 47.5036 18.2021 0.091
    endloop
  endfacet
  facet normal 0.971229 0.238147 -0
    outer loop
      vertex 47.2251 19.3379 0.091
      vertex 47.2251 19.3379 0.391
      vertex 47.5036 18.2021 0.391
    endloop
  endfacet
  facet normal 0.955854 0.293843 0
    outer loop
      vertex 46.8847 20.4452 0.091
      vertex 47.2251 19.3379 0.391
      vertex 47.2251 19.3379 0.091
    endloop
  endfacet
  facet normal 0.955854 0.293843 -0
    outer loop
      vertex 46.8847 20.4452 0.091
      vertex 46.8847 20.4452 0.391
      vertex 47.2251 19.3379 0.391
    endloop
  endfacet
  facet normal 0.936981 0.349381 0
    outer loop
      vertex 46.4824 21.5241 0.091
      vertex 46.8847 20.4452 0.391
      vertex 46.8847 20.4452 0.091
    endloop
  endfacet
  facet normal 0.936981 0.349381 -0
    outer loop
      vertex 46.4824 21.5241 0.091
      vertex 46.4824 21.5241 0.391
      vertex 46.8847 20.4452 0.391
    endloop
  endfacet
  facet normal 0.914664 0.404215 0
    outer loop
      vertex 46.0182 22.5745 0.091
      vertex 46.4824 21.5241 0.391
      vertex 46.4824 21.5241 0.091
    endloop
  endfacet
  facet normal 0.914664 0.404215 -0
    outer loop
      vertex 46.0182 22.5745 0.091
      vertex 46.0182 22.5745 0.391
      vertex 46.4824 21.5241 0.391
    endloop
  endfacet
  facet normal 0.889111 0.457692 0
    outer loop
      vertex 45.4921 23.5965 0.091
      vertex 46.0182 22.5745 0.391
      vertex 46.0182 22.5745 0.091
    endloop
  endfacet
  facet normal 0.889111 0.457692 -0
    outer loop
      vertex 45.4921 23.5965 0.091
      vertex 45.4921 23.5965 0.391
      vertex 46.0182 22.5745 0.391
    endloop
  endfacet
  facet normal 0.860595 0.509289 0
    outer loop
      vertex 44.9041 24.5901 0.091
      vertex 45.4921 23.5965 0.391
      vertex 45.4921 23.5965 0.091
    endloop
  endfacet
  facet normal 0.860595 0.509289 -0
    outer loop
      vertex 44.9041 24.5901 0.091
      vertex 44.9041 24.5901 0.391
      vertex 45.4921 23.5965 0.391
    endloop
  endfacet
  facet normal 0.829503 0.558503 0
    outer loop
      vertex 44.2543 25.5552 0.091
      vertex 44.9041 24.5901 0.391
      vertex 44.9041 24.5901 0.091
    endloop
  endfacet
  facet normal 0.829503 0.558503 -0
    outer loop
      vertex 44.2543 25.5552 0.091
      vertex 44.2543 25.5552 0.391
      vertex 44.9041 24.5901 0.391
    endloop
  endfacet
  facet normal 0.79621 0.605021 0
    outer loop
      vertex 43.5426 26.4918 0.091
      vertex 44.2543 25.5552 0.391
      vertex 44.2543 25.5552 0.091
    endloop
  endfacet
  facet normal 0.79621 0.605021 -0
    outer loop
      vertex 43.5426 26.4918 0.091
      vertex 43.5426 26.4918 0.391
      vertex 44.2543 25.5552 0.391
    endloop
  endfacet
  facet normal 0.761223 0.64849 0
    outer loop
      vertex 42.7689 27.4 0.091
      vertex 43.5426 26.4918 0.391
      vertex 43.5426 26.4918 0.091
    endloop
  endfacet
  facet normal 0.761223 0.64849 -0
    outer loop
      vertex 42.7689 27.4 0.091
      vertex 42.7689 27.4 0.391
      vertex 43.5426 26.4918 0.391
    endloop
  endfacet
  facet normal 0.724713 0.689051 0
    outer loop
      vertex 41.9516 28.2596 0.091
      vertex 42.7689 27.4 0.391
      vertex 42.7689 27.4 0.091
    endloop
  endfacet
  facet normal 0.724713 0.689051 -0
    outer loop
      vertex 41.9516 28.2596 0.091
      vertex 41.9516 28.2596 0.391
      vertex 42.7689 27.4 0.391
    endloop
  endfacet
  facet normal 0.684166 0.729327 0
    outer loop
      vertex 41.1086 29.0504 0.091
      vertex 41.9516 28.2596 0.391
      vertex 41.9516 28.2596 0.091
    endloop
  endfacet
  facet normal 0.684166 0.729327 -0
    outer loop
      vertex 41.1086 29.0504 0.091
      vertex 41.1086 29.0504 0.391
      vertex 41.9516 28.2596 0.391
    endloop
  endfacet
  facet normal 0.639278 0.768975 0
    outer loop
      vertex 40.24 29.7725 0.091
      vertex 41.1086 29.0504 0.391
      vertex 41.1086 29.0504 0.091
    endloop
  endfacet
  facet normal 0.639278 0.768975 -0
    outer loop
      vertex 40.24 29.7725 0.091
      vertex 40.24 29.7725 0.391
      vertex 41.1086 29.0504 0.391
    endloop
  endfacet
  facet normal 0.589969 0.807426 0
    outer loop
      vertex 39.3459 30.4258 0.091
      vertex 40.24 29.7725 0.391
      vertex 40.24 29.7725 0.091
    endloop
  endfacet
  facet normal 0.589969 0.807426 -0
    outer loop
      vertex 39.3459 30.4258 0.091
      vertex 39.3459 30.4258 0.391
      vertex 40.24 29.7725 0.391
    endloop
  endfacet
  facet normal 0.536377 0.843979 0
    outer loop
      vertex 38.4262 31.0103 0.091
      vertex 39.3459 30.4258 0.391
      vertex 39.3459 30.4258 0.091
    endloop
  endfacet
  facet normal 0.536377 0.843979 -0
    outer loop
      vertex 38.4262 31.0103 0.091
      vertex 38.4262 31.0103 0.391
      vertex 39.3459 30.4258 0.391
    endloop
  endfacet
  facet normal 0.478982 0.877825 0
    outer loop
      vertex 37.4809 31.5261 0.091
      vertex 38.4262 31.0103 0.391
      vertex 38.4262 31.0103 0.091
    endloop
  endfacet
  facet normal 0.478982 0.877825 -0
    outer loop
      vertex 37.4809 31.5261 0.091
      vertex 37.4809 31.5261 0.391
      vertex 38.4262 31.0103 0.391
    endloop
  endfacet
  facet normal 0.418168 0.90837 0
    outer loop
      vertex 36.5099 31.9731 0.091
      vertex 37.4809 31.5261 0.391
      vertex 37.4809 31.5261 0.091
    endloop
  endfacet
  facet normal 0.418168 0.90837 -0
    outer loop
      vertex 36.5099 31.9731 0.091
      vertex 36.5099 31.9731 0.391
      vertex 37.4809 31.5261 0.391
    endloop
  endfacet
  facet normal 0.354832 0.93493 0
    outer loop
      vertex 35.5134 32.3513 0.091
      vertex 36.5099 31.9731 0.391
      vertex 36.5099 31.9731 0.091
    endloop
  endfacet
  facet normal 0.354832 0.93493 -0
    outer loop
      vertex 35.5134 32.3513 0.091
      vertex 35.5134 32.3513 0.391
      vertex 36.5099 31.9731 0.391
    endloop
  endfacet
  facet normal 0.289753 0.957102 0
    outer loop
      vertex 34.4914 32.6607 0.091
      vertex 35.5134 32.3513 0.391
      vertex 35.5134 32.3513 0.091
    endloop
  endfacet
  facet normal 0.289753 0.957102 -0
    outer loop
      vertex 34.4914 32.6607 0.091
      vertex 34.4914 32.6607 0.391
      vertex 35.5134 32.3513 0.391
    endloop
  endfacet
  facet normal 0.223908 0.97461 0
    outer loop
      vertex 33.4437 32.9014 0.091
      vertex 34.4914 32.6607 0.391
      vertex 34.4914 32.6607 0.091
    endloop
  endfacet
  facet normal 0.223908 0.97461 -0
    outer loop
      vertex 33.4437 32.9014 0.091
      vertex 33.4437 32.9014 0.391
      vertex 34.4914 32.6607 0.391
    endloop
  endfacet
  facet normal 0.158145 0.987416 0
    outer loop
      vertex 32.3704 33.0733 0.091
      vertex 33.4437 32.9014 0.391
      vertex 33.4437 32.9014 0.091
    endloop
  endfacet
  facet normal 0.158145 0.987416 -0
    outer loop
      vertex 32.3704 33.0733 0.091
      vertex 32.3704 33.0733 0.391
      vertex 33.4437 32.9014 0.391
    endloop
  endfacet
  facet normal 0.0935091 0.995618 0
    outer loop
      vertex 31.2716 33.1765 0.091
      vertex 32.3704 33.0733 0.391
      vertex 32.3704 33.0733 0.091
    endloop
  endfacet
  facet normal 0.0935091 0.995618 -0
    outer loop
      vertex 31.2716 33.1765 0.091
      vertex 31.2716 33.1765 0.391
      vertex 32.3704 33.0733 0.391
    endloop
  endfacet
  facet normal 0.0305798 0.999532 0
    outer loop
      vertex 30.1472 33.2109 0.091
      vertex 31.2716 33.1765 0.391
      vertex 31.2716 33.1765 0.091
    endloop
  endfacet
  facet normal 0.0305798 0.999532 -0
    outer loop
      vertex 30.1472 33.2109 0.091
      vertex 30.1472 33.2109 0.391
      vertex 31.2716 33.1765 0.391
    endloop
  endfacet
  facet normal 0 1 0
    outer loop
      vertex 10.1959 33.2109 0.091
      vertex 30.1472 33.2109 0.391
      vertex 30.1472 33.2109 0.091
    endloop
  endfacet
  facet normal 0 1 0
    outer loop
      vertex 10.1959 33.2109 0.091
      vertex 10.1959 33.2109 0.391
      vertex 30.1472 33.2109 0.391
    endloop
  endfacet
  facet normal -0.0312657 0.999511 0
    outer loop
      vertex 9.93376 33.2027 0.091
      vertex 10.1959 33.2109 0.391
      vertex 10.1959 33.2109 0.091
    endloop
  endfacet
  facet normal -0.0312657 0.999511 0
    outer loop
      vertex 9.93376 33.2027 0.091
      vertex 9.93376 33.2027 0.391
      vertex 10.1959 33.2109 0.391
    endloop
  endfacet
  facet normal -0.0947212 0.995504 0
    outer loop
      vertex 9.67732 33.1783 0.091
      vertex 9.93376 33.2027 0.391
      vertex 9.93376 33.2027 0.091
    endloop
  endfacet
  facet normal -0.0947212 0.995504 0
    outer loop
      vertex 9.67732 33.1783 0.091
      vertex 9.67732 33.1783 0.391
      vertex 9.93376 33.2027 0.391
    endloop
  endfacet
  facet normal -0.160247 0.987077 0
    outer loop
      vertex 9.42662 33.1376 0.091
      vertex 9.67732 33.1783 0.391
      vertex 9.67732 33.1783 0.091
    endloop
  endfacet
  facet normal -0.160247 0.987077 0
    outer loop
      vertex 9.42662 33.1376 0.091
      vertex 9.42662 33.1376 0.391
      vertex 9.67732 33.1783 0.391
    endloop
  endfacet
  facet normal -0.226996 0.973896 0
    outer loop
      vertex 9.18164 33.0805 0.091
      vertex 9.42662 33.1376 0.391
      vertex 9.42662 33.1376 0.091
    endloop
  endfacet
  facet normal -0.226996 0.973896 0
    outer loop
      vertex 9.18164 33.0805 0.091
      vertex 9.18164 33.0805 0.391
      vertex 9.42662 33.1376 0.391
    endloop
  endfacet
  facet normal -0.292912 0.956139 0
    outer loop
      vertex 8.94237 33.0072 0.091
      vertex 9.18164 33.0805 0.391
      vertex 9.18164 33.0805 0.091
    endloop
  endfacet
  facet normal -0.292912 0.956139 0
    outer loop
      vertex 8.94237 33.0072 0.091
      vertex 8.94237 33.0072 0.391
      vertex 9.18164 33.0805 0.391
    endloop
  endfacet
  facet normal -0.358202 0.933644 0
    outer loop
      vertex 8.70883 32.9176 0.091
      vertex 8.94237 33.0072 0.391
      vertex 8.94237 33.0072 0.091
    endloop
  endfacet
  facet normal -0.358202 0.933644 0
    outer loop
      vertex 8.70883 32.9176 0.091
      vertex 8.70883 32.9176 0.391
      vertex 8.94237 33.0072 0.391
    endloop
  endfacet
  facet normal -0.42154 0.90681 0
    outer loop
      vertex 8.48102 32.8117 0.091
      vertex 8.70883 32.9176 0.391
      vertex 8.70883 32.9176 0.091
    endloop
  endfacet
  facet normal -0.42154 0.90681 0
    outer loop
      vertex 8.48102 32.8117 0.091
      vertex 8.48102 32.8117 0.391
      vertex 8.70883 32.9176 0.391
    endloop
  endfacet
  facet normal -0.482038 0.87615 0
    outer loop
      vertex 8.25891 32.6895 0.091
      vertex 8.48102 32.8117 0.391
      vertex 8.48102 32.8117 0.091
    endloop
  endfacet
  facet normal -0.482038 0.87615 0
    outer loop
      vertex 8.25891 32.6895 0.091
      vertex 8.25891 32.6895 0.391
      vertex 8.48102 32.8117 0.391
    endloop
  endfacet
  facet normal -0.539118 0.84223 0
    outer loop
      vertex 8.04254 32.551 0.091
      vertex 8.25891 32.6895 0.391
      vertex 8.25891 32.6895 0.091
    endloop
  endfacet
  facet normal -0.539118 0.84223 0
    outer loop
      vertex 8.04254 32.551 0.091
      vertex 8.04254 32.551 0.391
      vertex 8.25891 32.6895 0.391
    endloop
  endfacet
  facet normal -0.591919 0.805997 0
    outer loop
      vertex 7.83189 32.3963 0.091
      vertex 8.04254 32.551 0.391
      vertex 8.04254 32.551 0.091
    endloop
  endfacet
  facet normal -0.591919 0.805997 0
    outer loop
      vertex 7.83189 32.3963 0.091
      vertex 7.83189 32.3963 0.391
      vertex 8.04254 32.551 0.391
    endloop
  endfacet
  facet normal -0.640921 0.767607 0
    outer loop
      vertex 7.62697 32.2252 0.091
      vertex 7.83189 32.3963 0.391
      vertex 7.83189 32.3963 0.091
    endloop
  endfacet
  facet normal -0.640921 0.767607 0
    outer loop
      vertex 7.62697 32.2252 0.091
      vertex 7.62697 32.2252 0.391
      vertex 7.83189 32.3963 0.391
    endloop
  endfacet
  facet normal -0.685187 0.728367 0
    outer loop
      vertex 7.42776 32.0378 0.091
      vertex 7.62697 32.2252 0.391
      vertex 7.62697 32.2252 0.091
    endloop
  endfacet
  facet normal -0.685187 0.728367 0
    outer loop
      vertex 7.42776 32.0378 0.091
      vertex 7.42776 32.0378 0.391
      vertex 7.62697 32.2252 0.391
    endloop
  endfacet
  facet normal -0.724893 0.688862 0
    outer loop
      vertex 7.23428 31.8342 0.091
      vertex 7.42776 32.0378 0.391
      vertex 7.42776 32.0378 0.091
    endloop
  endfacet
  facet normal -0.724893 0.688862 0
    outer loop
      vertex 7.23428 31.8342 0.091
      vertex 7.23428 31.8342 0.391
      vertex 7.42776 32.0378 0.391
    endloop
  endfacet
  facet normal -0.76103 0.648716 0
    outer loop
      vertex 7.05101 31.6192 0.091
      vertex 7.23428 31.8342 0.391
      vertex 7.23428 31.8342 0.091
    endloop
  endfacet
  facet normal -0.76103 0.648716 0
    outer loop
      vertex 7.05101 31.6192 0.091
      vertex 7.05101 31.6192 0.391
      vertex 7.23428 31.8342 0.391
    endloop
  endfacet
  facet normal -0.795414 0.606067 0
    outer loop
      vertex 6.88239 31.3979 0.091
      vertex 7.05101 31.6192 0.391
      vertex 7.05101 31.6192 0.091
    endloop
  endfacet
  facet normal -0.795414 0.606067 0
    outer loop
      vertex 6.88239 31.3979 0.091
      vertex 6.88239 31.3979 0.391
      vertex 7.05101 31.6192 0.391
    endloop
  endfacet
  facet normal -0.828389 0.560154 0
    outer loop
      vertex 6.72842 31.1702 0.091
      vertex 6.88239 31.3979 0.391
      vertex 6.88239 31.3979 0.091
    endloop
  endfacet
  facet normal -0.828389 0.560154 0
    outer loop
      vertex 6.72842 31.1702 0.091
      vertex 6.72842 31.1702 0.391
      vertex 6.88239 31.3979 0.391
    endloop
  endfacet
  facet normal -0.85935 0.511388 0
    outer loop
      vertex 6.58911 30.9361 0.091
      vertex 6.72842 31.1702 0.391
      vertex 6.72842 31.1702 0.091
    endloop
  endfacet
  facet normal -0.85935 0.511388 0
    outer loop
      vertex 6.58911 30.9361 0.091
      vertex 6.58911 30.9361 0.391
      vertex 6.72842 31.1702 0.391
    endloop
  endfacet
  facet normal -0.887803 0.460224 0
    outer loop
      vertex 6.46449 30.6957 0.091
      vertex 6.58911 30.9361 0.391
      vertex 6.58911 30.9361 0.091
    endloop
  endfacet
  facet normal -0.887803 0.460224 0
    outer loop
      vertex 6.46449 30.6957 0.091
      vertex 6.46449 30.6957 0.391
      vertex 6.58911 30.9361 0.391
    endloop
  endfacet
  facet normal -0.913411 0.407038 0
    outer loop
      vertex 6.35451 30.4489 0.091
      vertex 6.46449 30.6957 0.391
      vertex 6.46449 30.6957 0.091
    endloop
  endfacet
  facet normal -0.913411 0.407038 0
    outer loop
      vertex 6.35451 30.4489 0.091
      vertex 6.35451 30.4489 0.391
      vertex 6.46449 30.6957 0.391
    endloop
  endfacet
  facet normal -0.935833 0.352444 0
    outer loop
      vertex 6.25919 30.1958 0.091
      vertex 6.35451 30.4489 0.391
      vertex 6.35451 30.4489 0.091
    endloop
  endfacet
  facet normal -0.935833 0.352444 0
    outer loop
      vertex 6.25919 30.1958 0.091
      vertex 6.25919 30.1958 0.391
      vertex 6.35451 30.4489 0.391
    endloop
  endfacet
  facet normal -0.954965 0.29672 0
    outer loop
      vertex 6.17856 29.9363 0.091
      vertex 6.25919 30.1958 0.391
      vertex 6.25919 30.1958 0.091
    endloop
  endfacet
  facet normal -0.954965 0.29672 0
    outer loop
      vertex 6.17856 29.9363 0.091
      vertex 6.17856 29.9363 0.391
      vertex 6.25919 30.1958 0.391
    endloop
  endfacet
  facet normal -0.970528 0.240989 0
    outer loop
      vertex 6.11256 29.6705 0.091
      vertex 6.17856 29.9363 0.391
      vertex 6.17856 29.9363 0.091
    endloop
  endfacet
  facet normal -0.970528 0.240989 0
    outer loop
      vertex 6.11256 29.6705 0.091
      vertex 6.11256 29.6705 0.391
      vertex 6.17856 29.9363 0.391
    endloop
  endfacet
  facet normal -0.982694 0.185239 0
    outer loop
      vertex 6.06125 29.3983 0.091
      vertex 6.11256 29.6705 0.391
      vertex 6.11256 29.6705 0.091
    endloop
  endfacet
  facet normal -0.982694 0.185239 0
    outer loop
      vertex 6.06125 29.3983 0.091
      vertex 6.06125 29.3983 0.391
      vertex 6.11256 29.6705 0.391
    endloop
  endfacet
  facet normal -0.991458 0.130427 0
    outer loop
      vertex 6.0246 29.1197 0.091
      vertex 6.06125 29.3983 0.391
      vertex 6.06125 29.3983 0.091
    endloop
  endfacet
  facet normal -0.991458 0.130427 0
    outer loop
      vertex 6.0246 29.1197 0.091
      vertex 6.0246 29.1197 0.391
      vertex 6.06125 29.3983 0.391
    endloop
  endfacet
  facet normal -0.997029 0.0770257 0
    outer loop
      vertex 6.00259 28.8348 0.091
      vertex 6.0246 29.1197 0.391
      vertex 6.0246 29.1197 0.091
    endloop
  endfacet
  facet normal -0.997029 0.0770257 0
    outer loop
      vertex 6.00259 28.8348 0.091
      vertex 6.00259 28.8348 0.391
      vertex 6.0246 29.1197 0.391
    endloop
  endfacet
  facet normal -0.999683 0.0251894 0
    outer loop
      vertex 5.99525 28.5435 0.091
      vertex 6.00259 28.8348 0.391
      vertex 6.00259 28.8348 0.091
    endloop
  endfacet
  facet normal -0.999683 0.0251894 0
    outer loop
      vertex 5.99525 28.5435 0.091
      vertex 5.99525 28.5435 0.391
      vertex 6.00259 28.8348 0.391
    endloop
  endfacet
  facet normal -1 0 0
    outer loop
      vertex 5.99525 -0.699997 0.091
      vertex 5.99525 28.5435 0.391
      vertex 5.99525 28.5435 0.091
    endloop
  endfacet
  facet normal -1 0 0
    outer loop
      vertex 5.99525 -0.699997 0.091
      vertex 5.99525 -0.699997 0.391
      vertex 5.99525 28.5435 0.391
    endloop
  endfacet
  facet normal 0 -1 0
    outer loop
      vertex 42.7264 -0.699997 0.091
      vertex 5.99525 -0.699997 0.391
      vertex 5.99525 -0.699997 0.091
    endloop
  endfacet
  facet normal 0 -1 0
    outer loop
      vertex 42.7264 -0.699997 0.091
      vertex 42.7264 -0.699997 0.391
      vertex 5.99525 -0.699997 0.391
    endloop
  endfacet
  facet normal 0.74159 -0.670853 0
    outer loop
      vertex 42.7918 -0.627701 0.091
      vertex 42.7264 -0.699997 0.391
      vertex 42.7264 -0.699997 0.091
    endloop
  endfacet
  facet normal 0.74159 -0.670853 0
    outer loop
      vertex 42.7918 -0.627701 0.091
      vertex 42.7918 -0.627701 0.391
      vertex 42.7264 -0.699997 0.391
    endloop
  endfacet
  facet normal 1 0 -0
    outer loop
      vertex 14.3935 23.8761 0.091
      vertex 14.3935 23.8761 0.391
      vertex 14.3935 2.87282 0.091
    endloop
  endfacet
  facet normal 1 -0 0
    outer loop
      vertex 14.3935 2.87282 0.391
      vertex 14.3935 2.87282 0.091
      vertex 14.3935 23.8761 0.391
    endloop
  endfacet
  facet normal 0 -1 0
    outer loop
      vertex 30.1478 23.8761 0.091
      vertex 30.1478 23.8761 0.391
      vertex 14.3935 23.8761 0.091
    endloop
  endfacet
  facet normal 0 -1 0
    outer loop
      vertex 14.3935 23.8761 0.391
      vertex 14.3935 23.8761 0.091
      vertex 30.1478 23.8761 0.391
    endloop
  endfacet
  facet normal -0.0307728 -0.999526 0
    outer loop
      vertex 30.7422 23.8578 0.091
      vertex 30.7422 23.8578 0.391
      vertex 30.1478 23.8761 0.091
    endloop
  endfacet
  facet normal -0.0307728 -0.999526 -0
    outer loop
      vertex 30.1478 23.8761 0.391
      vertex 30.1478 23.8761 0.091
      vertex 30.7422 23.8578 0.391
    endloop
  endfacet
  facet normal -0.0935796 -0.995612 0
    outer loop
      vertex 31.3231 23.8032 0.091
      vertex 31.3231 23.8032 0.391
      vertex 30.7422 23.8578 0.091
    endloop
  endfacet
  facet normal -0.0935796 -0.995612 -0
    outer loop
      vertex 30.7422 23.8578 0.391
      vertex 30.7422 23.8578 0.091
      vertex 31.3231 23.8032 0.391
    endloop
  endfacet
  facet normal -0.158642 -0.987336 0
    outer loop
      vertex 31.8907 23.712 0.091
      vertex 31.8907 23.712 0.391
      vertex 31.3231 23.8032 0.091
    endloop
  endfacet
  facet normal -0.158642 -0.987336 -0
    outer loop
      vertex 31.3231 23.8032 0.391
      vertex 31.3231 23.8032 0.091
      vertex 31.8907 23.712 0.391
    endloop
  endfacet
  facet normal -0.22441 -0.974495 0
    outer loop
      vertex 32.4448 23.5844 0.091
      vertex 32.4448 23.5844 0.391
      vertex 31.8907 23.712 0.091
    endloop
  endfacet
  facet normal -0.22441 -0.974495 -0
    outer loop
      vertex 31.8907 23.712 0.391
      vertex 31.8907 23.712 0.091
      vertex 32.4448 23.5844 0.391
    endloop
  endfacet
  facet normal -0.290415 -0.956901 0
    outer loop
      vertex 32.9855 23.4203 0.091
      vertex 32.9855 23.4203 0.391
      vertex 32.4448 23.5844 0.091
    endloop
  endfacet
  facet normal -0.290415 -0.956901 -0
    outer loop
      vertex 32.4448 23.5844 0.391
      vertex 32.4448 23.5844 0.091
      vertex 32.9855 23.4203 0.391
    endloop
  endfacet
  facet normal -0.355472 -0.934687 0
    outer loop
      vertex 33.5127 23.2198 0.091
      vertex 33.5127 23.2198 0.391
      vertex 32.9855 23.4203 0.091
    endloop
  endfacet
  facet normal -0.355472 -0.934687 -0
    outer loop
      vertex 32.9855 23.4203 0.391
      vertex 32.9855 23.4203 0.091
      vertex 33.5127 23.2198 0.391
    endloop
  endfacet
  facet normal -0.418789 -0.908083 0
    outer loop
      vertex 34.0266 22.9828 0.091
      vertex 34.0266 22.9828 0.391
      vertex 33.5127 23.2198 0.091
    endloop
  endfacet
  facet normal -0.418789 -0.908083 -0
    outer loop
      vertex 33.5127 23.2198 0.391
      vertex 33.5127 23.2198 0.091
      vertex 34.0266 22.9828 0.391
    endloop
  endfacet
  facet normal -0.479466 -0.87756 0
    outer loop
      vertex 34.527 22.7094 0.091
      vertex 34.527 22.7094 0.391
      vertex 34.0266 22.9828 0.091
    endloop
  endfacet
  facet normal -0.479466 -0.87756 -0
    outer loop
      vertex 34.0266 22.9828 0.391
      vertex 34.0266 22.9828 0.091
      vertex 34.527 22.7094 0.391
    endloop
  endfacet
  facet normal -0.536864 -0.843669 0
    outer loop
      vertex 35.014 22.3995 0.091
      vertex 35.014 22.3995 0.391
      vertex 34.527 22.7094 0.091
    endloop
  endfacet
  facet normal -0.536864 -0.843669 -0
    outer loop
      vertex 34.527 22.7094 0.391
      vertex 34.527 22.7094 0.091
      vertex 35.014 22.3995 0.391
    endloop
  endfacet
  facet normal -0.59044 -0.807082 0
    outer loop
      vertex 35.4875 22.0531 0.091
      vertex 35.4875 22.0531 0.391
      vertex 35.014 22.3995 0.091
    endloop
  endfacet
  facet normal -0.59044 -0.807082 -0
    outer loop
      vertex 35.014 22.3995 0.391
      vertex 35.014 22.3995 0.091
      vertex 35.4875 22.0531 0.391
    endloop
  endfacet
  facet normal -0.639494 -0.768796 0
    outer loop
      vertex 35.9477 21.6703 0.091
      vertex 35.9477 21.6703 0.391
      vertex 35.4875 22.0531 0.091
    endloop
  endfacet
  facet normal -0.639494 -0.768796 -0
    outer loop
      vertex 35.4875 22.0531 0.391
      vertex 35.4875 22.0531 0.091
      vertex 35.9477 21.6703 0.391
    endloop
  endfacet
  facet normal -0.684392 -0.729115 0
    outer loop
      vertex 36.3944 21.251 0.091
      vertex 36.3944 21.251 0.391
      vertex 35.9477 21.6703 0.091
    endloop
  endfacet
  facet normal -0.684392 -0.729115 -0
    outer loop
      vertex 35.9477 21.6703 0.391
      vertex 35.9477 21.6703 0.091
      vertex 36.3944 21.251 0.391
    endloop
  endfacet
  facet normal -0.724769 -0.688992 0
    outer loop
      vertex 36.8277 20.7952 0.091
      vertex 36.8277 20.7952 0.391
      vertex 36.3944 21.251 0.091
    endloop
  endfacet
  facet normal -0.724769 -0.688992 -0
    outer loop
      vertex 36.3944 21.251 0.391
      vertex 36.3944 21.251 0.091
      vertex 36.8277 20.7952 0.391
    endloop
  endfacet
  facet normal -0.761084 -0.648653 0
    outer loop
      vertex 37.2379 20.3139 0.091
      vertex 37.2379 20.3139 0.391
      vertex 36.8277 20.7952 0.091
    endloop
  endfacet
  facet normal -0.761084 -0.648653 -0
    outer loop
      vertex 36.8277 20.7952 0.391
      vertex 36.8277 20.7952 0.091
      vertex 37.2379 20.3139 0.391
    endloop
  endfacet
  facet normal -0.796076 -0.605197 0
    outer loop
      vertex 37.6152 19.8176 0.091
      vertex 37.6152 19.8176 0.391
      vertex 37.2379 20.3139 0.091
    endloop
  endfacet
  facet normal -0.796076 -0.605197 -0
    outer loop
      vertex 37.2379 20.3139 0.391
      vertex 37.2379 20.3139 0.091
      vertex 37.6152 19.8176 0.391
    endloop
  endfacet
  facet normal -0.829144 -0.559035 0
    outer loop
      vertex 37.9598 19.3065 0.091
      vertex 37.9598 19.3065 0.391
      vertex 37.6152 19.8176 0.091
    endloop
  endfacet
  facet normal -0.829144 -0.559035 -0
    outer loop
      vertex 37.6152 19.8176 0.391
      vertex 37.6152 19.8176 0.091
      vertex 37.9598 19.3065 0.391
    endloop
  endfacet
  facet normal -0.860337 -0.509726 0
    outer loop
      vertex 38.2715 18.7804 0.091
      vertex 38.2715 18.7804 0.391
      vertex 37.9598 19.3065 0.091
    endloop
  endfacet
  facet normal -0.860337 -0.509726 -0
    outer loop
      vertex 37.9598 19.3065 0.391
      vertex 37.9598 19.3065 0.091
      vertex 38.2715 18.7804 0.391
    endloop
  endfacet
  facet normal -0.888839 -0.45822 0
    outer loop
      vertex 38.5504 18.2394 0.091
      vertex 38.5504 18.2394 0.391
      vertex 38.2715 18.7804 0.091
    endloop
  endfacet
  facet normal -0.888839 -0.45822 -0
    outer loop
      vertex 38.2715 18.7804 0.391
      vertex 38.2715 18.7804 0.091
      vertex 38.5504 18.2394 0.391
    endloop
  endfacet
  facet normal -0.914401 -0.40481 0
    outer loop
      vertex 38.7965 17.6835 0.091
      vertex 38.7965 17.6835 0.391
      vertex 38.5504 18.2394 0.091
    endloop
  endfacet
  facet normal -0.914401 -0.40481 -0
    outer loop
      vertex 38.5504 18.2394 0.391
      vertex 38.5504 18.2394 0.091
      vertex 38.7965 17.6835 0.391
    endloop
  endfacet
  facet normal -0.936733 -0.350044 0
    outer loop
      vertex 39.0098 17.1127 0.091
      vertex 39.0098 17.1127 0.391
      vertex 38.7965 17.6835 0.091
    endloop
  endfacet
  facet normal -0.936733 -0.350044 -0
    outer loop
      vertex 38.7965 17.6835 0.391
      vertex 38.7965 17.6835 0.091
      vertex 39.0098 17.1127 0.391
    endloop
  endfacet
  facet normal -0.955663 -0.294464 0
    outer loop
      vertex 39.1903 16.5269 0.091
      vertex 39.1903 16.5269 0.391
      vertex 39.0098 17.1127 0.091
    endloop
  endfacet
  facet normal -0.955663 -0.294464 -0
    outer loop
      vertex 39.0098 17.1127 0.391
      vertex 39.0098 17.1127 0.091
      vertex 39.1903 16.5269 0.391
    endloop
  endfacet
  facet normal -0.971067 -0.238806 0
    outer loop
      vertex 39.338 15.9263 0.091
      vertex 39.338 15.9263 0.391
      vertex 39.1903 16.5269 0.091
    endloop
  endfacet
  facet normal -0.971067 -0.238806 -0
    outer loop
      vertex 39.1903 16.5269 0.391
      vertex 39.1903 16.5269 0.091
      vertex 39.338 15.9263 0.391
    endloop
  endfacet
  facet normal -0.983052 -0.183324 0
    outer loop
      vertex 39.4528 15.3107 0.091
      vertex 39.4528 15.3107 0.391
      vertex 39.338 15.9263 0.091
    endloop
  endfacet
  facet normal -0.983052 -0.183324 -0
    outer loop
      vertex 39.338 15.9263 0.391
      vertex 39.338 15.9263 0.091
      vertex 39.4528 15.3107 0.391
    endloop
  endfacet
  facet normal -0.991628 -0.129124 0
    outer loop
      vertex 39.5349 14.6802 0.091
      vertex 39.5349 14.6802 0.391
      vertex 39.4528 15.3107 0.091
    endloop
  endfacet
  facet normal -0.991628 -0.129124 -0
    outer loop
      vertex 39.4528 15.3107 0.391
      vertex 39.4528 15.3107 0.091
      vertex 39.5349 14.6802 0.391
    endloop
  endfacet
  facet normal -0.997107 -0.0760113 0
    outer loop
      vertex 39.5841 14.0348 0.091
      vertex 39.5841 14.0348 0.391
      vertex 39.5349 14.6802 0.091
    endloop
  endfacet
  facet normal -0.997107 -0.0760113 -0
    outer loop
      vertex 39.5349 14.6802 0.391
      vertex 39.5349 14.6802 0.091
      vertex 39.5841 14.0348 0.391
    endloop
  endfacet
  facet normal -0.999692 -0.0248295 0
    outer loop
      vertex 39.6005 13.3745 0.091
      vertex 39.6005 13.3745 0.391
      vertex 39.5841 14.0348 0.091
    endloop
  endfacet
  facet normal -0.999692 -0.0248295 -0
    outer loop
      vertex 39.5841 14.0348 0.391
      vertex 39.5841 14.0348 0.091
      vertex 39.6005 13.3745 0.391
    endloop
  endfacet
  facet normal -0.999692 0.0248258 0
    outer loop
      vertex 39.5841 12.7141 0.091
      vertex 39.5841 12.7141 0.391
      vertex 39.6005 13.3745 0.091
    endloop
  endfacet
  facet normal -0.999692 0.0248258 0
    outer loop
      vertex 39.6005 13.3745 0.391
      vertex 39.6005 13.3745 0.091
      vertex 39.5841 12.7141 0.391
    endloop
  endfacet
  facet normal -0.997107 0.0760113 0
    outer loop
      vertex 39.5349 12.0687 0.091
      vertex 39.5349 12.0687 0.391
      vertex 39.5841 12.7141 0.091
    endloop
  endfacet
  facet normal -0.997107 0.0760113 0
    outer loop
      vertex 39.5841 12.7141 0.391
      vertex 39.5841 12.7141 0.091
      vertex 39.5349 12.0687 0.391
    endloop
  endfacet
  facet normal -0.991628 0.129124 0
    outer loop
      vertex 39.4528 11.4382 0.091
      vertex 39.4528 11.4382 0.391
      vertex 39.5349 12.0687 0.091
    endloop
  endfacet
  facet normal -0.991628 0.129124 0
    outer loop
      vertex 39.5349 12.0687 0.391
      vertex 39.5349 12.0687 0.091
      vertex 39.4528 11.4382 0.391
    endloop
  endfacet
  facet normal -0.983052 0.183324 0
    outer loop
      vertex 39.338 10.8226 0.091
      vertex 39.338 10.8226 0.391
      vertex 39.4528 11.4382 0.091
    endloop
  endfacet
  facet normal -0.983052 0.183324 0
    outer loop
      vertex 39.4528 11.4382 0.391
      vertex 39.4528 11.4382 0.091
      vertex 39.338 10.8226 0.391
    endloop
  endfacet
  facet normal -0.971077 0.238768 0
    outer loop
      vertex 39.1903 10.2219 0.091
      vertex 39.1903 10.2219 0.391
      vertex 39.338 10.8226 0.091
    endloop
  endfacet
  facet normal -0.971077 0.238768 0
    outer loop
      vertex 39.338 10.8226 0.391
      vertex 39.338 10.8226 0.091
      vertex 39.1903 10.2219 0.391
    endloop
  endfacet
  facet normal -0.955664 0.29446 0
    outer loop
      vertex 39.0098 9.63609 0.091
      vertex 39.0098 9.63609 0.391
      vertex 39.1903 10.2219 0.091
    endloop
  endfacet
  facet normal -0.955664 0.29446 0
    outer loop
      vertex 39.1903 10.2219 0.391
      vertex 39.1903 10.2219 0.091
      vertex 39.0098 9.63609 0.391
    endloop
  endfacet
  facet normal -0.936747 0.350006 0
    outer loop
      vertex 38.7965 9.06522 0.091
      vertex 38.7965 9.06522 0.391
      vertex 39.0098 9.63609 0.091
    endloop
  endfacet
  facet normal -0.936747 0.350006 0
    outer loop
      vertex 39.0098 9.63609 0.391
      vertex 39.0098 9.63609 0.091
      vertex 38.7965 9.06522 0.391
    endloop
  endfacet
  facet normal -0.91442 0.404768 0
    outer loop
      vertex 38.5504 8.50925 0.091
      vertex 38.5504 8.50925 0.391
      vertex 38.7965 9.06522 0.091
    endloop
  endfacet
  facet normal -0.91442 0.404768 0
    outer loop
      vertex 38.7965 9.06522 0.391
      vertex 38.7965 9.06522 0.091
      vertex 38.5504 8.50925 0.391
    endloop
  endfacet
  facet normal -0.888859 0.45818 0
    outer loop
      vertex 38.2715 7.96819 0.091
      vertex 38.2715 7.96819 0.391
      vertex 38.5504 8.50925 0.091
    endloop
  endfacet
  facet normal -0.888859 0.45818 0
    outer loop
      vertex 38.5504 8.50925 0.391
      vertex 38.5504 8.50925 0.091
      vertex 38.2715 7.96819 0.391
    endloop
  endfacet
  facet normal -0.860366 0.509676 0
    outer loop
      vertex 37.9598 7.44202 0.091
      vertex 37.9598 7.44202 0.391
      vertex 38.2715 7.96819 0.091
    endloop
  endfacet
  facet normal -0.860366 0.509676 0
    outer loop
      vertex 38.2715 7.96819 0.391
      vertex 38.2715 7.96819 0.091
      vertex 37.9598 7.44202 0.391
    endloop
  endfacet
  facet normal -0.82922 0.558923 0
    outer loop
      vertex 37.6152 6.93077 0.091
      vertex 37.6152 6.93077 0.391
      vertex 37.9598 7.44202 0.091
    endloop
  endfacet
  facet normal -0.82922 0.558923 0
    outer loop
      vertex 37.9598 7.44202 0.391
      vertex 37.9598 7.44202 0.091
      vertex 37.6152 6.93077 0.391
    endloop
  endfacet
  facet normal -0.796099 0.605166 0
    outer loop
      vertex 37.2379 6.43443 0.091
      vertex 37.2379 6.43443 0.391
      vertex 37.6152 6.93077 0.091
    endloop
  endfacet
  facet normal -0.796099 0.605166 0
    outer loop
      vertex 37.6152 6.93077 0.391
      vertex 37.6152 6.93077 0.091
      vertex 37.2379 6.43443 0.391
    endloop
  endfacet
  facet normal -0.761171 0.648552 0
    outer loop
      vertex 36.8277 5.953 0.091
      vertex 36.8277 5.953 0.391
      vertex 37.2379 6.43443 0.091
    endloop
  endfacet
  facet normal -0.761171 0.648552 0
    outer loop
      vertex 37.2379 6.43443 0.391
      vertex 37.2379 6.43443 0.091
      vertex 36.8277 5.953 0.391
    endloop
  endfacet
  facet normal -0.724663 0.689103 0
    outer loop
      vertex 36.3944 5.49734 0.091
      vertex 36.3944 5.49734 0.391
      vertex 36.8277 5.953 0.091
    endloop
  endfacet
  facet normal -0.724663 0.689103 0
    outer loop
      vertex 36.8277 5.953 0.391
      vertex 36.8277 5.953 0.091
      vertex 36.3944 5.49734 0.391
    endloop
  endfacet
  facet normal -0.684287 0.729212 0
    outer loop
      vertex 35.9477 5.07816 0.091
      vertex 35.9477 5.07816 0.391
      vertex 36.3944 5.49734 0.091
    endloop
  endfacet
  facet normal -0.684287 0.729212 0
    outer loop
      vertex 36.3944 5.49734 0.391
      vertex 36.3944 5.49734 0.091
      vertex 35.9477 5.07816 0.391
    endloop
  endfacet
  facet normal -0.639455 0.768829 0
    outer loop
      vertex 35.4875 4.6954 0.091
      vertex 35.4875 4.6954 0.391
      vertex 35.9477 5.07816 0.091
    endloop
  endfacet
  facet normal -0.639455 0.768829 0
    outer loop
      vertex 35.9477 5.07816 0.391
      vertex 35.9477 5.07816 0.091
      vertex 35.4875 4.6954 0.391
    endloop
  endfacet
  facet normal -0.590306 0.807179 0
    outer loop
      vertex 35.014 4.34912 0.091
      vertex 35.014 4.34912 0.391
      vertex 35.4875 4.6954 0.091
    endloop
  endfacet
  facet normal -0.590306 0.807179 0
    outer loop
      vertex 35.4875 4.6954 0.391
      vertex 35.4875 4.6954 0.091
      vertex 35.014 4.34912 0.391
    endloop
  endfacet
  facet normal -0.53679 0.843716 0
    outer loop
      vertex 34.527 4.03928 0.091
      vertex 34.527 4.03928 0.391
      vertex 35.014 4.34912 0.091
    endloop
  endfacet
  facet normal -0.53679 0.843716 0
    outer loop
      vertex 35.014 4.34912 0.391
      vertex 35.014 4.34912 0.091
      vertex 34.527 4.03928 0.391
    endloop
  endfacet
  facet normal -0.479466 0.87756 0
    outer loop
      vertex 34.0266 3.76588 0.091
      vertex 34.0266 3.76588 0.391
      vertex 34.527 4.03928 0.091
    endloop
  endfacet
  facet normal -0.479466 0.87756 0
    outer loop
      vertex 34.527 4.03928 0.391
      vertex 34.527 4.03928 0.091
      vertex 34.0266 3.76588 0.391
    endloop
  endfacet
  facet normal -0.418687 0.908131 0
    outer loop
      vertex 33.5127 3.52895 0.091
      vertex 33.5127 3.52895 0.391
      vertex 34.0266 3.76588 0.091
    endloop
  endfacet
  facet normal -0.418687 0.908131 0
    outer loop
      vertex 34.0266 3.76588 0.391
      vertex 34.0266 3.76588 0.091
      vertex 33.5127 3.52895 0.391
    endloop
  endfacet
  facet normal -0.355425 0.934705 0
    outer loop
      vertex 32.9855 3.32848 0.091
      vertex 32.9855 3.32848 0.391
      vertex 33.5127 3.52895 0.091
    endloop
  endfacet
  facet normal -0.355425 0.934705 0
    outer loop
      vertex 33.5127 3.52895 0.391
      vertex 33.5127 3.52895 0.091
      vertex 32.9855 3.32848 0.391
    endloop
  endfacet
  facet normal -0.290334 0.956925 0
    outer loop
      vertex 32.4448 3.16443 0.091
      vertex 32.4448 3.16443 0.391
      vertex 32.9855 3.32848 0.091
    endloop
  endfacet
  facet normal -0.290334 0.956925 0
    outer loop
      vertex 32.9855 3.32848 0.391
      vertex 32.9855 3.32848 0.091
      vertex 32.4448 3.16443 0.391
    endloop
  endfacet
  facet normal -0.224377 0.974503 0
    outer loop
      vertex 31.8907 3.03685 0.091
      vertex 31.8907 3.03685 0.391
      vertex 32.4448 3.16443 0.091
    endloop
  endfacet
  facet normal -0.224377 0.974503 0
    outer loop
      vertex 32.4448 3.16443 0.391
      vertex 32.4448 3.16443 0.091
      vertex 31.8907 3.03685 0.391
    endloop
  endfacet
  facet normal -0.158523 0.987355 0
    outer loop
      vertex 31.3231 2.94572 0.091
      vertex 31.3231 2.94572 0.391
      vertex 31.8907 3.03685 0.091
    endloop
  endfacet
  facet normal -0.158523 0.987355 0
    outer loop
      vertex 31.8907 3.03685 0.391
      vertex 31.8907 3.03685 0.091
      vertex 31.3231 2.94572 0.391
    endloop
  endfacet
  facet normal -0.0936985 0.995601 0
    outer loop
      vertex 30.7422 2.89105 0.091
      vertex 30.7422 2.89105 0.391
      vertex 31.3231 2.94572 0.091
    endloop
  endfacet
  facet normal -0.0936985 0.995601 0
    outer loop
      vertex 31.3231 2.94572 0.391
      vertex 31.3231 2.94572 0.091
      vertex 30.7422 2.89105 0.391
    endloop
  endfacet
  facet normal -0.0306552 0.99953 0
    outer loop
      vertex 30.1478 2.87282 0.091
      vertex 30.1478 2.87282 0.391
      vertex 30.7422 2.89105 0.091
    endloop
  endfacet
  facet normal -0.0306552 0.99953 0
    outer loop
      vertex 30.7422 2.89105 0.391
      vertex 30.7422 2.89105 0.091
      vertex 30.1478 2.87282 0.391
    endloop
  endfacet
  facet normal 0 1 0
    outer loop
      vertex 14.3935 2.87282 0.091
      vertex 14.3935 2.87282 0.391
      vertex 30.1478 2.87282 0.091
    endloop
  endfacet
  facet normal 0 1 0
    outer loop
      vertex 30.1478 2.87282 0.391
      vertex 30.1478 2.87282 0.091
      vertex 14.3935 2.87282 0.391
    endloop
  endfacet
endsolid OpenSCAD_Model
