solid OpenSCAD_Model
  facet normal 0 0 -1
    outer loop
      vertex 46.3511 32.4143 -0.391
      vertex 41.2159 32.4143 -0.391
      vertex 46.1462 32.5854 -0.391
    endloop
  endfacet
  facet normal 0 0 -1
    outer loop
      vertex 44.3016 33.3674 -0.391
      vertex 45.7194 32.8786 -0.391
      vertex 45.9357 32.7402 -0.391
    endloop
  endfacet
  facet normal 0 0 -1
    outer loop
      vertex 42.2971 33.1067 -0.391
      vertex 42.5305 33.1963 -0.391
      vertex 42.7696 33.2697 -0.391
    endloop
  endfacet
  facet normal 0 0 -1
    outer loop
      vertex 43.0144 33.3267 -0.391
      vertex 42.0694 33.0008 -0.391
      vertex 42.7696 33.2697 -0.391
    endloop
  endfacet
  facet normal 0 0 -1
    outer loop
      vertex 43.5212 33.3918 -0.391
      vertex 41.6312 32.7402 -0.391
      vertex 43.265 33.3674 -0.391
    endloop
  endfacet
  facet normal 0 0 -1
    outer loop
      vertex 43.0144 33.3267 -0.391
      vertex 41.8475 32.8786 -0.391
      vertex 42.0694 33.0008 -0.391
    endloop
  endfacet
  facet normal 0 -0 -1
    outer loop
      vertex 42.2971 33.1067 -0.391
      vertex 42.7696 33.2697 -0.391
      vertex 42.0694 33.0008 -0.391
    endloop
  endfacet
  facet normal 0 0 -1
    outer loop
      vertex 43.265 33.3674 -0.391
      vertex 41.8475 32.8786 -0.391
      vertex 43.0144 33.3267 -0.391
    endloop
  endfacet
  facet normal 0 0 -1
    outer loop
      vertex 43.265 33.3674 -0.391
      vertex 41.6312 32.7402 -0.391
      vertex 41.8475 32.8786 -0.391
    endloop
  endfacet
  facet normal -0 -0 -1
    outer loop
      vertex 45.9357 32.7402 -0.391
      vertex 46.1462 32.5854 -0.391
      vertex 44.0452 33.3918 -0.391
    endloop
  endfacet
  facet normal -0 -0 -1
    outer loop
      vertex 44.3016 33.3674 -0.391
      vertex 45.9357 32.7402 -0.391
      vertex 44.0452 33.3918 -0.391
    endloop
  endfacet
  facet normal -0 -0 -1
    outer loop
      vertex 45.4974 33.0008 -0.391
      vertex 45.7194 32.8786 -0.391
      vertex 44.5522 33.3267 -0.391
    endloop
  endfacet
  facet normal -0 -0 -1
    outer loop
      vertex 45.2697 33.1067 -0.391
      vertex 45.4974 33.0008 -0.391
      vertex 44.7971 33.2697 -0.391
    endloop
  endfacet
  facet normal -0 -0 -1
    outer loop
      vertex 45.0363 33.1963 -0.391
      vertex 45.2697 33.1067 -0.391
      vertex 44.7971 33.2697 -0.391
    endloop
  endfacet
  facet normal -0 -0 -1
    outer loop
      vertex 44.7971 33.2697 -0.391
      vertex 45.4974 33.0008 -0.391
      vertex 44.5522 33.3267 -0.391
    endloop
  endfacet
  facet normal -0 -0 -1
    outer loop
      vertex 44.5522 33.3267 -0.391
      vertex 45.7194 32.8786 -0.391
      vertex 44.3016 33.3674 -0.391
    endloop
  endfacet
  facet normal 0 0 -1
    outer loop
      vertex 46.1462 32.5854 -0.391
      vertex 43.7832 33.4 -0.391
      vertex 44.0452 33.3918 -0.391
    endloop
  endfacet
  facet normal 0 0 -1
    outer loop
      vertex 43.5212 33.3918 -0.391
      vertex 41.4207 32.5854 -0.391
      vertex 41.6312 32.7402 -0.391
    endloop
  endfacet
  facet normal 0 -0 -1
    outer loop
      vertex 43.5212 33.3918 -0.391
      vertex 43.7832 33.4 -0.391
      vertex 41.4207 32.5854 -0.391
    endloop
  endfacet
  facet normal 0 0 -1
    outer loop
      vertex 41.4207 32.5854 -0.391
      vertex 43.7832 33.4 -0.391
      vertex 46.1462 32.5854 -0.391
    endloop
  endfacet
  facet normal 0 0 -1
    outer loop
      vertex 41.2159 32.4143 -0.391
      vertex 41.4207 32.5854 -0.391
      vertex 46.1462 32.5854 -0.391
    endloop
  endfacet
  facet normal 0 0 -1
    outer loop
      vertex 46.5502 32.2269 -0.391
      vertex 41.2159 32.4143 -0.391
      vertex 46.3511 32.4143 -0.391
    endloop
  endfacet
  facet normal 0 0 -1
    outer loop
      vertex 46.5502 32.2269 -0.391
      vertex 41.0168 32.2269 -0.391
      vertex 41.2159 32.4143 -0.391
    endloop
  endfacet
  facet normal -0 0 -1
    outer loop
      vertex 46.5502 32.2269 -0.391
      vertex 40.8234 32.0233 -0.391
      vertex 41.0168 32.2269 -0.391
    endloop
  endfacet
  facet normal 0 -0 -1
    outer loop
      vertex 46.5502 32.2269 -0.391
      vertex 46.7436 32.0233 -0.391
      vertex 40.8234 32.0233 -0.391
    endloop
  endfacet
  facet normal 0 0 -1
    outer loop
      vertex 40.8234 32.0233 -0.391
      vertex 46.7436 32.0233 -0.391
      vertex 46.9268 31.8082 -0.391
    endloop
  endfacet
  facet normal 0 0 -1
    outer loop
      vertex 40.6352 31.8082 -0.391
      vertex 40.8234 32.0233 -0.391
      vertex 46.9268 31.8082 -0.391
    endloop
  endfacet
  facet normal 0 0 -1
    outer loop
      vertex 47.0953 31.5868 -0.391
      vertex 40.6352 31.8082 -0.391
      vertex 46.9268 31.8082 -0.391
    endloop
  endfacet
  facet normal -0 -0 -1
    outer loop
      vertex 47.0953 31.5868 -0.391
      vertex 47.2492 31.359 -0.391
      vertex 40.6352 31.8082 -0.391
    endloop
  endfacet
  facet normal 0 0 -1
    outer loop
      vertex 40.6352 31.8082 -0.391
      vertex 47.2492 31.359 -0.391
      vertex 47.3884 31.1249 -0.391
    endloop
  endfacet
  facet normal 0 0 -1
    outer loop
      vertex 47.513 30.8845 -0.391
      vertex 40.6352 31.8082 -0.391
      vertex 47.3884 31.1249 -0.391
    endloop
  endfacet
  facet normal -0 -0 -1
    outer loop
      vertex 47.513 30.8845 -0.391
      vertex 47.6229 30.6377 -0.391
      vertex 40.6352 31.8082 -0.391
    endloop
  endfacet
  facet normal 0 0 -1
    outer loop
      vertex 40.6352 31.8082 -0.391
      vertex 47.6229 30.6377 -0.391
      vertex 47.7182 30.3846 -0.391
    endloop
  endfacet
  facet normal 0 0 -1
    outer loop
      vertex 40.4518 31.5868 -0.391
      vertex 40.6352 31.8082 -0.391
      vertex 47.7182 30.3846 -0.391
    endloop
  endfacet
  facet normal 0 0 -1
    outer loop
      vertex 47.7988 30.1251 -0.391
      vertex 40.4518 31.5868 -0.391
      vertex 47.7182 30.3846 -0.391
    endloop
  endfacet
  facet normal -0 -0 -1
    outer loop
      vertex 47.7988 30.1251 -0.391
      vertex 47.8647 29.8593 -0.391
      vertex 40.4518 31.5868 -0.391
    endloop
  endfacet
  facet normal 0 0 -1
    outer loop
      vertex 40.4518 31.5868 -0.391
      vertex 47.8647 29.8593 -0.391
      vertex 47.916 29.5871 -0.391
    endloop
  endfacet
  facet normal 0 0 -1
    outer loop
      vertex 47.9527 29.3086 -0.391
      vertex 40.4518 31.5868 -0.391
      vertex 47.916 29.5871 -0.391
    endloop
  endfacet
  facet normal 0 0 -1
    outer loop
      vertex 47.9527 29.3086 -0.391
      vertex 40.273 31.359 -0.391
      vertex 40.4518 31.5868 -0.391
    endloop
  endfacet
  facet normal -0 -0 -1
    outer loop
      vertex 47.9527 29.3086 -0.391
      vertex 47.9746 29.0238 -0.391
      vertex 40.273 31.359 -0.391
    endloop
  endfacet
  facet normal 0 0 -1
    outer loop
      vertex 40.273 31.359 -0.391
      vertex 47.9746 29.0238 -0.391
      vertex 47.982 28.7326 -0.391
    endloop
  endfacet
  facet normal 0 0 -1
    outer loop
      vertex 47.972 28.4333 -0.391
      vertex 40.273 31.359 -0.391
      vertex 47.982 28.7326 -0.391
    endloop
  endfacet
  facet normal -0 0 -1
    outer loop
      vertex 47.972 28.4333 -0.391
      vertex 47.9422 28.124 -0.391
      vertex 40.273 31.359 -0.391
    endloop
  endfacet
  facet normal 0 -0 -1
    outer loop
      vertex 40.273 31.359 -0.391
      vertex 47.9422 28.124 -0.391
      vertex 40.099 31.1249 -0.391
    endloop
  endfacet
  facet normal 0 0 -1
    outer loop
      vertex 40.099 31.1249 -0.391
      vertex 47.9422 28.124 -0.391
      vertex 47.8925 27.8047 -0.391
    endloop
  endfacet
  facet normal 0 0 -1
    outer loop
      vertex 47.823 27.4756 -0.391
      vertex 40.099 31.1249 -0.391
      vertex 47.8925 27.8047 -0.391
    endloop
  endfacet
  facet normal 0 0 -1
    outer loop
      vertex 47.823 27.4756 -0.391
      vertex 39.9297 30.8845 -0.391
      vertex 40.099 31.1249 -0.391
    endloop
  endfacet
  facet normal -0 0 -1
    outer loop
      vertex 47.823 27.4756 -0.391
      vertex 47.7336 27.1364 -0.391
      vertex 39.9297 30.8845 -0.391
    endloop
  endfacet
  facet normal 0 -0 -1
    outer loop
      vertex 39.9297 30.8845 -0.391
      vertex 47.7336 27.1364 -0.391
      vertex 39.7651 30.6377 -0.391
    endloop
  endfacet
  facet normal 0 0 -1
    outer loop
      vertex 39.7651 30.6377 -0.391
      vertex 47.7336 27.1364 -0.391
      vertex 47.6243 26.7874 -0.391
    endloop
  endfacet
  facet normal 0 0 -1
    outer loop
      vertex 39.6052 30.3846 -0.391
      vertex 39.7651 30.6377 -0.391
      vertex 47.6243 26.7874 -0.391
    endloop
  endfacet
  facet normal 0 0 -1
    outer loop
      vertex 47.4951 26.4283 -0.391
      vertex 39.6052 30.3846 -0.391
      vertex 47.6243 26.7874 -0.391
    endloop
  endfacet
  facet normal 0 0 -1
    outer loop
      vertex 47.4951 26.4283 -0.391
      vertex 39.45 30.1251 -0.391
      vertex 39.6052 30.3846 -0.391
    endloop
  endfacet
  facet normal -0 0 -1
    outer loop
      vertex 47.4951 26.4283 -0.391
      vertex 47.346 26.0593 -0.391
      vertex 39.45 30.1251 -0.391
    endloop
  endfacet
  facet normal 0 -0 -1
    outer loop
      vertex 39.45 30.1251 -0.391
      vertex 47.346 26.0593 -0.391
      vertex 39.2995 29.8593 -0.391
    endloop
  endfacet
  facet normal 0 0 -1
    outer loop
      vertex 39.2995 29.8593 -0.391
      vertex 47.346 26.0593 -0.391
      vertex 47.1771 25.6804 -0.391
    endloop
  endfacet
  facet normal 0 0 -1
    outer loop
      vertex 39.1538 29.5871 -0.391
      vertex 39.2995 29.8593 -0.391
      vertex 47.1771 25.6804 -0.391
    endloop
  endfacet
  facet normal 0 0 -1
    outer loop
      vertex 46.9883 25.2915 -0.391
      vertex 39.1538 29.5871 -0.391
      vertex 47.1771 25.6804 -0.391
    endloop
  endfacet
  facet normal 0 0 -1
    outer loop
      vertex 46.9883 25.2915 -0.391
      vertex 39.0127 29.3086 -0.391
      vertex 39.1538 29.5871 -0.391
    endloop
  endfacet
  facet normal 0 0 -1
    outer loop
      vertex 46.9883 25.2915 -0.391
      vertex 38.8764 29.0238 -0.391
      vertex 39.0127 29.3086 -0.391
    endloop
  endfacet
  facet normal -0 0 -1
    outer loop
      vertex 46.9883 25.2915 -0.391
      vertex 46.7796 24.8927 -0.391
      vertex 38.8764 29.0238 -0.391
    endloop
  endfacet
  facet normal 0 -0 -1
    outer loop
      vertex 38.8764 29.0238 -0.391
      vertex 46.7796 24.8927 -0.391
      vertex 38.7447 28.7326 -0.391
    endloop
  endfacet
  facet normal 0 0 -1
    outer loop
      vertex 38.7447 28.7326 -0.391
      vertex 46.7796 24.8927 -0.391
      vertex 46.5511 24.4839 -0.391
    endloop
  endfacet
  facet normal 0 0 -1
    outer loop
      vertex 46.3027 24.0652 -0.391
      vertex 38.7447 28.7326 -0.391
      vertex 46.5511 24.4839 -0.391
    endloop
  endfacet
  facet normal -0 0 -1
    outer loop
      vertex 46.3027 24.0652 -0.391
      vertex 32.2505 -0.699997 -0.391
      vertex 38.7447 28.7326 -0.391
    endloop
  endfacet
  facet normal 0 0 -1
    outer loop
      vertex 38.7447 28.7326 -0.391
      vertex 32.2505 -0.699997 -0.391
      vertex 22.3713 -0.111786 -0.391
    endloop
  endfacet
  facet normal 0 -0 -1
    outer loop
      vertex 22.3713 -0.111786 -0.391
      vertex 32.2505 -0.699997 -0.391
      vertex 5.99527 -0.699997 -0.391
    endloop
  endfacet
  facet normal 0 -0 -1
    outer loop
      vertex 14.3935 9.36264 -0.391
      vertex 22.3713 -0.111786 -0.391
      vertex 5.99527 -0.699997 -0.391
    endloop
  endfacet
  facet normal 0 0 -1
    outer loop
      vertex 9.93262 33.3918 -0.391
      vertex 8.04187 32.7402 -0.391
      vertex 9.67628 33.3674 -0.391
    endloop
  endfacet
  facet normal 0 -0 -1
    outer loop
      vertex 9.18073 33.2697 -0.391
      vertex 9.42564 33.3267 -0.391
      vertex 8.48027 33.0008 -0.391
    endloop
  endfacet
  facet normal 0 -0 -1
    outer loop
      vertex 8.48027 33.0008 -0.391
      vertex 9.42564 33.3267 -0.391
      vertex 8.25822 32.8786 -0.391
    endloop
  endfacet
  facet normal 0 0 -1
    outer loop
      vertex 8.48027 33.0008 -0.391
      vertex 8.70804 33.1067 -0.391
      vertex 9.18073 33.2697 -0.391
    endloop
  endfacet
  facet normal 0 0 -1
    outer loop
      vertex 9.18073 33.2697 -0.391
      vertex 8.70804 33.1067 -0.391
      vertex 8.94153 33.1963 -0.391
    endloop
  endfacet
  facet normal 0 0 -1
    outer loop
      vertex 8.25822 32.8786 -0.391
      vertex 9.42564 33.3267 -0.391
      vertex 9.67628 33.3674 -0.391
    endloop
  endfacet
  facet normal 0 0 -1
    outer loop
      vertex 8.04187 32.7402 -0.391
      vertex 8.25822 32.8786 -0.391
      vertex 9.67628 33.3674 -0.391
    endloop
  endfacet
  facet normal 0 0 -1
    outer loop
      vertex 12.5572 32.5854 -0.391
      vertex 10.4566 33.3918 -0.391
      vertex 12.3466 32.7402 -0.391
    endloop
  endfacet
  facet normal 0 0 -1
    outer loop
      vertex 12.3466 32.7402 -0.391
      vertex 10.4566 33.3918 -0.391
      vertex 10.7129 33.3674 -0.391
    endloop
  endfacet
  facet normal -0 -0 -1
    outer loop
      vertex 12.1304 32.8786 -0.391
      vertex 12.3466 32.7402 -0.391
      vertex 10.7129 33.3674 -0.391
    endloop
  endfacet
  facet normal -0 -0 -1
    outer loop
      vertex 11.9084 33.0008 -0.391
      vertex 12.1304 32.8786 -0.391
      vertex 10.9635 33.3267 -0.391
    endloop
  endfacet
  facet normal -0 -0 -1
    outer loop
      vertex 11.6808 33.1067 -0.391
      vertex 11.9084 33.0008 -0.391
      vertex 11.2083 33.2697 -0.391
    endloop
  endfacet
  facet normal -0 -0 -1
    outer loop
      vertex 11.4474 33.1963 -0.391
      vertex 11.6808 33.1067 -0.391
      vertex 11.2083 33.2697 -0.391
    endloop
  endfacet
  facet normal -0 -0 -1
    outer loop
      vertex 11.2083 33.2697 -0.391
      vertex 11.9084 33.0008 -0.391
      vertex 10.9635 33.3267 -0.391
    endloop
  endfacet
  facet normal -0 -0 -1
    outer loop
      vertex 10.9635 33.3267 -0.391
      vertex 12.1304 32.8786 -0.391
      vertex 10.7129 33.3674 -0.391
    endloop
  endfacet
  facet normal 0 0 -1
    outer loop
      vertex 12.5572 32.5854 -0.391
      vertex 10.1947 33.4 -0.391
      vertex 10.4566 33.3918 -0.391
    endloop
  endfacet
  facet normal 0 0 -1
    outer loop
      vertex 9.93262 33.3918 -0.391
      vertex 7.83125 32.5854 -0.391
      vertex 8.04187 32.7402 -0.391
    endloop
  endfacet
  facet normal 0 -0 -1
    outer loop
      vertex 9.93262 33.3918 -0.391
      vertex 10.1947 33.4 -0.391
      vertex 7.83125 32.5854 -0.391
    endloop
  endfacet
  facet normal 0 0 -1
    outer loop
      vertex 7.83125 32.5854 -0.391
      vertex 10.1947 33.4 -0.391
      vertex 12.5572 32.5854 -0.391
    endloop
  endfacet
  facet normal 0 0 -1
    outer loop
      vertex 12.762 32.4143 -0.391
      vertex 7.83125 32.5854 -0.391
      vertex 12.5572 32.5854 -0.391
    endloop
  endfacet
  facet normal 0 0 -1
    outer loop
      vertex 12.762 32.4143 -0.391
      vertex 7.62634 32.4143 -0.391
      vertex 7.83125 32.5854 -0.391
    endloop
  endfacet
  facet normal -0 -0 -1
    outer loop
      vertex 12.762 32.4143 -0.391
      vertex 12.9611 32.2269 -0.391
      vertex 7.62634 32.4143 -0.391
    endloop
  endfacet
  facet normal 0 -0 -1
    outer loop
      vertex 7.62634 32.4143 -0.391
      vertex 12.9611 32.2269 -0.391
      vertex 7.42715 32.2269 -0.391
    endloop
  endfacet
  facet normal 0 0 -1
    outer loop
      vertex 7.42715 32.2269 -0.391
      vertex 12.9611 32.2269 -0.391
      vertex 13.1545 32.0233 -0.391
    endloop
  endfacet
  facet normal 0 0 -1
    outer loop
      vertex 7.23367 32.0233 -0.391
      vertex 7.42715 32.2269 -0.391
      vertex 13.1545 32.0233 -0.391
    endloop
  endfacet
  facet normal 0 0 -1
    outer loop
      vertex 7.05048 31.8082 -0.391
      vertex 7.23367 32.0233 -0.391
      vertex 13.1545 32.0233 -0.391
    endloop
  endfacet
  facet normal 0 0 -1
    outer loop
      vertex 13.3378 31.8082 -0.391
      vertex 7.05048 31.8082 -0.391
      vertex 13.1545 32.0233 -0.391
    endloop
  endfacet
  facet normal -0 0 -1
    outer loop
      vertex 13.3378 31.8082 -0.391
      vertex 6.88194 31.5868 -0.391
      vertex 7.05048 31.8082 -0.391
    endloop
  endfacet
  facet normal 0 -0 -1
    outer loop
      vertex 13.3378 31.8082 -0.391
      vertex 13.5064 31.5868 -0.391
      vertex 6.88194 31.5868 -0.391
    endloop
  endfacet
  facet normal 0 -0 -1
    outer loop
      vertex 6.88194 31.5868 -0.391
      vertex 13.5064 31.5868 -0.391
      vertex 6.72806 31.359 -0.391
    endloop
  endfacet
  facet normal 0 0 -1
    outer loop
      vertex 6.72806 31.359 -0.391
      vertex 13.5064 31.5868 -0.391
      vertex 13.6603 31.359 -0.391
    endloop
  endfacet
  facet normal 0 0 -1
    outer loop
      vertex 6.58884 31.1249 -0.391
      vertex 6.72806 31.359 -0.391
      vertex 13.6603 31.359 -0.391
    endloop
  endfacet
  facet normal 0 0 -1
    outer loop
      vertex 13.7997 31.1249 -0.391
      vertex 6.58884 31.1249 -0.391
      vertex 13.6603 31.359 -0.391
    endloop
  endfacet
  facet normal -0 0 -1
    outer loop
      vertex 13.7997 31.1249 -0.391
      vertex 6.46425 30.8845 -0.391
      vertex 6.58884 31.1249 -0.391
    endloop
  endfacet
  facet normal 0 -0 -1
    outer loop
      vertex 13.7997 31.1249 -0.391
      vertex 13.9243 30.8845 -0.391
      vertex 6.46425 30.8845 -0.391
    endloop
  endfacet
  facet normal 0 -0 -1
    outer loop
      vertex 6.46425 30.8845 -0.391
      vertex 13.9243 30.8845 -0.391
      vertex 6.35435 30.6377 -0.391
    endloop
  endfacet
  facet normal 0 0 -1
    outer loop
      vertex 6.35435 30.6377 -0.391
      vertex 13.9243 30.8845 -0.391
      vertex 14.0342 30.6377 -0.391
    endloop
  endfacet
  facet normal 0 0 -1
    outer loop
      vertex 6.25908 30.3846 -0.391
      vertex 6.35435 30.6377 -0.391
      vertex 14.0342 30.6377 -0.391
    endloop
  endfacet
  facet normal 0 0 -1
    outer loop
      vertex 14.1295 30.3846 -0.391
      vertex 6.25908 30.3846 -0.391
      vertex 14.0342 30.6377 -0.391
    endloop
  endfacet
  facet normal -0 0 -1
    outer loop
      vertex 14.1295 30.3846 -0.391
      vertex 6.17847 30.1251 -0.391
      vertex 6.25908 30.3846 -0.391
    endloop
  endfacet
  facet normal 0 -0 -1
    outer loop
      vertex 14.1295 30.3846 -0.391
      vertex 14.2102 30.1251 -0.391
      vertex 6.17847 30.1251 -0.391
    endloop
  endfacet
  facet normal 0 -0 -1
    outer loop
      vertex 6.17847 30.1251 -0.391
      vertex 14.2102 30.1251 -0.391
      vertex 6.11252 29.8593 -0.391
    endloop
  endfacet
  facet normal 0 0 -1
    outer loop
      vertex 6.11252 29.8593 -0.391
      vertex 14.2102 30.1251 -0.391
      vertex 14.2762 29.8593 -0.391
    endloop
  endfacet
  facet normal 0 0 -1
    outer loop
      vertex 6.06123 29.5871 -0.391
      vertex 6.11252 29.8593 -0.391
      vertex 14.2762 29.8593 -0.391
    endloop
  endfacet
  facet normal 0 0 -1
    outer loop
      vertex 14.3275 29.5871 -0.391
      vertex 6.06123 29.5871 -0.391
      vertex 14.2762 29.8593 -0.391
    endloop
  endfacet
  facet normal -0 0 -1
    outer loop
      vertex 14.3275 29.5871 -0.391
      vertex 6.0246 29.3086 -0.391
      vertex 6.06123 29.5871 -0.391
    endloop
  endfacet
  facet normal 0 -0 -1
    outer loop
      vertex 14.3275 29.5871 -0.391
      vertex 14.3642 29.3086 -0.391
      vertex 6.0246 29.3086 -0.391
    endloop
  endfacet
  facet normal 0 -0 -1
    outer loop
      vertex 6.0246 29.3086 -0.391
      vertex 14.3642 29.3086 -0.391
      vertex 6.00261 29.0238 -0.391
    endloop
  endfacet
  facet normal 0 0 -1
    outer loop
      vertex 6.00261 29.0238 -0.391
      vertex 14.3642 29.3086 -0.391
      vertex 14.3862 29.0238 -0.391
    endloop
  endfacet
  facet normal 0 0 -1
    outer loop
      vertex 14.3935 28.7326 -0.391
      vertex 6.00261 29.0238 -0.391
      vertex 14.3862 29.0238 -0.391
    endloop
  endfacet
  facet normal 0 0 -1
    outer loop
      vertex 14.3935 28.7326 -0.391
      vertex 5.99527 28.7326 -0.391
      vertex 6.00261 29.0238 -0.391
    endloop
  endfacet
  facet normal -0 -0 -1
    outer loop
      vertex 14.3935 28.7326 -0.391
      vertex 14.3935 9.36264 -0.391
      vertex 5.99527 28.7326 -0.391
    endloop
  endfacet
  facet normal 0 0 -1
    outer loop
      vertex 5.99527 28.7326 -0.391
      vertex 14.3935 9.36264 -0.391
      vertex 5.99527 -0.699997 -0.391
    endloop
  endfacet
  facet normal 0 0 1
    outer loop
      vertex 46.1462 32.5854 -0.091
      vertex 41.2159 32.4143 -0.091
      vertex 46.3511 32.4143 -0.091
    endloop
  endfacet
  facet normal 0 0 1
    outer loop
      vertex 45.9357 32.7402 -0.091
      vertex 45.7194 32.8786 -0.091
      vertex 44.3016 33.3674 -0.091
    endloop
  endfacet
  facet normal 0 0 1
    outer loop
      vertex 42.7696 33.2697 -0.091
      vertex 42.5305 33.1963 -0.091
      vertex 42.2971 33.1067 -0.091
    endloop
  endfacet
  facet normal -0 0 1
    outer loop
      vertex 42.7696 33.2697 -0.091
      vertex 42.0694 33.0008 -0.091
      vertex 43.0144 33.3267 -0.091
    endloop
  endfacet
  facet normal -0 0 1
    outer loop
      vertex 43.265 33.3674 -0.091
      vertex 41.6312 32.7402 -0.091
      vertex 43.5212 33.3918 -0.091
    endloop
  endfacet
  facet normal -0 0 1
    outer loop
      vertex 42.0694 33.0008 -0.091
      vertex 41.8475 32.8786 -0.091
      vertex 43.0144 33.3267 -0.091
    endloop
  endfacet
  facet normal 0 0 1
    outer loop
      vertex 42.0694 33.0008 -0.091
      vertex 42.7696 33.2697 -0.091
      vertex 42.2971 33.1067 -0.091
    endloop
  endfacet
  facet normal -0 0 1
    outer loop
      vertex 43.0144 33.3267 -0.091
      vertex 41.8475 32.8786 -0.091
      vertex 43.265 33.3674 -0.091
    endloop
  endfacet
  facet normal -0 0 1
    outer loop
      vertex 41.8475 32.8786 -0.091
      vertex 41.6312 32.7402 -0.091
      vertex 43.265 33.3674 -0.091
    endloop
  endfacet
  facet normal 0 0 1
    outer loop
      vertex 44.0452 33.3918 -0.091
      vertex 46.1462 32.5854 -0.091
      vertex 45.9357 32.7402 -0.091
    endloop
  endfacet
  facet normal 0 0 1
    outer loop
      vertex 44.0452 33.3918 -0.091
      vertex 45.9357 32.7402 -0.091
      vertex 44.3016 33.3674 -0.091
    endloop
  endfacet
  facet normal 0 0 1
    outer loop
      vertex 44.5522 33.3267 -0.091
      vertex 45.7194 32.8786 -0.091
      vertex 45.4974 33.0008 -0.091
    endloop
  endfacet
  facet normal 0 0 1
    outer loop
      vertex 44.7971 33.2697 -0.091
      vertex 45.4974 33.0008 -0.091
      vertex 45.2697 33.1067 -0.091
    endloop
  endfacet
  facet normal 0 0 1
    outer loop
      vertex 44.7971 33.2697 -0.091
      vertex 45.2697 33.1067 -0.091
      vertex 45.0363 33.1963 -0.091
    endloop
  endfacet
  facet normal 0 0 1
    outer loop
      vertex 44.5522 33.3267 -0.091
      vertex 45.4974 33.0008 -0.091
      vertex 44.7971 33.2697 -0.091
    endloop
  endfacet
  facet normal 0 0 1
    outer loop
      vertex 44.3016 33.3674 -0.091
      vertex 45.7194 32.8786 -0.091
      vertex 44.5522 33.3267 -0.091
    endloop
  endfacet
  facet normal 0 0 1
    outer loop
      vertex 44.0452 33.3918 -0.091
      vertex 43.7832 33.4 -0.091
      vertex 46.1462 32.5854 -0.091
    endloop
  endfacet
  facet normal -0 0 1
    outer loop
      vertex 41.6312 32.7402 -0.091
      vertex 41.4207 32.5854 -0.091
      vertex 43.5212 33.3918 -0.091
    endloop
  endfacet
  facet normal 0 0 1
    outer loop
      vertex 41.4207 32.5854 -0.091
      vertex 43.7832 33.4 -0.091
      vertex 43.5212 33.3918 -0.091
    endloop
  endfacet
  facet normal 0 0 1
    outer loop
      vertex 46.1462 32.5854 -0.091
      vertex 43.7832 33.4 -0.091
      vertex 41.4207 32.5854 -0.091
    endloop
  endfacet
  facet normal 0 0 1
    outer loop
      vertex 46.1462 32.5854 -0.091
      vertex 41.4207 32.5854 -0.091
      vertex 41.2159 32.4143 -0.091
    endloop
  endfacet
  facet normal 0 0 1
    outer loop
      vertex 46.3511 32.4143 -0.091
      vertex 41.2159 32.4143 -0.091
      vertex 46.5502 32.2269 -0.091
    endloop
  endfacet
  facet normal 0 0 1
    outer loop
      vertex 41.2159 32.4143 -0.091
      vertex 41.0168 32.2269 -0.091
      vertex 46.5502 32.2269 -0.091
    endloop
  endfacet
  facet normal -0 0 1
    outer loop
      vertex 41.0168 32.2269 -0.091
      vertex 40.8234 32.0233 -0.091
      vertex 46.5502 32.2269 -0.091
    endloop
  endfacet
  facet normal 0 0 1
    outer loop
      vertex 40.8234 32.0233 -0.091
      vertex 46.7436 32.0233 -0.091
      vertex 46.5502 32.2269 -0.091
    endloop
  endfacet
  facet normal 0 0 1
    outer loop
      vertex 46.9268 31.8082 -0.091
      vertex 46.7436 32.0233 -0.091
      vertex 40.8234 32.0233 -0.091
    endloop
  endfacet
  facet normal 0 0 1
    outer loop
      vertex 46.9268 31.8082 -0.091
      vertex 40.8234 32.0233 -0.091
      vertex 40.6352 31.8082 -0.091
    endloop
  endfacet
  facet normal 0 0 1
    outer loop
      vertex 46.9268 31.8082 -0.091
      vertex 40.6352 31.8082 -0.091
      vertex 47.0953 31.5868 -0.091
    endloop
  endfacet
  facet normal 0 0 1
    outer loop
      vertex 40.6352 31.8082 -0.091
      vertex 47.2492 31.359 -0.091
      vertex 47.0953 31.5868 -0.091
    endloop
  endfacet
  facet normal 0 0 1
    outer loop
      vertex 47.3884 31.1249 -0.091
      vertex 47.2492 31.359 -0.091
      vertex 40.6352 31.8082 -0.091
    endloop
  endfacet
  facet normal 0 0 1
    outer loop
      vertex 47.3884 31.1249 -0.091
      vertex 40.6352 31.8082 -0.091
      vertex 47.513 30.8845 -0.091
    endloop
  endfacet
  facet normal 0 0 1
    outer loop
      vertex 40.6352 31.8082 -0.091
      vertex 47.6229 30.6377 -0.091
      vertex 47.513 30.8845 -0.091
    endloop
  endfacet
  facet normal 0 0 1
    outer loop
      vertex 47.7182 30.3846 -0.091
      vertex 47.6229 30.6377 -0.091
      vertex 40.6352 31.8082 -0.091
    endloop
  endfacet
  facet normal 0 0 1
    outer loop
      vertex 47.7182 30.3846 -0.091
      vertex 40.6352 31.8082 -0.091
      vertex 40.4518 31.5868 -0.091
    endloop
  endfacet
  facet normal 0 0 1
    outer loop
      vertex 47.7182 30.3846 -0.091
      vertex 40.4518 31.5868 -0.091
      vertex 47.7988 30.1251 -0.091
    endloop
  endfacet
  facet normal 0 0 1
    outer loop
      vertex 40.4518 31.5868 -0.091
      vertex 47.8647 29.8593 -0.091
      vertex 47.7988 30.1251 -0.091
    endloop
  endfacet
  facet normal 0 0 1
    outer loop
      vertex 47.916 29.5871 -0.091
      vertex 47.8647 29.8593 -0.091
      vertex 40.4518 31.5868 -0.091
    endloop
  endfacet
  facet normal 0 0 1
    outer loop
      vertex 47.916 29.5871 -0.091
      vertex 40.4518 31.5868 -0.091
      vertex 47.9527 29.3086 -0.091
    endloop
  endfacet
  facet normal 0 0 1
    outer loop
      vertex 40.4518 31.5868 -0.091
      vertex 40.273 31.359 -0.091
      vertex 47.9527 29.3086 -0.091
    endloop
  endfacet
  facet normal 0 0 1
    outer loop
      vertex 40.273 31.359 -0.091
      vertex 47.9746 29.0238 -0.091
      vertex 47.9527 29.3086 -0.091
    endloop
  endfacet
  facet normal 0 0 1
    outer loop
      vertex 47.982 28.7326 -0.091
      vertex 47.9746 29.0238 -0.091
      vertex 40.273 31.359 -0.091
    endloop
  endfacet
  facet normal 0 0 1
    outer loop
      vertex 47.982 28.7326 -0.091
      vertex 40.273 31.359 -0.091
      vertex 47.972 28.4333 -0.091
    endloop
  endfacet
  facet normal 0 0 1
    outer loop
      vertex 40.273 31.359 -0.091
      vertex 47.9422 28.124 -0.091
      vertex 47.972 28.4333 -0.091
    endloop
  endfacet
  facet normal -0 0 1
    outer loop
      vertex 40.099 31.1249 -0.091
      vertex 47.9422 28.124 -0.091
      vertex 40.273 31.359 -0.091
    endloop
  endfacet
  facet normal 0 -0 1
    outer loop
      vertex 47.8925 27.8047 -0.091
      vertex 47.9422 28.124 -0.091
      vertex 40.099 31.1249 -0.091
    endloop
  endfacet
  facet normal 0 0 1
    outer loop
      vertex 47.8925 27.8047 -0.091
      vertex 40.099 31.1249 -0.091
      vertex 47.823 27.4756 -0.091
    endloop
  endfacet
  facet normal 0 0 1
    outer loop
      vertex 40.099 31.1249 -0.091
      vertex 39.9297 30.8845 -0.091
      vertex 47.823 27.4756 -0.091
    endloop
  endfacet
  facet normal 0 0 1
    outer loop
      vertex 39.9297 30.8845 -0.091
      vertex 47.7336 27.1364 -0.091
      vertex 47.823 27.4756 -0.091
    endloop
  endfacet
  facet normal -0 0 1
    outer loop
      vertex 39.7651 30.6377 -0.091
      vertex 47.7336 27.1364 -0.091
      vertex 39.9297 30.8845 -0.091
    endloop
  endfacet
  facet normal 0 -0 1
    outer loop
      vertex 47.6243 26.7874 -0.091
      vertex 47.7336 27.1364 -0.091
      vertex 39.7651 30.6377 -0.091
    endloop
  endfacet
  facet normal 0 0 1
    outer loop
      vertex 47.6243 26.7874 -0.091
      vertex 39.7651 30.6377 -0.091
      vertex 39.6052 30.3846 -0.091
    endloop
  endfacet
  facet normal 0 0 1
    outer loop
      vertex 47.6243 26.7874 -0.091
      vertex 39.6052 30.3846 -0.091
      vertex 47.4951 26.4283 -0.091
    endloop
  endfacet
  facet normal 0 0 1
    outer loop
      vertex 39.6052 30.3846 -0.091
      vertex 39.45 30.1251 -0.091
      vertex 47.4951 26.4283 -0.091
    endloop
  endfacet
  facet normal 0 0 1
    outer loop
      vertex 39.45 30.1251 -0.091
      vertex 47.346 26.0593 -0.091
      vertex 47.4951 26.4283 -0.091
    endloop
  endfacet
  facet normal -0 0 1
    outer loop
      vertex 39.2995 29.8593 -0.091
      vertex 47.346 26.0593 -0.091
      vertex 39.45 30.1251 -0.091
    endloop
  endfacet
  facet normal 0 -0 1
    outer loop
      vertex 47.1771 25.6804 -0.091
      vertex 47.346 26.0593 -0.091
      vertex 39.2995 29.8593 -0.091
    endloop
  endfacet
  facet normal 0 0 1
    outer loop
      vertex 47.1771 25.6804 -0.091
      vertex 39.2995 29.8593 -0.091
      vertex 39.1538 29.5871 -0.091
    endloop
  endfacet
  facet normal 0 0 1
    outer loop
      vertex 47.1771 25.6804 -0.091
      vertex 39.1538 29.5871 -0.091
      vertex 46.9883 25.2915 -0.091
    endloop
  endfacet
  facet normal 0 0 1
    outer loop
      vertex 39.1538 29.5871 -0.091
      vertex 39.0127 29.3086 -0.091
      vertex 46.9883 25.2915 -0.091
    endloop
  endfacet
  facet normal 0 0 1
    outer loop
      vertex 39.0127 29.3086 -0.091
      vertex 38.8764 29.0238 -0.091
      vertex 46.9883 25.2915 -0.091
    endloop
  endfacet
  facet normal 0 0 1
    outer loop
      vertex 38.8764 29.0238 -0.091
      vertex 46.7796 24.8927 -0.091
      vertex 46.9883 25.2915 -0.091
    endloop
  endfacet
  facet normal -0 0 1
    outer loop
      vertex 38.7447 28.7326 -0.091
      vertex 46.7796 24.8927 -0.091
      vertex 38.8764 29.0238 -0.091
    endloop
  endfacet
  facet normal 0 -0 1
    outer loop
      vertex 46.5511 24.4839 -0.091
      vertex 46.7796 24.8927 -0.091
      vertex 38.7447 28.7326 -0.091
    endloop
  endfacet
  facet normal 0 0 1
    outer loop
      vertex 46.5511 24.4839 -0.091
      vertex 38.7447 28.7326 -0.091
      vertex 46.3027 24.0652 -0.091
    endloop
  endfacet
  facet normal 0 0 1
    outer loop
      vertex 38.7447 28.7326 -0.091
      vertex 32.2505 -0.699997 -0.091
      vertex 46.3027 24.0652 -0.091
    endloop
  endfacet
  facet normal -0 0 1
    outer loop
      vertex 22.3713 -0.111786 -0.091
      vertex 32.2505 -0.699997 -0.091
      vertex 38.7447 28.7326 -0.091
    endloop
  endfacet
  facet normal 0 0 1
    outer loop
      vertex 5.99527 -0.699997 -0.091
      vertex 32.2505 -0.699997 -0.091
      vertex 22.3713 -0.111786 -0.091
    endloop
  endfacet
  facet normal 0 0 1
    outer loop
      vertex 5.99527 -0.699997 -0.091
      vertex 22.3713 -0.111786 -0.091
      vertex 14.3935 9.36264 -0.091
    endloop
  endfacet
  facet normal -0 0 1
    outer loop
      vertex 9.67628 33.3674 -0.091
      vertex 8.04187 32.7402 -0.091
      vertex 9.93262 33.3918 -0.091
    endloop
  endfacet
  facet normal 0 0 1
    outer loop
      vertex 8.48027 33.0008 -0.091
      vertex 9.42564 33.3267 -0.091
      vertex 9.18073 33.2697 -0.091
    endloop
  endfacet
  facet normal 0 0 1
    outer loop
      vertex 8.25822 32.8786 -0.091
      vertex 9.42564 33.3267 -0.091
      vertex 8.48027 33.0008 -0.091
    endloop
  endfacet
  facet normal 0 0 1
    outer loop
      vertex 9.18073 33.2697 -0.091
      vertex 8.70804 33.1067 -0.091
      vertex 8.48027 33.0008 -0.091
    endloop
  endfacet
  facet normal -0 0 1
    outer loop
      vertex 8.94153 33.1963 -0.091
      vertex 8.70804 33.1067 -0.091
      vertex 9.18073 33.2697 -0.091
    endloop
  endfacet
  facet normal 0 0 1
    outer loop
      vertex 9.67628 33.3674 -0.091
      vertex 9.42564 33.3267 -0.091
      vertex 8.25822 32.8786 -0.091
    endloop
  endfacet
  facet normal 0 0 1
    outer loop
      vertex 9.67628 33.3674 -0.091
      vertex 8.25822 32.8786 -0.091
      vertex 8.04187 32.7402 -0.091
    endloop
  endfacet
  facet normal 0 0 1
    outer loop
      vertex 12.3466 32.7402 -0.091
      vertex 10.4566 33.3918 -0.091
      vertex 12.5572 32.5854 -0.091
    endloop
  endfacet
  facet normal 0 0 1
    outer loop
      vertex 10.7129 33.3674 -0.091
      vertex 10.4566 33.3918 -0.091
      vertex 12.3466 32.7402 -0.091
    endloop
  endfacet
  facet normal 0 0 1
    outer loop
      vertex 10.7129 33.3674 -0.091
      vertex 12.3466 32.7402 -0.091
      vertex 12.1304 32.8786 -0.091
    endloop
  endfacet
  facet normal 0 0 1
    outer loop
      vertex 10.9635 33.3267 -0.091
      vertex 12.1304 32.8786 -0.091
      vertex 11.9084 33.0008 -0.091
    endloop
  endfacet
  facet normal 0 0 1
    outer loop
      vertex 11.2083 33.2697 -0.091
      vertex 11.9084 33.0008 -0.091
      vertex 11.6808 33.1067 -0.091
    endloop
  endfacet
  facet normal 0 0 1
    outer loop
      vertex 11.2083 33.2697 -0.091
      vertex 11.6808 33.1067 -0.091
      vertex 11.4474 33.1963 -0.091
    endloop
  endfacet
  facet normal 0 0 1
    outer loop
      vertex 10.9635 33.3267 -0.091
      vertex 11.9084 33.0008 -0.091
      vertex 11.2083 33.2697 -0.091
    endloop
  endfacet
  facet normal 0 0 1
    outer loop
      vertex 10.7129 33.3674 -0.091
      vertex 12.1304 32.8786 -0.091
      vertex 10.9635 33.3267 -0.091
    endloop
  endfacet
  facet normal 0 0 1
    outer loop
      vertex 10.4566 33.3918 -0.091
      vertex 10.1947 33.4 -0.091
      vertex 12.5572 32.5854 -0.091
    endloop
  endfacet
  facet normal -0 0 1
    outer loop
      vertex 8.04187 32.7402 -0.091
      vertex 7.83125 32.5854 -0.091
      vertex 9.93262 33.3918 -0.091
    endloop
  endfacet
  facet normal 0 0 1
    outer loop
      vertex 7.83125 32.5854 -0.091
      vertex 10.1947 33.4 -0.091
      vertex 9.93262 33.3918 -0.091
    endloop
  endfacet
  facet normal 0 0 1
    outer loop
      vertex 12.5572 32.5854 -0.091
      vertex 10.1947 33.4 -0.091
      vertex 7.83125 32.5854 -0.091
    endloop
  endfacet
  facet normal 0 0 1
    outer loop
      vertex 12.5572 32.5854 -0.091
      vertex 7.83125 32.5854 -0.091
      vertex 12.762 32.4143 -0.091
    endloop
  endfacet
  facet normal 0 0 1
    outer loop
      vertex 7.83125 32.5854 -0.091
      vertex 7.62634 32.4143 -0.091
      vertex 12.762 32.4143 -0.091
    endloop
  endfacet
  facet normal -0 0 1
    outer loop
      vertex 7.62634 32.4143 -0.091
      vertex 12.9611 32.2269 -0.091
      vertex 12.762 32.4143 -0.091
    endloop
  endfacet
  facet normal 0 0 1
    outer loop
      vertex 7.42715 32.2269 -0.091
      vertex 12.9611 32.2269 -0.091
      vertex 7.62634 32.4143 -0.091
    endloop
  endfacet
  facet normal 0 0 1
    outer loop
      vertex 13.1545 32.0233 -0.091
      vertex 12.9611 32.2269 -0.091
      vertex 7.42715 32.2269 -0.091
    endloop
  endfacet
  facet normal 0 0 1
    outer loop
      vertex 13.1545 32.0233 -0.091
      vertex 7.42715 32.2269 -0.091
      vertex 7.23367 32.0233 -0.091
    endloop
  endfacet
  facet normal 0 0 1
    outer loop
      vertex 13.1545 32.0233 -0.091
      vertex 7.23367 32.0233 -0.091
      vertex 7.05048 31.8082 -0.091
    endloop
  endfacet
  facet normal 0 0 1
    outer loop
      vertex 13.1545 32.0233 -0.091
      vertex 7.05048 31.8082 -0.091
      vertex 13.3378 31.8082 -0.091
    endloop
  endfacet
  facet normal -0 0 1
    outer loop
      vertex 7.05048 31.8082 -0.091
      vertex 6.88194 31.5868 -0.091
      vertex 13.3378 31.8082 -0.091
    endloop
  endfacet
  facet normal 0 0 1
    outer loop
      vertex 6.88194 31.5868 -0.091
      vertex 13.5064 31.5868 -0.091
      vertex 13.3378 31.8082 -0.091
    endloop
  endfacet
  facet normal 0 0 1
    outer loop
      vertex 6.72806 31.359 -0.091
      vertex 13.5064 31.5868 -0.091
      vertex 6.88194 31.5868 -0.091
    endloop
  endfacet
  facet normal 0 0 1
    outer loop
      vertex 13.6603 31.359 -0.091
      vertex 13.5064 31.5868 -0.091
      vertex 6.72806 31.359 -0.091
    endloop
  endfacet
  facet normal 0 0 1
    outer loop
      vertex 13.6603 31.359 -0.091
      vertex 6.72806 31.359 -0.091
      vertex 6.58884 31.1249 -0.091
    endloop
  endfacet
  facet normal 0 0 1
    outer loop
      vertex 13.6603 31.359 -0.091
      vertex 6.58884 31.1249 -0.091
      vertex 13.7997 31.1249 -0.091
    endloop
  endfacet
  facet normal -0 0 1
    outer loop
      vertex 6.58884 31.1249 -0.091
      vertex 6.46425 30.8845 -0.091
      vertex 13.7997 31.1249 -0.091
    endloop
  endfacet
  facet normal 0 0 1
    outer loop
      vertex 6.46425 30.8845 -0.091
      vertex 13.9243 30.8845 -0.091
      vertex 13.7997 31.1249 -0.091
    endloop
  endfacet
  facet normal 0 0 1
    outer loop
      vertex 6.35435 30.6377 -0.091
      vertex 13.9243 30.8845 -0.091
      vertex 6.46425 30.8845 -0.091
    endloop
  endfacet
  facet normal 0 0 1
    outer loop
      vertex 14.0342 30.6377 -0.091
      vertex 13.9243 30.8845 -0.091
      vertex 6.35435 30.6377 -0.091
    endloop
  endfacet
  facet normal 0 0 1
    outer loop
      vertex 14.0342 30.6377 -0.091
      vertex 6.35435 30.6377 -0.091
      vertex 6.25908 30.3846 -0.091
    endloop
  endfacet
  facet normal 0 0 1
    outer loop
      vertex 14.0342 30.6377 -0.091
      vertex 6.25908 30.3846 -0.091
      vertex 14.1295 30.3846 -0.091
    endloop
  endfacet
  facet normal -0 0 1
    outer loop
      vertex 6.25908 30.3846 -0.091
      vertex 6.17847 30.1251 -0.091
      vertex 14.1295 30.3846 -0.091
    endloop
  endfacet
  facet normal 0 0 1
    outer loop
      vertex 6.17847 30.1251 -0.091
      vertex 14.2102 30.1251 -0.091
      vertex 14.1295 30.3846 -0.091
    endloop
  endfacet
  facet normal 0 0 1
    outer loop
      vertex 6.11252 29.8593 -0.091
      vertex 14.2102 30.1251 -0.091
      vertex 6.17847 30.1251 -0.091
    endloop
  endfacet
  facet normal 0 0 1
    outer loop
      vertex 14.2762 29.8593 -0.091
      vertex 14.2102 30.1251 -0.091
      vertex 6.11252 29.8593 -0.091
    endloop
  endfacet
  facet normal 0 0 1
    outer loop
      vertex 14.2762 29.8593 -0.091
      vertex 6.11252 29.8593 -0.091
      vertex 6.06123 29.5871 -0.091
    endloop
  endfacet
  facet normal 0 0 1
    outer loop
      vertex 14.2762 29.8593 -0.091
      vertex 6.06123 29.5871 -0.091
      vertex 14.3275 29.5871 -0.091
    endloop
  endfacet
  facet normal -0 0 1
    outer loop
      vertex 6.06123 29.5871 -0.091
      vertex 6.0246 29.3086 -0.091
      vertex 14.3275 29.5871 -0.091
    endloop
  endfacet
  facet normal 0 0 1
    outer loop
      vertex 6.0246 29.3086 -0.091
      vertex 14.3642 29.3086 -0.091
      vertex 14.3275 29.5871 -0.091
    endloop
  endfacet
  facet normal 0 0 1
    outer loop
      vertex 6.00261 29.0238 -0.091
      vertex 14.3642 29.3086 -0.091
      vertex 6.0246 29.3086 -0.091
    endloop
  endfacet
  facet normal 0 0 1
    outer loop
      vertex 14.3862 29.0238 -0.091
      vertex 14.3642 29.3086 -0.091
      vertex 6.00261 29.0238 -0.091
    endloop
  endfacet
  facet normal 0 0 1
    outer loop
      vertex 14.3862 29.0238 -0.091
      vertex 6.00261 29.0238 -0.091
      vertex 14.3935 28.7326 -0.091
    endloop
  endfacet
  facet normal 0 0 1
    outer loop
      vertex 6.00261 29.0238 -0.091
      vertex 5.99527 28.7326 -0.091
      vertex 14.3935 28.7326 -0.091
    endloop
  endfacet
  facet normal -0 0 1
    outer loop
      vertex 5.99527 28.7326 -0.091
      vertex 14.3935 9.36264 -0.091
      vertex 14.3935 28.7326 -0.091
    endloop
  endfacet
  facet normal 0 0 1
    outer loop
      vertex 5.99527 -0.699997 -0.091
      vertex 14.3935 9.36264 -0.091
      vertex 5.99527 28.7326 -0.091
    endloop
  endfacet
  facet normal 0.860038 -0.51023 0
    outer loop
      vertex 46.5511 24.4839 -0.391
      vertex 46.3027 24.0652 -0.091
      vertex 46.3027 24.0652 -0.391
    endloop
  endfacet
  facet normal 0.860038 -0.51023 0
    outer loop
      vertex 46.5511 24.4839 -0.391
      vertex 46.5511 24.4839 -0.091
      vertex 46.3027 24.0652 -0.091
    endloop
  endfacet
  facet normal 0.872895 -0.487907 0
    outer loop
      vertex 46.7796 24.8927 -0.391
      vertex 46.5511 24.4839 -0.091
      vertex 46.5511 24.4839 -0.391
    endloop
  endfacet
  facet normal 0.872895 -0.487907 0
    outer loop
      vertex 46.7796 24.8927 -0.391
      vertex 46.7796 24.8927 -0.091
      vertex 46.5511 24.4839 -0.091
    endloop
  endfacet
  facet normal 0.88601 -0.463667 0
    outer loop
      vertex 46.9883 25.2915 -0.391
      vertex 46.7796 24.8927 -0.091
      vertex 46.7796 24.8927 -0.391
    endloop
  endfacet
  facet normal 0.88601 -0.463667 0
    outer loop
      vertex 46.9883 25.2915 -0.391
      vertex 46.9883 25.2915 -0.091
      vertex 46.7796 24.8927 -0.091
    endloop
  endfacet
  facet normal 0.899594 -0.436727 0
    outer loop
      vertex 47.1771 25.6804 -0.391
      vertex 46.9883 25.2915 -0.091
      vertex 46.9883 25.2915 -0.391
    endloop
  endfacet
  facet normal 0.899594 -0.436727 0
    outer loop
      vertex 47.1771 25.6804 -0.391
      vertex 47.1771 25.6804 -0.091
      vertex 46.9883 25.2915 -0.091
    endloop
  endfacet
  facet normal 0.913364 -0.407145 0
    outer loop
      vertex 47.346 26.0593 -0.391
      vertex 47.1771 25.6804 -0.091
      vertex 47.1771 25.6804 -0.391
    endloop
  endfacet
  facet normal 0.913364 -0.407145 0
    outer loop
      vertex 47.346 26.0593 -0.391
      vertex 47.346 26.0593 -0.091
      vertex 47.1771 25.6804 -0.091
    endloop
  endfacet
  facet normal 0.927171 -0.374638 0
    outer loop
      vertex 47.4951 26.4283 -0.391
      vertex 47.346 26.0593 -0.091
      vertex 47.346 26.0593 -0.391
    endloop
  endfacet
  facet normal 0.927171 -0.374638 0
    outer loop
      vertex 47.4951 26.4283 -0.391
      vertex 47.4951 26.4283 -0.091
      vertex 47.346 26.0593 -0.091
    endloop
  endfacet
  facet normal 0.940951 -0.338543 0
    outer loop
      vertex 47.6243 26.7874 -0.391
      vertex 47.4951 26.4283 -0.091
      vertex 47.4951 26.4283 -0.391
    endloop
  endfacet
  facet normal 0.940951 -0.338543 0
    outer loop
      vertex 47.6243 26.7874 -0.391
      vertex 47.6243 26.7874 -0.091
      vertex 47.4951 26.4283 -0.091
    endloop
  endfacet
  facet normal 0.954295 -0.298867 0
    outer loop
      vertex 47.7336 27.1364 -0.391
      vertex 47.6243 26.7874 -0.091
      vertex 47.6243 26.7874 -0.391
    endloop
  endfacet
  facet normal 0.954295 -0.298867 0
    outer loop
      vertex 47.7336 27.1364 -0.391
      vertex 47.7336 27.1364 -0.091
      vertex 47.6243 26.7874 -0.091
    endloop
  endfacet
  facet normal 0.966978 -0.254858 0
    outer loop
      vertex 47.823 27.4756 -0.391
      vertex 47.7336 27.1364 -0.091
      vertex 47.7336 27.1364 -0.391
    endloop
  endfacet
  facet normal 0.966978 -0.254858 0
    outer loop
      vertex 47.823 27.4756 -0.391
      vertex 47.823 27.4756 -0.091
      vertex 47.7336 27.1364 -0.091
    endloop
  endfacet
  facet normal 0.97842 -0.206625 0
    outer loop
      vertex 47.8925 27.8047 -0.391
      vertex 47.823 27.4756 -0.091
      vertex 47.823 27.4756 -0.391
    endloop
  endfacet
  facet normal 0.97842 -0.206625 0
    outer loop
      vertex 47.8925 27.8047 -0.391
      vertex 47.8925 27.8047 -0.091
      vertex 47.823 27.4756 -0.091
    endloop
  endfacet
  facet normal 0.988102 -0.153801 0
    outer loop
      vertex 47.9422 28.124 -0.391
      vertex 47.8925 27.8047 -0.091
      vertex 47.8925 27.8047 -0.391
    endloop
  endfacet
  facet normal 0.988102 -0.153801 0
    outer loop
      vertex 47.9422 28.124 -0.391
      vertex 47.9422 28.124 -0.091
      vertex 47.8925 27.8047 -0.091
    endloop
  endfacet
  facet normal 0.995391 -0.0959025 0
    outer loop
      vertex 47.972 28.4333 -0.391
      vertex 47.9422 28.124 -0.091
      vertex 47.9422 28.124 -0.391
    endloop
  endfacet
  facet normal 0.995391 -0.0959025 0
    outer loop
      vertex 47.972 28.4333 -0.391
      vertex 47.972 28.4333 -0.091
      vertex 47.9422 28.124 -0.091
    endloop
  endfacet
  facet normal 0.999442 -0.0333927 0
    outer loop
      vertex 47.982 28.7326 -0.391
      vertex 47.972 28.4333 -0.091
      vertex 47.972 28.4333 -0.391
    endloop
  endfacet
  facet normal 0.999442 -0.0333927 0
    outer loop
      vertex 47.982 28.7326 -0.391
      vertex 47.982 28.7326 -0.091
      vertex 47.972 28.4333 -0.091
    endloop
  endfacet
  facet normal 0.999677 0.0254039 0
    outer loop
      vertex 47.9746 29.0238 -0.391
      vertex 47.982 28.7326 -0.091
      vertex 47.982 28.7326 -0.391
    endloop
  endfacet
  facet normal 0.999677 0.0254039 -0
    outer loop
      vertex 47.9746 29.0238 -0.391
      vertex 47.9746 29.0238 -0.091
      vertex 47.982 28.7326 -0.091
    endloop
  endfacet
  facet normal 0.997057 0.0766697 0
    outer loop
      vertex 47.9527 29.3086 -0.391
      vertex 47.9746 29.0238 -0.091
      vertex 47.9746 29.0238 -0.391
    endloop
  endfacet
  facet normal 0.997057 0.0766697 -0
    outer loop
      vertex 47.9527 29.3086 -0.391
      vertex 47.9527 29.3086 -0.091
      vertex 47.9746 29.0238 -0.091
    endloop
  endfacet
  facet normal 0.991429 0.130648 0
    outer loop
      vertex 47.916 29.5871 -0.391
      vertex 47.9527 29.3086 -0.091
      vertex 47.9527 29.3086 -0.391
    endloop
  endfacet
  facet normal 0.991429 0.130648 -0
    outer loop
      vertex 47.916 29.5871 -0.391
      vertex 47.916 29.5871 -0.091
      vertex 47.9527 29.3086 -0.091
    endloop
  endfacet
  facet normal 0.9827 0.185204 0
    outer loop
      vertex 47.8647 29.8593 -0.391
      vertex 47.916 29.5871 -0.091
      vertex 47.916 29.5871 -0.391
    endloop
  endfacet
  facet normal 0.9827 0.185204 -0
    outer loop
      vertex 47.8647 29.8593 -0.391
      vertex 47.8647 29.8593 -0.091
      vertex 47.916 29.5871 -0.091
    endloop
  endfacet
  facet normal 0.970613 0.240645 0
    outer loop
      vertex 47.7988 30.1251 -0.391
      vertex 47.8647 29.8593 -0.091
      vertex 47.8647 29.8593 -0.391
    endloop
  endfacet
  facet normal 0.970613 0.240645 -0
    outer loop
      vertex 47.7988 30.1251 -0.391
      vertex 47.7988 30.1251 -0.091
      vertex 47.8647 29.8593 -0.091
    endloop
  endfacet
  facet normal 0.954996 0.296619 0
    outer loop
      vertex 47.7182 30.3846 -0.391
      vertex 47.7988 30.1251 -0.091
      vertex 47.7988 30.1251 -0.391
    endloop
  endfacet
  facet normal 0.954996 0.296619 -0
    outer loop
      vertex 47.7182 30.3846 -0.391
      vertex 47.7182 30.3846 -0.091
      vertex 47.7988 30.1251 -0.091
    endloop
  endfacet
  facet normal 0.935857 0.352379 0
    outer loop
      vertex 47.6229 30.6377 -0.391
      vertex 47.7182 30.3846 -0.091
      vertex 47.7182 30.3846 -0.391
    endloop
  endfacet
  facet normal 0.935857 0.352379 -0
    outer loop
      vertex 47.6229 30.6377 -0.391
      vertex 47.6229 30.6377 -0.091
      vertex 47.7182 30.3846 -0.091
    endloop
  endfacet
  facet normal 0.913521 0.406791 0
    outer loop
      vertex 47.513 30.8845 -0.391
      vertex 47.6229 30.6377 -0.091
      vertex 47.6229 30.6377 -0.391
    endloop
  endfacet
  facet normal 0.913521 0.406791 -0
    outer loop
      vertex 47.513 30.8845 -0.391
      vertex 47.513 30.8845 -0.091
      vertex 47.6229 30.6377 -0.091
    endloop
  endfacet
  facet normal 0.887833 0.460166 0
    outer loop
      vertex 47.3884 31.1249 -0.391
      vertex 47.513 30.8845 -0.091
      vertex 47.513 30.8845 -0.391
    endloop
  endfacet
  facet normal 0.887833 0.460166 -0
    outer loop
      vertex 47.3884 31.1249 -0.391
      vertex 47.3884 31.1249 -0.091
      vertex 47.513 30.8845 -0.091
    endloop
  endfacet
  facet normal 0.859527 0.51109 0
    outer loop
      vertex 47.2492 31.359 -0.391
      vertex 47.3884 31.1249 -0.091
      vertex 47.3884 31.1249 -0.391
    endloop
  endfacet
  facet normal 0.859527 0.51109 -0
    outer loop
      vertex 47.2492 31.359 -0.391
      vertex 47.2492 31.359 -0.091
      vertex 47.3884 31.1249 -0.091
    endloop
  endfacet
  facet normal 0.828621 0.55981 0
    outer loop
      vertex 47.0953 31.5868 -0.391
      vertex 47.2492 31.359 -0.091
      vertex 47.2492 31.359 -0.391
    endloop
  endfacet
  facet normal 0.828621 0.55981 -0
    outer loop
      vertex 47.0953 31.5868 -0.391
      vertex 47.0953 31.5868 -0.091
      vertex 47.2492 31.359 -0.091
    endloop
  endfacet
  facet normal 0.795753 0.605621 0
    outer loop
      vertex 46.9268 31.8082 -0.391
      vertex 47.0953 31.5868 -0.091
      vertex 47.0953 31.5868 -0.391
    endloop
  endfacet
  facet normal 0.795753 0.605621 -0
    outer loop
      vertex 46.9268 31.8082 -0.391
      vertex 46.9268 31.8082 -0.091
      vertex 47.0953 31.5868 -0.091
    endloop
  endfacet
  facet normal 0.761301 0.648398 0
    outer loop
      vertex 46.7436 32.0233 -0.391
      vertex 46.9268 31.8082 -0.091
      vertex 46.9268 31.8082 -0.391
    endloop
  endfacet
  facet normal 0.761301 0.648398 -0
    outer loop
      vertex 46.7436 32.0233 -0.391
      vertex 46.7436 32.0233 -0.091
      vertex 46.9268 31.8082 -0.091
    endloop
  endfacet
  facet normal 0.725035 0.688712 0
    outer loop
      vertex 46.5502 32.2269 -0.391
      vertex 46.7436 32.0233 -0.091
      vertex 46.7436 32.0233 -0.391
    endloop
  endfacet
  facet normal 0.725035 0.688712 -0
    outer loop
      vertex 46.5502 32.2269 -0.391
      vertex 46.5502 32.2269 -0.091
      vertex 46.7436 32.0233 -0.091
    endloop
  endfacet
  facet normal 0.685388 0.728179 0
    outer loop
      vertex 46.3511 32.4143 -0.391
      vertex 46.5502 32.2269 -0.091
      vertex 46.5502 32.2269 -0.391
    endloop
  endfacet
  facet normal 0.685388 0.728179 -0
    outer loop
      vertex 46.3511 32.4143 -0.391
      vertex 46.3511 32.4143 -0.091
      vertex 46.5502 32.2269 -0.091
    endloop
  endfacet
  facet normal 0.640958 0.767576 0
    outer loop
      vertex 46.1462 32.5854 -0.391
      vertex 46.3511 32.4143 -0.091
      vertex 46.3511 32.4143 -0.391
    endloop
  endfacet
  facet normal 0.640958 0.767576 -0
    outer loop
      vertex 46.1462 32.5854 -0.391
      vertex 46.1462 32.5854 -0.091
      vertex 46.3511 32.4143 -0.091
    endloop
  endfacet
  facet normal 0.592442 0.805613 0
    outer loop
      vertex 45.9357 32.7402 -0.391
      vertex 46.1462 32.5854 -0.091
      vertex 46.1462 32.5854 -0.391
    endloop
  endfacet
  facet normal 0.592442 0.805613 -0
    outer loop
      vertex 45.9357 32.7402 -0.391
      vertex 45.9357 32.7402 -0.091
      vertex 46.1462 32.5854 -0.091
    endloop
  endfacet
  facet normal 0.538965 0.842328 0
    outer loop
      vertex 45.7194 32.8786 -0.391
      vertex 45.9357 32.7402 -0.091
      vertex 45.9357 32.7402 -0.391
    endloop
  endfacet
  facet normal 0.538965 0.842328 -0
    outer loop
      vertex 45.7194 32.8786 -0.391
      vertex 45.7194 32.8786 -0.091
      vertex 45.9357 32.7402 -0.091
    endloop
  endfacet
  facet normal 0.482222 0.876049 0
    outer loop
      vertex 45.4974 33.0008 -0.391
      vertex 45.7194 32.8786 -0.091
      vertex 45.7194 32.8786 -0.391
    endloop
  endfacet
  facet normal 0.482222 0.876049 -0
    outer loop
      vertex 45.4974 33.0008 -0.391
      vertex 45.4974 33.0008 -0.091
      vertex 45.7194 32.8786 -0.091
    endloop
  endfacet
  facet normal 0.421708 0.906732 0
    outer loop
      vertex 45.2697 33.1067 -0.391
      vertex 45.4974 33.0008 -0.091
      vertex 45.4974 33.0008 -0.391
    endloop
  endfacet
  facet normal 0.421708 0.906732 -0
    outer loop
      vertex 45.2697 33.1067 -0.391
      vertex 45.2697 33.1067 -0.091
      vertex 45.4974 33.0008 -0.091
    endloop
  endfacet
  facet normal 0.358389 0.933572 0
    outer loop
      vertex 45.0363 33.1963 -0.391
      vertex 45.2697 33.1067 -0.091
      vertex 45.2697 33.1067 -0.391
    endloop
  endfacet
  facet normal 0.358389 0.933572 -0
    outer loop
      vertex 45.0363 33.1963 -0.391
      vertex 45.0363 33.1963 -0.091
      vertex 45.2697 33.1067 -0.091
    endloop
  endfacet
  facet normal 0.293356 0.956003 0
    outer loop
      vertex 44.7971 33.2697 -0.391
      vertex 45.0363 33.1963 -0.091
      vertex 45.0363 33.1963 -0.391
    endloop
  endfacet
  facet normal 0.293356 0.956003 -0
    outer loop
      vertex 44.7971 33.2697 -0.391
      vertex 44.7971 33.2697 -0.091
      vertex 45.0363 33.1963 -0.091
    endloop
  endfacet
  facet normal 0.226689 0.973967 0
    outer loop
      vertex 44.5522 33.3267 -0.391
      vertex 44.7971 33.2697 -0.091
      vertex 44.7971 33.2697 -0.391
    endloop
  endfacet
  facet normal 0.226689 0.973967 -0
    outer loop
      vertex 44.5522 33.3267 -0.391
      vertex 44.5522 33.3267 -0.091
      vertex 44.7971 33.2697 -0.091
    endloop
  endfacet
  facet normal 0.16031 0.987067 0
    outer loop
      vertex 44.3016 33.3674 -0.391
      vertex 44.5522 33.3267 -0.091
      vertex 44.5522 33.3267 -0.391
    endloop
  endfacet
  facet normal 0.16031 0.987067 -0
    outer loop
      vertex 44.3016 33.3674 -0.391
      vertex 44.3016 33.3674 -0.091
      vertex 44.5522 33.3267 -0.091
    endloop
  endfacet
  facet normal 0.0947358 0.995502 0
    outer loop
      vertex 44.0452 33.3918 -0.391
      vertex 44.3016 33.3674 -0.091
      vertex 44.3016 33.3674 -0.391
    endloop
  endfacet
  facet normal 0.0947358 0.995502 -0
    outer loop
      vertex 44.0452 33.3918 -0.391
      vertex 44.0452 33.3918 -0.091
      vertex 44.3016 33.3674 -0.091
    endloop
  endfacet
  facet normal 0.0312824 0.999511 0
    outer loop
      vertex 43.7832 33.4 -0.391
      vertex 44.0452 33.3918 -0.091
      vertex 44.0452 33.3918 -0.391
    endloop
  endfacet
  facet normal 0.0312824 0.999511 -0
    outer loop
      vertex 43.7832 33.4 -0.391
      vertex 43.7832 33.4 -0.091
      vertex 44.0452 33.3918 -0.091
    endloop
  endfacet
  facet normal -0.0312824 0.999511 0
    outer loop
      vertex 43.5212 33.3918 -0.391
      vertex 43.7832 33.4 -0.091
      vertex 43.7832 33.4 -0.391
    endloop
  endfacet
  facet normal -0.0312824 0.999511 0
    outer loop
      vertex 43.5212 33.3918 -0.391
      vertex 43.5212 33.3918 -0.091
      vertex 43.7832 33.4 -0.091
    endloop
  endfacet
  facet normal -0.0948091 0.995495 0
    outer loop
      vertex 43.265 33.3674 -0.391
      vertex 43.5212 33.3918 -0.091
      vertex 43.5212 33.3918 -0.391
    endloop
  endfacet
  facet normal -0.0948091 0.995495 0
    outer loop
      vertex 43.265 33.3674 -0.391
      vertex 43.265 33.3674 -0.091
      vertex 43.5212 33.3918 -0.091
    endloop
  endfacet
  facet normal -0.16031 0.987067 0
    outer loop
      vertex 43.0144 33.3267 -0.391
      vertex 43.265 33.3674 -0.091
      vertex 43.265 33.3674 -0.391
    endloop
  endfacet
  facet normal -0.16031 0.987067 0
    outer loop
      vertex 43.0144 33.3267 -0.391
      vertex 43.0144 33.3267 -0.091
      vertex 43.265 33.3674 -0.091
    endloop
  endfacet
  facet normal -0.226777 0.973947 0
    outer loop
      vertex 42.7696 33.2697 -0.391
      vertex 43.0144 33.3267 -0.091
      vertex 43.0144 33.3267 -0.391
    endloop
  endfacet
  facet normal -0.226777 0.973947 0
    outer loop
      vertex 42.7696 33.2697 -0.391
      vertex 42.7696 33.2697 -0.091
      vertex 43.0144 33.3267 -0.091
    endloop
  endfacet
  facet normal -0.293468 0.955969 0
    outer loop
      vertex 42.5305 33.1963 -0.391
      vertex 42.7696 33.2697 -0.091
      vertex 42.7696 33.2697 -0.391
    endloop
  endfacet
  facet normal -0.293468 0.955969 0
    outer loop
      vertex 42.5305 33.1963 -0.391
      vertex 42.5305 33.1963 -0.091
      vertex 42.7696 33.2697 -0.091
    endloop
  endfacet
  facet normal -0.358389 0.933572 0
    outer loop
      vertex 42.2971 33.1067 -0.391
      vertex 42.5305 33.1963 -0.091
      vertex 42.5305 33.1963 -0.391
    endloop
  endfacet
  facet normal -0.358389 0.933572 0
    outer loop
      vertex 42.2971 33.1067 -0.391
      vertex 42.2971 33.1067 -0.091
      vertex 42.5305 33.1963 -0.091
    endloop
  endfacet
  facet normal -0.421708 0.906732 0
    outer loop
      vertex 42.0694 33.0008 -0.391
      vertex 42.2971 33.1067 -0.091
      vertex 42.2971 33.1067 -0.391
    endloop
  endfacet
  facet normal -0.421708 0.906732 0
    outer loop
      vertex 42.0694 33.0008 -0.391
      vertex 42.0694 33.0008 -0.091
      vertex 42.2971 33.1067 -0.091
    endloop
  endfacet
  facet normal -0.482388 0.875957 0
    outer loop
      vertex 41.8475 32.8786 -0.391
      vertex 42.0694 33.0008 -0.091
      vertex 42.0694 33.0008 -0.391
    endloop
  endfacet
  facet normal -0.482388 0.875957 0
    outer loop
      vertex 41.8475 32.8786 -0.391
      vertex 41.8475 32.8786 -0.091
      vertex 42.0694 33.0008 -0.091
    endloop
  endfacet
  facet normal -0.538965 0.842328 0
    outer loop
      vertex 41.6312 32.7402 -0.391
      vertex 41.8475 32.8786 -0.091
      vertex 41.8475 32.8786 -0.391
    endloop
  endfacet
  facet normal -0.538965 0.842328 0
    outer loop
      vertex 41.6312 32.7402 -0.391
      vertex 41.6312 32.7402 -0.091
      vertex 41.8475 32.8786 -0.091
    endloop
  endfacet
  facet normal -0.592442 0.805613 0
    outer loop
      vertex 41.4207 32.5854 -0.391
      vertex 41.6312 32.7402 -0.091
      vertex 41.6312 32.7402 -0.391
    endloop
  endfacet
  facet normal -0.592442 0.805613 0
    outer loop
      vertex 41.4207 32.5854 -0.391
      vertex 41.4207 32.5854 -0.091
      vertex 41.6312 32.7402 -0.091
    endloop
  endfacet
  facet normal -0.641142 0.767422 0
    outer loop
      vertex 41.2159 32.4143 -0.391
      vertex 41.4207 32.5854 -0.091
      vertex 41.4207 32.5854 -0.391
    endloop
  endfacet
  facet normal -0.641142 0.767422 0
    outer loop
      vertex 41.2159 32.4143 -0.391
      vertex 41.2159 32.4143 -0.091
      vertex 41.4207 32.5854 -0.091
    endloop
  endfacet
  facet normal -0.685388 0.728179 0
    outer loop
      vertex 41.0168 32.2269 -0.391
      vertex 41.2159 32.4143 -0.091
      vertex 41.2159 32.4143 -0.391
    endloop
  endfacet
  facet normal -0.685388 0.728179 0
    outer loop
      vertex 41.0168 32.2269 -0.391
      vertex 41.0168 32.2269 -0.091
      vertex 41.2159 32.4143 -0.091
    endloop
  endfacet
  facet normal -0.725035 0.688712 0
    outer loop
      vertex 40.8234 32.0233 -0.391
      vertex 41.0168 32.2269 -0.091
      vertex 41.0168 32.2269 -0.391
    endloop
  endfacet
  facet normal -0.725035 0.688712 0
    outer loop
      vertex 40.8234 32.0233 -0.391
      vertex 40.8234 32.0233 -0.091
      vertex 41.0168 32.2269 -0.091
    endloop
  endfacet
  facet normal -0.752598 0.65848 0
    outer loop
      vertex 40.6352 31.8082 -0.391
      vertex 40.8234 32.0233 -0.091
      vertex 40.8234 32.0233 -0.391
    endloop
  endfacet
  facet normal -0.752598 0.65848 0
    outer loop
      vertex 40.6352 31.8082 -0.391
      vertex 40.6352 31.8082 -0.091
      vertex 40.8234 32.0233 -0.091
    endloop
  endfacet
  facet normal -0.7701 0.637924 0
    outer loop
      vertex 40.4518 31.5868 -0.391
      vertex 40.6352 31.8082 -0.091
      vertex 40.6352 31.8082 -0.391
    endloop
  endfacet
  facet normal -0.7701 0.637924 0
    outer loop
      vertex 40.4518 31.5868 -0.391
      vertex 40.4518 31.5868 -0.091
      vertex 40.6352 31.8082 -0.091
    endloop
  endfacet
  facet normal -0.78663 0.617425 0
    outer loop
      vertex 40.273 31.359 -0.391
      vertex 40.4518 31.5868 -0.091
      vertex 40.4518 31.5868 -0.391
    endloop
  endfacet
  facet normal -0.78663 0.617425 0
    outer loop
      vertex 40.273 31.359 -0.391
      vertex 40.273 31.359 -0.091
      vertex 40.4518 31.5868 -0.091
    endloop
  endfacet
  facet normal -0.802584 0.596539 0
    outer loop
      vertex 40.099 31.1249 -0.391
      vertex 40.273 31.359 -0.091
      vertex 40.273 31.359 -0.391
    endloop
  endfacet
  facet normal -0.802584 0.596539 0
    outer loop
      vertex 40.099 31.1249 -0.391
      vertex 40.099 31.1249 -0.091
      vertex 40.273 31.359 -0.091
    endloop
  endfacet
  facet normal -0.817599 0.575788 0
    outer loop
      vertex 39.9297 30.8845 -0.391
      vertex 40.099 31.1249 -0.091
      vertex 40.099 31.1249 -0.391
    endloop
  endfacet
  facet normal -0.817599 0.575788 0
    outer loop
      vertex 39.9297 30.8845 -0.391
      vertex 39.9297 30.8845 -0.091
      vertex 40.099 31.1249 -0.091
    endloop
  endfacet
  facet normal -0.831947 0.554856 0
    outer loop
      vertex 39.7651 30.6377 -0.391
      vertex 39.9297 30.8845 -0.091
      vertex 39.9297 30.8845 -0.391
    endloop
  endfacet
  facet normal -0.831947 0.554856 0
    outer loop
      vertex 39.7651 30.6377 -0.391
      vertex 39.7651 30.6377 -0.091
      vertex 39.9297 30.8845 -0.091
    endloop
  endfacet
  facet normal -0.845417 0.534106 0
    outer loop
      vertex 39.6052 30.3846 -0.391
      vertex 39.7651 30.6377 -0.091
      vertex 39.7651 30.6377 -0.391
    endloop
  endfacet
  facet normal -0.845417 0.534106 0
    outer loop
      vertex 39.6052 30.3846 -0.391
      vertex 39.6052 30.3846 -0.091
      vertex 39.7651 30.6377 -0.091
    endloop
  endfacet
  facet normal -0.858222 0.513279 0
    outer loop
      vertex 39.45 30.1251 -0.391
      vertex 39.6052 30.3846 -0.091
      vertex 39.6052 30.3846 -0.391
    endloop
  endfacet
  facet normal -0.858222 0.513279 0
    outer loop
      vertex 39.45 30.1251 -0.391
      vertex 39.45 30.1251 -0.091
      vertex 39.6052 30.3846 -0.091
    endloop
  endfacet
  facet normal -0.870191 0.492715 0
    outer loop
      vertex 39.2995 29.8593 -0.391
      vertex 39.45 30.1251 -0.091
      vertex 39.45 30.1251 -0.391
    endloop
  endfacet
  facet normal -0.870191 0.492715 0
    outer loop
      vertex 39.2995 29.8593 -0.391
      vertex 39.2995 29.8593 -0.091
      vertex 39.45 30.1251 -0.091
    endloop
  endfacet
  facet normal -0.881644 0.471916 0
    outer loop
      vertex 39.1538 29.5871 -0.391
      vertex 39.2995 29.8593 -0.091
      vertex 39.2995 29.8593 -0.391
    endloop
  endfacet
  facet normal -0.881644 0.471916 0
    outer loop
      vertex 39.1538 29.5871 -0.391
      vertex 39.1538 29.5871 -0.091
      vertex 39.2995 29.8593 -0.091
    endloop
  endfacet
  facet normal -0.892044 0.451948 0
    outer loop
      vertex 39.0127 29.3086 -0.391
      vertex 39.1538 29.5871 -0.091
      vertex 39.1538 29.5871 -0.391
    endloop
  endfacet
  facet normal -0.892044 0.451948 0
    outer loop
      vertex 39.0127 29.3086 -0.391
      vertex 39.0127 29.3086 -0.091
      vertex 39.1538 29.5871 -0.091
    endloop
  endfacet
  facet normal -0.902022 0.431691 0
    outer loop
      vertex 38.8764 29.0238 -0.391
      vertex 39.0127 29.3086 -0.091
      vertex 39.0127 29.3086 -0.391
    endloop
  endfacet
  facet normal -0.902022 0.431691 0
    outer loop
      vertex 38.8764 29.0238 -0.391
      vertex 38.8764 29.0238 -0.091
      vertex 39.0127 29.3086 -0.091
    endloop
  endfacet
  facet normal -0.911147 0.412081 0
    outer loop
      vertex 38.7447 28.7326 -0.391
      vertex 38.8764 29.0238 -0.091
      vertex 38.8764 29.0238 -0.391
    endloop
  endfacet
  facet normal -0.911147 0.412081 0
    outer loop
      vertex 38.7447 28.7326 -0.391
      vertex 38.7447 28.7326 -0.091
      vertex 38.8764 29.0238 -0.091
    endloop
  endfacet
  facet normal -0.869657 0.493657 0
    outer loop
      vertex 22.3713 -0.111786 -0.391
      vertex 38.7447 28.7326 -0.091
      vertex 38.7447 28.7326 -0.391
    endloop
  endfacet
  facet normal -0.869657 0.493657 0
    outer loop
      vertex 22.3713 -0.111786 -0.391
      vertex 22.3713 -0.111786 -0.091
      vertex 38.7447 28.7326 -0.091
    endloop
  endfacet
  facet normal 0.764938 0.644104 0
    outer loop
      vertex 14.3935 9.36264 -0.391
      vertex 22.3713 -0.111786 -0.091
      vertex 22.3713 -0.111786 -0.391
    endloop
  endfacet
  facet normal 0.764938 0.644104 -0
    outer loop
      vertex 14.3935 9.36264 -0.391
      vertex 14.3935 9.36264 -0.091
      vertex 22.3713 -0.111786 -0.091
    endloop
  endfacet
  facet normal 1 0 0
    outer loop
      vertex 14.3935 28.7326 -0.391
      vertex 14.3935 9.36264 -0.091
      vertex 14.3935 9.36264 -0.391
    endloop
  endfacet
  facet normal 1 0 -0
    outer loop
      vertex 14.3935 28.7326 -0.391
      vertex 14.3935 28.7326 -0.091
      vertex 14.3935 9.36264 -0.091
    endloop
  endfacet
  facet normal 0.999686 0.0250608 0
    outer loop
      vertex 14.3862 29.0238 -0.391
      vertex 14.3935 28.7326 -0.091
      vertex 14.3935 28.7326 -0.391
    endloop
  endfacet
  facet normal 0.999686 0.0250608 -0
    outer loop
      vertex 14.3862 29.0238 -0.391
      vertex 14.3862 29.0238 -0.091
      vertex 14.3935 28.7326 -0.091
    endloop
  endfacet
  facet normal 0.99703 0.0770177 0
    outer loop
      vertex 14.3642 29.3086 -0.391
      vertex 14.3862 29.0238 -0.091
      vertex 14.3862 29.0238 -0.391
    endloop
  endfacet
  facet normal 0.99703 0.0770177 -0
    outer loop
      vertex 14.3642 29.3086 -0.391
      vertex 14.3642 29.3086 -0.091
      vertex 14.3862 29.0238 -0.091
    endloop
  endfacet
  facet normal 0.991429 0.130648 0
    outer loop
      vertex 14.3275 29.5871 -0.391
      vertex 14.3642 29.3086 -0.091
      vertex 14.3642 29.3086 -0.391
    endloop
  endfacet
  facet normal 0.991429 0.130648 -0
    outer loop
      vertex 14.3275 29.5871 -0.391
      vertex 14.3275 29.5871 -0.091
      vertex 14.3642 29.3086 -0.091
    endloop
  endfacet
  facet normal 0.9827 0.185204 0
    outer loop
      vertex 14.2762 29.8593 -0.391
      vertex 14.3275 29.5871 -0.091
      vertex 14.3275 29.5871 -0.391
    endloop
  endfacet
  facet normal 0.9827 0.185204 -0
    outer loop
      vertex 14.2762 29.8593 -0.391
      vertex 14.2762 29.8593 -0.091
      vertex 14.3275 29.5871 -0.091
    endloop
  endfacet
  facet normal 0.970528 0.240989 0
    outer loop
      vertex 14.2102 30.1251 -0.391
      vertex 14.2762 29.8593 -0.091
      vertex 14.2762 29.8593 -0.391
    endloop
  endfacet
  facet normal 0.970528 0.240989 -0
    outer loop
      vertex 14.2102 30.1251 -0.391
      vertex 14.2102 30.1251 -0.091
      vertex 14.2762 29.8593 -0.091
    endloop
  endfacet
  facet normal 0.954892 0.296955 0
    outer loop
      vertex 14.1295 30.3846 -0.391
      vertex 14.2102 30.1251 -0.091
      vertex 14.2102 30.1251 -0.391
    endloop
  endfacet
  facet normal 0.954892 0.296955 -0
    outer loop
      vertex 14.1295 30.3846 -0.391
      vertex 14.1295 30.3846 -0.091
      vertex 14.2102 30.1251 -0.091
    endloop
  endfacet
  facet normal 0.935857 0.352379 0
    outer loop
      vertex 14.0342 30.6377 -0.391
      vertex 14.1295 30.3846 -0.091
      vertex 14.1295 30.3846 -0.391
    endloop
  endfacet
  facet normal 0.935857 0.352379 -0
    outer loop
      vertex 14.0342 30.6377 -0.391
      vertex 14.0342 30.6377 -0.091
      vertex 14.1295 30.3846 -0.091
    endloop
  endfacet
  facet normal 0.913521 0.406791 0
    outer loop
      vertex 13.9243 30.8845 -0.391
      vertex 14.0342 30.6377 -0.091
      vertex 14.0342 30.6377 -0.391
    endloop
  endfacet
  facet normal 0.913521 0.406791 -0
    outer loop
      vertex 13.9243 30.8845 -0.391
      vertex 13.9243 30.8845 -0.091
      vertex 14.0342 30.6377 -0.091
    endloop
  endfacet
  facet normal 0.887833 0.460166 0
    outer loop
      vertex 13.7997 31.1249 -0.391
      vertex 13.9243 30.8845 -0.091
      vertex 13.9243 30.8845 -0.391
    endloop
  endfacet
  facet normal 0.887833 0.460166 -0
    outer loop
      vertex 13.7997 31.1249 -0.391
      vertex 13.7997 31.1249 -0.091
      vertex 13.9243 30.8845 -0.091
    endloop
  endfacet
  facet normal 0.859205 0.511632 0
    outer loop
      vertex 13.6603 31.359 -0.391
      vertex 13.7997 31.1249 -0.091
      vertex 13.7997 31.1249 -0.391
    endloop
  endfacet
  facet normal 0.859205 0.511632 -0
    outer loop
      vertex 13.6603 31.359 -0.391
      vertex 13.6603 31.359 -0.091
      vertex 13.7997 31.1249 -0.091
    endloop
  endfacet
  facet normal 0.828621 0.55981 0
    outer loop
      vertex 13.5064 31.5868 -0.391
      vertex 13.6603 31.359 -0.091
      vertex 13.6603 31.359 -0.391
    endloop
  endfacet
  facet normal 0.828621 0.55981 -0
    outer loop
      vertex 13.5064 31.5868 -0.391
      vertex 13.5064 31.5868 -0.091
      vertex 13.6603 31.359 -0.091
    endloop
  endfacet
  facet normal 0.79558 0.605848 0
    outer loop
      vertex 13.3378 31.8082 -0.391
      vertex 13.5064 31.5868 -0.091
      vertex 13.5064 31.5868 -0.391
    endloop
  endfacet
  facet normal 0.79558 0.605848 -0
    outer loop
      vertex 13.3378 31.8082 -0.391
      vertex 13.3378 31.8082 -0.091
      vertex 13.5064 31.5868 -0.091
    endloop
  endfacet
  facet normal 0.761127 0.648603 0
    outer loop
      vertex 13.1545 32.0233 -0.391
      vertex 13.3378 31.8082 -0.091
      vertex 13.3378 31.8082 -0.391
    endloop
  endfacet
  facet normal 0.761127 0.648603 -0
    outer loop
      vertex 13.1545 32.0233 -0.391
      vertex 13.1545 32.0233 -0.091
      vertex 13.3378 31.8082 -0.091
    endloop
  endfacet
  facet normal 0.725035 0.688712 0
    outer loop
      vertex 12.9611 32.2269 -0.391
      vertex 13.1545 32.0233 -0.091
      vertex 13.1545 32.0233 -0.391
    endloop
  endfacet
  facet normal 0.725035 0.688712 -0
    outer loop
      vertex 12.9611 32.2269 -0.391
      vertex 12.9611 32.2269 -0.091
      vertex 13.1545 32.0233 -0.091
    endloop
  endfacet
  facet normal 0.685388 0.728179 0
    outer loop
      vertex 12.762 32.4143 -0.391
      vertex 12.9611 32.2269 -0.091
      vertex 12.9611 32.2269 -0.391
    endloop
  endfacet
  facet normal 0.685388 0.728179 -0
    outer loop
      vertex 12.762 32.4143 -0.391
      vertex 12.762 32.4143 -0.091
      vertex 12.9611 32.2269 -0.091
    endloop
  endfacet
  facet normal 0.641142 0.767422 0
    outer loop
      vertex 12.5572 32.5854 -0.391
      vertex 12.762 32.4143 -0.091
      vertex 12.762 32.4143 -0.391
    endloop
  endfacet
  facet normal 0.641142 0.767422 -0
    outer loop
      vertex 12.5572 32.5854 -0.391
      vertex 12.5572 32.5854 -0.091
      vertex 12.762 32.4143 -0.091
    endloop
  endfacet
  facet normal 0.592259 0.805748 0
    outer loop
      vertex 12.3466 32.7402 -0.391
      vertex 12.5572 32.5854 -0.091
      vertex 12.5572 32.5854 -0.391
    endloop
  endfacet
  facet normal 0.592259 0.805748 -0
    outer loop
      vertex 12.3466 32.7402 -0.391
      vertex 12.3466 32.7402 -0.091
      vertex 12.5572 32.5854 -0.091
    endloop
  endfacet
  facet normal 0.539142 0.842215 0
    outer loop
      vertex 12.1304 32.8786 -0.391
      vertex 12.3466 32.7402 -0.091
      vertex 12.3466 32.7402 -0.391
    endloop
  endfacet
  facet normal 0.539142 0.842215 -0
    outer loop
      vertex 12.1304 32.8786 -0.391
      vertex 12.1304 32.8786 -0.091
      vertex 12.3466 32.7402 -0.091
    endloop
  endfacet
  facet normal 0.482222 0.876049 0
    outer loop
      vertex 11.9084 33.0008 -0.391
      vertex 12.1304 32.8786 -0.091
      vertex 12.1304 32.8786 -0.391
    endloop
  endfacet
  facet normal 0.482222 0.876049 -0
    outer loop
      vertex 11.9084 33.0008 -0.391
      vertex 11.9084 33.0008 -0.091
      vertex 12.1304 32.8786 -0.091
    endloop
  endfacet
  facet normal 0.42186 0.906661 0
    outer loop
      vertex 11.6808 33.1067 -0.391
      vertex 11.9084 33.0008 -0.091
      vertex 11.9084 33.0008 -0.391
    endloop
  endfacet
  facet normal 0.42186 0.906661 -0
    outer loop
      vertex 11.6808 33.1067 -0.391
      vertex 11.6808 33.1067 -0.091
      vertex 11.9084 33.0008 -0.091
    endloop
  endfacet
  facet normal 0.358389 0.933572 0
    outer loop
      vertex 11.4474 33.1963 -0.391
      vertex 11.6808 33.1067 -0.091
      vertex 11.6808 33.1067 -0.391
    endloop
  endfacet
  facet normal 0.358389 0.933572 -0
    outer loop
      vertex 11.4474 33.1963 -0.391
      vertex 11.4474 33.1963 -0.091
      vertex 11.6808 33.1067 -0.091
    endloop
  endfacet
  facet normal 0.293468 0.955969 0
    outer loop
      vertex 11.2083 33.2697 -0.391
      vertex 11.4474 33.1963 -0.091
      vertex 11.4474 33.1963 -0.391
    endloop
  endfacet
  facet normal 0.293468 0.955969 -0
    outer loop
      vertex 11.2083 33.2697 -0.391
      vertex 11.2083 33.2697 -0.091
      vertex 11.4474 33.1963 -0.091
    endloop
  endfacet
  facet normal 0.226777 0.973947 0
    outer loop
      vertex 10.9635 33.3267 -0.391
      vertex 11.2083 33.2697 -0.091
      vertex 11.2083 33.2697 -0.391
    endloop
  endfacet
  facet normal 0.226777 0.973947 -0
    outer loop
      vertex 10.9635 33.3267 -0.391
      vertex 10.9635 33.3267 -0.091
      vertex 11.2083 33.2697 -0.091
    endloop
  endfacet
  facet normal 0.16031 0.987067 0
    outer loop
      vertex 10.7129 33.3674 -0.391
      vertex 10.9635 33.3267 -0.091
      vertex 10.9635 33.3267 -0.391
    endloop
  endfacet
  facet normal 0.16031 0.987067 -0
    outer loop
      vertex 10.7129 33.3674 -0.391
      vertex 10.7129 33.3674 -0.091
      vertex 10.9635 33.3267 -0.091
    endloop
  endfacet
  facet normal 0.0947724 0.995499 0
    outer loop
      vertex 10.4566 33.3918 -0.391
      vertex 10.7129 33.3674 -0.091
      vertex 10.7129 33.3674 -0.391
    endloop
  endfacet
  facet normal 0.0947724 0.995499 -0
    outer loop
      vertex 10.4566 33.3918 -0.391
      vertex 10.4566 33.3918 -0.091
      vertex 10.7129 33.3674 -0.091
    endloop
  endfacet
  facet normal 0.0312943 0.99951 0
    outer loop
      vertex 10.1947 33.4 -0.391
      vertex 10.4566 33.3918 -0.091
      vertex 10.4566 33.3918 -0.391
    endloop
  endfacet
  facet normal 0.0312943 0.99951 -0
    outer loop
      vertex 10.1947 33.4 -0.391
      vertex 10.1947 33.4 -0.091
      vertex 10.4566 33.3918 -0.091
    endloop
  endfacet
  facet normal -0.0312729 0.999511 0
    outer loop
      vertex 9.93262 33.3918 -0.391
      vertex 10.1947 33.4 -0.091
      vertex 10.1947 33.4 -0.391
    endloop
  endfacet
  facet normal -0.0312729 0.999511 0
    outer loop
      vertex 9.93262 33.3918 -0.391
      vertex 9.93262 33.3918 -0.091
      vertex 10.1947 33.4 -0.091
    endloop
  endfacet
  facet normal -0.0947578 0.9955 0
    outer loop
      vertex 9.67628 33.3674 -0.391
      vertex 9.93262 33.3918 -0.091
      vertex 9.93262 33.3918 -0.391
    endloop
  endfacet
  facet normal -0.0947578 0.9955 0
    outer loop
      vertex 9.67628 33.3674 -0.391
      vertex 9.67628 33.3674 -0.091
      vertex 9.93262 33.3918 -0.091
    endloop
  endfacet
  facet normal -0.160285 0.987071 0
    outer loop
      vertex 9.42564 33.3267 -0.391
      vertex 9.67628 33.3674 -0.091
      vertex 9.67628 33.3674 -0.391
    endloop
  endfacet
  facet normal -0.160285 0.987071 0
    outer loop
      vertex 9.42564 33.3267 -0.391
      vertex 9.42564 33.3267 -0.091
      vertex 9.67628 33.3674 -0.091
    endloop
  endfacet
  facet normal -0.22668 0.973969 0
    outer loop
      vertex 9.18073 33.2697 -0.391
      vertex 9.42564 33.3267 -0.091
      vertex 9.42564 33.3267 -0.391
    endloop
  endfacet
  facet normal -0.22668 0.973969 0
    outer loop
      vertex 9.18073 33.2697 -0.391
      vertex 9.18073 33.2697 -0.091
      vertex 9.42564 33.3267 -0.091
    endloop
  endfacet
  facet normal -0.293356 0.956003 0
    outer loop
      vertex 8.94153 33.1963 -0.391
      vertex 9.18073 33.2697 -0.091
      vertex 9.18073 33.2697 -0.391
    endloop
  endfacet
  facet normal -0.293356 0.956003 0
    outer loop
      vertex 8.94153 33.1963 -0.391
      vertex 8.94153 33.1963 -0.091
      vertex 9.18073 33.2697 -0.091
    endloop
  endfacet
  facet normal -0.358269 0.933618 0
    outer loop
      vertex 8.70804 33.1067 -0.391
      vertex 8.94153 33.1963 -0.091
      vertex 8.94153 33.1963 -0.391
    endloop
  endfacet
  facet normal -0.358269 0.933618 0
    outer loop
      vertex 8.70804 33.1067 -0.391
      vertex 8.70804 33.1067 -0.091
      vertex 8.94153 33.1963 -0.091
    endloop
  endfacet
  facet normal -0.421601 0.906781 0
    outer loop
      vertex 8.48027 33.0008 -0.391
      vertex 8.70804 33.1067 -0.091
      vertex 8.70804 33.1067 -0.391
    endloop
  endfacet
  facet normal -0.421601 0.906781 0
    outer loop
      vertex 8.48027 33.0008 -0.391
      vertex 8.48027 33.0008 -0.091
      vertex 8.70804 33.1067 -0.091
    endloop
  endfacet
  facet normal -0.482138 0.876095 0
    outer loop
      vertex 8.25822 32.8786 -0.391
      vertex 8.48027 33.0008 -0.091
      vertex 8.48027 33.0008 -0.391
    endloop
  endfacet
  facet normal -0.482138 0.876095 0
    outer loop
      vertex 8.25822 32.8786 -0.391
      vertex 8.25822 32.8786 -0.091
      vertex 8.48027 33.0008 -0.091
    endloop
  endfacet
  facet normal -0.538877 0.842385 0
    outer loop
      vertex 8.04187 32.7402 -0.391
      vertex 8.25822 32.8786 -0.091
      vertex 8.25822 32.8786 -0.391
    endloop
  endfacet
  facet normal -0.538877 0.842385 0
    outer loop
      vertex 8.04187 32.7402 -0.391
      vertex 8.04187 32.7402 -0.091
      vertex 8.25822 32.8786 -0.091
    endloop
  endfacet
  facet normal -0.592222 0.805775 0
    outer loop
      vertex 7.83125 32.5854 -0.391
      vertex 8.04187 32.7402 -0.091
      vertex 8.04187 32.7402 -0.391
    endloop
  endfacet
  facet normal -0.592222 0.805775 0
    outer loop
      vertex 7.83125 32.5854 -0.391
      vertex 7.83125 32.5854 -0.091
      vertex 8.04187 32.7402 -0.091
    endloop
  endfacet
  facet normal -0.640939 0.767591 0
    outer loop
      vertex 7.62634 32.4143 -0.391
      vertex 7.83125 32.5854 -0.091
      vertex 7.83125 32.5854 -0.391
    endloop
  endfacet
  facet normal -0.640939 0.767591 0
    outer loop
      vertex 7.62634 32.4143 -0.391
      vertex 7.62634 32.4143 -0.091
      vertex 7.83125 32.5854 -0.091
    endloop
  endfacet
  facet normal -0.685223 0.728333 0
    outer loop
      vertex 7.42715 32.2269 -0.391
      vertex 7.62634 32.4143 -0.091
      vertex 7.62634 32.4143 -0.391
    endloop
  endfacet
  facet normal -0.685223 0.728333 0
    outer loop
      vertex 7.42715 32.2269 -0.391
      vertex 7.42715 32.2269 -0.091
      vertex 7.62634 32.4143 -0.091
    endloop
  endfacet
  facet normal -0.724893 0.688862 0
    outer loop
      vertex 7.23367 32.0233 -0.391
      vertex 7.42715 32.2269 -0.091
      vertex 7.42715 32.2269 -0.391
    endloop
  endfacet
  facet normal -0.724893 0.688862 0
    outer loop
      vertex 7.23367 32.0233 -0.391
      vertex 7.23367 32.0233 -0.091
      vertex 7.42715 32.2269 -0.091
    endloop
  endfacet
  facet normal -0.761319 0.648378 0
    outer loop
      vertex 7.05048 31.8082 -0.391
      vertex 7.23367 32.0233 -0.091
      vertex 7.23367 32.0233 -0.391
    endloop
  endfacet
  facet normal -0.761319 0.648378 0
    outer loop
      vertex 7.05048 31.8082 -0.391
      vertex 7.05048 31.8082 -0.091
      vertex 7.23367 32.0233 -0.091
    endloop
  endfacet
  facet normal -0.795684 0.605712 0
    outer loop
      vertex 6.88194 31.5868 -0.391
      vertex 7.05048 31.8082 -0.091
      vertex 7.05048 31.8082 -0.391
    endloop
  endfacet
  facet normal -0.795684 0.605712 0
    outer loop
      vertex 6.88194 31.5868 -0.391
      vertex 6.88194 31.5868 -0.091
      vertex 7.05048 31.8082 -0.091
    endloop
  endfacet
  facet normal -0.828655 0.55976 0
    outer loop
      vertex 6.72806 31.359 -0.391
      vertex 6.88194 31.5868 -0.091
      vertex 6.88194 31.5868 -0.391
    endloop
  endfacet
  facet normal -0.828655 0.55976 0
    outer loop
      vertex 6.72806 31.359 -0.391
      vertex 6.72806 31.359 -0.091
      vertex 6.88194 31.5868 -0.091
    endloop
  endfacet
  facet normal -0.859495 0.511144 0
    outer loop
      vertex 6.58884 31.1249 -0.391
      vertex 6.72806 31.359 -0.091
      vertex 6.72806 31.359 -0.391
    endloop
  endfacet
  facet normal -0.859495 0.511144 0
    outer loop
      vertex 6.58884 31.1249 -0.391
      vertex 6.58884 31.1249 -0.091
      vertex 6.72806 31.359 -0.091
    endloop
  endfacet
  facet normal -0.887848 0.460137 0
    outer loop
      vertex 6.46425 30.8845 -0.391
      vertex 6.58884 31.1249 -0.091
      vertex 6.58884 31.1249 -0.391
    endloop
  endfacet
  facet normal -0.887848 0.460137 0
    outer loop
      vertex 6.46425 30.8845 -0.391
      vertex 6.46425 30.8845 -0.091
      vertex 6.58884 31.1249 -0.091
    endloop
  endfacet
  facet normal -0.913521 0.406791 0
    outer loop
      vertex 6.35435 30.6377 -0.391
      vertex 6.46425 30.8845 -0.091
      vertex 6.46425 30.8845 -0.391
    endloop
  endfacet
  facet normal -0.913521 0.406791 0
    outer loop
      vertex 6.35435 30.6377 -0.391
      vertex 6.35435 30.6377 -0.091
      vertex 6.46425 30.8845 -0.091
    endloop
  endfacet
  facet normal -0.935894 0.352282 0
    outer loop
      vertex 6.25908 30.3846 -0.391
      vertex 6.35435 30.6377 -0.091
      vertex 6.35435 30.6377 -0.391
    endloop
  endfacet
  facet normal -0.935894 0.352282 0
    outer loop
      vertex 6.25908 30.3846 -0.391
      vertex 6.25908 30.3846 -0.091
      vertex 6.35435 30.6377 -0.091
    endloop
  endfacet
  facet normal -0.954985 0.296653 0
    outer loop
      vertex 6.17847 30.1251 -0.391
      vertex 6.25908 30.3846 -0.091
      vertex 6.25908 30.3846 -0.391
    endloop
  endfacet
  facet normal -0.954985 0.296653 0
    outer loop
      vertex 6.17847 30.1251 -0.391
      vertex 6.17847 30.1251 -0.091
      vertex 6.25908 30.3846 -0.091
    endloop
  endfacet
  facet normal -0.970571 0.240817 0
    outer loop
      vertex 6.11252 29.8593 -0.391
      vertex 6.17847 30.1251 -0.091
      vertex 6.17847 30.1251 -0.391
    endloop
  endfacet
  facet normal -0.970571 0.240817 0
    outer loop
      vertex 6.11252 29.8593 -0.391
      vertex 6.11252 29.8593 -0.091
      vertex 6.17847 30.1251 -0.091
    endloop
  endfacet
  facet normal -0.982707 0.185169 0
    outer loop
      vertex 6.06123 29.5871 -0.391
      vertex 6.11252 29.8593 -0.091
      vertex 6.11252 29.8593 -0.391
    endloop
  endfacet
  facet normal -0.982707 0.185169 0
    outer loop
      vertex 6.06123 29.5871 -0.391
      vertex 6.06123 29.5871 -0.091
      vertex 6.11252 29.8593 -0.091
    endloop
  endfacet
  facet normal -0.991461 0.130403 0
    outer loop
      vertex 6.0246 29.3086 -0.391
      vertex 6.06123 29.5871 -0.091
      vertex 6.06123 29.5871 -0.391
    endloop
  endfacet
  facet normal -0.991461 0.130403 0
    outer loop
      vertex 6.0246 29.3086 -0.391
      vertex 6.0246 29.3086 -0.091
      vertex 6.06123 29.5871 -0.091
    endloop
  endfacet
  facet normal -0.997032 0.0769829 0
    outer loop
      vertex 6.00261 29.0238 -0.391
      vertex 6.0246 29.3086 -0.091
      vertex 6.0246 29.3086 -0.391
    endloop
  endfacet
  facet normal -0.997032 0.0769829 0
    outer loop
      vertex 6.00261 29.0238 -0.391
      vertex 6.00261 29.0238 -0.091
      vertex 6.0246 29.3086 -0.091
    endloop
  endfacet
  facet normal -0.999682 0.025198 0
    outer loop
      vertex 5.99527 28.7326 -0.391
      vertex 6.00261 29.0238 -0.091
      vertex 6.00261 29.0238 -0.391
    endloop
  endfacet
  facet normal -0.999682 0.025198 0
    outer loop
      vertex 5.99527 28.7326 -0.391
      vertex 5.99527 28.7326 -0.091
      vertex 6.00261 29.0238 -0.091
    endloop
  endfacet
  facet normal -1 0 0
    outer loop
      vertex 5.99527 -0.699997 -0.391
      vertex 5.99527 28.7326 -0.091
      vertex 5.99527 28.7326 -0.391
    endloop
  endfacet
  facet normal -1 0 0
    outer loop
      vertex 5.99527 -0.699997 -0.391
      vertex 5.99527 -0.699997 -0.091
      vertex 5.99527 28.7326 -0.091
    endloop
  endfacet
  facet normal 0 -1 0
    outer loop
      vertex 32.2505 -0.699997 -0.391
      vertex 5.99527 -0.699997 -0.091
      vertex 5.99527 -0.699997 -0.391
    endloop
  endfacet
  facet normal 0 -1 0
    outer loop
      vertex 32.2505 -0.699997 -0.391
      vertex 32.2505 -0.699997 -0.091
      vertex 5.99527 -0.699997 -0.091
    endloop
  endfacet
  facet normal 0.869742 -0.493507 0
    outer loop
      vertex 46.3027 24.0652 -0.391
      vertex 32.2505 -0.699997 -0.091
      vertex 32.2505 -0.699997 -0.391
    endloop
  endfacet
  facet normal 0.869742 -0.493507 0
    outer loop
      vertex 46.3027 24.0652 -0.391
      vertex 46.3027 24.0652 -0.091
      vertex 32.2505 -0.699997 -0.091
    endloop
  endfacet
endsolid OpenSCAD_Model
