solid OpenSCAD_Model
  facet normal 0 0 -1
    outer loop
      vertex 31.4835 23.1903 -0.391
      vertex 30.7804 23.4576 -0.391
      vertex 34.4813 31.9435 -0.391
    endloop
  endfacet
  facet normal -0 0 -1
    outer loop
      vertex 34.4813 31.9435 -0.391
      vertex 30.7804 23.4576 -0.391
      vertex 33.3091 32.3885 -0.391
    endloop
  endfacet
  facet normal 0 0 -1
    outer loop
      vertex 31.4835 23.1903 -0.391
      vertex 34.4813 31.9435 -0.391
      vertex 35.6235 31.4176 -0.391
    endloop
  endfacet
  facet normal 0 0 -1
    outer loop
      vertex 32.1686 22.8743 -0.391
      vertex 31.4835 23.1903 -0.391
      vertex 35.6235 31.4176 -0.391
    endloop
  endfacet
  facet normal 0 -0 -1
    outer loop
      vertex 32.1067 32.7527 -0.391
      vertex 33.3091 32.3885 -0.391
      vertex 30.0595 23.6763 -0.391
    endloop
  endfacet
  facet normal 0 0 -1
    outer loop
      vertex 30.0595 23.6763 -0.391
      vertex 33.3091 32.3885 -0.391
      vertex 30.7804 23.4576 -0.391
    endloop
  endfacet
  facet normal 0 0 -1
    outer loop
      vertex 30.0595 23.6763 -0.391
      vertex 29.3207 23.8465 -0.391
      vertex 32.1067 32.7527 -0.391
    endloop
  endfacet
  facet normal -0 0 -1
    outer loop
      vertex 28.3193 33.3595 -0.391
      vertex 26.9967 24.0652 -0.391
      vertex 26.9967 33.4 -0.391
    endloop
  endfacet
  facet normal 0 0 -1
    outer loop
      vertex 27.7892 24.0409 -0.391
      vertex 26.9967 24.0652 -0.391
      vertex 28.3193 33.3595 -0.391
    endloop
  endfacet
  facet normal 0 0 -1
    outer loop
      vertex 28.5639 23.968 -0.391
      vertex 30.8743 33.0359 -0.391
      vertex 29.3207 23.8465 -0.391
    endloop
  endfacet
  facet normal 0 0 -1
    outer loop
      vertex 28.5639 23.968 -0.391
      vertex 29.6119 33.2382 -0.391
      vertex 30.8743 33.0359 -0.391
    endloop
  endfacet
  facet normal 0 0 -1
    outer loop
      vertex 28.5639 23.968 -0.391
      vertex 27.7892 24.0409 -0.391
      vertex 29.6119 33.2382 -0.391
    endloop
  endfacet
  facet normal -0 0 -1
    outer loop
      vertex 29.6119 33.2382 -0.391
      vertex 27.7892 24.0409 -0.391
      vertex 28.3193 33.3595 -0.391
    endloop
  endfacet
  facet normal 0 -0 -1
    outer loop
      vertex 30.8743 33.0359 -0.391
      vertex 32.1067 32.7527 -0.391
      vertex 29.3207 23.8465 -0.391
    endloop
  endfacet
  facet normal 0 -0 -1
    outer loop
      vertex 26.9967 33.4 -0.391
      vertex 26.9967 24.0652 -0.391
      vertex 14.3935 24.0652 -0.391
    endloop
  endfacet
  facet normal -0 0 -1
    outer loop
      vertex 36.7356 30.8107 -0.391
      vertex 32.1686 22.8743 -0.391
      vertex 35.6235 31.4176 -0.391
    endloop
  endfacet
  facet normal -0 0 -1
    outer loop
      vertex 39.8915 28.5046 -0.391
      vertex 34.1165 21.6348 -0.391
      vertex 38.8696 29.3542 -0.391
    endloop
  endfacet
  facet normal 0 0 -1
    outer loop
      vertex 39.8915 28.5046 -0.391
      vertex 34.73 21.1244 -0.391
      vertex 34.1165 21.6348 -0.391
    endloop
  endfacet
  facet normal -0 0 -1
    outer loop
      vertex 42.7554 25.4939 -0.391
      vertex 35.9032 19.9578 -0.391
      vertex 41.8451 26.5626 -0.391
    endloop
  endfacet
  facet normal 0 0 -1
    outer loop
      vertex 42.7554 25.4939 -0.391
      vertex 36.4502 19.316 -0.391
      vertex 35.9032 19.9578 -0.391
    endloop
  endfacet
  facet normal 0 0 -1
    outer loop
      vertex 5.99527 -0.699997 -0.391
      vertex 5.99527 28.7326 -0.391
      vertex 14.3935 24.0652 -0.391
    endloop
  endfacet
  facet normal 0 0 -1
    outer loop
      vertex 37.4128 17.9727 -0.391
      vertex 36.9533 18.6543 -0.391
      vertex 44.3575 23.2563 -0.391
    endloop
  endfacet
  facet normal 0 -0 -1
    outer loop
      vertex 7.83191 32.5854 -0.391
      vertex 10.1959 33.4 -0.391
      vertex 7.62698 32.4143 -0.391
    endloop
  endfacet
  facet normal 0 -0 -1
    outer loop
      vertex 7.62698 32.4143 -0.391
      vertex 10.1959 33.4 -0.391
      vertex 7.42778 32.2269 -0.391
    endloop
  endfacet
  facet normal 0 0 -1
    outer loop
      vertex 8.70885 33.1067 -0.391
      vertex 8.94238 33.1963 -0.391
      vertex 9.18166 33.2697 -0.391
    endloop
  endfacet
  facet normal 0 0 -1
    outer loop
      vertex 8.48103 33.0008 -0.391
      vertex 8.70885 33.1067 -0.391
      vertex 9.18166 33.2697 -0.391
    endloop
  endfacet
  facet normal 0 0 -1
    outer loop
      vertex 9.42664 33.3267 -0.391
      vertex 8.48103 33.0008 -0.391
      vertex 9.18166 33.2697 -0.391
    endloop
  endfacet
  facet normal 0 0 -1
    outer loop
      vertex 9.42664 33.3267 -0.391
      vertex 8.25893 32.8786 -0.391
      vertex 8.48103 33.0008 -0.391
    endloop
  endfacet
  facet normal 0 -0 -1
    outer loop
      vertex 9.42664 33.3267 -0.391
      vertex 9.67734 33.3674 -0.391
      vertex 8.25893 32.8786 -0.391
    endloop
  endfacet
  facet normal 0 -0 -1
    outer loop
      vertex 8.25893 32.8786 -0.391
      vertex 9.67734 33.3674 -0.391
      vertex 8.04256 32.7402 -0.391
    endloop
  endfacet
  facet normal 0 0 -1
    outer loop
      vertex 8.04256 32.7402 -0.391
      vertex 9.67734 33.3674 -0.391
      vertex 9.93378 33.3918 -0.391
    endloop
  endfacet
  facet normal 0 0 -1
    outer loop
      vertex 7.83191 32.5854 -0.391
      vertex 8.04256 32.7402 -0.391
      vertex 9.93378 33.3918 -0.391
    endloop
  endfacet
  facet normal 0 0 -1
    outer loop
      vertex 10.1959 33.4 -0.391
      vertex 7.83191 32.5854 -0.391
      vertex 9.93378 33.3918 -0.391
    endloop
  endfacet
  facet normal 0 -0 -1
    outer loop
      vertex 7.42778 32.2269 -0.391
      vertex 10.1959 33.4 -0.391
      vertex 7.2343 32.0233 -0.391
    endloop
  endfacet
  facet normal 0 -0 -1
    outer loop
      vertex 7.2343 32.0233 -0.391
      vertex 10.1959 33.4 -0.391
      vertex 7.05103 31.8082 -0.391
    endloop
  endfacet
  facet normal 0 -0 -1
    outer loop
      vertex 7.05103 31.8082 -0.391
      vertex 10.1959 33.4 -0.391
      vertex 6.88239 31.5868 -0.391
    endloop
  endfacet
  facet normal 0 -0 -1
    outer loop
      vertex 6.88239 31.5868 -0.391
      vertex 10.1959 33.4 -0.391
      vertex 6.72844 31.359 -0.391
    endloop
  endfacet
  facet normal 0 -0 -1
    outer loop
      vertex 6.72844 31.359 -0.391
      vertex 10.1959 33.4 -0.391
      vertex 6.58913 31.1249 -0.391
    endloop
  endfacet
  facet normal 0 -0 -1
    outer loop
      vertex 6.58913 31.1249 -0.391
      vertex 10.1959 33.4 -0.391
      vertex 6.46449 30.8845 -0.391
    endloop
  endfacet
  facet normal 0 -0 -1
    outer loop
      vertex 6.46449 30.8845 -0.391
      vertex 10.1959 33.4 -0.391
      vertex 6.35452 30.6377 -0.391
    endloop
  endfacet
  facet normal 0 -0 -1
    outer loop
      vertex 6.35452 30.6377 -0.391
      vertex 10.1959 33.4 -0.391
      vertex 6.2592 30.3846 -0.391
    endloop
  endfacet
  facet normal 0 -0 -1
    outer loop
      vertex 6.2592 30.3846 -0.391
      vertex 10.1959 33.4 -0.391
      vertex 6.17857 30.1251 -0.391
    endloop
  endfacet
  facet normal 0 -0 -1
    outer loop
      vertex 6.17857 30.1251 -0.391
      vertex 10.1959 33.4 -0.391
      vertex 6.11258 29.8593 -0.391
    endloop
  endfacet
  facet normal 0 -0 -1
    outer loop
      vertex 6.11258 29.8593 -0.391
      vertex 10.1959 33.4 -0.391
      vertex 6.06126 29.5871 -0.391
    endloop
  endfacet
  facet normal 0 -0 -1
    outer loop
      vertex 6.06126 29.5871 -0.391
      vertex 10.1959 33.4 -0.391
      vertex 6.02461 29.3086 -0.391
    endloop
  endfacet
  facet normal 0 -0 -1
    outer loop
      vertex 6.02461 29.3086 -0.391
      vertex 10.1959 33.4 -0.391
      vertex 6.00261 29.0238 -0.391
    endloop
  endfacet
  facet normal 0 -0 -1
    outer loop
      vertex 6.00261 29.0238 -0.391
      vertex 10.1959 33.4 -0.391
      vertex 5.99527 28.7326 -0.391
    endloop
  endfacet
  facet normal 0 0 -1
    outer loop
      vertex 5.99527 28.7326 -0.391
      vertex 10.1959 33.4 -0.391
      vertex 14.3935 24.0652 -0.391
    endloop
  endfacet
  facet normal 0 0 -1
    outer loop
      vertex 5.99527 -0.699997 -0.391
      vertex 14.3935 24.0652 -0.391
      vertex 14.3935 -0.699997 -0.391
    endloop
  endfacet
  facet normal -0 0 -1
    outer loop
      vertex 45.0493 22.0873 -0.391
      vertex 37.4128 17.9727 -0.391
      vertex 44.3575 23.2563 -0.391
    endloop
  endfacet
  facet normal 0 0 -1
    outer loop
      vertex 39.2504 13.4655 -0.391
      vertex 39.0535 14.2664 -0.391
      vertex 47.4161 15.7413 -0.391
    endloop
  endfacet
  facet normal 0 0 -1
    outer loop
      vertex 14.3935 24.0652 -0.391
      vertex 10.1959 33.4 -0.391
      vertex 26.9967 33.4 -0.391
    endloop
  endfacet
  facet normal 0 0 -1
    outer loop
      vertex 36.7356 30.8107 -0.391
      vertex 32.8358 22.5098 -0.391
      vertex 32.1686 22.8743 -0.391
    endloop
  endfacet
  facet normal 0 -0 -1
    outer loop
      vertex 36.7356 30.8107 -0.391
      vertex 37.8177 30.1229 -0.391
      vertex 32.8358 22.5098 -0.391
    endloop
  endfacet
  facet normal 0 0 -1
    outer loop
      vertex 33.4851 22.0966 -0.391
      vertex 37.8177 30.1229 -0.391
      vertex 38.8696 29.3542 -0.391
    endloop
  endfacet
  facet normal 0 0 -1
    outer loop
      vertex 32.8358 22.5098 -0.391
      vertex 37.8177 30.1229 -0.391
      vertex 33.4851 22.0966 -0.391
    endloop
  endfacet
  facet normal 0 0 -1
    outer loop
      vertex 34.1165 21.6348 -0.391
      vertex 33.4851 22.0966 -0.391
      vertex 38.8696 29.3542 -0.391
    endloop
  endfacet
  facet normal 0 -0 -1
    outer loop
      vertex 39.8915 28.5046 -0.391
      vertex 40.8833 27.5741 -0.391
      vertex 34.73 21.1244 -0.391
    endloop
  endfacet
  facet normal 0 0 -1
    outer loop
      vertex 35.3256 20.5654 -0.391
      vertex 40.8833 27.5741 -0.391
      vertex 41.8451 26.5626 -0.391
    endloop
  endfacet
  facet normal 0 0 -1
    outer loop
      vertex 34.73 21.1244 -0.391
      vertex 40.8833 27.5741 -0.391
      vertex 35.3256 20.5654 -0.391
    endloop
  endfacet
  facet normal 0 0 -1
    outer loop
      vertex 35.9032 19.9578 -0.391
      vertex 35.3256 20.5654 -0.391
      vertex 41.8451 26.5626 -0.391
    endloop
  endfacet
  facet normal 0 -0 -1
    outer loop
      vertex 42.7554 25.4939 -0.391
      vertex 43.5928 24.3918 -0.391
      vertex 36.4502 19.316 -0.391
    endloop
  endfacet
  facet normal 0 0 -1
    outer loop
      vertex 36.9533 18.6543 -0.391
      vertex 43.5928 24.3918 -0.391
      vertex 44.3575 23.2563 -0.391
    endloop
  endfacet
  facet normal 0 0 -1
    outer loop
      vertex 36.4502 19.316 -0.391
      vertex 43.5928 24.3918 -0.391
      vertex 36.9533 18.6543 -0.391
    endloop
  endfacet
  facet normal 0 0 -1
    outer loop
      vertex 45.0493 22.0873 -0.391
      vertex 37.8284 17.2712 -0.391
      vertex 37.4128 17.9727 -0.391
    endloop
  endfacet
  facet normal 0 -0 -1
    outer loop
      vertex 45.0493 22.0873 -0.391
      vertex 45.6683 20.8849 -0.391
      vertex 37.8284 17.2712 -0.391
    endloop
  endfacet
  facet normal 0 0 -1
    outer loop
      vertex 38.2003 16.5498 -0.391
      vertex 45.6683 20.8849 -0.391
      vertex 46.2145 19.6491 -0.391
    endloop
  endfacet
  facet normal 0 0 -1
    outer loop
      vertex 37.8284 17.2712 -0.391
      vertex 45.6683 20.8849 -0.391
      vertex 38.2003 16.5498 -0.391
    endloop
  endfacet
  facet normal 0 0 -1
    outer loop
      vertex 38.5285 15.8085 -0.391
      vertex 38.2003 16.5498 -0.391
      vertex 46.2145 19.6491 -0.391
    endloop
  endfacet
  facet normal -0 0 -1
    outer loop
      vertex 46.6879 18.3799 -0.391
      vertex 38.5285 15.8085 -0.391
      vertex 46.2145 19.6491 -0.391
    endloop
  endfacet
  facet normal 0 0 -1
    outer loop
      vertex 46.6879 18.3799 -0.391
      vertex 38.8129 15.0474 -0.391
      vertex 38.5285 15.8085 -0.391
    endloop
  endfacet
  facet normal 0 -0 -1
    outer loop
      vertex 46.6879 18.3799 -0.391
      vertex 47.0884 17.0773 -0.391
      vertex 38.8129 15.0474 -0.391
    endloop
  endfacet
  facet normal 0 0 -1
    outer loop
      vertex 38.8129 15.0474 -0.391
      vertex 47.0884 17.0773 -0.391
      vertex 39.0535 14.2664 -0.391
    endloop
  endfacet
  facet normal 0 0 -1
    outer loop
      vertex 39.0535 14.2664 -0.391
      vertex 47.0884 17.0773 -0.391
      vertex 47.4161 15.7413 -0.391
    endloop
  endfacet
  facet normal 0 -0 -1
    outer loop
      vertex 47.4161 15.7413 -0.391
      vertex 47.671 14.3719 -0.391
      vertex 39.2504 13.4655 -0.391
    endloop
  endfacet
  facet normal 0 0 -1
    outer loop
      vertex 39.2504 13.4655 -0.391
      vertex 47.671 14.3719 -0.391
      vertex 39.4036 12.6447 -0.391
    endloop
  endfacet
  facet normal 0 0 -1
    outer loop
      vertex 39.4036 12.6447 -0.391
      vertex 47.671 14.3719 -0.391
      vertex 47.853 12.969 -0.391
    endloop
  endfacet
  facet normal 0 0 -1
    outer loop
      vertex 39.513 11.804 -0.391
      vertex 39.4036 12.6447 -0.391
      vertex 47.853 12.969 -0.391
    endloop
  endfacet
  facet normal 0 0 -1
    outer loop
      vertex 47.9623 11.5327 -0.391
      vertex 39.513 11.804 -0.391
      vertex 47.853 12.969 -0.391
    endloop
  endfacet
  facet normal -0 0 -1
    outer loop
      vertex 47.9623 11.5327 -0.391
      vertex 39.5786 10.9435 -0.391
      vertex 39.513 11.804 -0.391
    endloop
  endfacet
  facet normal 0 -0 -1
    outer loop
      vertex 47.9623 11.5327 -0.391
      vertex 47.9987 10.063 -0.391
      vertex 39.5786 10.9435 -0.391
    endloop
  endfacet
  facet normal 0 0 -1
    outer loop
      vertex 39.5786 10.9435 -0.391
      vertex 47.9987 10.063 -0.391
      vertex 39.6005 10.063 -0.391
    endloop
  endfacet
  facet normal 0 0 -1
    outer loop
      vertex 39.6005 10.063 -0.391
      vertex 47.9987 10.063 -0.391
      vertex 47.9987 -0.699997 -0.391
    endloop
  endfacet
  facet normal 0 0 -1
    outer loop
      vertex 39.6005 -0.699997 -0.391
      vertex 39.6005 10.063 -0.391
      vertex 47.9987 -0.699997 -0.391
    endloop
  endfacet
  facet normal 0 0 1
    outer loop
      vertex 34.4813 31.9435 -0.091
      vertex 30.7804 23.4576 -0.091
      vertex 31.4835 23.1903 -0.091
    endloop
  endfacet
  facet normal 0 0 1
    outer loop
      vertex 33.3091 32.3885 -0.091
      vertex 30.7804 23.4576 -0.091
      vertex 34.4813 31.9435 -0.091
    endloop
  endfacet
  facet normal 0 0 1
    outer loop
      vertex 35.6235 31.4176 -0.091
      vertex 34.4813 31.9435 -0.091
      vertex 31.4835 23.1903 -0.091
    endloop
  endfacet
  facet normal 0 0 1
    outer loop
      vertex 35.6235 31.4176 -0.091
      vertex 31.4835 23.1903 -0.091
      vertex 32.1686 22.8743 -0.091
    endloop
  endfacet
  facet normal 0 0 1
    outer loop
      vertex 30.0595 23.6763 -0.091
      vertex 33.3091 32.3885 -0.091
      vertex 32.1067 32.7527 -0.091
    endloop
  endfacet
  facet normal 0 -0 1
    outer loop
      vertex 30.7804 23.4576 -0.091
      vertex 33.3091 32.3885 -0.091
      vertex 30.0595 23.6763 -0.091
    endloop
  endfacet
  facet normal 0 0 1
    outer loop
      vertex 32.1067 32.7527 -0.091
      vertex 29.3207 23.8465 -0.091
      vertex 30.0595 23.6763 -0.091
    endloop
  endfacet
  facet normal 0 0 1
    outer loop
      vertex 26.9967 33.4 -0.091
      vertex 26.9967 24.0652 -0.091
      vertex 28.3193 33.3595 -0.091
    endloop
  endfacet
  facet normal 0 0 1
    outer loop
      vertex 28.3193 33.3595 -0.091
      vertex 26.9967 24.0652 -0.091
      vertex 27.7892 24.0409 -0.091
    endloop
  endfacet
  facet normal 0 -0 1
    outer loop
      vertex 29.3207 23.8465 -0.091
      vertex 30.8743 33.0359 -0.091
      vertex 28.5639 23.968 -0.091
    endloop
  endfacet
  facet normal 0 0 1
    outer loop
      vertex 30.8743 33.0359 -0.091
      vertex 29.6119 33.2382 -0.091
      vertex 28.5639 23.968 -0.091
    endloop
  endfacet
  facet normal 0 0 1
    outer loop
      vertex 29.6119 33.2382 -0.091
      vertex 27.7892 24.0409 -0.091
      vertex 28.5639 23.968 -0.091
    endloop
  endfacet
  facet normal 0 0 1
    outer loop
      vertex 28.3193 33.3595 -0.091
      vertex 27.7892 24.0409 -0.091
      vertex 29.6119 33.2382 -0.091
    endloop
  endfacet
  facet normal 0 0 1
    outer loop
      vertex 29.3207 23.8465 -0.091
      vertex 32.1067 32.7527 -0.091
      vertex 30.8743 33.0359 -0.091
    endloop
  endfacet
  facet normal 0 0 1
    outer loop
      vertex 14.3935 24.0652 -0.091
      vertex 26.9967 24.0652 -0.091
      vertex 26.9967 33.4 -0.091
    endloop
  endfacet
  facet normal 0 0 1
    outer loop
      vertex 35.6235 31.4176 -0.091
      vertex 32.1686 22.8743 -0.091
      vertex 36.7356 30.8107 -0.091
    endloop
  endfacet
  facet normal 0 0 1
    outer loop
      vertex 38.8696 29.3542 -0.091
      vertex 34.1165 21.6348 -0.091
      vertex 39.8915 28.5046 -0.091
    endloop
  endfacet
  facet normal -0 0 1
    outer loop
      vertex 34.1165 21.6348 -0.091
      vertex 34.73 21.1244 -0.091
      vertex 39.8915 28.5046 -0.091
    endloop
  endfacet
  facet normal 0 0 1
    outer loop
      vertex 41.8451 26.5626 -0.091
      vertex 35.9032 19.9578 -0.091
      vertex 42.7554 25.4939 -0.091
    endloop
  endfacet
  facet normal -0 0 1
    outer loop
      vertex 35.9032 19.9578 -0.091
      vertex 36.4502 19.316 -0.091
      vertex 42.7554 25.4939 -0.091
    endloop
  endfacet
  facet normal 0 0 1
    outer loop
      vertex 14.3935 24.0652 -0.091
      vertex 5.99527 28.7326 -0.091
      vertex 5.99527 -0.699997 -0.091
    endloop
  endfacet
  facet normal 0 0 1
    outer loop
      vertex 44.3575 23.2563 -0.091
      vertex 36.9533 18.6543 -0.091
      vertex 37.4128 17.9727 -0.091
    endloop
  endfacet
  facet normal 0 0 1
    outer loop
      vertex 7.62698 32.4143 -0.091
      vertex 10.1959 33.4 -0.091
      vertex 7.83191 32.5854 -0.091
    endloop
  endfacet
  facet normal 0 0 1
    outer loop
      vertex 7.42778 32.2269 -0.091
      vertex 10.1959 33.4 -0.091
      vertex 7.62698 32.4143 -0.091
    endloop
  endfacet
  facet normal 0 0 1
    outer loop
      vertex 9.18166 33.2697 -0.091
      vertex 8.94238 33.1963 -0.091
      vertex 8.70885 33.1067 -0.091
    endloop
  endfacet
  facet normal 0 0 1
    outer loop
      vertex 9.18166 33.2697 -0.091
      vertex 8.70885 33.1067 -0.091
      vertex 8.48103 33.0008 -0.091
    endloop
  endfacet
  facet normal -0 0 1
    outer loop
      vertex 9.18166 33.2697 -0.091
      vertex 8.48103 33.0008 -0.091
      vertex 9.42664 33.3267 -0.091
    endloop
  endfacet
  facet normal -0 0 1
    outer loop
      vertex 8.48103 33.0008 -0.091
      vertex 8.25893 32.8786 -0.091
      vertex 9.42664 33.3267 -0.091
    endloop
  endfacet
  facet normal 0 0 1
    outer loop
      vertex 8.25893 32.8786 -0.091
      vertex 9.67734 33.3674 -0.091
      vertex 9.42664 33.3267 -0.091
    endloop
  endfacet
  facet normal 0 0 1
    outer loop
      vertex 8.04256 32.7402 -0.091
      vertex 9.67734 33.3674 -0.091
      vertex 8.25893 32.8786 -0.091
    endloop
  endfacet
  facet normal 0 0 1
    outer loop
      vertex 9.93378 33.3918 -0.091
      vertex 9.67734 33.3674 -0.091
      vertex 8.04256 32.7402 -0.091
    endloop
  endfacet
  facet normal 0 0 1
    outer loop
      vertex 9.93378 33.3918 -0.091
      vertex 8.04256 32.7402 -0.091
      vertex 7.83191 32.5854 -0.091
    endloop
  endfacet
  facet normal -0 0 1
    outer loop
      vertex 9.93378 33.3918 -0.091
      vertex 7.83191 32.5854 -0.091
      vertex 10.1959 33.4 -0.091
    endloop
  endfacet
  facet normal 0 0 1
    outer loop
      vertex 7.2343 32.0233 -0.091
      vertex 10.1959 33.4 -0.091
      vertex 7.42778 32.2269 -0.091
    endloop
  endfacet
  facet normal 0 0 1
    outer loop
      vertex 7.05103 31.8082 -0.091
      vertex 10.1959 33.4 -0.091
      vertex 7.2343 32.0233 -0.091
    endloop
  endfacet
  facet normal 0 0 1
    outer loop
      vertex 6.88239 31.5868 -0.091
      vertex 10.1959 33.4 -0.091
      vertex 7.05103 31.8082 -0.091
    endloop
  endfacet
  facet normal 0 0 1
    outer loop
      vertex 6.72844 31.359 -0.091
      vertex 10.1959 33.4 -0.091
      vertex 6.88239 31.5868 -0.091
    endloop
  endfacet
  facet normal 0 0 1
    outer loop
      vertex 6.58913 31.1249 -0.091
      vertex 10.1959 33.4 -0.091
      vertex 6.72844 31.359 -0.091
    endloop
  endfacet
  facet normal 0 0 1
    outer loop
      vertex 6.46449 30.8845 -0.091
      vertex 10.1959 33.4 -0.091
      vertex 6.58913 31.1249 -0.091
    endloop
  endfacet
  facet normal 0 0 1
    outer loop
      vertex 6.35452 30.6377 -0.091
      vertex 10.1959 33.4 -0.091
      vertex 6.46449 30.8845 -0.091
    endloop
  endfacet
  facet normal 0 0 1
    outer loop
      vertex 6.2592 30.3846 -0.091
      vertex 10.1959 33.4 -0.091
      vertex 6.35452 30.6377 -0.091
    endloop
  endfacet
  facet normal 0 0 1
    outer loop
      vertex 6.17857 30.1251 -0.091
      vertex 10.1959 33.4 -0.091
      vertex 6.2592 30.3846 -0.091
    endloop
  endfacet
  facet normal 0 0 1
    outer loop
      vertex 6.11258 29.8593 -0.091
      vertex 10.1959 33.4 -0.091
      vertex 6.17857 30.1251 -0.091
    endloop
  endfacet
  facet normal 0 0 1
    outer loop
      vertex 6.06126 29.5871 -0.091
      vertex 10.1959 33.4 -0.091
      vertex 6.11258 29.8593 -0.091
    endloop
  endfacet
  facet normal 0 0 1
    outer loop
      vertex 6.02461 29.3086 -0.091
      vertex 10.1959 33.4 -0.091
      vertex 6.06126 29.5871 -0.091
    endloop
  endfacet
  facet normal 0 0 1
    outer loop
      vertex 6.00261 29.0238 -0.091
      vertex 10.1959 33.4 -0.091
      vertex 6.02461 29.3086 -0.091
    endloop
  endfacet
  facet normal 0 0 1
    outer loop
      vertex 5.99527 28.7326 -0.091
      vertex 10.1959 33.4 -0.091
      vertex 6.00261 29.0238 -0.091
    endloop
  endfacet
  facet normal 0 0 1
    outer loop
      vertex 14.3935 24.0652 -0.091
      vertex 10.1959 33.4 -0.091
      vertex 5.99527 28.7326 -0.091
    endloop
  endfacet
  facet normal 0 -0 1
    outer loop
      vertex 14.3935 -0.699997 -0.091
      vertex 14.3935 24.0652 -0.091
      vertex 5.99527 -0.699997 -0.091
    endloop
  endfacet
  facet normal 0 0 1
    outer loop
      vertex 44.3575 23.2563 -0.091
      vertex 37.4128 17.9727 -0.091
      vertex 45.0493 22.0873 -0.091
    endloop
  endfacet
  facet normal 0 0 1
    outer loop
      vertex 47.4161 15.7413 -0.091
      vertex 39.0535 14.2664 -0.091
      vertex 39.2504 13.4655 -0.091
    endloop
  endfacet
  facet normal 0 0 1
    outer loop
      vertex 26.9967 33.4 -0.091
      vertex 10.1959 33.4 -0.091
      vertex 14.3935 24.0652 -0.091
    endloop
  endfacet
  facet normal -0 0 1
    outer loop
      vertex 32.1686 22.8743 -0.091
      vertex 32.8358 22.5098 -0.091
      vertex 36.7356 30.8107 -0.091
    endloop
  endfacet
  facet normal 0 0 1
    outer loop
      vertex 32.8358 22.5098 -0.091
      vertex 37.8177 30.1229 -0.091
      vertex 36.7356 30.8107 -0.091
    endloop
  endfacet
  facet normal 0 0 1
    outer loop
      vertex 38.8696 29.3542 -0.091
      vertex 37.8177 30.1229 -0.091
      vertex 33.4851 22.0966 -0.091
    endloop
  endfacet
  facet normal 0 -0 1
    outer loop
      vertex 33.4851 22.0966 -0.091
      vertex 37.8177 30.1229 -0.091
      vertex 32.8358 22.5098 -0.091
    endloop
  endfacet
  facet normal 0 0 1
    outer loop
      vertex 38.8696 29.3542 -0.091
      vertex 33.4851 22.0966 -0.091
      vertex 34.1165 21.6348 -0.091
    endloop
  endfacet
  facet normal 0 0 1
    outer loop
      vertex 34.73 21.1244 -0.091
      vertex 40.8833 27.5741 -0.091
      vertex 39.8915 28.5046 -0.091
    endloop
  endfacet
  facet normal 0 0 1
    outer loop
      vertex 41.8451 26.5626 -0.091
      vertex 40.8833 27.5741 -0.091
      vertex 35.3256 20.5654 -0.091
    endloop
  endfacet
  facet normal 0 -0 1
    outer loop
      vertex 35.3256 20.5654 -0.091
      vertex 40.8833 27.5741 -0.091
      vertex 34.73 21.1244 -0.091
    endloop
  endfacet
  facet normal 0 0 1
    outer loop
      vertex 41.8451 26.5626 -0.091
      vertex 35.3256 20.5654 -0.091
      vertex 35.9032 19.9578 -0.091
    endloop
  endfacet
  facet normal 0 0 1
    outer loop
      vertex 36.4502 19.316 -0.091
      vertex 43.5928 24.3918 -0.091
      vertex 42.7554 25.4939 -0.091
    endloop
  endfacet
  facet normal 0 0 1
    outer loop
      vertex 44.3575 23.2563 -0.091
      vertex 43.5928 24.3918 -0.091
      vertex 36.9533 18.6543 -0.091
    endloop
  endfacet
  facet normal 0 -0 1
    outer loop
      vertex 36.9533 18.6543 -0.091
      vertex 43.5928 24.3918 -0.091
      vertex 36.4502 19.316 -0.091
    endloop
  endfacet
  facet normal -0 0 1
    outer loop
      vertex 37.4128 17.9727 -0.091
      vertex 37.8284 17.2712 -0.091
      vertex 45.0493 22.0873 -0.091
    endloop
  endfacet
  facet normal 0 0 1
    outer loop
      vertex 37.8284 17.2712 -0.091
      vertex 45.6683 20.8849 -0.091
      vertex 45.0493 22.0873 -0.091
    endloop
  endfacet
  facet normal 0 0 1
    outer loop
      vertex 46.2145 19.6491 -0.091
      vertex 45.6683 20.8849 -0.091
      vertex 38.2003 16.5498 -0.091
    endloop
  endfacet
  facet normal 0 -0 1
    outer loop
      vertex 38.2003 16.5498 -0.091
      vertex 45.6683 20.8849 -0.091
      vertex 37.8284 17.2712 -0.091
    endloop
  endfacet
  facet normal 0 0 1
    outer loop
      vertex 46.2145 19.6491 -0.091
      vertex 38.2003 16.5498 -0.091
      vertex 38.5285 15.8085 -0.091
    endloop
  endfacet
  facet normal 0 0 1
    outer loop
      vertex 46.2145 19.6491 -0.091
      vertex 38.5285 15.8085 -0.091
      vertex 46.6879 18.3799 -0.091
    endloop
  endfacet
  facet normal -0 0 1
    outer loop
      vertex 38.5285 15.8085 -0.091
      vertex 38.8129 15.0474 -0.091
      vertex 46.6879 18.3799 -0.091
    endloop
  endfacet
  facet normal 0 0 1
    outer loop
      vertex 38.8129 15.0474 -0.091
      vertex 47.0884 17.0773 -0.091
      vertex 46.6879 18.3799 -0.091
    endloop
  endfacet
  facet normal 0 -0 1
    outer loop
      vertex 39.0535 14.2664 -0.091
      vertex 47.0884 17.0773 -0.091
      vertex 38.8129 15.0474 -0.091
    endloop
  endfacet
  facet normal 0 0 1
    outer loop
      vertex 47.4161 15.7413 -0.091
      vertex 47.0884 17.0773 -0.091
      vertex 39.0535 14.2664 -0.091
    endloop
  endfacet
  facet normal 0 0 1
    outer loop
      vertex 39.2504 13.4655 -0.091
      vertex 47.671 14.3719 -0.091
      vertex 47.4161 15.7413 -0.091
    endloop
  endfacet
  facet normal 0 -0 1
    outer loop
      vertex 39.4036 12.6447 -0.091
      vertex 47.671 14.3719 -0.091
      vertex 39.2504 13.4655 -0.091
    endloop
  endfacet
  facet normal 0 0 1
    outer loop
      vertex 47.853 12.969 -0.091
      vertex 47.671 14.3719 -0.091
      vertex 39.4036 12.6447 -0.091
    endloop
  endfacet
  facet normal 0 0 1
    outer loop
      vertex 47.853 12.969 -0.091
      vertex 39.4036 12.6447 -0.091
      vertex 39.513 11.804 -0.091
    endloop
  endfacet
  facet normal 0 0 1
    outer loop
      vertex 47.853 12.969 -0.091
      vertex 39.513 11.804 -0.091
      vertex 47.9623 11.5327 -0.091
    endloop
  endfacet
  facet normal 0 0 1
    outer loop
      vertex 39.513 11.804 -0.091
      vertex 39.5786 10.9435 -0.091
      vertex 47.9623 11.5327 -0.091
    endloop
  endfacet
  facet normal -0 0 1
    outer loop
      vertex 39.5786 10.9435 -0.091
      vertex 47.9987 10.063 -0.091
      vertex 47.9623 11.5327 -0.091
    endloop
  endfacet
  facet normal 0 -0 1
    outer loop
      vertex 39.6005 10.063 -0.091
      vertex 47.9987 10.063 -0.091
      vertex 39.5786 10.9435 -0.091
    endloop
  endfacet
  facet normal 0 -0 1
    outer loop
      vertex 47.9987 -0.699997 -0.091
      vertex 47.9987 10.063 -0.091
      vertex 39.6005 10.063 -0.091
    endloop
  endfacet
  facet normal 0 0 1
    outer loop
      vertex 47.9987 -0.699997 -0.091
      vertex 39.6005 10.063 -0.091
      vertex 39.6005 -0.699997 -0.091
    endloop
  endfacet
  facet normal 0.999693 0.0247594 0
    outer loop
      vertex 47.9623 11.5327 -0.391
      vertex 47.9987 10.063 -0.091
      vertex 47.9987 10.063 -0.391
    endloop
  endfacet
  facet normal 0.999693 0.0247594 -0
    outer loop
      vertex 47.9623 11.5327 -0.391
      vertex 47.9623 11.5327 -0.091
      vertex 47.9987 10.063 -0.091
    endloop
  endfacet
  facet normal 0.997117 0.0758789 0
    outer loop
      vertex 47.853 12.969 -0.391
      vertex 47.9623 11.5327 -0.091
      vertex 47.9623 11.5327 -0.391
    endloop
  endfacet
  facet normal 0.997117 0.0758789 -0
    outer loop
      vertex 47.853 12.969 -0.391
      vertex 47.853 12.969 -0.091
      vertex 47.9623 11.5327 -0.091
    endloop
  endfacet
  facet normal 0.99169 0.128653 0
    outer loop
      vertex 47.671 14.3719 -0.391
      vertex 47.853 12.969 -0.091
      vertex 47.853 12.969 -0.391
    endloop
  endfacet
  facet normal 0.99169 0.128653 -0
    outer loop
      vertex 47.671 14.3719 -0.391
      vertex 47.671 14.3719 -0.091
      vertex 47.853 12.969 -0.091
    endloop
  endfacet
  facet normal 0.983114 0.182997 0
    outer loop
      vertex 47.4161 15.7413 -0.391
      vertex 47.671 14.3719 -0.091
      vertex 47.671 14.3719 -0.391
    endloop
  endfacet
  facet normal 0.983114 0.182997 -0
    outer loop
      vertex 47.4161 15.7413 -0.391
      vertex 47.4161 15.7413 -0.091
      vertex 47.671 14.3719 -0.091
    endloop
  endfacet
  facet normal 0.971211 0.238223 0
    outer loop
      vertex 47.0884 17.0773 -0.391
      vertex 47.4161 15.7413 -0.091
      vertex 47.4161 15.7413 -0.391
    endloop
  endfacet
  facet normal 0.971211 0.238223 -0
    outer loop
      vertex 47.0884 17.0773 -0.391
      vertex 47.0884 17.0773 -0.091
      vertex 47.4161 15.7413 -0.091
    endloop
  endfacet
  facet normal 0.955841 0.293885 0
    outer loop
      vertex 46.6879 18.3799 -0.391
      vertex 47.0884 17.0773 -0.091
      vertex 47.0884 17.0773 -0.391
    endloop
  endfacet
  facet normal 0.955841 0.293885 -0
    outer loop
      vertex 46.6879 18.3799 -0.391
      vertex 46.6879 18.3799 -0.091
      vertex 47.0884 17.0773 -0.091
    endloop
  endfacet
  facet normal 0.936947 0.349473 0
    outer loop
      vertex 46.2145 19.6491 -0.391
      vertex 46.6879 18.3799 -0.091
      vertex 46.6879 18.3799 -0.391
    endloop
  endfacet
  facet normal 0.936947 0.349473 -0
    outer loop
      vertex 46.2145 19.6491 -0.391
      vertex 46.2145 19.6491 -0.091
      vertex 46.6879 18.3799 -0.091
    endloop
  endfacet
  facet normal 0.914646 0.404256 0
    outer loop
      vertex 45.6683 20.8849 -0.391
      vertex 46.2145 19.6491 -0.091
      vertex 46.2145 19.6491 -0.391
    endloop
  endfacet
  facet normal 0.914646 0.404256 -0
    outer loop
      vertex 45.6683 20.8849 -0.391
      vertex 45.6683 20.8849 -0.091
      vertex 46.2145 19.6491 -0.091
    endloop
  endfacet
  facet normal 0.8891 0.457712 0
    outer loop
      vertex 45.0493 22.0873 -0.391
      vertex 45.6683 20.8849 -0.091
      vertex 45.6683 20.8849 -0.391
    endloop
  endfacet
  facet normal 0.8891 0.457712 -0
    outer loop
      vertex 45.0493 22.0873 -0.391
      vertex 45.0493 22.0873 -0.091
      vertex 45.6683 20.8849 -0.091
    endloop
  endfacet
  facet normal 0.860595 0.50929 0
    outer loop
      vertex 44.3575 23.2563 -0.391
      vertex 45.0493 22.0873 -0.091
      vertex 45.0493 22.0873 -0.391
    endloop
  endfacet
  facet normal 0.860595 0.50929 -0
    outer loop
      vertex 44.3575 23.2563 -0.391
      vertex 44.3575 23.2563 -0.091
      vertex 45.0493 22.0873 -0.091
    endloop
  endfacet
  facet normal 0.829445 0.558588 0
    outer loop
      vertex 43.5928 24.3918 -0.391
      vertex 44.3575 23.2563 -0.091
      vertex 44.3575 23.2563 -0.391
    endloop
  endfacet
  facet normal 0.829445 0.558588 -0
    outer loop
      vertex 43.5928 24.3918 -0.391
      vertex 43.5928 24.3918 -0.091
      vertex 44.3575 23.2563 -0.091
    endloop
  endfacet
  facet normal 0.79623 0.604994 0
    outer loop
      vertex 42.7554 25.4939 -0.391
      vertex 43.5928 24.3918 -0.091
      vertex 43.5928 24.3918 -0.391
    endloop
  endfacet
  facet normal 0.79623 0.604994 -0
    outer loop
      vertex 42.7554 25.4939 -0.391
      vertex 42.7554 25.4939 -0.091
      vertex 43.5928 24.3918 -0.091
    endloop
  endfacet
  facet normal 0.761269 0.648436 0
    outer loop
      vertex 41.8451 26.5626 -0.391
      vertex 42.7554 25.4939 -0.091
      vertex 42.7554 25.4939 -0.391
    endloop
  endfacet
  facet normal 0.761269 0.648436 -0
    outer loop
      vertex 41.8451 26.5626 -0.391
      vertex 41.8451 26.5626 -0.091
      vertex 42.7554 25.4939 -0.091
    endloop
  endfacet
  facet normal 0.724686 0.689079 0
    outer loop
      vertex 40.8833 27.5741 -0.391
      vertex 41.8451 26.5626 -0.091
      vertex 41.8451 26.5626 -0.391
    endloop
  endfacet
  facet normal 0.724686 0.689079 -0
    outer loop
      vertex 40.8833 27.5741 -0.391
      vertex 40.8833 27.5741 -0.091
      vertex 41.8451 26.5626 -0.091
    endloop
  endfacet
  facet normal 0.68421 0.729285 0
    outer loop
      vertex 39.8915 28.5046 -0.391
      vertex 40.8833 27.5741 -0.091
      vertex 40.8833 27.5741 -0.391
    endloop
  endfacet
  facet normal 0.68421 0.729285 -0
    outer loop
      vertex 39.8915 28.5046 -0.391
      vertex 39.8915 28.5046 -0.091
      vertex 40.8833 27.5741 -0.091
    endloop
  endfacet
  facet normal 0.639303 0.768955 0
    outer loop
      vertex 38.8696 29.3542 -0.391
      vertex 39.8915 28.5046 -0.091
      vertex 39.8915 28.5046 -0.391
    endloop
  endfacet
  facet normal 0.639303 0.768955 -0
    outer loop
      vertex 38.8696 29.3542 -0.391
      vertex 38.8696 29.3542 -0.091
      vertex 39.8915 28.5046 -0.091
    endloop
  endfacet
  facet normal 0.590019 0.80739 0
    outer loop
      vertex 37.8177 30.1229 -0.391
      vertex 38.8696 29.3542 -0.091
      vertex 38.8696 29.3542 -0.391
    endloop
  endfacet
  facet normal 0.590019 0.80739 -0
    outer loop
      vertex 37.8177 30.1229 -0.391
      vertex 37.8177 30.1229 -0.091
      vertex 38.8696 29.3542 -0.091
    endloop
  endfacet
  facet normal 0.536426 0.843947 0
    outer loop
      vertex 36.7356 30.8107 -0.391
      vertex 37.8177 30.1229 -0.091
      vertex 37.8177 30.1229 -0.391
    endloop
  endfacet
  facet normal 0.536426 0.843947 -0
    outer loop
      vertex 36.7356 30.8107 -0.391
      vertex 36.7356 30.8107 -0.091
      vertex 37.8177 30.1229 -0.091
    endloop
  endfacet
  facet normal 0.479035 0.877796 0
    outer loop
      vertex 35.6235 31.4176 -0.391
      vertex 36.7356 30.8107 -0.091
      vertex 36.7356 30.8107 -0.391
    endloop
  endfacet
  facet normal 0.479035 0.877796 -0
    outer loop
      vertex 35.6235 31.4176 -0.391
      vertex 35.6235 31.4176 -0.091
      vertex 36.7356 30.8107 -0.091
    endloop
  endfacet
  facet normal 0.418226 0.908343 0
    outer loop
      vertex 34.4813 31.9435 -0.391
      vertex 35.6235 31.4176 -0.091
      vertex 35.6235 31.4176 -0.391
    endloop
  endfacet
  facet normal 0.418226 0.908343 -0
    outer loop
      vertex 34.4813 31.9435 -0.391
      vertex 34.4813 31.9435 -0.091
      vertex 35.6235 31.4176 -0.091
    endloop
  endfacet
  facet normal 0.354914 0.934899 0
    outer loop
      vertex 33.3091 32.3885 -0.391
      vertex 34.4813 31.9435 -0.091
      vertex 34.4813 31.9435 -0.391
    endloop
  endfacet
  facet normal 0.354914 0.934899 -0
    outer loop
      vertex 33.3091 32.3885 -0.391
      vertex 33.3091 32.3885 -0.091
      vertex 34.4813 31.9435 -0.091
    endloop
  endfacet
  facet normal 0.289888 0.957061 0
    outer loop
      vertex 32.1067 32.7527 -0.391
      vertex 33.3091 32.3885 -0.091
      vertex 33.3091 32.3885 -0.391
    endloop
  endfacet
  facet normal 0.289888 0.957061 -0
    outer loop
      vertex 32.1067 32.7527 -0.391
      vertex 32.1067 32.7527 -0.091
      vertex 33.3091 32.3885 -0.091
    endloop
  endfacet
  facet normal 0.223958 0.974599 0
    outer loop
      vertex 30.8743 33.0359 -0.391
      vertex 32.1067 32.7527 -0.091
      vertex 32.1067 32.7527 -0.391
    endloop
  endfacet
  facet normal 0.223958 0.974599 -0
    outer loop
      vertex 30.8743 33.0359 -0.391
      vertex 30.8743 33.0359 -0.091
      vertex 32.1067 32.7527 -0.091
    endloop
  endfacet
  facet normal 0.158231 0.987402 0
    outer loop
      vertex 29.6119 33.2382 -0.391
      vertex 30.8743 33.0359 -0.091
      vertex 30.8743 33.0359 -0.391
    endloop
  endfacet
  facet normal 0.158231 0.987402 -0
    outer loop
      vertex 29.6119 33.2382 -0.391
      vertex 29.6119 33.2382 -0.091
      vertex 30.8743 33.0359 -0.091
    endloop
  endfacet
  facet normal 0.0934314 0.995626 0
    outer loop
      vertex 28.3193 33.3595 -0.391
      vertex 29.6119 33.2382 -0.091
      vertex 29.6119 33.2382 -0.391
    endloop
  endfacet
  facet normal 0.0934314 0.995626 -0
    outer loop
      vertex 28.3193 33.3595 -0.391
      vertex 28.3193 33.3595 -0.091
      vertex 29.6119 33.2382 -0.091
    endloop
  endfacet
  facet normal 0.0306072 0.999531 0
    outer loop
      vertex 26.9967 33.4 -0.391
      vertex 28.3193 33.3595 -0.091
      vertex 28.3193 33.3595 -0.391
    endloop
  endfacet
  facet normal 0.0306072 0.999531 -0
    outer loop
      vertex 26.9967 33.4 -0.391
      vertex 26.9967 33.4 -0.091
      vertex 28.3193 33.3595 -0.091
    endloop
  endfacet
  facet normal 0 1 0
    outer loop
      vertex 10.1959 33.4 -0.391
      vertex 26.9967 33.4 -0.091
      vertex 26.9967 33.4 -0.391
    endloop
  endfacet
  facet normal 0 1 0
    outer loop
      vertex 10.1959 33.4 -0.391
      vertex 10.1959 33.4 -0.091
      vertex 26.9967 33.4 -0.091
    endloop
  endfacet
  facet normal -0.0312681 0.999511 0
    outer loop
      vertex 9.93378 33.3918 -0.391
      vertex 10.1959 33.4 -0.091
      vertex 10.1959 33.4 -0.391
    endloop
  endfacet
  facet normal -0.0312681 0.999511 0
    outer loop
      vertex 9.93378 33.3918 -0.391
      vertex 9.93378 33.3918 -0.091
      vertex 10.1959 33.4 -0.091
    endloop
  endfacet
  facet normal -0.0947212 0.995504 0
    outer loop
      vertex 9.67734 33.3674 -0.391
      vertex 9.93378 33.3918 -0.091
      vertex 9.93378 33.3918 -0.391
    endloop
  endfacet
  facet normal -0.0947212 0.995504 0
    outer loop
      vertex 9.67734 33.3674 -0.391
      vertex 9.67734 33.3674 -0.091
      vertex 9.93378 33.3918 -0.091
    endloop
  endfacet
  facet normal -0.160247 0.987077 0
    outer loop
      vertex 9.42664 33.3267 -0.391
      vertex 9.67734 33.3674 -0.091
      vertex 9.67734 33.3674 -0.391
    endloop
  endfacet
  facet normal -0.160247 0.987077 0
    outer loop
      vertex 9.42664 33.3267 -0.391
      vertex 9.42664 33.3267 -0.091
      vertex 9.67734 33.3674 -0.091
    endloop
  endfacet
  facet normal -0.226619 0.973984 0
    outer loop
      vertex 9.18166 33.2697 -0.391
      vertex 9.42664 33.3267 -0.091
      vertex 9.42664 33.3267 -0.391
    endloop
  endfacet
  facet normal -0.226619 0.973984 0
    outer loop
      vertex 9.18166 33.2697 -0.391
      vertex 9.18166 33.2697 -0.091
      vertex 9.42664 33.3267 -0.091
    endloop
  endfacet
  facet normal -0.293266 0.956031 0
    outer loop
      vertex 8.94238 33.1963 -0.391
      vertex 9.18166 33.2697 -0.091
      vertex 9.18166 33.2697 -0.391
    endloop
  endfacet
  facet normal -0.293266 0.956031 0
    outer loop
      vertex 8.94238 33.1963 -0.391
      vertex 8.94238 33.1963 -0.091
      vertex 9.18166 33.2697 -0.091
    endloop
  endfacet
  facet normal -0.358215 0.933639 0
    outer loop
      vertex 8.70885 33.1067 -0.391
      vertex 8.94238 33.1963 -0.091
      vertex 8.94238 33.1963 -0.391
    endloop
  endfacet
  facet normal -0.358215 0.933639 0
    outer loop
      vertex 8.70885 33.1067 -0.391
      vertex 8.70885 33.1067 -0.091
      vertex 8.94238 33.1963 -0.091
    endloop
  endfacet
  facet normal -0.421525 0.906817 0
    outer loop
      vertex 8.48103 33.0008 -0.391
      vertex 8.70885 33.1067 -0.091
      vertex 8.70885 33.1067 -0.391
    endloop
  endfacet
  facet normal -0.421525 0.906817 0
    outer loop
      vertex 8.48103 33.0008 -0.391
      vertex 8.48103 33.0008 -0.091
      vertex 8.70885 33.1067 -0.091
    endloop
  endfacet
  facet normal -0.482055 0.876141 0
    outer loop
      vertex 8.25893 32.8786 -0.391
      vertex 8.48103 33.0008 -0.091
      vertex 8.48103 33.0008 -0.391
    endloop
  endfacet
  facet normal -0.482055 0.876141 0
    outer loop
      vertex 8.25893 32.8786 -0.391
      vertex 8.25893 32.8786 -0.091
      vertex 8.48103 33.0008 -0.091
    endloop
  endfacet
  facet normal -0.538842 0.842407 0
    outer loop
      vertex 8.04256 32.7402 -0.391
      vertex 8.25893 32.8786 -0.091
      vertex 8.25893 32.8786 -0.391
    endloop
  endfacet
  facet normal -0.538842 0.842407 0
    outer loop
      vertex 8.04256 32.7402 -0.391
      vertex 8.04256 32.7402 -0.091
      vertex 8.25893 32.8786 -0.091
    endloop
  endfacet
  facet normal -0.592168 0.805815 0
    outer loop
      vertex 7.83191 32.5854 -0.391
      vertex 8.04256 32.7402 -0.091
      vertex 8.04256 32.7402 -0.391
    endloop
  endfacet
  facet normal -0.592168 0.805815 0
    outer loop
      vertex 7.83191 32.5854 -0.391
      vertex 7.83191 32.5854 -0.091
      vertex 8.04256 32.7402 -0.091
    endloop
  endfacet
  facet normal -0.640903 0.767622 0
    outer loop
      vertex 7.62698 32.4143 -0.391
      vertex 7.83191 32.5854 -0.091
      vertex 7.83191 32.5854 -0.391
    endloop
  endfacet
  facet normal -0.640903 0.767622 0
    outer loop
      vertex 7.62698 32.4143 -0.391
      vertex 7.62698 32.4143 -0.091
      vertex 7.83191 32.5854 -0.091
    endloop
  endfacet
  facet normal -0.685205 0.72835 0
    outer loop
      vertex 7.42778 32.2269 -0.391
      vertex 7.62698 32.4143 -0.091
      vertex 7.62698 32.4143 -0.391
    endloop
  endfacet
  facet normal -0.685205 0.72835 0
    outer loop
      vertex 7.42778 32.2269 -0.391
      vertex 7.42778 32.2269 -0.091
      vertex 7.62698 32.4143 -0.091
    endloop
  endfacet
  facet normal -0.724893 0.688862 0
    outer loop
      vertex 7.2343 32.0233 -0.391
      vertex 7.42778 32.2269 -0.091
      vertex 7.42778 32.2269 -0.391
    endloop
  endfacet
  facet normal -0.724893 0.688862 0
    outer loop
      vertex 7.2343 32.0233 -0.391
      vertex 7.2343 32.0233 -0.091
      vertex 7.42778 32.2269 -0.091
    endloop
  endfacet
  facet normal -0.761179 0.648542 0
    outer loop
      vertex 7.05103 31.8082 -0.391
      vertex 7.2343 32.0233 -0.091
      vertex 7.2343 32.0233 -0.391
    endloop
  endfacet
  facet normal -0.761179 0.648542 0
    outer loop
      vertex 7.05103 31.8082 -0.391
      vertex 7.05103 31.8082 -0.091
      vertex 7.2343 32.0233 -0.091
    endloop
  endfacet
  facet normal -0.795511 0.605939 0
    outer loop
      vertex 6.88239 31.5868 -0.391
      vertex 7.05103 31.8082 -0.091
      vertex 7.05103 31.8082 -0.391
    endloop
  endfacet
  facet normal -0.795511 0.605939 0
    outer loop
      vertex 6.88239 31.5868 -0.391
      vertex 6.88239 31.5868 -0.091
      vertex 7.05103 31.8082 -0.091
    endloop
  endfacet
  facet normal -0.828537 0.559935 0
    outer loop
      vertex 6.72844 31.359 -0.391
      vertex 6.88239 31.5868 -0.091
      vertex 6.88239 31.5868 -0.391
    endloop
  endfacet
  facet normal -0.828537 0.559935 0
    outer loop
      vertex 6.72844 31.359 -0.391
      vertex 6.72844 31.359 -0.091
      vertex 6.88239 31.5868 -0.091
    endloop
  endfacet
  facet normal -0.85935 0.511388 0
    outer loop
      vertex 6.58913 31.1249 -0.391
      vertex 6.72844 31.359 -0.091
      vertex 6.72844 31.359 -0.391
    endloop
  endfacet
  facet normal -0.85935 0.511388 0
    outer loop
      vertex 6.58913 31.1249 -0.391
      vertex 6.58913 31.1249 -0.091
      vertex 6.72844 31.359 -0.091
    endloop
  endfacet
  facet normal -0.887772 0.460283 0
    outer loop
      vertex 6.46449 30.8845 -0.391
      vertex 6.58913 31.1249 -0.091
      vertex 6.58913 31.1249 -0.391
    endloop
  endfacet
  facet normal -0.887772 0.460283 0
    outer loop
      vertex 6.46449 30.8845 -0.391
      vertex 6.46449 30.8845 -0.091
      vertex 6.58913 31.1249 -0.091
    endloop
  endfacet
  facet normal -0.913425 0.407007 0
    outer loop
      vertex 6.35452 30.6377 -0.391
      vertex 6.46449 30.8845 -0.091
      vertex 6.46449 30.8845 -0.391
    endloop
  endfacet
  facet normal -0.913425 0.407007 0
    outer loop
      vertex 6.35452 30.6377 -0.391
      vertex 6.35452 30.6377 -0.091
      vertex 6.46449 30.8845 -0.091
    endloop
  endfacet
  facet normal -0.935833 0.352444 0
    outer loop
      vertex 6.2592 30.3846 -0.391
      vertex 6.35452 30.6377 -0.091
      vertex 6.35452 30.6377 -0.391
    endloop
  endfacet
  facet normal -0.935833 0.352444 0
    outer loop
      vertex 6.2592 30.3846 -0.391
      vertex 6.2592 30.3846 -0.091
      vertex 6.35452 30.6377 -0.091
    endloop
  endfacet
  facet normal -0.954965 0.29672 0
    outer loop
      vertex 6.17857 30.1251 -0.391
      vertex 6.2592 30.3846 -0.091
      vertex 6.2592 30.3846 -0.391
    endloop
  endfacet
  facet normal -0.954965 0.29672 0
    outer loop
      vertex 6.17857 30.1251 -0.391
      vertex 6.17857 30.1251 -0.091
      vertex 6.2592 30.3846 -0.091
    endloop
  endfacet
  facet normal -0.970536 0.240954 0
    outer loop
      vertex 6.11258 29.8593 -0.391
      vertex 6.17857 30.1251 -0.091
      vertex 6.17857 30.1251 -0.391
    endloop
  endfacet
  facet normal -0.970536 0.240954 0
    outer loop
      vertex 6.11258 29.8593 -0.391
      vertex 6.11258 29.8593 -0.091
      vertex 6.17857 30.1251 -0.091
    endloop
  endfacet
  facet normal -0.982687 0.185274 0
    outer loop
      vertex 6.06126 29.5871 -0.391
      vertex 6.11258 29.8593 -0.091
      vertex 6.11258 29.8593 -0.391
    endloop
  endfacet
  facet normal -0.982687 0.185274 0
    outer loop
      vertex 6.06126 29.5871 -0.391
      vertex 6.06126 29.5871 -0.091
      vertex 6.11258 29.8593 -0.091
    endloop
  endfacet
  facet normal -0.991452 0.130473 0
    outer loop
      vertex 6.02461 29.3086 -0.391
      vertex 6.06126 29.5871 -0.091
      vertex 6.06126 29.5871 -0.391
    endloop
  endfacet
  facet normal -0.991452 0.130473 0
    outer loop
      vertex 6.02461 29.3086 -0.391
      vertex 6.02461 29.3086 -0.091
      vertex 6.06126 29.5871 -0.091
    endloop
  endfacet
  facet normal -0.99703 0.0770177 0
    outer loop
      vertex 6.00261 29.0238 -0.391
      vertex 6.02461 29.3086 -0.091
      vertex 6.02461 29.3086 -0.391
    endloop
  endfacet
  facet normal -0.99703 0.0770177 0
    outer loop
      vertex 6.00261 29.0238 -0.391
      vertex 6.00261 29.0238 -0.091
      vertex 6.02461 29.3086 -0.091
    endloop
  endfacet
  facet normal -0.999682 0.025198 0
    outer loop
      vertex 5.99527 28.7326 -0.391
      vertex 6.00261 29.0238 -0.091
      vertex 6.00261 29.0238 -0.391
    endloop
  endfacet
  facet normal -0.999682 0.025198 0
    outer loop
      vertex 5.99527 28.7326 -0.391
      vertex 5.99527 28.7326 -0.091
      vertex 6.00261 29.0238 -0.091
    endloop
  endfacet
  facet normal -1 0 0
    outer loop
      vertex 5.99527 -0.699997 -0.391
      vertex 5.99527 28.7326 -0.091
      vertex 5.99527 28.7326 -0.391
    endloop
  endfacet
  facet normal -1 0 0
    outer loop
      vertex 5.99527 -0.699997 -0.391
      vertex 5.99527 -0.699997 -0.091
      vertex 5.99527 28.7326 -0.091
    endloop
  endfacet
  facet normal 0 -1 0
    outer loop
      vertex 14.3935 -0.699997 -0.391
      vertex 5.99527 -0.699997 -0.091
      vertex 5.99527 -0.699997 -0.391
    endloop
  endfacet
  facet normal 0 -1 0
    outer loop
      vertex 14.3935 -0.699997 -0.391
      vertex 14.3935 -0.699997 -0.091
      vertex 5.99527 -0.699997 -0.091
    endloop
  endfacet
  facet normal 1 0 0
    outer loop
      vertex 14.3935 24.0652 -0.391
      vertex 14.3935 -0.699997 -0.091
      vertex 14.3935 -0.699997 -0.391
    endloop
  endfacet
  facet normal 1 0 -0
    outer loop
      vertex 14.3935 24.0652 -0.391
      vertex 14.3935 24.0652 -0.091
      vertex 14.3935 -0.699997 -0.091
    endloop
  endfacet
  facet normal 0 -1 0
    outer loop
      vertex 26.9967 24.0652 -0.391
      vertex 14.3935 24.0652 -0.091
      vertex 14.3935 24.0652 -0.391
    endloop
  endfacet
  facet normal 0 -1 0
    outer loop
      vertex 26.9967 24.0652 -0.391
      vertex 26.9967 24.0652 -0.091
      vertex 14.3935 24.0652 -0.091
    endloop
  endfacet
  facet normal -0.0306481 -0.99953 0
    outer loop
      vertex 27.7892 24.0409 -0.391
      vertex 26.9967 24.0652 -0.091
      vertex 26.9967 24.0652 -0.391
    endloop
  endfacet
  facet normal -0.0306481 -0.99953 0
    outer loop
      vertex 27.7892 24.0409 -0.391
      vertex 27.7892 24.0409 -0.091
      vertex 26.9967 24.0652 -0.091
    endloop
  endfacet
  facet normal -0.0936871 -0.995602 0
    outer loop
      vertex 28.5639 23.968 -0.391
      vertex 27.7892 24.0409 -0.091
      vertex 27.7892 24.0409 -0.391
    endloop
  endfacet
  facet normal -0.0936871 -0.995602 0
    outer loop
      vertex 28.5639 23.968 -0.391
      vertex 28.5639 23.968 -0.091
      vertex 27.7892 24.0409 -0.091
    endloop
  endfacet
  facet normal -0.158515 -0.987357 0
    outer loop
      vertex 29.3207 23.8465 -0.391
      vertex 28.5639 23.968 -0.091
      vertex 28.5639 23.968 -0.391
    endloop
  endfacet
  facet normal -0.158515 -0.987357 0
    outer loop
      vertex 29.3207 23.8465 -0.391
      vertex 29.3207 23.8465 -0.091
      vertex 28.5639 23.968 -0.091
    endloop
  endfacet
  facet normal -0.224493 -0.974476 0
    outer loop
      vertex 30.0595 23.6763 -0.391
      vertex 29.3207 23.8465 -0.091
      vertex 29.3207 23.8465 -0.391
    endloop
  endfacet
  facet normal -0.224493 -0.974476 0
    outer loop
      vertex 30.0595 23.6763 -0.391
      vertex 30.0595 23.6763 -0.091
      vertex 29.3207 23.8465 -0.091
    endloop
  endfacet
  facet normal -0.290306 -0.956934 0
    outer loop
      vertex 30.7804 23.4576 -0.391
      vertex 30.0595 23.6763 -0.091
      vertex 30.0595 23.6763 -0.391
    endloop
  endfacet
  facet normal -0.290306 -0.956934 0
    outer loop
      vertex 30.7804 23.4576 -0.391
      vertex 30.7804 23.4576 -0.091
      vertex 30.0595 23.6763 -0.091
    endloop
  endfacet
  facet normal -0.355359 -0.93473 0
    outer loop
      vertex 31.4835 23.1903 -0.391
      vertex 30.7804 23.4576 -0.091
      vertex 30.7804 23.4576 -0.391
    endloop
  endfacet
  facet normal -0.355359 -0.93473 0
    outer loop
      vertex 31.4835 23.1903 -0.391
      vertex 31.4835 23.1903 -0.091
      vertex 30.7804 23.4576 -0.091
    endloop
  endfacet
  facet normal -0.41884 -0.90806 0
    outer loop
      vertex 32.1686 22.8743 -0.391
      vertex 31.4835 23.1903 -0.091
      vertex 31.4835 23.1903 -0.391
    endloop
  endfacet
  facet normal -0.41884 -0.90806 0
    outer loop
      vertex 32.1686 22.8743 -0.391
      vertex 32.1686 22.8743 -0.091
      vertex 31.4835 23.1903 -0.091
    endloop
  endfacet
  facet normal -0.479433 -0.877579 0
    outer loop
      vertex 32.8358 22.5098 -0.391
      vertex 32.1686 22.8743 -0.091
      vertex 32.1686 22.8743 -0.391
    endloop
  endfacet
  facet normal -0.479433 -0.877579 0
    outer loop
      vertex 32.8358 22.5098 -0.391
      vertex 32.8358 22.5098 -0.091
      vertex 32.1686 22.8743 -0.091
    endloop
  endfacet
  facet normal -0.536884 -0.843656 0
    outer loop
      vertex 33.4851 22.0966 -0.391
      vertex 32.8358 22.5098 -0.091
      vertex 32.8358 22.5098 -0.391
    endloop
  endfacet
  facet normal -0.536884 -0.843656 0
    outer loop
      vertex 33.4851 22.0966 -0.391
      vertex 33.4851 22.0966 -0.091
      vertex 32.8358 22.5098 -0.091
    endloop
  endfacet
  facet normal -0.590343 -0.807152 0
    outer loop
      vertex 34.1165 21.6348 -0.391
      vertex 33.4851 22.0966 -0.091
      vertex 33.4851 22.0966 -0.391
    endloop
  endfacet
  facet normal -0.590343 -0.807152 0
    outer loop
      vertex 34.1165 21.6348 -0.391
      vertex 34.1165 21.6348 -0.091
      vertex 33.4851 22.0966 -0.091
    endloop
  endfacet
  facet normal -0.639556 -0.768745 0
    outer loop
      vertex 34.73 21.1244 -0.391
      vertex 34.1165 21.6348 -0.091
      vertex 34.1165 21.6348 -0.391
    endloop
  endfacet
  facet normal -0.639556 -0.768745 0
    outer loop
      vertex 34.73 21.1244 -0.391
      vertex 34.73 21.1244 -0.091
      vertex 34.1165 21.6348 -0.091
    endloop
  endfacet
  facet normal -0.684348 -0.729155 0
    outer loop
      vertex 35.3256 20.5654 -0.391
      vertex 34.73 21.1244 -0.091
      vertex 34.73 21.1244 -0.391
    endloop
  endfacet
  facet normal -0.684348 -0.729155 0
    outer loop
      vertex 35.3256 20.5654 -0.391
      vertex 35.3256 20.5654 -0.091
      vertex 34.73 21.1244 -0.091
    endloop
  endfacet
  facet normal -0.724773 -0.688988 0
    outer loop
      vertex 35.9032 19.9578 -0.391
      vertex 35.3256 20.5654 -0.091
      vertex 35.3256 20.5654 -0.391
    endloop
  endfacet
  facet normal -0.724773 -0.688988 0
    outer loop
      vertex 35.9032 19.9578 -0.391
      vertex 35.9032 19.9578 -0.091
      vertex 35.3256 20.5654 -0.091
    endloop
  endfacet
  facet normal -0.761078 -0.64866 0
    outer loop
      vertex 36.4502 19.316 -0.391
      vertex 35.9032 19.9578 -0.091
      vertex 35.9032 19.9578 -0.391
    endloop
  endfacet
  facet normal -0.761078 -0.64866 0
    outer loop
      vertex 36.4502 19.316 -0.391
      vertex 36.4502 19.316 -0.091
      vertex 35.9032 19.9578 -0.091
    endloop
  endfacet
  facet normal -0.796042 -0.605242 0
    outer loop
      vertex 36.9533 18.6543 -0.391
      vertex 36.4502 19.316 -0.091
      vertex 36.4502 19.316 -0.391
    endloop
  endfacet
  facet normal -0.796042 -0.605242 0
    outer loop
      vertex 36.9533 18.6543 -0.391
      vertex 36.9533 18.6543 -0.091
      vertex 36.4502 19.316 -0.091
    endloop
  endfacet
  facet normal -0.829176 -0.558988 0
    outer loop
      vertex 37.4128 17.9727 -0.391
      vertex 36.9533 18.6543 -0.091
      vertex 36.9533 18.6543 -0.391
    endloop
  endfacet
  facet normal -0.829176 -0.558988 0
    outer loop
      vertex 37.4128 17.9727 -0.391
      vertex 37.4128 17.9727 -0.091
      vertex 36.9533 18.6543 -0.091
    endloop
  endfacet
  facet normal -0.860347 -0.509708 0
    outer loop
      vertex 37.8284 17.2712 -0.391
      vertex 37.4128 17.9727 -0.091
      vertex 37.4128 17.9727 -0.391
    endloop
  endfacet
  facet normal -0.860347 -0.509708 0
    outer loop
      vertex 37.8284 17.2712 -0.391
      vertex 37.8284 17.2712 -0.091
      vertex 37.4128 17.9727 -0.091
    endloop
  endfacet
  facet normal -0.888839 -0.458219 0
    outer loop
      vertex 38.2003 16.5498 -0.391
      vertex 37.8284 17.2712 -0.091
      vertex 37.8284 17.2712 -0.391
    endloop
  endfacet
  facet normal -0.888839 -0.458219 0
    outer loop
      vertex 38.2003 16.5498 -0.391
      vertex 38.2003 16.5498 -0.091
      vertex 37.8284 17.2712 -0.091
    endloop
  endfacet
  facet normal -0.91439 -0.404833 0
    outer loop
      vertex 38.5285 15.8085 -0.391
      vertex 38.2003 16.5498 -0.091
      vertex 38.2003 16.5498 -0.391
    endloop
  endfacet
  facet normal -0.91439 -0.404833 0
    outer loop
      vertex 38.5285 15.8085 -0.391
      vertex 38.5285 15.8085 -0.091
      vertex 38.2003 16.5498 -0.091
    endloop
  endfacet
  facet normal -0.936738 -0.350031 0
    outer loop
      vertex 38.8129 15.0474 -0.391
      vertex 38.5285 15.8085 -0.091
      vertex 38.5285 15.8085 -0.391
    endloop
  endfacet
  facet normal -0.936738 -0.350031 0
    outer loop
      vertex 38.8129 15.0474 -0.391
      vertex 38.8129 15.0474 -0.091
      vertex 38.5285 15.8085 -0.091
    endloop
  endfacet
  facet normal -0.955678 -0.294413 0
    outer loop
      vertex 39.0535 14.2664 -0.391
      vertex 38.8129 15.0474 -0.091
      vertex 38.8129 15.0474 -0.391
    endloop
  endfacet
  facet normal -0.955678 -0.294413 0
    outer loop
      vertex 39.0535 14.2664 -0.391
      vertex 39.0535 14.2664 -0.091
      vertex 38.8129 15.0474 -0.091
    endloop
  endfacet
  facet normal -0.971084 -0.238739 0
    outer loop
      vertex 39.2504 13.4655 -0.391
      vertex 39.0535 14.2664 -0.091
      vertex 39.0535 14.2664 -0.391
    endloop
  endfacet
  facet normal -0.971084 -0.238739 0
    outer loop
      vertex 39.2504 13.4655 -0.391
      vertex 39.2504 13.4655 -0.091
      vertex 39.0535 14.2664 -0.091
    endloop
  endfacet
  facet normal -0.983024 -0.183479 0
    outer loop
      vertex 39.4036 12.6447 -0.391
      vertex 39.2504 13.4655 -0.091
      vertex 39.2504 13.4655 -0.391
    endloop
  endfacet
  facet normal -0.983024 -0.183479 0
    outer loop
      vertex 39.4036 12.6447 -0.391
      vertex 39.4036 12.6447 -0.091
      vertex 39.2504 13.4655 -0.091
    endloop
  endfacet
  facet normal -0.991639 -0.129042 0
    outer loop
      vertex 39.513 11.804 -0.391
      vertex 39.4036 12.6447 -0.091
      vertex 39.4036 12.6447 -0.391
    endloop
  endfacet
  facet normal -0.991639 -0.129042 0
    outer loop
      vertex 39.513 11.804 -0.391
      vertex 39.513 11.804 -0.091
      vertex 39.4036 12.6447 -0.091
    endloop
  endfacet
  facet normal -0.997107 -0.0760142 0
    outer loop
      vertex 39.5786 10.9435 -0.391
      vertex 39.513 11.804 -0.091
      vertex 39.513 11.804 -0.391
    endloop
  endfacet
  facet normal -0.997107 -0.0760142 0
    outer loop
      vertex 39.5786 10.9435 -0.391
      vertex 39.5786 10.9435 -0.091
      vertex 39.513 11.804 -0.091
    endloop
  endfacet
  facet normal -0.999691 -0.0248645 0
    outer loop
      vertex 39.6005 10.063 -0.391
      vertex 39.5786 10.9435 -0.091
      vertex 39.5786 10.9435 -0.391
    endloop
  endfacet
  facet normal -0.999691 -0.0248645 0
    outer loop
      vertex 39.6005 10.063 -0.391
      vertex 39.6005 10.063 -0.091
      vertex 39.5786 10.9435 -0.091
    endloop
  endfacet
  facet normal -1 0 0
    outer loop
      vertex 39.6005 -0.699997 -0.391
      vertex 39.6005 10.063 -0.091
      vertex 39.6005 10.063 -0.391
    endloop
  endfacet
  facet normal -1 0 0
    outer loop
      vertex 39.6005 -0.699997 -0.391
      vertex 39.6005 -0.699997 -0.091
      vertex 39.6005 10.063 -0.091
    endloop
  endfacet
  facet normal 0 -1 0
    outer loop
      vertex 47.9987 -0.699997 -0.391
      vertex 39.6005 -0.699997 -0.091
      vertex 39.6005 -0.699997 -0.391
    endloop
  endfacet
  facet normal 0 -1 0
    outer loop
      vertex 47.9987 -0.699997 -0.391
      vertex 47.9987 -0.699997 -0.091
      vertex 39.6005 -0.699997 -0.091
    endloop
  endfacet
  facet normal 1 0 0
    outer loop
      vertex 47.9987 10.063 -0.391
      vertex 47.9987 -0.699997 -0.091
      vertex 47.9987 -0.699997 -0.391
    endloop
  endfacet
  facet normal 1 0 -0
    outer loop
      vertex 47.9987 10.063 -0.391
      vertex 47.9987 10.063 -0.091
      vertex 47.9987 -0.699997 -0.091
    endloop
  endfacet
endsolid OpenSCAD_Model
