solid OpenSCAD_Model
  facet normal 0 0 -1
    outer loop
      vertex 39.3458 0.276855 -0.391
      vertex 40.24 -0.376419 -0.391
      vertex 40.6292 -0.699997 -0.391
    endloop
  endfacet
  facet normal -0 -0 -1
    outer loop
      vertex 35.5132 2.20235 -0.391
      vertex 36.5098 1.82413 -0.391
      vertex 34.4911 2.5118 -0.391
    endloop
  endfacet
  facet normal -0 -0 -1
    outer loop
      vertex 34.4911 2.5118 -0.391
      vertex 37.4807 1.37714 -0.391
      vertex 33.4433 2.75249 -0.391
    endloop
  endfacet
  facet normal 0 0 -1
    outer loop
      vertex 34.4911 2.5118 -0.391
      vertex 36.5098 1.82413 -0.391
      vertex 37.4807 1.37714 -0.391
    endloop
  endfacet
  facet normal 0 0 -1
    outer loop
      vertex 33.4433 2.75249 -0.391
      vertex 37.4807 1.37714 -0.391
      vertex 38.4261 0.861374 -0.391
    endloop
  endfacet
  facet normal 0 0 -1
    outer loop
      vertex 32.37 2.92441 -0.391
      vertex 33.4433 2.75249 -0.391
      vertex 38.4261 0.861374 -0.391
    endloop
  endfacet
  facet normal 0 0 -1
    outer loop
      vertex 39.3458 0.276855 -0.391
      vertex 32.37 2.92441 -0.391
      vertex 38.4261 0.861374 -0.391
    endloop
  endfacet
  facet normal -0 -0 -1
    outer loop
      vertex 39.3458 0.276855 -0.391
      vertex 40.6292 -0.699997 -0.391
      vertex 32.37 2.92441 -0.391
    endloop
  endfacet
  facet normal -0 -0 -1
    outer loop
      vertex 32.37 2.92441 -0.391
      vertex 40.6292 -0.699997 -0.391
      vertex 31.2711 3.02756 -0.391
    endloop
  endfacet
  facet normal -0 -0 -1
    outer loop
      vertex 31.2711 3.02756 -0.391
      vertex 40.6292 -0.699997 -0.391
      vertex 30.1465 3.06194 -0.391
    endloop
  endfacet
  facet normal -0 -0 -1
    outer loop
      vertex 30.1465 3.06194 -0.391
      vertex 40.6292 -0.699997 -0.391
      vertex 23.845 3.06194 -0.391
    endloop
  endfacet
  facet normal -0 0 -1
    outer loop
      vertex 22.1023 3.22601 -0.391
      vertex 11.4514 -0.699997 -0.391
      vertex 21.5483 3.35362 -0.391
    endloop
  endfacet
  facet normal 0 0 -1
    outer loop
      vertex 11.4514 -0.699997 -0.391
      vertex 20.4804 3.71822 -0.391
      vertex 21.0076 3.51768 -0.391
    endloop
  endfacet
  facet normal -0 0 -1
    outer loop
      vertex 19.4663 4.22865 -0.391
      vertex 11.4514 -0.699997 -0.391
      vertex 18.9793 4.53856 -0.391
    endloop
  endfacet
  facet normal -0 0 -1
    outer loop
      vertex 18.9793 4.53856 -0.391
      vertex 11.4514 -0.699997 -0.391
      vertex 18.5058 4.88493 -0.391
    endloop
  endfacet
  facet normal 0 0 -1
    outer loop
      vertex 11.4514 -0.699997 -0.391
      vertex 17.5989 5.68706 -0.391
      vertex 18.0456 5.26776 -0.391
    endloop
  endfacet
  facet normal 0 0 -1
    outer loop
      vertex 11.225 -0.461975 -0.391
      vertex 10.4514 0.446198 -0.391
      vertex 17.5989 5.68706 -0.391
    endloop
  endfacet
  facet normal 0 0 -1
    outer loop
      vertex 10.4514 0.446198 -0.391
      vertex 16.7556 6.62413 -0.391
      vertex 17.1656 6.14281 -0.391
    endloop
  endfacet
  facet normal 0 0 -1
    outer loop
      vertex 9.73965 1.38286 -0.391
      vertex 16.3783 7.12038 -0.391
      vertex 16.7556 6.62413 -0.391
    endloop
  endfacet
  facet normal 0 0 -1
    outer loop
      vertex 9.08981 2.34795 -0.391
      vertex 16.0338 7.63155 -0.391
      vertex 16.3783 7.12038 -0.391
    endloop
  endfacet
  facet normal 0 0 -1
    outer loop
      vertex 8.50185 3.34149 -0.391
      vertex 15.7222 8.15762 -0.391
      vertex 16.0338 7.63155 -0.391
    endloop
  endfacet
  facet normal 0 0 -1
    outer loop
      vertex 7.97578 4.36349 -0.391
      vertex 15.4433 8.69862 -0.391
      vertex 15.7222 8.15762 -0.391
    endloop
  endfacet
  facet normal 0 0 -1
    outer loop
      vertex 7.97578 4.36349 -0.391
      vertex 7.51161 5.41393 -0.391
      vertex 15.4433 8.69862 -0.391
    endloop
  endfacet
  facet normal -0 0 -1
    outer loop
      vertex 15.4433 8.69862 -0.391
      vertex 7.51161 5.41393 -0.391
      vertex 15.1973 9.25453 -0.391
    endloop
  endfacet
  facet normal 0 0 -1
    outer loop
      vertex 15.1973 9.25453 -0.391
      vertex 7.51161 5.41393 -0.391
      vertex 7.10931 6.49281 -0.391
    endloop
  endfacet
  facet normal 0 -0 -1
    outer loop
      vertex 14.984 9.82536 -0.391
      vertex 15.1973 9.25453 -0.391
      vertex 7.10931 6.49281 -0.391
    endloop
  endfacet
  facet normal 0 0 -1
    outer loop
      vertex 6.76892 7.60016 -0.391
      vertex 14.984 9.82536 -0.391
      vertex 7.10931 6.49281 -0.391
    endloop
  endfacet
  facet normal 0 0 -1
    outer loop
      vertex 6.76892 7.60016 -0.391
      vertex 14.8036 10.4111 -0.391
      vertex 14.984 9.82536 -0.391
    endloop
  endfacet
  facet normal 0 0 -1
    outer loop
      vertex 6.76892 7.60016 -0.391
      vertex 6.4904 8.73595 -0.391
      vertex 14.8036 10.4111 -0.391
    endloop
  endfacet
  facet normal -0 0 -1
    outer loop
      vertex 14.8036 10.4111 -0.391
      vertex 6.4904 8.73595 -0.391
      vertex 14.6559 11.0118 -0.391
    endloop
  endfacet
  facet normal 0 0 -1
    outer loop
      vertex 6.02623 12.314 -0.391
      vertex 14.4591 12.2578 -0.391
      vertex 6.11906 11.0929 -0.391
    endloop
  endfacet
  facet normal 0 -0 -1
    outer loop
      vertex 6.02461 29.3086 -0.391
      vertex 10.1959 33.4 -0.391
      vertex 6.00261 29.0238 -0.391
    endloop
  endfacet
  facet normal 0 0 -1
    outer loop
      vertex 6.46449 30.8845 -0.391
      vertex 6.58913 31.1249 -0.391
      vertex 10.1959 33.4 -0.391
    endloop
  endfacet
  facet normal 0 0 -1
    outer loop
      vertex 10.1959 33.4 -0.391
      vertex 7.62698 32.4143 -0.391
      vertex 7.83191 32.5854 -0.391
    endloop
  endfacet
  facet normal 0 0 -1
    outer loop
      vertex 8.25893 32.8786 -0.391
      vertex 9.42664 33.3267 -0.391
      vertex 9.67734 33.3674 -0.391
    endloop
  endfacet
  facet normal 0 0 -1
    outer loop
      vertex 8.25893 32.8786 -0.391
      vertex 8.48103 33.0008 -0.391
      vertex 9.42664 33.3267 -0.391
    endloop
  endfacet
  facet normal 0 0 -1
    outer loop
      vertex 9.42664 33.3267 -0.391
      vertex 8.48103 33.0008 -0.391
      vertex 9.18166 33.2697 -0.391
    endloop
  endfacet
  facet normal 0 0 -1
    outer loop
      vertex 9.18166 33.2697 -0.391
      vertex 8.48103 33.0008 -0.391
      vertex 8.70885 33.1067 -0.391
    endloop
  endfacet
  facet normal 0 -0 -1
    outer loop
      vertex 8.94238 33.1963 -0.391
      vertex 9.18166 33.2697 -0.391
      vertex 8.70885 33.1067 -0.391
    endloop
  endfacet
  facet normal 0 0 -1
    outer loop
      vertex 44.8123 24.1956 -0.391
      vertex 45.2851 24.3586 -0.391
      vertex 45.0516 24.269 -0.391
    endloop
  endfacet
  facet normal 0 0 -1
    outer loop
      vertex 44.8123 24.1956 -0.391
      vertex 45.5129 24.4646 -0.391
      vertex 45.2851 24.3586 -0.391
    endloop
  endfacet
  facet normal -0 0 -1
    outer loop
      vertex 44.8123 24.1956 -0.391
      vertex 44.5673 24.1385 -0.391
      vertex 45.5129 24.4646 -0.391
    endloop
  endfacet
  facet normal -0 0 -1
    outer loop
      vertex 45.5129 24.4646 -0.391
      vertex 44.5673 24.1385 -0.391
      vertex 45.735 24.5868 -0.391
    endloop
  endfacet
  facet normal 0 0 -1
    outer loop
      vertex 45.735 24.5868 -0.391
      vertex 44.5673 24.1385 -0.391
      vertex 44.3166 24.0978 -0.391
    endloop
  endfacet
  facet normal 0 0 -1
    outer loop
      vertex 45.9514 24.7254 -0.391
      vertex 45.735 24.5868 -0.391
      vertex 44.3166 24.0978 -0.391
    endloop
  endfacet
  facet normal 0 0 -1
    outer loop
      vertex 44.0602 24.0733 -0.391
      vertex 45.9514 24.7254 -0.391
      vertex 44.3166 24.0978 -0.391
    endloop
  endfacet
  facet normal 0 0 -1
    outer loop
      vertex 44.0602 24.0733 -0.391
      vertex 46.1621 24.8802 -0.391
      vertex 45.9514 24.7254 -0.391
    endloop
  endfacet
  facet normal -0 0 -1
    outer loop
      vertex 44.0602 24.0733 -0.391
      vertex 43.798 24.0652 -0.391
      vertex 46.1621 24.8802 -0.391
    endloop
  endfacet
  facet normal -0 0 -1
    outer loop
      vertex 46.1621 24.8802 -0.391
      vertex 43.798 24.0652 -0.391
      vertex 46.367 25.0514 -0.391
    endloop
  endfacet
  facet normal -0 0 -1
    outer loop
      vertex 46.367 25.0514 -0.391
      vertex 43.798 24.0652 -0.391
      vertex 46.5662 25.2388 -0.391
    endloop
  endfacet
  facet normal -0 0 -1
    outer loop
      vertex 46.5662 25.2388 -0.391
      vertex 43.798 24.0652 -0.391
      vertex 46.7597 25.4426 -0.391
    endloop
  endfacet
  facet normal -0 0 -1
    outer loop
      vertex 46.7597 25.4426 -0.391
      vertex 43.798 24.0652 -0.391
      vertex 46.9429 25.6575 -0.391
    endloop
  endfacet
  facet normal -0 0 -1
    outer loop
      vertex 46.9429 25.6575 -0.391
      vertex 43.798 24.0652 -0.391
      vertex 47.1116 25.8789 -0.391
    endloop
  endfacet
  facet normal -0 0 -1
    outer loop
      vertex 47.1116 25.8789 -0.391
      vertex 43.798 24.0652 -0.391
      vertex 47.2655 26.1066 -0.391
    endloop
  endfacet
  facet normal -0 0 -1
    outer loop
      vertex 47.2655 26.1066 -0.391
      vertex 43.798 24.0652 -0.391
      vertex 47.4048 26.3406 -0.391
    endloop
  endfacet
  facet normal -0 0 -1
    outer loop
      vertex 47.4048 26.3406 -0.391
      vertex 43.798 24.0652 -0.391
      vertex 47.5295 26.5809 -0.391
    endloop
  endfacet
  facet normal -0 0 -1
    outer loop
      vertex 47.5295 26.5809 -0.391
      vertex 43.798 24.0652 -0.391
      vertex 47.6395 26.8277 -0.391
    endloop
  endfacet
  facet normal -0 0 -1
    outer loop
      vertex 47.6395 26.8277 -0.391
      vertex 43.798 24.0652 -0.391
      vertex 47.7348 27.0808 -0.391
    endloop
  endfacet
  facet normal -0 0 -1
    outer loop
      vertex 47.7348 27.0808 -0.391
      vertex 43.798 24.0652 -0.391
      vertex 47.8154 27.3402 -0.391
    endloop
  endfacet
  facet normal -0 0 -1
    outer loop
      vertex 47.8154 27.3402 -0.391
      vertex 43.798 24.0652 -0.391
      vertex 47.8814 27.606 -0.391
    endloop
  endfacet
  facet normal -0 0 -1
    outer loop
      vertex 47.8814 27.606 -0.391
      vertex 43.798 24.0652 -0.391
      vertex 47.9327 27.8781 -0.391
    endloop
  endfacet
  facet normal -0 0 -1
    outer loop
      vertex 47.9327 27.8781 -0.391
      vertex 43.798 24.0652 -0.391
      vertex 47.9694 28.1566 -0.391
    endloop
  endfacet
  facet normal -0 0 -1
    outer loop
      vertex 47.9694 28.1566 -0.391
      vertex 43.798 24.0652 -0.391
      vertex 47.9913 28.4414 -0.391
    endloop
  endfacet
  facet normal -0 0 -1
    outer loop
      vertex 47.9913 28.4414 -0.391
      vertex 43.798 24.0652 -0.391
      vertex 47.9987 28.7326 -0.391
    endloop
  endfacet
  facet normal 0 0 -1
    outer loop
      vertex 43.798 33.4 -0.391
      vertex 47.9694 29.3086 -0.391
      vertex 47.9913 29.0238 -0.391
    endloop
  endfacet
  facet normal -0 -0 -1
    outer loop
      vertex 47.6395 30.6377 -0.391
      vertex 47.7348 30.3846 -0.391
      vertex 43.798 33.4 -0.391
    endloop
  endfacet
  facet normal 0 0 -1
    outer loop
      vertex 43.798 33.4 -0.391
      vertex 46.367 32.4143 -0.391
      vertex 46.5662 32.2269 -0.391
    endloop
  endfacet
  facet normal 0 0 -1
    outer loop
      vertex 43.798 33.4 -0.391
      vertex 46.9429 31.8082 -0.391
      vertex 47.1116 31.5868 -0.391
    endloop
  endfacet
  facet normal -0 -0 -1
    outer loop
      vertex 47.2655 31.359 -0.391
      vertex 47.4048 31.1249 -0.391
      vertex 43.798 33.4 -0.391
    endloop
  endfacet
  facet normal 0 0 -1
    outer loop
      vertex 47.2655 31.359 -0.391
      vertex 43.798 33.4 -0.391
      vertex 47.1116 31.5868 -0.391
    endloop
  endfacet
  facet normal 0 0 -1
    outer loop
      vertex 46.9429 31.8082 -0.391
      vertex 43.798 33.4 -0.391
      vertex 46.7597 32.0233 -0.391
    endloop
  endfacet
  facet normal 0 0 -1
    outer loop
      vertex 46.7597 32.0233 -0.391
      vertex 43.798 33.4 -0.391
      vertex 46.5662 32.2269 -0.391
    endloop
  endfacet
  facet normal 0 0 -1
    outer loop
      vertex 43.798 33.4 -0.391
      vertex 46.1621 32.5854 -0.391
      vertex 46.367 32.4143 -0.391
    endloop
  endfacet
  facet normal 0 0 -1
    outer loop
      vertex 44.0602 33.3918 -0.391
      vertex 45.9514 32.7402 -0.391
      vertex 46.1621 32.5854 -0.391
    endloop
  endfacet
  facet normal 0 0 -1
    outer loop
      vertex 44.0602 33.3918 -0.391
      vertex 44.3166 33.3674 -0.391
      vertex 45.9514 32.7402 -0.391
    endloop
  endfacet
  facet normal 0 0 -1
    outer loop
      vertex 45.9514 32.7402 -0.391
      vertex 44.3166 33.3674 -0.391
      vertex 45.735 32.8786 -0.391
    endloop
  endfacet
  facet normal 0 0 -1
    outer loop
      vertex 45.735 32.8786 -0.391
      vertex 44.3166 33.3674 -0.391
      vertex 44.5673 33.3267 -0.391
    endloop
  endfacet
  facet normal 0 0 -1
    outer loop
      vertex 45.5129 33.0008 -0.391
      vertex 44.5673 33.3267 -0.391
      vertex 44.8123 33.2697 -0.391
    endloop
  endfacet
  facet normal 0 0 -1
    outer loop
      vertex 45.2851 33.1067 -0.391
      vertex 44.8123 33.2697 -0.391
      vertex 45.0516 33.1963 -0.391
    endloop
  endfacet
  facet normal -0 -0 -1
    outer loop
      vertex 45.2851 33.1067 -0.391
      vertex 45.5129 33.0008 -0.391
      vertex 44.8123 33.2697 -0.391
    endloop
  endfacet
  facet normal -0 -0 -1
    outer loop
      vertex 45.5129 33.0008 -0.391
      vertex 45.735 32.8786 -0.391
      vertex 44.5673 33.3267 -0.391
    endloop
  endfacet
  facet normal 0 0 -1
    outer loop
      vertex 43.798 33.4 -0.391
      vertex 44.0602 33.3918 -0.391
      vertex 46.1621 32.5854 -0.391
    endloop
  endfacet
  facet normal 0 0 -1
    outer loop
      vertex 47.5295 30.8845 -0.391
      vertex 43.798 33.4 -0.391
      vertex 47.4048 31.1249 -0.391
    endloop
  endfacet
  facet normal -0 -0 -1
    outer loop
      vertex 47.5295 30.8845 -0.391
      vertex 47.6395 30.6377 -0.391
      vertex 43.798 33.4 -0.391
    endloop
  endfacet
  facet normal 0 0 -1
    outer loop
      vertex 43.798 33.4 -0.391
      vertex 47.7348 30.3846 -0.391
      vertex 47.8154 30.1251 -0.391
    endloop
  endfacet
  facet normal 0 0 -1
    outer loop
      vertex 47.8814 29.8593 -0.391
      vertex 43.798 33.4 -0.391
      vertex 47.8154 30.1251 -0.391
    endloop
  endfacet
  facet normal -0 -0 -1
    outer loop
      vertex 47.8814 29.8593 -0.391
      vertex 47.9327 29.5871 -0.391
      vertex 43.798 33.4 -0.391
    endloop
  endfacet
  facet normal 0 0 -1
    outer loop
      vertex 43.798 33.4 -0.391
      vertex 47.9327 29.5871 -0.391
      vertex 47.9694 29.3086 -0.391
    endloop
  endfacet
  facet normal 0 0 -1
    outer loop
      vertex 47.9987 28.7326 -0.391
      vertex 43.798 33.4 -0.391
      vertex 47.9913 29.0238 -0.391
    endloop
  endfacet
  facet normal -0 0 -1
    outer loop
      vertex 47.9987 28.7326 -0.391
      vertex 43.798 24.0652 -0.391
      vertex 43.798 33.4 -0.391
    endloop
  endfacet
  facet normal 0 -0 -1
    outer loop
      vertex 43.798 33.4 -0.391
      vertex 43.798 24.0652 -0.391
      vertex 14.3935 24.0652 -0.391
    endloop
  endfacet
  facet normal 0 0 -1
    outer loop
      vertex 10.1959 33.4 -0.391
      vertex 43.798 33.4 -0.391
      vertex 14.3935 24.0652 -0.391
    endloop
  endfacet
  facet normal 0 0 -1
    outer loop
      vertex 9.67734 33.3674 -0.391
      vertex 8.04256 32.7402 -0.391
      vertex 8.25893 32.8786 -0.391
    endloop
  endfacet
  facet normal 0 -0 -1
    outer loop
      vertex 9.67734 33.3674 -0.391
      vertex 9.93378 33.3918 -0.391
      vertex 8.04256 32.7402 -0.391
    endloop
  endfacet
  facet normal 0 -0 -1
    outer loop
      vertex 8.04256 32.7402 -0.391
      vertex 9.93378 33.3918 -0.391
      vertex 7.83191 32.5854 -0.391
    endloop
  endfacet
  facet normal 0 0 -1
    outer loop
      vertex 7.83191 32.5854 -0.391
      vertex 9.93378 33.3918 -0.391
      vertex 10.1959 33.4 -0.391
    endloop
  endfacet
  facet normal 0 -0 -1
    outer loop
      vertex 7.62698 32.4143 -0.391
      vertex 10.1959 33.4 -0.391
      vertex 7.42778 32.2269 -0.391
    endloop
  endfacet
  facet normal 0 -0 -1
    outer loop
      vertex 7.42778 32.2269 -0.391
      vertex 10.1959 33.4 -0.391
      vertex 7.2343 32.0233 -0.391
    endloop
  endfacet
  facet normal 0 -0 -1
    outer loop
      vertex 7.2343 32.0233 -0.391
      vertex 10.1959 33.4 -0.391
      vertex 7.05103 31.8082 -0.391
    endloop
  endfacet
  facet normal 0 -0 -1
    outer loop
      vertex 7.05103 31.8082 -0.391
      vertex 10.1959 33.4 -0.391
      vertex 6.88239 31.5868 -0.391
    endloop
  endfacet
  facet normal 0 -0 -1
    outer loop
      vertex 6.88239 31.5868 -0.391
      vertex 10.1959 33.4 -0.391
      vertex 6.72844 31.359 -0.391
    endloop
  endfacet
  facet normal 0 -0 -1
    outer loop
      vertex 6.72844 31.359 -0.391
      vertex 10.1959 33.4 -0.391
      vertex 6.58913 31.1249 -0.391
    endloop
  endfacet
  facet normal 0 0 -1
    outer loop
      vertex 10.1959 33.4 -0.391
      vertex 6.35452 30.6377 -0.391
      vertex 6.46449 30.8845 -0.391
    endloop
  endfacet
  facet normal 0 0 -1
    outer loop
      vertex 10.1959 33.4 -0.391
      vertex 6.2592 30.3846 -0.391
      vertex 6.35452 30.6377 -0.391
    endloop
  endfacet
  facet normal 0 0 -1
    outer loop
      vertex 10.1959 33.4 -0.391
      vertex 6.17857 30.1251 -0.391
      vertex 6.2592 30.3846 -0.391
    endloop
  endfacet
  facet normal 0 0 -1
    outer loop
      vertex 10.1959 33.4 -0.391
      vertex 6.11258 29.8593 -0.391
      vertex 6.17857 30.1251 -0.391
    endloop
  endfacet
  facet normal 0 0 -1
    outer loop
      vertex 10.1959 33.4 -0.391
      vertex 6.06126 29.5871 -0.391
      vertex 6.11258 29.8593 -0.391
    endloop
  endfacet
  facet normal 0 0 -1
    outer loop
      vertex 10.1959 33.4 -0.391
      vertex 6.02461 29.3086 -0.391
      vertex 6.06126 29.5871 -0.391
    endloop
  endfacet
  facet normal 0 0 -1
    outer loop
      vertex 5.99527 28.7326 -0.391
      vertex 6.00261 29.0238 -0.391
      vertex 10.1959 33.4 -0.391
    endloop
  endfacet
  facet normal 0 0 -1
    outer loop
      vertex 14.3935 24.0652 -0.391
      vertex 5.99527 28.7326 -0.391
      vertex 10.1959 33.4 -0.391
    endloop
  endfacet
  facet normal -0 0 -1
    outer loop
      vertex 14.3935 24.0652 -0.391
      vertex 5.99527 13.5636 -0.391
      vertex 5.99527 28.7326 -0.391
    endloop
  endfacet
  facet normal 0 -0 -1
    outer loop
      vertex 14.3935 24.0652 -0.391
      vertex 14.3935 13.5636 -0.391
      vertex 5.99527 13.5636 -0.391
    endloop
  endfacet
  facet normal 0 0 -1
    outer loop
      vertex 5.99527 13.5636 -0.391
      vertex 14.3935 13.5636 -0.391
      vertex 14.4099 12.9032 -0.391
    endloop
  endfacet
  facet normal 0 0 -1
    outer loop
      vertex 6.02623 12.314 -0.391
      vertex 5.99527 13.5636 -0.391
      vertex 14.4099 12.9032 -0.391
    endloop
  endfacet
  facet normal 0 0 -1
    outer loop
      vertex 14.4591 12.2578 -0.391
      vertex 6.02623 12.314 -0.391
      vertex 14.4099 12.9032 -0.391
    endloop
  endfacet
  facet normal -0 0 -1
    outer loop
      vertex 14.5411 11.6273 -0.391
      vertex 6.11906 11.0929 -0.391
      vertex 14.4591 12.2578 -0.391
    endloop
  endfacet
  facet normal 0 0 -1
    outer loop
      vertex 14.5411 11.6273 -0.391
      vertex 6.27379 9.90018 -0.391
      vertex 6.11906 11.0929 -0.391
    endloop
  endfacet
  facet normal 0 -0 -1
    outer loop
      vertex 14.5411 11.6273 -0.391
      vertex 14.6559 11.0118 -0.391
      vertex 6.27379 9.90018 -0.391
    endloop
  endfacet
  facet normal 0 0 -1
    outer loop
      vertex 6.27379 9.90018 -0.391
      vertex 14.6559 11.0118 -0.391
      vertex 6.4904 8.73595 -0.391
    endloop
  endfacet
  facet normal 0 0 -1
    outer loop
      vertex 15.7222 8.15762 -0.391
      vertex 8.50185 3.34149 -0.391
      vertex 7.97578 4.36349 -0.391
    endloop
  endfacet
  facet normal 0 0 -1
    outer loop
      vertex 16.0338 7.63155 -0.391
      vertex 9.08981 2.34795 -0.391
      vertex 8.50185 3.34149 -0.391
    endloop
  endfacet
  facet normal 0 0 -1
    outer loop
      vertex 16.3783 7.12038 -0.391
      vertex 9.73965 1.38286 -0.391
      vertex 9.08981 2.34795 -0.391
    endloop
  endfacet
  facet normal 0 0 -1
    outer loop
      vertex 16.7556 6.62413 -0.391
      vertex 10.4514 0.446198 -0.391
      vertex 9.73965 1.38286 -0.391
    endloop
  endfacet
  facet normal 0 -0 -1
    outer loop
      vertex 17.1656 6.14281 -0.391
      vertex 17.5989 5.68706 -0.391
      vertex 10.4514 0.446198 -0.391
    endloop
  endfacet
  facet normal 0 0 -1
    outer loop
      vertex 17.5989 5.68706 -0.391
      vertex 11.4514 -0.699997 -0.391
      vertex 11.225 -0.461975 -0.391
    endloop
  endfacet
  facet normal 0 -0 -1
    outer loop
      vertex 18.0456 5.26776 -0.391
      vertex 18.5058 4.88493 -0.391
      vertex 11.4514 -0.699997 -0.391
    endloop
  endfacet
  facet normal 0 0 -1
    outer loop
      vertex 11.4514 -0.699997 -0.391
      vertex 19.4663 4.22865 -0.391
      vertex 19.9666 3.9552 -0.391
    endloop
  endfacet
  facet normal -0 0 -1
    outer loop
      vertex 20.4804 3.71822 -0.391
      vertex 11.4514 -0.699997 -0.391
      vertex 19.9666 3.9552 -0.391
    endloop
  endfacet
  facet normal 0 -0 -1
    outer loop
      vertex 21.0076 3.51768 -0.391
      vertex 21.5483 3.35362 -0.391
      vertex 11.4514 -0.699997 -0.391
    endloop
  endfacet
  facet normal 0 0 -1
    outer loop
      vertex 11.4514 -0.699997 -0.391
      vertex 22.1023 3.22601 -0.391
      vertex 22.6698 3.13486 -0.391
    endloop
  endfacet
  facet normal -0 0 -1
    outer loop
      vertex 23.2507 3.08017 -0.391
      vertex 11.4514 -0.699997 -0.391
      vertex 22.6698 3.13486 -0.391
    endloop
  endfacet
  facet normal 0 -0 -1
    outer loop
      vertex 23.2507 3.08017 -0.391
      vertex 23.845 3.06194 -0.391
      vertex 11.4514 -0.699997 -0.391
    endloop
  endfacet
  facet normal 0 0 -1
    outer loop
      vertex 11.4514 -0.699997 -0.391
      vertex 23.845 3.06194 -0.391
      vertex 40.6292 -0.699997 -0.391
    endloop
  endfacet
  facet normal 0 0 1
    outer loop
      vertex 40.6292 -0.699997 -0.091
      vertex 40.24 -0.376419 -0.091
      vertex 39.3458 0.276855 -0.091
    endloop
  endfacet
  facet normal 0 0 1
    outer loop
      vertex 34.4911 2.5118 -0.091
      vertex 36.5098 1.82413 -0.091
      vertex 35.5132 2.20235 -0.091
    endloop
  endfacet
  facet normal 0 0 1
    outer loop
      vertex 33.4433 2.75249 -0.091
      vertex 37.4807 1.37714 -0.091
      vertex 34.4911 2.5118 -0.091
    endloop
  endfacet
  facet normal 0 0 1
    outer loop
      vertex 37.4807 1.37714 -0.091
      vertex 36.5098 1.82413 -0.091
      vertex 34.4911 2.5118 -0.091
    endloop
  endfacet
  facet normal 0 0 1
    outer loop
      vertex 38.4261 0.861374 -0.091
      vertex 37.4807 1.37714 -0.091
      vertex 33.4433 2.75249 -0.091
    endloop
  endfacet
  facet normal 0 0 1
    outer loop
      vertex 38.4261 0.861374 -0.091
      vertex 33.4433 2.75249 -0.091
      vertex 32.37 2.92441 -0.091
    endloop
  endfacet
  facet normal 0 0 1
    outer loop
      vertex 38.4261 0.861374 -0.091
      vertex 32.37 2.92441 -0.091
      vertex 39.3458 0.276855 -0.091
    endloop
  endfacet
  facet normal 0 0 1
    outer loop
      vertex 32.37 2.92441 -0.091
      vertex 40.6292 -0.699997 -0.091
      vertex 39.3458 0.276855 -0.091
    endloop
  endfacet
  facet normal 0 0 1
    outer loop
      vertex 31.2711 3.02756 -0.091
      vertex 40.6292 -0.699997 -0.091
      vertex 32.37 2.92441 -0.091
    endloop
  endfacet
  facet normal 0 0 1
    outer loop
      vertex 30.1465 3.06194 -0.091
      vertex 40.6292 -0.699997 -0.091
      vertex 31.2711 3.02756 -0.091
    endloop
  endfacet
  facet normal -0 0 1
    outer loop
      vertex 23.845 3.06194 -0.091
      vertex 40.6292 -0.699997 -0.091
      vertex 30.1465 3.06194 -0.091
    endloop
  endfacet
  facet normal 0 0 1
    outer loop
      vertex 21.5483 3.35362 -0.091
      vertex 11.4514 -0.699997 -0.091
      vertex 22.1023 3.22601 -0.091
    endloop
  endfacet
  facet normal 0 0 1
    outer loop
      vertex 21.0076 3.51768 -0.091
      vertex 20.4804 3.71822 -0.091
      vertex 11.4514 -0.699997 -0.091
    endloop
  endfacet
  facet normal 0 0 1
    outer loop
      vertex 18.9793 4.53856 -0.091
      vertex 11.4514 -0.699997 -0.091
      vertex 19.4663 4.22865 -0.091
    endloop
  endfacet
  facet normal 0 0 1
    outer loop
      vertex 18.5058 4.88493 -0.091
      vertex 11.4514 -0.699997 -0.091
      vertex 18.9793 4.53856 -0.091
    endloop
  endfacet
  facet normal 0 0 1
    outer loop
      vertex 18.0456 5.26776 -0.091
      vertex 17.5989 5.68706 -0.091
      vertex 11.4514 -0.699997 -0.091
    endloop
  endfacet
  facet normal 0 0 1
    outer loop
      vertex 17.5989 5.68706 -0.091
      vertex 10.4514 0.446198 -0.091
      vertex 11.225 -0.461975 -0.091
    endloop
  endfacet
  facet normal 0 0 1
    outer loop
      vertex 17.1656 6.14281 -0.091
      vertex 16.7556 6.62413 -0.091
      vertex 10.4514 0.446198 -0.091
    endloop
  endfacet
  facet normal 0 0 1
    outer loop
      vertex 16.7556 6.62413 -0.091
      vertex 16.3783 7.12038 -0.091
      vertex 9.73965 1.38286 -0.091
    endloop
  endfacet
  facet normal 0 0 1
    outer loop
      vertex 16.3783 7.12038 -0.091
      vertex 16.0338 7.63155 -0.091
      vertex 9.08981 2.34795 -0.091
    endloop
  endfacet
  facet normal 0 0 1
    outer loop
      vertex 16.0338 7.63155 -0.091
      vertex 15.7222 8.15762 -0.091
      vertex 8.50185 3.34149 -0.091
    endloop
  endfacet
  facet normal 0 0 1
    outer loop
      vertex 15.7222 8.15762 -0.091
      vertex 15.4433 8.69862 -0.091
      vertex 7.97578 4.36349 -0.091
    endloop
  endfacet
  facet normal 0 0 1
    outer loop
      vertex 15.4433 8.69862 -0.091
      vertex 7.51161 5.41393 -0.091
      vertex 7.97578 4.36349 -0.091
    endloop
  endfacet
  facet normal 0 0 1
    outer loop
      vertex 15.1973 9.25453 -0.091
      vertex 7.51161 5.41393 -0.091
      vertex 15.4433 8.69862 -0.091
    endloop
  endfacet
  facet normal -0 0 1
    outer loop
      vertex 7.10931 6.49281 -0.091
      vertex 7.51161 5.41393 -0.091
      vertex 15.1973 9.25453 -0.091
    endloop
  endfacet
  facet normal 0 0 1
    outer loop
      vertex 7.10931 6.49281 -0.091
      vertex 15.1973 9.25453 -0.091
      vertex 14.984 9.82536 -0.091
    endloop
  endfacet
  facet normal 0 -0 1
    outer loop
      vertex 7.10931 6.49281 -0.091
      vertex 14.984 9.82536 -0.091
      vertex 6.76892 7.60016 -0.091
    endloop
  endfacet
  facet normal 0 0 1
    outer loop
      vertex 14.984 9.82536 -0.091
      vertex 14.8036 10.4111 -0.091
      vertex 6.76892 7.60016 -0.091
    endloop
  endfacet
  facet normal 0 0 1
    outer loop
      vertex 14.8036 10.4111 -0.091
      vertex 6.4904 8.73595 -0.091
      vertex 6.76892 7.60016 -0.091
    endloop
  endfacet
  facet normal 0 0 1
    outer loop
      vertex 14.6559 11.0118 -0.091
      vertex 6.4904 8.73595 -0.091
      vertex 14.8036 10.4111 -0.091
    endloop
  endfacet
  facet normal 0 -0 1
    outer loop
      vertex 6.11906 11.0929 -0.091
      vertex 14.4591 12.2578 -0.091
      vertex 6.02623 12.314 -0.091
    endloop
  endfacet
  facet normal 0 0 1
    outer loop
      vertex 6.00261 29.0238 -0.091
      vertex 10.1959 33.4 -0.091
      vertex 6.02461 29.3086 -0.091
    endloop
  endfacet
  facet normal 0 0 1
    outer loop
      vertex 10.1959 33.4 -0.091
      vertex 6.58913 31.1249 -0.091
      vertex 6.46449 30.8845 -0.091
    endloop
  endfacet
  facet normal -0 0 1
    outer loop
      vertex 7.83191 32.5854 -0.091
      vertex 7.62698 32.4143 -0.091
      vertex 10.1959 33.4 -0.091
    endloop
  endfacet
  facet normal 0 0 1
    outer loop
      vertex 9.67734 33.3674 -0.091
      vertex 9.42664 33.3267 -0.091
      vertex 8.25893 32.8786 -0.091
    endloop
  endfacet
  facet normal 0 0 1
    outer loop
      vertex 9.42664 33.3267 -0.091
      vertex 8.48103 33.0008 -0.091
      vertex 8.25893 32.8786 -0.091
    endloop
  endfacet
  facet normal -0 0 1
    outer loop
      vertex 9.18166 33.2697 -0.091
      vertex 8.48103 33.0008 -0.091
      vertex 9.42664 33.3267 -0.091
    endloop
  endfacet
  facet normal -0 0 1
    outer loop
      vertex 8.70885 33.1067 -0.091
      vertex 8.48103 33.0008 -0.091
      vertex 9.18166 33.2697 -0.091
    endloop
  endfacet
  facet normal 0 0 1
    outer loop
      vertex 8.70885 33.1067 -0.091
      vertex 9.18166 33.2697 -0.091
      vertex 8.94238 33.1963 -0.091
    endloop
  endfacet
  facet normal 0 -0 1
    outer loop
      vertex 45.0516 24.269 -0.091
      vertex 45.2851 24.3586 -0.091
      vertex 44.8123 24.1956 -0.091
    endloop
  endfacet
  facet normal 0 -0 1
    outer loop
      vertex 45.2851 24.3586 -0.091
      vertex 45.5129 24.4646 -0.091
      vertex 44.8123 24.1956 -0.091
    endloop
  endfacet
  facet normal 0 0 1
    outer loop
      vertex 45.5129 24.4646 -0.091
      vertex 44.5673 24.1385 -0.091
      vertex 44.8123 24.1956 -0.091
    endloop
  endfacet
  facet normal 0 0 1
    outer loop
      vertex 45.735 24.5868 -0.091
      vertex 44.5673 24.1385 -0.091
      vertex 45.5129 24.4646 -0.091
    endloop
  endfacet
  facet normal 0 0 1
    outer loop
      vertex 44.3166 24.0978 -0.091
      vertex 44.5673 24.1385 -0.091
      vertex 45.735 24.5868 -0.091
    endloop
  endfacet
  facet normal 0 0 1
    outer loop
      vertex 44.3166 24.0978 -0.091
      vertex 45.735 24.5868 -0.091
      vertex 45.9514 24.7254 -0.091
    endloop
  endfacet
  facet normal 0 -0 1
    outer loop
      vertex 44.3166 24.0978 -0.091
      vertex 45.9514 24.7254 -0.091
      vertex 44.0602 24.0733 -0.091
    endloop
  endfacet
  facet normal 0 -0 1
    outer loop
      vertex 45.9514 24.7254 -0.091
      vertex 46.1621 24.8802 -0.091
      vertex 44.0602 24.0733 -0.091
    endloop
  endfacet
  facet normal 0 0 1
    outer loop
      vertex 46.1621 24.8802 -0.091
      vertex 43.798 24.0652 -0.091
      vertex 44.0602 24.0733 -0.091
    endloop
  endfacet
  facet normal 0 0 1
    outer loop
      vertex 46.367 25.0514 -0.091
      vertex 43.798 24.0652 -0.091
      vertex 46.1621 24.8802 -0.091
    endloop
  endfacet
  facet normal 0 0 1
    outer loop
      vertex 46.5662 25.2388 -0.091
      vertex 43.798 24.0652 -0.091
      vertex 46.367 25.0514 -0.091
    endloop
  endfacet
  facet normal 0 0 1
    outer loop
      vertex 46.7597 25.4426 -0.091
      vertex 43.798 24.0652 -0.091
      vertex 46.5662 25.2388 -0.091
    endloop
  endfacet
  facet normal 0 0 1
    outer loop
      vertex 46.9429 25.6575 -0.091
      vertex 43.798 24.0652 -0.091
      vertex 46.7597 25.4426 -0.091
    endloop
  endfacet
  facet normal 0 0 1
    outer loop
      vertex 47.1116 25.8789 -0.091
      vertex 43.798 24.0652 -0.091
      vertex 46.9429 25.6575 -0.091
    endloop
  endfacet
  facet normal 0 0 1
    outer loop
      vertex 47.2655 26.1066 -0.091
      vertex 43.798 24.0652 -0.091
      vertex 47.1116 25.8789 -0.091
    endloop
  endfacet
  facet normal 0 0 1
    outer loop
      vertex 47.4048 26.3406 -0.091
      vertex 43.798 24.0652 -0.091
      vertex 47.2655 26.1066 -0.091
    endloop
  endfacet
  facet normal 0 0 1
    outer loop
      vertex 47.5295 26.5809 -0.091
      vertex 43.798 24.0652 -0.091
      vertex 47.4048 26.3406 -0.091
    endloop
  endfacet
  facet normal 0 0 1
    outer loop
      vertex 47.6395 26.8277 -0.091
      vertex 43.798 24.0652 -0.091
      vertex 47.5295 26.5809 -0.091
    endloop
  endfacet
  facet normal 0 0 1
    outer loop
      vertex 47.7348 27.0808 -0.091
      vertex 43.798 24.0652 -0.091
      vertex 47.6395 26.8277 -0.091
    endloop
  endfacet
  facet normal 0 0 1
    outer loop
      vertex 47.8154 27.3402 -0.091
      vertex 43.798 24.0652 -0.091
      vertex 47.7348 27.0808 -0.091
    endloop
  endfacet
  facet normal 0 0 1
    outer loop
      vertex 47.8814 27.606 -0.091
      vertex 43.798 24.0652 -0.091
      vertex 47.8154 27.3402 -0.091
    endloop
  endfacet
  facet normal 0 0 1
    outer loop
      vertex 47.9327 27.8781 -0.091
      vertex 43.798 24.0652 -0.091
      vertex 47.8814 27.606 -0.091
    endloop
  endfacet
  facet normal 0 0 1
    outer loop
      vertex 47.9694 28.1566 -0.091
      vertex 43.798 24.0652 -0.091
      vertex 47.9327 27.8781 -0.091
    endloop
  endfacet
  facet normal 0 0 1
    outer loop
      vertex 47.9913 28.4414 -0.091
      vertex 43.798 24.0652 -0.091
      vertex 47.9694 28.1566 -0.091
    endloop
  endfacet
  facet normal 0 0 1
    outer loop
      vertex 47.9987 28.7326 -0.091
      vertex 43.798 24.0652 -0.091
      vertex 47.9913 28.4414 -0.091
    endloop
  endfacet
  facet normal 0 0 1
    outer loop
      vertex 47.9913 29.0238 -0.091
      vertex 47.9694 29.3086 -0.091
      vertex 43.798 33.4 -0.091
    endloop
  endfacet
  facet normal 0 0 1
    outer loop
      vertex 43.798 33.4 -0.091
      vertex 47.7348 30.3846 -0.091
      vertex 47.6395 30.6377 -0.091
    endloop
  endfacet
  facet normal 0 0 1
    outer loop
      vertex 46.5662 32.2269 -0.091
      vertex 46.367 32.4143 -0.091
      vertex 43.798 33.4 -0.091
    endloop
  endfacet
  facet normal 0 0 1
    outer loop
      vertex 47.1116 31.5868 -0.091
      vertex 46.9429 31.8082 -0.091
      vertex 43.798 33.4 -0.091
    endloop
  endfacet
  facet normal 0 0 1
    outer loop
      vertex 43.798 33.4 -0.091
      vertex 47.4048 31.1249 -0.091
      vertex 47.2655 31.359 -0.091
    endloop
  endfacet
  facet normal 0 0 1
    outer loop
      vertex 47.1116 31.5868 -0.091
      vertex 43.798 33.4 -0.091
      vertex 47.2655 31.359 -0.091
    endloop
  endfacet
  facet normal 0 0 1
    outer loop
      vertex 46.7597 32.0233 -0.091
      vertex 43.798 33.4 -0.091
      vertex 46.9429 31.8082 -0.091
    endloop
  endfacet
  facet normal 0 0 1
    outer loop
      vertex 46.5662 32.2269 -0.091
      vertex 43.798 33.4 -0.091
      vertex 46.7597 32.0233 -0.091
    endloop
  endfacet
  facet normal 0 0 1
    outer loop
      vertex 46.367 32.4143 -0.091
      vertex 46.1621 32.5854 -0.091
      vertex 43.798 33.4 -0.091
    endloop
  endfacet
  facet normal 0 0 1
    outer loop
      vertex 46.1621 32.5854 -0.091
      vertex 45.9514 32.7402 -0.091
      vertex 44.0602 33.3918 -0.091
    endloop
  endfacet
  facet normal 0 0 1
    outer loop
      vertex 45.9514 32.7402 -0.091
      vertex 44.3166 33.3674 -0.091
      vertex 44.0602 33.3918 -0.091
    endloop
  endfacet
  facet normal 0 0 1
    outer loop
      vertex 45.735 32.8786 -0.091
      vertex 44.3166 33.3674 -0.091
      vertex 45.9514 32.7402 -0.091
    endloop
  endfacet
  facet normal 0 0 1
    outer loop
      vertex 44.5673 33.3267 -0.091
      vertex 44.3166 33.3674 -0.091
      vertex 45.735 32.8786 -0.091
    endloop
  endfacet
  facet normal 0 0 1
    outer loop
      vertex 44.8123 33.2697 -0.091
      vertex 44.5673 33.3267 -0.091
      vertex 45.5129 33.0008 -0.091
    endloop
  endfacet
  facet normal 0 0 1
    outer loop
      vertex 45.0516 33.1963 -0.091
      vertex 44.8123 33.2697 -0.091
      vertex 45.2851 33.1067 -0.091
    endloop
  endfacet
  facet normal 0 0 1
    outer loop
      vertex 44.8123 33.2697 -0.091
      vertex 45.5129 33.0008 -0.091
      vertex 45.2851 33.1067 -0.091
    endloop
  endfacet
  facet normal 0 0 1
    outer loop
      vertex 44.5673 33.3267 -0.091
      vertex 45.735 32.8786 -0.091
      vertex 45.5129 33.0008 -0.091
    endloop
  endfacet
  facet normal 0 0 1
    outer loop
      vertex 46.1621 32.5854 -0.091
      vertex 44.0602 33.3918 -0.091
      vertex 43.798 33.4 -0.091
    endloop
  endfacet
  facet normal 0 0 1
    outer loop
      vertex 47.4048 31.1249 -0.091
      vertex 43.798 33.4 -0.091
      vertex 47.5295 30.8845 -0.091
    endloop
  endfacet
  facet normal 0 0 1
    outer loop
      vertex 43.798 33.4 -0.091
      vertex 47.6395 30.6377 -0.091
      vertex 47.5295 30.8845 -0.091
    endloop
  endfacet
  facet normal 0 0 1
    outer loop
      vertex 47.8154 30.1251 -0.091
      vertex 47.7348 30.3846 -0.091
      vertex 43.798 33.4 -0.091
    endloop
  endfacet
  facet normal 0 0 1
    outer loop
      vertex 47.8154 30.1251 -0.091
      vertex 43.798 33.4 -0.091
      vertex 47.8814 29.8593 -0.091
    endloop
  endfacet
  facet normal 0 0 1
    outer loop
      vertex 43.798 33.4 -0.091
      vertex 47.9327 29.5871 -0.091
      vertex 47.8814 29.8593 -0.091
    endloop
  endfacet
  facet normal 0 0 1
    outer loop
      vertex 47.9694 29.3086 -0.091
      vertex 47.9327 29.5871 -0.091
      vertex 43.798 33.4 -0.091
    endloop
  endfacet
  facet normal 0 0 1
    outer loop
      vertex 47.9913 29.0238 -0.091
      vertex 43.798 33.4 -0.091
      vertex 47.9987 28.7326 -0.091
    endloop
  endfacet
  facet normal 0 0 1
    outer loop
      vertex 43.798 33.4 -0.091
      vertex 43.798 24.0652 -0.091
      vertex 47.9987 28.7326 -0.091
    endloop
  endfacet
  facet normal 0 0 1
    outer loop
      vertex 14.3935 24.0652 -0.091
      vertex 43.798 24.0652 -0.091
      vertex 43.798 33.4 -0.091
    endloop
  endfacet
  facet normal 0 -0 1
    outer loop
      vertex 14.3935 24.0652 -0.091
      vertex 43.798 33.4 -0.091
      vertex 10.1959 33.4 -0.091
    endloop
  endfacet
  facet normal -0 0 1
    outer loop
      vertex 8.25893 32.8786 -0.091
      vertex 8.04256 32.7402 -0.091
      vertex 9.67734 33.3674 -0.091
    endloop
  endfacet
  facet normal 0 0 1
    outer loop
      vertex 8.04256 32.7402 -0.091
      vertex 9.93378 33.3918 -0.091
      vertex 9.67734 33.3674 -0.091
    endloop
  endfacet
  facet normal 0 0 1
    outer loop
      vertex 7.83191 32.5854 -0.091
      vertex 9.93378 33.3918 -0.091
      vertex 8.04256 32.7402 -0.091
    endloop
  endfacet
  facet normal 0 0 1
    outer loop
      vertex 10.1959 33.4 -0.091
      vertex 9.93378 33.3918 -0.091
      vertex 7.83191 32.5854 -0.091
    endloop
  endfacet
  facet normal 0 0 1
    outer loop
      vertex 7.42778 32.2269 -0.091
      vertex 10.1959 33.4 -0.091
      vertex 7.62698 32.4143 -0.091
    endloop
  endfacet
  facet normal 0 0 1
    outer loop
      vertex 7.2343 32.0233 -0.091
      vertex 10.1959 33.4 -0.091
      vertex 7.42778 32.2269 -0.091
    endloop
  endfacet
  facet normal 0 0 1
    outer loop
      vertex 7.05103 31.8082 -0.091
      vertex 10.1959 33.4 -0.091
      vertex 7.2343 32.0233 -0.091
    endloop
  endfacet
  facet normal 0 0 1
    outer loop
      vertex 6.88239 31.5868 -0.091
      vertex 10.1959 33.4 -0.091
      vertex 7.05103 31.8082 -0.091
    endloop
  endfacet
  facet normal 0 0 1
    outer loop
      vertex 6.72844 31.359 -0.091
      vertex 10.1959 33.4 -0.091
      vertex 6.88239 31.5868 -0.091
    endloop
  endfacet
  facet normal 0 0 1
    outer loop
      vertex 6.58913 31.1249 -0.091
      vertex 10.1959 33.4 -0.091
      vertex 6.72844 31.359 -0.091
    endloop
  endfacet
  facet normal -0 0 1
    outer loop
      vertex 6.46449 30.8845 -0.091
      vertex 6.35452 30.6377 -0.091
      vertex 10.1959 33.4 -0.091
    endloop
  endfacet
  facet normal -0 0 1
    outer loop
      vertex 6.35452 30.6377 -0.091
      vertex 6.2592 30.3846 -0.091
      vertex 10.1959 33.4 -0.091
    endloop
  endfacet
  facet normal -0 0 1
    outer loop
      vertex 6.2592 30.3846 -0.091
      vertex 6.17857 30.1251 -0.091
      vertex 10.1959 33.4 -0.091
    endloop
  endfacet
  facet normal -0 0 1
    outer loop
      vertex 6.17857 30.1251 -0.091
      vertex 6.11258 29.8593 -0.091
      vertex 10.1959 33.4 -0.091
    endloop
  endfacet
  facet normal -0 0 1
    outer loop
      vertex 6.11258 29.8593 -0.091
      vertex 6.06126 29.5871 -0.091
      vertex 10.1959 33.4 -0.091
    endloop
  endfacet
  facet normal -0 0 1
    outer loop
      vertex 6.06126 29.5871 -0.091
      vertex 6.02461 29.3086 -0.091
      vertex 10.1959 33.4 -0.091
    endloop
  endfacet
  facet normal 0 0 1
    outer loop
      vertex 10.1959 33.4 -0.091
      vertex 6.00261 29.0238 -0.091
      vertex 5.99527 28.7326 -0.091
    endloop
  endfacet
  facet normal 0 0 1
    outer loop
      vertex 10.1959 33.4 -0.091
      vertex 5.99527 28.7326 -0.091
      vertex 14.3935 24.0652 -0.091
    endloop
  endfacet
  facet normal 0 0 1
    outer loop
      vertex 5.99527 28.7326 -0.091
      vertex 5.99527 13.5636 -0.091
      vertex 14.3935 24.0652 -0.091
    endloop
  endfacet
  facet normal 0 0 1
    outer loop
      vertex 5.99527 13.5636 -0.091
      vertex 14.3935 13.5636 -0.091
      vertex 14.3935 24.0652 -0.091
    endloop
  endfacet
  facet normal 0 0 1
    outer loop
      vertex 14.4099 12.9032 -0.091
      vertex 14.3935 13.5636 -0.091
      vertex 5.99527 13.5636 -0.091
    endloop
  endfacet
  facet normal 0 0 1
    outer loop
      vertex 14.4099 12.9032 -0.091
      vertex 5.99527 13.5636 -0.091
      vertex 6.02623 12.314 -0.091
    endloop
  endfacet
  facet normal 0 0 1
    outer loop
      vertex 14.4099 12.9032 -0.091
      vertex 6.02623 12.314 -0.091
      vertex 14.4591 12.2578 -0.091
    endloop
  endfacet
  facet normal 0 0 1
    outer loop
      vertex 14.4591 12.2578 -0.091
      vertex 6.11906 11.0929 -0.091
      vertex 14.5411 11.6273 -0.091
    endloop
  endfacet
  facet normal -0 0 1
    outer loop
      vertex 6.11906 11.0929 -0.091
      vertex 6.27379 9.90018 -0.091
      vertex 14.5411 11.6273 -0.091
    endloop
  endfacet
  facet normal 0 0 1
    outer loop
      vertex 6.27379 9.90018 -0.091
      vertex 14.6559 11.0118 -0.091
      vertex 14.5411 11.6273 -0.091
    endloop
  endfacet
  facet normal 0 -0 1
    outer loop
      vertex 6.4904 8.73595 -0.091
      vertex 14.6559 11.0118 -0.091
      vertex 6.27379 9.90018 -0.091
    endloop
  endfacet
  facet normal -0 0 1
    outer loop
      vertex 7.97578 4.36349 -0.091
      vertex 8.50185 3.34149 -0.091
      vertex 15.7222 8.15762 -0.091
    endloop
  endfacet
  facet normal -0 0 1
    outer loop
      vertex 8.50185 3.34149 -0.091
      vertex 9.08981 2.34795 -0.091
      vertex 16.0338 7.63155 -0.091
    endloop
  endfacet
  facet normal -0 0 1
    outer loop
      vertex 9.08981 2.34795 -0.091
      vertex 9.73965 1.38286 -0.091
      vertex 16.3783 7.12038 -0.091
    endloop
  endfacet
  facet normal -0 0 1
    outer loop
      vertex 9.73965 1.38286 -0.091
      vertex 10.4514 0.446198 -0.091
      vertex 16.7556 6.62413 -0.091
    endloop
  endfacet
  facet normal 0 0 1
    outer loop
      vertex 10.4514 0.446198 -0.091
      vertex 17.5989 5.68706 -0.091
      vertex 17.1656 6.14281 -0.091
    endloop
  endfacet
  facet normal -0 0 1
    outer loop
      vertex 11.225 -0.461975 -0.091
      vertex 11.4514 -0.699997 -0.091
      vertex 17.5989 5.68706 -0.091
    endloop
  endfacet
  facet normal 0 0 1
    outer loop
      vertex 11.4514 -0.699997 -0.091
      vertex 18.5058 4.88493 -0.091
      vertex 18.0456 5.26776 -0.091
    endloop
  endfacet
  facet normal 0 0 1
    outer loop
      vertex 19.9666 3.9552 -0.091
      vertex 19.4663 4.22865 -0.091
      vertex 11.4514 -0.699997 -0.091
    endloop
  endfacet
  facet normal 0 0 1
    outer loop
      vertex 19.9666 3.9552 -0.091
      vertex 11.4514 -0.699997 -0.091
      vertex 20.4804 3.71822 -0.091
    endloop
  endfacet
  facet normal 0 0 1
    outer loop
      vertex 11.4514 -0.699997 -0.091
      vertex 21.5483 3.35362 -0.091
      vertex 21.0076 3.51768 -0.091
    endloop
  endfacet
  facet normal 0 0 1
    outer loop
      vertex 22.6698 3.13486 -0.091
      vertex 22.1023 3.22601 -0.091
      vertex 11.4514 -0.699997 -0.091
    endloop
  endfacet
  facet normal 0 0 1
    outer loop
      vertex 22.6698 3.13486 -0.091
      vertex 11.4514 -0.699997 -0.091
      vertex 23.2507 3.08017 -0.091
    endloop
  endfacet
  facet normal 0 0 1
    outer loop
      vertex 11.4514 -0.699997 -0.091
      vertex 23.845 3.06194 -0.091
      vertex 23.2507 3.08017 -0.091
    endloop
  endfacet
  facet normal 0 0 1
    outer loop
      vertex 40.6292 -0.699997 -0.091
      vertex 23.845 3.06194 -0.091
      vertex 11.4514 -0.699997 -0.091
    endloop
  endfacet
  facet normal 0.589911 0.807468 0
    outer loop
      vertex 39.3458 0.276855 -0.391
      vertex 40.24 -0.376419 -0.091
      vertex 40.24 -0.376419 -0.391
    endloop
  endfacet
  facet normal 0.589911 0.807468 -0
    outer loop
      vertex 39.3458 0.276855 -0.391
      vertex 39.3458 0.276855 -0.091
      vertex 40.24 -0.376419 -0.091
    endloop
  endfacet
  facet normal 0.536389 0.843971 0
    outer loop
      vertex 38.4261 0.861374 -0.391
      vertex 39.3458 0.276855 -0.091
      vertex 39.3458 0.276855 -0.391
    endloop
  endfacet
  facet normal 0.536389 0.843971 -0
    outer loop
      vertex 38.4261 0.861374 -0.391
      vertex 38.4261 0.861374 -0.091
      vertex 39.3458 0.276855 -0.091
    endloop
  endfacet
  facet normal 0.478919 0.877859 0
    outer loop
      vertex 37.4807 1.37714 -0.391
      vertex 38.4261 0.861374 -0.091
      vertex 38.4261 0.861374 -0.391
    endloop
  endfacet
  facet normal 0.478919 0.877859 -0
    outer loop
      vertex 37.4807 1.37714 -0.391
      vertex 37.4807 1.37714 -0.091
      vertex 38.4261 0.861374 -0.091
    endloop
  endfacet
  facet normal 0.418196 0.908357 0
    outer loop
      vertex 36.5098 1.82413 -0.391
      vertex 37.4807 1.37714 -0.091
      vertex 37.4807 1.37714 -0.391
    endloop
  endfacet
  facet normal 0.418196 0.908357 -0
    outer loop
      vertex 36.5098 1.82413 -0.391
      vertex 36.5098 1.82413 -0.091
      vertex 37.4807 1.37714 -0.091
    endloop
  endfacet
  facet normal 0.354818 0.934936 0
    outer loop
      vertex 35.5132 2.20235 -0.391
      vertex 36.5098 1.82413 -0.091
      vertex 36.5098 1.82413 -0.391
    endloop
  endfacet
  facet normal 0.354818 0.934936 -0
    outer loop
      vertex 35.5132 2.20235 -0.391
      vertex 35.5132 2.20235 -0.091
      vertex 36.5098 1.82413 -0.091
    endloop
  endfacet
  facet normal 0.28977 0.957096 0
    outer loop
      vertex 34.4911 2.5118 -0.391
      vertex 35.5132 2.20235 -0.091
      vertex 35.5132 2.20235 -0.391
    endloop
  endfacet
  facet normal 0.28977 0.957096 -0
    outer loop
      vertex 34.4911 2.5118 -0.391
      vertex 34.4911 2.5118 -0.091
      vertex 35.5132 2.20235 -0.091
    endloop
  endfacet
  facet normal 0.223879 0.974617 0
    outer loop
      vertex 33.4433 2.75249 -0.391
      vertex 34.4911 2.5118 -0.091
      vertex 34.4911 2.5118 -0.391
    endloop
  endfacet
  facet normal 0.223879 0.974617 -0
    outer loop
      vertex 33.4433 2.75249 -0.391
      vertex 33.4433 2.75249 -0.091
      vertex 34.4911 2.5118 -0.091
    endloop
  endfacet
  facet normal 0.158163 0.987413 0
    outer loop
      vertex 32.37 2.92441 -0.391
      vertex 33.4433 2.75249 -0.091
      vertex 33.4433 2.75249 -0.391
    endloop
  endfacet
  facet normal 0.158163 0.987413 -0
    outer loop
      vertex 32.37 2.92441 -0.391
      vertex 32.37 2.92441 -0.091
      vertex 33.4433 2.75249 -0.091
    endloop
  endfacet
  facet normal 0.0934558 0.995623 0
    outer loop
      vertex 31.2711 3.02756 -0.391
      vertex 32.37 2.92441 -0.091
      vertex 32.37 2.92441 -0.391
    endloop
  endfacet
  facet normal 0.0934558 0.995623 -0
    outer loop
      vertex 31.2711 3.02756 -0.391
      vertex 31.2711 3.02756 -0.091
      vertex 32.37 2.92441 -0.091
    endloop
  endfacet
  facet normal 0.0305566 0.999533 0
    outer loop
      vertex 30.1465 3.06194 -0.391
      vertex 31.2711 3.02756 -0.091
      vertex 31.2711 3.02756 -0.391
    endloop
  endfacet
  facet normal 0.0305566 0.999533 -0
    outer loop
      vertex 30.1465 3.06194 -0.391
      vertex 30.1465 3.06194 -0.091
      vertex 31.2711 3.02756 -0.091
    endloop
  endfacet
  facet normal 0 1 0
    outer loop
      vertex 23.845 3.06194 -0.391
      vertex 30.1465 3.06194 -0.091
      vertex 30.1465 3.06194 -0.391
    endloop
  endfacet
  facet normal 0 1 0
    outer loop
      vertex 23.845 3.06194 -0.391
      vertex 23.845 3.06194 -0.091
      vertex 30.1465 3.06194 -0.091
    endloop
  endfacet
  facet normal 0.0306603 0.99953 0
    outer loop
      vertex 23.2507 3.08017 -0.391
      vertex 23.845 3.06194 -0.091
      vertex 23.845 3.06194 -0.391
    endloop
  endfacet
  facet normal 0.0306603 0.99953 -0
    outer loop
      vertex 23.2507 3.08017 -0.391
      vertex 23.2507 3.08017 -0.091
      vertex 23.845 3.06194 -0.091
    endloop
  endfacet
  facet normal 0.0937325 0.995597 0
    outer loop
      vertex 22.6698 3.13486 -0.391
      vertex 23.2507 3.08017 -0.091
      vertex 23.2507 3.08017 -0.391
    endloop
  endfacet
  facet normal 0.0937325 0.995597 -0
    outer loop
      vertex 22.6698 3.13486 -0.391
      vertex 22.6698 3.13486 -0.091
      vertex 23.2507 3.08017 -0.091
    endloop
  endfacet
  facet normal 0.158584 0.987345 0
    outer loop
      vertex 22.1023 3.22601 -0.391
      vertex 22.6698 3.13486 -0.091
      vertex 22.6698 3.13486 -0.391
    endloop
  endfacet
  facet normal 0.158584 0.987345 -0
    outer loop
      vertex 22.1023 3.22601 -0.391
      vertex 22.1023 3.22601 -0.091
      vertex 22.6698 3.13486 -0.091
    endloop
  endfacet
  facet normal 0.224465 0.974482 0
    outer loop
      vertex 21.5483 3.35362 -0.391
      vertex 22.1023 3.22601 -0.091
      vertex 22.1023 3.22601 -0.391
    endloop
  endfacet
  facet normal 0.224465 0.974482 -0
    outer loop
      vertex 21.5483 3.35362 -0.391
      vertex 21.5483 3.35362 -0.091
      vertex 22.1023 3.22601 -0.091
    endloop
  endfacet
  facet normal 0.29035 0.95692 0
    outer loop
      vertex 21.0076 3.51768 -0.391
      vertex 21.5483 3.35362 -0.091
      vertex 21.5483 3.35362 -0.391
    endloop
  endfacet
  facet normal 0.29035 0.95692 -0
    outer loop
      vertex 21.0076 3.51768 -0.391
      vertex 21.0076 3.51768 -0.091
      vertex 21.5483 3.35362 -0.091
    endloop
  endfacet
  facet normal 0.355534 0.934663 0
    outer loop
      vertex 20.4804 3.71822 -0.391
      vertex 21.0076 3.51768 -0.091
      vertex 21.0076 3.51768 -0.391
    endloop
  endfacet
  facet normal 0.355534 0.934663 -0
    outer loop
      vertex 20.4804 3.71822 -0.391
      vertex 20.4804 3.71822 -0.091
      vertex 21.0076 3.51768 -0.091
    endloop
  endfacet
  facet normal 0.418827 0.908066 0
    outer loop
      vertex 19.9666 3.9552 -0.391
      vertex 20.4804 3.71822 -0.091
      vertex 20.4804 3.71822 -0.391
    endloop
  endfacet
  facet normal 0.418827 0.908066 -0
    outer loop
      vertex 19.9666 3.9552 -0.391
      vertex 19.9666 3.9552 -0.091
      vertex 20.4804 3.71822 -0.091
    endloop
  endfacet
  facet normal 0.479608 0.877483 0
    outer loop
      vertex 19.4663 4.22865 -0.391
      vertex 19.9666 3.9552 -0.091
      vertex 19.9666 3.9552 -0.391
    endloop
  endfacet
  facet normal 0.479608 0.877483 -0
    outer loop
      vertex 19.4663 4.22865 -0.391
      vertex 19.4663 4.22865 -0.091
      vertex 19.9666 3.9552 -0.091
    endloop
  endfacet
  facet normal 0.536877 0.843661 0
    outer loop
      vertex 18.9793 4.53856 -0.391
      vertex 19.4663 4.22865 -0.091
      vertex 19.4663 4.22865 -0.391
    endloop
  endfacet
  facet normal 0.536877 0.843661 -0
    outer loop
      vertex 18.9793 4.53856 -0.391
      vertex 18.9793 4.53856 -0.091
      vertex 19.4663 4.22865 -0.091
    endloop
  endfacet
  facet normal 0.590406 0.807106 0
    outer loop
      vertex 18.5058 4.88493 -0.391
      vertex 18.9793 4.53856 -0.091
      vertex 18.9793 4.53856 -0.391
    endloop
  endfacet
  facet normal 0.590406 0.807106 -0
    outer loop
      vertex 18.5058 4.88493 -0.391
      vertex 18.5058 4.88493 -0.091
      vertex 18.9793 4.53856 -0.091
    endloop
  endfacet
  facet normal 0.639524 0.768771 0
    outer loop
      vertex 18.0456 5.26776 -0.391
      vertex 18.5058 4.88493 -0.091
      vertex 18.5058 4.88493 -0.391
    endloop
  endfacet
  facet normal 0.639524 0.768771 -0
    outer loop
      vertex 18.0456 5.26776 -0.391
      vertex 18.0456 5.26776 -0.091
      vertex 18.5058 4.88493 -0.091
    endloop
  endfacet
  facet normal 0.684392 0.729115 0
    outer loop
      vertex 17.5989 5.68706 -0.391
      vertex 18.0456 5.26776 -0.091
      vertex 18.0456 5.26776 -0.391
    endloop
  endfacet
  facet normal 0.684392 0.729115 -0
    outer loop
      vertex 17.5989 5.68706 -0.391
      vertex 17.5989 5.68706 -0.091
      vertex 18.0456 5.26776 -0.091
    endloop
  endfacet
  facet normal 0.724731 0.689032 0
    outer loop
      vertex 17.1656 6.14281 -0.391
      vertex 17.5989 5.68706 -0.091
      vertex 17.5989 5.68706 -0.391
    endloop
  endfacet
  facet normal 0.724731 0.689032 -0
    outer loop
      vertex 17.1656 6.14281 -0.391
      vertex 17.1656 6.14281 -0.091
      vertex 17.5989 5.68706 -0.091
    endloop
  endfacet
  facet normal 0.761254 0.648454 0
    outer loop
      vertex 16.7556 6.62413 -0.391
      vertex 17.1656 6.14281 -0.091
      vertex 17.1656 6.14281 -0.391
    endloop
  endfacet
  facet normal 0.761254 0.648454 -0
    outer loop
      vertex 16.7556 6.62413 -0.391
      vertex 16.7556 6.62413 -0.091
      vertex 17.1656 6.14281 -0.091
    endloop
  endfacet
  facet normal 0.796046 0.605236 0
    outer loop
      vertex 16.3783 7.12038 -0.391
      vertex 16.7556 6.62413 -0.091
      vertex 16.7556 6.62413 -0.391
    endloop
  endfacet
  facet normal 0.796046 0.605236 -0
    outer loop
      vertex 16.3783 7.12038 -0.391
      vertex 16.3783 7.12038 -0.091
      vertex 16.7556 6.62413 -0.091
    endloop
  endfacet
  facet normal 0.829254 0.558871 0
    outer loop
      vertex 16.0338 7.63155 -0.391
      vertex 16.3783 7.12038 -0.091
      vertex 16.3783 7.12038 -0.391
    endloop
  endfacet
  facet normal 0.829254 0.558871 -0
    outer loop
      vertex 16.0338 7.63155 -0.391
      vertex 16.0338 7.63155 -0.091
      vertex 16.3783 7.12038 -0.091
    endloop
  endfacet
  facet normal 0.860396 0.509627 0
    outer loop
      vertex 15.7222 8.15762 -0.391
      vertex 16.0338 7.63155 -0.091
      vertex 16.0338 7.63155 -0.391
    endloop
  endfacet
  facet normal 0.860396 0.509627 -0
    outer loop
      vertex 15.7222 8.15762 -0.391
      vertex 15.7222 8.15762 -0.091
      vertex 16.0338 7.63155 -0.091
    endloop
  endfacet
  facet normal 0.888839 0.45822 0
    outer loop
      vertex 15.4433 8.69862 -0.391
      vertex 15.7222 8.15762 -0.091
      vertex 15.7222 8.15762 -0.391
    endloop
  endfacet
  facet normal 0.888839 0.45822 -0
    outer loop
      vertex 15.4433 8.69862 -0.391
      vertex 15.4433 8.69862 -0.091
      vertex 15.7222 8.15762 -0.091
    endloop
  endfacet
  facet normal 0.914464 0.404667 0
    outer loop
      vertex 15.1973 9.25453 -0.391
      vertex 15.4433 8.69862 -0.091
      vertex 15.4433 8.69862 -0.391
    endloop
  endfacet
  facet normal 0.914464 0.404667 -0
    outer loop
      vertex 15.1973 9.25453 -0.391
      vertex 15.1973 9.25453 -0.091
      vertex 15.4433 8.69862 -0.091
    endloop
  endfacet
  facet normal 0.936739 0.350028 0
    outer loop
      vertex 14.984 9.82536 -0.391
      vertex 15.1973 9.25453 -0.091
      vertex 15.1973 9.25453 -0.391
    endloop
  endfacet
  facet normal 0.936739 0.350028 -0
    outer loop
      vertex 14.984 9.82536 -0.391
      vertex 14.984 9.82536 -0.091
      vertex 15.1973 9.25453 -0.091
    endloop
  endfacet
  facet normal 0.9557 0.294343 0
    outer loop
      vertex 14.8036 10.4111 -0.391
      vertex 14.984 9.82536 -0.091
      vertex 14.984 9.82536 -0.391
    endloop
  endfacet
  facet normal 0.9557 0.294343 -0
    outer loop
      vertex 14.8036 10.4111 -0.391
      vertex 14.8036 10.4111 -0.091
      vertex 14.984 9.82536 -0.091
    endloop
  endfacet
  facet normal 0.971077 0.238768 0
    outer loop
      vertex 14.6559 11.0118 -0.391
      vertex 14.8036 10.4111 -0.091
      vertex 14.8036 10.4111 -0.391
    endloop
  endfacet
  facet normal 0.971077 0.238768 -0
    outer loop
      vertex 14.6559 11.0118 -0.391
      vertex 14.6559 11.0118 -0.091
      vertex 14.8036 10.4111 -0.091
    endloop
  endfacet
  facet normal 0.983047 0.183353 0
    outer loop
      vertex 14.5411 11.6273 -0.391
      vertex 14.6559 11.0118 -0.091
      vertex 14.6559 11.0118 -0.391
    endloop
  endfacet
  facet normal 0.983047 0.183353 -0
    outer loop
      vertex 14.5411 11.6273 -0.391
      vertex 14.5411 11.6273 -0.091
      vertex 14.6559 11.0118 -0.091
    endloop
  endfacet
  facet normal 0.991649 0.128969 0
    outer loop
      vertex 14.4591 12.2578 -0.391
      vertex 14.5411 11.6273 -0.091
      vertex 14.5411 11.6273 -0.391
    endloop
  endfacet
  facet normal 0.991649 0.128969 -0
    outer loop
      vertex 14.4591 12.2578 -0.391
      vertex 14.4591 12.2578 -0.091
      vertex 14.5411 11.6273 -0.091
    endloop
  endfacet
  facet normal 0.997107 0.0760113 0
    outer loop
      vertex 14.4099 12.9032 -0.391
      vertex 14.4591 12.2578 -0.091
      vertex 14.4591 12.2578 -0.391
    endloop
  endfacet
  facet normal 0.997107 0.0760113 -0
    outer loop
      vertex 14.4099 12.9032 -0.391
      vertex 14.4099 12.9032 -0.091
      vertex 14.4591 12.2578 -0.091
    endloop
  endfacet
  facet normal 0.999692 0.0248258 0
    outer loop
      vertex 14.3935 13.5636 -0.391
      vertex 14.4099 12.9032 -0.091
      vertex 14.4099 12.9032 -0.391
    endloop
  endfacet
  facet normal 0.999692 0.0248258 -0
    outer loop
      vertex 14.3935 13.5636 -0.391
      vertex 14.3935 13.5636 -0.091
      vertex 14.4099 12.9032 -0.091
    endloop
  endfacet
  facet normal 1 0 0
    outer loop
      vertex 14.3935 24.0652 -0.391
      vertex 14.3935 13.5636 -0.091
      vertex 14.3935 13.5636 -0.391
    endloop
  endfacet
  facet normal 1 0 -0
    outer loop
      vertex 14.3935 24.0652 -0.391
      vertex 14.3935 24.0652 -0.091
      vertex 14.3935 13.5636 -0.091
    endloop
  endfacet
  facet normal 0 -1 0
    outer loop
      vertex 43.798 24.0652 -0.391
      vertex 14.3935 24.0652 -0.091
      vertex 14.3935 24.0652 -0.391
    endloop
  endfacet
  facet normal 0 -1 0
    outer loop
      vertex 43.798 24.0652 -0.391
      vertex 43.798 24.0652 -0.091
      vertex 14.3935 24.0652 -0.091
    endloop
  endfacet
  facet normal 0.0308777 -0.999523 0
    outer loop
      vertex 44.0602 24.0733 -0.391
      vertex 43.798 24.0652 -0.091
      vertex 43.798 24.0652 -0.391
    endloop
  endfacet
  facet normal 0.0308777 -0.999523 0
    outer loop
      vertex 44.0602 24.0733 -0.391
      vertex 44.0602 24.0733 -0.091
      vertex 43.798 24.0652 -0.091
    endloop
  endfacet
  facet normal 0.0951206 -0.995466 0
    outer loop
      vertex 44.3166 24.0978 -0.391
      vertex 44.0602 24.0733 -0.091
      vertex 44.0602 24.0733 -0.391
    endloop
  endfacet
  facet normal 0.0951206 -0.995466 0
    outer loop
      vertex 44.3166 24.0978 -0.391
      vertex 44.3166 24.0978 -0.091
      vertex 44.0602 24.0733 -0.091
    endloop
  endfacet
  facet normal 0.160247 -0.987077 0
    outer loop
      vertex 44.5673 24.1385 -0.391
      vertex 44.3166 24.0978 -0.091
      vertex 44.3166 24.0978 -0.391
    endloop
  endfacet
  facet normal 0.160247 -0.987077 0
    outer loop
      vertex 44.5673 24.1385 -0.391
      vertex 44.5673 24.1385 -0.091
      vertex 44.3166 24.0978 -0.091
    endloop
  endfacet
  facet normal 0.226978 -0.9739 0
    outer loop
      vertex 44.8123 24.1956 -0.391
      vertex 44.5673 24.1385 -0.091
      vertex 44.5673 24.1385 -0.391
    endloop
  endfacet
  facet normal 0.226978 -0.9739 0
    outer loop
      vertex 44.8123 24.1956 -0.391
      vertex 44.8123 24.1956 -0.091
      vertex 44.5673 24.1385 -0.091
    endloop
  endfacet
  facet normal 0.293244 -0.956038 0
    outer loop
      vertex 45.0516 24.269 -0.391
      vertex 44.8123 24.1956 -0.091
      vertex 44.8123 24.1956 -0.391
    endloop
  endfacet
  facet normal 0.293244 -0.956038 0
    outer loop
      vertex 45.0516 24.269 -0.391
      vertex 45.0516 24.269 -0.091
      vertex 44.8123 24.1956 -0.091
    endloop
  endfacet
  facet normal 0.358256 -0.933624 0
    outer loop
      vertex 45.2851 24.3586 -0.391
      vertex 45.0516 24.269 -0.091
      vertex 45.0516 24.269 -0.391
    endloop
  endfacet
  facet normal 0.358256 -0.933624 0
    outer loop
      vertex 45.2851 24.3586 -0.391
      vertex 45.2851 24.3586 -0.091
      vertex 45.0516 24.269 -0.091
    endloop
  endfacet
  facet normal 0.421883 -0.90665 0
    outer loop
      vertex 45.5129 24.4646 -0.391
      vertex 45.2851 24.3586 -0.091
      vertex 45.2851 24.3586 -0.391
    endloop
  endfacet
  facet normal 0.421883 -0.90665 0
    outer loop
      vertex 45.5129 24.4646 -0.391
      vertex 45.5129 24.4646 -0.091
      vertex 45.2851 24.3586 -0.091
    endloop
  endfacet
  facet normal 0.482055 -0.876141 0
    outer loop
      vertex 45.735 24.5868 -0.391
      vertex 45.5129 24.4646 -0.091
      vertex 45.5129 24.4646 -0.391
    endloop
  endfacet
  facet normal 0.482055 -0.876141 0
    outer loop
      vertex 45.735 24.5868 -0.391
      vertex 45.735 24.5868 -0.091
      vertex 45.5129 24.4646 -0.091
    endloop
  endfacet
  facet normal 0.539341 -0.842088 0
    outer loop
      vertex 45.9514 24.7254 -0.391
      vertex 45.735 24.5868 -0.091
      vertex 45.735 24.5868 -0.391
    endloop
  endfacet
  facet normal 0.539341 -0.842088 0
    outer loop
      vertex 45.9514 24.7254 -0.391
      vertex 45.9514 24.7254 -0.091
      vertex 45.735 24.5868 -0.091
    endloop
  endfacet
  facet normal 0.592076 -0.805882 0
    outer loop
      vertex 46.1621 24.8802 -0.391
      vertex 45.9514 24.7254 -0.091
      vertex 45.9514 24.7254 -0.391
    endloop
  endfacet
  facet normal 0.592076 -0.805882 0
    outer loop
      vertex 46.1621 24.8802 -0.391
      vertex 46.1621 24.8802 -0.091
      vertex 45.9514 24.7254 -0.091
    endloop
  endfacet
  facet normal 0.641178 -0.767392 0
    outer loop
      vertex 46.367 25.0514 -0.391
      vertex 46.1621 24.8802 -0.091
      vertex 46.1621 24.8802 -0.391
    endloop
  endfacet
  facet normal 0.641178 -0.767392 0
    outer loop
      vertex 46.367 25.0514 -0.391
      vertex 46.367 25.0514 -0.091
      vertex 46.1621 24.8802 -0.091
    endloop
  endfacet
  facet normal 0.685205 -0.72835 0
    outer loop
      vertex 46.5662 25.2388 -0.391
      vertex 46.367 25.0514 -0.091
      vertex 46.367 25.0514 -0.391
    endloop
  endfacet
  facet normal 0.685205 -0.72835 0
    outer loop
      vertex 46.5662 25.2388 -0.391
      vertex 46.5662 25.2388 -0.091
      vertex 46.367 25.0514 -0.091
    endloop
  endfacet
  facet normal 0.725195 -0.688544 0
    outer loop
      vertex 46.7597 25.4426 -0.391
      vertex 46.5662 25.2388 -0.091
      vertex 46.5662 25.2388 -0.391
    endloop
  endfacet
  facet normal 0.725195 -0.688544 0
    outer loop
      vertex 46.7597 25.4426 -0.391
      vertex 46.7597 25.4426 -0.091
      vertex 46.5662 25.2388 -0.091
    endloop
  endfacet
  facet normal 0.761004 -0.648748 0
    outer loop
      vertex 46.9429 25.6575 -0.391
      vertex 46.7597 25.4426 -0.091
      vertex 46.7597 25.4426 -0.391
    endloop
  endfacet
  facet normal 0.761004 -0.648748 0
    outer loop
      vertex 46.9429 25.6575 -0.391
      vertex 46.9429 25.6575 -0.091
      vertex 46.7597 25.4426 -0.091
    endloop
  endfacet
  facet normal 0.795407 -0.606076 0
    outer loop
      vertex 47.1116 25.8789 -0.391
      vertex 46.9429 25.6575 -0.091
      vertex 46.9429 25.6575 -0.391
    endloop
  endfacet
  facet normal 0.795407 -0.606076 0
    outer loop
      vertex 47.1116 25.8789 -0.391
      vertex 47.1116 25.8789 -0.091
      vertex 46.9429 25.6575 -0.091
    endloop
  endfacet
  facet normal 0.828507 -0.559979 0
    outer loop
      vertex 47.2655 26.1066 -0.391
      vertex 47.1116 25.8789 -0.091
      vertex 47.1116 25.8789 -0.391
    endloop
  endfacet
  facet normal 0.828507 -0.559979 0
    outer loop
      vertex 47.2655 26.1066 -0.391
      vertex 47.2655 26.1066 -0.091
      vertex 47.1116 25.8789 -0.091
    endloop
  endfacet
  facet normal 0.85927 -0.511523 0
    outer loop
      vertex 47.4048 26.3406 -0.391
      vertex 47.2655 26.1066 -0.091
      vertex 47.2655 26.1066 -0.391
    endloop
  endfacet
  facet normal 0.85927 -0.511523 0
    outer loop
      vertex 47.4048 26.3406 -0.391
      vertex 47.4048 26.3406 -0.091
      vertex 47.2655 26.1066 -0.091
    endloop
  endfacet
  facet normal 0.887604 -0.460608 0
    outer loop
      vertex 47.5295 26.5809 -0.391
      vertex 47.4048 26.3406 -0.091
      vertex 47.4048 26.3406 -0.391
    endloop
  endfacet
  facet normal 0.887604 -0.460608 0
    outer loop
      vertex 47.5295 26.5809 -0.391
      vertex 47.5295 26.5809 -0.091
      vertex 47.4048 26.3406 -0.091
    endloop
  endfacet
  facet normal 0.913384 -0.4071 0
    outer loop
      vertex 47.6395 26.8277 -0.391
      vertex 47.5295 26.5809 -0.091
      vertex 47.5295 26.5809 -0.391
    endloop
  endfacet
  facet normal 0.913384 -0.4071 0
    outer loop
      vertex 47.6395 26.8277 -0.391
      vertex 47.6395 26.8277 -0.091
      vertex 47.5295 26.5809 -0.091
    endloop
  endfacet
  facet normal 0.935857 -0.352379 0
    outer loop
      vertex 47.7348 27.0808 -0.391
      vertex 47.6395 26.8277 -0.091
      vertex 47.6395 26.8277 -0.391
    endloop
  endfacet
  facet normal 0.935857 -0.352379 0
    outer loop
      vertex 47.7348 27.0808 -0.391
      vertex 47.7348 27.0808 -0.091
      vertex 47.6395 26.8277 -0.091
    endloop
  endfacet
  facet normal 0.954963 -0.296723 0
    outer loop
      vertex 47.8154 27.3402 -0.391
      vertex 47.7348 27.0808 -0.091
      vertex 47.7348 27.0808 -0.391
    endloop
  endfacet
  facet normal 0.954963 -0.296723 0
    outer loop
      vertex 47.8154 27.3402 -0.391
      vertex 47.8154 27.3402 -0.091
      vertex 47.7348 27.0808 -0.091
    endloop
  endfacet
  facet normal 0.970528 -0.240989 0
    outer loop
      vertex 47.8814 27.606 -0.391
      vertex 47.8154 27.3402 -0.091
      vertex 47.8154 27.3402 -0.391
    endloop
  endfacet
  facet normal 0.970528 -0.240989 0
    outer loop
      vertex 47.8814 27.606 -0.391
      vertex 47.8814 27.606 -0.091
      vertex 47.8154 27.3402 -0.091
    endloop
  endfacet
  facet normal 0.982688 -0.18527 0
    outer loop
      vertex 47.9327 27.8781 -0.391
      vertex 47.8814 27.606 -0.091
      vertex 47.8814 27.606 -0.391
    endloop
  endfacet
  facet normal 0.982688 -0.18527 0
    outer loop
      vertex 47.9327 27.8781 -0.391
      vertex 47.9327 27.8781 -0.091
      vertex 47.8814 27.606 -0.091
    endloop
  endfacet
  facet normal 0.991429 -0.130648 0
    outer loop
      vertex 47.9694 28.1566 -0.391
      vertex 47.9327 27.8781 -0.091
      vertex 47.9327 27.8781 -0.391
    endloop
  endfacet
  facet normal 0.991429 -0.130648 0
    outer loop
      vertex 47.9694 28.1566 -0.391
      vertex 47.9694 28.1566 -0.091
      vertex 47.9327 27.8781 -0.091
    endloop
  endfacet
  facet normal 0.997057 -0.0766697 0
    outer loop
      vertex 47.9913 28.4414 -0.391
      vertex 47.9694 28.1566 -0.091
      vertex 47.9694 28.1566 -0.391
    endloop
  endfacet
  facet normal 0.997057 -0.0766697 0
    outer loop
      vertex 47.9913 28.4414 -0.391
      vertex 47.9913 28.4414 -0.091
      vertex 47.9694 28.1566 -0.091
    endloop
  endfacet
  facet normal 0.999677 -0.0254039 0
    outer loop
      vertex 47.9987 28.7326 -0.391
      vertex 47.9913 28.4414 -0.091
      vertex 47.9913 28.4414 -0.391
    endloop
  endfacet
  facet normal 0.999677 -0.0254039 0
    outer loop
      vertex 47.9987 28.7326 -0.391
      vertex 47.9987 28.7326 -0.091
      vertex 47.9913 28.4414 -0.091
    endloop
  endfacet
  facet normal 0.999677 0.0254039 0
    outer loop
      vertex 47.9913 29.0238 -0.391
      vertex 47.9987 28.7326 -0.091
      vertex 47.9987 28.7326 -0.391
    endloop
  endfacet
  facet normal 0.999677 0.0254039 -0
    outer loop
      vertex 47.9913 29.0238 -0.391
      vertex 47.9913 29.0238 -0.091
      vertex 47.9987 28.7326 -0.091
    endloop
  endfacet
  facet normal 0.997057 0.0766697 0
    outer loop
      vertex 47.9694 29.3086 -0.391
      vertex 47.9913 29.0238 -0.091
      vertex 47.9913 29.0238 -0.391
    endloop
  endfacet
  facet normal 0.997057 0.0766697 -0
    outer loop
      vertex 47.9694 29.3086 -0.391
      vertex 47.9694 29.3086 -0.091
      vertex 47.9913 29.0238 -0.091
    endloop
  endfacet
  facet normal 0.991429 0.130648 0
    outer loop
      vertex 47.9327 29.5871 -0.391
      vertex 47.9694 29.3086 -0.091
      vertex 47.9694 29.3086 -0.391
    endloop
  endfacet
  facet normal 0.991429 0.130648 -0
    outer loop
      vertex 47.9327 29.5871 -0.391
      vertex 47.9327 29.5871 -0.091
      vertex 47.9694 29.3086 -0.091
    endloop
  endfacet
  facet normal 0.9827 0.185204 0
    outer loop
      vertex 47.8814 29.8593 -0.391
      vertex 47.9327 29.5871 -0.091
      vertex 47.9327 29.5871 -0.391
    endloop
  endfacet
  facet normal 0.9827 0.185204 -0
    outer loop
      vertex 47.8814 29.8593 -0.391
      vertex 47.8814 29.8593 -0.091
      vertex 47.9327 29.5871 -0.091
    endloop
  endfacet
  facet normal 0.970528 0.240989 0
    outer loop
      vertex 47.8154 30.1251 -0.391
      vertex 47.8814 29.8593 -0.091
      vertex 47.8814 29.8593 -0.391
    endloop
  endfacet
  facet normal 0.970528 0.240989 -0
    outer loop
      vertex 47.8154 30.1251 -0.391
      vertex 47.8154 30.1251 -0.091
      vertex 47.8814 29.8593 -0.091
    endloop
  endfacet
  facet normal 0.954996 0.296619 0
    outer loop
      vertex 47.7348 30.3846 -0.391
      vertex 47.8154 30.1251 -0.091
      vertex 47.8154 30.1251 -0.391
    endloop
  endfacet
  facet normal 0.954996 0.296619 -0
    outer loop
      vertex 47.7348 30.3846 -0.391
      vertex 47.7348 30.3846 -0.091
      vertex 47.8154 30.1251 -0.091
    endloop
  endfacet
  facet normal 0.935857 0.352379 0
    outer loop
      vertex 47.6395 30.6377 -0.391
      vertex 47.7348 30.3846 -0.091
      vertex 47.7348 30.3846 -0.391
    endloop
  endfacet
  facet normal 0.935857 0.352379 -0
    outer loop
      vertex 47.6395 30.6377 -0.391
      vertex 47.6395 30.6377 -0.091
      vertex 47.7348 30.3846 -0.091
    endloop
  endfacet
  facet normal 0.913384 0.4071 0
    outer loop
      vertex 47.5295 30.8845 -0.391
      vertex 47.6395 30.6377 -0.091
      vertex 47.6395 30.6377 -0.391
    endloop
  endfacet
  facet normal 0.913384 0.4071 -0
    outer loop
      vertex 47.5295 30.8845 -0.391
      vertex 47.5295 30.8845 -0.091
      vertex 47.6395 30.6377 -0.091
    endloop
  endfacet
  facet normal 0.887682 0.460457 0
    outer loop
      vertex 47.4048 31.1249 -0.391
      vertex 47.5295 30.8845 -0.091
      vertex 47.5295 30.8845 -0.391
    endloop
  endfacet
  facet normal 0.887682 0.460457 -0
    outer loop
      vertex 47.4048 31.1249 -0.391
      vertex 47.4048 31.1249 -0.091
      vertex 47.5295 30.8845 -0.091
    endloop
  endfacet
  facet normal 0.859366 0.511361 0
    outer loop
      vertex 47.2655 31.359 -0.391
      vertex 47.4048 31.1249 -0.091
      vertex 47.4048 31.1249 -0.391
    endloop
  endfacet
  facet normal 0.859366 0.511361 -0
    outer loop
      vertex 47.2655 31.359 -0.391
      vertex 47.2655 31.359 -0.091
      vertex 47.4048 31.1249 -0.091
    endloop
  endfacet
  facet normal 0.828621 0.55981 0
    outer loop
      vertex 47.1116 31.5868 -0.391
      vertex 47.2655 31.359 -0.091
      vertex 47.2655 31.359 -0.391
    endloop
  endfacet
  facet normal 0.828621 0.55981 -0
    outer loop
      vertex 47.1116 31.5868 -0.391
      vertex 47.1116 31.5868 -0.091
      vertex 47.2655 31.359 -0.091
    endloop
  endfacet
  facet normal 0.795407 0.606076 0
    outer loop
      vertex 46.9429 31.8082 -0.391
      vertex 47.1116 31.5868 -0.091
      vertex 47.1116 31.5868 -0.391
    endloop
  endfacet
  facet normal 0.795407 0.606076 -0
    outer loop
      vertex 46.9429 31.8082 -0.391
      vertex 46.9429 31.8082 -0.091
      vertex 47.1116 31.5868 -0.091
    endloop
  endfacet
  facet normal 0.761301 0.648398 0
    outer loop
      vertex 46.7597 32.0233 -0.391
      vertex 46.9429 31.8082 -0.091
      vertex 46.9429 31.8082 -0.391
    endloop
  endfacet
  facet normal 0.761301 0.648398 -0
    outer loop
      vertex 46.7597 32.0233 -0.391
      vertex 46.7597 32.0233 -0.091
      vertex 46.9429 31.8082 -0.091
    endloop
  endfacet
  facet normal 0.724857 0.688899 0
    outer loop
      vertex 46.5662 32.2269 -0.391
      vertex 46.7597 32.0233 -0.091
      vertex 46.7597 32.0233 -0.391
    endloop
  endfacet
  facet normal 0.724857 0.688899 -0
    outer loop
      vertex 46.5662 32.2269 -0.391
      vertex 46.5662 32.2269 -0.091
      vertex 46.7597 32.0233 -0.091
    endloop
  endfacet
  facet normal 0.685205 0.72835 0
    outer loop
      vertex 46.367 32.4143 -0.391
      vertex 46.5662 32.2269 -0.091
      vertex 46.5662 32.2269 -0.391
    endloop
  endfacet
  facet normal 0.685205 0.72835 -0
    outer loop
      vertex 46.367 32.4143 -0.391
      vertex 46.367 32.4143 -0.091
      vertex 46.5662 32.2269 -0.091
    endloop
  endfacet
  facet normal 0.640958 0.767576 0
    outer loop
      vertex 46.1621 32.5854 -0.391
      vertex 46.367 32.4143 -0.091
      vertex 46.367 32.4143 -0.391
    endloop
  endfacet
  facet normal 0.640958 0.767576 -0
    outer loop
      vertex 46.1621 32.5854 -0.391
      vertex 46.1621 32.5854 -0.091
      vertex 46.367 32.4143 -0.091
    endloop
  endfacet
  facet normal 0.592076 0.805882 0
    outer loop
      vertex 45.9514 32.7402 -0.391
      vertex 46.1621 32.5854 -0.091
      vertex 46.1621 32.5854 -0.391
    endloop
  endfacet
  facet normal 0.592076 0.805882 -0
    outer loop
      vertex 45.9514 32.7402 -0.391
      vertex 45.9514 32.7402 -0.091
      vertex 46.1621 32.5854 -0.091
    endloop
  endfacet
  facet normal 0.538789 0.842441 0
    outer loop
      vertex 45.735 32.8786 -0.391
      vertex 45.9514 32.7402 -0.091
      vertex 45.9514 32.7402 -0.391
    endloop
  endfacet
  facet normal 0.538789 0.842441 -0
    outer loop
      vertex 45.735 32.8786 -0.391
      vertex 45.735 32.8786 -0.091
      vertex 45.9514 32.7402 -0.091
    endloop
  endfacet
  facet normal 0.482055 0.876141 0
    outer loop
      vertex 45.5129 33.0008 -0.391
      vertex 45.735 32.8786 -0.091
      vertex 45.735 32.8786 -0.391
    endloop
  endfacet
  facet normal 0.482055 0.876141 -0
    outer loop
      vertex 45.5129 33.0008 -0.391
      vertex 45.5129 33.0008 -0.091
      vertex 45.735 32.8786 -0.091
    endloop
  endfacet
  facet normal 0.421556 0.906803 0
    outer loop
      vertex 45.2851 33.1067 -0.391
      vertex 45.5129 33.0008 -0.091
      vertex 45.5129 33.0008 -0.391
    endloop
  endfacet
  facet normal 0.421556 0.906803 -0
    outer loop
      vertex 45.2851 33.1067 -0.391
      vertex 45.2851 33.1067 -0.091
      vertex 45.5129 33.0008 -0.091
    endloop
  endfacet
  facet normal 0.358256 0.933624 0
    outer loop
      vertex 45.0516 33.1963 -0.391
      vertex 45.2851 33.1067 -0.091
      vertex 45.2851 33.1067 -0.391
    endloop
  endfacet
  facet normal 0.358256 0.933624 -0
    outer loop
      vertex 45.0516 33.1963 -0.391
      vertex 45.0516 33.1963 -0.091
      vertex 45.2851 33.1067 -0.091
    endloop
  endfacet
  facet normal 0.293244 0.956038 0
    outer loop
      vertex 44.8123 33.2697 -0.391
      vertex 45.0516 33.1963 -0.091
      vertex 45.0516 33.1963 -0.391
    endloop
  endfacet
  facet normal 0.293244 0.956038 -0
    outer loop
      vertex 44.8123 33.2697 -0.391
      vertex 44.8123 33.2697 -0.091
      vertex 45.0516 33.1963 -0.091
    endloop
  endfacet
  facet normal 0.226601 0.973988 0
    outer loop
      vertex 44.5673 33.3267 -0.391
      vertex 44.8123 33.2697 -0.091
      vertex 44.8123 33.2697 -0.391
    endloop
  endfacet
  facet normal 0.226601 0.973988 -0
    outer loop
      vertex 44.5673 33.3267 -0.391
      vertex 44.5673 33.3267 -0.091
      vertex 44.8123 33.2697 -0.091
    endloop
  endfacet
  facet normal 0.160247 0.987077 0
    outer loop
      vertex 44.3166 33.3674 -0.391
      vertex 44.5673 33.3267 -0.091
      vertex 44.5673 33.3267 -0.391
    endloop
  endfacet
  facet normal 0.160247 0.987077 -0
    outer loop
      vertex 44.3166 33.3674 -0.391
      vertex 44.3166 33.3674 -0.091
      vertex 44.5673 33.3267 -0.091
    endloop
  endfacet
  facet normal 0.0947358 0.995502 0
    outer loop
      vertex 44.0602 33.3918 -0.391
      vertex 44.3166 33.3674 -0.091
      vertex 44.3166 33.3674 -0.391
    endloop
  endfacet
  facet normal 0.0947358 0.995502 -0
    outer loop
      vertex 44.0602 33.3918 -0.391
      vertex 44.0602 33.3918 -0.091
      vertex 44.3166 33.3674 -0.091
    endloop
  endfacet
  facet normal 0.0312586 0.999511 0
    outer loop
      vertex 43.798 33.4 -0.391
      vertex 44.0602 33.3918 -0.091
      vertex 44.0602 33.3918 -0.391
    endloop
  endfacet
  facet normal 0.0312586 0.999511 -0
    outer loop
      vertex 43.798 33.4 -0.391
      vertex 43.798 33.4 -0.091
      vertex 44.0602 33.3918 -0.091
    endloop
  endfacet
  facet normal 0 1 0
    outer loop
      vertex 10.1959 33.4 -0.391
      vertex 43.798 33.4 -0.091
      vertex 43.798 33.4 -0.391
    endloop
  endfacet
  facet normal 0 1 0
    outer loop
      vertex 10.1959 33.4 -0.391
      vertex 10.1959 33.4 -0.091
      vertex 43.798 33.4 -0.091
    endloop
  endfacet
  facet normal -0.0312681 0.999511 0
    outer loop
      vertex 9.93378 33.3918 -0.391
      vertex 10.1959 33.4 -0.091
      vertex 10.1959 33.4 -0.391
    endloop
  endfacet
  facet normal -0.0312681 0.999511 0
    outer loop
      vertex 9.93378 33.3918 -0.391
      vertex 9.93378 33.3918 -0.091
      vertex 10.1959 33.4 -0.091
    endloop
  endfacet
  facet normal -0.0947212 0.995504 0
    outer loop
      vertex 9.67734 33.3674 -0.391
      vertex 9.93378 33.3918 -0.091
      vertex 9.93378 33.3918 -0.391
    endloop
  endfacet
  facet normal -0.0947212 0.995504 0
    outer loop
      vertex 9.67734 33.3674 -0.391
      vertex 9.67734 33.3674 -0.091
      vertex 9.93378 33.3918 -0.091
    endloop
  endfacet
  facet normal -0.160247 0.987077 0
    outer loop
      vertex 9.42664 33.3267 -0.391
      vertex 9.67734 33.3674 -0.091
      vertex 9.67734 33.3674 -0.391
    endloop
  endfacet
  facet normal -0.160247 0.987077 0
    outer loop
      vertex 9.42664 33.3267 -0.391
      vertex 9.42664 33.3267 -0.091
      vertex 9.67734 33.3674 -0.091
    endloop
  endfacet
  facet normal -0.226619 0.973984 0
    outer loop
      vertex 9.18166 33.2697 -0.391
      vertex 9.42664 33.3267 -0.091
      vertex 9.42664 33.3267 -0.391
    endloop
  endfacet
  facet normal -0.226619 0.973984 0
    outer loop
      vertex 9.18166 33.2697 -0.391
      vertex 9.18166 33.2697 -0.091
      vertex 9.42664 33.3267 -0.091
    endloop
  endfacet
  facet normal -0.293266 0.956031 0
    outer loop
      vertex 8.94238 33.1963 -0.391
      vertex 9.18166 33.2697 -0.091
      vertex 9.18166 33.2697 -0.391
    endloop
  endfacet
  facet normal -0.293266 0.956031 0
    outer loop
      vertex 8.94238 33.1963 -0.391
      vertex 8.94238 33.1963 -0.091
      vertex 9.18166 33.2697 -0.091
    endloop
  endfacet
  facet normal -0.358215 0.933639 0
    outer loop
      vertex 8.70885 33.1067 -0.391
      vertex 8.94238 33.1963 -0.091
      vertex 8.94238 33.1963 -0.391
    endloop
  endfacet
  facet normal -0.358215 0.933639 0
    outer loop
      vertex 8.70885 33.1067 -0.391
      vertex 8.70885 33.1067 -0.091
      vertex 8.94238 33.1963 -0.091
    endloop
  endfacet
  facet normal -0.421525 0.906817 0
    outer loop
      vertex 8.48103 33.0008 -0.391
      vertex 8.70885 33.1067 -0.091
      vertex 8.70885 33.1067 -0.391
    endloop
  endfacet
  facet normal -0.421525 0.906817 0
    outer loop
      vertex 8.48103 33.0008 -0.391
      vertex 8.48103 33.0008 -0.091
      vertex 8.70885 33.1067 -0.091
    endloop
  endfacet
  facet normal -0.482055 0.876141 0
    outer loop
      vertex 8.25893 32.8786 -0.391
      vertex 8.48103 33.0008 -0.091
      vertex 8.48103 33.0008 -0.391
    endloop
  endfacet
  facet normal -0.482055 0.876141 0
    outer loop
      vertex 8.25893 32.8786 -0.391
      vertex 8.25893 32.8786 -0.091
      vertex 8.48103 33.0008 -0.091
    endloop
  endfacet
  facet normal -0.538842 0.842407 0
    outer loop
      vertex 8.04256 32.7402 -0.391
      vertex 8.25893 32.8786 -0.091
      vertex 8.25893 32.8786 -0.391
    endloop
  endfacet
  facet normal -0.538842 0.842407 0
    outer loop
      vertex 8.04256 32.7402 -0.391
      vertex 8.04256 32.7402 -0.091
      vertex 8.25893 32.8786 -0.091
    endloop
  endfacet
  facet normal -0.592168 0.805815 0
    outer loop
      vertex 7.83191 32.5854 -0.391
      vertex 8.04256 32.7402 -0.091
      vertex 8.04256 32.7402 -0.391
    endloop
  endfacet
  facet normal -0.592168 0.805815 0
    outer loop
      vertex 7.83191 32.5854 -0.391
      vertex 7.83191 32.5854 -0.091
      vertex 8.04256 32.7402 -0.091
    endloop
  endfacet
  facet normal -0.640903 0.767622 0
    outer loop
      vertex 7.62698 32.4143 -0.391
      vertex 7.83191 32.5854 -0.091
      vertex 7.83191 32.5854 -0.391
    endloop
  endfacet
  facet normal -0.640903 0.767622 0
    outer loop
      vertex 7.62698 32.4143 -0.391
      vertex 7.62698 32.4143 -0.091
      vertex 7.83191 32.5854 -0.091
    endloop
  endfacet
  facet normal -0.685205 0.72835 0
    outer loop
      vertex 7.42778 32.2269 -0.391
      vertex 7.62698 32.4143 -0.091
      vertex 7.62698 32.4143 -0.391
    endloop
  endfacet
  facet normal -0.685205 0.72835 0
    outer loop
      vertex 7.42778 32.2269 -0.391
      vertex 7.42778 32.2269 -0.091
      vertex 7.62698 32.4143 -0.091
    endloop
  endfacet
  facet normal -0.724893 0.688862 0
    outer loop
      vertex 7.2343 32.0233 -0.391
      vertex 7.42778 32.2269 -0.091
      vertex 7.42778 32.2269 -0.391
    endloop
  endfacet
  facet normal -0.724893 0.688862 0
    outer loop
      vertex 7.2343 32.0233 -0.391
      vertex 7.2343 32.0233 -0.091
      vertex 7.42778 32.2269 -0.091
    endloop
  endfacet
  facet normal -0.761179 0.648542 0
    outer loop
      vertex 7.05103 31.8082 -0.391
      vertex 7.2343 32.0233 -0.091
      vertex 7.2343 32.0233 -0.391
    endloop
  endfacet
  facet normal -0.761179 0.648542 0
    outer loop
      vertex 7.05103 31.8082 -0.391
      vertex 7.05103 31.8082 -0.091
      vertex 7.2343 32.0233 -0.091
    endloop
  endfacet
  facet normal -0.795511 0.605939 0
    outer loop
      vertex 6.88239 31.5868 -0.391
      vertex 7.05103 31.8082 -0.091
      vertex 7.05103 31.8082 -0.391
    endloop
  endfacet
  facet normal -0.795511 0.605939 0
    outer loop
      vertex 6.88239 31.5868 -0.391
      vertex 6.88239 31.5868 -0.091
      vertex 7.05103 31.8082 -0.091
    endloop
  endfacet
  facet normal -0.828537 0.559935 0
    outer loop
      vertex 6.72844 31.359 -0.391
      vertex 6.88239 31.5868 -0.091
      vertex 6.88239 31.5868 -0.391
    endloop
  endfacet
  facet normal -0.828537 0.559935 0
    outer loop
      vertex 6.72844 31.359 -0.391
      vertex 6.72844 31.359 -0.091
      vertex 6.88239 31.5868 -0.091
    endloop
  endfacet
  facet normal -0.85935 0.511388 0
    outer loop
      vertex 6.58913 31.1249 -0.391
      vertex 6.72844 31.359 -0.091
      vertex 6.72844 31.359 -0.391
    endloop
  endfacet
  facet normal -0.85935 0.511388 0
    outer loop
      vertex 6.58913 31.1249 -0.391
      vertex 6.58913 31.1249 -0.091
      vertex 6.72844 31.359 -0.091
    endloop
  endfacet
  facet normal -0.887772 0.460283 0
    outer loop
      vertex 6.46449 30.8845 -0.391
      vertex 6.58913 31.1249 -0.091
      vertex 6.58913 31.1249 -0.391
    endloop
  endfacet
  facet normal -0.887772 0.460283 0
    outer loop
      vertex 6.46449 30.8845 -0.391
      vertex 6.46449 30.8845 -0.091
      vertex 6.58913 31.1249 -0.091
    endloop
  endfacet
  facet normal -0.913425 0.407007 0
    outer loop
      vertex 6.35452 30.6377 -0.391
      vertex 6.46449 30.8845 -0.091
      vertex 6.46449 30.8845 -0.391
    endloop
  endfacet
  facet normal -0.913425 0.407007 0
    outer loop
      vertex 6.35452 30.6377 -0.391
      vertex 6.35452 30.6377 -0.091
      vertex 6.46449 30.8845 -0.091
    endloop
  endfacet
  facet normal -0.935833 0.352444 0
    outer loop
      vertex 6.2592 30.3846 -0.391
      vertex 6.35452 30.6377 -0.091
      vertex 6.35452 30.6377 -0.391
    endloop
  endfacet
  facet normal -0.935833 0.352444 0
    outer loop
      vertex 6.2592 30.3846 -0.391
      vertex 6.2592 30.3846 -0.091
      vertex 6.35452 30.6377 -0.091
    endloop
  endfacet
  facet normal -0.954965 0.29672 0
    outer loop
      vertex 6.17857 30.1251 -0.391
      vertex 6.2592 30.3846 -0.091
      vertex 6.2592 30.3846 -0.391
    endloop
  endfacet
  facet normal -0.954965 0.29672 0
    outer loop
      vertex 6.17857 30.1251 -0.391
      vertex 6.17857 30.1251 -0.091
      vertex 6.2592 30.3846 -0.091
    endloop
  endfacet
  facet normal -0.970536 0.240954 0
    outer loop
      vertex 6.11258 29.8593 -0.391
      vertex 6.17857 30.1251 -0.091
      vertex 6.17857 30.1251 -0.391
    endloop
  endfacet
  facet normal -0.970536 0.240954 0
    outer loop
      vertex 6.11258 29.8593 -0.391
      vertex 6.11258 29.8593 -0.091
      vertex 6.17857 30.1251 -0.091
    endloop
  endfacet
  facet normal -0.982687 0.185274 0
    outer loop
      vertex 6.06126 29.5871 -0.391
      vertex 6.11258 29.8593 -0.091
      vertex 6.11258 29.8593 -0.391
    endloop
  endfacet
  facet normal -0.982687 0.185274 0
    outer loop
      vertex 6.06126 29.5871 -0.391
      vertex 6.06126 29.5871 -0.091
      vertex 6.11258 29.8593 -0.091
    endloop
  endfacet
  facet normal -0.991452 0.130473 0
    outer loop
      vertex 6.02461 29.3086 -0.391
      vertex 6.06126 29.5871 -0.091
      vertex 6.06126 29.5871 -0.391
    endloop
  endfacet
  facet normal -0.991452 0.130473 0
    outer loop
      vertex 6.02461 29.3086 -0.391
      vertex 6.02461 29.3086 -0.091
      vertex 6.06126 29.5871 -0.091
    endloop
  endfacet
  facet normal -0.99703 0.0770177 0
    outer loop
      vertex 6.00261 29.0238 -0.391
      vertex 6.02461 29.3086 -0.091
      vertex 6.02461 29.3086 -0.391
    endloop
  endfacet
  facet normal -0.99703 0.0770177 0
    outer loop
      vertex 6.00261 29.0238 -0.391
      vertex 6.00261 29.0238 -0.091
      vertex 6.02461 29.3086 -0.091
    endloop
  endfacet
  facet normal -0.999682 0.025198 0
    outer loop
      vertex 5.99527 28.7326 -0.391
      vertex 6.00261 29.0238 -0.091
      vertex 6.00261 29.0238 -0.391
    endloop
  endfacet
  facet normal -0.999682 0.025198 0
    outer loop
      vertex 5.99527 28.7326 -0.391
      vertex 5.99527 28.7326 -0.091
      vertex 6.00261 29.0238 -0.091
    endloop
  endfacet
  facet normal -1 0 0
    outer loop
      vertex 5.99527 13.5636 -0.391
      vertex 5.99527 28.7326 -0.091
      vertex 5.99527 28.7326 -0.391
    endloop
  endfacet
  facet normal -1 0 0
    outer loop
      vertex 5.99527 13.5636 -0.391
      vertex 5.99527 13.5636 -0.091
      vertex 5.99527 28.7326 -0.091
    endloop
  endfacet
  facet normal -0.999693 -0.0247683 0
    outer loop
      vertex 6.02623 12.314 -0.391
      vertex 5.99527 13.5636 -0.091
      vertex 5.99527 13.5636 -0.391
    endloop
  endfacet
  facet normal -0.999693 -0.0247683 0
    outer loop
      vertex 6.02623 12.314 -0.391
      vertex 6.02623 12.314 -0.091
      vertex 5.99527 13.5636 -0.091
    endloop
  endfacet
  facet normal -0.997123 -0.0758029 0
    outer loop
      vertex 6.11906 11.0929 -0.391
      vertex 6.02623 12.314 -0.091
      vertex 6.02623 12.314 -0.391
    endloop
  endfacet
  facet normal -0.997123 -0.0758029 0
    outer loop
      vertex 6.11906 11.0929 -0.391
      vertex 6.11906 11.0929 -0.091
      vertex 6.02623 12.314 -0.091
    endloop
  endfacet
  facet normal -0.99169 -0.128651 0
    outer loop
      vertex 6.27379 9.90018 -0.391
      vertex 6.11906 11.0929 -0.091
      vertex 6.11906 11.0929 -0.391
    endloop
  endfacet
  facet normal -0.99169 -0.128651 0
    outer loop
      vertex 6.27379 9.90018 -0.391
      vertex 6.27379 9.90018 -0.091
      vertex 6.11906 11.0929 -0.091
    endloop
  endfacet
  facet normal -0.983129 -0.182915 0
    outer loop
      vertex 6.4904 8.73595 -0.391
      vertex 6.27379 9.90018 -0.091
      vertex 6.27379 9.90018 -0.391
    endloop
  endfacet
  facet normal -0.983129 -0.182915 0
    outer loop
      vertex 6.4904 8.73595 -0.391
      vertex 6.4904 8.73595 -0.091
      vertex 6.27379 9.90018 -0.091
    endloop
  endfacet
  facet normal -0.971225 -0.238165 0
    outer loop
      vertex 6.76892 7.60016 -0.391
      vertex 6.4904 8.73595 -0.091
      vertex 6.4904 8.73595 -0.391
    endloop
  endfacet
  facet normal -0.971225 -0.238165 0
    outer loop
      vertex 6.76892 7.60016 -0.391
      vertex 6.76892 7.60016 -0.091
      vertex 6.4904 8.73595 -0.091
    endloop
  endfacet
  facet normal -0.95586 -0.293823 0
    outer loop
      vertex 7.10931 6.49281 -0.391
      vertex 6.76892 7.60016 -0.091
      vertex 6.76892 7.60016 -0.391
    endloop
  endfacet
  facet normal -0.95586 -0.293823 0
    outer loop
      vertex 7.10931 6.49281 -0.391
      vertex 7.10931 6.49281 -0.091
      vertex 6.76892 7.60016 -0.091
    endloop
  endfacet
  facet normal -0.936979 -0.349387 0
    outer loop
      vertex 7.51161 5.41393 -0.391
      vertex 7.10931 6.49281 -0.091
      vertex 7.10931 6.49281 -0.391
    endloop
  endfacet
  facet normal -0.936979 -0.349387 0
    outer loop
      vertex 7.51161 5.41393 -0.391
      vertex 7.51161 5.41393 -0.091
      vertex 7.10931 6.49281 -0.091
    endloop
  endfacet
  facet normal -0.914679 -0.40418 0
    outer loop
      vertex 7.97578 4.36349 -0.391
      vertex 7.51161 5.41393 -0.091
      vertex 7.51161 5.41393 -0.391
    endloop
  endfacet
  facet normal -0.914679 -0.40418 0
    outer loop
      vertex 7.97578 4.36349 -0.391
      vertex 7.97578 4.36349 -0.091
      vertex 7.51161 5.41393 -0.091
    endloop
  endfacet
  facet normal -0.889121 -0.457671 0
    outer loop
      vertex 8.50185 3.34149 -0.391
      vertex 7.97578 4.36349 -0.091
      vertex 7.97578 4.36349 -0.391
    endloop
  endfacet
  facet normal -0.889121 -0.457671 0
    outer loop
      vertex 8.50185 3.34149 -0.391
      vertex 8.50185 3.34149 -0.091
      vertex 7.97578 4.36349 -0.091
    endloop
  endfacet
  facet normal -0.860597 -0.509287 0
    outer loop
      vertex 9.08981 2.34795 -0.391
      vertex 8.50185 3.34149 -0.091
      vertex 8.50185 3.34149 -0.391
    endloop
  endfacet
  facet normal -0.860597 -0.509287 0
    outer loop
      vertex 9.08981 2.34795 -0.391
      vertex 9.08981 2.34795 -0.091
      vertex 8.50185 3.34149 -0.091
    endloop
  endfacet
  facet normal -0.829484 -0.55853 0
    outer loop
      vertex 9.73965 1.38286 -0.391
      vertex 9.08981 2.34795 -0.091
      vertex 9.08981 2.34795 -0.391
    endloop
  endfacet
  facet normal -0.829484 -0.55853 0
    outer loop
      vertex 9.73965 1.38286 -0.391
      vertex 9.73965 1.38286 -0.091
      vertex 9.08981 2.34795 -0.091
    endloop
  endfacet
  facet normal -0.796209 -0.605022 0
    outer loop
      vertex 10.4514 0.446198 -0.391
      vertex 9.73965 1.38286 -0.091
      vertex 9.73965 1.38286 -0.391
    endloop
  endfacet
  facet normal -0.796209 -0.605022 0
    outer loop
      vertex 10.4514 0.446198 -0.391
      vertex 10.4514 0.446198 -0.091
      vertex 9.73965 1.38286 -0.091
    endloop
  endfacet
  facet normal -0.761255 -0.648452 0
    outer loop
      vertex 11.225 -0.461975 -0.391
      vertex 10.4514 0.446198 -0.091
      vertex 10.4514 0.446198 -0.391
    endloop
  endfacet
  facet normal -0.761255 -0.648452 0
    outer loop
      vertex 11.225 -0.461975 -0.391
      vertex 11.225 -0.461975 -0.091
      vertex 10.4514 0.446198 -0.091
    endloop
  endfacet
  facet normal -0.724575 -0.689196 0
    outer loop
      vertex 11.4514 -0.699997 -0.391
      vertex 11.225 -0.461975 -0.091
      vertex 11.225 -0.461975 -0.391
    endloop
  endfacet
  facet normal -0.724575 -0.689196 0
    outer loop
      vertex 11.4514 -0.699997 -0.391
      vertex 11.4514 -0.699997 -0.091
      vertex 11.225 -0.461975 -0.091
    endloop
  endfacet
  facet normal 0 -1 0
    outer loop
      vertex 40.6292 -0.699997 -0.391
      vertex 11.4514 -0.699997 -0.091
      vertex 11.4514 -0.699997 -0.391
    endloop
  endfacet
  facet normal 0 -1 0
    outer loop
      vertex 40.6292 -0.699997 -0.391
      vertex 40.6292 -0.699997 -0.091
      vertex 11.4514 -0.699997 -0.091
    endloop
  endfacet
  facet normal 0.639303 0.768955 0
    outer loop
      vertex 40.24 -0.376419 -0.391
      vertex 40.6292 -0.699997 -0.091
      vertex 40.6292 -0.699997 -0.391
    endloop
  endfacet
  facet normal 0.639303 0.768955 -0
    outer loop
      vertex 40.24 -0.376419 -0.391
      vertex 40.24 -0.376419 -0.091
      vertex 40.6292 -0.699997 -0.091
    endloop
  endfacet
endsolid OpenSCAD_Model
