solid OpenSCAD_Model
  facet normal 0 0 -1
    outer loop
      vertex 43.6178 -0.212936 -0.391
      vertex 43.6838 -0.478745 -0.391
      vertex 43.7255 -0.699997 -0.391
    endloop
  endfacet
  facet normal 0 0 -1
    outer loop
      vertex 43.2073 0.786896 -0.391
      vertex 39.6011 3.06194 -0.391
      vertex 43.068 1.021 -0.391
    endloop
  endfacet
  facet normal 0 0 -1
    outer loop
      vertex 39.6011 3.06194 -0.391
      vertex 42.914 1.24876 -0.391
      vertex 43.068 1.021 -0.391
    endloop
  endfacet
  facet normal 0 0 -1
    outer loop
      vertex 39.6011 3.06194 -0.391
      vertex 42.7454 1.47017 -0.391
      vertex 42.914 1.24876 -0.391
    endloop
  endfacet
  facet normal 0 0 -1
    outer loop
      vertex 43.3319 0.546448 -0.391
      vertex 39.6011 3.06194 -0.391
      vertex 43.2073 0.786896 -0.391
    endloop
  endfacet
  facet normal 0 0 -1
    outer loop
      vertex 42.7454 1.47017 -0.391
      vertex 39.6011 3.06194 -0.391
      vertex 42.5621 1.68526 -0.391
    endloop
  endfacet
  facet normal 0 0 -1
    outer loop
      vertex 39.6011 3.06194 -0.391
      vertex 42.1694 2.07626 -0.391
      vertex 42.3686 1.8889 -0.391
    endloop
  endfacet
  facet normal -0 -0 -1
    outer loop
      vertex 39.8632 3.05379 -0.391
      vertex 41.9645 2.24733 -0.391
      vertex 39.6011 3.06194 -0.391
    endloop
  endfacet
  facet normal -0 -0 -1
    outer loop
      vertex 41.5376 2.54059 -0.391
      vertex 41.7539 2.4021 -0.391
      vertex 40.1195 3.02936 -0.391
    endloop
  endfacet
  facet normal 0 0 -1
    outer loop
      vertex 41.3155 2.66278 -0.391
      vertex 40.6151 2.93159 -0.391
      vertex 41.0878 2.76868 -0.391
    endloop
  endfacet
  facet normal 0 0 -1
    outer loop
      vertex 41.0878 2.76868 -0.391
      vertex 40.6151 2.93159 -0.391
      vertex 40.8543 2.85829 -0.391
    endloop
  endfacet
  facet normal 0 0 -1
    outer loop
      vertex 41.3155 2.66278 -0.391
      vertex 40.3701 2.98862 -0.391
      vertex 40.6151 2.93159 -0.391
    endloop
  endfacet
  facet normal -0 -0 -1
    outer loop
      vertex 41.3155 2.66278 -0.391
      vertex 41.5376 2.54059 -0.391
      vertex 40.3701 2.98862 -0.391
    endloop
  endfacet
  facet normal -0 -0 -1
    outer loop
      vertex 40.3701 2.98862 -0.391
      vertex 41.5376 2.54059 -0.391
      vertex 40.1195 3.02936 -0.391
    endloop
  endfacet
  facet normal -0 -0 -1
    outer loop
      vertex 40.1195 3.02936 -0.391
      vertex 41.7539 2.4021 -0.391
      vertex 39.8632 3.05379 -0.391
    endloop
  endfacet
  facet normal 0 0 -1
    outer loop
      vertex 39.8632 3.05379 -0.391
      vertex 41.7539 2.4021 -0.391
      vertex 41.9645 2.24733 -0.391
    endloop
  endfacet
  facet normal 0 0 -1
    outer loop
      vertex 39.6011 3.06194 -0.391
      vertex 41.9645 2.24733 -0.391
      vertex 42.1694 2.07626 -0.391
    endloop
  endfacet
  facet normal 0 0 -1
    outer loop
      vertex 42.5621 1.68526 -0.391
      vertex 39.6011 3.06194 -0.391
      vertex 42.3686 1.8889 -0.391
    endloop
  endfacet
  facet normal -0 -0 -1
    outer loop
      vertex 43.3319 0.546448 -0.391
      vertex 43.4419 0.299652 -0.391
      vertex 39.6011 3.06194 -0.391
    endloop
  endfacet
  facet normal 0 0 -1
    outer loop
      vertex 39.6011 3.06194 -0.391
      vertex 43.4419 0.299652 -0.391
      vertex 43.5372 0.046524 -0.391
    endloop
  endfacet
  facet normal 0 0 -1
    outer loop
      vertex 43.6178 -0.212936 -0.391
      vertex 39.6011 3.06194 -0.391
      vertex 43.5372 0.046524 -0.391
    endloop
  endfacet
  facet normal -0 -0 -1
    outer loop
      vertex 43.6178 -0.212936 -0.391
      vertex 43.7255 -0.699997 -0.391
      vertex 39.6011 3.06194 -0.391
    endloop
  endfacet
  facet normal -0 -0 -1
    outer loop
      vertex 39.6011 3.06194 -0.391
      vertex 43.7255 -0.699997 -0.391
      vertex 29.4772 3.06194 -0.391
    endloop
  endfacet
  facet normal 0 -0 -1
    outer loop
      vertex 11.083 1.24876 -0.391
      vertex 14.396 3.06194 -0.391
      vertex 10.9291 1.021 -0.391
    endloop
  endfacet
  facet normal 0 -0 -1
    outer loop
      vertex 8.94238 33.1963 -0.391
      vertex 9.18166 33.2697 -0.391
      vertex 8.70885 33.1067 -0.391
    endloop
  endfacet
  facet normal 0 0 -1
    outer loop
      vertex 45.2882 24.3586 -0.391
      vertex 45.0547 24.269 -0.391
      vertex 44.8154 24.1956 -0.391
    endloop
  endfacet
  facet normal 0 0 -1
    outer loop
      vertex 44.8154 24.1956 -0.391
      vertex 45.516 24.4646 -0.391
      vertex 45.2882 24.3586 -0.391
    endloop
  endfacet
  facet normal -0 0 -1
    outer loop
      vertex 44.8154 24.1956 -0.391
      vertex 44.5704 24.1385 -0.391
      vertex 45.516 24.4646 -0.391
    endloop
  endfacet
  facet normal -0 0 -1
    outer loop
      vertex 45.516 24.4646 -0.391
      vertex 44.5704 24.1385 -0.391
      vertex 45.7381 24.5868 -0.391
    endloop
  endfacet
  facet normal 0 0 -1
    outer loop
      vertex 45.7381 24.5868 -0.391
      vertex 44.5704 24.1385 -0.391
      vertex 44.3197 24.0978 -0.391
    endloop
  endfacet
  facet normal 0 0 -1
    outer loop
      vertex 45.9545 24.7254 -0.391
      vertex 45.7381 24.5868 -0.391
      vertex 44.3197 24.0978 -0.391
    endloop
  endfacet
  facet normal 0 0 -1
    outer loop
      vertex 44.0633 24.0733 -0.391
      vertex 45.9545 24.7254 -0.391
      vertex 44.3197 24.0978 -0.391
    endloop
  endfacet
  facet normal 0 0 -1
    outer loop
      vertex 44.0633 24.0733 -0.391
      vertex 46.1651 24.8802 -0.391
      vertex 45.9545 24.7254 -0.391
    endloop
  endfacet
  facet normal -0 0 -1
    outer loop
      vertex 44.0633 24.0733 -0.391
      vertex 43.8011 24.0652 -0.391
      vertex 46.1651 24.8802 -0.391
    endloop
  endfacet
  facet normal -0 0 -1
    outer loop
      vertex 46.1651 24.8802 -0.391
      vertex 43.8011 24.0652 -0.391
      vertex 46.3701 25.0514 -0.391
    endloop
  endfacet
  facet normal -0 0 -1
    outer loop
      vertex 46.3701 25.0514 -0.391
      vertex 43.8011 24.0652 -0.391
      vertex 46.5693 25.2388 -0.391
    endloop
  endfacet
  facet normal -0 0 -1
    outer loop
      vertex 46.5693 25.2388 -0.391
      vertex 43.8011 24.0652 -0.391
      vertex 46.7628 25.4426 -0.391
    endloop
  endfacet
  facet normal -0 0 -1
    outer loop
      vertex 46.7628 25.4426 -0.391
      vertex 43.8011 24.0652 -0.391
      vertex 46.946 25.6575 -0.391
    endloop
  endfacet
  facet normal -0 0 -1
    outer loop
      vertex 46.946 25.6575 -0.391
      vertex 43.8011 24.0652 -0.391
      vertex 47.1147 25.8789 -0.391
    endloop
  endfacet
  facet normal -0 0 -1
    outer loop
      vertex 47.1147 25.8789 -0.391
      vertex 43.8011 24.0652 -0.391
      vertex 47.2686 26.1066 -0.391
    endloop
  endfacet
  facet normal -0 0 -1
    outer loop
      vertex 47.2686 26.1066 -0.391
      vertex 43.8011 24.0652 -0.391
      vertex 47.4079 26.3406 -0.391
    endloop
  endfacet
  facet normal -0 0 -1
    outer loop
      vertex 47.4079 26.3406 -0.391
      vertex 43.8011 24.0652 -0.391
      vertex 47.5326 26.5809 -0.391
    endloop
  endfacet
  facet normal -0 0 -1
    outer loop
      vertex 47.5326 26.5809 -0.391
      vertex 43.8011 24.0652 -0.391
      vertex 47.6425 26.8277 -0.391
    endloop
  endfacet
  facet normal -0 0 -1
    outer loop
      vertex 47.6425 26.8277 -0.391
      vertex 43.8011 24.0652 -0.391
      vertex 47.7378 27.0808 -0.391
    endloop
  endfacet
  facet normal -0 0 -1
    outer loop
      vertex 47.7378 27.0808 -0.391
      vertex 43.8011 24.0652 -0.391
      vertex 47.8185 27.3402 -0.391
    endloop
  endfacet
  facet normal -0 0 -1
    outer loop
      vertex 47.8185 27.3402 -0.391
      vertex 43.8011 24.0652 -0.391
      vertex 47.8845 27.606 -0.391
    endloop
  endfacet
  facet normal -0 0 -1
    outer loop
      vertex 47.8845 27.606 -0.391
      vertex 43.8011 24.0652 -0.391
      vertex 47.9358 27.8781 -0.391
    endloop
  endfacet
  facet normal -0 0 -1
    outer loop
      vertex 47.9358 27.8781 -0.391
      vertex 43.8011 24.0652 -0.391
      vertex 47.9725 28.1566 -0.391
    endloop
  endfacet
  facet normal -0 0 -1
    outer loop
      vertex 47.9725 28.1566 -0.391
      vertex 43.8011 24.0652 -0.391
      vertex 47.9945 28.4414 -0.391
    endloop
  endfacet
  facet normal -0 0 -1
    outer loop
      vertex 47.9945 28.4414 -0.391
      vertex 43.8011 24.0652 -0.391
      vertex 48.0018 28.7326 -0.391
    endloop
  endfacet
  facet normal 0 0 -1
    outer loop
      vertex 43.8005 33.4 -0.391
      vertex 47.9724 29.3086 -0.391
      vertex 47.9944 29.0238 -0.391
    endloop
  endfacet
  facet normal -0 -0 -1
    outer loop
      vertex 47.6423 30.6377 -0.391
      vertex 47.7377 30.3846 -0.391
      vertex 43.8005 33.4 -0.391
    endloop
  endfacet
  facet normal 0 0 -1
    outer loop
      vertex 43.8005 33.4 -0.391
      vertex 46.3694 32.4143 -0.391
      vertex 46.5687 32.2269 -0.391
    endloop
  endfacet
  facet normal 0 0 -1
    outer loop
      vertex 43.8005 33.4 -0.391
      vertex 46.9455 31.8082 -0.391
      vertex 47.1142 31.5868 -0.391
    endloop
  endfacet
  facet normal -0 -0 -1
    outer loop
      vertex 47.2683 31.359 -0.391
      vertex 47.4076 31.1249 -0.391
      vertex 43.8005 33.4 -0.391
    endloop
  endfacet
  facet normal 0 0 -1
    outer loop
      vertex 47.2683 31.359 -0.391
      vertex 43.8005 33.4 -0.391
      vertex 47.1142 31.5868 -0.391
    endloop
  endfacet
  facet normal 0 0 -1
    outer loop
      vertex 46.9455 31.8082 -0.391
      vertex 43.8005 33.4 -0.391
      vertex 46.7621 32.0233 -0.391
    endloop
  endfacet
  facet normal 0 0 -1
    outer loop
      vertex 46.7621 32.0233 -0.391
      vertex 43.8005 33.4 -0.391
      vertex 46.5687 32.2269 -0.391
    endloop
  endfacet
  facet normal 0 0 -1
    outer loop
      vertex 43.8005 33.4 -0.391
      vertex 46.1645 32.5854 -0.391
      vertex 46.3694 32.4143 -0.391
    endloop
  endfacet
  facet normal 0 0 -1
    outer loop
      vertex 44.0627 33.3918 -0.391
      vertex 45.9539 32.7402 -0.391
      vertex 46.1645 32.5854 -0.391
    endloop
  endfacet
  facet normal 0 0 -1
    outer loop
      vertex 44.0627 33.3918 -0.391
      vertex 44.3191 33.3674 -0.391
      vertex 45.9539 32.7402 -0.391
    endloop
  endfacet
  facet normal 0 0 -1
    outer loop
      vertex 45.9539 32.7402 -0.391
      vertex 44.3191 33.3674 -0.391
      vertex 45.7375 32.8786 -0.391
    endloop
  endfacet
  facet normal 0 0 -1
    outer loop
      vertex 45.7375 32.8786 -0.391
      vertex 44.3191 33.3674 -0.391
      vertex 44.5698 33.3267 -0.391
    endloop
  endfacet
  facet normal 0 0 -1
    outer loop
      vertex 45.5154 33.0008 -0.391
      vertex 44.5698 33.3267 -0.391
      vertex 44.8148 33.2697 -0.391
    endloop
  endfacet
  facet normal 0 0 -1
    outer loop
      vertex 45.2876 33.1067 -0.391
      vertex 44.8148 33.2697 -0.391
      vertex 45.0541 33.1963 -0.391
    endloop
  endfacet
  facet normal -0 -0 -1
    outer loop
      vertex 45.2876 33.1067 -0.391
      vertex 45.5154 33.0008 -0.391
      vertex 44.8148 33.2697 -0.391
    endloop
  endfacet
  facet normal -0 -0 -1
    outer loop
      vertex 45.5154 33.0008 -0.391
      vertex 45.7375 32.8786 -0.391
      vertex 44.5698 33.3267 -0.391
    endloop
  endfacet
  facet normal 0 0 -1
    outer loop
      vertex 43.8005 33.4 -0.391
      vertex 44.0627 33.3918 -0.391
      vertex 46.1645 32.5854 -0.391
    endloop
  endfacet
  facet normal 0 0 -1
    outer loop
      vertex 47.5323 30.8845 -0.391
      vertex 43.8005 33.4 -0.391
      vertex 47.4076 31.1249 -0.391
    endloop
  endfacet
  facet normal -0 -0 -1
    outer loop
      vertex 47.5323 30.8845 -0.391
      vertex 47.6423 30.6377 -0.391
      vertex 43.8005 33.4 -0.391
    endloop
  endfacet
  facet normal 0 0 -1
    outer loop
      vertex 43.8005 33.4 -0.391
      vertex 47.7377 30.3846 -0.391
      vertex 47.8184 30.1251 -0.391
    endloop
  endfacet
  facet normal 0 0 -1
    outer loop
      vertex 47.8844 29.8593 -0.391
      vertex 43.8005 33.4 -0.391
      vertex 47.8184 30.1251 -0.391
    endloop
  endfacet
  facet normal -0 -0 -1
    outer loop
      vertex 47.8844 29.8593 -0.391
      vertex 47.9358 29.5871 -0.391
      vertex 43.8005 33.4 -0.391
    endloop
  endfacet
  facet normal 0 0 -1
    outer loop
      vertex 43.8005 33.4 -0.391
      vertex 47.9358 29.5871 -0.391
      vertex 47.9724 29.3086 -0.391
    endloop
  endfacet
  facet normal 0 0 -1
    outer loop
      vertex 48.0018 28.7326 -0.391
      vertex 43.8005 33.4 -0.391
      vertex 47.9944 29.0238 -0.391
    endloop
  endfacet
  facet normal -0 0 -1
    outer loop
      vertex 48.0018 28.7326 -0.391
      vertex 43.8011 24.0652 -0.391
      vertex 43.8005 33.4 -0.391
    endloop
  endfacet
  facet normal 0 -0 -1
    outer loop
      vertex 43.8005 33.4 -0.391
      vertex 43.8011 24.0652 -0.391
      vertex 17.8412 24.0652 -0.391
    endloop
  endfacet
  facet normal 0 0 -1
    outer loop
      vertex 10.1959 33.4 -0.391
      vertex 43.8005 33.4 -0.391
      vertex 17.8412 24.0652 -0.391
    endloop
  endfacet
  facet normal 0 0 -1
    outer loop
      vertex 8.48103 33.0008 -0.391
      vertex 8.70885 33.1067 -0.391
      vertex 9.18166 33.2697 -0.391
    endloop
  endfacet
  facet normal 0 0 -1
    outer loop
      vertex 9.42664 33.3267 -0.391
      vertex 8.48103 33.0008 -0.391
      vertex 9.18166 33.2697 -0.391
    endloop
  endfacet
  facet normal 0 0 -1
    outer loop
      vertex 9.42664 33.3267 -0.391
      vertex 8.25893 32.8786 -0.391
      vertex 8.48103 33.0008 -0.391
    endloop
  endfacet
  facet normal 0 -0 -1
    outer loop
      vertex 9.42664 33.3267 -0.391
      vertex 9.67734 33.3674 -0.391
      vertex 8.25893 32.8786 -0.391
    endloop
  endfacet
  facet normal 0 -0 -1
    outer loop
      vertex 8.25893 32.8786 -0.391
      vertex 9.67734 33.3674 -0.391
      vertex 8.04256 32.7402 -0.391
    endloop
  endfacet
  facet normal 0 0 -1
    outer loop
      vertex 8.04256 32.7402 -0.391
      vertex 9.67734 33.3674 -0.391
      vertex 9.93378 33.3918 -0.391
    endloop
  endfacet
  facet normal 0 0 -1
    outer loop
      vertex 7.83191 32.5854 -0.391
      vertex 8.04256 32.7402 -0.391
      vertex 9.93378 33.3918 -0.391
    endloop
  endfacet
  facet normal 0 0 -1
    outer loop
      vertex 10.1959 33.4 -0.391
      vertex 7.83191 32.5854 -0.391
      vertex 9.93378 33.3918 -0.391
    endloop
  endfacet
  facet normal 0 0 -1
    outer loop
      vertex 10.1959 33.4 -0.391
      vertex 7.62698 32.4143 -0.391
      vertex 7.83191 32.5854 -0.391
    endloop
  endfacet
  facet normal 0 0 -1
    outer loop
      vertex 10.1959 33.4 -0.391
      vertex 7.42778 32.2269 -0.391
      vertex 7.62698 32.4143 -0.391
    endloop
  endfacet
  facet normal 0 0 -1
    outer loop
      vertex 10.1959 33.4 -0.391
      vertex 7.2343 32.0233 -0.391
      vertex 7.42778 32.2269 -0.391
    endloop
  endfacet
  facet normal 0 0 -1
    outer loop
      vertex 10.1959 33.4 -0.391
      vertex 7.05103 31.8082 -0.391
      vertex 7.2343 32.0233 -0.391
    endloop
  endfacet
  facet normal 0 0 -1
    outer loop
      vertex 10.1959 33.4 -0.391
      vertex 6.88239 31.5868 -0.391
      vertex 7.05103 31.8082 -0.391
    endloop
  endfacet
  facet normal 0 0 -1
    outer loop
      vertex 10.1959 33.4 -0.391
      vertex 6.72844 31.359 -0.391
      vertex 6.88239 31.5868 -0.391
    endloop
  endfacet
  facet normal 0 0 -1
    outer loop
      vertex 10.1959 33.4 -0.391
      vertex 6.58913 31.1249 -0.391
      vertex 6.72844 31.359 -0.391
    endloop
  endfacet
  facet normal 0 0 -1
    outer loop
      vertex 10.1959 33.4 -0.391
      vertex 6.46449 30.8845 -0.391
      vertex 6.58913 31.1249 -0.391
    endloop
  endfacet
  facet normal 0 0 -1
    outer loop
      vertex 10.1959 33.4 -0.391
      vertex 6.35452 30.6377 -0.391
      vertex 6.46449 30.8845 -0.391
    endloop
  endfacet
  facet normal 0 0 -1
    outer loop
      vertex 10.1959 33.4 -0.391
      vertex 6.2592 30.3846 -0.391
      vertex 6.35452 30.6377 -0.391
    endloop
  endfacet
  facet normal 0 0 -1
    outer loop
      vertex 10.1959 33.4 -0.391
      vertex 6.17857 30.1251 -0.391
      vertex 6.2592 30.3846 -0.391
    endloop
  endfacet
  facet normal 0 0 -1
    outer loop
      vertex 10.1959 33.4 -0.391
      vertex 6.11258 29.8593 -0.391
      vertex 6.17857 30.1251 -0.391
    endloop
  endfacet
  facet normal 0 0 -1
    outer loop
      vertex 10.1959 33.4 -0.391
      vertex 6.06126 29.5871 -0.391
      vertex 6.11258 29.8593 -0.391
    endloop
  endfacet
  facet normal 0 0 -1
    outer loop
      vertex 10.1959 33.4 -0.391
      vertex 6.02461 29.3086 -0.391
      vertex 6.06126 29.5871 -0.391
    endloop
  endfacet
  facet normal 0 0 -1
    outer loop
      vertex 10.1959 33.4 -0.391
      vertex 6.00261 29.0238 -0.391
      vertex 6.02461 29.3086 -0.391
    endloop
  endfacet
  facet normal 0 0 -1
    outer loop
      vertex 10.1959 33.4 -0.391
      vertex 5.99527 28.7326 -0.391
      vertex 6.00261 29.0238 -0.391
    endloop
  endfacet
  facet normal 0 0 -1
    outer loop
      vertex 10.1959 33.4 -0.391
      vertex 6.00523 28.4333 -0.391
      vertex 5.99527 28.7326 -0.391
    endloop
  endfacet
  facet normal 0 0 -1
    outer loop
      vertex 10.1959 33.4 -0.391
      vertex 6.03506 28.124 -0.391
      vertex 6.00523 28.4333 -0.391
    endloop
  endfacet
  facet normal 0 0 -1
    outer loop
      vertex 10.1959 33.4 -0.391
      vertex 6.08478 27.8047 -0.391
      vertex 6.03506 28.124 -0.391
    endloop
  endfacet
  facet normal 0 0 -1
    outer loop
      vertex 10.1959 33.4 -0.391
      vertex 6.15439 27.4756 -0.391
      vertex 6.08478 27.8047 -0.391
    endloop
  endfacet
  facet normal 0 0 -1
    outer loop
      vertex 10.1959 33.4 -0.391
      vertex 6.24388 27.1364 -0.391
      vertex 6.15439 27.4756 -0.391
    endloop
  endfacet
  facet normal 0 0 -1
    outer loop
      vertex 10.1959 33.4 -0.391
      vertex 6.35326 26.7874 -0.391
      vertex 6.24388 27.1364 -0.391
    endloop
  endfacet
  facet normal 0 0 -1
    outer loop
      vertex 10.1959 33.4 -0.391
      vertex 6.48253 26.4283 -0.391
      vertex 6.35326 26.7874 -0.391
    endloop
  endfacet
  facet normal 0 0 -1
    outer loop
      vertex 10.1959 33.4 -0.391
      vertex 6.63168 26.0593 -0.391
      vertex 6.48253 26.4283 -0.391
    endloop
  endfacet
  facet normal 0 0 -1
    outer loop
      vertex 10.1959 33.4 -0.391
      vertex 6.80074 25.6804 -0.391
      vertex 6.63168 26.0593 -0.391
    endloop
  endfacet
  facet normal 0 0 -1
    outer loop
      vertex 10.1959 33.4 -0.391
      vertex 6.98965 25.2915 -0.391
      vertex 6.80074 25.6804 -0.391
    endloop
  endfacet
  facet normal 0 0 -1
    outer loop
      vertex 10.1959 33.4 -0.391
      vertex 7.19849 24.8927 -0.391
      vertex 6.98965 25.2915 -0.391
    endloop
  endfacet
  facet normal 0 0 -1
    outer loop
      vertex 10.1959 33.4 -0.391
      vertex 7.42719 24.4839 -0.391
      vertex 7.19849 24.8927 -0.391
    endloop
  endfacet
  facet normal 0 -0 -1
    outer loop
      vertex 10.1959 33.4 -0.391
      vertex 17.8412 24.0652 -0.391
      vertex 7.42719 24.4839 -0.391
    endloop
  endfacet
  facet normal 0 0 -1
    outer loop
      vertex 7.42719 24.4839 -0.391
      vertex 17.8412 24.0652 -0.391
      vertex 7.67578 24.0652 -0.391
    endloop
  endfacet
  facet normal 0 0 -1
    outer loop
      vertex 7.67578 24.0652 -0.391
      vertex 17.8412 24.0652 -0.391
      vertex 19.3112 3.06194 -0.391
    endloop
  endfacet
  facet normal 0 0 -1
    outer loop
      vertex 12.9093 2.76868 -0.391
      vertex 13.1428 2.85829 -0.391
      vertex 13.382 2.93159 -0.391
    endloop
  endfacet
  facet normal 0 0 -1
    outer loop
      vertex 19.3112 3.06194 -0.391
      vertex 17.8412 24.0652 -0.391
      vertex 29.4772 3.06194 -0.391
    endloop
  endfacet
  facet normal 0 0 -1
    outer loop
      vertex 12.6815 2.66278 -0.391
      vertex 12.9093 2.76868 -0.391
      vertex 13.382 2.93159 -0.391
    endloop
  endfacet
  facet normal 0 0 -1
    outer loop
      vertex 13.6269 2.98862 -0.391
      vertex 12.6815 2.66278 -0.391
      vertex 13.382 2.93159 -0.391
    endloop
  endfacet
  facet normal 0 0 -1
    outer loop
      vertex 13.6269 2.98862 -0.391
      vertex 12.4595 2.54059 -0.391
      vertex 12.6815 2.66278 -0.391
    endloop
  endfacet
  facet normal 0 -0 -1
    outer loop
      vertex 13.6269 2.98862 -0.391
      vertex 13.8775 3.02936 -0.391
      vertex 12.4595 2.54059 -0.391
    endloop
  endfacet
  facet normal 0 -0 -1
    outer loop
      vertex 12.4595 2.54059 -0.391
      vertex 13.8775 3.02936 -0.391
      vertex 12.2431 2.4021 -0.391
    endloop
  endfacet
  facet normal 0 0 -1
    outer loop
      vertex 12.2431 2.4021 -0.391
      vertex 13.8775 3.02936 -0.391
      vertex 14.1339 3.05379 -0.391
    endloop
  endfacet
  facet normal 0 0 -1
    outer loop
      vertex 12.0325 2.24733 -0.391
      vertex 12.2431 2.4021 -0.391
      vertex 14.1339 3.05379 -0.391
    endloop
  endfacet
  facet normal 0 0 -1
    outer loop
      vertex 14.396 3.06194 -0.391
      vertex 12.0325 2.24733 -0.391
      vertex 14.1339 3.05379 -0.391
    endloop
  endfacet
  facet normal 0 0 -1
    outer loop
      vertex 14.396 3.06194 -0.391
      vertex 11.8276 2.07626 -0.391
      vertex 12.0325 2.24733 -0.391
    endloop
  endfacet
  facet normal 0 0 -1
    outer loop
      vertex 14.396 3.06194 -0.391
      vertex 11.6284 1.8889 -0.391
      vertex 11.8276 2.07626 -0.391
    endloop
  endfacet
  facet normal 0 0 -1
    outer loop
      vertex 14.396 3.06194 -0.391
      vertex 11.435 1.68526 -0.391
      vertex 11.6284 1.8889 -0.391
    endloop
  endfacet
  facet normal 0 0 -1
    outer loop
      vertex 14.396 3.06194 -0.391
      vertex 11.2517 1.47017 -0.391
      vertex 11.435 1.68526 -0.391
    endloop
  endfacet
  facet normal 0 0 -1
    outer loop
      vertex 14.396 3.06194 -0.391
      vertex 11.083 1.24876 -0.391
      vertex 11.2517 1.47017 -0.391
    endloop
  endfacet
  facet normal 0 0 -1
    outer loop
      vertex 10.7898 0.786896 -0.391
      vertex 10.9291 1.021 -0.391
      vertex 14.396 3.06194 -0.391
    endloop
  endfacet
  facet normal 0 0 -1
    outer loop
      vertex 10.6651 0.546448 -0.391
      vertex 10.7898 0.786896 -0.391
      vertex 14.396 3.06194 -0.391
    endloop
  endfacet
  facet normal 0 0 -1
    outer loop
      vertex 10.5552 0.299652 -0.391
      vertex 10.6651 0.546448 -0.391
      vertex 14.396 3.06194 -0.391
    endloop
  endfacet
  facet normal 0 0 -1
    outer loop
      vertex 10.4599 0.046524 -0.391
      vertex 10.5552 0.299652 -0.391
      vertex 14.396 3.06194 -0.391
    endloop
  endfacet
  facet normal 0 0 -1
    outer loop
      vertex 10.3792 -0.212936 -0.391
      vertex 10.4599 0.046524 -0.391
      vertex 14.396 3.06194 -0.391
    endloop
  endfacet
  facet normal 0 -0 -1
    outer loop
      vertex 10.3132 -0.478745 -0.391
      vertex 10.3792 -0.212936 -0.391
      vertex 10.2715 -0.699997 -0.391
    endloop
  endfacet
  facet normal 0 0 -1
    outer loop
      vertex 10.2715 -0.699997 -0.391
      vertex 10.3792 -0.212936 -0.391
      vertex 14.396 3.06194 -0.391
    endloop
  endfacet
  facet normal -0 0 -1
    outer loop
      vertex 19.3112 3.06194 -0.391
      vertex 10.2715 -0.699997 -0.391
      vertex 14.396 3.06194 -0.391
    endloop
  endfacet
  facet normal 0 -0 -1
    outer loop
      vertex 19.3112 3.06194 -0.391
      vertex 29.4772 3.06194 -0.391
      vertex 10.2715 -0.699997 -0.391
    endloop
  endfacet
  facet normal 0 0 -1
    outer loop
      vertex 10.2715 -0.699997 -0.391
      vertex 29.4772 3.06194 -0.391
      vertex 43.7255 -0.699997 -0.391
    endloop
  endfacet
  facet normal 0 0 1
    outer loop
      vertex 43.7255 -0.699997 -0.091
      vertex 43.6838 -0.478745 -0.091
      vertex 43.6178 -0.212936 -0.091
    endloop
  endfacet
  facet normal 0 0 1
    outer loop
      vertex 43.068 1.021 -0.091
      vertex 39.6011 3.06194 -0.091
      vertex 43.2073 0.786896 -0.091
    endloop
  endfacet
  facet normal 0 0 1
    outer loop
      vertex 43.068 1.021 -0.091
      vertex 42.914 1.24876 -0.091
      vertex 39.6011 3.06194 -0.091
    endloop
  endfacet
  facet normal 0 0 1
    outer loop
      vertex 42.914 1.24876 -0.091
      vertex 42.7454 1.47017 -0.091
      vertex 39.6011 3.06194 -0.091
    endloop
  endfacet
  facet normal 0 0 1
    outer loop
      vertex 43.2073 0.786896 -0.091
      vertex 39.6011 3.06194 -0.091
      vertex 43.3319 0.546448 -0.091
    endloop
  endfacet
  facet normal 0 0 1
    outer loop
      vertex 42.5621 1.68526 -0.091
      vertex 39.6011 3.06194 -0.091
      vertex 42.7454 1.47017 -0.091
    endloop
  endfacet
  facet normal 0 0 1
    outer loop
      vertex 42.3686 1.8889 -0.091
      vertex 42.1694 2.07626 -0.091
      vertex 39.6011 3.06194 -0.091
    endloop
  endfacet
  facet normal 0 0 1
    outer loop
      vertex 39.6011 3.06194 -0.091
      vertex 41.9645 2.24733 -0.091
      vertex 39.8632 3.05379 -0.091
    endloop
  endfacet
  facet normal 0 0 1
    outer loop
      vertex 40.1195 3.02936 -0.091
      vertex 41.7539 2.4021 -0.091
      vertex 41.5376 2.54059 -0.091
    endloop
  endfacet
  facet normal 0 0 1
    outer loop
      vertex 41.0878 2.76868 -0.091
      vertex 40.6151 2.93159 -0.091
      vertex 41.3155 2.66278 -0.091
    endloop
  endfacet
  facet normal 0 0 1
    outer loop
      vertex 40.8543 2.85829 -0.091
      vertex 40.6151 2.93159 -0.091
      vertex 41.0878 2.76868 -0.091
    endloop
  endfacet
  facet normal 0 0 1
    outer loop
      vertex 40.6151 2.93159 -0.091
      vertex 40.3701 2.98862 -0.091
      vertex 41.3155 2.66278 -0.091
    endloop
  endfacet
  facet normal 0 0 1
    outer loop
      vertex 40.3701 2.98862 -0.091
      vertex 41.5376 2.54059 -0.091
      vertex 41.3155 2.66278 -0.091
    endloop
  endfacet
  facet normal 0 0 1
    outer loop
      vertex 40.1195 3.02936 -0.091
      vertex 41.5376 2.54059 -0.091
      vertex 40.3701 2.98862 -0.091
    endloop
  endfacet
  facet normal 0 0 1
    outer loop
      vertex 39.8632 3.05379 -0.091
      vertex 41.7539 2.4021 -0.091
      vertex 40.1195 3.02936 -0.091
    endloop
  endfacet
  facet normal 0 0 1
    outer loop
      vertex 41.9645 2.24733 -0.091
      vertex 41.7539 2.4021 -0.091
      vertex 39.8632 3.05379 -0.091
    endloop
  endfacet
  facet normal 0 0 1
    outer loop
      vertex 42.1694 2.07626 -0.091
      vertex 41.9645 2.24733 -0.091
      vertex 39.6011 3.06194 -0.091
    endloop
  endfacet
  facet normal 0 0 1
    outer loop
      vertex 42.3686 1.8889 -0.091
      vertex 39.6011 3.06194 -0.091
      vertex 42.5621 1.68526 -0.091
    endloop
  endfacet
  facet normal 0 0 1
    outer loop
      vertex 39.6011 3.06194 -0.091
      vertex 43.4419 0.299652 -0.091
      vertex 43.3319 0.546448 -0.091
    endloop
  endfacet
  facet normal 0 0 1
    outer loop
      vertex 43.5372 0.046524 -0.091
      vertex 43.4419 0.299652 -0.091
      vertex 39.6011 3.06194 -0.091
    endloop
  endfacet
  facet normal 0 0 1
    outer loop
      vertex 43.5372 0.046524 -0.091
      vertex 39.6011 3.06194 -0.091
      vertex 43.6178 -0.212936 -0.091
    endloop
  endfacet
  facet normal 0 0 1
    outer loop
      vertex 39.6011 3.06194 -0.091
      vertex 43.7255 -0.699997 -0.091
      vertex 43.6178 -0.212936 -0.091
    endloop
  endfacet
  facet normal -0 0 1
    outer loop
      vertex 29.4772 3.06194 -0.091
      vertex 43.7255 -0.699997 -0.091
      vertex 39.6011 3.06194 -0.091
    endloop
  endfacet
  facet normal 0 0 1
    outer loop
      vertex 10.9291 1.021 -0.091
      vertex 14.396 3.06194 -0.091
      vertex 11.083 1.24876 -0.091
    endloop
  endfacet
  facet normal 0 0 1
    outer loop
      vertex 8.70885 33.1067 -0.091
      vertex 9.18166 33.2697 -0.091
      vertex 8.94238 33.1963 -0.091
    endloop
  endfacet
  facet normal 0 0 1
    outer loop
      vertex 44.8154 24.1956 -0.091
      vertex 45.0547 24.269 -0.091
      vertex 45.2882 24.3586 -0.091
    endloop
  endfacet
  facet normal 0 -0 1
    outer loop
      vertex 45.2882 24.3586 -0.091
      vertex 45.516 24.4646 -0.091
      vertex 44.8154 24.1956 -0.091
    endloop
  endfacet
  facet normal 0 0 1
    outer loop
      vertex 45.516 24.4646 -0.091
      vertex 44.5704 24.1385 -0.091
      vertex 44.8154 24.1956 -0.091
    endloop
  endfacet
  facet normal 0 0 1
    outer loop
      vertex 45.7381 24.5868 -0.091
      vertex 44.5704 24.1385 -0.091
      vertex 45.516 24.4646 -0.091
    endloop
  endfacet
  facet normal 0 0 1
    outer loop
      vertex 44.3197 24.0978 -0.091
      vertex 44.5704 24.1385 -0.091
      vertex 45.7381 24.5868 -0.091
    endloop
  endfacet
  facet normal 0 0 1
    outer loop
      vertex 44.3197 24.0978 -0.091
      vertex 45.7381 24.5868 -0.091
      vertex 45.9545 24.7254 -0.091
    endloop
  endfacet
  facet normal 0 -0 1
    outer loop
      vertex 44.3197 24.0978 -0.091
      vertex 45.9545 24.7254 -0.091
      vertex 44.0633 24.0733 -0.091
    endloop
  endfacet
  facet normal 0 -0 1
    outer loop
      vertex 45.9545 24.7254 -0.091
      vertex 46.1651 24.8802 -0.091
      vertex 44.0633 24.0733 -0.091
    endloop
  endfacet
  facet normal 0 0 1
    outer loop
      vertex 46.1651 24.8802 -0.091
      vertex 43.8011 24.0652 -0.091
      vertex 44.0633 24.0733 -0.091
    endloop
  endfacet
  facet normal 0 0 1
    outer loop
      vertex 46.3701 25.0514 -0.091
      vertex 43.8011 24.0652 -0.091
      vertex 46.1651 24.8802 -0.091
    endloop
  endfacet
  facet normal 0 0 1
    outer loop
      vertex 46.5693 25.2388 -0.091
      vertex 43.8011 24.0652 -0.091
      vertex 46.3701 25.0514 -0.091
    endloop
  endfacet
  facet normal 0 0 1
    outer loop
      vertex 46.7628 25.4426 -0.091
      vertex 43.8011 24.0652 -0.091
      vertex 46.5693 25.2388 -0.091
    endloop
  endfacet
  facet normal 0 0 1
    outer loop
      vertex 46.946 25.6575 -0.091
      vertex 43.8011 24.0652 -0.091
      vertex 46.7628 25.4426 -0.091
    endloop
  endfacet
  facet normal 0 0 1
    outer loop
      vertex 47.1147 25.8789 -0.091
      vertex 43.8011 24.0652 -0.091
      vertex 46.946 25.6575 -0.091
    endloop
  endfacet
  facet normal 0 0 1
    outer loop
      vertex 47.2686 26.1066 -0.091
      vertex 43.8011 24.0652 -0.091
      vertex 47.1147 25.8789 -0.091
    endloop
  endfacet
  facet normal 0 0 1
    outer loop
      vertex 47.4079 26.3406 -0.091
      vertex 43.8011 24.0652 -0.091
      vertex 47.2686 26.1066 -0.091
    endloop
  endfacet
  facet normal 0 0 1
    outer loop
      vertex 47.5326 26.5809 -0.091
      vertex 43.8011 24.0652 -0.091
      vertex 47.4079 26.3406 -0.091
    endloop
  endfacet
  facet normal 0 0 1
    outer loop
      vertex 47.6425 26.8277 -0.091
      vertex 43.8011 24.0652 -0.091
      vertex 47.5326 26.5809 -0.091
    endloop
  endfacet
  facet normal 0 0 1
    outer loop
      vertex 47.7378 27.0808 -0.091
      vertex 43.8011 24.0652 -0.091
      vertex 47.6425 26.8277 -0.091
    endloop
  endfacet
  facet normal 0 0 1
    outer loop
      vertex 47.8185 27.3402 -0.091
      vertex 43.8011 24.0652 -0.091
      vertex 47.7378 27.0808 -0.091
    endloop
  endfacet
  facet normal 0 0 1
    outer loop
      vertex 47.8845 27.606 -0.091
      vertex 43.8011 24.0652 -0.091
      vertex 47.8185 27.3402 -0.091
    endloop
  endfacet
  facet normal 0 0 1
    outer loop
      vertex 47.9358 27.8781 -0.091
      vertex 43.8011 24.0652 -0.091
      vertex 47.8845 27.606 -0.091
    endloop
  endfacet
  facet normal 0 0 1
    outer loop
      vertex 47.9725 28.1566 -0.091
      vertex 43.8011 24.0652 -0.091
      vertex 47.9358 27.8781 -0.091
    endloop
  endfacet
  facet normal 0 0 1
    outer loop
      vertex 47.9945 28.4414 -0.091
      vertex 43.8011 24.0652 -0.091
      vertex 47.9725 28.1566 -0.091
    endloop
  endfacet
  facet normal 0 0 1
    outer loop
      vertex 48.0018 28.7326 -0.091
      vertex 43.8011 24.0652 -0.091
      vertex 47.9945 28.4414 -0.091
    endloop
  endfacet
  facet normal 0 0 1
    outer loop
      vertex 47.9944 29.0238 -0.091
      vertex 47.9724 29.3086 -0.091
      vertex 43.8005 33.4 -0.091
    endloop
  endfacet
  facet normal 0 0 1
    outer loop
      vertex 43.8005 33.4 -0.091
      vertex 47.7377 30.3846 -0.091
      vertex 47.6423 30.6377 -0.091
    endloop
  endfacet
  facet normal 0 0 1
    outer loop
      vertex 46.5687 32.2269 -0.091
      vertex 46.3694 32.4143 -0.091
      vertex 43.8005 33.4 -0.091
    endloop
  endfacet
  facet normal 0 0 1
    outer loop
      vertex 47.1142 31.5868 -0.091
      vertex 46.9455 31.8082 -0.091
      vertex 43.8005 33.4 -0.091
    endloop
  endfacet
  facet normal 0 0 1
    outer loop
      vertex 43.8005 33.4 -0.091
      vertex 47.4076 31.1249 -0.091
      vertex 47.2683 31.359 -0.091
    endloop
  endfacet
  facet normal 0 0 1
    outer loop
      vertex 47.1142 31.5868 -0.091
      vertex 43.8005 33.4 -0.091
      vertex 47.2683 31.359 -0.091
    endloop
  endfacet
  facet normal 0 0 1
    outer loop
      vertex 46.7621 32.0233 -0.091
      vertex 43.8005 33.4 -0.091
      vertex 46.9455 31.8082 -0.091
    endloop
  endfacet
  facet normal 0 0 1
    outer loop
      vertex 46.5687 32.2269 -0.091
      vertex 43.8005 33.4 -0.091
      vertex 46.7621 32.0233 -0.091
    endloop
  endfacet
  facet normal 0 0 1
    outer loop
      vertex 46.3694 32.4143 -0.091
      vertex 46.1645 32.5854 -0.091
      vertex 43.8005 33.4 -0.091
    endloop
  endfacet
  facet normal 0 0 1
    outer loop
      vertex 46.1645 32.5854 -0.091
      vertex 45.9539 32.7402 -0.091
      vertex 44.0627 33.3918 -0.091
    endloop
  endfacet
  facet normal 0 0 1
    outer loop
      vertex 45.9539 32.7402 -0.091
      vertex 44.3191 33.3674 -0.091
      vertex 44.0627 33.3918 -0.091
    endloop
  endfacet
  facet normal 0 0 1
    outer loop
      vertex 45.7375 32.8786 -0.091
      vertex 44.3191 33.3674 -0.091
      vertex 45.9539 32.7402 -0.091
    endloop
  endfacet
  facet normal 0 0 1
    outer loop
      vertex 44.5698 33.3267 -0.091
      vertex 44.3191 33.3674 -0.091
      vertex 45.7375 32.8786 -0.091
    endloop
  endfacet
  facet normal 0 0 1
    outer loop
      vertex 44.8148 33.2697 -0.091
      vertex 44.5698 33.3267 -0.091
      vertex 45.5154 33.0008 -0.091
    endloop
  endfacet
  facet normal 0 0 1
    outer loop
      vertex 45.0541 33.1963 -0.091
      vertex 44.8148 33.2697 -0.091
      vertex 45.2876 33.1067 -0.091
    endloop
  endfacet
  facet normal 0 0 1
    outer loop
      vertex 44.8148 33.2697 -0.091
      vertex 45.5154 33.0008 -0.091
      vertex 45.2876 33.1067 -0.091
    endloop
  endfacet
  facet normal 0 0 1
    outer loop
      vertex 44.5698 33.3267 -0.091
      vertex 45.7375 32.8786 -0.091
      vertex 45.5154 33.0008 -0.091
    endloop
  endfacet
  facet normal 0 0 1
    outer loop
      vertex 46.1645 32.5854 -0.091
      vertex 44.0627 33.3918 -0.091
      vertex 43.8005 33.4 -0.091
    endloop
  endfacet
  facet normal 0 0 1
    outer loop
      vertex 47.4076 31.1249 -0.091
      vertex 43.8005 33.4 -0.091
      vertex 47.5323 30.8845 -0.091
    endloop
  endfacet
  facet normal 0 0 1
    outer loop
      vertex 43.8005 33.4 -0.091
      vertex 47.6423 30.6377 -0.091
      vertex 47.5323 30.8845 -0.091
    endloop
  endfacet
  facet normal 0 0 1
    outer loop
      vertex 47.8184 30.1251 -0.091
      vertex 47.7377 30.3846 -0.091
      vertex 43.8005 33.4 -0.091
    endloop
  endfacet
  facet normal 0 0 1
    outer loop
      vertex 47.8184 30.1251 -0.091
      vertex 43.8005 33.4 -0.091
      vertex 47.8844 29.8593 -0.091
    endloop
  endfacet
  facet normal 0 0 1
    outer loop
      vertex 43.8005 33.4 -0.091
      vertex 47.9358 29.5871 -0.091
      vertex 47.8844 29.8593 -0.091
    endloop
  endfacet
  facet normal 0 0 1
    outer loop
      vertex 47.9724 29.3086 -0.091
      vertex 47.9358 29.5871 -0.091
      vertex 43.8005 33.4 -0.091
    endloop
  endfacet
  facet normal 0 0 1
    outer loop
      vertex 47.9944 29.0238 -0.091
      vertex 43.8005 33.4 -0.091
      vertex 48.0018 28.7326 -0.091
    endloop
  endfacet
  facet normal 0 0 1
    outer loop
      vertex 43.8005 33.4 -0.091
      vertex 43.8011 24.0652 -0.091
      vertex 48.0018 28.7326 -0.091
    endloop
  endfacet
  facet normal 0 0 1
    outer loop
      vertex 17.8412 24.0652 -0.091
      vertex 43.8011 24.0652 -0.091
      vertex 43.8005 33.4 -0.091
    endloop
  endfacet
  facet normal 0 -0 1
    outer loop
      vertex 17.8412 24.0652 -0.091
      vertex 43.8005 33.4 -0.091
      vertex 10.1959 33.4 -0.091
    endloop
  endfacet
  facet normal 0 0 1
    outer loop
      vertex 9.18166 33.2697 -0.091
      vertex 8.70885 33.1067 -0.091
      vertex 8.48103 33.0008 -0.091
    endloop
  endfacet
  facet normal -0 0 1
    outer loop
      vertex 9.18166 33.2697 -0.091
      vertex 8.48103 33.0008 -0.091
      vertex 9.42664 33.3267 -0.091
    endloop
  endfacet
  facet normal -0 0 1
    outer loop
      vertex 8.48103 33.0008 -0.091
      vertex 8.25893 32.8786 -0.091
      vertex 9.42664 33.3267 -0.091
    endloop
  endfacet
  facet normal 0 0 1
    outer loop
      vertex 8.25893 32.8786 -0.091
      vertex 9.67734 33.3674 -0.091
      vertex 9.42664 33.3267 -0.091
    endloop
  endfacet
  facet normal 0 0 1
    outer loop
      vertex 8.04256 32.7402 -0.091
      vertex 9.67734 33.3674 -0.091
      vertex 8.25893 32.8786 -0.091
    endloop
  endfacet
  facet normal 0 0 1
    outer loop
      vertex 9.93378 33.3918 -0.091
      vertex 9.67734 33.3674 -0.091
      vertex 8.04256 32.7402 -0.091
    endloop
  endfacet
  facet normal 0 0 1
    outer loop
      vertex 9.93378 33.3918 -0.091
      vertex 8.04256 32.7402 -0.091
      vertex 7.83191 32.5854 -0.091
    endloop
  endfacet
  facet normal -0 0 1
    outer loop
      vertex 9.93378 33.3918 -0.091
      vertex 7.83191 32.5854 -0.091
      vertex 10.1959 33.4 -0.091
    endloop
  endfacet
  facet normal -0 0 1
    outer loop
      vertex 7.83191 32.5854 -0.091
      vertex 7.62698 32.4143 -0.091
      vertex 10.1959 33.4 -0.091
    endloop
  endfacet
  facet normal -0 0 1
    outer loop
      vertex 7.62698 32.4143 -0.091
      vertex 7.42778 32.2269 -0.091
      vertex 10.1959 33.4 -0.091
    endloop
  endfacet
  facet normal -0 0 1
    outer loop
      vertex 7.42778 32.2269 -0.091
      vertex 7.2343 32.0233 -0.091
      vertex 10.1959 33.4 -0.091
    endloop
  endfacet
  facet normal -0 0 1
    outer loop
      vertex 7.2343 32.0233 -0.091
      vertex 7.05103 31.8082 -0.091
      vertex 10.1959 33.4 -0.091
    endloop
  endfacet
  facet normal -0 0 1
    outer loop
      vertex 7.05103 31.8082 -0.091
      vertex 6.88239 31.5868 -0.091
      vertex 10.1959 33.4 -0.091
    endloop
  endfacet
  facet normal -0 0 1
    outer loop
      vertex 6.88239 31.5868 -0.091
      vertex 6.72844 31.359 -0.091
      vertex 10.1959 33.4 -0.091
    endloop
  endfacet
  facet normal -0 0 1
    outer loop
      vertex 6.72844 31.359 -0.091
      vertex 6.58913 31.1249 -0.091
      vertex 10.1959 33.4 -0.091
    endloop
  endfacet
  facet normal -0 0 1
    outer loop
      vertex 6.58913 31.1249 -0.091
      vertex 6.46449 30.8845 -0.091
      vertex 10.1959 33.4 -0.091
    endloop
  endfacet
  facet normal -0 0 1
    outer loop
      vertex 6.46449 30.8845 -0.091
      vertex 6.35452 30.6377 -0.091
      vertex 10.1959 33.4 -0.091
    endloop
  endfacet
  facet normal -0 0 1
    outer loop
      vertex 6.35452 30.6377 -0.091
      vertex 6.2592 30.3846 -0.091
      vertex 10.1959 33.4 -0.091
    endloop
  endfacet
  facet normal -0 0 1
    outer loop
      vertex 6.2592 30.3846 -0.091
      vertex 6.17857 30.1251 -0.091
      vertex 10.1959 33.4 -0.091
    endloop
  endfacet
  facet normal -0 0 1
    outer loop
      vertex 6.17857 30.1251 -0.091
      vertex 6.11258 29.8593 -0.091
      vertex 10.1959 33.4 -0.091
    endloop
  endfacet
  facet normal -0 0 1
    outer loop
      vertex 6.11258 29.8593 -0.091
      vertex 6.06126 29.5871 -0.091
      vertex 10.1959 33.4 -0.091
    endloop
  endfacet
  facet normal -0 0 1
    outer loop
      vertex 6.06126 29.5871 -0.091
      vertex 6.02461 29.3086 -0.091
      vertex 10.1959 33.4 -0.091
    endloop
  endfacet
  facet normal -0 0 1
    outer loop
      vertex 6.02461 29.3086 -0.091
      vertex 6.00261 29.0238 -0.091
      vertex 10.1959 33.4 -0.091
    endloop
  endfacet
  facet normal -0 0 1
    outer loop
      vertex 6.00261 29.0238 -0.091
      vertex 5.99527 28.7326 -0.091
      vertex 10.1959 33.4 -0.091
    endloop
  endfacet
  facet normal -0 0 1
    outer loop
      vertex 5.99527 28.7326 -0.091
      vertex 6.00523 28.4333 -0.091
      vertex 10.1959 33.4 -0.091
    endloop
  endfacet
  facet normal -0 0 1
    outer loop
      vertex 6.00523 28.4333 -0.091
      vertex 6.03506 28.124 -0.091
      vertex 10.1959 33.4 -0.091
    endloop
  endfacet
  facet normal -0 0 1
    outer loop
      vertex 6.03506 28.124 -0.091
      vertex 6.08478 27.8047 -0.091
      vertex 10.1959 33.4 -0.091
    endloop
  endfacet
  facet normal -0 0 1
    outer loop
      vertex 6.08478 27.8047 -0.091
      vertex 6.15439 27.4756 -0.091
      vertex 10.1959 33.4 -0.091
    endloop
  endfacet
  facet normal -0 0 1
    outer loop
      vertex 6.15439 27.4756 -0.091
      vertex 6.24388 27.1364 -0.091
      vertex 10.1959 33.4 -0.091
    endloop
  endfacet
  facet normal -0 0 1
    outer loop
      vertex 6.24388 27.1364 -0.091
      vertex 6.35326 26.7874 -0.091
      vertex 10.1959 33.4 -0.091
    endloop
  endfacet
  facet normal -0 0 1
    outer loop
      vertex 6.35326 26.7874 -0.091
      vertex 6.48253 26.4283 -0.091
      vertex 10.1959 33.4 -0.091
    endloop
  endfacet
  facet normal -0 0 1
    outer loop
      vertex 6.48253 26.4283 -0.091
      vertex 6.63168 26.0593 -0.091
      vertex 10.1959 33.4 -0.091
    endloop
  endfacet
  facet normal -0 0 1
    outer loop
      vertex 6.63168 26.0593 -0.091
      vertex 6.80074 25.6804 -0.091
      vertex 10.1959 33.4 -0.091
    endloop
  endfacet
  facet normal -0 0 1
    outer loop
      vertex 6.80074 25.6804 -0.091
      vertex 6.98965 25.2915 -0.091
      vertex 10.1959 33.4 -0.091
    endloop
  endfacet
  facet normal -0 0 1
    outer loop
      vertex 6.98965 25.2915 -0.091
      vertex 7.19849 24.8927 -0.091
      vertex 10.1959 33.4 -0.091
    endloop
  endfacet
  facet normal -0 0 1
    outer loop
      vertex 7.19849 24.8927 -0.091
      vertex 7.42719 24.4839 -0.091
      vertex 10.1959 33.4 -0.091
    endloop
  endfacet
  facet normal -0 0 1
    outer loop
      vertex 7.42719 24.4839 -0.091
      vertex 17.8412 24.0652 -0.091
      vertex 10.1959 33.4 -0.091
    endloop
  endfacet
  facet normal 0 -0 1
    outer loop
      vertex 7.67578 24.0652 -0.091
      vertex 17.8412 24.0652 -0.091
      vertex 7.42719 24.4839 -0.091
    endloop
  endfacet
  facet normal 0 0 1
    outer loop
      vertex 19.3112 3.06194 -0.091
      vertex 17.8412 24.0652 -0.091
      vertex 7.67578 24.0652 -0.091
    endloop
  endfacet
  facet normal 0 0 1
    outer loop
      vertex 13.382 2.93159 -0.091
      vertex 13.1428 2.85829 -0.091
      vertex 12.9093 2.76868 -0.091
    endloop
  endfacet
  facet normal 0 0 1
    outer loop
      vertex 29.4772 3.06194 -0.091
      vertex 17.8412 24.0652 -0.091
      vertex 19.3112 3.06194 -0.091
    endloop
  endfacet
  facet normal 0 0 1
    outer loop
      vertex 13.382 2.93159 -0.091
      vertex 12.9093 2.76868 -0.091
      vertex 12.6815 2.66278 -0.091
    endloop
  endfacet
  facet normal -0 0 1
    outer loop
      vertex 13.382 2.93159 -0.091
      vertex 12.6815 2.66278 -0.091
      vertex 13.6269 2.98862 -0.091
    endloop
  endfacet
  facet normal -0 0 1
    outer loop
      vertex 12.6815 2.66278 -0.091
      vertex 12.4595 2.54059 -0.091
      vertex 13.6269 2.98862 -0.091
    endloop
  endfacet
  facet normal 0 0 1
    outer loop
      vertex 12.4595 2.54059 -0.091
      vertex 13.8775 3.02936 -0.091
      vertex 13.6269 2.98862 -0.091
    endloop
  endfacet
  facet normal 0 0 1
    outer loop
      vertex 12.2431 2.4021 -0.091
      vertex 13.8775 3.02936 -0.091
      vertex 12.4595 2.54059 -0.091
    endloop
  endfacet
  facet normal 0 0 1
    outer loop
      vertex 14.1339 3.05379 -0.091
      vertex 13.8775 3.02936 -0.091
      vertex 12.2431 2.4021 -0.091
    endloop
  endfacet
  facet normal 0 0 1
    outer loop
      vertex 14.1339 3.05379 -0.091
      vertex 12.2431 2.4021 -0.091
      vertex 12.0325 2.24733 -0.091
    endloop
  endfacet
  facet normal -0 0 1
    outer loop
      vertex 14.1339 3.05379 -0.091
      vertex 12.0325 2.24733 -0.091
      vertex 14.396 3.06194 -0.091
    endloop
  endfacet
  facet normal -0 0 1
    outer loop
      vertex 12.0325 2.24733 -0.091
      vertex 11.8276 2.07626 -0.091
      vertex 14.396 3.06194 -0.091
    endloop
  endfacet
  facet normal -0 0 1
    outer loop
      vertex 11.8276 2.07626 -0.091
      vertex 11.6284 1.8889 -0.091
      vertex 14.396 3.06194 -0.091
    endloop
  endfacet
  facet normal -0 0 1
    outer loop
      vertex 11.6284 1.8889 -0.091
      vertex 11.435 1.68526 -0.091
      vertex 14.396 3.06194 -0.091
    endloop
  endfacet
  facet normal -0 0 1
    outer loop
      vertex 11.435 1.68526 -0.091
      vertex 11.2517 1.47017 -0.091
      vertex 14.396 3.06194 -0.091
    endloop
  endfacet
  facet normal -0 0 1
    outer loop
      vertex 11.2517 1.47017 -0.091
      vertex 11.083 1.24876 -0.091
      vertex 14.396 3.06194 -0.091
    endloop
  endfacet
  facet normal 0 0 1
    outer loop
      vertex 14.396 3.06194 -0.091
      vertex 10.9291 1.021 -0.091
      vertex 10.7898 0.786896 -0.091
    endloop
  endfacet
  facet normal 0 0 1
    outer loop
      vertex 14.396 3.06194 -0.091
      vertex 10.7898 0.786896 -0.091
      vertex 10.6651 0.546448 -0.091
    endloop
  endfacet
  facet normal 0 0 1
    outer loop
      vertex 14.396 3.06194 -0.091
      vertex 10.6651 0.546448 -0.091
      vertex 10.5552 0.299652 -0.091
    endloop
  endfacet
  facet normal 0 0 1
    outer loop
      vertex 14.396 3.06194 -0.091
      vertex 10.5552 0.299652 -0.091
      vertex 10.4599 0.046524 -0.091
    endloop
  endfacet
  facet normal 0 0 1
    outer loop
      vertex 14.396 3.06194 -0.091
      vertex 10.4599 0.046524 -0.091
      vertex 10.3792 -0.212936 -0.091
    endloop
  endfacet
  facet normal 0 0 1
    outer loop
      vertex 10.2715 -0.699997 -0.091
      vertex 10.3792 -0.212936 -0.091
      vertex 10.3132 -0.478745 -0.091
    endloop
  endfacet
  facet normal 0 0 1
    outer loop
      vertex 14.396 3.06194 -0.091
      vertex 10.3792 -0.212936 -0.091
      vertex 10.2715 -0.699997 -0.091
    endloop
  endfacet
  facet normal -0 0 1
    outer loop
      vertex 14.396 3.06194 -0.091
      vertex 10.2715 -0.699997 -0.091
      vertex 19.3112 3.06194 -0.091
    endloop
  endfacet
  facet normal 0 0 1
    outer loop
      vertex 10.2715 -0.699997 -0.091
      vertex 29.4772 3.06194 -0.091
      vertex 19.3112 3.06194 -0.091
    endloop
  endfacet
  facet normal 0 0 1
    outer loop
      vertex 43.7255 -0.699997 -0.091
      vertex 29.4772 3.06194 -0.091
      vertex 10.2715 -0.699997 -0.091
    endloop
  endfacet
  facet normal 0.97053 0.240981 0
    outer loop
      vertex 43.6178 -0.212936 -0.391
      vertex 43.6838 -0.478745 -0.091
      vertex 43.6838 -0.478745 -0.391
    endloop
  endfacet
  facet normal 0.97053 0.240981 -0
    outer loop
      vertex 43.6178 -0.212936 -0.391
      vertex 43.6178 -0.212936 -0.091
      vertex 43.6838 -0.478745 -0.091
    endloop
  endfacet
  facet normal 0.954983 0.296661 0
    outer loop
      vertex 43.5372 0.046524 -0.391
      vertex 43.6178 -0.212936 -0.091
      vertex 43.6178 -0.212936 -0.391
    endloop
  endfacet
  facet normal 0.954983 0.296661 -0
    outer loop
      vertex 43.5372 0.046524 -0.391
      vertex 43.5372 0.046524 -0.091
      vertex 43.6178 -0.212936 -0.091
    endloop
  endfacet
  facet normal 0.93587 0.352345 0
    outer loop
      vertex 43.4419 0.299652 -0.391
      vertex 43.5372 0.046524 -0.091
      vertex 43.5372 0.046524 -0.391
    endloop
  endfacet
  facet normal 0.93587 0.352345 -0
    outer loop
      vertex 43.4419 0.299652 -0.391
      vertex 43.4419 0.299652 -0.091
      vertex 43.5372 0.046524 -0.091
    endloop
  endfacet
  facet normal 0.913381 0.407105 0
    outer loop
      vertex 43.3319 0.546448 -0.391
      vertex 43.4419 0.299652 -0.091
      vertex 43.4419 0.299652 -0.391
    endloop
  endfacet
  facet normal 0.913381 0.407105 -0
    outer loop
      vertex 43.3319 0.546448 -0.391
      vertex 43.3319 0.546448 -0.091
      vertex 43.4419 0.299652 -0.091
    endloop
  endfacet
  facet normal 0.88787 0.460094 0
    outer loop
      vertex 43.2073 0.786896 -0.391
      vertex 43.3319 0.546448 -0.091
      vertex 43.3319 0.546448 -0.391
    endloop
  endfacet
  facet normal 0.88787 0.460094 -0
    outer loop
      vertex 43.2073 0.786896 -0.391
      vertex 43.2073 0.786896 -0.091
      vertex 43.3319 0.546448 -0.091
    endloop
  endfacet
  facet normal 0.85937 0.511355 0
    outer loop
      vertex 43.068 1.021 -0.391
      vertex 43.2073 0.786896 -0.091
      vertex 43.2073 0.786896 -0.391
    endloop
  endfacet
  facet normal 0.85937 0.511355 -0
    outer loop
      vertex 43.068 1.021 -0.391
      vertex 43.068 1.021 -0.091
      vertex 43.2073 0.786896 -0.091
    endloop
  endfacet
  facet normal 0.828407 0.560127 0
    outer loop
      vertex 42.914 1.24876 -0.391
      vertex 43.068 1.021 -0.091
      vertex 43.068 1.021 -0.391
    endloop
  endfacet
  facet normal 0.828407 0.560127 -0
    outer loop
      vertex 42.914 1.24876 -0.391
      vertex 42.914 1.24876 -0.091
      vertex 43.068 1.021 -0.091
    endloop
  endfacet
  facet normal 0.795593 0.605831 0
    outer loop
      vertex 42.7454 1.47017 -0.391
      vertex 42.914 1.24876 -0.091
      vertex 42.914 1.24876 -0.391
    endloop
  endfacet
  facet normal 0.795593 0.605831 -0
    outer loop
      vertex 42.7454 1.47017 -0.391
      vertex 42.7454 1.47017 -0.091
      vertex 42.914 1.24876 -0.091
    endloop
  endfacet
  facet normal 0.761112 0.648621 0
    outer loop
      vertex 42.5621 1.68526 -0.391
      vertex 42.7454 1.47017 -0.091
      vertex 42.7454 1.47017 -0.391
    endloop
  endfacet
  facet normal 0.761112 0.648621 -0
    outer loop
      vertex 42.5621 1.68526 -0.391
      vertex 42.5621 1.68526 -0.091
      vertex 42.7454 1.47017 -0.091
    endloop
  endfacet
  facet normal 0.724925 0.688828 0
    outer loop
      vertex 42.3686 1.8889 -0.391
      vertex 42.5621 1.68526 -0.091
      vertex 42.5621 1.68526 -0.391
    endloop
  endfacet
  facet normal 0.724925 0.688828 -0
    outer loop
      vertex 42.3686 1.8889 -0.391
      vertex 42.3686 1.8889 -0.091
      vertex 42.5621 1.68526 -0.091
    endloop
  endfacet
  facet normal 0.685127 0.728423 0
    outer loop
      vertex 42.1694 2.07626 -0.391
      vertex 42.3686 1.8889 -0.091
      vertex 42.3686 1.8889 -0.391
    endloop
  endfacet
  facet normal 0.685127 0.728423 -0
    outer loop
      vertex 42.1694 2.07626 -0.391
      vertex 42.1694 2.07626 -0.091
      vertex 42.3686 1.8889 -0.091
    endloop
  endfacet
  facet normal 0.640892 0.767631 0
    outer loop
      vertex 41.9645 2.24733 -0.391
      vertex 42.1694 2.07626 -0.091
      vertex 42.1694 2.07626 -0.391
    endloop
  endfacet
  facet normal 0.640892 0.767631 -0
    outer loop
      vertex 41.9645 2.24733 -0.391
      vertex 41.9645 2.24733 -0.091
      vertex 42.1694 2.07626 -0.091
    endloop
  endfacet
  facet normal 0.592184 0.805802 0
    outer loop
      vertex 41.7539 2.4021 -0.391
      vertex 41.9645 2.24733 -0.091
      vertex 41.9645 2.24733 -0.391
    endloop
  endfacet
  facet normal 0.592184 0.805802 -0
    outer loop
      vertex 41.7539 2.4021 -0.391
      vertex 41.7539 2.4021 -0.091
      vertex 41.9645 2.24733 -0.091
    endloop
  endfacet
  facet normal 0.539214 0.842169 0
    outer loop
      vertex 41.5376 2.54059 -0.391
      vertex 41.7539 2.4021 -0.091
      vertex 41.7539 2.4021 -0.391
    endloop
  endfacet
  facet normal 0.539214 0.842169 -0
    outer loop
      vertex 41.5376 2.54059 -0.391
      vertex 41.5376 2.54059 -0.091
      vertex 41.7539 2.4021 -0.091
    endloop
  endfacet
  facet normal 0.482025 0.876158 0
    outer loop
      vertex 41.3155 2.66278 -0.391
      vertex 41.5376 2.54059 -0.091
      vertex 41.5376 2.54059 -0.391
    endloop
  endfacet
  facet normal 0.482025 0.876158 -0
    outer loop
      vertex 41.3155 2.66278 -0.391
      vertex 41.3155 2.66278 -0.091
      vertex 41.5376 2.54059 -0.091
    endloop
  endfacet
  facet normal 0.421708 0.906732 0
    outer loop
      vertex 41.0878 2.76868 -0.391
      vertex 41.3155 2.66278 -0.091
      vertex 41.3155 2.66278 -0.391
    endloop
  endfacet
  facet normal 0.421708 0.906732 -0
    outer loop
      vertex 41.0878 2.76868 -0.391
      vertex 41.0878 2.76868 -0.091
      vertex 41.3155 2.66278 -0.091
    endloop
  endfacet
  facet normal 0.35829 0.93361 0
    outer loop
      vertex 40.8543 2.85829 -0.391
      vertex 41.0878 2.76868 -0.091
      vertex 41.0878 2.76868 -0.391
    endloop
  endfacet
  facet normal 0.35829 0.93361 -0
    outer loop
      vertex 40.8543 2.85829 -0.391
      vertex 40.8543 2.85829 -0.091
      vertex 41.0878 2.76868 -0.091
    endloop
  endfacet
  facet normal 0.29299 0.956115 0
    outer loop
      vertex 40.6151 2.93159 -0.391
      vertex 40.8543 2.85829 -0.091
      vertex 40.8543 2.85829 -0.391
    endloop
  endfacet
  facet normal 0.29299 0.956115 -0
    outer loop
      vertex 40.6151 2.93159 -0.391
      vertex 40.6151 2.93159 -0.091
      vertex 40.8543 2.85829 -0.091
    endloop
  endfacet
  facet normal 0.226714 0.973961 0
    outer loop
      vertex 40.3701 2.98862 -0.391
      vertex 40.6151 2.93159 -0.091
      vertex 40.6151 2.93159 -0.391
    endloop
  endfacet
  facet normal 0.226714 0.973961 -0
    outer loop
      vertex 40.3701 2.98862 -0.391
      vertex 40.3701 2.98862 -0.091
      vertex 40.6151 2.93159 -0.091
    endloop
  endfacet
  facet normal 0.160463 0.987042 0
    outer loop
      vertex 40.1195 3.02936 -0.391
      vertex 40.3701 2.98862 -0.091
      vertex 40.3701 2.98862 -0.391
    endloop
  endfacet
  facet normal 0.160463 0.987042 -0
    outer loop
      vertex 40.1195 3.02936 -0.391
      vertex 40.1195 3.02936 -0.091
      vertex 40.3701 2.98862 -0.091
    endloop
  endfacet
  facet normal 0.0948879 0.995488 0
    outer loop
      vertex 39.8632 3.05379 -0.391
      vertex 40.1195 3.02936 -0.091
      vertex 40.1195 3.02936 -0.391
    endloop
  endfacet
  facet normal 0.0948879 0.995488 -0
    outer loop
      vertex 39.8632 3.05379 -0.391
      vertex 39.8632 3.05379 -0.091
      vertex 40.1195 3.02936 -0.091
    endloop
  endfacet
  facet normal 0.03108 0.999517 0
    outer loop
      vertex 39.6011 3.06194 -0.391
      vertex 39.8632 3.05379 -0.091
      vertex 39.8632 3.05379 -0.391
    endloop
  endfacet
  facet normal 0.03108 0.999517 -0
    outer loop
      vertex 39.6011 3.06194 -0.391
      vertex 39.6011 3.06194 -0.091
      vertex 39.8632 3.05379 -0.091
    endloop
  endfacet
  facet normal 0 1 0
    outer loop
      vertex 29.4772 3.06194 -0.391
      vertex 39.6011 3.06194 -0.091
      vertex 39.6011 3.06194 -0.391
    endloop
  endfacet
  facet normal 0 1 0
    outer loop
      vertex 29.4772 3.06194 -0.391
      vertex 29.4772 3.06194 -0.091
      vertex 39.6011 3.06194 -0.091
    endloop
  endfacet
  facet normal 0.874731 0.484609 0
    outer loop
      vertex 17.8412 24.0652 -0.391
      vertex 29.4772 3.06194 -0.091
      vertex 29.4772 3.06194 -0.391
    endloop
  endfacet
  facet normal 0.874731 0.484609 -0
    outer loop
      vertex 17.8412 24.0652 -0.391
      vertex 17.8412 24.0652 -0.091
      vertex 29.4772 3.06194 -0.091
    endloop
  endfacet
  facet normal 0 -1 0
    outer loop
      vertex 43.8011 24.0652 -0.391
      vertex 17.8412 24.0652 -0.091
      vertex 17.8412 24.0652 -0.391
    endloop
  endfacet
  facet normal 0 -1 0
    outer loop
      vertex 43.8011 24.0652 -0.391
      vertex 43.8011 24.0652 -0.091
      vertex 17.8412 24.0652 -0.091
    endloop
  endfacet
  facet normal 0.0308777 -0.999523 0
    outer loop
      vertex 44.0633 24.0733 -0.391
      vertex 43.8011 24.0652 -0.091
      vertex 43.8011 24.0652 -0.391
    endloop
  endfacet
  facet normal 0.0308777 -0.999523 0
    outer loop
      vertex 44.0633 24.0733 -0.391
      vertex 44.0633 24.0733 -0.091
      vertex 43.8011 24.0652 -0.091
    endloop
  endfacet
  facet normal 0.0951206 -0.995466 0
    outer loop
      vertex 44.3197 24.0978 -0.391
      vertex 44.0633 24.0733 -0.091
      vertex 44.0633 24.0733 -0.391
    endloop
  endfacet
  facet normal 0.0951206 -0.995466 0
    outer loop
      vertex 44.3197 24.0978 -0.391
      vertex 44.3197 24.0978 -0.091
      vertex 44.0633 24.0733 -0.091
    endloop
  endfacet
  facet normal 0.160247 -0.987077 0
    outer loop
      vertex 44.5704 24.1385 -0.391
      vertex 44.3197 24.0978 -0.091
      vertex 44.3197 24.0978 -0.391
    endloop
  endfacet
  facet normal 0.160247 -0.987077 0
    outer loop
      vertex 44.5704 24.1385 -0.391
      vertex 44.5704 24.1385 -0.091
      vertex 44.3197 24.0978 -0.091
    endloop
  endfacet
  facet normal 0.226978 -0.9739 0
    outer loop
      vertex 44.8154 24.1956 -0.391
      vertex 44.5704 24.1385 -0.091
      vertex 44.5704 24.1385 -0.391
    endloop
  endfacet
  facet normal 0.226978 -0.9739 0
    outer loop
      vertex 44.8154 24.1956 -0.391
      vertex 44.8154 24.1956 -0.091
      vertex 44.5704 24.1385 -0.091
    endloop
  endfacet
  facet normal 0.293244 -0.956038 0
    outer loop
      vertex 45.0547 24.269 -0.391
      vertex 44.8154 24.1956 -0.091
      vertex 44.8154 24.1956 -0.391
    endloop
  endfacet
  facet normal 0.293244 -0.956038 0
    outer loop
      vertex 45.0547 24.269 -0.391
      vertex 45.0547 24.269 -0.091
      vertex 44.8154 24.1956 -0.091
    endloop
  endfacet
  facet normal 0.358256 -0.933624 0
    outer loop
      vertex 45.2882 24.3586 -0.391
      vertex 45.0547 24.269 -0.091
      vertex 45.0547 24.269 -0.391
    endloop
  endfacet
  facet normal 0.358256 -0.933624 0
    outer loop
      vertex 45.2882 24.3586 -0.391
      vertex 45.2882 24.3586 -0.091
      vertex 45.0547 24.269 -0.091
    endloop
  endfacet
  facet normal 0.421883 -0.90665 0
    outer loop
      vertex 45.516 24.4646 -0.391
      vertex 45.2882 24.3586 -0.091
      vertex 45.2882 24.3586 -0.391
    endloop
  endfacet
  facet normal 0.421883 -0.90665 0
    outer loop
      vertex 45.516 24.4646 -0.391
      vertex 45.516 24.4646 -0.091
      vertex 45.2882 24.3586 -0.091
    endloop
  endfacet
  facet normal 0.482055 -0.876141 0
    outer loop
      vertex 45.7381 24.5868 -0.391
      vertex 45.516 24.4646 -0.091
      vertex 45.516 24.4646 -0.391
    endloop
  endfacet
  facet normal 0.482055 -0.876141 0
    outer loop
      vertex 45.7381 24.5868 -0.391
      vertex 45.7381 24.5868 -0.091
      vertex 45.516 24.4646 -0.091
    endloop
  endfacet
  facet normal 0.539341 -0.842088 0
    outer loop
      vertex 45.9545 24.7254 -0.391
      vertex 45.7381 24.5868 -0.091
      vertex 45.7381 24.5868 -0.391
    endloop
  endfacet
  facet normal 0.539341 -0.842088 0
    outer loop
      vertex 45.9545 24.7254 -0.391
      vertex 45.9545 24.7254 -0.091
      vertex 45.7381 24.5868 -0.091
    endloop
  endfacet
  facet normal 0.592259 -0.805748 0
    outer loop
      vertex 46.1651 24.8802 -0.391
      vertex 45.9545 24.7254 -0.091
      vertex 45.9545 24.7254 -0.391
    endloop
  endfacet
  facet normal 0.592259 -0.805748 0
    outer loop
      vertex 46.1651 24.8802 -0.391
      vertex 46.1651 24.8802 -0.091
      vertex 45.9545 24.7254 -0.091
    endloop
  endfacet
  facet normal 0.640994 -0.767546 0
    outer loop
      vertex 46.3701 25.0514 -0.391
      vertex 46.1651 24.8802 -0.091
      vertex 46.1651 24.8802 -0.391
    endloop
  endfacet
  facet normal 0.640994 -0.767546 0
    outer loop
      vertex 46.3701 25.0514 -0.391
      vertex 46.3701 25.0514 -0.091
      vertex 46.1651 24.8802 -0.091
    endloop
  endfacet
  facet normal 0.685205 -0.72835 0
    outer loop
      vertex 46.5693 25.2388 -0.391
      vertex 46.3701 25.0514 -0.091
      vertex 46.3701 25.0514 -0.391
    endloop
  endfacet
  facet normal 0.685205 -0.72835 0
    outer loop
      vertex 46.5693 25.2388 -0.391
      vertex 46.5693 25.2388 -0.091
      vertex 46.3701 25.0514 -0.091
    endloop
  endfacet
  facet normal 0.725195 -0.688544 0
    outer loop
      vertex 46.7628 25.4426 -0.391
      vertex 46.5693 25.2388 -0.091
      vertex 46.5693 25.2388 -0.391
    endloop
  endfacet
  facet normal 0.725195 -0.688544 0
    outer loop
      vertex 46.7628 25.4426 -0.391
      vertex 46.7628 25.4426 -0.091
      vertex 46.5693 25.2388 -0.091
    endloop
  endfacet
  facet normal 0.761004 -0.648748 0
    outer loop
      vertex 46.946 25.6575 -0.391
      vertex 46.7628 25.4426 -0.091
      vertex 46.7628 25.4426 -0.391
    endloop
  endfacet
  facet normal 0.761004 -0.648748 0
    outer loop
      vertex 46.946 25.6575 -0.391
      vertex 46.946 25.6575 -0.091
      vertex 46.7628 25.4426 -0.091
    endloop
  endfacet
  facet normal 0.795407 -0.606076 0
    outer loop
      vertex 47.1147 25.8789 -0.391
      vertex 46.946 25.6575 -0.091
      vertex 46.946 25.6575 -0.391
    endloop
  endfacet
  facet normal 0.795407 -0.606076 0
    outer loop
      vertex 47.1147 25.8789 -0.391
      vertex 47.1147 25.8789 -0.091
      vertex 46.946 25.6575 -0.091
    endloop
  endfacet
  facet normal 0.828507 -0.559979 0
    outer loop
      vertex 47.2686 26.1066 -0.391
      vertex 47.1147 25.8789 -0.091
      vertex 47.1147 25.8789 -0.391
    endloop
  endfacet
  facet normal 0.828507 -0.559979 0
    outer loop
      vertex 47.2686 26.1066 -0.391
      vertex 47.2686 26.1066 -0.091
      vertex 47.1147 25.8789 -0.091
    endloop
  endfacet
  facet normal 0.85927 -0.511523 0
    outer loop
      vertex 47.4079 26.3406 -0.391
      vertex 47.2686 26.1066 -0.091
      vertex 47.2686 26.1066 -0.391
    endloop
  endfacet
  facet normal 0.85927 -0.511523 0
    outer loop
      vertex 47.4079 26.3406 -0.391
      vertex 47.4079 26.3406 -0.091
      vertex 47.2686 26.1066 -0.091
    endloop
  endfacet
  facet normal 0.887604 -0.460608 0
    outer loop
      vertex 47.5326 26.5809 -0.391
      vertex 47.4079 26.3406 -0.091
      vertex 47.4079 26.3406 -0.391
    endloop
  endfacet
  facet normal 0.887604 -0.460608 0
    outer loop
      vertex 47.5326 26.5809 -0.391
      vertex 47.5326 26.5809 -0.091
      vertex 47.4079 26.3406 -0.091
    endloop
  endfacet
  facet normal 0.913521 -0.406791 0
    outer loop
      vertex 47.6425 26.8277 -0.391
      vertex 47.5326 26.5809 -0.091
      vertex 47.5326 26.5809 -0.391
    endloop
  endfacet
  facet normal 0.913521 -0.406791 0
    outer loop
      vertex 47.6425 26.8277 -0.391
      vertex 47.6425 26.8277 -0.091
      vertex 47.5326 26.5809 -0.091
    endloop
  endfacet
  facet normal 0.935857 -0.352379 0
    outer loop
      vertex 47.7378 27.0808 -0.391
      vertex 47.6425 26.8277 -0.091
      vertex 47.6425 26.8277 -0.391
    endloop
  endfacet
  facet normal 0.935857 -0.352379 0
    outer loop
      vertex 47.7378 27.0808 -0.391
      vertex 47.7378 27.0808 -0.091
      vertex 47.6425 26.8277 -0.091
    endloop
  endfacet
  facet normal 0.954859 -0.297059 0
    outer loop
      vertex 47.8185 27.3402 -0.391
      vertex 47.7378 27.0808 -0.091
      vertex 47.7378 27.0808 -0.391
    endloop
  endfacet
  facet normal 0.954859 -0.297059 0
    outer loop
      vertex 47.8185 27.3402 -0.391
      vertex 47.8185 27.3402 -0.091
      vertex 47.7378 27.0808 -0.091
    endloop
  endfacet
  facet normal 0.970528 -0.240989 0
    outer loop
      vertex 47.8845 27.606 -0.391
      vertex 47.8185 27.3402 -0.091
      vertex 47.8185 27.3402 -0.391
    endloop
  endfacet
  facet normal 0.970528 -0.240989 0
    outer loop
      vertex 47.8845 27.606 -0.391
      vertex 47.8845 27.606 -0.091
      vertex 47.8185 27.3402 -0.091
    endloop
  endfacet
  facet normal 0.982688 -0.18527 0
    outer loop
      vertex 47.9358 27.8781 -0.391
      vertex 47.8845 27.606 -0.091
      vertex 47.8845 27.606 -0.391
    endloop
  endfacet
  facet normal 0.982688 -0.18527 0
    outer loop
      vertex 47.9358 27.8781 -0.391
      vertex 47.9358 27.8781 -0.091
      vertex 47.8845 27.606 -0.091
    endloop
  endfacet
  facet normal 0.991429 -0.130648 0
    outer loop
      vertex 47.9725 28.1566 -0.391
      vertex 47.9358 27.8781 -0.091
      vertex 47.9358 27.8781 -0.391
    endloop
  endfacet
  facet normal 0.991429 -0.130648 0
    outer loop
      vertex 47.9725 28.1566 -0.391
      vertex 47.9725 28.1566 -0.091
      vertex 47.9358 27.8781 -0.091
    endloop
  endfacet
  facet normal 0.99703 -0.0770177 0
    outer loop
      vertex 47.9945 28.4414 -0.391
      vertex 47.9725 28.1566 -0.091
      vertex 47.9725 28.1566 -0.391
    endloop
  endfacet
  facet normal 0.99703 -0.0770177 0
    outer loop
      vertex 47.9945 28.4414 -0.391
      vertex 47.9945 28.4414 -0.091
      vertex 47.9725 28.1566 -0.091
    endloop
  endfacet
  facet normal 0.999686 -0.0250608 0
    outer loop
      vertex 48.0018 28.7326 -0.391
      vertex 47.9945 28.4414 -0.091
      vertex 47.9945 28.4414 -0.391
    endloop
  endfacet
  facet normal 0.999686 -0.0250608 0
    outer loop
      vertex 48.0018 28.7326 -0.391
      vertex 48.0018 28.7326 -0.091
      vertex 47.9945 28.4414 -0.091
    endloop
  endfacet
  facet normal 0.999677 0.0254039 0
    outer loop
      vertex 47.9944 29.0238 -0.391
      vertex 48.0018 28.7326 -0.091
      vertex 48.0018 28.7326 -0.391
    endloop
  endfacet
  facet normal 0.999677 0.0254039 -0
    outer loop
      vertex 47.9944 29.0238 -0.391
      vertex 47.9944 29.0238 -0.091
      vertex 48.0018 28.7326 -0.091
    endloop
  endfacet
  facet normal 0.99703 0.0770177 0
    outer loop
      vertex 47.9724 29.3086 -0.391
      vertex 47.9944 29.0238 -0.091
      vertex 47.9944 29.0238 -0.391
    endloop
  endfacet
  facet normal 0.99703 0.0770177 -0
    outer loop
      vertex 47.9724 29.3086 -0.391
      vertex 47.9724 29.3086 -0.091
      vertex 47.9944 29.0238 -0.091
    endloop
  endfacet
  facet normal 0.991475 0.130298 0
    outer loop
      vertex 47.9358 29.5871 -0.391
      vertex 47.9724 29.3086 -0.091
      vertex 47.9724 29.3086 -0.391
    endloop
  endfacet
  facet normal 0.991475 0.130298 -0
    outer loop
      vertex 47.9358 29.5871 -0.391
      vertex 47.9358 29.5871 -0.091
      vertex 47.9724 29.3086 -0.091
    endloop
  endfacet
  facet normal 0.982634 0.185553 0
    outer loop
      vertex 47.8844 29.8593 -0.391
      vertex 47.9358 29.5871 -0.091
      vertex 47.9358 29.5871 -0.391
    endloop
  endfacet
  facet normal 0.982634 0.185553 -0
    outer loop
      vertex 47.8844 29.8593 -0.391
      vertex 47.8844 29.8593 -0.091
      vertex 47.9358 29.5871 -0.091
    endloop
  endfacet
  facet normal 0.970528 0.240989 0
    outer loop
      vertex 47.8184 30.1251 -0.391
      vertex 47.8844 29.8593 -0.091
      vertex 47.8844 29.8593 -0.391
    endloop
  endfacet
  facet normal 0.970528 0.240989 -0
    outer loop
      vertex 47.8184 30.1251 -0.391
      vertex 47.8184 30.1251 -0.091
      vertex 47.8844 29.8593 -0.091
    endloop
  endfacet
  facet normal 0.954892 0.296955 0
    outer loop
      vertex 47.7377 30.3846 -0.391
      vertex 47.8184 30.1251 -0.091
      vertex 47.8184 30.1251 -0.391
    endloop
  endfacet
  facet normal 0.954892 0.296955 -0
    outer loop
      vertex 47.7377 30.3846 -0.391
      vertex 47.7377 30.3846 -0.091
      vertex 47.8184 30.1251 -0.091
    endloop
  endfacet
  facet normal 0.935735 0.352703 0
    outer loop
      vertex 47.6423 30.6377 -0.391
      vertex 47.7377 30.3846 -0.091
      vertex 47.7377 30.3846 -0.391
    endloop
  endfacet
  facet normal 0.935735 0.352703 -0
    outer loop
      vertex 47.6423 30.6377 -0.391
      vertex 47.6423 30.6377 -0.091
      vertex 47.7377 30.3846 -0.091
    endloop
  endfacet
  facet normal 0.913384 0.4071 0
    outer loop
      vertex 47.5323 30.8845 -0.391
      vertex 47.6423 30.6377 -0.091
      vertex 47.6423 30.6377 -0.391
    endloop
  endfacet
  facet normal 0.913384 0.4071 -0
    outer loop
      vertex 47.5323 30.8845 -0.391
      vertex 47.5323 30.8845 -0.091
      vertex 47.6423 30.6377 -0.091
    endloop
  endfacet
  facet normal 0.887682 0.460457 0
    outer loop
      vertex 47.4076 31.1249 -0.391
      vertex 47.5323 30.8845 -0.091
      vertex 47.5323 30.8845 -0.391
    endloop
  endfacet
  facet normal 0.887682 0.460457 -0
    outer loop
      vertex 47.4076 31.1249 -0.391
      vertex 47.4076 31.1249 -0.091
      vertex 47.5323 30.8845 -0.091
    endloop
  endfacet
  facet normal 0.859366 0.511361 0
    outer loop
      vertex 47.2683 31.359 -0.391
      vertex 47.4076 31.1249 -0.091
      vertex 47.4076 31.1249 -0.391
    endloop
  endfacet
  facet normal 0.859366 0.511361 -0
    outer loop
      vertex 47.2683 31.359 -0.391
      vertex 47.2683 31.359 -0.091
      vertex 47.4076 31.1249 -0.091
    endloop
  endfacet
  facet normal 0.828283 0.560309 0
    outer loop
      vertex 47.1142 31.5868 -0.391
      vertex 47.2683 31.359 -0.091
      vertex 47.2683 31.359 -0.391
    endloop
  endfacet
  facet normal 0.828283 0.560309 -0
    outer loop
      vertex 47.1142 31.5868 -0.391
      vertex 47.1142 31.5868 -0.091
      vertex 47.2683 31.359 -0.091
    endloop
  endfacet
  facet normal 0.795407 0.606076 0
    outer loop
      vertex 46.9455 31.8082 -0.391
      vertex 47.1142 31.5868 -0.091
      vertex 47.1142 31.5868 -0.391
    endloop
  endfacet
  facet normal 0.795407 0.606076 -0
    outer loop
      vertex 46.9455 31.8082 -0.391
      vertex 46.9455 31.8082 -0.091
      vertex 47.1142 31.5868 -0.091
    endloop
  endfacet
  facet normal 0.760952 0.648808 0
    outer loop
      vertex 46.7621 32.0233 -0.391
      vertex 46.9455 31.8082 -0.091
      vertex 46.9455 31.8082 -0.391
    endloop
  endfacet
  facet normal 0.760952 0.648808 -0
    outer loop
      vertex 46.7621 32.0233 -0.391
      vertex 46.7621 32.0233 -0.091
      vertex 46.9455 31.8082 -0.091
    endloop
  endfacet
  facet normal 0.725035 0.688712 0
    outer loop
      vertex 46.5687 32.2269 -0.391
      vertex 46.7621 32.0233 -0.091
      vertex 46.7621 32.0233 -0.391
    endloop
  endfacet
  facet normal 0.725035 0.688712 -0
    outer loop
      vertex 46.5687 32.2269 -0.391
      vertex 46.5687 32.2269 -0.091
      vertex 46.7621 32.0233 -0.091
    endloop
  endfacet
  facet normal 0.685023 0.728522 0
    outer loop
      vertex 46.3694 32.4143 -0.391
      vertex 46.5687 32.2269 -0.091
      vertex 46.5687 32.2269 -0.391
    endloop
  endfacet
  facet normal 0.685023 0.728522 -0
    outer loop
      vertex 46.3694 32.4143 -0.391
      vertex 46.3694 32.4143 -0.091
      vertex 46.5687 32.2269 -0.091
    endloop
  endfacet
  facet normal 0.640958 0.767576 0
    outer loop
      vertex 46.1645 32.5854 -0.391
      vertex 46.3694 32.4143 -0.091
      vertex 46.3694 32.4143 -0.391
    endloop
  endfacet
  facet normal 0.640958 0.767576 -0
    outer loop
      vertex 46.1645 32.5854 -0.391
      vertex 46.1645 32.5854 -0.091
      vertex 46.3694 32.4143 -0.091
    endloop
  endfacet
  facet normal 0.592259 0.805748 0
    outer loop
      vertex 45.9539 32.7402 -0.391
      vertex 46.1645 32.5854 -0.091
      vertex 46.1645 32.5854 -0.391
    endloop
  endfacet
  facet normal 0.592259 0.805748 -0
    outer loop
      vertex 45.9539 32.7402 -0.391
      vertex 45.9539 32.7402 -0.091
      vertex 46.1645 32.5854 -0.091
    endloop
  endfacet
  facet normal 0.538789 0.842441 0
    outer loop
      vertex 45.7375 32.8786 -0.391
      vertex 45.9539 32.7402 -0.091
      vertex 45.9539 32.7402 -0.391
    endloop
  endfacet
  facet normal 0.538789 0.842441 -0
    outer loop
      vertex 45.7375 32.8786 -0.391
      vertex 45.7375 32.8786 -0.091
      vertex 45.9539 32.7402 -0.091
    endloop
  endfacet
  facet normal 0.482055 0.876141 0
    outer loop
      vertex 45.5154 33.0008 -0.391
      vertex 45.7375 32.8786 -0.091
      vertex 45.7375 32.8786 -0.391
    endloop
  endfacet
  facet normal 0.482055 0.876141 -0
    outer loop
      vertex 45.5154 33.0008 -0.391
      vertex 45.5154 33.0008 -0.091
      vertex 45.7375 32.8786 -0.091
    endloop
  endfacet
  facet normal 0.421556 0.906803 0
    outer loop
      vertex 45.2876 33.1067 -0.391
      vertex 45.5154 33.0008 -0.091
      vertex 45.5154 33.0008 -0.391
    endloop
  endfacet
  facet normal 0.421556 0.906803 -0
    outer loop
      vertex 45.2876 33.1067 -0.391
      vertex 45.2876 33.1067 -0.091
      vertex 45.5154 33.0008 -0.091
    endloop
  endfacet
  facet normal 0.358256 0.933624 0
    outer loop
      vertex 45.0541 33.1963 -0.391
      vertex 45.2876 33.1067 -0.091
      vertex 45.2876 33.1067 -0.391
    endloop
  endfacet
  facet normal 0.358256 0.933624 -0
    outer loop
      vertex 45.0541 33.1963 -0.391
      vertex 45.0541 33.1963 -0.091
      vertex 45.2876 33.1067 -0.091
    endloop
  endfacet
  facet normal 0.293244 0.956038 0
    outer loop
      vertex 44.8148 33.2697 -0.391
      vertex 45.0541 33.1963 -0.091
      vertex 45.0541 33.1963 -0.391
    endloop
  endfacet
  facet normal 0.293244 0.956038 -0
    outer loop
      vertex 44.8148 33.2697 -0.391
      vertex 44.8148 33.2697 -0.091
      vertex 45.0541 33.1963 -0.091
    endloop
  endfacet
  facet normal 0.226601 0.973988 0
    outer loop
      vertex 44.5698 33.3267 -0.391
      vertex 44.8148 33.2697 -0.091
      vertex 44.8148 33.2697 -0.391
    endloop
  endfacet
  facet normal 0.226601 0.973988 -0
    outer loop
      vertex 44.5698 33.3267 -0.391
      vertex 44.5698 33.3267 -0.091
      vertex 44.8148 33.2697 -0.091
    endloop
  endfacet
  facet normal 0.160247 0.987077 0
    outer loop
      vertex 44.3191 33.3674 -0.391
      vertex 44.5698 33.3267 -0.091
      vertex 44.5698 33.3267 -0.391
    endloop
  endfacet
  facet normal 0.160247 0.987077 -0
    outer loop
      vertex 44.3191 33.3674 -0.391
      vertex 44.3191 33.3674 -0.091
      vertex 44.5698 33.3267 -0.091
    endloop
  endfacet
  facet normal 0.0947358 0.995502 0
    outer loop
      vertex 44.0627 33.3918 -0.391
      vertex 44.3191 33.3674 -0.091
      vertex 44.3191 33.3674 -0.391
    endloop
  endfacet
  facet normal 0.0947358 0.995502 -0
    outer loop
      vertex 44.0627 33.3918 -0.391
      vertex 44.0627 33.3918 -0.091
      vertex 44.3191 33.3674 -0.091
    endloop
  endfacet
  facet normal 0.0312586 0.999511 0
    outer loop
      vertex 43.8005 33.4 -0.391
      vertex 44.0627 33.3918 -0.091
      vertex 44.0627 33.3918 -0.391
    endloop
  endfacet
  facet normal 0.0312586 0.999511 -0
    outer loop
      vertex 43.8005 33.4 -0.391
      vertex 43.8005 33.4 -0.091
      vertex 44.0627 33.3918 -0.091
    endloop
  endfacet
  facet normal 0 1 0
    outer loop
      vertex 10.1959 33.4 -0.391
      vertex 43.8005 33.4 -0.091
      vertex 43.8005 33.4 -0.391
    endloop
  endfacet
  facet normal 0 1 0
    outer loop
      vertex 10.1959 33.4 -0.391
      vertex 10.1959 33.4 -0.091
      vertex 43.8005 33.4 -0.091
    endloop
  endfacet
  facet normal -0.0312681 0.999511 0
    outer loop
      vertex 9.93378 33.3918 -0.391
      vertex 10.1959 33.4 -0.091
      vertex 10.1959 33.4 -0.391
    endloop
  endfacet
  facet normal -0.0312681 0.999511 0
    outer loop
      vertex 9.93378 33.3918 -0.391
      vertex 9.93378 33.3918 -0.091
      vertex 10.1959 33.4 -0.091
    endloop
  endfacet
  facet normal -0.0947212 0.995504 0
    outer loop
      vertex 9.67734 33.3674 -0.391
      vertex 9.93378 33.3918 -0.091
      vertex 9.93378 33.3918 -0.391
    endloop
  endfacet
  facet normal -0.0947212 0.995504 0
    outer loop
      vertex 9.67734 33.3674 -0.391
      vertex 9.67734 33.3674 -0.091
      vertex 9.93378 33.3918 -0.091
    endloop
  endfacet
  facet normal -0.160247 0.987077 0
    outer loop
      vertex 9.42664 33.3267 -0.391
      vertex 9.67734 33.3674 -0.091
      vertex 9.67734 33.3674 -0.391
    endloop
  endfacet
  facet normal -0.160247 0.987077 0
    outer loop
      vertex 9.42664 33.3267 -0.391
      vertex 9.42664 33.3267 -0.091
      vertex 9.67734 33.3674 -0.091
    endloop
  endfacet
  facet normal -0.226619 0.973984 0
    outer loop
      vertex 9.18166 33.2697 -0.391
      vertex 9.42664 33.3267 -0.091
      vertex 9.42664 33.3267 -0.391
    endloop
  endfacet
  facet normal -0.226619 0.973984 0
    outer loop
      vertex 9.18166 33.2697 -0.391
      vertex 9.18166 33.2697 -0.091
      vertex 9.42664 33.3267 -0.091
    endloop
  endfacet
  facet normal -0.293266 0.956031 0
    outer loop
      vertex 8.94238 33.1963 -0.391
      vertex 9.18166 33.2697 -0.091
      vertex 9.18166 33.2697 -0.391
    endloop
  endfacet
  facet normal -0.293266 0.956031 0
    outer loop
      vertex 8.94238 33.1963 -0.391
      vertex 8.94238 33.1963 -0.091
      vertex 9.18166 33.2697 -0.091
    endloop
  endfacet
  facet normal -0.358215 0.933639 0
    outer loop
      vertex 8.70885 33.1067 -0.391
      vertex 8.94238 33.1963 -0.091
      vertex 8.94238 33.1963 -0.391
    endloop
  endfacet
  facet normal -0.358215 0.933639 0
    outer loop
      vertex 8.70885 33.1067 -0.391
      vertex 8.70885 33.1067 -0.091
      vertex 8.94238 33.1963 -0.091
    endloop
  endfacet
  facet normal -0.421525 0.906817 0
    outer loop
      vertex 8.48103 33.0008 -0.391
      vertex 8.70885 33.1067 -0.091
      vertex 8.70885 33.1067 -0.391
    endloop
  endfacet
  facet normal -0.421525 0.906817 0
    outer loop
      vertex 8.48103 33.0008 -0.391
      vertex 8.48103 33.0008 -0.091
      vertex 8.70885 33.1067 -0.091
    endloop
  endfacet
  facet normal -0.482055 0.876141 0
    outer loop
      vertex 8.25893 32.8786 -0.391
      vertex 8.48103 33.0008 -0.091
      vertex 8.48103 33.0008 -0.391
    endloop
  endfacet
  facet normal -0.482055 0.876141 0
    outer loop
      vertex 8.25893 32.8786 -0.391
      vertex 8.25893 32.8786 -0.091
      vertex 8.48103 33.0008 -0.091
    endloop
  endfacet
  facet normal -0.538842 0.842407 0
    outer loop
      vertex 8.04256 32.7402 -0.391
      vertex 8.25893 32.8786 -0.091
      vertex 8.25893 32.8786 -0.391
    endloop
  endfacet
  facet normal -0.538842 0.842407 0
    outer loop
      vertex 8.04256 32.7402 -0.391
      vertex 8.04256 32.7402 -0.091
      vertex 8.25893 32.8786 -0.091
    endloop
  endfacet
  facet normal -0.592168 0.805815 0
    outer loop
      vertex 7.83191 32.5854 -0.391
      vertex 8.04256 32.7402 -0.091
      vertex 8.04256 32.7402 -0.391
    endloop
  endfacet
  facet normal -0.592168 0.805815 0
    outer loop
      vertex 7.83191 32.5854 -0.391
      vertex 7.83191 32.5854 -0.091
      vertex 8.04256 32.7402 -0.091
    endloop
  endfacet
  facet normal -0.640903 0.767622 0
    outer loop
      vertex 7.62698 32.4143 -0.391
      vertex 7.83191 32.5854 -0.091
      vertex 7.83191 32.5854 -0.391
    endloop
  endfacet
  facet normal -0.640903 0.767622 0
    outer loop
      vertex 7.62698 32.4143 -0.391
      vertex 7.62698 32.4143 -0.091
      vertex 7.83191 32.5854 -0.091
    endloop
  endfacet
  facet normal -0.685205 0.72835 0
    outer loop
      vertex 7.42778 32.2269 -0.391
      vertex 7.62698 32.4143 -0.091
      vertex 7.62698 32.4143 -0.391
    endloop
  endfacet
  facet normal -0.685205 0.72835 0
    outer loop
      vertex 7.42778 32.2269 -0.391
      vertex 7.42778 32.2269 -0.091
      vertex 7.62698 32.4143 -0.091
    endloop
  endfacet
  facet normal -0.724893 0.688862 0
    outer loop
      vertex 7.2343 32.0233 -0.391
      vertex 7.42778 32.2269 -0.091
      vertex 7.42778 32.2269 -0.391
    endloop
  endfacet
  facet normal -0.724893 0.688862 0
    outer loop
      vertex 7.2343 32.0233 -0.391
      vertex 7.2343 32.0233 -0.091
      vertex 7.42778 32.2269 -0.091
    endloop
  endfacet
  facet normal -0.761179 0.648542 0
    outer loop
      vertex 7.05103 31.8082 -0.391
      vertex 7.2343 32.0233 -0.091
      vertex 7.2343 32.0233 -0.391
    endloop
  endfacet
  facet normal -0.761179 0.648542 0
    outer loop
      vertex 7.05103 31.8082 -0.391
      vertex 7.05103 31.8082 -0.091
      vertex 7.2343 32.0233 -0.091
    endloop
  endfacet
  facet normal -0.795511 0.605939 0
    outer loop
      vertex 6.88239 31.5868 -0.391
      vertex 7.05103 31.8082 -0.091
      vertex 7.05103 31.8082 -0.391
    endloop
  endfacet
  facet normal -0.795511 0.605939 0
    outer loop
      vertex 6.88239 31.5868 -0.391
      vertex 6.88239 31.5868 -0.091
      vertex 7.05103 31.8082 -0.091
    endloop
  endfacet
  facet normal -0.828537 0.559935 0
    outer loop
      vertex 6.72844 31.359 -0.391
      vertex 6.88239 31.5868 -0.091
      vertex 6.88239 31.5868 -0.391
    endloop
  endfacet
  facet normal -0.828537 0.559935 0
    outer loop
      vertex 6.72844 31.359 -0.391
      vertex 6.72844 31.359 -0.091
      vertex 6.88239 31.5868 -0.091
    endloop
  endfacet
  facet normal -0.85935 0.511388 0
    outer loop
      vertex 6.58913 31.1249 -0.391
      vertex 6.72844 31.359 -0.091
      vertex 6.72844 31.359 -0.391
    endloop
  endfacet
  facet normal -0.85935 0.511388 0
    outer loop
      vertex 6.58913 31.1249 -0.391
      vertex 6.58913 31.1249 -0.091
      vertex 6.72844 31.359 -0.091
    endloop
  endfacet
  facet normal -0.887772 0.460283 0
    outer loop
      vertex 6.46449 30.8845 -0.391
      vertex 6.58913 31.1249 -0.091
      vertex 6.58913 31.1249 -0.391
    endloop
  endfacet
  facet normal -0.887772 0.460283 0
    outer loop
      vertex 6.46449 30.8845 -0.391
      vertex 6.46449 30.8845 -0.091
      vertex 6.58913 31.1249 -0.091
    endloop
  endfacet
  facet normal -0.913425 0.407007 0
    outer loop
      vertex 6.35452 30.6377 -0.391
      vertex 6.46449 30.8845 -0.091
      vertex 6.46449 30.8845 -0.391
    endloop
  endfacet
  facet normal -0.913425 0.407007 0
    outer loop
      vertex 6.35452 30.6377 -0.391
      vertex 6.35452 30.6377 -0.091
      vertex 6.46449 30.8845 -0.091
    endloop
  endfacet
  facet normal -0.935833 0.352444 0
    outer loop
      vertex 6.2592 30.3846 -0.391
      vertex 6.35452 30.6377 -0.091
      vertex 6.35452 30.6377 -0.391
    endloop
  endfacet
  facet normal -0.935833 0.352444 0
    outer loop
      vertex 6.2592 30.3846 -0.391
      vertex 6.2592 30.3846 -0.091
      vertex 6.35452 30.6377 -0.091
    endloop
  endfacet
  facet normal -0.954965 0.29672 0
    outer loop
      vertex 6.17857 30.1251 -0.391
      vertex 6.2592 30.3846 -0.091
      vertex 6.2592 30.3846 -0.391
    endloop
  endfacet
  facet normal -0.954965 0.29672 0
    outer loop
      vertex 6.17857 30.1251 -0.391
      vertex 6.17857 30.1251 -0.091
      vertex 6.2592 30.3846 -0.091
    endloop
  endfacet
  facet normal -0.970536 0.240954 0
    outer loop
      vertex 6.11258 29.8593 -0.391
      vertex 6.17857 30.1251 -0.091
      vertex 6.17857 30.1251 -0.391
    endloop
  endfacet
  facet normal -0.970536 0.240954 0
    outer loop
      vertex 6.11258 29.8593 -0.391
      vertex 6.11258 29.8593 -0.091
      vertex 6.17857 30.1251 -0.091
    endloop
  endfacet
  facet normal -0.982687 0.185274 0
    outer loop
      vertex 6.06126 29.5871 -0.391
      vertex 6.11258 29.8593 -0.091
      vertex 6.11258 29.8593 -0.391
    endloop
  endfacet
  facet normal -0.982687 0.185274 0
    outer loop
      vertex 6.06126 29.5871 -0.391
      vertex 6.06126 29.5871 -0.091
      vertex 6.11258 29.8593 -0.091
    endloop
  endfacet
  facet normal -0.991452 0.130473 0
    outer loop
      vertex 6.02461 29.3086 -0.391
      vertex 6.06126 29.5871 -0.091
      vertex 6.06126 29.5871 -0.391
    endloop
  endfacet
  facet normal -0.991452 0.130473 0
    outer loop
      vertex 6.02461 29.3086 -0.391
      vertex 6.02461 29.3086 -0.091
      vertex 6.06126 29.5871 -0.091
    endloop
  endfacet
  facet normal -0.99703 0.0770177 0
    outer loop
      vertex 6.00261 29.0238 -0.391
      vertex 6.02461 29.3086 -0.091
      vertex 6.02461 29.3086 -0.391
    endloop
  endfacet
  facet normal -0.99703 0.0770177 0
    outer loop
      vertex 6.00261 29.0238 -0.391
      vertex 6.00261 29.0238 -0.091
      vertex 6.02461 29.3086 -0.091
    endloop
  endfacet
  facet normal -0.999682 0.025198 0
    outer loop
      vertex 5.99527 28.7326 -0.391
      vertex 6.00261 29.0238 -0.091
      vertex 6.00261 29.0238 -0.391
    endloop
  endfacet
  facet normal -0.999682 0.025198 0
    outer loop
      vertex 5.99527 28.7326 -0.391
      vertex 5.99527 28.7326 -0.091
      vertex 6.00261 29.0238 -0.091
    endloop
  endfacet
  facet normal -0.999447 -0.0332592 0
    outer loop
      vertex 6.00523 28.4333 -0.391
      vertex 5.99527 28.7326 -0.091
      vertex 5.99527 28.7326 -0.391
    endloop
  endfacet
  facet normal -0.999447 -0.0332592 0
    outer loop
      vertex 6.00523 28.4333 -0.391
      vertex 6.00523 28.4333 -0.091
      vertex 5.99527 28.7326 -0.091
    endloop
  endfacet
  facet normal -0.995382 -0.0959982 0
    outer loop
      vertex 6.03506 28.124 -0.391
      vertex 6.00523 28.4333 -0.091
      vertex 6.00523 28.4333 -0.391
    endloop
  endfacet
  facet normal -0.995382 -0.0959982 0
    outer loop
      vertex 6.03506 28.124 -0.391
      vertex 6.03506 28.124 -0.091
      vertex 6.00523 28.4333 -0.091
    endloop
  endfacet
  facet normal -0.988092 -0.153861 0
    outer loop
      vertex 6.08478 27.8047 -0.391
      vertex 6.03506 28.124 -0.091
      vertex 6.03506 28.124 -0.391
    endloop
  endfacet
  facet normal -0.988092 -0.153861 0
    outer loop
      vertex 6.08478 27.8047 -0.391
      vertex 6.08478 27.8047 -0.091
      vertex 6.03506 28.124 -0.091
    endloop
  endfacet
  facet normal -0.978354 -0.206938 0
    outer loop
      vertex 6.15439 27.4756 -0.391
      vertex 6.08478 27.8047 -0.091
      vertex 6.08478 27.8047 -0.391
    endloop
  endfacet
  facet normal -0.978354 -0.206938 0
    outer loop
      vertex 6.15439 27.4756 -0.391
      vertex 6.15439 27.4756 -0.091
      vertex 6.08478 27.8047 -0.091
    endloop
  endfacet
  facet normal -0.966915 -0.255098 0
    outer loop
      vertex 6.24388 27.1364 -0.391
      vertex 6.15439 27.4756 -0.091
      vertex 6.15439 27.4756 -0.391
    endloop
  endfacet
  facet normal -0.966915 -0.255098 0
    outer loop
      vertex 6.24388 27.1364 -0.391
      vertex 6.24388 27.1364 -0.091
      vertex 6.15439 27.4756 -0.091
    endloop
  endfacet
  facet normal -0.954233 -0.299066 0
    outer loop
      vertex 6.35326 26.7874 -0.391
      vertex 6.24388 27.1364 -0.091
      vertex 6.24388 27.1364 -0.391
    endloop
  endfacet
  facet normal -0.954233 -0.299066 0
    outer loop
      vertex 6.35326 26.7874 -0.391
      vertex 6.35326 26.7874 -0.091
      vertex 6.24388 27.1364 -0.091
    endloop
  endfacet
  facet normal -0.940892 -0.338706 0
    outer loop
      vertex 6.48253 26.4283 -0.391
      vertex 6.35326 26.7874 -0.091
      vertex 6.35326 26.7874 -0.391
    endloop
  endfacet
  facet normal -0.940892 -0.338706 0
    outer loop
      vertex 6.48253 26.4283 -0.391
      vertex 6.48253 26.4283 -0.091
      vertex 6.35326 26.7874 -0.091
    endloop
  endfacet
  facet normal -0.927128 -0.374746 0
    outer loop
      vertex 6.63168 26.0593 -0.391
      vertex 6.48253 26.4283 -0.091
      vertex 6.48253 26.4283 -0.391
    endloop
  endfacet
  facet normal -0.927128 -0.374746 0
    outer loop
      vertex 6.63168 26.0593 -0.391
      vertex 6.63168 26.0593 -0.091
      vertex 6.48253 26.4283 -0.091
    endloop
  endfacet
  facet normal -0.91322 -0.407466 0
    outer loop
      vertex 6.80074 25.6804 -0.391
      vertex 6.63168 26.0593 -0.091
      vertex 6.63168 26.0593 -0.391
    endloop
  endfacet
  facet normal -0.91322 -0.407466 0
    outer loop
      vertex 6.80074 25.6804 -0.391
      vertex 6.80074 25.6804 -0.091
      vertex 6.63168 26.0593 -0.091
    endloop
  endfacet
  facet normal -0.899494 -0.436933 0
    outer loop
      vertex 6.98965 25.2915 -0.391
      vertex 6.80074 25.6804 -0.091
      vertex 6.80074 25.6804 -0.391
    endloop
  endfacet
  facet normal -0.899494 -0.436933 0
    outer loop
      vertex 6.98965 25.2915 -0.391
      vertex 6.98965 25.2915 -0.091
      vertex 6.80074 25.6804 -0.091
    endloop
  endfacet
  facet normal -0.885882 -0.463911 0
    outer loop
      vertex 7.19849 24.8927 -0.391
      vertex 6.98965 25.2915 -0.091
      vertex 6.98965 25.2915 -0.391
    endloop
  endfacet
  facet normal -0.885882 -0.463911 0
    outer loop
      vertex 7.19849 24.8927 -0.391
      vertex 7.19849 24.8927 -0.091
      vertex 6.98965 25.2915 -0.091
    endloop
  endfacet
  facet normal -0.872713 -0.488233 0
    outer loop
      vertex 7.42719 24.4839 -0.391
      vertex 7.19849 24.8927 -0.091
      vertex 7.19849 24.8927 -0.391
    endloop
  endfacet
  facet normal -0.872713 -0.488233 0
    outer loop
      vertex 7.42719 24.4839 -0.391
      vertex 7.42719 24.4839 -0.091
      vertex 7.19849 24.8927 -0.091
    endloop
  endfacet
  facet normal -0.859867 -0.510519 0
    outer loop
      vertex 7.67578 24.0652 -0.391
      vertex 7.42719 24.4839 -0.091
      vertex 7.42719 24.4839 -0.391
    endloop
  endfacet
  facet normal -0.859867 -0.510519 0
    outer loop
      vertex 7.67578 24.0652 -0.391
      vertex 7.67578 24.0652 -0.091
      vertex 7.42719 24.4839 -0.091
    endloop
  endfacet
  facet normal -0.874741 -0.484591 0
    outer loop
      vertex 19.3112 3.06194 -0.391
      vertex 7.67578 24.0652 -0.091
      vertex 7.67578 24.0652 -0.391
    endloop
  endfacet
  facet normal -0.874741 -0.484591 0
    outer loop
      vertex 19.3112 3.06194 -0.391
      vertex 19.3112 3.06194 -0.091
      vertex 7.67578 24.0652 -0.091
    endloop
  endfacet
  facet normal 0 1 0
    outer loop
      vertex 14.396 3.06194 -0.391
      vertex 19.3112 3.06194 -0.091
      vertex 19.3112 3.06194 -0.391
    endloop
  endfacet
  facet normal 0 1 0
    outer loop
      vertex 14.396 3.06194 -0.391
      vertex 14.396 3.06194 -0.091
      vertex 19.3112 3.06194 -0.091
    endloop
  endfacet
  facet normal -0.03108 0.999517 0
    outer loop
      vertex 14.1339 3.05379 -0.391
      vertex 14.396 3.06194 -0.091
      vertex 14.396 3.06194 -0.391
    endloop
  endfacet
  facet normal -0.03108 0.999517 0
    outer loop
      vertex 14.1339 3.05379 -0.391
      vertex 14.1339 3.05379 -0.091
      vertex 14.396 3.06194 -0.091
    endloop
  endfacet
  facet normal -0.0948512 0.995491 0
    outer loop
      vertex 13.8775 3.02936 -0.391
      vertex 14.1339 3.05379 -0.091
      vertex 14.1339 3.05379 -0.391
    endloop
  endfacet
  facet normal -0.0948512 0.995491 0
    outer loop
      vertex 13.8775 3.02936 -0.391
      vertex 13.8775 3.02936 -0.091
      vertex 14.1339 3.05379 -0.091
    endloop
  endfacet
  facet normal -0.160463 0.987042 0
    outer loop
      vertex 13.6269 2.98862 -0.391
      vertex 13.8775 3.02936 -0.091
      vertex 13.8775 3.02936 -0.391
    endloop
  endfacet
  facet normal -0.160463 0.987042 0
    outer loop
      vertex 13.6269 2.98862 -0.391
      vertex 13.6269 2.98862 -0.091
      vertex 13.8775 3.02936 -0.091
    endloop
  endfacet
  facet normal -0.226802 0.973941 0
    outer loop
      vertex 13.382 2.93159 -0.391
      vertex 13.6269 2.98862 -0.091
      vertex 13.6269 2.98862 -0.391
    endloop
  endfacet
  facet normal -0.226802 0.973941 0
    outer loop
      vertex 13.382 2.93159 -0.391
      vertex 13.382 2.93159 -0.091
      vertex 13.6269 2.98862 -0.091
    endloop
  endfacet
  facet normal -0.29299 0.956115 0
    outer loop
      vertex 13.1428 2.85829 -0.391
      vertex 13.382 2.93159 -0.091
      vertex 13.382 2.93159 -0.391
    endloop
  endfacet
  facet normal -0.29299 0.956115 0
    outer loop
      vertex 13.1428 2.85829 -0.391
      vertex 13.1428 2.85829 -0.091
      vertex 13.382 2.93159 -0.091
    endloop
  endfacet
  facet normal -0.35829 0.93361 0
    outer loop
      vertex 12.9093 2.76868 -0.391
      vertex 13.1428 2.85829 -0.091
      vertex 13.1428 2.85829 -0.391
    endloop
  endfacet
  facet normal -0.35829 0.93361 0
    outer loop
      vertex 12.9093 2.76868 -0.391
      vertex 12.9093 2.76868 -0.091
      vertex 13.1428 2.85829 -0.091
    endloop
  endfacet
  facet normal -0.421556 0.906803 0
    outer loop
      vertex 12.6815 2.66278 -0.391
      vertex 12.9093 2.76868 -0.091
      vertex 12.9093 2.76868 -0.391
    endloop
  endfacet
  facet normal -0.421556 0.906803 0
    outer loop
      vertex 12.6815 2.66278 -0.391
      vertex 12.6815 2.66278 -0.091
      vertex 12.9093 2.76868 -0.091
    endloop
  endfacet
  facet normal -0.482191 0.876066 0
    outer loop
      vertex 12.4595 2.54059 -0.391
      vertex 12.6815 2.66278 -0.091
      vertex 12.6815 2.66278 -0.391
    endloop
  endfacet
  facet normal -0.482191 0.876066 0
    outer loop
      vertex 12.4595 2.54059 -0.391
      vertex 12.4595 2.54059 -0.091
      vertex 12.6815 2.66278 -0.091
    endloop
  endfacet
  facet normal -0.539037 0.842282 0
    outer loop
      vertex 12.2431 2.4021 -0.391
      vertex 12.4595 2.54059 -0.091
      vertex 12.4595 2.54059 -0.391
    endloop
  endfacet
  facet normal -0.539037 0.842282 0
    outer loop
      vertex 12.2431 2.4021 -0.391
      vertex 12.2431 2.4021 -0.091
      vertex 12.4595 2.54059 -0.091
    endloop
  endfacet
  facet normal -0.592184 0.805802 0
    outer loop
      vertex 12.0325 2.24733 -0.391
      vertex 12.2431 2.4021 -0.091
      vertex 12.2431 2.4021 -0.391
    endloop
  endfacet
  facet normal -0.592184 0.805802 0
    outer loop
      vertex 12.0325 2.24733 -0.391
      vertex 12.0325 2.24733 -0.091
      vertex 12.2431 2.4021 -0.091
    endloop
  endfacet
  facet normal -0.640892 0.767631 0
    outer loop
      vertex 11.8276 2.07626 -0.391
      vertex 12.0325 2.24733 -0.091
      vertex 12.0325 2.24733 -0.391
    endloop
  endfacet
  facet normal -0.640892 0.767631 0
    outer loop
      vertex 11.8276 2.07626 -0.391
      vertex 11.8276 2.07626 -0.091
      vertex 12.0325 2.24733 -0.091
    endloop
  endfacet
  facet normal -0.685127 0.728423 0
    outer loop
      vertex 11.6284 1.8889 -0.391
      vertex 11.8276 2.07626 -0.091
      vertex 11.8276 2.07626 -0.391
    endloop
  endfacet
  facet normal -0.685127 0.728423 0
    outer loop
      vertex 11.6284 1.8889 -0.391
      vertex 11.6284 1.8889 -0.091
      vertex 11.8276 2.07626 -0.091
    endloop
  endfacet
  facet normal -0.725103 0.688641 0
    outer loop
      vertex 11.435 1.68526 -0.391
      vertex 11.6284 1.8889 -0.091
      vertex 11.6284 1.8889 -0.391
    endloop
  endfacet
  facet normal -0.725103 0.688641 0
    outer loop
      vertex 11.435 1.68526 -0.391
      vertex 11.435 1.68526 -0.091
      vertex 11.6284 1.8889 -0.091
    endloop
  endfacet
  facet normal -0.761112 0.648621 0
    outer loop
      vertex 11.2517 1.47017 -0.391
      vertex 11.435 1.68526 -0.091
      vertex 11.435 1.68526 -0.391
    endloop
  endfacet
  facet normal -0.761112 0.648621 0
    outer loop
      vertex 11.2517 1.47017 -0.391
      vertex 11.2517 1.47017 -0.091
      vertex 11.435 1.68526 -0.091
    endloop
  endfacet
  facet normal -0.79542 0.606058 0
    outer loop
      vertex 11.083 1.24876 -0.391
      vertex 11.2517 1.47017 -0.091
      vertex 11.2517 1.47017 -0.391
    endloop
  endfacet
  facet normal -0.79542 0.606058 0
    outer loop
      vertex 11.083 1.24876 -0.391
      vertex 11.083 1.24876 -0.091
      vertex 11.2517 1.47017 -0.091
    endloop
  endfacet
  facet normal -0.828575 0.559878 0
    outer loop
      vertex 10.9291 1.021 -0.391
      vertex 11.083 1.24876 -0.091
      vertex 11.083 1.24876 -0.391
    endloop
  endfacet
  facet normal -0.828575 0.559878 0
    outer loop
      vertex 10.9291 1.021 -0.391
      vertex 10.9291 1.021 -0.091
      vertex 11.083 1.24876 -0.091
    endloop
  endfacet
  facet normal -0.85937 0.511355 0
    outer loop
      vertex 10.7898 0.786896 -0.391
      vertex 10.9291 1.021 -0.091
      vertex 10.9291 1.021 -0.391
    endloop
  endfacet
  facet normal -0.85937 0.511355 0
    outer loop
      vertex 10.7898 0.786896 -0.391
      vertex 10.7898 0.786896 -0.091
      vertex 10.9291 1.021 -0.091
    endloop
  endfacet
  facet normal -0.887719 0.460385 0
    outer loop
      vertex 10.6651 0.546448 -0.391
      vertex 10.7898 0.786896 -0.091
      vertex 10.7898 0.786896 -0.391
    endloop
  endfacet
  facet normal -0.887719 0.460385 0
    outer loop
      vertex 10.6651 0.546448 -0.391
      vertex 10.6651 0.546448 -0.091
      vertex 10.7898 0.786896 -0.091
    endloop
  endfacet
  facet normal -0.913519 0.406796 0
    outer loop
      vertex 10.5552 0.299652 -0.391
      vertex 10.6651 0.546448 -0.091
      vertex 10.6651 0.546448 -0.391
    endloop
  endfacet
  facet normal -0.913519 0.406796 0
    outer loop
      vertex 10.5552 0.299652 -0.391
      vertex 10.5552 0.299652 -0.091
      vertex 10.6651 0.546448 -0.091
    endloop
  endfacet
  facet normal -0.93587 0.352345 0
    outer loop
      vertex 10.4599 0.046524 -0.391
      vertex 10.5552 0.299652 -0.091
      vertex 10.5552 0.299652 -0.391
    endloop
  endfacet
  facet normal -0.93587 0.352345 0
    outer loop
      vertex 10.4599 0.046524 -0.391
      vertex 10.4599 0.046524 -0.091
      vertex 10.5552 0.299652 -0.091
    endloop
  endfacet
  facet normal -0.954879 0.296996 0
    outer loop
      vertex 10.3792 -0.212936 -0.391
      vertex 10.4599 0.046524 -0.091
      vertex 10.4599 0.046524 -0.391
    endloop
  endfacet
  facet normal -0.954879 0.296996 0
    outer loop
      vertex 10.3792 -0.212936 -0.391
      vertex 10.3792 -0.212936 -0.091
      vertex 10.4599 0.046524 -0.091
    endloop
  endfacet
  facet normal -0.97053 0.240981 0
    outer loop
      vertex 10.3132 -0.478745 -0.391
      vertex 10.3792 -0.212936 -0.091
      vertex 10.3792 -0.212936 -0.391
    endloop
  endfacet
  facet normal -0.97053 0.240981 0
    outer loop
      vertex 10.3132 -0.478745 -0.391
      vertex 10.3132 -0.478745 -0.091
      vertex 10.3792 -0.212936 -0.091
    endloop
  endfacet
  facet normal -0.982699 0.185212 0
    outer loop
      vertex 10.2715 -0.699997 -0.391
      vertex 10.3132 -0.478745 -0.091
      vertex 10.3132 -0.478745 -0.391
    endloop
  endfacet
  facet normal -0.982699 0.185212 0
    outer loop
      vertex 10.2715 -0.699997 -0.391
      vertex 10.2715 -0.699997 -0.091
      vertex 10.3132 -0.478745 -0.091
    endloop
  endfacet
  facet normal 0 -1 0
    outer loop
      vertex 43.7255 -0.699997 -0.391
      vertex 10.2715 -0.699997 -0.091
      vertex 10.2715 -0.699997 -0.391
    endloop
  endfacet
  facet normal 0 -1 0
    outer loop
      vertex 43.7255 -0.699997 -0.391
      vertex 43.7255 -0.699997 -0.091
      vertex 10.2715 -0.699997 -0.091
    endloop
  endfacet
  facet normal 0.982699 0.185212 0
    outer loop
      vertex 43.6838 -0.478745 -0.391
      vertex 43.7255 -0.699997 -0.091
      vertex 43.7255 -0.699997 -0.391
    endloop
  endfacet
  facet normal 0.982699 0.185212 -0
    outer loop
      vertex 43.6838 -0.478745 -0.391
      vertex 43.6838 -0.478745 -0.091
      vertex 43.7255 -0.699997 -0.091
    endloop
  endfacet
endsolid OpenSCAD_Model
