solid OpenSCAD_Model
  facet normal 0 0 -1
    outer loop
      vertex 43.5403 33.2027 0.091
      vertex 41.2124 32.0378 0.091
      vertex 43.2877 33.1783 0.091
    endloop
  endfacet
  facet normal 0 0 -1
    outer loop
      vertex 41.05 31.8342 0.091
      vertex 41.2124 32.0378 0.091
      vertex 43.5403 33.2027 0.091
    endloop
  endfacet
  facet normal 0 0 -1
    outer loop
      vertex 43.2877 33.1783 0.091
      vertex 41.3831 32.2252 0.091
      vertex 43.0433 33.1376 0.091
    endloop
  endfacet
  facet normal 0 -0 -1
    outer loop
      vertex 41.7489 32.551 0.091
      vertex 42.807 33.0805 0.091
      vertex 41.5619 32.3963 0.091
    endloop
  endfacet
  facet normal 0 0 -1
    outer loop
      vertex 41.7489 32.551 0.091
      vertex 42.579 33.0072 0.091
      vertex 42.807 33.0805 0.091
    endloop
  endfacet
  facet normal 0 -0 -1
    outer loop
      vertex 42.3592 32.9176 0.091
      vertex 42.579 33.0072 0.091
      vertex 42.1476 32.8117 0.091
    endloop
  endfacet
  facet normal 0 0 -1
    outer loop
      vertex 42.579 33.0072 0.091
      vertex 41.7489 32.551 0.091
      vertex 41.9442 32.6895 0.091
    endloop
  endfacet
  facet normal 0 -0 -1
    outer loop
      vertex 42.1476 32.8117 0.091
      vertex 42.579 33.0072 0.091
      vertex 41.9442 32.6895 0.091
    endloop
  endfacet
  facet normal 0 0 -1
    outer loop
      vertex 41.3831 32.2252 0.091
      vertex 41.5619 32.3963 0.091
      vertex 43.0433 33.1376 0.091
    endloop
  endfacet
  facet normal 0 0 -1
    outer loop
      vertex 43.2877 33.1783 0.091
      vertex 41.2124 32.0378 0.091
      vertex 41.3831 32.2252 0.091
    endloop
  endfacet
  facet normal 0 -0 -1
    outer loop
      vertex 43.8011 33.2109 0.091
      vertex 44.0633 33.2027 0.091
      vertex 41.05 31.8342 0.091
    endloop
  endfacet
  facet normal 0 0 -1
    outer loop
      vertex 40.8928 31.6137 0.091
      vertex 44.5704 33.1376 0.091
      vertex 44.8154 33.0805 0.091
    endloop
  endfacet
  facet normal 0 0 -1
    outer loop
      vertex 40.8928 31.6137 0.091
      vertex 44.3197 33.1783 0.091
      vertex 44.5704 33.1376 0.091
    endloop
  endfacet
  facet normal 0 -0 -1
    outer loop
      vertex 41.05 31.8342 0.091
      vertex 44.0633 33.2027 0.091
      vertex 40.8928 31.6137 0.091
    endloop
  endfacet
  facet normal 0 -0 -1
    outer loop
      vertex 43.5403 33.2027 0.091
      vertex 43.8011 33.2109 0.091
      vertex 41.05 31.8342 0.091
    endloop
  endfacet
  facet normal 0 0 -1
    outer loop
      vertex 41.5619 32.3963 0.091
      vertex 42.807 33.0805 0.091
      vertex 43.0433 33.1376 0.091
    endloop
  endfacet
  facet normal -0 0 -1
    outer loop
      vertex 44.3197 33.1783 0.091
      vertex 40.8928 31.6137 0.091
      vertex 44.0633 33.2027 0.091
    endloop
  endfacet
  facet normal 0 -0 -1
    outer loop
      vertex 44.8154 33.0805 0.091
      vertex 45.0547 33.0072 0.091
      vertex 40.8928 31.6137 0.091
    endloop
  endfacet
  facet normal 0 0 -1
    outer loop
      vertex 40.8928 31.6137 0.091
      vertex 45.0547 33.0072 0.091
      vertex 45.2882 32.9176 0.091
    endloop
  endfacet
  facet normal -0 0 -1
    outer loop
      vertex 45.516 32.8117 0.091
      vertex 40.8928 31.6137 0.091
      vertex 45.2882 32.9176 0.091
    endloop
  endfacet
  facet normal 0 -0 -1
    outer loop
      vertex 45.516 32.8117 0.091
      vertex 45.7381 32.6895 0.091
      vertex 40.8928 31.6137 0.091
    endloop
  endfacet
  facet normal 0 0 -1
    outer loop
      vertex 40.8928 31.6137 0.091
      vertex 45.7381 32.6895 0.091
      vertex 45.9545 32.551 0.091
    endloop
  endfacet
  facet normal -0 0 -1
    outer loop
      vertex 46.1651 32.3963 0.091
      vertex 40.8928 31.6137 0.091
      vertex 45.9545 32.551 0.091
    endloop
  endfacet
  facet normal 0 0 -1
    outer loop
      vertex 46.1651 32.3963 0.091
      vertex 40.7378 31.3758 0.091
      vertex 40.8928 31.6137 0.091
    endloop
  endfacet
  facet normal 0 -0 -1
    outer loop
      vertex 46.1651 32.3963 0.091
      vertex 46.3701 32.2252 0.091
      vertex 40.7378 31.3758 0.091
    endloop
  endfacet
  facet normal 0 0 -1
    outer loop
      vertex 40.7378 31.3758 0.091
      vertex 46.3701 32.2252 0.091
      vertex 46.5693 32.0378 0.091
    endloop
  endfacet
  facet normal -0 0 -1
    outer loop
      vertex 46.7628 31.8342 0.091
      vertex 40.7378 31.3758 0.091
      vertex 46.5693 32.0378 0.091
    endloop
  endfacet
  facet normal 0 0 -1
    outer loop
      vertex 46.7628 31.8342 0.091
      vertex 40.5851 31.1205 0.091
      vertex 40.7378 31.3758 0.091
    endloop
  endfacet
  facet normal 0 -0 -1
    outer loop
      vertex 46.7628 31.8342 0.091
      vertex 46.946 31.6192 0.091
      vertex 40.5851 31.1205 0.091
    endloop
  endfacet
  facet normal 0 0 -1
    outer loop
      vertex 40.5851 31.1205 0.091
      vertex 46.946 31.6192 0.091
      vertex 47.1147 31.3979 0.091
    endloop
  endfacet
  facet normal 0 0 -1
    outer loop
      vertex 40.4345 30.8478 0.091
      vertex 40.5851 31.1205 0.091
      vertex 47.1147 31.3979 0.091
    endloop
  endfacet
  facet normal -0 0 -1
    outer loop
      vertex 47.2686 31.1702 0.091
      vertex 40.4345 30.8478 0.091
      vertex 47.1147 31.3979 0.091
    endloop
  endfacet
  facet normal 0 -0 -1
    outer loop
      vertex 47.2686 31.1702 0.091
      vertex 47.4079 30.9361 0.091
      vertex 40.4345 30.8478 0.091
    endloop
  endfacet
  facet normal 0 0 -1
    outer loop
      vertex 40.4345 30.8478 0.091
      vertex 47.4079 30.9361 0.091
      vertex 47.5326 30.6957 0.091
    endloop
  endfacet
  facet normal 0 0 -1
    outer loop
      vertex 47.6425 30.4489 0.091
      vertex 40.4345 30.8478 0.091
      vertex 47.5326 30.6957 0.091
    endloop
  endfacet
  facet normal -0 -0 -1
    outer loop
      vertex 47.6425 30.4489 0.091
      vertex 47.7378 30.1958 0.091
      vertex 40.4345 30.8478 0.091
    endloop
  endfacet
  facet normal 0 -0 -1
    outer loop
      vertex 40.4345 30.8478 0.091
      vertex 47.7378 30.1958 0.091
      vertex 40.2862 30.5577 0.091
    endloop
  endfacet
  facet normal 0 0 -1
    outer loop
      vertex 40.2862 30.5577 0.091
      vertex 47.7378 30.1958 0.091
      vertex 47.8185 29.9363 0.091
    endloop
  endfacet
  facet normal 0 0 -1
    outer loop
      vertex 47.8845 29.6705 0.091
      vertex 40.2862 30.5577 0.091
      vertex 47.8185 29.9363 0.091
    endloop
  endfacet
  facet normal -0 -0 -1
    outer loop
      vertex 47.8845 29.6705 0.091
      vertex 47.9358 29.3983 0.091
      vertex 40.2862 30.5577 0.091
    endloop
  endfacet
  facet normal 0 0 -1
    outer loop
      vertex 40.2862 30.5577 0.091
      vertex 47.9358 29.3983 0.091
      vertex 47.9725 29.1197 0.091
    endloop
  endfacet
  facet normal 0 0 -1
    outer loop
      vertex 47.9945 28.8348 0.091
      vertex 40.2862 30.5577 0.091
      vertex 47.9725 29.1197 0.091
    endloop
  endfacet
  facet normal 0 0 -1
    outer loop
      vertex 47.9945 28.8348 0.091
      vertex 40.1402 30.2502 0.091
      vertex 40.2862 30.5577 0.091
    endloop
  endfacet
  facet normal -0 -0 -1
    outer loop
      vertex 47.9945 28.8348 0.091
      vertex 48.0018 28.5435 0.091
      vertex 40.1402 30.2502 0.091
    endloop
  endfacet
  facet normal 0 0 -1
    outer loop
      vertex 40.1402 30.2502 0.091
      vertex 48.0018 28.5435 0.091
      vertex 47.9968 28.2961 0.091
    endloop
  endfacet
  facet normal 0 0 -1
    outer loop
      vertex 47.9819 28.042 0.091
      vertex 40.1402 30.2502 0.091
      vertex 47.9968 28.2961 0.091
    endloop
  endfacet
  facet normal 0 0 -1
    outer loop
      vertex 47.9819 28.042 0.091
      vertex 39.9963 29.9253 0.091
      vertex 40.1402 30.2502 0.091
    endloop
  endfacet
  facet normal -0 0 -1
    outer loop
      vertex 47.9819 28.042 0.091
      vertex 47.957 27.7814 0.091
      vertex 39.9963 29.9253 0.091
    endloop
  endfacet
  facet normal 0 0 -1
    outer loop
      vertex 39.9963 29.9253 0.091
      vertex 47.957 27.7814 0.091
      vertex 47.9222 27.5141 0.091
    endloop
  endfacet
  facet normal 0 0 -1
    outer loop
      vertex 39.8547 29.583 0.091
      vertex 39.9963 29.9253 0.091
      vertex 47.9222 27.5141 0.091
    endloop
  endfacet
  facet normal 0 0 -1
    outer loop
      vertex 47.8775 27.2401 0.091
      vertex 39.8547 29.583 0.091
      vertex 47.9222 27.5141 0.091
    endloop
  endfacet
  facet normal -0 0 -1
    outer loop
      vertex 47.8775 27.2401 0.091
      vertex 47.8228 26.9595 0.091
      vertex 39.8547 29.583 0.091
    endloop
  endfacet
  facet normal 0 -0 -1
    outer loop
      vertex 39.8547 29.583 0.091
      vertex 47.8228 26.9595 0.091
      vertex 39.7153 29.2233 0.091
    endloop
  endfacet
  facet normal 0 0 -1
    outer loop
      vertex 39.7153 29.2233 0.091
      vertex 47.8228 26.9595 0.091
      vertex 47.7581 26.6723 0.091
    endloop
  endfacet
  facet normal 0 0 -1
    outer loop
      vertex 39.5782 28.8462 0.091
      vertex 39.7153 29.2233 0.091
      vertex 47.7581 26.6723 0.091
    endloop
  endfacet
  facet normal 0 0 -1
    outer loop
      vertex 47.6836 26.3785 0.091
      vertex 39.5782 28.8462 0.091
      vertex 47.7581 26.6723 0.091
    endloop
  endfacet
  facet normal -0 -0 -1
    outer loop
      vertex 11.6378 32.9176 0.091
      vertex 11.8495 32.8117 0.091
      vertex 11.418 33.0072 0.091
    endloop
  endfacet
  facet normal -0 0 -1
    outer loop
      vertex 47.6836 26.3785 0.091
      vertex 47.5991 26.078 0.091
      vertex 39.5782 28.8462 0.091
    endloop
  endfacet
  facet normal 0 -0 -1
    outer loop
      vertex 39.5782 28.8462 0.091
      vertex 47.5991 26.078 0.091
      vertex 39.4432 28.4517 0.091
    endloop
  endfacet
  facet normal 0 0 -1
    outer loop
      vertex 39.4432 28.4517 0.091
      vertex 47.5991 26.078 0.091
      vertex 47.5046 25.7709 0.091
    endloop
  endfacet
  facet normal 0 0 -1
    outer loop
      vertex 47.4002 25.4571 0.091
      vertex 39.4432 28.4517 0.091
      vertex 47.5046 25.7709 0.091
    endloop
  endfacet
  facet normal 0 0 -1
    outer loop
      vertex 47.4002 25.4571 0.091
      vertex 39.3105 28.0398 0.091
      vertex 39.4432 28.4517 0.091
    endloop
  endfacet
  facet normal -0 0 -1
    outer loop
      vertex 47.4002 25.4571 0.091
      vertex 47.2858 25.1367 0.091
      vertex 39.3105 28.0398 0.091
    endloop
  endfacet
  facet normal 0 -0 -1
    outer loop
      vertex 39.3105 28.0398 0.091
      vertex 47.2858 25.1367 0.091
      vertex 39.18 27.6105 0.091
    endloop
  endfacet
  facet normal 0 0 -1
    outer loop
      vertex 39.18 27.6105 0.091
      vertex 47.2858 25.1367 0.091
      vertex 47.1615 24.8097 0.091
    endloop
  endfacet
  facet normal 0 0 -1
    outer loop
      vertex 40.1259 -0.699997 0.091
      vertex 39.18 27.6105 0.091
      vertex 47.1615 24.8097 0.091
    endloop
  endfacet
  facet normal 0 0 -1
    outer loop
      vertex 40.1259 -0.699997 0.091
      vertex 31.4187 -0.699997 0.091
      vertex 39.18 27.6105 0.091
    endloop
  endfacet
  facet normal 0 0 -1
    outer loop
      vertex 11.418 33.0072 0.091
      vertex 11.8495 32.8117 0.091
      vertex 12.0529 32.6895 0.091
    endloop
  endfacet
  facet normal 0 0 -1
    outer loop
      vertex 12.2481 32.551 0.091
      vertex 11.418 33.0072 0.091
      vertex 12.0529 32.6895 0.091
    endloop
  endfacet
  facet normal 0 0 -1
    outer loop
      vertex 12.2481 32.551 0.091
      vertex 11.19 33.0805 0.091
      vertex 11.418 33.0072 0.091
    endloop
  endfacet
  facet normal -0 -0 -1
    outer loop
      vertex 12.2481 32.551 0.091
      vertex 12.4352 32.3963 0.091
      vertex 11.19 33.0805 0.091
    endloop
  endfacet
  facet normal -0 -0 -1
    outer loop
      vertex 11.19 33.0805 0.091
      vertex 12.4352 32.3963 0.091
      vertex 10.9538 33.1376 0.091
    endloop
  endfacet
  facet normal 0 0 -1
    outer loop
      vertex 10.9538 33.1376 0.091
      vertex 12.4352 32.3963 0.091
      vertex 12.614 32.2252 0.091
    endloop
  endfacet
  facet normal 0 0 -1
    outer loop
      vertex 10.7094 33.1783 0.091
      vertex 10.9538 33.1376 0.091
      vertex 12.614 32.2252 0.091
    endloop
  endfacet
  facet normal 0 0 -1
    outer loop
      vertex 12.7846 32.0378 0.091
      vertex 10.7094 33.1783 0.091
      vertex 12.614 32.2252 0.091
    endloop
  endfacet
  facet normal 0 0 -1
    outer loop
      vertex 12.7846 32.0378 0.091
      vertex 10.4567 33.2027 0.091
      vertex 10.7094 33.1783 0.091
    endloop
  endfacet
  facet normal -0 -0 -1
    outer loop
      vertex 12.7846 32.0378 0.091
      vertex 12.947 31.8342 0.091
      vertex 10.4567 33.2027 0.091
    endloop
  endfacet
  facet normal -0 -0 -1
    outer loop
      vertex 10.4567 33.2027 0.091
      vertex 12.947 31.8342 0.091
      vertex 10.1959 33.2109 0.091
    endloop
  endfacet
  facet normal 0 -0 -1
    outer loop
      vertex 10.1959 33.2109 0.091
      vertex 12.947 31.8342 0.091
      vertex 9.93376 33.2027 0.091
    endloop
  endfacet
  facet normal 0 0 -1
    outer loop
      vertex 9.93376 33.2027 0.091
      vertex 12.947 31.8342 0.091
      vertex 13.1043 31.6137 0.091
    endloop
  endfacet
  facet normal 0 0 -1
    outer loop
      vertex 9.67732 33.1783 0.091
      vertex 9.93376 33.2027 0.091
      vertex 13.1043 31.6137 0.091
    endloop
  endfacet
  facet normal 0 0 -1
    outer loop
      vertex 9.42662 33.1376 0.091
      vertex 9.67732 33.1783 0.091
      vertex 13.1043 31.6137 0.091
    endloop
  endfacet
  facet normal 0 0 -1
    outer loop
      vertex 9.18164 33.0805 0.091
      vertex 9.42662 33.1376 0.091
      vertex 13.1043 31.6137 0.091
    endloop
  endfacet
  facet normal 0 0 -1
    outer loop
      vertex 8.94237 33.0072 0.091
      vertex 9.18164 33.0805 0.091
      vertex 13.1043 31.6137 0.091
    endloop
  endfacet
  facet normal 0 0 -1
    outer loop
      vertex 8.70883 32.9176 0.091
      vertex 8.94237 33.0072 0.091
      vertex 13.1043 31.6137 0.091
    endloop
  endfacet
  facet normal 0 0 -1
    outer loop
      vertex 8.48102 32.8117 0.091
      vertex 8.70883 32.9176 0.091
      vertex 13.1043 31.6137 0.091
    endloop
  endfacet
  facet normal 0 0 -1
    outer loop
      vertex 8.25891 32.6895 0.091
      vertex 8.48102 32.8117 0.091
      vertex 13.1043 31.6137 0.091
    endloop
  endfacet
  facet normal 0 0 -1
    outer loop
      vertex 8.04254 32.551 0.091
      vertex 8.25891 32.6895 0.091
      vertex 13.1043 31.6137 0.091
    endloop
  endfacet
  facet normal 0 0 -1
    outer loop
      vertex 7.83189 32.3963 0.091
      vertex 8.04254 32.551 0.091
      vertex 13.1043 31.6137 0.091
    endloop
  endfacet
  facet normal 0 0 -1
    outer loop
      vertex 13.2594 31.3758 0.091
      vertex 7.83189 32.3963 0.091
      vertex 13.1043 31.6137 0.091
    endloop
  endfacet
  facet normal 0 0 -1
    outer loop
      vertex 13.2594 31.3758 0.091
      vertex 7.62697 32.2252 0.091
      vertex 7.83189 32.3963 0.091
    endloop
  endfacet
  facet normal 0 0 -1
    outer loop
      vertex 13.2594 31.3758 0.091
      vertex 7.42776 32.0378 0.091
      vertex 7.62697 32.2252 0.091
    endloop
  endfacet
  facet normal 0 0 -1
    outer loop
      vertex 13.2594 31.3758 0.091
      vertex 7.23428 31.8342 0.091
      vertex 7.42776 32.0378 0.091
    endloop
  endfacet
  facet normal -0 -0 -1
    outer loop
      vertex 13.2594 31.3758 0.091
      vertex 13.4122 31.1205 0.091
      vertex 7.23428 31.8342 0.091
    endloop
  endfacet
  facet normal 0 -0 -1
    outer loop
      vertex 7.23428 31.8342 0.091
      vertex 13.4122 31.1205 0.091
      vertex 7.05101 31.6192 0.091
    endloop
  endfacet
  facet normal 0 -0 -1
    outer loop
      vertex 7.05101 31.6192 0.091
      vertex 13.4122 31.1205 0.091
      vertex 6.88239 31.3979 0.091
    endloop
  endfacet
  facet normal 0 0 -1
    outer loop
      vertex 6.88239 31.3979 0.091
      vertex 13.4122 31.1205 0.091
      vertex 13.5628 30.8478 0.091
    endloop
  endfacet
  facet normal 0 0 -1
    outer loop
      vertex 6.72842 31.1702 0.091
      vertex 6.88239 31.3979 0.091
      vertex 13.5628 30.8478 0.091
    endloop
  endfacet
  facet normal 0 0 -1
    outer loop
      vertex 6.58911 30.9361 0.091
      vertex 6.72842 31.1702 0.091
      vertex 13.5628 30.8478 0.091
    endloop
  endfacet
  facet normal 0 0 -1
    outer loop
      vertex 6.46449 30.6957 0.091
      vertex 6.58911 30.9361 0.091
      vertex 13.5628 30.8478 0.091
    endloop
  endfacet
  facet normal 0 0 -1
    outer loop
      vertex 6.35451 30.4489 0.091
      vertex 6.46449 30.6957 0.091
      vertex 13.5628 30.8478 0.091
    endloop
  endfacet
  facet normal 0 0 -1
    outer loop
      vertex 6.25919 30.1958 0.091
      vertex 6.35451 30.4489 0.091
      vertex 13.5628 30.8478 0.091
    endloop
  endfacet
  facet normal 0 0 -1
    outer loop
      vertex 6.17856 29.9363 0.091
      vertex 6.25919 30.1958 0.091
      vertex 13.5628 30.8478 0.091
    endloop
  endfacet
  facet normal -0 0 -1
    outer loop
      vertex 13.7111 30.5577 0.091
      vertex 6.17856 29.9363 0.091
      vertex 13.5628 30.8478 0.091
    endloop
  endfacet
  facet normal 0 0 -1
    outer loop
      vertex 13.7111 30.5577 0.091
      vertex 6.11256 29.6705 0.091
      vertex 6.17856 29.9363 0.091
    endloop
  endfacet
  facet normal 0 0 -1
    outer loop
      vertex 13.7111 30.5577 0.091
      vertex 6.06125 29.3983 0.091
      vertex 6.11256 29.6705 0.091
    endloop
  endfacet
  facet normal 0 0 -1
    outer loop
      vertex 13.7111 30.5577 0.091
      vertex 6.0246 29.1197 0.091
      vertex 6.06125 29.3983 0.091
    endloop
  endfacet
  facet normal 0 0 -1
    outer loop
      vertex 13.7111 30.5577 0.091
      vertex 6.00259 28.8348 0.091
      vertex 6.0246 29.1197 0.091
    endloop
  endfacet
  facet normal 0 -0 -1
    outer loop
      vertex 13.7111 30.5577 0.091
      vertex 13.8572 30.2502 0.091
      vertex 6.00259 28.8348 0.091
    endloop
  endfacet
  facet normal 0 -0 -1
    outer loop
      vertex 6.00259 28.8348 0.091
      vertex 13.8572 30.2502 0.091
      vertex 5.99525 28.5435 0.091
    endloop
  endfacet
  facet normal 0 0 -1
    outer loop
      vertex 5.99525 28.5435 0.091
      vertex 13.8572 30.2502 0.091
      vertex 6.00023 28.2961 0.091
    endloop
  endfacet
  facet normal 0 0 -1
    outer loop
      vertex 6.00023 28.2961 0.091
      vertex 13.8572 30.2502 0.091
      vertex 6.01515 28.042 0.091
    endloop
  endfacet
  facet normal 0 0 -1
    outer loop
      vertex 6.01515 28.042 0.091
      vertex 13.8572 30.2502 0.091
      vertex 14.001 29.9253 0.091
    endloop
  endfacet
  facet normal 0 0 -1
    outer loop
      vertex 6.03998 27.7814 0.091
      vertex 6.01515 28.042 0.091
      vertex 14.001 29.9253 0.091
    endloop
  endfacet
  facet normal 0 0 -1
    outer loop
      vertex 6.07475 27.5141 0.091
      vertex 6.03998 27.7814 0.091
      vertex 14.001 29.9253 0.091
    endloop
  endfacet
  facet normal -0 0 -1
    outer loop
      vertex 14.1426 29.583 0.091
      vertex 6.07475 27.5141 0.091
      vertex 14.001 29.9253 0.091
    endloop
  endfacet
  facet normal 0 0 -1
    outer loop
      vertex 14.1426 29.583 0.091
      vertex 6.11948 27.2401 0.091
      vertex 6.07475 27.5141 0.091
    endloop
  endfacet
  facet normal 0 0 -1
    outer loop
      vertex 14.1426 29.583 0.091
      vertex 6.17412 26.9595 0.091
      vertex 6.11948 27.2401 0.091
    endloop
  endfacet
  facet normal 0 -0 -1
    outer loop
      vertex 14.1426 29.583 0.091
      vertex 14.282 29.2233 0.091
      vertex 6.17412 26.9595 0.091
    endloop
  endfacet
  facet normal 0 0 -1
    outer loop
      vertex 6.17412 26.9595 0.091
      vertex 14.282 29.2233 0.091
      vertex 6.23872 26.6723 0.091
    endloop
  endfacet
  facet normal 0 0 -1
    outer loop
      vertex 6.23872 26.6723 0.091
      vertex 14.282 29.2233 0.091
      vertex 14.4191 28.8462 0.091
    endloop
  endfacet
  facet normal 0 0 -1
    outer loop
      vertex 6.31323 26.3785 0.091
      vertex 6.23872 26.6723 0.091
      vertex 14.4191 28.8462 0.091
    endloop
  endfacet
  facet normal 0 0 -1
    outer loop
      vertex 6.39769 26.078 0.091
      vertex 6.31323 26.3785 0.091
      vertex 14.4191 28.8462 0.091
    endloop
  endfacet
  facet normal -0 0 -1
    outer loop
      vertex 14.554 28.4517 0.091
      vertex 6.39769 26.078 0.091
      vertex 14.4191 28.8462 0.091
    endloop
  endfacet
  facet normal 0 0 -1
    outer loop
      vertex 14.554 28.4517 0.091
      vertex 6.4921 25.7709 0.091
      vertex 6.39769 26.078 0.091
    endloop
  endfacet
  facet normal 0 0 -1
    outer loop
      vertex 14.554 28.4517 0.091
      vertex 6.59642 25.4571 0.091
      vertex 6.4921 25.7709 0.091
    endloop
  endfacet
  facet normal 0 -0 -1
    outer loop
      vertex 14.554 28.4517 0.091
      vertex 14.6866 28.0398 0.091
      vertex 6.59642 25.4571 0.091
    endloop
  endfacet
  facet normal 0 0 -1
    outer loop
      vertex 6.59642 25.4571 0.091
      vertex 14.6866 28.0398 0.091
      vertex 6.71069 25.1367 0.091
    endloop
  endfacet
  facet normal 0 0 -1
    outer loop
      vertex 6.71069 25.1367 0.091
      vertex 14.6866 28.0398 0.091
      vertex 14.817 27.6105 0.091
    endloop
  endfacet
  facet normal 0 0 -1
    outer loop
      vertex 6.8349 24.8097 0.091
      vertex 6.71069 25.1367 0.091
      vertex 14.817 27.6105 0.091
    endloop
  endfacet
  facet normal 0 0 -1
    outer loop
      vertex 13.8708 -0.699997 0.091
      vertex 6.8349 24.8097 0.091
      vertex 14.817 27.6105 0.091
    endloop
  endfacet
  facet normal 0 0 -1
    outer loop
      vertex 22.5783 -0.699997 0.091
      vertex 13.8708 -0.699997 0.091
      vertex 14.817 27.6105 0.091
    endloop
  endfacet
  facet normal -0 0 1
    outer loop
      vertex 43.2877 33.1783 0.391
      vertex 41.2124 32.0378 0.391
      vertex 43.5403 33.2027 0.391
    endloop
  endfacet
  facet normal 0 0 1
    outer loop
      vertex 43.5403 33.2027 0.391
      vertex 41.2124 32.0378 0.391
      vertex 41.05 31.8342 0.391
    endloop
  endfacet
  facet normal -0 0 1
    outer loop
      vertex 43.0433 33.1376 0.391
      vertex 41.3831 32.2252 0.391
      vertex 43.2877 33.1783 0.391
    endloop
  endfacet
  facet normal 0 0 1
    outer loop
      vertex 41.5619 32.3963 0.391
      vertex 42.807 33.0805 0.391
      vertex 41.7489 32.551 0.391
    endloop
  endfacet
  facet normal 0 0 1
    outer loop
      vertex 42.807 33.0805 0.391
      vertex 42.579 33.0072 0.391
      vertex 41.7489 32.551 0.391
    endloop
  endfacet
  facet normal 0 0 1
    outer loop
      vertex 42.1476 32.8117 0.391
      vertex 42.579 33.0072 0.391
      vertex 42.3592 32.9176 0.391
    endloop
  endfacet
  facet normal -0 0 1
    outer loop
      vertex 41.9442 32.6895 0.391
      vertex 41.7489 32.551 0.391
      vertex 42.579 33.0072 0.391
    endloop
  endfacet
  facet normal 0 0 1
    outer loop
      vertex 41.9442 32.6895 0.391
      vertex 42.579 33.0072 0.391
      vertex 42.1476 32.8117 0.391
    endloop
  endfacet
  facet normal 0 0 1
    outer loop
      vertex 43.0433 33.1376 0.391
      vertex 41.5619 32.3963 0.391
      vertex 41.3831 32.2252 0.391
    endloop
  endfacet
  facet normal -0 0 1
    outer loop
      vertex 41.3831 32.2252 0.391
      vertex 41.2124 32.0378 0.391
      vertex 43.2877 33.1783 0.391
    endloop
  endfacet
  facet normal 0 0 1
    outer loop
      vertex 41.05 31.8342 0.391
      vertex 44.0633 33.2027 0.391
      vertex 43.8011 33.2109 0.391
    endloop
  endfacet
  facet normal 0 0 1
    outer loop
      vertex 44.8154 33.0805 0.391
      vertex 44.5704 33.1376 0.391
      vertex 40.8928 31.6137 0.391
    endloop
  endfacet
  facet normal 0 0 1
    outer loop
      vertex 44.5704 33.1376 0.391
      vertex 44.3197 33.1783 0.391
      vertex 40.8928 31.6137 0.391
    endloop
  endfacet
  facet normal 0 0 1
    outer loop
      vertex 40.8928 31.6137 0.391
      vertex 44.0633 33.2027 0.391
      vertex 41.05 31.8342 0.391
    endloop
  endfacet
  facet normal 0 0 1
    outer loop
      vertex 41.05 31.8342 0.391
      vertex 43.8011 33.2109 0.391
      vertex 43.5403 33.2027 0.391
    endloop
  endfacet
  facet normal 0 0 1
    outer loop
      vertex 43.0433 33.1376 0.391
      vertex 42.807 33.0805 0.391
      vertex 41.5619 32.3963 0.391
    endloop
  endfacet
  facet normal 0 0 1
    outer loop
      vertex 44.0633 33.2027 0.391
      vertex 40.8928 31.6137 0.391
      vertex 44.3197 33.1783 0.391
    endloop
  endfacet
  facet normal 0 0 1
    outer loop
      vertex 40.8928 31.6137 0.391
      vertex 45.0547 33.0072 0.391
      vertex 44.8154 33.0805 0.391
    endloop
  endfacet
  facet normal 0 0 1
    outer loop
      vertex 45.2882 32.9176 0.391
      vertex 45.0547 33.0072 0.391
      vertex 40.8928 31.6137 0.391
    endloop
  endfacet
  facet normal 0 0 1
    outer loop
      vertex 45.2882 32.9176 0.391
      vertex 40.8928 31.6137 0.391
      vertex 45.516 32.8117 0.391
    endloop
  endfacet
  facet normal 0 0 1
    outer loop
      vertex 40.8928 31.6137 0.391
      vertex 45.7381 32.6895 0.391
      vertex 45.516 32.8117 0.391
    endloop
  endfacet
  facet normal 0 0 1
    outer loop
      vertex 45.9545 32.551 0.391
      vertex 45.7381 32.6895 0.391
      vertex 40.8928 31.6137 0.391
    endloop
  endfacet
  facet normal 0 0 1
    outer loop
      vertex 45.9545 32.551 0.391
      vertex 40.8928 31.6137 0.391
      vertex 46.1651 32.3963 0.391
    endloop
  endfacet
  facet normal -0 0 1
    outer loop
      vertex 40.8928 31.6137 0.391
      vertex 40.7378 31.3758 0.391
      vertex 46.1651 32.3963 0.391
    endloop
  endfacet
  facet normal 0 0 1
    outer loop
      vertex 40.7378 31.3758 0.391
      vertex 46.3701 32.2252 0.391
      vertex 46.1651 32.3963 0.391
    endloop
  endfacet
  facet normal 0 0 1
    outer loop
      vertex 46.5693 32.0378 0.391
      vertex 46.3701 32.2252 0.391
      vertex 40.7378 31.3758 0.391
    endloop
  endfacet
  facet normal 0 0 1
    outer loop
      vertex 46.5693 32.0378 0.391
      vertex 40.7378 31.3758 0.391
      vertex 46.7628 31.8342 0.391
    endloop
  endfacet
  facet normal -0 0 1
    outer loop
      vertex 40.7378 31.3758 0.391
      vertex 40.5851 31.1205 0.391
      vertex 46.7628 31.8342 0.391
    endloop
  endfacet
  facet normal 0 0 1
    outer loop
      vertex 40.5851 31.1205 0.391
      vertex 46.946 31.6192 0.391
      vertex 46.7628 31.8342 0.391
    endloop
  endfacet
  facet normal 0 0 1
    outer loop
      vertex 47.1147 31.3979 0.391
      vertex 46.946 31.6192 0.391
      vertex 40.5851 31.1205 0.391
    endloop
  endfacet
  facet normal 0 0 1
    outer loop
      vertex 47.1147 31.3979 0.391
      vertex 40.5851 31.1205 0.391
      vertex 40.4345 30.8478 0.391
    endloop
  endfacet
  facet normal 0 0 1
    outer loop
      vertex 47.1147 31.3979 0.391
      vertex 40.4345 30.8478 0.391
      vertex 47.2686 31.1702 0.391
    endloop
  endfacet
  facet normal 0 0 1
    outer loop
      vertex 40.4345 30.8478 0.391
      vertex 47.4079 30.9361 0.391
      vertex 47.2686 31.1702 0.391
    endloop
  endfacet
  facet normal 0 0 1
    outer loop
      vertex 47.5326 30.6957 0.391
      vertex 47.4079 30.9361 0.391
      vertex 40.4345 30.8478 0.391
    endloop
  endfacet
  facet normal 0 0 1
    outer loop
      vertex 47.5326 30.6957 0.391
      vertex 40.4345 30.8478 0.391
      vertex 47.6425 30.4489 0.391
    endloop
  endfacet
  facet normal 0 0 1
    outer loop
      vertex 40.4345 30.8478 0.391
      vertex 47.7378 30.1958 0.391
      vertex 47.6425 30.4489 0.391
    endloop
  endfacet
  facet normal -0 0 1
    outer loop
      vertex 40.2862 30.5577 0.391
      vertex 47.7378 30.1958 0.391
      vertex 40.4345 30.8478 0.391
    endloop
  endfacet
  facet normal 0 0 1
    outer loop
      vertex 47.8185 29.9363 0.391
      vertex 47.7378 30.1958 0.391
      vertex 40.2862 30.5577 0.391
    endloop
  endfacet
  facet normal 0 0 1
    outer loop
      vertex 47.8185 29.9363 0.391
      vertex 40.2862 30.5577 0.391
      vertex 47.8845 29.6705 0.391
    endloop
  endfacet
  facet normal 0 0 1
    outer loop
      vertex 40.2862 30.5577 0.391
      vertex 47.9358 29.3983 0.391
      vertex 47.8845 29.6705 0.391
    endloop
  endfacet
  facet normal 0 0 1
    outer loop
      vertex 47.9725 29.1197 0.391
      vertex 47.9358 29.3983 0.391
      vertex 40.2862 30.5577 0.391
    endloop
  endfacet
  facet normal 0 0 1
    outer loop
      vertex 47.9725 29.1197 0.391
      vertex 40.2862 30.5577 0.391
      vertex 47.9945 28.8348 0.391
    endloop
  endfacet
  facet normal 0 0 1
    outer loop
      vertex 40.2862 30.5577 0.391
      vertex 40.1402 30.2502 0.391
      vertex 47.9945 28.8348 0.391
    endloop
  endfacet
  facet normal 0 0 1
    outer loop
      vertex 40.1402 30.2502 0.391
      vertex 48.0018 28.5435 0.391
      vertex 47.9945 28.8348 0.391
    endloop
  endfacet
  facet normal 0 -0 1
    outer loop
      vertex 47.9968 28.2961 0.391
      vertex 48.0018 28.5435 0.391
      vertex 40.1402 30.2502 0.391
    endloop
  endfacet
  facet normal 0 0 1
    outer loop
      vertex 47.9968 28.2961 0.391
      vertex 40.1402 30.2502 0.391
      vertex 47.9819 28.042 0.391
    endloop
  endfacet
  facet normal 0 0 1
    outer loop
      vertex 40.1402 30.2502 0.391
      vertex 39.9963 29.9253 0.391
      vertex 47.9819 28.042 0.391
    endloop
  endfacet
  facet normal 0 0 1
    outer loop
      vertex 39.9963 29.9253 0.391
      vertex 47.957 27.7814 0.391
      vertex 47.9819 28.042 0.391
    endloop
  endfacet
  facet normal 0 -0 1
    outer loop
      vertex 47.9222 27.5141 0.391
      vertex 47.957 27.7814 0.391
      vertex 39.9963 29.9253 0.391
    endloop
  endfacet
  facet normal 0 0 1
    outer loop
      vertex 47.9222 27.5141 0.391
      vertex 39.9963 29.9253 0.391
      vertex 39.8547 29.583 0.391
    endloop
  endfacet
  facet normal 0 0 1
    outer loop
      vertex 47.9222 27.5141 0.391
      vertex 39.8547 29.583 0.391
      vertex 47.8775 27.2401 0.391
    endloop
  endfacet
  facet normal 0 0 1
    outer loop
      vertex 39.8547 29.583 0.391
      vertex 47.8228 26.9595 0.391
      vertex 47.8775 27.2401 0.391
    endloop
  endfacet
  facet normal -0 0 1
    outer loop
      vertex 39.7153 29.2233 0.391
      vertex 47.8228 26.9595 0.391
      vertex 39.8547 29.583 0.391
    endloop
  endfacet
  facet normal 0 -0 1
    outer loop
      vertex 47.7581 26.6723 0.391
      vertex 47.8228 26.9595 0.391
      vertex 39.7153 29.2233 0.391
    endloop
  endfacet
  facet normal 0 0 1
    outer loop
      vertex 47.7581 26.6723 0.391
      vertex 39.7153 29.2233 0.391
      vertex 39.5782 28.8462 0.391
    endloop
  endfacet
  facet normal 0 0 1
    outer loop
      vertex 47.7581 26.6723 0.391
      vertex 39.5782 28.8462 0.391
      vertex 47.6836 26.3785 0.391
    endloop
  endfacet
  facet normal 0 0 1
    outer loop
      vertex 11.418 33.0072 0.391
      vertex 11.8495 32.8117 0.391
      vertex 11.6378 32.9176 0.391
    endloop
  endfacet
  facet normal 0 0 1
    outer loop
      vertex 39.5782 28.8462 0.391
      vertex 47.5991 26.078 0.391
      vertex 47.6836 26.3785 0.391
    endloop
  endfacet
  facet normal -0 0 1
    outer loop
      vertex 39.4432 28.4517 0.391
      vertex 47.5991 26.078 0.391
      vertex 39.5782 28.8462 0.391
    endloop
  endfacet
  facet normal 0 -0 1
    outer loop
      vertex 47.5046 25.7709 0.391
      vertex 47.5991 26.078 0.391
      vertex 39.4432 28.4517 0.391
    endloop
  endfacet
  facet normal 0 0 1
    outer loop
      vertex 47.5046 25.7709 0.391
      vertex 39.4432 28.4517 0.391
      vertex 47.4002 25.4571 0.391
    endloop
  endfacet
  facet normal 0 0 1
    outer loop
      vertex 39.4432 28.4517 0.391
      vertex 39.3105 28.0398 0.391
      vertex 47.4002 25.4571 0.391
    endloop
  endfacet
  facet normal 0 0 1
    outer loop
      vertex 39.3105 28.0398 0.391
      vertex 47.2858 25.1367 0.391
      vertex 47.4002 25.4571 0.391
    endloop
  endfacet
  facet normal -0 0 1
    outer loop
      vertex 39.18 27.6105 0.391
      vertex 47.2858 25.1367 0.391
      vertex 39.3105 28.0398 0.391
    endloop
  endfacet
  facet normal 0 -0 1
    outer loop
      vertex 47.1615 24.8097 0.391
      vertex 47.2858 25.1367 0.391
      vertex 39.18 27.6105 0.391
    endloop
  endfacet
  facet normal 0 0 1
    outer loop
      vertex 47.1615 24.8097 0.391
      vertex 39.18 27.6105 0.391
      vertex 40.1259 -0.699997 0.391
    endloop
  endfacet
  facet normal 0 0 1
    outer loop
      vertex 39.18 27.6105 0.391
      vertex 31.4187 -0.699997 0.391
      vertex 40.1259 -0.699997 0.391
    endloop
  endfacet
  facet normal 0 0 1
    outer loop
      vertex 12.0529 32.6895 0.391
      vertex 11.8495 32.8117 0.391
      vertex 11.418 33.0072 0.391
    endloop
  endfacet
  facet normal 0 0 1
    outer loop
      vertex 12.0529 32.6895 0.391
      vertex 11.418 33.0072 0.391
      vertex 12.2481 32.551 0.391
    endloop
  endfacet
  facet normal 0 0 1
    outer loop
      vertex 11.418 33.0072 0.391
      vertex 11.19 33.0805 0.391
      vertex 12.2481 32.551 0.391
    endloop
  endfacet
  facet normal 0 0 1
    outer loop
      vertex 11.19 33.0805 0.391
      vertex 12.4352 32.3963 0.391
      vertex 12.2481 32.551 0.391
    endloop
  endfacet
  facet normal 0 0 1
    outer loop
      vertex 10.9538 33.1376 0.391
      vertex 12.4352 32.3963 0.391
      vertex 11.19 33.0805 0.391
    endloop
  endfacet
  facet normal 0 0 1
    outer loop
      vertex 12.614 32.2252 0.391
      vertex 12.4352 32.3963 0.391
      vertex 10.9538 33.1376 0.391
    endloop
  endfacet
  facet normal 0 0 1
    outer loop
      vertex 12.614 32.2252 0.391
      vertex 10.9538 33.1376 0.391
      vertex 10.7094 33.1783 0.391
    endloop
  endfacet
  facet normal 0 0 1
    outer loop
      vertex 12.614 32.2252 0.391
      vertex 10.7094 33.1783 0.391
      vertex 12.7846 32.0378 0.391
    endloop
  endfacet
  facet normal 0 0 1
    outer loop
      vertex 10.7094 33.1783 0.391
      vertex 10.4567 33.2027 0.391
      vertex 12.7846 32.0378 0.391
    endloop
  endfacet
  facet normal 0 0 1
    outer loop
      vertex 10.4567 33.2027 0.391
      vertex 12.947 31.8342 0.391
      vertex 12.7846 32.0378 0.391
    endloop
  endfacet
  facet normal 0 0 1
    outer loop
      vertex 10.1959 33.2109 0.391
      vertex 12.947 31.8342 0.391
      vertex 10.4567 33.2027 0.391
    endloop
  endfacet
  facet normal -0 0 1
    outer loop
      vertex 9.93376 33.2027 0.391
      vertex 12.947 31.8342 0.391
      vertex 10.1959 33.2109 0.391
    endloop
  endfacet
  facet normal 0 0 1
    outer loop
      vertex 13.1043 31.6137 0.391
      vertex 12.947 31.8342 0.391
      vertex 9.93376 33.2027 0.391
    endloop
  endfacet
  facet normal 0 0 1
    outer loop
      vertex 13.1043 31.6137 0.391
      vertex 9.93376 33.2027 0.391
      vertex 9.67732 33.1783 0.391
    endloop
  endfacet
  facet normal 0 0 1
    outer loop
      vertex 13.1043 31.6137 0.391
      vertex 9.67732 33.1783 0.391
      vertex 9.42662 33.1376 0.391
    endloop
  endfacet
  facet normal 0 0 1
    outer loop
      vertex 13.1043 31.6137 0.391
      vertex 9.42662 33.1376 0.391
      vertex 9.18164 33.0805 0.391
    endloop
  endfacet
  facet normal 0 0 1
    outer loop
      vertex 13.1043 31.6137 0.391
      vertex 9.18164 33.0805 0.391
      vertex 8.94237 33.0072 0.391
    endloop
  endfacet
  facet normal 0 0 1
    outer loop
      vertex 13.1043 31.6137 0.391
      vertex 8.94237 33.0072 0.391
      vertex 8.70883 32.9176 0.391
    endloop
  endfacet
  facet normal 0 0 1
    outer loop
      vertex 13.1043 31.6137 0.391
      vertex 8.70883 32.9176 0.391
      vertex 8.48102 32.8117 0.391
    endloop
  endfacet
  facet normal 0 0 1
    outer loop
      vertex 13.1043 31.6137 0.391
      vertex 8.48102 32.8117 0.391
      vertex 8.25891 32.6895 0.391
    endloop
  endfacet
  facet normal 0 0 1
    outer loop
      vertex 13.1043 31.6137 0.391
      vertex 8.25891 32.6895 0.391
      vertex 8.04254 32.551 0.391
    endloop
  endfacet
  facet normal 0 0 1
    outer loop
      vertex 13.1043 31.6137 0.391
      vertex 8.04254 32.551 0.391
      vertex 7.83189 32.3963 0.391
    endloop
  endfacet
  facet normal 0 0 1
    outer loop
      vertex 13.1043 31.6137 0.391
      vertex 7.83189 32.3963 0.391
      vertex 13.2594 31.3758 0.391
    endloop
  endfacet
  facet normal 0 0 1
    outer loop
      vertex 7.83189 32.3963 0.391
      vertex 7.62697 32.2252 0.391
      vertex 13.2594 31.3758 0.391
    endloop
  endfacet
  facet normal 0 0 1
    outer loop
      vertex 7.62697 32.2252 0.391
      vertex 7.42776 32.0378 0.391
      vertex 13.2594 31.3758 0.391
    endloop
  endfacet
  facet normal 0 0 1
    outer loop
      vertex 7.42776 32.0378 0.391
      vertex 7.23428 31.8342 0.391
      vertex 13.2594 31.3758 0.391
    endloop
  endfacet
  facet normal 0 0 1
    outer loop
      vertex 7.23428 31.8342 0.391
      vertex 13.4122 31.1205 0.391
      vertex 13.2594 31.3758 0.391
    endloop
  endfacet
  facet normal -0 0 1
    outer loop
      vertex 7.05101 31.6192 0.391
      vertex 13.4122 31.1205 0.391
      vertex 7.23428 31.8342 0.391
    endloop
  endfacet
  facet normal -0 0 1
    outer loop
      vertex 6.88239 31.3979 0.391
      vertex 13.4122 31.1205 0.391
      vertex 7.05101 31.6192 0.391
    endloop
  endfacet
  facet normal 0 0 1
    outer loop
      vertex 13.5628 30.8478 0.391
      vertex 13.4122 31.1205 0.391
      vertex 6.88239 31.3979 0.391
    endloop
  endfacet
  facet normal 0 0 1
    outer loop
      vertex 13.5628 30.8478 0.391
      vertex 6.88239 31.3979 0.391
      vertex 6.72842 31.1702 0.391
    endloop
  endfacet
  facet normal 0 0 1
    outer loop
      vertex 13.5628 30.8478 0.391
      vertex 6.72842 31.1702 0.391
      vertex 6.58911 30.9361 0.391
    endloop
  endfacet
  facet normal 0 0 1
    outer loop
      vertex 13.5628 30.8478 0.391
      vertex 6.58911 30.9361 0.391
      vertex 6.46449 30.6957 0.391
    endloop
  endfacet
  facet normal 0 0 1
    outer loop
      vertex 13.5628 30.8478 0.391
      vertex 6.46449 30.6957 0.391
      vertex 6.35451 30.4489 0.391
    endloop
  endfacet
  facet normal 0 0 1
    outer loop
      vertex 13.5628 30.8478 0.391
      vertex 6.35451 30.4489 0.391
      vertex 6.25919 30.1958 0.391
    endloop
  endfacet
  facet normal 0 0 1
    outer loop
      vertex 13.5628 30.8478 0.391
      vertex 6.25919 30.1958 0.391
      vertex 6.17856 29.9363 0.391
    endloop
  endfacet
  facet normal 0 0 1
    outer loop
      vertex 13.5628 30.8478 0.391
      vertex 6.17856 29.9363 0.391
      vertex 13.7111 30.5577 0.391
    endloop
  endfacet
  facet normal -0 0 1
    outer loop
      vertex 6.17856 29.9363 0.391
      vertex 6.11256 29.6705 0.391
      vertex 13.7111 30.5577 0.391
    endloop
  endfacet
  facet normal -0 0 1
    outer loop
      vertex 6.11256 29.6705 0.391
      vertex 6.06125 29.3983 0.391
      vertex 13.7111 30.5577 0.391
    endloop
  endfacet
  facet normal -0 0 1
    outer loop
      vertex 6.06125 29.3983 0.391
      vertex 6.0246 29.1197 0.391
      vertex 13.7111 30.5577 0.391
    endloop
  endfacet
  facet normal -0 0 1
    outer loop
      vertex 6.0246 29.1197 0.391
      vertex 6.00259 28.8348 0.391
      vertex 13.7111 30.5577 0.391
    endloop
  endfacet
  facet normal 0 0 1
    outer loop
      vertex 6.00259 28.8348 0.391
      vertex 13.8572 30.2502 0.391
      vertex 13.7111 30.5577 0.391
    endloop
  endfacet
  facet normal 0 0 1
    outer loop
      vertex 5.99525 28.5435 0.391
      vertex 13.8572 30.2502 0.391
      vertex 6.00259 28.8348 0.391
    endloop
  endfacet
  facet normal 0 -0 1
    outer loop
      vertex 6.00023 28.2961 0.391
      vertex 13.8572 30.2502 0.391
      vertex 5.99525 28.5435 0.391
    endloop
  endfacet
  facet normal 0 -0 1
    outer loop
      vertex 6.01515 28.042 0.391
      vertex 13.8572 30.2502 0.391
      vertex 6.00023 28.2961 0.391
    endloop
  endfacet
  facet normal 0 0 1
    outer loop
      vertex 14.001 29.9253 0.391
      vertex 13.8572 30.2502 0.391
      vertex 6.01515 28.042 0.391
    endloop
  endfacet
  facet normal 0 0 1
    outer loop
      vertex 14.001 29.9253 0.391
      vertex 6.01515 28.042 0.391
      vertex 6.03998 27.7814 0.391
    endloop
  endfacet
  facet normal 0 0 1
    outer loop
      vertex 14.001 29.9253 0.391
      vertex 6.03998 27.7814 0.391
      vertex 6.07475 27.5141 0.391
    endloop
  endfacet
  facet normal 0 0 1
    outer loop
      vertex 14.001 29.9253 0.391
      vertex 6.07475 27.5141 0.391
      vertex 14.1426 29.583 0.391
    endloop
  endfacet
  facet normal -0 0 1
    outer loop
      vertex 6.07475 27.5141 0.391
      vertex 6.11948 27.2401 0.391
      vertex 14.1426 29.583 0.391
    endloop
  endfacet
  facet normal -0 0 1
    outer loop
      vertex 6.11948 27.2401 0.391
      vertex 6.17412 26.9595 0.391
      vertex 14.1426 29.583 0.391
    endloop
  endfacet
  facet normal 0 0 1
    outer loop
      vertex 6.17412 26.9595 0.391
      vertex 14.282 29.2233 0.391
      vertex 14.1426 29.583 0.391
    endloop
  endfacet
  facet normal 0 -0 1
    outer loop
      vertex 6.23872 26.6723 0.391
      vertex 14.282 29.2233 0.391
      vertex 6.17412 26.9595 0.391
    endloop
  endfacet
  facet normal 0 0 1
    outer loop
      vertex 14.4191 28.8462 0.391
      vertex 14.282 29.2233 0.391
      vertex 6.23872 26.6723 0.391
    endloop
  endfacet
  facet normal 0 0 1
    outer loop
      vertex 14.4191 28.8462 0.391
      vertex 6.23872 26.6723 0.391
      vertex 6.31323 26.3785 0.391
    endloop
  endfacet
  facet normal 0 0 1
    outer loop
      vertex 14.4191 28.8462 0.391
      vertex 6.31323 26.3785 0.391
      vertex 6.39769 26.078 0.391
    endloop
  endfacet
  facet normal 0 0 1
    outer loop
      vertex 14.4191 28.8462 0.391
      vertex 6.39769 26.078 0.391
      vertex 14.554 28.4517 0.391
    endloop
  endfacet
  facet normal -0 0 1
    outer loop
      vertex 6.39769 26.078 0.391
      vertex 6.4921 25.7709 0.391
      vertex 14.554 28.4517 0.391
    endloop
  endfacet
  facet normal -0 0 1
    outer loop
      vertex 6.4921 25.7709 0.391
      vertex 6.59642 25.4571 0.391
      vertex 14.554 28.4517 0.391
    endloop
  endfacet
  facet normal 0 0 1
    outer loop
      vertex 6.59642 25.4571 0.391
      vertex 14.6866 28.0398 0.391
      vertex 14.554 28.4517 0.391
    endloop
  endfacet
  facet normal 0 -0 1
    outer loop
      vertex 6.71069 25.1367 0.391
      vertex 14.6866 28.0398 0.391
      vertex 6.59642 25.4571 0.391
    endloop
  endfacet
  facet normal 0 0 1
    outer loop
      vertex 14.817 27.6105 0.391
      vertex 14.6866 28.0398 0.391
      vertex 6.71069 25.1367 0.391
    endloop
  endfacet
  facet normal 0 0 1
    outer loop
      vertex 14.817 27.6105 0.391
      vertex 6.71069 25.1367 0.391
      vertex 6.8349 24.8097 0.391
    endloop
  endfacet
  facet normal 0 0 1
    outer loop
      vertex 14.817 27.6105 0.391
      vertex 6.8349 24.8097 0.391
      vertex 13.8708 -0.699997 0.391
    endloop
  endfacet
  facet normal 0 0 1
    outer loop
      vertex 14.817 27.6105 0.391
      vertex 13.8708 -0.699997 0.391
      vertex 22.5783 -0.699997 0.391
    endloop
  endfacet
  facet normal 0.934746 -0.355318 0
    outer loop
      vertex 47.2858 25.1367 0.091
      vertex 47.1615 24.8097 0.391
      vertex 47.1615 24.8097 0.091
    endloop
  endfacet
  facet normal 0.934746 -0.355318 0
    outer loop
      vertex 47.2858 25.1367 0.091
      vertex 47.2858 25.1367 0.391
      vertex 47.1615 24.8097 0.391
    endloop
  endfacet
  facet normal 0.941769 -0.336262 0
    outer loop
      vertex 47.4002 25.4571 0.091
      vertex 47.2858 25.1367 0.391
      vertex 47.2858 25.1367 0.091
    endloop
  endfacet
  facet normal 0.941769 -0.336262 0
    outer loop
      vertex 47.4002 25.4571 0.091
      vertex 47.4002 25.4571 0.391
      vertex 47.2858 25.1367 0.391
    endloop
  endfacet
  facet normal 0.948865 -0.315683 0
    outer loop
      vertex 47.5046 25.7709 0.091
      vertex 47.4002 25.4571 0.391
      vertex 47.4002 25.4571 0.091
    endloop
  endfacet
  facet normal 0.948865 -0.315683 0
    outer loop
      vertex 47.5046 25.7709 0.091
      vertex 47.5046 25.7709 0.391
      vertex 47.4002 25.4571 0.391
    endloop
  endfacet
  facet normal 0.955772 -0.294108 0
    outer loop
      vertex 47.5991 26.078 0.091
      vertex 47.5046 25.7709 0.391
      vertex 47.5046 25.7709 0.091
    endloop
  endfacet
  facet normal 0.955772 -0.294108 0
    outer loop
      vertex 47.5991 26.078 0.091
      vertex 47.5991 26.078 0.391
      vertex 47.5046 25.7709 0.391
    endloop
  endfacet
  facet normal 0.962664 -0.270699 0
    outer loop
      vertex 47.6836 26.3785 0.091
      vertex 47.5991 26.078 0.391
      vertex 47.5991 26.078 0.091
    endloop
  endfacet
  facet normal 0.962664 -0.270699 0
    outer loop
      vertex 47.6836 26.3785 0.091
      vertex 47.6836 26.3785 0.391
      vertex 47.5991 26.078 0.391
    endloop
  endfacet
  facet normal 0.969322 -0.245795 0
    outer loop
      vertex 47.7581 26.6723 0.091
      vertex 47.6836 26.3785 0.391
      vertex 47.6836 26.3785 0.091
    endloop
  endfacet
  facet normal 0.969322 -0.245795 0
    outer loop
      vertex 47.7581 26.6723 0.091
      vertex 47.7581 26.6723 0.391
      vertex 47.6836 26.3785 0.391
    endloop
  endfacet
  facet normal 0.975552 -0.219771 0
    outer loop
      vertex 47.8228 26.9595 0.091
      vertex 47.7581 26.6723 0.391
      vertex 47.7581 26.6723 0.091
    endloop
  endfacet
  facet normal 0.975552 -0.219771 0
    outer loop
      vertex 47.8228 26.9595 0.091
      vertex 47.8228 26.9595 0.391
      vertex 47.7581 26.6723 0.391
    endloop
  endfacet
  facet normal 0.981524 -0.191338 0
    outer loop
      vertex 47.8775 27.2401 0.091
      vertex 47.8228 26.9595 0.391
      vertex 47.8228 26.9595 0.091
    endloop
  endfacet
  facet normal 0.981524 -0.191338 0
    outer loop
      vertex 47.8775 27.2401 0.091
      vertex 47.8775 27.2401 0.391
      vertex 47.8228 26.9595 0.391
    endloop
  endfacet
  facet normal 0.986953 -0.16101 0
    outer loop
      vertex 47.9222 27.5141 0.091
      vertex 47.8775 27.2401 0.391
      vertex 47.8775 27.2401 0.091
    endloop
  endfacet
  facet normal 0.986953 -0.16101 0
    outer loop
      vertex 47.9222 27.5141 0.091
      vertex 47.9222 27.5141 0.391
      vertex 47.8775 27.2401 0.391
    endloop
  endfacet
  facet normal 0.991631 -0.129101 0
    outer loop
      vertex 47.957 27.7814 0.091
      vertex 47.9222 27.5141 0.391
      vertex 47.9222 27.5141 0.091
    endloop
  endfacet
  facet normal 0.991631 -0.129101 0
    outer loop
      vertex 47.957 27.7814 0.091
      vertex 47.957 27.7814 0.391
      vertex 47.9222 27.5141 0.391
    endloop
  endfacet
  facet normal 0.995466 -0.0951155 0
    outer loop
      vertex 47.9819 28.042 0.091
      vertex 47.957 27.7814 0.391
      vertex 47.957 27.7814 0.091
    endloop
  endfacet
  facet normal 0.995466 -0.0951155 0
    outer loop
      vertex 47.9819 28.042 0.091
      vertex 47.9819 28.042 0.391
      vertex 47.957 27.7814 0.391
    endloop
  endfacet
  facet normal 0.998285 -0.0585378 0
    outer loop
      vertex 47.9968 28.2961 0.091
      vertex 47.9819 28.042 0.391
      vertex 47.9819 28.042 0.091
    endloop
  endfacet
  facet normal 0.998285 -0.0585378 0
    outer loop
      vertex 47.9968 28.2961 0.091
      vertex 47.9968 28.2961 0.391
      vertex 47.9819 28.042 0.391
    endloop
  endfacet
  facet normal 0.999796 -0.0202061 0
    outer loop
      vertex 48.0018 28.5435 0.091
      vertex 47.9968 28.2961 0.391
      vertex 47.9968 28.2961 0.091
    endloop
  endfacet
  facet normal 0.999796 -0.0202061 0
    outer loop
      vertex 48.0018 28.5435 0.091
      vertex 48.0018 28.5435 0.391
      vertex 47.9968 28.2961 0.391
    endloop
  endfacet
  facet normal 0.999686 0.0250522 0
    outer loop
      vertex 47.9945 28.8348 0.091
      vertex 48.0018 28.5435 0.391
      vertex 48.0018 28.5435 0.091
    endloop
  endfacet
  facet normal 0.999686 0.0250522 -0
    outer loop
      vertex 47.9945 28.8348 0.091
      vertex 47.9945 28.8348 0.391
      vertex 48.0018 28.5435 0.391
    endloop
  endfacet
  facet normal 0.997032 0.0769909 0
    outer loop
      vertex 47.9725 29.1197 0.091
      vertex 47.9945 28.8348 0.391
      vertex 47.9945 28.8348 0.091
    endloop
  endfacet
  facet normal 0.997032 0.0769909 -0
    outer loop
      vertex 47.9725 29.1197 0.091
      vertex 47.9725 29.1197 0.391
      vertex 47.9945 28.8348 0.391
    endloop
  endfacet
  facet normal 0.991435 0.130602 0
    outer loop
      vertex 47.9358 29.3983 0.091
      vertex 47.9725 29.1197 0.391
      vertex 47.9725 29.1197 0.091
    endloop
  endfacet
  facet normal 0.991435 0.130602 -0
    outer loop
      vertex 47.9358 29.3983 0.091
      vertex 47.9358 29.3983 0.391
      vertex 47.9725 29.1197 0.391
    endloop
  endfacet
  facet normal 0.9827 0.185204 0
    outer loop
      vertex 47.8845 29.6705 0.091
      vertex 47.9358 29.3983 0.391
      vertex 47.9358 29.3983 0.091
    endloop
  endfacet
  facet normal 0.9827 0.185204 -0
    outer loop
      vertex 47.8845 29.6705 0.091
      vertex 47.8845 29.6705 0.391
      vertex 47.9358 29.3983 0.391
    endloop
  endfacet
  facet normal 0.970528 0.240989 0
    outer loop
      vertex 47.8185 29.9363 0.091
      vertex 47.8845 29.6705 0.391
      vertex 47.8845 29.6705 0.091
    endloop
  endfacet
  facet normal 0.970528 0.240989 -0
    outer loop
      vertex 47.8185 29.9363 0.091
      vertex 47.8185 29.9363 0.391
      vertex 47.8845 29.6705 0.391
    endloop
  endfacet
  facet normal 0.954892 0.296955 0
    outer loop
      vertex 47.7378 30.1958 0.091
      vertex 47.8185 29.9363 0.391
      vertex 47.8185 29.9363 0.091
    endloop
  endfacet
  facet normal 0.954892 0.296955 -0
    outer loop
      vertex 47.7378 30.1958 0.091
      vertex 47.7378 30.1958 0.391
      vertex 47.8185 29.9363 0.391
    endloop
  endfacet
  facet normal 0.935857 0.352379 0
    outer loop
      vertex 47.6425 30.4489 0.091
      vertex 47.7378 30.1958 0.391
      vertex 47.7378 30.1958 0.091
    endloop
  endfacet
  facet normal 0.935857 0.352379 -0
    outer loop
      vertex 47.6425 30.4489 0.091
      vertex 47.6425 30.4489 0.391
      vertex 47.7378 30.1958 0.391
    endloop
  endfacet
  facet normal 0.913521 0.406791 0
    outer loop
      vertex 47.5326 30.6957 0.091
      vertex 47.6425 30.4489 0.391
      vertex 47.6425 30.4489 0.091
    endloop
  endfacet
  facet normal 0.913521 0.406791 -0
    outer loop
      vertex 47.5326 30.6957 0.091
      vertex 47.5326 30.6957 0.391
      vertex 47.6425 30.4489 0.391
    endloop
  endfacet
  facet normal 0.887682 0.460457 0
    outer loop
      vertex 47.4079 30.9361 0.091
      vertex 47.5326 30.6957 0.391
      vertex 47.5326 30.6957 0.091
    endloop
  endfacet
  facet normal 0.887682 0.460457 -0
    outer loop
      vertex 47.4079 30.9361 0.091
      vertex 47.4079 30.9361 0.391
      vertex 47.5326 30.6957 0.391
    endloop
  endfacet
  facet normal 0.859366 0.511361 0
    outer loop
      vertex 47.2686 31.1702 0.091
      vertex 47.4079 30.9361 0.391
      vertex 47.4079 30.9361 0.091
    endloop
  endfacet
  facet normal 0.859366 0.511361 -0
    outer loop
      vertex 47.2686 31.1702 0.091
      vertex 47.2686 31.1702 0.391
      vertex 47.4079 30.9361 0.391
    endloop
  endfacet
  facet normal 0.828507 0.559979 0
    outer loop
      vertex 47.1147 31.3979 0.091
      vertex 47.2686 31.1702 0.391
      vertex 47.2686 31.1702 0.091
    endloop
  endfacet
  facet normal 0.828507 0.559979 -0
    outer loop
      vertex 47.1147 31.3979 0.091
      vertex 47.1147 31.3979 0.391
      vertex 47.2686 31.1702 0.391
    endloop
  endfacet
  facet normal 0.795275 0.606249 0
    outer loop
      vertex 46.946 31.6192 0.091
      vertex 47.1147 31.3979 0.391
      vertex 47.1147 31.3979 0.091
    endloop
  endfacet
  facet normal 0.795275 0.606249 -0
    outer loop
      vertex 46.946 31.6192 0.091
      vertex 46.946 31.6192 0.391
      vertex 47.1147 31.3979 0.391
    endloop
  endfacet
  facet normal 0.761153 0.648573 0
    outer loop
      vertex 46.7628 31.8342 0.091
      vertex 46.946 31.6192 0.391
      vertex 46.946 31.6192 0.091
    endloop
  endfacet
  facet normal 0.761153 0.648573 -0
    outer loop
      vertex 46.7628 31.8342 0.091
      vertex 46.7628 31.8342 0.391
      vertex 46.946 31.6192 0.391
    endloop
  endfacet
  facet normal 0.724857 0.688899 0
    outer loop
      vertex 46.5693 32.0378 0.091
      vertex 46.7628 31.8342 0.391
      vertex 46.7628 31.8342 0.091
    endloop
  endfacet
  facet normal 0.724857 0.688899 -0
    outer loop
      vertex 46.5693 32.0378 0.091
      vertex 46.5693 32.0378 0.391
      vertex 46.7628 31.8342 0.391
    endloop
  endfacet
  facet normal 0.685205 0.72835 0
    outer loop
      vertex 46.3701 32.2252 0.091
      vertex 46.5693 32.0378 0.391
      vertex 46.5693 32.0378 0.091
    endloop
  endfacet
  facet normal 0.685205 0.72835 -0
    outer loop
      vertex 46.3701 32.2252 0.091
      vertex 46.3701 32.2252 0.391
      vertex 46.5693 32.0378 0.391
    endloop
  endfacet
  facet normal 0.640774 0.76773 0
    outer loop
      vertex 46.1651 32.3963 0.091
      vertex 46.3701 32.2252 0.391
      vertex 46.3701 32.2252 0.091
    endloop
  endfacet
  facet normal 0.640774 0.76773 -0
    outer loop
      vertex 46.1651 32.3963 0.091
      vertex 46.1651 32.3963 0.391
      vertex 46.3701 32.2252 0.391
    endloop
  endfacet
  facet normal 0.59201 0.80593 0
    outer loop
      vertex 45.9545 32.551 0.091
      vertex 46.1651 32.3963 0.391
      vertex 46.1651 32.3963 0.091
    endloop
  endfacet
  facet normal 0.59201 0.80593 -0
    outer loop
      vertex 45.9545 32.551 0.091
      vertex 45.9545 32.551 0.391
      vertex 46.1651 32.3963 0.391
    endloop
  endfacet
  facet normal 0.539065 0.842264 0
    outer loop
      vertex 45.7381 32.6895 0.091
      vertex 45.9545 32.551 0.391
      vertex 45.9545 32.551 0.091
    endloop
  endfacet
  facet normal 0.539065 0.842264 -0
    outer loop
      vertex 45.7381 32.6895 0.091
      vertex 45.7381 32.6895 0.391
      vertex 45.9545 32.551 0.391
    endloop
  endfacet
  facet normal 0.482055 0.876141 0
    outer loop
      vertex 45.516 32.8117 0.091
      vertex 45.7381 32.6895 0.391
      vertex 45.7381 32.6895 0.091
    endloop
  endfacet
  facet normal 0.482055 0.876141 -0
    outer loop
      vertex 45.516 32.8117 0.091
      vertex 45.516 32.8117 0.391
      vertex 45.7381 32.6895 0.391
    endloop
  endfacet
  facet normal 0.421556 0.906803 0
    outer loop
      vertex 45.2882 32.9176 0.091
      vertex 45.516 32.8117 0.391
      vertex 45.516 32.8117 0.091
    endloop
  endfacet
  facet normal 0.421556 0.906803 -0
    outer loop
      vertex 45.2882 32.9176 0.091
      vertex 45.2882 32.9176 0.391
      vertex 45.516 32.8117 0.391
    endloop
  endfacet
  facet normal 0.358256 0.933624 0
    outer loop
      vertex 45.0547 33.0072 0.091
      vertex 45.2882 32.9176 0.391
      vertex 45.2882 32.9176 0.091
    endloop
  endfacet
  facet normal 0.358256 0.933624 -0
    outer loop
      vertex 45.0547 33.0072 0.091
      vertex 45.0547 33.0072 0.391
      vertex 45.2882 32.9176 0.391
    endloop
  endfacet
  facet normal 0.292878 0.95615 0
    outer loop
      vertex 44.8154 33.0805 0.091
      vertex 45.0547 33.0072 0.391
      vertex 45.0547 33.0072 0.091
    endloop
  endfacet
  facet normal 0.292878 0.95615 -0
    outer loop
      vertex 44.8154 33.0805 0.091
      vertex 44.8154 33.0805 0.391
      vertex 45.0547 33.0072 0.391
    endloop
  endfacet
  facet normal 0.226978 0.9739 0
    outer loop
      vertex 44.5704 33.1376 0.091
      vertex 44.8154 33.0805 0.391
      vertex 44.8154 33.0805 0.091
    endloop
  endfacet
  facet normal 0.226978 0.9739 -0
    outer loop
      vertex 44.5704 33.1376 0.091
      vertex 44.5704 33.1376 0.391
      vertex 44.8154 33.0805 0.391
    endloop
  endfacet
  facet normal 0.160247 0.987077 0
    outer loop
      vertex 44.3197 33.1783 0.091
      vertex 44.5704 33.1376 0.391
      vertex 44.5704 33.1376 0.091
    endloop
  endfacet
  facet normal 0.160247 0.987077 -0
    outer loop
      vertex 44.3197 33.1783 0.091
      vertex 44.3197 33.1783 0.391
      vertex 44.5704 33.1376 0.391
    endloop
  endfacet
  facet normal 0.0947358 0.995502 0
    outer loop
      vertex 44.0633 33.2027 0.091
      vertex 44.3197 33.1783 0.391
      vertex 44.3197 33.1783 0.091
    endloop
  endfacet
  facet normal 0.0947358 0.995502 -0
    outer loop
      vertex 44.0633 33.2027 0.091
      vertex 44.0633 33.2027 0.391
      vertex 44.3197 33.1783 0.391
    endloop
  endfacet
  facet normal 0.0312586 0.999511 0
    outer loop
      vertex 43.8011 33.2109 0.091
      vertex 44.0633 33.2027 0.391
      vertex 44.0633 33.2027 0.091
    endloop
  endfacet
  facet normal 0.0312586 0.999511 -0
    outer loop
      vertex 43.8011 33.2109 0.091
      vertex 43.8011 33.2109 0.391
      vertex 44.0633 33.2027 0.391
    endloop
  endfacet
  facet normal -0.0314262 0.999506 0
    outer loop
      vertex 43.5403 33.2027 0.091
      vertex 43.8011 33.2109 0.391
      vertex 43.8011 33.2109 0.091
    endloop
  endfacet
  facet normal -0.0314262 0.999506 0
    outer loop
      vertex 43.5403 33.2027 0.091
      vertex 43.5403 33.2027 0.391
      vertex 43.8011 33.2109 0.391
    endloop
  endfacet
  facet normal -0.0961479 0.995367 0
    outer loop
      vertex 43.2877 33.1783 0.091
      vertex 43.5403 33.2027 0.391
      vertex 43.5403 33.2027 0.091
    endloop
  endfacet
  facet normal -0.0961479 0.995367 0
    outer loop
      vertex 43.2877 33.1783 0.091
      vertex 43.2877 33.1783 0.391
      vertex 43.5403 33.2027 0.391
    endloop
  endfacet
  facet normal -0.164268 0.986416 0
    outer loop
      vertex 43.0433 33.1376 0.091
      vertex 43.2877 33.1783 0.391
      vertex 43.2877 33.1783 0.091
    endloop
  endfacet
  facet normal -0.164268 0.986416 0
    outer loop
      vertex 43.0433 33.1376 0.091
      vertex 43.0433 33.1376 0.391
      vertex 43.2877 33.1783 0.391
    endloop
  endfacet
  facet normal -0.234882 0.972024 0
    outer loop
      vertex 42.807 33.0805 0.091
      vertex 43.0433 33.1376 0.391
      vertex 43.0433 33.1376 0.091
    endloop
  endfacet
  facet normal -0.234882 0.972024 0
    outer loop
      vertex 42.807 33.0805 0.091
      vertex 42.807 33.0805 0.391
      vertex 43.0433 33.1376 0.391
    endloop
  endfacet
  facet normal -0.306063 0.952011 0
    outer loop
      vertex 42.579 33.0072 0.091
      vertex 42.807 33.0805 0.391
      vertex 42.807 33.0805 0.091
    endloop
  endfacet
  facet normal -0.306063 0.952011 0
    outer loop
      vertex 42.579 33.0072 0.091
      vertex 42.579 33.0072 0.391
      vertex 42.807 33.0805 0.391
    endloop
  endfacet
  facet normal -0.377484 0.926016 0
    outer loop
      vertex 42.3592 32.9176 0.091
      vertex 42.579 33.0072 0.391
      vertex 42.579 33.0072 0.091
    endloop
  endfacet
  facet normal -0.377484 0.926016 0
    outer loop
      vertex 42.3592 32.9176 0.091
      vertex 42.3592 32.9176 0.391
      vertex 42.579 33.0072 0.391
    endloop
  endfacet
  facet normal -0.447552 0.894258 0
    outer loop
      vertex 42.1476 32.8117 0.091
      vertex 42.3592 32.9176 0.391
      vertex 42.3592 32.9176 0.091
    endloop
  endfacet
  facet normal -0.447552 0.894258 0
    outer loop
      vertex 42.1476 32.8117 0.091
      vertex 42.1476 32.8117 0.391
      vertex 42.3592 32.9176 0.391
    endloop
  endfacet
  facet normal -0.514991 0.857195 0
    outer loop
      vertex 41.9442 32.6895 0.091
      vertex 42.1476 32.8117 0.391
      vertex 42.1476 32.8117 0.091
    endloop
  endfacet
  facet normal -0.514991 0.857195 0
    outer loop
      vertex 41.9442 32.6895 0.091
      vertex 41.9442 32.6895 0.391
      vertex 42.1476 32.8117 0.391
    endloop
  endfacet
  facet normal -0.578469 0.815704 0
    outer loop
      vertex 41.7489 32.551 0.091
      vertex 41.9442 32.6895 0.391
      vertex 41.9442 32.6895 0.091
    endloop
  endfacet
  facet normal -0.578469 0.815704 0
    outer loop
      vertex 41.7489 32.551 0.091
      vertex 41.7489 32.551 0.391
      vertex 41.9442 32.6895 0.391
    endloop
  endfacet
  facet normal -0.637424 0.770513 0
    outer loop
      vertex 41.5619 32.3963 0.091
      vertex 41.7489 32.551 0.391
      vertex 41.7489 32.551 0.091
    endloop
  endfacet
  facet normal -0.637424 0.770513 0
    outer loop
      vertex 41.5619 32.3963 0.091
      vertex 41.5619 32.3963 0.391
      vertex 41.7489 32.551 0.391
    endloop
  endfacet
  facet normal -0.691379 0.722493 0
    outer loop
      vertex 41.3831 32.2252 0.091
      vertex 41.5619 32.3963 0.391
      vertex 41.5619 32.3963 0.091
    endloop
  endfacet
  facet normal -0.691379 0.722493 0
    outer loop
      vertex 41.3831 32.2252 0.091
      vertex 41.3831 32.2252 0.391
      vertex 41.5619 32.3963 0.391
    endloop
  endfacet
  facet normal -0.739279 0.673399 0
    outer loop
      vertex 41.2124 32.0378 0.091
      vertex 41.3831 32.2252 0.391
      vertex 41.3831 32.2252 0.091
    endloop
  endfacet
  facet normal -0.739279 0.673399 0
    outer loop
      vertex 41.2124 32.0378 0.091
      vertex 41.2124 32.0378 0.391
      vertex 41.3831 32.2252 0.391
    endloop
  endfacet
  facet normal -0.781767 0.623571 0
    outer loop
      vertex 41.05 31.8342 0.091
      vertex 41.2124 32.0378 0.391
      vertex 41.2124 32.0378 0.091
    endloop
  endfacet
  facet normal -0.781767 0.623571 0
    outer loop
      vertex 41.05 31.8342 0.091
      vertex 41.05 31.8342 0.391
      vertex 41.2124 32.0378 0.391
    endloop
  endfacet
  facet normal -0.814257 0.580504 0
    outer loop
      vertex 40.8928 31.6137 0.091
      vertex 41.05 31.8342 0.391
      vertex 41.05 31.8342 0.091
    endloop
  endfacet
  facet normal -0.814257 0.580504 0
    outer loop
      vertex 40.8928 31.6137 0.091
      vertex 40.8928 31.6137 0.391
      vertex 41.05 31.8342 0.391
    endloop
  endfacet
  facet normal -0.837856 0.545892 0
    outer loop
      vertex 40.7378 31.3758 0.091
      vertex 40.8928 31.6137 0.391
      vertex 40.8928 31.6137 0.091
    endloop
  endfacet
  facet normal -0.837856 0.545892 0
    outer loop
      vertex 40.7378 31.3758 0.091
      vertex 40.7378 31.3758 0.391
      vertex 40.8928 31.6137 0.391
    endloop
  endfacet
  facet normal -0.858204 0.513309 0
    outer loop
      vertex 40.5851 31.1205 0.091
      vertex 40.7378 31.3758 0.391
      vertex 40.7378 31.3758 0.091
    endloop
  endfacet
  facet normal -0.858204 0.513309 0
    outer loop
      vertex 40.5851 31.1205 0.091
      vertex 40.5851 31.1205 0.391
      vertex 40.7378 31.3758 0.391
    endloop
  endfacet
  facet normal -0.875381 0.483434 0
    outer loop
      vertex 40.4345 30.8478 0.091
      vertex 40.5851 31.1205 0.391
      vertex 40.5851 31.1205 0.091
    endloop
  endfacet
  facet normal -0.875381 0.483434 0
    outer loop
      vertex 40.4345 30.8478 0.091
      vertex 40.4345 30.8478 0.391
      vertex 40.5851 31.1205 0.391
    endloop
  endfacet
  facet normal -0.890402 0.455176 0
    outer loop
      vertex 40.2862 30.5577 0.091
      vertex 40.4345 30.8478 0.391
      vertex 40.4345 30.8478 0.091
    endloop
  endfacet
  facet normal -0.890402 0.455176 0
    outer loop
      vertex 40.2862 30.5577 0.091
      vertex 40.2862 30.5577 0.391
      vertex 40.4345 30.8478 0.391
    endloop
  endfacet
  facet normal -0.903349 0.428907 0
    outer loop
      vertex 40.1402 30.2502 0.091
      vertex 40.2862 30.5577 0.391
      vertex 40.2862 30.5577 0.091
    endloop
  endfacet
  facet normal -0.903349 0.428907 0
    outer loop
      vertex 40.1402 30.2502 0.091
      vertex 40.1402 30.2502 0.391
      vertex 40.2862 30.5577 0.391
    endloop
  endfacet
  facet normal -0.914333 0.404963 0
    outer loop
      vertex 39.9963 29.9253 0.091
      vertex 40.1402 30.2502 0.391
      vertex 40.1402 30.2502 0.091
    endloop
  endfacet
  facet normal -0.914333 0.404963 0
    outer loop
      vertex 39.9963 29.9253 0.091
      vertex 39.9963 29.9253 0.391
      vertex 40.1402 30.2502 0.391
    endloop
  endfacet
  facet normal -0.924056 0.382256 0
    outer loop
      vertex 39.8547 29.583 0.091
      vertex 39.9963 29.9253 0.391
      vertex 39.9963 29.9253 0.091
    endloop
  endfacet
  facet normal -0.924056 0.382256 0
    outer loop
      vertex 39.8547 29.583 0.091
      vertex 39.8547 29.583 0.391
      vertex 39.9963 29.9253 0.391
    endloop
  endfacet
  facet normal -0.932427 0.361358 0
    outer loop
      vertex 39.7153 29.2233 0.091
      vertex 39.8547 29.583 0.391
      vertex 39.8547 29.583 0.091
    endloop
  endfacet
  facet normal -0.932427 0.361358 0
    outer loop
      vertex 39.7153 29.2233 0.091
      vertex 39.7153 29.2233 0.391
      vertex 39.8547 29.583 0.391
    endloop
  endfacet
  facet normal -0.939815 0.341683 0
    outer loop
      vertex 39.5782 28.8462 0.091
      vertex 39.7153 29.2233 0.391
      vertex 39.7153 29.2233 0.091
    endloop
  endfacet
  facet normal -0.939815 0.341683 0
    outer loop
      vertex 39.5782 28.8462 0.091
      vertex 39.5782 28.8462 0.391
      vertex 39.7153 29.2233 0.391
    endloop
  endfacet
  facet normal -0.946135 0.323772 0
    outer loop
      vertex 39.4432 28.4517 0.091
      vertex 39.5782 28.8462 0.391
      vertex 39.5782 28.8462 0.091
    endloop
  endfacet
  facet normal -0.946135 0.323772 0
    outer loop
      vertex 39.4432 28.4517 0.091
      vertex 39.4432 28.4517 0.391
      vertex 39.5782 28.8462 0.391
    endloop
  endfacet
  facet normal -0.951824 0.306645 0
    outer loop
      vertex 39.3105 28.0398 0.091
      vertex 39.4432 28.4517 0.391
      vertex 39.4432 28.4517 0.091
    endloop
  endfacet
  facet normal -0.951824 0.306645 0
    outer loop
      vertex 39.3105 28.0398 0.091
      vertex 39.3105 28.0398 0.391
      vertex 39.4432 28.4517 0.391
    endloop
  endfacet
  facet normal -0.956771 0.290842 0
    outer loop
      vertex 39.18 27.6105 0.091
      vertex 39.3105 28.0398 0.391
      vertex 39.3105 28.0398 0.091
    endloop
  endfacet
  facet normal -0.956771 0.290842 0
    outer loop
      vertex 39.18 27.6105 0.091
      vertex 39.18 27.6105 0.391
      vertex 39.3105 28.0398 0.391
    endloop
  endfacet
  facet normal -0.964415 0.264394 0
    outer loop
      vertex 31.4187 -0.699997 0.091
      vertex 39.18 27.6105 0.391
      vertex 39.18 27.6105 0.091
    endloop
  endfacet
  facet normal -0.964415 0.264394 0
    outer loop
      vertex 31.4187 -0.699997 0.091
      vertex 31.4187 -0.699997 0.391
      vertex 39.18 27.6105 0.391
    endloop
  endfacet
  facet normal 0 -1 0
    outer loop
      vertex 40.1259 -0.699997 0.091
      vertex 31.4187 -0.699997 0.391
      vertex 31.4187 -0.699997 0.091
    endloop
  endfacet
  facet normal 0 -1 0
    outer loop
      vertex 40.1259 -0.699997 0.091
      vertex 40.1259 -0.699997 0.391
      vertex 31.4187 -0.699997 0.391
    endloop
  endfacet
  facet normal 0.964008 -0.265874 0
    outer loop
      vertex 47.1615 24.8097 0.091
      vertex 40.1259 -0.699997 0.391
      vertex 40.1259 -0.699997 0.091
    endloop
  endfacet
  facet normal 0.964008 -0.265874 0
    outer loop
      vertex 47.1615 24.8097 0.091
      vertex 47.1615 24.8097 0.391
      vertex 40.1259 -0.699997 0.391
    endloop
  endfacet
  facet normal 0.956833 0.290638 0
    outer loop
      vertex 14.6866 28.0398 0.091
      vertex 14.817 27.6105 0.391
      vertex 14.817 27.6105 0.091
    endloop
  endfacet
  facet normal 0.956833 0.290638 -0
    outer loop
      vertex 14.6866 28.0398 0.091
      vertex 14.6866 28.0398 0.391
      vertex 14.817 27.6105 0.391
    endloop
  endfacet
  facet normal 0.951891 0.306436 0
    outer loop
      vertex 14.554 28.4517 0.091
      vertex 14.6866 28.0398 0.391
      vertex 14.6866 28.0398 0.091
    endloop
  endfacet
  facet normal 0.951891 0.306436 -0
    outer loop
      vertex 14.554 28.4517 0.091
      vertex 14.554 28.4517 0.391
      vertex 14.6866 28.0398 0.391
    endloop
  endfacet
  facet normal 0.946208 0.323558 0
    outer loop
      vertex 14.4191 28.8462 0.091
      vertex 14.554 28.4517 0.391
      vertex 14.554 28.4517 0.091
    endloop
  endfacet
  facet normal 0.946208 0.323558 -0
    outer loop
      vertex 14.4191 28.8462 0.091
      vertex 14.4191 28.8462 0.391
      vertex 14.554 28.4517 0.391
    endloop
  endfacet
  facet normal 0.939815 0.341683 0
    outer loop
      vertex 14.282 29.2233 0.091
      vertex 14.4191 28.8462 0.391
      vertex 14.4191 28.8462 0.091
    endloop
  endfacet
  facet normal 0.939815 0.341683 -0
    outer loop
      vertex 14.282 29.2233 0.091
      vertex 14.282 29.2233 0.391
      vertex 14.4191 28.8462 0.391
    endloop
  endfacet
  facet normal 0.932427 0.361358 0
    outer loop
      vertex 14.1426 29.583 0.091
      vertex 14.282 29.2233 0.391
      vertex 14.282 29.2233 0.091
    endloop
  endfacet
  facet normal 0.932427 0.361358 -0
    outer loop
      vertex 14.1426 29.583 0.091
      vertex 14.1426 29.583 0.391
      vertex 14.282 29.2233 0.391
    endloop
  endfacet
  facet normal 0.924056 0.382256 0
    outer loop
      vertex 14.001 29.9253 0.091
      vertex 14.1426 29.583 0.391
      vertex 14.1426 29.583 0.091
    endloop
  endfacet
  facet normal 0.924056 0.382256 -0
    outer loop
      vertex 14.001 29.9253 0.091
      vertex 14.001 29.9253 0.391
      vertex 14.1426 29.583 0.391
    endloop
  endfacet
  facet normal 0.914437 0.404728 0
    outer loop
      vertex 13.8572 30.2502 0.091
      vertex 14.001 29.9253 0.391
      vertex 14.001 29.9253 0.091
    endloop
  endfacet
  facet normal 0.914437 0.404728 -0
    outer loop
      vertex 13.8572 30.2502 0.091
      vertex 13.8572 30.2502 0.391
      vertex 14.001 29.9253 0.391
    endloop
  endfacet
  facet normal 0.903235 0.429147 0
    outer loop
      vertex 13.7111 30.5577 0.091
      vertex 13.8572 30.2502 0.391
      vertex 13.8572 30.2502 0.091
    endloop
  endfacet
  facet normal 0.903235 0.429147 -0
    outer loop
      vertex 13.7111 30.5577 0.091
      vertex 13.7111 30.5577 0.391
      vertex 13.8572 30.2502 0.391
    endloop
  endfacet
  facet normal 0.890402 0.455176 0
    outer loop
      vertex 13.5628 30.8478 0.091
      vertex 13.7111 30.5577 0.391
      vertex 13.7111 30.5577 0.091
    endloop
  endfacet
  facet normal 0.890402 0.455176 -0
    outer loop
      vertex 13.5628 30.8478 0.091
      vertex 13.5628 30.8478 0.391
      vertex 13.7111 30.5577 0.391
    endloop
  endfacet
  facet normal 0.875381 0.483434 0
    outer loop
      vertex 13.4122 31.1205 0.091
      vertex 13.5628 30.8478 0.391
      vertex 13.5628 30.8478 0.091
    endloop
  endfacet
  facet normal 0.875381 0.483434 -0
    outer loop
      vertex 13.4122 31.1205 0.091
      vertex 13.4122 31.1205 0.391
      vertex 13.5628 30.8478 0.391
    endloop
  endfacet
  facet normal 0.858056 0.513556 0
    outer loop
      vertex 13.2594 31.3758 0.091
      vertex 13.4122 31.1205 0.391
      vertex 13.4122 31.1205 0.091
    endloop
  endfacet
  facet normal 0.858056 0.513556 -0
    outer loop
      vertex 13.2594 31.3758 0.091
      vertex 13.2594 31.3758 0.391
      vertex 13.4122 31.1205 0.391
    endloop
  endfacet
  facet normal 0.837695 0.546139 0
    outer loop
      vertex 13.1043 31.6137 0.091
      vertex 13.2594 31.3758 0.391
      vertex 13.2594 31.3758 0.091
    endloop
  endfacet
  facet normal 0.837695 0.546139 -0
    outer loop
      vertex 13.1043 31.6137 0.091
      vertex 13.1043 31.6137 0.391
      vertex 13.2594 31.3758 0.391
    endloop
  endfacet
  facet normal 0.814083 0.580749 0
    outer loop
      vertex 12.947 31.8342 0.091
      vertex 13.1043 31.6137 0.391
      vertex 13.1043 31.6137 0.091
    endloop
  endfacet
  facet normal 0.814083 0.580749 -0
    outer loop
      vertex 12.947 31.8342 0.091
      vertex 12.947 31.8342 0.391
      vertex 13.1043 31.6137 0.391
    endloop
  endfacet
  facet normal 0.781767 0.623571 0
    outer loop
      vertex 12.7846 32.0378 0.091
      vertex 12.947 31.8342 0.391
      vertex 12.947 31.8342 0.091
    endloop
  endfacet
  facet normal 0.781767 0.623571 -0
    outer loop
      vertex 12.7846 32.0378 0.091
      vertex 12.7846 32.0378 0.391
      vertex 12.947 31.8342 0.391
    endloop
  endfacet
  facet normal 0.739476 0.673183 0
    outer loop
      vertex 12.614 32.2252 0.091
      vertex 12.7846 32.0378 0.391
      vertex 12.7846 32.0378 0.091
    endloop
  endfacet
  facet normal 0.739476 0.673183 -0
    outer loop
      vertex 12.614 32.2252 0.091
      vertex 12.614 32.2252 0.391
      vertex 12.7846 32.0378 0.391
    endloop
  endfacet
  facet normal 0.691379 0.722493 0
    outer loop
      vertex 12.4352 32.3963 0.091
      vertex 12.614 32.2252 0.391
      vertex 12.614 32.2252 0.091
    endloop
  endfacet
  facet normal 0.691379 0.722493 -0
    outer loop
      vertex 12.4352 32.3963 0.091
      vertex 12.4352 32.3963 0.391
      vertex 12.614 32.2252 0.391
    endloop
  endfacet
  facet normal 0.637222 0.77068 0
    outer loop
      vertex 12.2481 32.551 0.091
      vertex 12.4352 32.3963 0.391
      vertex 12.4352 32.3963 0.091
    endloop
  endfacet
  facet normal 0.637222 0.77068 -0
    outer loop
      vertex 12.2481 32.551 0.091
      vertex 12.2481 32.551 0.391
      vertex 12.4352 32.3963 0.391
    endloop
  endfacet
  facet normal 0.578666 0.815564 0
    outer loop
      vertex 12.0529 32.6895 0.091
      vertex 12.2481 32.551 0.391
      vertex 12.2481 32.551 0.091
    endloop
  endfacet
  facet normal 0.578666 0.815564 -0
    outer loop
      vertex 12.0529 32.6895 0.091
      vertex 12.0529 32.6895 0.391
      vertex 12.2481 32.551 0.391
    endloop
  endfacet
  facet normal 0.514991 0.857195 0
    outer loop
      vertex 11.8495 32.8117 0.091
      vertex 12.0529 32.6895 0.391
      vertex 12.0529 32.6895 0.091
    endloop
  endfacet
  facet normal 0.514991 0.857195 -0
    outer loop
      vertex 11.8495 32.8117 0.091
      vertex 11.8495 32.8117 0.391
      vertex 12.0529 32.6895 0.391
    endloop
  endfacet
  facet normal 0.447383 0.894343 0
    outer loop
      vertex 11.6378 32.9176 0.091
      vertex 11.8495 32.8117 0.391
      vertex 11.8495 32.8117 0.091
    endloop
  endfacet
  facet normal 0.447383 0.894343 -0
    outer loop
      vertex 11.6378 32.9176 0.091
      vertex 11.6378 32.9176 0.391
      vertex 11.8495 32.8117 0.391
    endloop
  endfacet
  facet normal 0.377484 0.926016 0
    outer loop
      vertex 11.418 33.0072 0.091
      vertex 11.6378 32.9176 0.391
      vertex 11.6378 32.9176 0.091
    endloop
  endfacet
  facet normal 0.377484 0.926016 -0
    outer loop
      vertex 11.418 33.0072 0.091
      vertex 11.418 33.0072 0.391
      vertex 11.6378 32.9176 0.391
    endloop
  endfacet
  facet normal 0.306063 0.952011 0
    outer loop
      vertex 11.19 33.0805 0.091
      vertex 11.418 33.0072 0.391
      vertex 11.418 33.0072 0.091
    endloop
  endfacet
  facet normal 0.306063 0.952011 -0
    outer loop
      vertex 11.19 33.0805 0.091
      vertex 11.19 33.0805 0.391
      vertex 11.418 33.0072 0.391
    endloop
  endfacet
  facet normal 0.234976 0.972001 0
    outer loop
      vertex 10.9538 33.1376 0.091
      vertex 11.19 33.0805 0.391
      vertex 11.19 33.0805 0.091
    endloop
  endfacet
  facet normal 0.234976 0.972001 -0
    outer loop
      vertex 10.9538 33.1376 0.091
      vertex 10.9538 33.1376 0.391
      vertex 11.19 33.0805 0.391
    endloop
  endfacet
  facet normal 0.164268 0.986416 0
    outer loop
      vertex 10.7094 33.1783 0.091
      vertex 10.9538 33.1376 0.391
      vertex 10.9538 33.1376 0.091
    endloop
  endfacet
  facet normal 0.164268 0.986416 -0
    outer loop
      vertex 10.7094 33.1783 0.091
      vertex 10.7094 33.1783 0.391
      vertex 10.9538 33.1376 0.391
    endloop
  endfacet
  facet normal 0.0961102 0.995371 0
    outer loop
      vertex 10.4567 33.2027 0.091
      vertex 10.7094 33.1783 0.391
      vertex 10.7094 33.1783 0.091
    endloop
  endfacet
  facet normal 0.0961102 0.995371 -0
    outer loop
      vertex 10.4567 33.2027 0.091
      vertex 10.4567 33.2027 0.391
      vertex 10.7094 33.1783 0.391
    endloop
  endfacet
  facet normal 0.0314262 0.999506 0
    outer loop
      vertex 10.1959 33.2109 0.091
      vertex 10.4567 33.2027 0.391
      vertex 10.4567 33.2027 0.091
    endloop
  endfacet
  facet normal 0.0314262 0.999506 -0
    outer loop
      vertex 10.1959 33.2109 0.091
      vertex 10.1959 33.2109 0.391
      vertex 10.4567 33.2027 0.391
    endloop
  endfacet
  facet normal -0.0312657 0.999511 0
    outer loop
      vertex 9.93376 33.2027 0.091
      vertex 10.1959 33.2109 0.391
      vertex 10.1959 33.2109 0.091
    endloop
  endfacet
  facet normal -0.0312657 0.999511 0
    outer loop
      vertex 9.93376 33.2027 0.091
      vertex 9.93376 33.2027 0.391
      vertex 10.1959 33.2109 0.391
    endloop
  endfacet
  facet normal -0.0947212 0.995504 0
    outer loop
      vertex 9.67732 33.1783 0.091
      vertex 9.93376 33.2027 0.391
      vertex 9.93376 33.2027 0.091
    endloop
  endfacet
  facet normal -0.0947212 0.995504 0
    outer loop
      vertex 9.67732 33.1783 0.091
      vertex 9.67732 33.1783 0.391
      vertex 9.93376 33.2027 0.391
    endloop
  endfacet
  facet normal -0.160247 0.987077 0
    outer loop
      vertex 9.42662 33.1376 0.091
      vertex 9.67732 33.1783 0.391
      vertex 9.67732 33.1783 0.091
    endloop
  endfacet
  facet normal -0.160247 0.987077 0
    outer loop
      vertex 9.42662 33.1376 0.091
      vertex 9.42662 33.1376 0.391
      vertex 9.67732 33.1783 0.391
    endloop
  endfacet
  facet normal -0.226996 0.973896 0
    outer loop
      vertex 9.18164 33.0805 0.091
      vertex 9.42662 33.1376 0.391
      vertex 9.42662 33.1376 0.091
    endloop
  endfacet
  facet normal -0.226996 0.973896 0
    outer loop
      vertex 9.18164 33.0805 0.091
      vertex 9.18164 33.0805 0.391
      vertex 9.42662 33.1376 0.391
    endloop
  endfacet
  facet normal -0.292912 0.956139 0
    outer loop
      vertex 8.94237 33.0072 0.091
      vertex 9.18164 33.0805 0.391
      vertex 9.18164 33.0805 0.091
    endloop
  endfacet
  facet normal -0.292912 0.956139 0
    outer loop
      vertex 8.94237 33.0072 0.091
      vertex 8.94237 33.0072 0.391
      vertex 9.18164 33.0805 0.391
    endloop
  endfacet
  facet normal -0.358202 0.933644 0
    outer loop
      vertex 8.70883 32.9176 0.091
      vertex 8.94237 33.0072 0.391
      vertex 8.94237 33.0072 0.091
    endloop
  endfacet
  facet normal -0.358202 0.933644 0
    outer loop
      vertex 8.70883 32.9176 0.091
      vertex 8.70883 32.9176 0.391
      vertex 8.94237 33.0072 0.391
    endloop
  endfacet
  facet normal -0.42154 0.90681 0
    outer loop
      vertex 8.48102 32.8117 0.091
      vertex 8.70883 32.9176 0.391
      vertex 8.70883 32.9176 0.091
    endloop
  endfacet
  facet normal -0.42154 0.90681 0
    outer loop
      vertex 8.48102 32.8117 0.091
      vertex 8.48102 32.8117 0.391
      vertex 8.70883 32.9176 0.391
    endloop
  endfacet
  facet normal -0.482038 0.87615 0
    outer loop
      vertex 8.25891 32.6895 0.091
      vertex 8.48102 32.8117 0.391
      vertex 8.48102 32.8117 0.091
    endloop
  endfacet
  facet normal -0.482038 0.87615 0
    outer loop
      vertex 8.25891 32.6895 0.091
      vertex 8.25891 32.6895 0.391
      vertex 8.48102 32.8117 0.391
    endloop
  endfacet
  facet normal -0.539118 0.84223 0
    outer loop
      vertex 8.04254 32.551 0.091
      vertex 8.25891 32.6895 0.391
      vertex 8.25891 32.6895 0.091
    endloop
  endfacet
  facet normal -0.539118 0.84223 0
    outer loop
      vertex 8.04254 32.551 0.091
      vertex 8.04254 32.551 0.391
      vertex 8.25891 32.6895 0.391
    endloop
  endfacet
  facet normal -0.591919 0.805997 0
    outer loop
      vertex 7.83189 32.3963 0.091
      vertex 8.04254 32.551 0.391
      vertex 8.04254 32.551 0.091
    endloop
  endfacet
  facet normal -0.591919 0.805997 0
    outer loop
      vertex 7.83189 32.3963 0.091
      vertex 7.83189 32.3963 0.391
      vertex 8.04254 32.551 0.391
    endloop
  endfacet
  facet normal -0.640921 0.767607 0
    outer loop
      vertex 7.62697 32.2252 0.091
      vertex 7.83189 32.3963 0.391
      vertex 7.83189 32.3963 0.091
    endloop
  endfacet
  facet normal -0.640921 0.767607 0
    outer loop
      vertex 7.62697 32.2252 0.091
      vertex 7.62697 32.2252 0.391
      vertex 7.83189 32.3963 0.391
    endloop
  endfacet
  facet normal -0.685187 0.728367 0
    outer loop
      vertex 7.42776 32.0378 0.091
      vertex 7.62697 32.2252 0.391
      vertex 7.62697 32.2252 0.091
    endloop
  endfacet
  facet normal -0.685187 0.728367 0
    outer loop
      vertex 7.42776 32.0378 0.091
      vertex 7.42776 32.0378 0.391
      vertex 7.62697 32.2252 0.391
    endloop
  endfacet
  facet normal -0.724893 0.688862 0
    outer loop
      vertex 7.23428 31.8342 0.091
      vertex 7.42776 32.0378 0.391
      vertex 7.42776 32.0378 0.091
    endloop
  endfacet
  facet normal -0.724893 0.688862 0
    outer loop
      vertex 7.23428 31.8342 0.091
      vertex 7.23428 31.8342 0.391
      vertex 7.42776 32.0378 0.391
    endloop
  endfacet
  facet normal -0.76103 0.648716 0
    outer loop
      vertex 7.05101 31.6192 0.091
      vertex 7.23428 31.8342 0.391
      vertex 7.23428 31.8342 0.091
    endloop
  endfacet
  facet normal -0.76103 0.648716 0
    outer loop
      vertex 7.05101 31.6192 0.091
      vertex 7.05101 31.6192 0.391
      vertex 7.23428 31.8342 0.391
    endloop
  endfacet
  facet normal -0.795414 0.606067 0
    outer loop
      vertex 6.88239 31.3979 0.091
      vertex 7.05101 31.6192 0.391
      vertex 7.05101 31.6192 0.091
    endloop
  endfacet
  facet normal -0.795414 0.606067 0
    outer loop
      vertex 6.88239 31.3979 0.091
      vertex 6.88239 31.3979 0.391
      vertex 7.05101 31.6192 0.391
    endloop
  endfacet
  facet normal -0.828389 0.560154 0
    outer loop
      vertex 6.72842 31.1702 0.091
      vertex 6.88239 31.3979 0.391
      vertex 6.88239 31.3979 0.091
    endloop
  endfacet
  facet normal -0.828389 0.560154 0
    outer loop
      vertex 6.72842 31.1702 0.091
      vertex 6.72842 31.1702 0.391
      vertex 6.88239 31.3979 0.391
    endloop
  endfacet
  facet normal -0.85935 0.511388 0
    outer loop
      vertex 6.58911 30.9361 0.091
      vertex 6.72842 31.1702 0.391
      vertex 6.72842 31.1702 0.091
    endloop
  endfacet
  facet normal -0.85935 0.511388 0
    outer loop
      vertex 6.58911 30.9361 0.091
      vertex 6.58911 30.9361 0.391
      vertex 6.72842 31.1702 0.391
    endloop
  endfacet
  facet normal -0.887803 0.460224 0
    outer loop
      vertex 6.46449 30.6957 0.091
      vertex 6.58911 30.9361 0.391
      vertex 6.58911 30.9361 0.091
    endloop
  endfacet
  facet normal -0.887803 0.460224 0
    outer loop
      vertex 6.46449 30.6957 0.091
      vertex 6.46449 30.6957 0.391
      vertex 6.58911 30.9361 0.391
    endloop
  endfacet
  facet normal -0.913411 0.407038 0
    outer loop
      vertex 6.35451 30.4489 0.091
      vertex 6.46449 30.6957 0.391
      vertex 6.46449 30.6957 0.091
    endloop
  endfacet
  facet normal -0.913411 0.407038 0
    outer loop
      vertex 6.35451 30.4489 0.091
      vertex 6.35451 30.4489 0.391
      vertex 6.46449 30.6957 0.391
    endloop
  endfacet
  facet normal -0.935833 0.352444 0
    outer loop
      vertex 6.25919 30.1958 0.091
      vertex 6.35451 30.4489 0.391
      vertex 6.35451 30.4489 0.091
    endloop
  endfacet
  facet normal -0.935833 0.352444 0
    outer loop
      vertex 6.25919 30.1958 0.091
      vertex 6.25919 30.1958 0.391
      vertex 6.35451 30.4489 0.391
    endloop
  endfacet
  facet normal -0.954965 0.29672 0
    outer loop
      vertex 6.17856 29.9363 0.091
      vertex 6.25919 30.1958 0.391
      vertex 6.25919 30.1958 0.091
    endloop
  endfacet
  facet normal -0.954965 0.29672 0
    outer loop
      vertex 6.17856 29.9363 0.091
      vertex 6.17856 29.9363 0.391
      vertex 6.25919 30.1958 0.391
    endloop
  endfacet
  facet normal -0.970528 0.240989 0
    outer loop
      vertex 6.11256 29.6705 0.091
      vertex 6.17856 29.9363 0.391
      vertex 6.17856 29.9363 0.091
    endloop
  endfacet
  facet normal -0.970528 0.240989 0
    outer loop
      vertex 6.11256 29.6705 0.091
      vertex 6.11256 29.6705 0.391
      vertex 6.17856 29.9363 0.391
    endloop
  endfacet
  facet normal -0.982694 0.185239 0
    outer loop
      vertex 6.06125 29.3983 0.091
      vertex 6.11256 29.6705 0.391
      vertex 6.11256 29.6705 0.091
    endloop
  endfacet
  facet normal -0.982694 0.185239 0
    outer loop
      vertex 6.06125 29.3983 0.091
      vertex 6.06125 29.3983 0.391
      vertex 6.11256 29.6705 0.391
    endloop
  endfacet
  facet normal -0.991458 0.130427 0
    outer loop
      vertex 6.0246 29.1197 0.091
      vertex 6.06125 29.3983 0.391
      vertex 6.06125 29.3983 0.091
    endloop
  endfacet
  facet normal -0.991458 0.130427 0
    outer loop
      vertex 6.0246 29.1197 0.091
      vertex 6.0246 29.1197 0.391
      vertex 6.06125 29.3983 0.391
    endloop
  endfacet
  facet normal -0.997029 0.0770257 0
    outer loop
      vertex 6.00259 28.8348 0.091
      vertex 6.0246 29.1197 0.391
      vertex 6.0246 29.1197 0.091
    endloop
  endfacet
  facet normal -0.997029 0.0770257 0
    outer loop
      vertex 6.00259 28.8348 0.091
      vertex 6.00259 28.8348 0.391
      vertex 6.0246 29.1197 0.391
    endloop
  endfacet
  facet normal -0.999683 0.0251894 0
    outer loop
      vertex 5.99525 28.5435 0.091
      vertex 6.00259 28.8348 0.391
      vertex 6.00259 28.8348 0.091
    endloop
  endfacet
  facet normal -0.999683 0.0251894 0
    outer loop
      vertex 5.99525 28.5435 0.091
      vertex 5.99525 28.5435 0.391
      vertex 6.00259 28.8348 0.391
    endloop
  endfacet
  facet normal -0.999797 -0.0201253 0
    outer loop
      vertex 6.00023 28.2961 0.091
      vertex 5.99525 28.5435 0.391
      vertex 5.99525 28.5435 0.091
    endloop
  endfacet
  facet normal -0.999797 -0.0201253 0
    outer loop
      vertex 6.00023 28.2961 0.091
      vertex 6.00023 28.2961 0.391
      vertex 5.99525 28.5435 0.391
    endloop
  endfacet
  facet normal -0.998281 -0.0586161 0
    outer loop
      vertex 6.01515 28.042 0.091
      vertex 6.00023 28.2961 0.391
      vertex 6.00023 28.2961 0.091
    endloop
  endfacet
  facet normal -0.998281 -0.0586161 0
    outer loop
      vertex 6.01515 28.042 0.091
      vertex 6.01515 28.042 0.391
      vertex 6.00023 28.2961 0.391
    endloop
  endfacet
  facet normal -0.995492 -0.0948506 0
    outer loop
      vertex 6.03998 27.7814 0.091
      vertex 6.01515 28.042 0.391
      vertex 6.01515 28.042 0.091
    endloop
  endfacet
  facet normal -0.995492 -0.0948506 0
    outer loop
      vertex 6.03998 27.7814 0.091
      vertex 6.03998 27.7814 0.391
      vertex 6.01515 28.042 0.391
    endloop
  endfacet
  facet normal -0.991646 -0.128992 0
    outer loop
      vertex 6.07475 27.5141 0.091
      vertex 6.03998 27.7814 0.391
      vertex 6.03998 27.7814 0.091
    endloop
  endfacet
  facet normal -0.991646 -0.128992 0
    outer loop
      vertex 6.07475 27.5141 0.091
      vertex 6.07475 27.5141 0.391
      vertex 6.03998 27.7814 0.391
    endloop
  endfacet
  facet normal -0.986936 -0.161115 0
    outer loop
      vertex 6.11948 27.2401 0.091
      vertex 6.07475 27.5141 0.391
      vertex 6.07475 27.5141 0.091
    endloop
  endfacet
  facet normal -0.986936 -0.161115 0
    outer loop
      vertex 6.11948 27.2401 0.091
      vertex 6.11948 27.2401 0.391
      vertex 6.07475 27.5141 0.391
    endloop
  endfacet
  facet normal -0.981564 -0.191136 0
    outer loop
      vertex 6.17412 26.9595 0.091
      vertex 6.11948 27.2401 0.391
      vertex 6.11948 27.2401 0.091
    endloop
  endfacet
  facet normal -0.981564 -0.191136 0
    outer loop
      vertex 6.17412 26.9595 0.091
      vertex 6.17412 26.9595 0.391
      vertex 6.11948 27.2401 0.391
    endloop
  endfacet
  facet normal -0.975624 -0.219448 0
    outer loop
      vertex 6.23872 26.6723 0.091
      vertex 6.17412 26.9595 0.391
      vertex 6.17412 26.9595 0.091
    endloop
  endfacet
  facet normal -0.975624 -0.219448 0
    outer loop
      vertex 6.23872 26.6723 0.091
      vertex 6.23872 26.6723 0.391
      vertex 6.17412 26.9595 0.391
    endloop
  endfacet
  facet normal -0.969314 -0.245826 0
    outer loop
      vertex 6.31323 26.3785 0.091
      vertex 6.23872 26.6723 0.391
      vertex 6.23872 26.6723 0.091
    endloop
  endfacet
  facet normal -0.969314 -0.245826 0
    outer loop
      vertex 6.31323 26.3785 0.091
      vertex 6.31323 26.3785 0.391
      vertex 6.23872 26.6723 0.391
    endloop
  endfacet
  facet normal -0.962697 -0.27058 0
    outer loop
      vertex 6.39769 26.078 0.091
      vertex 6.31323 26.3785 0.391
      vertex 6.31323 26.3785 0.091
    endloop
  endfacet
  facet normal -0.962697 -0.27058 0
    outer loop
      vertex 6.39769 26.078 0.091
      vertex 6.39769 26.078 0.391
      vertex 6.31323 26.3785 0.391
    endloop
  endfacet
  facet normal -0.955851 -0.293852 0
    outer loop
      vertex 6.4921 25.7709 0.091
      vertex 6.39769 26.078 0.391
      vertex 6.39769 26.078 0.091
    endloop
  endfacet
  facet normal -0.955851 -0.293852 0
    outer loop
      vertex 6.4921 25.7709 0.091
      vertex 6.4921 25.7709 0.391
      vertex 6.39769 26.078 0.391
    endloop
  endfacet
  facet normal -0.948937 -0.315466 0
    outer loop
      vertex 6.59642 25.4571 0.091
      vertex 6.4921 25.7709 0.391
      vertex 6.4921 25.7709 0.091
    endloop
  endfacet
  facet normal -0.948937 -0.315466 0
    outer loop
      vertex 6.59642 25.4571 0.091
      vertex 6.59642 25.4571 0.391
      vertex 6.4921 25.7709 0.391
    endloop
  endfacet
  facet normal -0.941889 -0.335923 0
    outer loop
      vertex 6.71069 25.1367 0.091
      vertex 6.59642 25.4571 0.391
      vertex 6.59642 25.4571 0.091
    endloop
  endfacet
  facet normal -0.941889 -0.335923 0
    outer loop
      vertex 6.71069 25.1367 0.091
      vertex 6.71069 25.1367 0.391
      vertex 6.59642 25.4571 0.391
    endloop
  endfacet
  facet normal -0.934831 -0.355093 0
    outer loop
      vertex 6.8349 24.8097 0.091
      vertex 6.71069 25.1367 0.391
      vertex 6.71069 25.1367 0.091
    endloop
  endfacet
  facet normal -0.934831 -0.355093 0
    outer loop
      vertex 6.8349 24.8097 0.091
      vertex 6.8349 24.8097 0.391
      vertex 6.71069 25.1367 0.391
    endloop
  endfacet
  facet normal -0.964005 -0.265885 0
    outer loop
      vertex 13.8708 -0.699997 0.091
      vertex 6.8349 24.8097 0.391
      vertex 6.8349 24.8097 0.091
    endloop
  endfacet
  facet normal -0.964005 -0.265885 0
    outer loop
      vertex 13.8708 -0.699997 0.091
      vertex 13.8708 -0.699997 0.391
      vertex 6.8349 24.8097 0.391
    endloop
  endfacet
  facet normal 0 -1 0
    outer loop
      vertex 22.5783 -0.699997 0.091
      vertex 13.8708 -0.699997 0.391
      vertex 13.8708 -0.699997 0.091
    endloop
  endfacet
  facet normal 0 -1 0
    outer loop
      vertex 22.5783 -0.699997 0.091
      vertex 22.5783 -0.699997 0.391
      vertex 13.8708 -0.699997 0.391
    endloop
  endfacet
  facet normal 0.964415 0.264394 0
    outer loop
      vertex 14.817 27.6105 0.091
      vertex 22.5783 -0.699997 0.391
      vertex 22.5783 -0.699997 0.091
    endloop
  endfacet
  facet normal 0.964415 0.264394 -0
    outer loop
      vertex 14.817 27.6105 0.091
      vertex 14.817 27.6105 0.391
      vertex 22.5783 -0.699997 0.391
    endloop
  endfacet
endsolid OpenSCAD_Model
